<?xml version="1.0" encoding="UTF-8" standalone="no"?>
<!DOCTYPE svg PUBLIC "-//W3C//DTD SVG 1.1//EN"
 "http://www.w3.org/Graphics/SVG/1.1/DTD/svg11.dtd">
<!-- Generated by graphviz version 2.43.0 (0)
 -->
<!-- Title: G Pages: 1 -->
<svg width="724pt" height="184pt"
 viewBox="0.00 0.00 724.20 184.20" xmlns="http://www.w3.org/2000/svg" xmlns:xlink="http://www.w3.org/1999/xlink">
<g id="graph0" class="graph" transform="scale(1 1) rotate(0) translate(21.6 162.6)">
<title>G</title>
<polygon fill="#111111" stroke="transparent" points="-21.6,21.6 -21.6,-162.6 702.6,-162.6 702.6,21.6 -21.6,21.6"/>
<!-- ../../packages/server&#45;core/dist/index.d.ts -->
<g id="node1" class="node">
<title>../../packages/server&#45;core/dist/index.d.ts</title>
<path fill="none" stroke="#cfffac" d="M673.33,-82C673.33,-82 433.67,-82 433.67,-82 429.83,-82 426,-78.17 426,-74.33 426,-74.33 426,-66.67 426,-66.67 426,-62.83 429.83,-59 433.67,-59 433.67,-59 673.33,-59 673.33,-59 677.17,-59 681,-62.83 681,-66.67 681,-66.67 681,-74.33 681,-74.33 681,-78.17 677.17,-82 673.33,-82"/>
<text text-anchor="middle" x="553.5" y="-66.8" font-family="Arial" font-size="14.00" fill="#cfffac">../../packages/server&#45;core/dist/index.d.ts</text>
</g>
<!-- app.ts -->
<g id="node2" class="node">
<title>app.ts</title>
<path fill="none" stroke="#c6c5fe" d="M271.83,-141C271.83,-141 233.17,-141 233.17,-141 229.33,-141 225.5,-137.17 225.5,-133.33 225.5,-133.33 225.5,-125.67 225.5,-125.67 225.5,-121.83 229.33,-118 233.17,-118 233.17,-118 271.83,-118 271.83,-118 275.67,-118 279.5,-121.83 279.5,-125.67 279.5,-125.67 279.5,-133.33 279.5,-133.33 279.5,-137.17 275.67,-141 271.83,-141"/>
<text text-anchor="middle" x="252.5" y="-125.8" font-family="Arial" font-size="14.00" fill="#c6c5fe">app.ts</text>
</g>
<!-- app.ts&#45;&gt;../../packages/server&#45;core/dist/index.d.ts -->
<g id="edge1" class="edge">
<title>app.ts&#45;&gt;../../packages/server&#45;core/dist/index.d.ts</title>
<path fill="none" stroke="#757575" d="M279.69,-124.61C307.18,-119.45 351.65,-111.05 390,-103.5 421.71,-97.26 456.86,-90.15 486.33,-84.13"/>
<polygon fill="#757575" stroke="#757575" points="487.41,-87.48 496.51,-82.05 486.01,-80.62 487.41,-87.48"/>
</g>
<!-- config.ts -->
<g id="node3" class="node">
<title>config.ts</title>
<path fill="none" stroke="#c6c5fe" d="M278.33,-61C278.33,-61 226.67,-61 226.67,-61 222.83,-61 219,-57.17 219,-53.33 219,-53.33 219,-45.67 219,-45.67 219,-41.83 222.83,-38 226.67,-38 226.67,-38 278.33,-38 278.33,-38 282.17,-38 286,-41.83 286,-45.67 286,-45.67 286,-53.33 286,-53.33 286,-57.17 282.17,-61 278.33,-61"/>
<text text-anchor="middle" x="252.5" y="-45.8" font-family="Arial" font-size="14.00" fill="#c6c5fe">config.ts</text>
</g>
<!-- config.ts&#45;&gt;../../packages/server&#45;core/dist/index.d.ts -->
<g id="edge2" class="edge">
<title>config.ts&#45;&gt;../../packages/server&#45;core/dist/index.d.ts</title>
<path fill="none" stroke="#757575" d="M286.07,-51.79C317.58,-54 367.52,-57.51 415.68,-60.89"/>
<polygon fill="#757575" stroke="#757575" points="415.71,-64.4 425.93,-61.61 416.2,-57.42 415.71,-64.4"/>
</g>
<!-- logger.ts -->
<g id="node4" class="node">
<title>logger.ts</title>
<path fill="none" stroke="#c6c5fe" d="M382.33,-23C382.33,-23 329.67,-23 329.67,-23 325.83,-23 322,-19.17 322,-15.33 322,-15.33 322,-7.67 322,-7.67 322,-3.83 325.83,0 329.67,0 329.67,0 382.33,0 382.33,0 386.17,0 390,-3.83 390,-7.67 390,-7.67 390,-15.33 390,-15.33 390,-19.17 386.17,-23 382.33,-23"/>
<text text-anchor="middle" x="356" y="-7.8" font-family="Arial" font-size="14.00" fill="#c6c5fe">logger.ts</text>
</g>
<!-- config.ts&#45;&gt;logger.ts -->
<g id="edge3" class="edge">
<title>config.ts&#45;&gt;logger.ts</title>
<path fill="none" stroke="#757575" d="M284.23,-38C293.78,-34.42 304.46,-30.42 314.56,-26.64"/>
<polygon fill="#757575" stroke="#757575" points="315.89,-29.88 324.03,-23.1 313.43,-23.32 315.89,-29.88"/>
</g>
<!-- logger.ts&#45;&gt;../../packages/server&#45;core/dist/index.d.ts -->
<g id="edge6" class="edge">
<title>logger.ts&#45;&gt;../../packages/server&#45;core/dist/index.d.ts</title>
<path fill="none" stroke="#757575" d="M390.16,-21.51C421.53,-30.97 468.96,-45.29 504.46,-56"/>
<polygon fill="#757575" stroke="#757575" points="503.55,-59.38 514.14,-58.92 505.57,-52.68 503.55,-59.38"/>
</g>
<!-- container.ts -->
<g id="node5" class="node">
<title>container.ts</title>
<path fill="none" stroke="#c6c5fe" d="M175.33,-101C175.33,-101 104.67,-101 104.67,-101 100.83,-101 97,-97.17 97,-93.33 97,-93.33 97,-85.67 97,-85.67 97,-81.83 100.83,-78 104.67,-78 104.67,-78 175.33,-78 175.33,-78 179.17,-78 183,-81.83 183,-85.67 183,-85.67 183,-93.33 183,-93.33 183,-97.17 179.17,-101 175.33,-101"/>
<text text-anchor="middle" x="140" y="-85.8" font-family="Arial" font-size="14.00" fill="#c6c5fe">container.ts</text>
</g>
<!-- container.ts&#45;&gt;../../packages/server&#45;core/dist/index.d.ts -->
<g id="edge4" class="edge">
<title>container.ts&#45;&gt;../../packages/server&#45;core/dist/index.d.ts</title>
<path fill="none" stroke="#757575" d="M183.1,-87.56C237.42,-85.05 334.55,-80.56 415.58,-76.82"/>
<polygon fill="#757575" stroke="#757575" points="416.06,-80.3 425.89,-76.35 415.74,-73.31 416.06,-80.3"/>
</g>
<!-- container.ts&#45;&gt;config.ts -->
<g id="edge5" class="edge">
<title>container.ts&#45;&gt;config.ts</title>
<path fill="none" stroke="#757575" d="M172.96,-77.93C184.53,-73.74 197.76,-68.95 210.03,-64.51"/>
<polygon fill="#757575" stroke="#757575" points="211.4,-67.74 219.61,-61.04 209.02,-61.16 211.4,-67.74"/>
</g>
<!-- main.ts -->
<g id="node6" class="node">
<title>main.ts</title>
<path fill="none" stroke="#c6c5fe" d="M53.33,-121C53.33,-121 7.67,-121 7.67,-121 3.83,-121 0,-117.17 0,-113.33 0,-113.33 0,-105.67 0,-105.67 0,-101.83 3.83,-98 7.67,-98 7.67,-98 53.33,-98 53.33,-98 57.17,-98 61,-101.83 61,-105.67 61,-105.67 61,-113.33 61,-113.33 61,-117.17 57.17,-121 53.33,-121"/>
<text text-anchor="middle" x="30.5" y="-105.8" font-family="Arial" font-size="14.00" fill="#c6c5fe">main.ts</text>
</g>
<!-- main.ts&#45;&gt;app.ts -->
<g id="edge7" class="edge">
<title>main.ts&#45;&gt;app.ts</title>
<path fill="none" stroke="#757575" d="M61.17,-112.2C101.15,-115.83 172.27,-122.3 215.33,-126.21"/>
<polygon fill="#757575" stroke="#757575" points="215.1,-129.71 225.38,-127.13 215.74,-122.73 215.1,-129.71"/>
</g>
<!-- main.ts&#45;&gt;container.ts -->
<g id="edge8" class="edge">
<title>main.ts&#45;&gt;container.ts</title>
<path fill="none" stroke="#757575" d="M61.16,-103.98C69.2,-102.49 78.14,-100.82 87.02,-99.17"/>
<polygon fill="#757575" stroke="#757575" points="87.77,-102.59 96.96,-97.32 86.49,-95.71 87.77,-102.59"/>
</g>
</g>
</svg>
