<?xml version="1.0" encoding="UTF-8" standalone="no"?>
<!DOCTYPE svg PUBLIC "-//W3C//DTD SVG 1.1//EN"
 "http://www.w3.org/Graphics/SVG/1.1/DTD/svg11.dtd">
<!-- Generated by graphviz version 2.43.0 (0)
 -->
<!-- Title: G Pages: 1 -->
<svg width="2881pt" height="1571pt"
 viewBox="0.00 0.00 2881.20 1571.08" xmlns="http://www.w3.org/2000/svg" xmlns:xlink="http://www.w3.org/1999/xlink">
<g id="graph0" class="graph" transform="scale(1 1) rotate(0) translate(21.6 1549.48)">
<title>G</title>
<polygon fill="#111111" stroke="transparent" points="-21.6,21.6 -21.6,-1549.48 2859.6,-1549.48 2859.6,21.6 -21.6,21.6"/>
<!-- app.ts -->
<g id="node1" class="node">
<title>app.ts</title>
<path fill="none" stroke="#c6c5fe" d="M321.83,-1527.88C321.83,-1527.88 283.17,-1527.88 283.17,-1527.88 279.33,-1527.88 275.5,-1524.05 275.5,-1520.22 275.5,-1520.22 275.5,-1512.55 275.5,-1512.55 275.5,-1508.72 279.33,-1504.88 283.17,-1504.88 283.17,-1504.88 321.83,-1504.88 321.83,-1504.88 325.67,-1504.88 329.5,-1508.72 329.5,-1512.55 329.5,-1512.55 329.5,-1520.22 329.5,-1520.22 329.5,-1524.05 325.67,-1527.88 321.83,-1527.88"/>
<text text-anchor="middle" x="302.5" y="-1512.68" font-family="Arial" font-size="14.00" fill="#c6c5fe">app.ts</text>
</g>
<!-- src/index.ts -->
<g id="node2" class="node">
<title>src/index.ts</title>
<path fill="none" stroke="#c6c5fe" d="M603.33,-1409.88C603.33,-1409.88 533.67,-1409.88 533.67,-1409.88 529.83,-1409.88 526,-1406.05 526,-1402.22 526,-1402.22 526,-1394.55 526,-1394.55 526,-1390.72 529.83,-1386.88 533.67,-1386.88 533.67,-1386.88 603.33,-1386.88 603.33,-1386.88 607.17,-1386.88 611,-1390.72 611,-1394.55 611,-1394.55 611,-1402.22 611,-1402.22 611,-1406.05 607.17,-1409.88 603.33,-1409.88"/>
<text text-anchor="middle" x="568.5" y="-1394.68" font-family="Arial" font-size="14.00" fill="#c6c5fe">src/index.ts</text>
</g>
<!-- app.ts&#45;&gt;src/index.ts -->
<g id="edge1" class="edge">
<title>app.ts&#45;&gt;src/index.ts</title>
<path fill="none" stroke="#757575" d="M329.57,-1515.86C367.22,-1514.1 437.98,-1506.88 490,-1478.38 516.67,-1463.77 539.82,-1436.92 553.71,-1418.38"/>
<polygon fill="#757575" stroke="#757575" points="556.72,-1420.19 559.76,-1410.04 551.06,-1416.08 556.72,-1420.19"/>
</g>
<!-- src/resources.ts -->
<g id="node5" class="node">
<title>src/resources.ts</title>
<path fill="none" stroke="#cfffac" d="M2830.33,-957.88C2830.33,-957.88 2733.67,-957.88 2733.67,-957.88 2729.83,-957.88 2726,-954.05 2726,-950.22 2726,-950.22 2726,-942.55 2726,-942.55 2726,-938.72 2729.83,-934.88 2733.67,-934.88 2733.67,-934.88 2830.33,-934.88 2830.33,-934.88 2834.17,-934.88 2838,-938.72 2838,-942.55 2838,-942.55 2838,-950.22 2838,-950.22 2838,-954.05 2834.17,-957.88 2830.33,-957.88"/>
<text text-anchor="middle" x="2782" y="-942.68" font-family="Arial" font-size="14.00" fill="#cfffac">src/resources.ts</text>
</g>
<!-- src/index.ts&#45;&gt;src/resources.ts -->
<g id="edge63" class="edge">
<title>src/index.ts&#45;&gt;src/resources.ts</title>
<path fill="none" stroke="#757575" d="M599.17,-1410C647.13,-1427.7 744.99,-1459.38 831,-1459.38 831,-1459.38 831,-1459.38 2163.5,-1459.38 2408.2,-1459.38 2520.8,-1475.15 2690,-1298.38 2736.61,-1249.68 2768.8,-1037.18 2778.18,-968.14"/>
<polygon fill="#757575" stroke="#757575" points="2781.68,-968.37 2779.53,-957.99 2774.74,-967.44 2781.68,-968.37"/>
</g>
<!-- src/config.ts -->
<g id="node8" class="node">
<title>src/config.ts</title>
<path fill="none" stroke="#c6c5fe" d="M1812.83,-1309.88C1812.83,-1309.88 1739.17,-1309.88 1739.17,-1309.88 1735.33,-1309.88 1731.5,-1306.05 1731.5,-1302.22 1731.5,-1302.22 1731.5,-1294.55 1731.5,-1294.55 1731.5,-1290.72 1735.33,-1286.88 1739.17,-1286.88 1739.17,-1286.88 1812.83,-1286.88 1812.83,-1286.88 1816.67,-1286.88 1820.5,-1290.72 1820.5,-1294.55 1820.5,-1294.55 1820.5,-1302.22 1820.5,-1302.22 1820.5,-1306.05 1816.67,-1309.88 1812.83,-1309.88"/>
<text text-anchor="middle" x="1776" y="-1294.68" font-family="Arial" font-size="14.00" fill="#c6c5fe">src/config.ts</text>
</g>
<!-- src/index.ts&#45;&gt;src/config.ts -->
<g id="edge60" class="edge">
<title>src/index.ts&#45;&gt;src/config.ts</title>
<path fill="none" stroke="#757575" d="M586.69,-1386.72C627.29,-1360.34 733.06,-1298.38 831,-1298.38 831,-1298.38 831,-1298.38 1033.5,-1298.38 1290.87,-1298.38 1598.48,-1298.38 1720.9,-1298.38"/>
<polygon fill="#757575" stroke="#757575" points="1721.12,-1301.88 1731.12,-1298.38 1721.12,-1294.88 1721.12,-1301.88"/>
</g>
<!-- src/core.ts -->
<g id="node10" class="node">
<title>src/core.ts</title>
<path fill="none" stroke="#c6c5fe" d="M718.33,-1269.88C718.33,-1269.88 654.67,-1269.88 654.67,-1269.88 650.83,-1269.88 647,-1266.05 647,-1262.22 647,-1262.22 647,-1254.55 647,-1254.55 647,-1250.72 650.83,-1246.88 654.67,-1246.88 654.67,-1246.88 718.33,-1246.88 718.33,-1246.88 722.17,-1246.88 726,-1250.72 726,-1254.55 726,-1254.55 726,-1262.22 726,-1262.22 726,-1266.05 722.17,-1269.88 718.33,-1269.88"/>
<text text-anchor="middle" x="686.5" y="-1254.68" font-family="Arial" font-size="14.00" fill="#c6c5fe">src/core.ts</text>
</g>
<!-- src/index.ts&#45;&gt;src/core.ts -->
<g id="edge61" class="edge">
<title>src/index.ts&#45;&gt;src/core.ts</title>
<path fill="none" stroke="#757575" d="M575.51,-1386.65C587.14,-1364.73 614.46,-1316.82 647,-1284.38 650.02,-1281.37 653.44,-1278.5 656.95,-1275.83"/>
<polygon fill="#757575" stroke="#757575" points="659.05,-1278.63 665.21,-1270.01 655.02,-1272.91 659.05,-1278.63"/>
</g>
<!-- src/handlers/index.ts -->
<g id="node11" class="node">
<title>src/handlers/index.ts</title>
<path fill="none" stroke="#c6c5fe" d="M894.33,-1170.88C894.33,-1170.88 769.67,-1170.88 769.67,-1170.88 765.83,-1170.88 762,-1167.05 762,-1163.22 762,-1163.22 762,-1155.55 762,-1155.55 762,-1151.72 765.83,-1147.88 769.67,-1147.88 769.67,-1147.88 894.33,-1147.88 894.33,-1147.88 898.17,-1147.88 902,-1151.72 902,-1155.55 902,-1155.55 902,-1163.22 902,-1163.22 902,-1167.05 898.17,-1170.88 894.33,-1170.88"/>
<text text-anchor="middle" x="832" y="-1155.68" font-family="Arial" font-size="14.00" fill="#c6c5fe">src/handlers/index.ts</text>
</g>
<!-- src/index.ts&#45;&gt;src/handlers/index.ts -->
<g id="edge62" class="edge">
<title>src/index.ts&#45;&gt;src/handlers/index.ts</title>
<path fill="none" stroke="#757575" d="M572.12,-1386.56C579.18,-1357.36 601.2,-1281.05 647,-1237.38 680.68,-1205.27 729.58,-1185.39 768.51,-1173.75"/>
<polygon fill="#757575" stroke="#757575" points="769.53,-1177.1 778.17,-1170.96 767.59,-1170.37 769.53,-1177.1"/>
</g>
<!-- main.config.ts -->
<g id="node3" class="node">
<title>main.config.ts</title>
<path fill="none" stroke="#c6c5fe" d="M345.33,-1468.88C345.33,-1468.88 259.67,-1468.88 259.67,-1468.88 255.83,-1468.88 252,-1465.05 252,-1461.22 252,-1461.22 252,-1453.55 252,-1453.55 252,-1449.72 255.83,-1445.88 259.67,-1445.88 259.67,-1445.88 345.33,-1445.88 345.33,-1445.88 349.17,-1445.88 353,-1449.72 353,-1453.55 353,-1453.55 353,-1461.22 353,-1461.22 353,-1465.05 349.17,-1468.88 345.33,-1468.88"/>
<text text-anchor="middle" x="302.5" y="-1453.68" font-family="Arial" font-size="14.00" fill="#c6c5fe">main.config.ts</text>
</g>
<!-- main.config.ts&#45;&gt;src/index.ts -->
<g id="edge3" class="edge">
<title>main.config.ts&#45;&gt;src/index.ts</title>
<path fill="none" stroke="#757575" d="M352.3,-1445.84C364.29,-1443.04 377.1,-1440.07 389,-1437.38 431.66,-1427.73 480.15,-1417.16 515.82,-1409.47"/>
<polygon fill="#757575" stroke="#757575" points="516.95,-1412.8 525.98,-1407.27 515.47,-1405.96 516.95,-1412.8"/>
</g>
<!-- main.logger.ts -->
<g id="node4" class="node">
<title>main.logger.ts</title>
<path fill="none" stroke="#c6c5fe" d="M482.33,-1468.88C482.33,-1468.88 396.67,-1468.88 396.67,-1468.88 392.83,-1468.88 389,-1465.05 389,-1461.22 389,-1461.22 389,-1453.55 389,-1453.55 389,-1449.72 392.83,-1445.88 396.67,-1445.88 396.67,-1445.88 482.33,-1445.88 482.33,-1445.88 486.17,-1445.88 490,-1449.72 490,-1453.55 490,-1453.55 490,-1461.22 490,-1461.22 490,-1465.05 486.17,-1468.88 482.33,-1468.88"/>
<text text-anchor="middle" x="439.5" y="-1453.68" font-family="Arial" font-size="14.00" fill="#c6c5fe">main.logger.ts</text>
</g>
<!-- main.config.ts&#45;&gt;main.logger.ts -->
<g id="edge2" class="edge">
<title>main.config.ts&#45;&gt;main.logger.ts</title>
<path fill="none" stroke="#757575" d="M353,-1457.38C361.24,-1457.38 369.87,-1457.38 378.34,-1457.38"/>
<polygon fill="#757575" stroke="#757575" points="378.55,-1460.88 388.55,-1457.38 378.55,-1453.88 378.55,-1460.88"/>
</g>
<!-- main.config.ts&#45;&gt;src/resources.ts -->
<g id="edge4" class="edge">
<title>main.config.ts&#45;&gt;src/resources.ts</title>
<path fill="none" stroke="#757575" d="M345.88,-1468.99C359.56,-1472.41 374.85,-1475.9 389,-1478.38 467.58,-1492.15 487.72,-1497.38 567.5,-1497.38 567.5,-1497.38 567.5,-1497.38 2163.5,-1497.38 2402.11,-1497.38 2520.91,-1560.73 2690,-1392.38 2751.24,-1331.41 2774.26,-1049.08 2779.67,-968.13"/>
<polygon fill="#757575" stroke="#757575" points="2783.17,-968.29 2780.32,-958.09 2776.18,-967.84 2783.17,-968.29"/>
</g>
<!-- main.logger.ts&#45;&gt;src/index.ts -->
<g id="edge7" class="edge">
<title>main.logger.ts&#45;&gt;src/index.ts</title>
<path fill="none" stroke="#757575" d="M465.29,-1445.87C484.66,-1436.87 511.79,-1424.26 533.24,-1414.3"/>
<polygon fill="#757575" stroke="#757575" points="534.75,-1417.46 542.34,-1410.07 531.8,-1411.11 534.75,-1417.46"/>
</g>
<!-- main.container.ts -->
<g id="node6" class="node">
<title>main.container.ts</title>
<path fill="none" stroke="#c6c5fe" d="M208.33,-1468.88C208.33,-1468.88 104.67,-1468.88 104.67,-1468.88 100.83,-1468.88 97,-1465.05 97,-1461.22 97,-1461.22 97,-1453.55 97,-1453.55 97,-1449.72 100.83,-1445.88 104.67,-1445.88 104.67,-1445.88 208.33,-1445.88 208.33,-1445.88 212.17,-1445.88 216,-1449.72 216,-1453.55 216,-1453.55 216,-1461.22 216,-1461.22 216,-1465.05 212.17,-1468.88 208.33,-1468.88"/>
<text text-anchor="middle" x="156.5" y="-1453.68" font-family="Arial" font-size="14.00" fill="#c6c5fe">main.container.ts</text>
</g>
<!-- main.container.ts&#45;&gt;src/index.ts -->
<g id="edge6" class="edge">
<title>main.container.ts&#45;&gt;src/index.ts</title>
<path fill="none" stroke="#757575" d="M210.93,-1445.87C224.33,-1443.04 238.68,-1440.06 252,-1437.38 312.76,-1425.19 327.55,-1419.42 389,-1411.38 431.48,-1405.82 479.99,-1402.48 515.7,-1400.58"/>
<polygon fill="#757575" stroke="#757575" points="516.08,-1404.07 525.89,-1400.06 515.72,-1397.08 516.08,-1404.07"/>
</g>
<!-- main.container.ts&#45;&gt;main.config.ts -->
<g id="edge5" class="edge">
<title>main.container.ts&#45;&gt;main.config.ts</title>
<path fill="none" stroke="#757575" d="M216.07,-1457.38C224.48,-1457.38 233.15,-1457.38 241.59,-1457.38"/>
<polygon fill="#757575" stroke="#757575" points="241.74,-1460.88 251.74,-1457.38 241.74,-1453.88 241.74,-1460.88"/>
</g>
<!-- main.ts -->
<g id="node7" class="node">
<title>main.ts</title>
<path fill="none" stroke="#c6c5fe" d="M53.33,-1488.88C53.33,-1488.88 7.67,-1488.88 7.67,-1488.88 3.83,-1488.88 0,-1485.05 0,-1481.22 0,-1481.22 0,-1473.55 0,-1473.55 0,-1469.72 3.83,-1465.88 7.67,-1465.88 7.67,-1465.88 53.33,-1465.88 53.33,-1465.88 57.17,-1465.88 61,-1469.72 61,-1473.55 61,-1473.55 61,-1481.22 61,-1481.22 61,-1485.05 57.17,-1488.88 53.33,-1488.88"/>
<text text-anchor="middle" x="30.5" y="-1473.68" font-family="Arial" font-size="14.00" fill="#c6c5fe">main.ts</text>
</g>
<!-- main.ts&#45;&gt;app.ts -->
<g id="edge8" class="edge">
<title>main.ts&#45;&gt;app.ts</title>
<path fill="none" stroke="#757575" d="M61.17,-1481.67C111,-1488.87 211.33,-1503.36 265.25,-1511.15"/>
<polygon fill="#757575" stroke="#757575" points="264.99,-1514.65 275.39,-1512.61 265.99,-1507.72 264.99,-1514.65"/>
</g>
<!-- main.ts&#45;&gt;main.container.ts -->
<g id="edge9" class="edge">
<title>main.ts&#45;&gt;main.container.ts</title>
<path fill="none" stroke="#757575" d="M61.2,-1472.59C69.01,-1471.33 77.77,-1469.92 86.71,-1468.48"/>
<polygon fill="#757575" stroke="#757575" points="87.54,-1471.89 96.86,-1466.84 86.43,-1464.98 87.54,-1471.89"/>
</g>
<!-- src/config.ts&#45;&gt;src/resources.ts -->
<g id="edge10" class="edge">
<title>src/config.ts&#45;&gt;src/resources.ts</title>
<path fill="none" stroke="#757575" d="M1820.69,-1299.26C1983.61,-1301.65 2553.38,-1301.96 2690,-1193.38 2761.69,-1136.4 2776.91,-1017.28 2780.13,-968.22"/>
<polygon fill="#757575" stroke="#757575" points="2783.63,-968.27 2780.69,-958.09 2776.65,-967.88 2783.63,-968.27"/>
</g>
<!-- src/constants.ts -->
<g id="node9" class="node">
<title>src/constants.ts</title>
<path fill="none" stroke="#cfffac" d="M2829.33,-711.88C2829.33,-711.88 2734.67,-711.88 2734.67,-711.88 2730.83,-711.88 2727,-708.05 2727,-704.22 2727,-704.22 2727,-696.55 2727,-696.55 2727,-692.72 2730.83,-688.88 2734.67,-688.88 2734.67,-688.88 2829.33,-688.88 2829.33,-688.88 2833.17,-688.88 2837,-692.72 2837,-696.55 2837,-696.55 2837,-704.22 2837,-704.22 2837,-708.05 2833.17,-711.88 2829.33,-711.88"/>
<text text-anchor="middle" x="2782" y="-696.68" font-family="Arial" font-size="14.00" fill="#cfffac">src/constants.ts</text>
</g>
<!-- src/core.ts&#45;&gt;src/config.ts -->
<g id="edge11" class="edge">
<title>src/core.ts&#45;&gt;src/config.ts</title>
<path fill="none" stroke="#757575" d="M726.04,-1259.35C842.78,-1262.35 1202.75,-1272 1501,-1284.38 1577.45,-1287.56 1665.85,-1292.26 1721.1,-1295.32"/>
<polygon fill="#757575" stroke="#757575" points="1721.17,-1298.83 1731.35,-1295.89 1721.56,-1291.84 1721.17,-1298.83"/>
</g>
<!-- src/core.ts&#45;&gt;src/handlers/index.ts -->
<g id="edge12" class="edge">
<title>src/core.ts&#45;&gt;src/handlers/index.ts</title>
<path fill="none" stroke="#757575" d="M704.24,-1246.83C729.17,-1229.64 776.22,-1197.17 805.46,-1177"/>
<polygon fill="#757575" stroke="#757575" points="807.68,-1179.73 813.92,-1171.17 803.7,-1173.96 807.68,-1179.73"/>
</g>
<!-- src/handlers/authorize.handler.ts -->
<g id="node13" class="node">
<title>src/handlers/authorize.handler.ts</title>
<path fill="none" stroke="#c6c5fe" d="M1430.33,-1151.88C1430.33,-1151.88 1233.67,-1151.88 1233.67,-1151.88 1229.83,-1151.88 1226,-1148.05 1226,-1144.22 1226,-1144.22 1226,-1136.55 1226,-1136.55 1226,-1132.72 1229.83,-1128.88 1233.67,-1128.88 1233.67,-1128.88 1430.33,-1128.88 1430.33,-1128.88 1434.17,-1128.88 1438,-1132.72 1438,-1136.55 1438,-1136.55 1438,-1144.22 1438,-1144.22 1438,-1148.05 1434.17,-1151.88 1430.33,-1151.88"/>
<text text-anchor="middle" x="1332" y="-1136.68" font-family="Arial" font-size="14.00" fill="#c6c5fe">src/handlers/authorize.handler.ts</text>
</g>
<!-- src/handlers/index.ts&#45;&gt;src/handlers/authorize.handler.ts -->
<g id="edge27" class="edge">
<title>src/handlers/index.ts&#45;&gt;src/handlers/authorize.handler.ts</title>
<path fill="none" stroke="#757575" d="M902.24,-1156.74C983.3,-1153.65 1118.76,-1148.48 1215.73,-1144.78"/>
<polygon fill="#757575" stroke="#757575" points="1216.02,-1148.27 1225.88,-1144.39 1215.76,-1141.28 1216.02,-1148.27"/>
</g>
<!-- src/handlers/credential.handler.ts -->
<g id="node16" class="node">
<title>src/handlers/credential.handler.ts</title>
<path fill="none" stroke="#c6c5fe" d="M1431.83,-75.88C1431.83,-75.88 1232.17,-75.88 1232.17,-75.88 1228.33,-75.88 1224.5,-72.05 1224.5,-68.22 1224.5,-68.22 1224.5,-60.55 1224.5,-60.55 1224.5,-56.72 1228.33,-52.88 1232.17,-52.88 1232.17,-52.88 1431.83,-52.88 1431.83,-52.88 1435.67,-52.88 1439.5,-56.72 1439.5,-60.55 1439.5,-60.55 1439.5,-68.22 1439.5,-68.22 1439.5,-72.05 1435.67,-75.88 1431.83,-75.88"/>
<text text-anchor="middle" x="1332" y="-60.68" font-family="Arial" font-size="14.00" fill="#c6c5fe">src/handlers/credential.handler.ts</text>
</g>
<!-- src/handlers/index.ts&#45;&gt;src/handlers/credential.handler.ts -->
<g id="edge28" class="edge">
<title>src/handlers/index.ts&#45;&gt;src/handlers/credential.handler.ts</title>
<path fill="none" stroke="#757575" d="M834.85,-1147.87C852.04,-1042.27 987.35,-242.11 1163,-90.38 1177.55,-77.81 1195.57,-69.96 1214.36,-65.23"/>
<polygon fill="#757575" stroke="#757575" points="1215.24,-68.62 1224.24,-63.04 1213.72,-61.79 1215.24,-68.62"/>
</g>
<!-- src/handlers/credentialOffer.handler.ts -->
<g id="node18" class="node">
<title>src/handlers/credentialOffer.handler.ts</title>
<path fill="none" stroke="#c6c5fe" d="M1446.83,-1090.88C1446.83,-1090.88 1217.17,-1090.88 1217.17,-1090.88 1213.33,-1090.88 1209.5,-1087.05 1209.5,-1083.22 1209.5,-1083.22 1209.5,-1075.55 1209.5,-1075.55 1209.5,-1071.72 1213.33,-1067.88 1217.17,-1067.88 1217.17,-1067.88 1446.83,-1067.88 1446.83,-1067.88 1450.67,-1067.88 1454.5,-1071.72 1454.5,-1075.55 1454.5,-1075.55 1454.5,-1083.22 1454.5,-1083.22 1454.5,-1087.05 1450.67,-1090.88 1446.83,-1090.88"/>
<text text-anchor="middle" x="1332" y="-1075.68" font-family="Arial" font-size="14.00" fill="#c6c5fe">src/handlers/credentialOffer.handler.ts</text>
</g>
<!-- src/handlers/index.ts&#45;&gt;src/handlers/credentialOffer.handler.ts -->
<g id="edge29" class="edge">
<title>src/handlers/index.ts&#45;&gt;src/handlers/credentialOffer.handler.ts</title>
<path fill="none" stroke="#757575" d="M902.24,-1148.26C993.1,-1133.66 1152.34,-1108.08 1249.09,-1092.54"/>
<polygon fill="#757575" stroke="#757575" points="1249.8,-1095.97 1259.12,-1090.93 1248.69,-1089.06 1249.8,-1095.97"/>
</g>
<!-- src/handlers/nonce.handler.ts -->
<g id="node20" class="node">
<title>src/handlers/nonce.handler.ts</title>
<path fill="none" stroke="#c6c5fe" d="M1420.83,-1030.88C1420.83,-1030.88 1243.17,-1030.88 1243.17,-1030.88 1239.33,-1030.88 1235.5,-1027.05 1235.5,-1023.22 1235.5,-1023.22 1235.5,-1015.55 1235.5,-1015.55 1235.5,-1011.72 1239.33,-1007.88 1243.17,-1007.88 1243.17,-1007.88 1420.83,-1007.88 1420.83,-1007.88 1424.67,-1007.88 1428.5,-1011.72 1428.5,-1015.55 1428.5,-1015.55 1428.5,-1023.22 1428.5,-1023.22 1428.5,-1027.05 1424.67,-1030.88 1420.83,-1030.88"/>
<text text-anchor="middle" x="1332" y="-1015.68" font-family="Arial" font-size="14.00" fill="#c6c5fe">src/handlers/nonce.handler.ts</text>
</g>
<!-- src/handlers/index.ts&#45;&gt;src/handlers/nonce.handler.ts -->
<g id="edge30" class="edge">
<title>src/handlers/index.ts&#45;&gt;src/handlers/nonce.handler.ts</title>
<path fill="none" stroke="#757575" d="M853.31,-1147.77C874.04,-1136.36 907.4,-1119.12 938,-1108.38 1041.82,-1071.96 1166.4,-1046.7 1247.06,-1032.63"/>
<polygon fill="#757575" stroke="#757575" points="1247.9,-1036.04 1257.16,-1030.89 1246.71,-1029.14 1247.9,-1036.04"/>
</g>
<!-- src/handlers/oauthAuthorizationServer.handler.ts -->
<g id="node21" class="node">
<title>src/handlers/oauthAuthorizationServer.handler.ts</title>
<path fill="none" stroke="#c6c5fe" d="M1478.33,-1390.88C1478.33,-1390.88 1185.67,-1390.88 1185.67,-1390.88 1181.83,-1390.88 1178,-1387.05 1178,-1383.22 1178,-1383.22 1178,-1375.55 1178,-1375.55 1178,-1371.72 1181.83,-1367.88 1185.67,-1367.88 1185.67,-1367.88 1478.33,-1367.88 1478.33,-1367.88 1482.17,-1367.88 1486,-1371.72 1486,-1375.55 1486,-1375.55 1486,-1383.22 1486,-1383.22 1486,-1387.05 1482.17,-1390.88 1478.33,-1390.88"/>
<text text-anchor="middle" x="1332" y="-1375.68" font-family="Arial" font-size="14.00" fill="#c6c5fe">src/handlers/oauthAuthorizationServer.handler.ts</text>
</g>
<!-- src/handlers/index.ts&#45;&gt;src/handlers/oauthAuthorizationServer.handler.ts -->
<g id="edge31" class="edge">
<title>src/handlers/index.ts&#45;&gt;src/handlers/oauthAuthorizationServer.handler.ts</title>
<path fill="none" stroke="#757575" d="M845.21,-1171.08C864.08,-1188.79 901.93,-1222.82 938,-1246.38 1031.68,-1307.58 1055.83,-1327.17 1163,-1359.38 1170.99,-1361.78 1179.27,-1363.9 1187.68,-1365.76"/>
<polygon fill="#757575" stroke="#757575" points="1187.1,-1369.21 1197.61,-1367.83 1188.53,-1362.36 1187.1,-1369.21"/>
</g>
<!-- src/handlers/openidCredentialIssuer.handler.ts -->
<g id="node22" class="node">
<title>src/handlers/openidCredentialIssuer.handler.ts</title>
<path fill="none" stroke="#c6c5fe" d="M1471.33,-1349.88C1471.33,-1349.88 1192.67,-1349.88 1192.67,-1349.88 1188.83,-1349.88 1185,-1346.05 1185,-1342.22 1185,-1342.22 1185,-1334.55 1185,-1334.55 1185,-1330.72 1188.83,-1326.88 1192.67,-1326.88 1192.67,-1326.88 1471.33,-1326.88 1471.33,-1326.88 1475.17,-1326.88 1479,-1330.72 1479,-1334.55 1479,-1334.55 1479,-1342.22 1479,-1342.22 1479,-1346.05 1475.17,-1349.88 1471.33,-1349.88"/>
<text text-anchor="middle" x="1332" y="-1334.68" font-family="Arial" font-size="14.00" fill="#c6c5fe">src/handlers/openidCredentialIssuer.handler.ts</text>
</g>
<!-- src/handlers/index.ts&#45;&gt;src/handlers/openidCredentialIssuer.handler.ts -->
<g id="edge32" class="edge">
<title>src/handlers/index.ts&#45;&gt;src/handlers/openidCredentialIssuer.handler.ts</title>
<path fill="none" stroke="#757575" d="M865.29,-1170.99C952.39,-1202.3 1192.13,-1288.47 1289.29,-1323.39"/>
<polygon fill="#757575" stroke="#757575" points="1288.19,-1326.71 1298.78,-1326.8 1290.56,-1320.13 1288.19,-1326.71"/>
</g>
<!-- src/handlers/pushedAuthorizationRequest.handler.ts -->
<g id="node23" class="node">
<title>src/handlers/pushedAuthorizationRequest.handler.ts</title>
<path fill="none" stroke="#c6c5fe" d="M1488.83,-1193.88C1488.83,-1193.88 1175.17,-1193.88 1175.17,-1193.88 1171.33,-1193.88 1167.5,-1190.05 1167.5,-1186.22 1167.5,-1186.22 1167.5,-1178.55 1167.5,-1178.55 1167.5,-1174.72 1171.33,-1170.88 1175.17,-1170.88 1175.17,-1170.88 1488.83,-1170.88 1488.83,-1170.88 1492.67,-1170.88 1496.5,-1174.72 1496.5,-1178.55 1496.5,-1178.55 1496.5,-1186.22 1496.5,-1186.22 1496.5,-1190.05 1492.67,-1193.88 1488.83,-1193.88"/>
<text text-anchor="middle" x="1332" y="-1178.68" font-family="Arial" font-size="14.00" fill="#c6c5fe">src/handlers/pushedAuthorizationRequest.handler.ts</text>
</g>
<!-- src/handlers/index.ts&#45;&gt;src/handlers/pushedAuthorizationRequest.handler.ts -->
<g id="edge33" class="edge">
<title>src/handlers/index.ts&#45;&gt;src/handlers/pushedAuthorizationRequest.handler.ts</title>
<path fill="none" stroke="#757575" d="M902.17,-1164.25C914.12,-1165.02 926.42,-1165.76 938,-1166.38 1009.82,-1170.24 1089.06,-1173.63 1157.46,-1176.29"/>
<polygon fill="#757575" stroke="#757575" points="1157.34,-1179.78 1167.47,-1176.67 1157.61,-1172.79 1157.34,-1179.78"/>
</g>
<!-- src/handlers/token.handler.ts -->
<g id="node24" class="node">
<title>src/handlers/token.handler.ts</title>
<path fill="none" stroke="#c6c5fe" d="M1119.33,-969.88C1119.33,-969.88 945.67,-969.88 945.67,-969.88 941.83,-969.88 938,-966.05 938,-962.22 938,-962.22 938,-954.55 938,-954.55 938,-950.72 941.83,-946.88 945.67,-946.88 945.67,-946.88 1119.33,-946.88 1119.33,-946.88 1123.17,-946.88 1127,-950.72 1127,-954.55 1127,-954.55 1127,-962.22 1127,-962.22 1127,-966.05 1123.17,-969.88 1119.33,-969.88"/>
<text text-anchor="middle" x="1032.5" y="-954.68" font-family="Arial" font-size="14.00" fill="#c6c5fe">src/handlers/token.handler.ts</text>
</g>
<!-- src/handlers/index.ts&#45;&gt;src/handlers/token.handler.ts -->
<g id="edge34" class="edge">
<title>src/handlers/index.ts&#45;&gt;src/handlers/token.handler.ts</title>
<path fill="none" stroke="#757575" d="M840.09,-1147.76C855.67,-1122.83 894.93,-1063.2 938,-1022.38 957.47,-1003.93 982.74,-986.97 1002.1,-975.15"/>
<polygon fill="#757575" stroke="#757575" points="1004.02,-978.08 1010.8,-969.94 1000.42,-972.07 1004.02,-978.08"/>
</g>
<!-- src/errors.ts -->
<g id="node12" class="node">
<title>src/errors.ts</title>
<path fill="none" stroke="#cfffac" d="M2818.33,-383.88C2818.33,-383.88 2745.67,-383.88 2745.67,-383.88 2741.83,-383.88 2738,-380.05 2738,-376.22 2738,-376.22 2738,-368.55 2738,-368.55 2738,-364.72 2741.83,-360.88 2745.67,-360.88 2745.67,-360.88 2818.33,-360.88 2818.33,-360.88 2822.17,-360.88 2826,-364.72 2826,-368.55 2826,-368.55 2826,-376.22 2826,-376.22 2826,-380.05 2822.17,-383.88 2818.33,-383.88"/>
<text text-anchor="middle" x="2782" y="-368.68" font-family="Arial" font-size="14.00" fill="#cfffac">src/errors.ts</text>
</g>
<!-- src/handlers/authorize.handler.ts&#45;&gt;src/resources.ts -->
<g id="edge16" class="edge">
<title>src/handlers/authorize.handler.ts&#45;&gt;src/resources.ts</title>
<path fill="none" stroke="#757575" d="M1436.39,-1151.89C1468.58,-1154.97 1504.22,-1157.86 1537,-1159.38 1665.02,-1165.33 2582.56,-1198.24 2690,-1128.38 2746.85,-1091.42 2769.61,-1007.56 2777.44,-967.92"/>
<polygon fill="#757575" stroke="#757575" points="2780.9,-968.45 2779.27,-957.98 2774.01,-967.18 2780.9,-968.45"/>
</g>
<!-- src/handlers/authorize.handler.ts&#45;&gt;src/config.ts -->
<g id="edge13" class="edge">
<title>src/handlers/authorize.handler.ts&#45;&gt;src/config.ts</title>
<path fill="none" stroke="#757575" d="M1438.25,-1135.34C1460.98,-1138.93 1483.44,-1146.64 1501,-1161.38 1542.67,-1196.36 1494.63,-1244.25 1537,-1278.38 1588.47,-1319.84 1668.09,-1317.43 1720.87,-1309.7"/>
<polygon fill="#757575" stroke="#757575" points="1721.72,-1313.11 1731.05,-1308.1 1720.63,-1306.2 1721.72,-1313.11"/>
</g>
<!-- src/handlers/authorize.handler.ts&#45;&gt;src/errors.ts -->
<g id="edge14" class="edge">
<title>src/handlers/authorize.handler.ts&#45;&gt;src/errors.ts</title>
<path fill="none" stroke="#757575" d="M1438,-1134.09C1461.57,-1127.86 1484.46,-1117.21 1501,-1099.38 1567.49,-1027.71 1490.46,-968.36 1537,-882.38 1684.65,-609.63 1785.31,-570.39 2051,-410.38 2155.65,-347.36 2189.62,-339.13 2310,-318.38 2476.44,-289.7 2527.13,-273.7 2690,-318.38 2715.5,-325.38 2741.08,-341.57 2758.6,-354.41"/>
<polygon fill="#757575" stroke="#757575" points="2756.9,-357.51 2766.99,-360.76 2761.12,-351.93 2756.9,-357.51"/>
</g>
<!-- src/handlers/schemas/authorizeHandlerConfig.schema.ts -->
<g id="node14" class="node">
<title>src/handlers/schemas/authorizeHandlerConfig.schema.ts</title>
<path fill="none" stroke="#cfffac" d="M1948.33,-1150.88C1948.33,-1150.88 1603.67,-1150.88 1603.67,-1150.88 1599.83,-1150.88 1596,-1147.05 1596,-1143.22 1596,-1143.22 1596,-1135.55 1596,-1135.55 1596,-1131.72 1599.83,-1127.88 1603.67,-1127.88 1603.67,-1127.88 1948.33,-1127.88 1948.33,-1127.88 1952.17,-1127.88 1956,-1131.72 1956,-1135.55 1956,-1135.55 1956,-1143.22 1956,-1143.22 1956,-1147.05 1952.17,-1150.88 1948.33,-1150.88"/>
<text text-anchor="middle" x="1776" y="-1135.68" font-family="Arial" font-size="14.00" fill="#cfffac">src/handlers/schemas/authorizeHandlerConfig.schema.ts</text>
</g>
<!-- src/handlers/authorize.handler.ts&#45;&gt;src/handlers/schemas/authorizeHandlerConfig.schema.ts -->
<g id="edge15" class="edge">
<title>src/handlers/authorize.handler.ts&#45;&gt;src/handlers/schemas/authorizeHandlerConfig.schema.ts</title>
<path fill="none" stroke="#757575" d="M1438.03,-1140.14C1482.19,-1140.04 1534.97,-1139.93 1585.51,-1139.81"/>
<polygon fill="#757575" stroke="#757575" points="1585.59,-1143.31 1595.58,-1139.79 1585.57,-1136.31 1585.59,-1143.31"/>
</g>
<!-- src/statements/index.ts -->
<g id="node15" class="node">
<title>src/statements/index.ts</title>
<path fill="none" stroke="#c6c5fe" d="M1845.83,-914.88C1845.83,-914.88 1706.17,-914.88 1706.17,-914.88 1702.33,-914.88 1698.5,-911.05 1698.5,-907.22 1698.5,-907.22 1698.5,-899.55 1698.5,-899.55 1698.5,-895.72 1702.33,-891.88 1706.17,-891.88 1706.17,-891.88 1845.83,-891.88 1845.83,-891.88 1849.67,-891.88 1853.5,-895.72 1853.5,-899.55 1853.5,-899.55 1853.5,-907.22 1853.5,-907.22 1853.5,-911.05 1849.67,-914.88 1845.83,-914.88"/>
<text text-anchor="middle" x="1776" y="-899.68" font-family="Arial" font-size="14.00" fill="#c6c5fe">src/statements/index.ts</text>
</g>
<!-- src/handlers/authorize.handler.ts&#45;&gt;src/statements/index.ts -->
<g id="edge17" class="edge">
<title>src/handlers/authorize.handler.ts&#45;&gt;src/statements/index.ts</title>
<path fill="none" stroke="#757575" d="M1436,-1128.84C1458.96,-1122.72 1482.08,-1113.43 1501,-1099.38 1526.28,-1080.62 1514.55,-1060.45 1537,-1038.38 1595.4,-980.98 1683.07,-939.67 1734.11,-918.81"/>
<polygon fill="#757575" stroke="#757575" points="1735.53,-922.01 1743.5,-915.03 1732.92,-915.51 1735.53,-922.01"/>
</g>
<!-- src/statements/grants/index.ts -->
<g id="node33" class="node">
<title>src/statements/grants/index.ts</title>
<path fill="none" stroke="#c6c5fe" d="M2253.33,-998.88C2253.33,-998.88 2071.67,-998.88 2071.67,-998.88 2067.83,-998.88 2064,-995.05 2064,-991.22 2064,-991.22 2064,-983.55 2064,-983.55 2064,-979.72 2067.83,-975.88 2071.67,-975.88 2071.67,-975.88 2253.33,-975.88 2253.33,-975.88 2257.17,-975.88 2261,-979.72 2261,-983.55 2261,-983.55 2261,-991.22 2261,-991.22 2261,-995.05 2257.17,-998.88 2253.33,-998.88"/>
<text text-anchor="middle" x="2162.5" y="-983.68" font-family="Arial" font-size="14.00" fill="#c6c5fe">src/statements/grants/index.ts</text>
</g>
<!-- src/statements/index.ts&#45;&gt;src/statements/grants/index.ts -->
<g id="edge66" class="edge">
<title>src/statements/index.ts&#45;&gt;src/statements/grants/index.ts</title>
<path fill="none" stroke="#757575" d="M1853.53,-905.3C1900.8,-908.06 1962.3,-914.51 2015,-929.38 2032.03,-934.19 2034.69,-939.52 2051,-946.38 2072.98,-955.63 2097.85,-964.96 2118.42,-972.37"/>
<polygon fill="#757575" stroke="#757575" points="2117.25,-975.67 2127.84,-975.74 2119.61,-969.08 2117.25,-975.67"/>
</g>
<!-- src/statements/locations/index.ts -->
<g id="node34" class="node">
<title>src/statements/locations/index.ts</title>
<path fill="none" stroke="#c6c5fe" d="M2260.83,-885.88C2260.83,-885.88 2064.17,-885.88 2064.17,-885.88 2060.33,-885.88 2056.5,-882.05 2056.5,-878.22 2056.5,-878.22 2056.5,-870.55 2056.5,-870.55 2056.5,-866.72 2060.33,-862.88 2064.17,-862.88 2064.17,-862.88 2260.83,-862.88 2260.83,-862.88 2264.67,-862.88 2268.5,-866.72 2268.5,-870.55 2268.5,-870.55 2268.5,-878.22 2268.5,-878.22 2268.5,-882.05 2264.67,-885.88 2260.83,-885.88"/>
<text text-anchor="middle" x="2162.5" y="-870.68" font-family="Arial" font-size="14.00" fill="#c6c5fe">src/statements/locations/index.ts</text>
</g>
<!-- src/statements/index.ts&#45;&gt;src/statements/locations/index.ts -->
<g id="edge67" class="edge">
<title>src/statements/index.ts&#45;&gt;src/statements/locations/index.ts</title>
<path fill="none" stroke="#757575" d="M1853.89,-897.58C1908.9,-893.43 1983.91,-887.78 2046.09,-883.09"/>
<polygon fill="#757575" stroke="#757575" points="2046.64,-886.56 2056.35,-882.31 2046.11,-879.58 2046.64,-886.56"/>
</g>
<!-- src/statements/resources/index.ts -->
<g id="node35" class="node">
<title>src/statements/resources/index.ts</title>
<path fill="none" stroke="#c6c5fe" d="M2263.83,-937.88C2263.83,-937.88 2061.17,-937.88 2061.17,-937.88 2057.33,-937.88 2053.5,-934.05 2053.5,-930.22 2053.5,-930.22 2053.5,-922.55 2053.5,-922.55 2053.5,-918.72 2057.33,-914.88 2061.17,-914.88 2061.17,-914.88 2263.83,-914.88 2263.83,-914.88 2267.67,-914.88 2271.5,-918.72 2271.5,-922.55 2271.5,-922.55 2271.5,-930.22 2271.5,-930.22 2271.5,-934.05 2267.67,-937.88 2263.83,-937.88"/>
<text text-anchor="middle" x="2162.5" y="-922.68" font-family="Arial" font-size="14.00" fill="#c6c5fe">src/statements/resources/index.ts</text>
</g>
<!-- src/statements/index.ts&#45;&gt;src/statements/resources/index.ts -->
<g id="edge68" class="edge">
<title>src/statements/index.ts&#45;&gt;src/statements/resources/index.ts</title>
<path fill="none" stroke="#757575" d="M1853.89,-907.98C1908.07,-911.22 1981.65,-915.62 2043.26,-919.31"/>
<polygon fill="#757575" stroke="#757575" points="2043.25,-922.81 2053.44,-919.92 2043.66,-915.83 2043.25,-922.81"/>
</g>
<!-- src/statements/tokens/index.ts -->
<g id="node36" class="node">
<title>src/statements/tokens/index.ts</title>
<path fill="none" stroke="#c6c5fe" d="M2254.33,-793.88C2254.33,-793.88 2070.67,-793.88 2070.67,-793.88 2066.83,-793.88 2063,-790.05 2063,-786.22 2063,-786.22 2063,-778.55 2063,-778.55 2063,-774.72 2066.83,-770.88 2070.67,-770.88 2070.67,-770.88 2254.33,-770.88 2254.33,-770.88 2258.17,-770.88 2262,-774.72 2262,-778.55 2262,-778.55 2262,-786.22 2262,-786.22 2262,-790.05 2258.17,-793.88 2254.33,-793.88"/>
<text text-anchor="middle" x="2162.5" y="-778.68" font-family="Arial" font-size="14.00" fill="#c6c5fe">src/statements/tokens/index.ts</text>
</g>
<!-- src/statements/index.ts&#45;&gt;src/statements/tokens/index.ts -->
<g id="edge69" class="edge">
<title>src/statements/index.ts&#45;&gt;src/statements/tokens/index.ts</title>
<path fill="none" stroke="#757575" d="M1813.87,-891.78C1884.2,-869.65 2037.42,-821.43 2114.79,-797.08"/>
<polygon fill="#757575" stroke="#757575" points="2116.26,-800.29 2124.74,-793.95 2114.15,-793.61 2116.26,-800.29"/>
</g>
<!-- src/statements/validations/index.ts -->
<g id="node37" class="node">
<title>src/statements/validations/index.ts</title>
<path fill="none" stroke="#c6c5fe" d="M2266.33,-526.88C2266.33,-526.88 2058.67,-526.88 2058.67,-526.88 2054.83,-526.88 2051,-523.05 2051,-519.22 2051,-519.22 2051,-511.55 2051,-511.55 2051,-507.72 2054.83,-503.88 2058.67,-503.88 2058.67,-503.88 2266.33,-503.88 2266.33,-503.88 2270.17,-503.88 2274,-507.72 2274,-511.55 2274,-511.55 2274,-519.22 2274,-519.22 2274,-523.05 2270.17,-526.88 2266.33,-526.88"/>
<text text-anchor="middle" x="2162.5" y="-511.68" font-family="Arial" font-size="14.00" fill="#c6c5fe">src/statements/validations/index.ts</text>
</g>
<!-- src/statements/index.ts&#45;&gt;src/statements/validations/index.ts -->
<g id="edge70" class="edge">
<title>src/statements/index.ts&#45;&gt;src/statements/validations/index.ts</title>
<path fill="none" stroke="#757575" d="M1788.51,-891.77C1843.01,-836.77 2075.36,-602.3 2142.97,-534.08"/>
<polygon fill="#757575" stroke="#757575" points="2145.48,-536.52 2150.04,-526.95 2140.51,-531.59 2145.48,-536.52"/>
</g>
<!-- src/handlers/credential.handler.ts&#45;&gt;src/config.ts -->
<g id="edge18" class="edge">
<title>src/handlers/credential.handler.ts&#45;&gt;src/config.ts</title>
<path fill="none" stroke="#757575" d="M1335.98,-76.2C1354.31,-149.16 1452.35,-546.09 1501,-875.38 1507.57,-919.86 1505.13,-1246.68 1537,-1278.38 1584.5,-1325.64 1666.86,-1321.2 1721.14,-1311.51"/>
<polygon fill="#757575" stroke="#757575" points="1722.11,-1314.89 1731.27,-1309.58 1720.8,-1308.01 1722.11,-1314.89"/>
</g>
<!-- src/handlers/credential.handler.ts&#45;&gt;src/errors.ts -->
<g id="edge19" class="edge">
<title>src/handlers/credential.handler.ts&#45;&gt;src/errors.ts</title>
<path fill="none" stroke="#757575" d="M1421.57,-52.84C1690.82,-19.73 2493.19,63.65 2690,-90.38 2772.83,-155.21 2781.4,-296.36 2781.49,-350.57"/>
<polygon fill="#757575" stroke="#757575" points="2777.99,-350.74 2781.41,-360.76 2784.99,-350.79 2777.99,-350.74"/>
</g>
<!-- src/handlers/credential.handler.ts&#45;&gt;src/statements/index.ts -->
<g id="edge21" class="edge">
<title>src/handlers/credential.handler.ts&#45;&gt;src/statements/index.ts</title>
<path fill="none" stroke="#757575" d="M1339.08,-75.92C1386.83,-166.57 1701.39,-763.66 1764.13,-882.74"/>
<polygon fill="#757575" stroke="#757575" points="1761.05,-884.41 1768.81,-891.63 1767.24,-881.15 1761.05,-884.41"/>
</g>
<!-- src/handlers/schemas/credentialHandlerConfig.schema.ts -->
<g id="node17" class="node">
<title>src/handlers/schemas/credentialHandlerConfig.schema.ts</title>
<path fill="none" stroke="#cfffac" d="M1949.83,-75.88C1949.83,-75.88 1602.17,-75.88 1602.17,-75.88 1598.33,-75.88 1594.5,-72.05 1594.5,-68.22 1594.5,-68.22 1594.5,-60.55 1594.5,-60.55 1594.5,-56.72 1598.33,-52.88 1602.17,-52.88 1602.17,-52.88 1949.83,-52.88 1949.83,-52.88 1953.67,-52.88 1957.5,-56.72 1957.5,-60.55 1957.5,-60.55 1957.5,-68.22 1957.5,-68.22 1957.5,-72.05 1953.67,-75.88 1949.83,-75.88"/>
<text text-anchor="middle" x="1776" y="-60.68" font-family="Arial" font-size="14.00" fill="#cfffac">src/handlers/schemas/credentialHandlerConfig.schema.ts</text>
</g>
<!-- src/handlers/credential.handler.ts&#45;&gt;src/handlers/schemas/credentialHandlerConfig.schema.ts -->
<g id="edge20" class="edge">
<title>src/handlers/credential.handler.ts&#45;&gt;src/handlers/schemas/credentialHandlerConfig.schema.ts</title>
<path fill="none" stroke="#757575" d="M1439.71,-64.38C1483.09,-64.38 1534.58,-64.38 1584.02,-64.38"/>
<polygon fill="#757575" stroke="#757575" points="1584.2,-67.88 1594.2,-64.38 1584.2,-60.88 1584.2,-67.88"/>
</g>
<!-- src/handlers/credentialOffer.handler.ts&#45;&gt;src/resources.ts -->
<g id="edge25" class="edge">
<title>src/handlers/credentialOffer.handler.ts&#45;&gt;src/resources.ts</title>
<path fill="none" stroke="#757575" d="M1454.69,-1085.42C1777.96,-1101 2637.23,-1139.26 2690,-1108.38 2742.23,-1077.82 2766.78,-1005.06 2776.17,-968.35"/>
<polygon fill="#757575" stroke="#757575" points="2779.67,-968.75 2778.61,-958.21 2772.87,-967.11 2779.67,-968.75"/>
</g>
<!-- src/handlers/credentialOffer.handler.ts&#45;&gt;src/config.ts -->
<g id="edge22" class="edge">
<title>src/handlers/credentialOffer.handler.ts&#45;&gt;src/config.ts</title>
<path fill="none" stroke="#757575" d="M1454.54,-1091.02C1471.87,-1097.3 1488.14,-1106.38 1501,-1119.38 1551.95,-1170.9 1482.34,-1230.83 1537,-1278.38 1587.26,-1322.1 1668.16,-1318.83 1721.46,-1310.32"/>
<polygon fill="#757575" stroke="#757575" points="1722.13,-1313.76 1731.4,-1308.62 1720.95,-1306.86 1722.13,-1313.76"/>
</g>
<!-- src/handlers/credentialOffer.handler.ts&#45;&gt;src/errors.ts -->
<g id="edge23" class="edge">
<title>src/handlers/credentialOffer.handler.ts&#45;&gt;src/errors.ts</title>
<path fill="none" stroke="#757575" d="M1454.89,-1070.22C1472.62,-1063.7 1488.92,-1053.91 1501,-1039.38 1552,-978.05 1480.71,-378.9 1537,-322.38 1597.7,-261.44 2224.02,-282.72 2310,-280.38 2478.83,-275.8 2534.14,-215.33 2690,-280.38 2724.8,-294.91 2753.09,-329.94 2768.45,-352.35"/>
<polygon fill="#757575" stroke="#757575" points="2765.6,-354.39 2774.04,-360.8 2771.44,-350.53 2765.6,-354.39"/>
</g>
<!-- src/handlers/credentialOffer.handler.ts&#45;&gt;src/statements/index.ts -->
<g id="edge26" class="edge">
<title>src/handlers/credentialOffer.handler.ts&#45;&gt;src/statements/index.ts</title>
<path fill="none" stroke="#757575" d="M1396.22,-1067.88C1428.14,-1061.18 1467.17,-1051.63 1501,-1039.38 1594.59,-1005.51 1698.01,-948.34 1746.7,-920.14"/>
<polygon fill="#757575" stroke="#757575" points="1748.53,-923.12 1755.41,-915.06 1745.01,-917.07 1748.53,-923.12"/>
</g>
<!-- src/handlers/schemas/credentialOfferHandlerConfig.schema.ts -->
<g id="node19" class="node">
<title>src/handlers/schemas/credentialOfferHandlerConfig.schema.ts</title>
<path fill="none" stroke="#cfffac" d="M1965.33,-1070.88C1965.33,-1070.88 1586.67,-1070.88 1586.67,-1070.88 1582.83,-1070.88 1579,-1067.05 1579,-1063.22 1579,-1063.22 1579,-1055.55 1579,-1055.55 1579,-1051.72 1582.83,-1047.88 1586.67,-1047.88 1586.67,-1047.88 1965.33,-1047.88 1965.33,-1047.88 1969.17,-1047.88 1973,-1051.72 1973,-1055.55 1973,-1055.55 1973,-1063.22 1973,-1063.22 1973,-1067.05 1969.17,-1070.88 1965.33,-1070.88"/>
<text text-anchor="middle" x="1776" y="-1055.68" font-family="Arial" font-size="14.00" fill="#cfffac">src/handlers/schemas/credentialOfferHandlerConfig.schema.ts</text>
</g>
<!-- src/handlers/credentialOffer.handler.ts&#45;&gt;src/handlers/schemas/credentialOfferHandlerConfig.schema.ts -->
<g id="edge24" class="edge">
<title>src/handlers/credentialOffer.handler.ts&#45;&gt;src/handlers/schemas/credentialOfferHandlerConfig.schema.ts</title>
<path fill="none" stroke="#757575" d="M1454.66,-1073.88C1489.96,-1072.28 1529.54,-1070.49 1568.51,-1068.73"/>
<polygon fill="#757575" stroke="#757575" points="1569.11,-1072.2 1578.94,-1068.25 1568.79,-1065.21 1569.11,-1072.2"/>
</g>
<!-- src/handlers/nonce.handler.ts&#45;&gt;src/resources.ts -->
<g id="edge38" class="edge">
<title>src/handlers/nonce.handler.ts&#45;&gt;src/resources.ts</title>
<path fill="none" stroke="#757575" d="M1428.6,-1013.31C1590.9,-1004.44 1912.7,-993.5 2015,-1038.38 2036.01,-1047.6 2029.88,-1066.42 2051,-1075.38 2156.96,-1120.37 2194.89,-1076.16 2310,-1076.38 2478.89,-1076.71 2540.2,-1154.38 2690,-1076.38 2733.94,-1053.51 2761.04,-998.64 2773.29,-968"/>
<polygon fill="#757575" stroke="#757575" points="2776.71,-968.86 2777.01,-958.26 2770.17,-966.36 2776.71,-968.86"/>
</g>
<!-- src/handlers/nonce.handler.ts&#45;&gt;src/config.ts -->
<g id="edge35" class="edge">
<title>src/handlers/nonce.handler.ts&#45;&gt;src/config.ts</title>
<path fill="none" stroke="#757575" d="M1428.76,-1022.22C1455.47,-1027.7 1482.28,-1038.38 1501,-1058.38 1568.71,-1130.71 1464.25,-1211.12 1537,-1278.38 1586.05,-1323.74 1667.63,-1319.92 1721.37,-1310.87"/>
<polygon fill="#757575" stroke="#757575" points="1722.17,-1314.28 1731.39,-1309.06 1720.93,-1307.39 1722.17,-1314.28"/>
</g>
<!-- src/handlers/nonce.handler.ts&#45;&gt;src/errors.ts -->
<g id="edge36" class="edge">
<title>src/handlers/nonce.handler.ts&#45;&gt;src/errors.ts</title>
<path fill="none" stroke="#757575" d="M1428.89,-1029C1455.77,-1026.52 1482.63,-1018.23 1501,-998.38 1558.51,-936.26 1475.75,-295.81 1537,-237.38 1565.54,-210.16 2624.68,-208.06 2690,-242.38 2733.85,-265.42 2760.99,-320.22 2773.27,-350.81"/>
<polygon fill="#757575" stroke="#757575" points="2770.14,-352.44 2776.99,-360.53 2776.68,-349.94 2770.14,-352.44"/>
</g>
<!-- src/handlers/nonce.handler.ts&#45;&gt;src/statements/index.ts -->
<g id="edge39" class="edge">
<title>src/handlers/nonce.handler.ts&#45;&gt;src/statements/index.ts</title>
<path fill="none" stroke="#757575" d="M1428.68,-1010.94C1452.48,-1007.88 1477.81,-1003.79 1501,-998.38 1588.29,-978.03 1686.68,-940.04 1738.52,-918.79"/>
<polygon fill="#757575" stroke="#757575" points="1740.04,-921.95 1747.95,-914.9 1737.37,-915.48 1740.04,-921.95"/>
</g>
<!-- src/handlers/schemas/nonceHandlerConfig.schema.ts -->
<g id="node25" class="node">
<title>src/handlers/schemas/nonceHandlerConfig.schema.ts</title>
<path fill="none" stroke="#cfffac" d="M1938.83,-269.88C1938.83,-269.88 1613.17,-269.88 1613.17,-269.88 1609.33,-269.88 1605.5,-266.05 1605.5,-262.22 1605.5,-262.22 1605.5,-254.55 1605.5,-254.55 1605.5,-250.72 1609.33,-246.88 1613.17,-246.88 1613.17,-246.88 1938.83,-246.88 1938.83,-246.88 1942.67,-246.88 1946.5,-250.72 1946.5,-254.55 1946.5,-254.55 1946.5,-262.22 1946.5,-262.22 1946.5,-266.05 1942.67,-269.88 1938.83,-269.88"/>
<text text-anchor="middle" x="1776" y="-254.68" font-family="Arial" font-size="14.00" fill="#cfffac">src/handlers/schemas/nonceHandlerConfig.schema.ts</text>
</g>
<!-- src/handlers/nonce.handler.ts&#45;&gt;src/handlers/schemas/nonceHandlerConfig.schema.ts -->
<g id="edge37" class="edge">
<title>src/handlers/nonce.handler.ts&#45;&gt;src/handlers/schemas/nonceHandlerConfig.schema.ts</title>
<path fill="none" stroke="#757575" d="M1428.85,-1028.97C1455.73,-1026.48 1482.6,-1018.2 1501,-998.38 1555.05,-940.18 1482.5,-342.17 1537,-284.38 1581.03,-237.7 1658.52,-237.87 1713.09,-245.36"/>
<polygon fill="#757575" stroke="#757575" points="1712.6,-248.82 1723,-246.83 1713.63,-241.9 1712.6,-248.82"/>
</g>
<!-- src/handlers/oauthAuthorizationServer.handler.ts&#45;&gt;src/config.ts -->
<g id="edge40" class="edge">
<title>src/handlers/oauthAuthorizationServer.handler.ts&#45;&gt;src/config.ts</title>
<path fill="none" stroke="#757575" d="M1443.48,-1367.84C1462.7,-1365.37 1482.47,-1362.54 1501,-1359.38 1578.11,-1346.24 1666.24,-1325.6 1721.26,-1312.03"/>
<polygon fill="#757575" stroke="#757575" points="1722.27,-1315.38 1731.14,-1309.58 1720.59,-1308.59 1722.27,-1315.38"/>
</g>
<!-- src/handlers/schemas/oauthAuthorizationServerHandlerConfig.schema.ts -->
<g id="node26" class="node">
<title>src/handlers/schemas/oauthAuthorizationServerHandlerConfig.schema.ts</title>
<path fill="none" stroke="#cfffac" d="M1996.83,-1430.88C1996.83,-1430.88 1555.17,-1430.88 1555.17,-1430.88 1551.33,-1430.88 1547.5,-1427.05 1547.5,-1423.22 1547.5,-1423.22 1547.5,-1415.55 1547.5,-1415.55 1547.5,-1411.72 1551.33,-1407.88 1555.17,-1407.88 1555.17,-1407.88 1996.83,-1407.88 1996.83,-1407.88 2000.67,-1407.88 2004.5,-1411.72 2004.5,-1415.55 2004.5,-1415.55 2004.5,-1423.22 2004.5,-1423.22 2004.5,-1427.05 2000.67,-1430.88 1996.83,-1430.88"/>
<text text-anchor="middle" x="1776" y="-1415.68" font-family="Arial" font-size="14.00" fill="#cfffac">src/handlers/schemas/oauthAuthorizationServerHandlerConfig.schema.ts</text>
</g>
<!-- src/handlers/oauthAuthorizationServer.handler.ts&#45;&gt;src/handlers/schemas/oauthAuthorizationServerHandlerConfig.schema.ts -->
<g id="edge41" class="edge">
<title>src/handlers/oauthAuthorizationServer.handler.ts&#45;&gt;src/handlers/schemas/oauthAuthorizationServerHandlerConfig.schema.ts</title>
<path fill="none" stroke="#757575" d="M1447.61,-1390.9C1476.76,-1393.75 1508.03,-1396.74 1537,-1399.38 1565.07,-1401.94 1595.02,-1404.55 1623.87,-1407"/>
<polygon fill="#757575" stroke="#757575" points="1623.76,-1410.5 1634.02,-1407.86 1624.35,-1403.53 1623.76,-1410.5"/>
</g>
<!-- src/handlers/openidCredentialIssuer.handler.ts&#45;&gt;src/resources.ts -->
<g id="edge44" class="edge">
<title>src/handlers/openidCredentialIssuer.handler.ts&#45;&gt;src/resources.ts</title>
<path fill="none" stroke="#757575" d="M1479,-1338.94C1810.71,-1338.84 2599.41,-1330.41 2690,-1253.38 2734.65,-1215.42 2767.48,-1031.75 2777.67,-968.13"/>
<polygon fill="#757575" stroke="#757575" points="2781.16,-968.45 2779.26,-958.02 2774.25,-967.36 2781.16,-968.45"/>
</g>
<!-- src/handlers/openidCredentialIssuer.handler.ts&#45;&gt;src/config.ts -->
<g id="edge42" class="edge">
<title>src/handlers/openidCredentialIssuer.handler.ts&#45;&gt;src/config.ts</title>
<path fill="none" stroke="#757575" d="M1460.25,-1326.87C1546.74,-1319.04 1656.74,-1309.08 1721.16,-1303.25"/>
<polygon fill="#757575" stroke="#757575" points="1721.84,-1306.71 1731.48,-1302.32 1721.21,-1299.74 1721.84,-1306.71"/>
</g>
<!-- src/handlers/schemas/openidCredentialIssuerHandlerConfig.schema.ts -->
<g id="node27" class="node">
<title>src/handlers/schemas/openidCredentialIssuerHandlerConfig.schema.ts</title>
<path fill="none" stroke="#cfffac" d="M1989.83,-1389.88C1989.83,-1389.88 1562.17,-1389.88 1562.17,-1389.88 1558.33,-1389.88 1554.5,-1386.05 1554.5,-1382.22 1554.5,-1382.22 1554.5,-1374.55 1554.5,-1374.55 1554.5,-1370.72 1558.33,-1366.88 1562.17,-1366.88 1562.17,-1366.88 1989.83,-1366.88 1989.83,-1366.88 1993.67,-1366.88 1997.5,-1370.72 1997.5,-1374.55 1997.5,-1374.55 1997.5,-1382.22 1997.5,-1382.22 1997.5,-1386.05 1993.67,-1389.88 1989.83,-1389.88"/>
<text text-anchor="middle" x="1776" y="-1374.68" font-family="Arial" font-size="14.00" fill="#cfffac">src/handlers/schemas/openidCredentialIssuerHandlerConfig.schema.ts</text>
</g>
<!-- src/handlers/openidCredentialIssuer.handler.ts&#45;&gt;src/handlers/schemas/openidCredentialIssuerHandlerConfig.schema.ts -->
<g id="edge43" class="edge">
<title>src/handlers/openidCredentialIssuer.handler.ts&#45;&gt;src/handlers/schemas/openidCredentialIssuerHandlerConfig.schema.ts</title>
<path fill="none" stroke="#757575" d="M1460.25,-1349.9C1515.83,-1354.93 1581.11,-1360.84 1637.77,-1365.96"/>
<polygon fill="#757575" stroke="#757575" points="1637.61,-1369.46 1647.88,-1366.88 1638.24,-1362.49 1637.61,-1369.46"/>
</g>
<!-- src/handlers/pushedAuthorizationRequest.handler.ts&#45;&gt;src/config.ts -->
<g id="edge45" class="edge">
<title>src/handlers/pushedAuthorizationRequest.handler.ts&#45;&gt;src/config.ts</title>
<path fill="none" stroke="#757575" d="M1474.53,-1193.89C1483.92,-1197.75 1492.86,-1202.51 1501,-1208.38 1529.38,-1228.84 1507.93,-1258.92 1537,-1278.38 1591.6,-1314.92 1669.78,-1313.89 1721.43,-1307.8"/>
<polygon fill="#757575" stroke="#757575" points="1721.92,-1311.27 1731.4,-1306.53 1721.03,-1304.33 1721.92,-1311.27"/>
</g>
<!-- src/handlers/pushedAuthorizationRequest.handler.ts&#45;&gt;src/errors.ts -->
<g id="edge46" class="edge">
<title>src/handlers/pushedAuthorizationRequest.handler.ts&#45;&gt;src/errors.ts</title>
<path fill="none" stroke="#757575" d="M1496.67,-1188.18C1686.68,-1193.18 1978.82,-1194.83 2015,-1159.38 2067.85,-1107.59 2010.47,-556.29 2051,-494.38 2111.75,-401.59 2181.73,-443.92 2274,-382.38 2291.57,-370.67 2290.21,-358.73 2310,-351.38 2455.96,-297.2 2645.06,-335.13 2732.6,-358.2"/>
<polygon fill="#757575" stroke="#757575" points="2731.94,-361.65 2742.51,-360.87 2733.76,-354.89 2731.94,-361.65"/>
</g>
<!-- src/handlers/pushedAuthorizationRequest.handler.ts&#45;&gt;src/statements/index.ts -->
<g id="edge48" class="edge">
<title>src/handlers/pushedAuthorizationRequest.handler.ts&#45;&gt;src/statements/index.ts</title>
<path fill="none" stroke="#757575" d="M1486.3,-1170.73C1491.49,-1167.73 1496.42,-1164.3 1501,-1160.38 1543.98,-1123.66 1501.85,-1082.66 1537,-1038.38 1586.49,-976.03 1673.16,-937.46 1727.14,-918.26"/>
<polygon fill="#757575" stroke="#757575" points="1728.52,-921.48 1736.82,-914.9 1726.23,-914.87 1728.52,-921.48"/>
</g>
<!-- src/handlers/schemas/pushedAuthorizationRequestHandlerConfig.schema.ts -->
<g id="node28" class="node">
<title>src/handlers/schemas/pushedAuthorizationRequestHandlerConfig.schema.ts</title>
<path fill="none" stroke="#cfffac" d="M2007.33,-1268.88C2007.33,-1268.88 1544.67,-1268.88 1544.67,-1268.88 1540.83,-1268.88 1537,-1265.05 1537,-1261.22 1537,-1261.22 1537,-1253.55 1537,-1253.55 1537,-1249.72 1540.83,-1245.88 1544.67,-1245.88 1544.67,-1245.88 2007.33,-1245.88 2007.33,-1245.88 2011.17,-1245.88 2015,-1249.72 2015,-1253.55 2015,-1253.55 2015,-1261.22 2015,-1261.22 2015,-1265.05 2011.17,-1268.88 2007.33,-1268.88"/>
<text text-anchor="middle" x="1776" y="-1253.68" font-family="Arial" font-size="14.00" fill="#cfffac">src/handlers/schemas/pushedAuthorizationRequestHandlerConfig.schema.ts</text>
</g>
<!-- src/handlers/pushedAuthorizationRequest.handler.ts&#45;&gt;src/handlers/schemas/pushedAuthorizationRequestHandlerConfig.schema.ts -->
<g id="edge47" class="edge">
<title>src/handlers/pushedAuthorizationRequest.handler.ts&#45;&gt;src/handlers/schemas/pushedAuthorizationRequestHandlerConfig.schema.ts</title>
<path fill="none" stroke="#757575" d="M1449.4,-1193.95C1467,-1197.53 1484.71,-1202.23 1501,-1208.38 1518.76,-1215.09 1519.09,-1225.07 1537,-1231.38 1551.07,-1236.34 1565.87,-1240.42 1580.93,-1243.76"/>
<polygon fill="#757575" stroke="#757575" points="1580.34,-1247.22 1590.85,-1245.86 1581.79,-1240.37 1580.34,-1247.22"/>
</g>
<!-- src/handlers/token.handler.ts&#45;&gt;src/config.ts -->
<g id="edge49" class="edge">
<title>src/handlers/token.handler.ts&#45;&gt;src/config.ts</title>
<path fill="none" stroke="#757575" d="M1035.76,-970.07C1044.2,-1010.23 1077.87,-1143.37 1163,-1202.38 1287.5,-1288.69 1363.18,-1183.5 1501,-1246.38 1520.48,-1255.27 1517.33,-1269.94 1537,-1278.38 1596.23,-1303.79 1671.28,-1305.72 1721.1,-1303.31"/>
<polygon fill="#757575" stroke="#757575" points="1721.55,-1306.79 1731.34,-1302.74 1721.16,-1299.8 1721.55,-1306.79"/>
</g>
<!-- src/handlers/token.handler.ts&#45;&gt;src/errors.ts -->
<g id="edge50" class="edge">
<title>src/handlers/token.handler.ts&#45;&gt;src/errors.ts</title>
<path fill="none" stroke="#757575" d="M1036.51,-946.74C1058.86,-862.96 1207.16,-349.43 1537,-135.38 1626.48,-77.31 1668.33,-104.38 1775,-104.38 1775,-104.38 1775,-104.38 2163.5,-104.38 2397.96,-104.38 2500.82,1.12 2690,-137.38 2760.43,-188.94 2776.35,-302.86 2779.95,-350.63"/>
<polygon fill="#757575" stroke="#757575" points="2776.47,-351.02 2780.6,-360.78 2783.45,-350.58 2776.47,-351.02"/>
</g>
<!-- src/handlers/schemas/tokenHandlerConfig.schema.ts -->
<g id="node29" class="node">
<title>src/handlers/schemas/tokenHandlerConfig.schema.ts</title>
<path fill="none" stroke="#cfffac" d="M1493.33,-989.88C1493.33,-989.88 1170.67,-989.88 1170.67,-989.88 1166.83,-989.88 1163,-986.05 1163,-982.22 1163,-982.22 1163,-974.55 1163,-974.55 1163,-970.72 1166.83,-966.88 1170.67,-966.88 1170.67,-966.88 1493.33,-966.88 1493.33,-966.88 1497.17,-966.88 1501,-970.72 1501,-974.55 1501,-974.55 1501,-982.22 1501,-982.22 1501,-986.05 1497.17,-989.88 1493.33,-989.88"/>
<text text-anchor="middle" x="1332" y="-974.68" font-family="Arial" font-size="14.00" fill="#cfffac">src/handlers/schemas/tokenHandlerConfig.schema.ts</text>
</g>
<!-- src/handlers/token.handler.ts&#45;&gt;src/handlers/schemas/tokenHandlerConfig.schema.ts -->
<g id="edge51" class="edge">
<title>src/handlers/token.handler.ts&#45;&gt;src/handlers/schemas/tokenHandlerConfig.schema.ts</title>
<path fill="none" stroke="#757575" d="M1127.22,-964.68C1135.49,-965.24 1144.01,-965.81 1152.68,-966.39"/>
<polygon fill="#757575" stroke="#757575" points="1152.7,-969.9 1162.91,-967.08 1153.17,-962.92 1152.7,-969.9"/>
</g>
<!-- src/handlers/token/authorizationCode.ts -->
<g id="node30" class="node">
<title>src/handlers/token/authorizationCode.ts</title>
<path fill="none" stroke="#c6c5fe" d="M1451.33,-948.88C1451.33,-948.88 1212.67,-948.88 1212.67,-948.88 1208.83,-948.88 1205,-945.05 1205,-941.22 1205,-941.22 1205,-933.55 1205,-933.55 1205,-929.72 1208.83,-925.88 1212.67,-925.88 1212.67,-925.88 1451.33,-925.88 1451.33,-925.88 1455.17,-925.88 1459,-929.72 1459,-933.55 1459,-933.55 1459,-941.22 1459,-941.22 1459,-945.05 1455.17,-948.88 1451.33,-948.88"/>
<text text-anchor="middle" x="1332" y="-933.68" font-family="Arial" font-size="14.00" fill="#c6c5fe">src/handlers/token/authorizationCode.ts</text>
</g>
<!-- src/handlers/token.handler.ts&#45;&gt;src/handlers/token/authorizationCode.ts -->
<g id="edge52" class="edge">
<title>src/handlers/token.handler.ts&#45;&gt;src/handlers/token/authorizationCode.ts</title>
<path fill="none" stroke="#757575" d="M1127.22,-951.77C1148.66,-950.25 1171.87,-948.61 1194.7,-947"/>
<polygon fill="#757575" stroke="#757575" points="1195.06,-950.49 1204.79,-946.29 1194.57,-943.5 1195.06,-950.49"/>
</g>
<!-- src/handlers/token/clientCredentials.ts -->
<g id="node31" class="node">
<title>src/handlers/token/clientCredentials.ts</title>
<path fill="none" stroke="#c6c5fe" d="M1446.83,-907.88C1446.83,-907.88 1217.17,-907.88 1217.17,-907.88 1213.33,-907.88 1209.5,-904.05 1209.5,-900.22 1209.5,-900.22 1209.5,-892.55 1209.5,-892.55 1209.5,-888.72 1213.33,-884.88 1217.17,-884.88 1217.17,-884.88 1446.83,-884.88 1446.83,-884.88 1450.67,-884.88 1454.5,-888.72 1454.5,-892.55 1454.5,-892.55 1454.5,-900.22 1454.5,-900.22 1454.5,-904.05 1450.67,-907.88 1446.83,-907.88"/>
<text text-anchor="middle" x="1332" y="-892.68" font-family="Arial" font-size="14.00" fill="#c6c5fe">src/handlers/token/clientCredentials.ts</text>
</g>
<!-- src/handlers/token.handler.ts&#45;&gt;src/handlers/token/clientCredentials.ts -->
<g id="edge53" class="edge">
<title>src/handlers/token.handler.ts&#45;&gt;src/handlers/token/clientCredentials.ts</title>
<path fill="none" stroke="#757575" d="M1063.39,-946.84C1089.35,-937.27 1128.14,-924.03 1163,-916.38 1174.88,-913.77 1187.32,-911.49 1199.82,-909.48"/>
<polygon fill="#757575" stroke="#757575" points="1200.5,-912.92 1209.85,-907.94 1199.44,-906 1200.5,-912.92"/>
</g>
<!-- src/handlers/token/authorizationCode.ts&#45;&gt;src/resources.ts -->
<g id="edge55" class="edge">
<title>src/handlers/token/authorizationCode.ts&#45;&gt;src/resources.ts</title>
<path fill="none" stroke="#757575" d="M1449.91,-948.92C1644.4,-968.12 2013.42,-1004.63 2015,-1005.38 2035.45,-1015.07 2030.09,-1032.72 2051,-1041.38 2182.19,-1095.72 2559.4,-1097.13 2690,-1041.38 2725.45,-1026.25 2753.7,-989.79 2768.85,-966.69"/>
<polygon fill="#757575" stroke="#757575" points="2771.96,-968.32 2774.34,-958 2766.04,-964.58 2771.96,-968.32"/>
</g>
<!-- src/handlers/token/authorizationCode.ts&#45;&gt;src/errors.ts -->
<g id="edge54" class="edge">
<title>src/handlers/token/authorizationCode.ts&#45;&gt;src/errors.ts</title>
<path fill="none" stroke="#757575" d="M1459.05,-941.3C1474.95,-936.51 1489.6,-928.66 1501,-916.38 1554.91,-858.34 1479.59,-258.96 1537,-204.38 1583.42,-160.25 2634.97,-171.6 2690,-204.38 2743.95,-236.52 2767.87,-313 2776.67,-350.66"/>
<polygon fill="#757575" stroke="#757575" points="2773.29,-351.58 2778.85,-360.6 2780.13,-350.08 2773.29,-351.58"/>
</g>
<!-- src/handlers/token/authorizationCode.ts&#45;&gt;src/statements/index.ts -->
<g id="edge56" class="edge">
<title>src/handlers/token/authorizationCode.ts&#45;&gt;src/statements/index.ts</title>
<path fill="none" stroke="#757575" d="M1459.07,-927.68C1532.33,-922.05 1622.79,-915.09 1688.11,-910.07"/>
<polygon fill="#757575" stroke="#757575" points="1688.67,-913.53 1698.37,-909.28 1688.13,-906.55 1688.67,-913.53"/>
</g>
<!-- src/handlers/token/clientCredentials.ts&#45;&gt;src/resources.ts -->
<g id="edge58" class="edge">
<title>src/handlers/token/clientCredentials.ts&#45;&gt;src/resources.ts</title>
<path fill="none" stroke="#757575" d="M1439.81,-907.9C1460.16,-910.43 1481.27,-913.29 1501,-916.38 1517.1,-918.9 1520.84,-921.24 1537,-923.38 1642.57,-937.35 1922,-905.5 2015,-957.38 2038.91,-970.72 2026.63,-994.9 2051,-1007.38 2114.19,-1039.75 2622.07,-1028.04 2690,-1007.38 2717.37,-999.06 2743.98,-979.46 2761.29,-964.71"/>
<polygon fill="#757575" stroke="#757575" points="2763.8,-967.16 2769,-957.93 2759.18,-961.91 2763.8,-967.16"/>
</g>
<!-- src/handlers/token/clientCredentials.ts&#45;&gt;src/errors.ts -->
<g id="edge57" class="edge">
<title>src/handlers/token/clientCredentials.ts&#45;&gt;src/errors.ts</title>
<path fill="none" stroke="#757575" d="M1334.37,-884.62C1344.74,-798.01 1413.7,-259.95 1537,-166.38 1588.03,-127.66 2636.33,-131.42 2690,-166.38 2754.19,-208.2 2773.43,-306.69 2778.92,-350.59"/>
<polygon fill="#757575" stroke="#757575" points="2775.47,-351.2 2780.07,-360.75 2782.43,-350.42 2775.47,-351.2"/>
</g>
<!-- src/handlers/token/clientCredentials.ts&#45;&gt;src/statements/index.ts -->
<g id="edge59" class="edge">
<title>src/handlers/token/clientCredentials.ts&#45;&gt;src/statements/index.ts</title>
<path fill="none" stroke="#757575" d="M1454.66,-898.31C1528.79,-899.48 1621.76,-900.96 1688.42,-902.01"/>
<polygon fill="#757575" stroke="#757575" points="1688.42,-905.51 1698.47,-902.17 1688.53,-898.51 1688.42,-905.51"/>
</g>
<!-- src/statements/grants/generateIssuerGrants.ts -->
<g id="node32" class="node">
<title>src/statements/grants/generateIssuerGrants.ts</title>
<path fill="none" stroke="#c6c5fe" d="M2640.33,-998.88C2640.33,-998.88 2359.67,-998.88 2359.67,-998.88 2355.83,-998.88 2352,-995.05 2352,-991.22 2352,-991.22 2352,-983.55 2352,-983.55 2352,-979.72 2355.83,-975.88 2359.67,-975.88 2359.67,-975.88 2640.33,-975.88 2640.33,-975.88 2644.17,-975.88 2648,-979.72 2648,-983.55 2648,-983.55 2648,-991.22 2648,-991.22 2648,-995.05 2644.17,-998.88 2640.33,-998.88"/>
<text text-anchor="middle" x="2500" y="-983.68" font-family="Arial" font-size="14.00" fill="#c6c5fe">src/statements/grants/generateIssuerGrants.ts</text>
</g>
<!-- src/statements/grants/generateIssuerGrants.ts&#45;&gt;src/resources.ts -->
<g id="edge64" class="edge">
<title>src/statements/grants/generateIssuerGrants.ts&#45;&gt;src/resources.ts</title>
<path fill="none" stroke="#757575" d="M2622,-975.86C2644.65,-973.16 2668.09,-970 2690,-966.38 2700.75,-964.61 2712.15,-962.38 2723.11,-960.07"/>
<polygon fill="#757575" stroke="#757575" points="2723.98,-963.46 2733.01,-957.92 2722.5,-956.62 2723.98,-963.46"/>
</g>
<!-- src/statements/grants/index.ts&#45;&gt;src/statements/grants/generateIssuerGrants.ts -->
<g id="edge65" class="edge">
<title>src/statements/grants/index.ts&#45;&gt;src/statements/grants/generateIssuerGrants.ts</title>
<path fill="none" stroke="#757575" d="M2261.44,-987.38C2286.68,-987.38 2314.48,-987.38 2341.9,-987.38"/>
<polygon fill="#757575" stroke="#757575" points="2341.98,-990.88 2351.98,-987.38 2341.98,-983.88 2341.98,-990.88"/>
</g>
<!-- src/statements/locations/authorizationCodeRedirection.ts -->
<g id="node38" class="node">
<title>src/statements/locations/authorizationCodeRedirection.ts</title>
<path fill="none" stroke="#c6c5fe" d="M2671.33,-916.88C2671.33,-916.88 2328.67,-916.88 2328.67,-916.88 2324.83,-916.88 2321,-913.05 2321,-909.22 2321,-909.22 2321,-901.55 2321,-901.55 2321,-897.72 2324.83,-893.88 2328.67,-893.88 2328.67,-893.88 2671.33,-893.88 2671.33,-893.88 2675.17,-893.88 2679,-897.72 2679,-901.55 2679,-901.55 2679,-909.22 2679,-909.22 2679,-913.05 2675.17,-916.88 2671.33,-916.88"/>
<text text-anchor="middle" x="2500" y="-901.68" font-family="Arial" font-size="14.00" fill="#c6c5fe">src/statements/locations/authorizationCodeRedirection.ts</text>
</g>
<!-- src/statements/locations/index.ts&#45;&gt;src/statements/locations/authorizationCodeRedirection.ts -->
<g id="edge76" class="edge">
<title>src/statements/locations/index.ts&#45;&gt;src/statements/locations/authorizationCodeRedirection.ts</title>
<path fill="none" stroke="#757575" d="M2268.73,-884.11C2298.99,-886.9 2332.42,-889.99 2364.2,-892.93"/>
<polygon fill="#757575" stroke="#757575" points="2364.18,-896.44 2374.46,-893.87 2364.82,-889.47 2364.18,-896.44"/>
</g>
<!-- src/statements/locations/generateAuthorizationRequestUri.ts -->
<g id="node39" class="node">
<title>src/statements/locations/generateAuthorizationRequestUri.ts</title>
<path fill="none" stroke="#c6c5fe" d="M2682.33,-875.88C2682.33,-875.88 2317.67,-875.88 2317.67,-875.88 2313.83,-875.88 2310,-872.05 2310,-868.22 2310,-868.22 2310,-860.55 2310,-860.55 2310,-856.72 2313.83,-852.88 2317.67,-852.88 2317.67,-852.88 2682.33,-852.88 2682.33,-852.88 2686.17,-852.88 2690,-856.72 2690,-860.55 2690,-860.55 2690,-868.22 2690,-868.22 2690,-872.05 2686.17,-875.88 2682.33,-875.88"/>
<text text-anchor="middle" x="2500" y="-860.68" font-family="Arial" font-size="14.00" fill="#c6c5fe">src/statements/locations/generateAuthorizationRequestUri.ts</text>
</g>
<!-- src/statements/locations/index.ts&#45;&gt;src/statements/locations/generateAuthorizationRequestUri.ts -->
<g id="edge77" class="edge">
<title>src/statements/locations/index.ts&#45;&gt;src/statements/locations/generateAuthorizationRequestUri.ts</title>
<path fill="none" stroke="#757575" d="M2268.73,-871.25C2278.78,-870.95 2289.18,-870.64 2299.75,-870.32"/>
<polygon fill="#757575" stroke="#757575" points="2300.04,-873.81 2309.93,-870.02 2299.83,-866.82 2300.04,-873.81"/>
</g>
<!-- src/statements/locations/generateCredentialOffer.ts -->
<g id="node40" class="node">
<title>src/statements/locations/generateCredentialOffer.ts</title>
<path fill="none" stroke="#c6c5fe" d="M2654.83,-752.88C2654.83,-752.88 2345.17,-752.88 2345.17,-752.88 2341.33,-752.88 2337.5,-749.05 2337.5,-745.22 2337.5,-745.22 2337.5,-737.55 2337.5,-737.55 2337.5,-733.72 2341.33,-729.88 2345.17,-729.88 2345.17,-729.88 2654.83,-729.88 2654.83,-729.88 2658.67,-729.88 2662.5,-733.72 2662.5,-737.55 2662.5,-737.55 2662.5,-745.22 2662.5,-745.22 2662.5,-749.05 2658.67,-752.88 2654.83,-752.88"/>
<text text-anchor="middle" x="2500" y="-737.68" font-family="Arial" font-size="14.00" fill="#c6c5fe">src/statements/locations/generateCredentialOffer.ts</text>
</g>
<!-- src/statements/locations/index.ts&#45;&gt;src/statements/locations/generateCredentialOffer.ts -->
<g id="edge78" class="edge">
<title>src/statements/locations/index.ts&#45;&gt;src/statements/locations/generateCredentialOffer.ts</title>
<path fill="none" stroke="#757575" d="M2185.06,-862.7C2208.25,-849.6 2245.62,-826.97 2274,-802.38 2292.33,-786.5 2288.47,-772.53 2310,-761.38 2315.67,-758.44 2321.57,-755.84 2327.62,-753.53"/>
<polygon fill="#757575" stroke="#757575" points="2328.98,-756.76 2337.25,-750.13 2326.65,-750.16 2328.98,-756.76"/>
</g>
<!-- src/statements/resources/issuerClient.ts -->
<g id="node41" class="node">
<title>src/statements/resources/issuerClient.ts</title>
<path fill="none" stroke="#c6c5fe" d="M2620.83,-957.88C2620.83,-957.88 2379.17,-957.88 2379.17,-957.88 2375.33,-957.88 2371.5,-954.05 2371.5,-950.22 2371.5,-950.22 2371.5,-942.55 2371.5,-942.55 2371.5,-938.72 2375.33,-934.88 2379.17,-934.88 2379.17,-934.88 2620.83,-934.88 2620.83,-934.88 2624.67,-934.88 2628.5,-938.72 2628.5,-942.55 2628.5,-942.55 2628.5,-950.22 2628.5,-950.22 2628.5,-954.05 2624.67,-957.88 2620.83,-957.88"/>
<text text-anchor="middle" x="2500" y="-942.68" font-family="Arial" font-size="14.00" fill="#c6c5fe">src/statements/resources/issuerClient.ts</text>
</g>
<!-- src/statements/resources/index.ts&#45;&gt;src/statements/resources/issuerClient.ts -->
<g id="edge79" class="edge">
<title>src/statements/resources/index.ts&#45;&gt;src/statements/resources/issuerClient.ts</title>
<path fill="none" stroke="#757575" d="M2271.5,-932.82C2300.07,-934.52 2331.3,-936.39 2361.21,-938.17"/>
<polygon fill="#757575" stroke="#757575" points="2361.11,-941.67 2371.3,-938.77 2361.53,-934.68 2361.11,-941.67"/>
</g>
<!-- src/statements/tokens/generateAccessToken.ts -->
<g id="node42" class="node">
<title>src/statements/tokens/generateAccessToken.ts</title>
<path fill="none" stroke="#c6c5fe" d="M2641.83,-834.88C2641.83,-834.88 2358.17,-834.88 2358.17,-834.88 2354.33,-834.88 2350.5,-831.05 2350.5,-827.22 2350.5,-827.22 2350.5,-819.55 2350.5,-819.55 2350.5,-815.72 2354.33,-811.88 2358.17,-811.88 2358.17,-811.88 2641.83,-811.88 2641.83,-811.88 2645.67,-811.88 2649.5,-815.72 2649.5,-819.55 2649.5,-819.55 2649.5,-827.22 2649.5,-827.22 2649.5,-831.05 2645.67,-834.88 2641.83,-834.88"/>
<text text-anchor="middle" x="2500" y="-819.68" font-family="Arial" font-size="14.00" fill="#c6c5fe">src/statements/tokens/generateAccessToken.ts</text>
</g>
<!-- src/statements/tokens/index.ts&#45;&gt;src/statements/tokens/generateAccessToken.ts -->
<g id="edge85" class="edge">
<title>src/statements/tokens/index.ts&#45;&gt;src/statements/tokens/generateAccessToken.ts</title>
<path fill="none" stroke="#757575" d="M2245.2,-793.9C2266.3,-796.78 2288.98,-799.78 2310,-802.38 2332.94,-805.22 2357.46,-808.08 2380.99,-810.73"/>
<polygon fill="#757575" stroke="#757575" points="2380.67,-814.22 2391,-811.85 2381.46,-807.26 2380.67,-814.22"/>
</g>
<!-- src/statements/tokens/generateAuthorizationCode.ts -->
<g id="node43" class="node">
<title>src/statements/tokens/generateAuthorizationCode.ts</title>
<path fill="none" stroke="#c6c5fe" d="M2657.83,-711.88C2657.83,-711.88 2342.17,-711.88 2342.17,-711.88 2338.33,-711.88 2334.5,-708.05 2334.5,-704.22 2334.5,-704.22 2334.5,-696.55 2334.5,-696.55 2334.5,-692.72 2338.33,-688.88 2342.17,-688.88 2342.17,-688.88 2657.83,-688.88 2657.83,-688.88 2661.67,-688.88 2665.5,-692.72 2665.5,-696.55 2665.5,-696.55 2665.5,-704.22 2665.5,-704.22 2665.5,-708.05 2661.67,-711.88 2657.83,-711.88"/>
<text text-anchor="middle" x="2500" y="-696.68" font-family="Arial" font-size="14.00" fill="#c6c5fe">src/statements/tokens/generateAuthorizationCode.ts</text>
</g>
<!-- src/statements/tokens/index.ts&#45;&gt;src/statements/tokens/generateAuthorizationCode.ts -->
<g id="edge86" class="edge">
<title>src/statements/tokens/index.ts&#45;&gt;src/statements/tokens/generateAuthorizationCode.ts</title>
<path fill="none" stroke="#757575" d="M2185.13,-770.83C2213.1,-756.45 2263.74,-732.34 2310,-720.38 2319.87,-717.83 2330.1,-715.61 2340.47,-713.67"/>
<polygon fill="#757575" stroke="#757575" points="2341.22,-717.09 2350.45,-711.89 2339.99,-710.2 2341.22,-717.09"/>
</g>
<!-- src/statements/tokens/generateCNonce.ts -->
<g id="node44" class="node">
<title>src/statements/tokens/generateCNonce.ts</title>
<path fill="none" stroke="#c6c5fe" d="M2626.83,-793.88C2626.83,-793.88 2373.17,-793.88 2373.17,-793.88 2369.33,-793.88 2365.5,-790.05 2365.5,-786.22 2365.5,-786.22 2365.5,-778.55 2365.5,-778.55 2365.5,-774.72 2369.33,-770.88 2373.17,-770.88 2373.17,-770.88 2626.83,-770.88 2626.83,-770.88 2630.67,-770.88 2634.5,-774.72 2634.5,-778.55 2634.5,-778.55 2634.5,-786.22 2634.5,-786.22 2634.5,-790.05 2630.67,-793.88 2626.83,-793.88"/>
<text text-anchor="middle" x="2500" y="-778.68" font-family="Arial" font-size="14.00" fill="#c6c5fe">src/statements/tokens/generateCNonce.ts</text>
</g>
<!-- src/statements/tokens/index.ts&#45;&gt;src/statements/tokens/generateCNonce.ts -->
<g id="edge87" class="edge">
<title>src/statements/tokens/index.ts&#45;&gt;src/statements/tokens/generateCNonce.ts</title>
<path fill="none" stroke="#757575" d="M2262.35,-782.38C2291.47,-782.38 2323.96,-782.38 2355.29,-782.38"/>
<polygon fill="#757575" stroke="#757575" points="2355.42,-785.88 2365.42,-782.38 2355.42,-778.88 2355.42,-785.88"/>
</g>
<!-- src/statements/tokens/generateCredentials.ts -->
<g id="node45" class="node">
<title>src/statements/tokens/generateCredentials.ts</title>
<path fill="none" stroke="#cfffac" d="M2636.33,-670.88C2636.33,-670.88 2363.67,-670.88 2363.67,-670.88 2359.83,-670.88 2356,-667.05 2356,-663.22 2356,-663.22 2356,-655.55 2356,-655.55 2356,-651.72 2359.83,-647.88 2363.67,-647.88 2363.67,-647.88 2636.33,-647.88 2636.33,-647.88 2640.17,-647.88 2644,-651.72 2644,-655.55 2644,-655.55 2644,-663.22 2644,-663.22 2644,-667.05 2640.17,-670.88 2636.33,-670.88"/>
<text text-anchor="middle" x="2500" y="-655.68" font-family="Arial" font-size="14.00" fill="#cfffac">src/statements/tokens/generateCredentials.ts</text>
</g>
<!-- src/statements/tokens/index.ts&#45;&gt;src/statements/tokens/generateCredentials.ts -->
<g id="edge88" class="edge">
<title>src/statements/tokens/index.ts&#45;&gt;src/statements/tokens/generateCredentials.ts</title>
<path fill="none" stroke="#757575" d="M2175.54,-770.57C2199.08,-748.3 2253.82,-700.47 2310,-679.38 2321.46,-675.08 2333.56,-671.61 2345.88,-668.81"/>
<polygon fill="#757575" stroke="#757575" points="2346.75,-672.21 2355.8,-666.71 2345.3,-665.36 2346.75,-672.21"/>
</g>
<!-- src/statements/validations/validateAccessToken.ts -->
<g id="node46" class="node">
<title>src/statements/validations/validateAccessToken.ts</title>
<path fill="none" stroke="#c6c5fe" d="M2650.83,-383.88C2650.83,-383.88 2349.17,-383.88 2349.17,-383.88 2345.33,-383.88 2341.5,-380.05 2341.5,-376.22 2341.5,-376.22 2341.5,-368.55 2341.5,-368.55 2341.5,-364.72 2345.33,-360.88 2349.17,-360.88 2349.17,-360.88 2650.83,-360.88 2650.83,-360.88 2654.67,-360.88 2658.5,-364.72 2658.5,-368.55 2658.5,-368.55 2658.5,-376.22 2658.5,-376.22 2658.5,-380.05 2654.67,-383.88 2650.83,-383.88"/>
<text text-anchor="middle" x="2500" y="-368.68" font-family="Arial" font-size="14.00" fill="#c6c5fe">src/statements/validations/validateAccessToken.ts</text>
</g>
<!-- src/statements/validations/index.ts&#45;&gt;src/statements/validations/validateAccessToken.ts -->
<g id="edge89" class="edge">
<title>src/statements/validations/index.ts&#45;&gt;src/statements/validations/validateAccessToken.ts</title>
<path fill="none" stroke="#757575" d="M2183.99,-503.66C2207.25,-489.81 2245.63,-465.22 2274,-438.38 2292.86,-420.54 2287.29,-404.97 2310,-392.38 2316.9,-388.56 2324.16,-385.27 2331.65,-382.46"/>
<polygon fill="#757575" stroke="#757575" points="2332.94,-385.72 2341.25,-379.15 2330.66,-379.1 2332.94,-385.72"/>
</g>
<!-- src/statements/validations/validateAuthorizationCode.ts -->
<g id="node47" class="node">
<title>src/statements/validations/validateAuthorizationCode.ts</title>
<path fill="none" stroke="#c6c5fe" d="M2666.33,-465.88C2666.33,-465.88 2333.67,-465.88 2333.67,-465.88 2329.83,-465.88 2326,-462.05 2326,-458.22 2326,-458.22 2326,-450.55 2326,-450.55 2326,-446.72 2329.83,-442.88 2333.67,-442.88 2333.67,-442.88 2666.33,-442.88 2666.33,-442.88 2670.17,-442.88 2674,-446.72 2674,-450.55 2674,-450.55 2674,-458.22 2674,-458.22 2674,-462.05 2670.17,-465.88 2666.33,-465.88"/>
<text text-anchor="middle" x="2500" y="-450.68" font-family="Arial" font-size="14.00" fill="#c6c5fe">src/statements/validations/validateAuthorizationCode.ts</text>
</g>
<!-- src/statements/validations/index.ts&#45;&gt;src/statements/validations/validateAuthorizationCode.ts -->
<g id="edge90" class="edge">
<title>src/statements/validations/index.ts&#45;&gt;src/statements/validations/validateAuthorizationCode.ts</title>
<path fill="none" stroke="#757575" d="M2198.33,-503.85C2227.77,-494.54 2271.22,-481.81 2310,-474.38 2324.09,-471.69 2338.84,-469.33 2353.62,-467.27"/>
<polygon fill="#757575" stroke="#757575" points="2354.41,-470.7 2363.86,-465.9 2353.48,-463.76 2354.41,-470.7"/>
</g>
<!-- src/statements/validations/validateClientCredentials.ts -->
<g id="node48" class="node">
<title>src/statements/validations/validateClientCredentials.ts</title>
<path fill="none" stroke="#c6c5fe" d="M2662.33,-629.88C2662.33,-629.88 2337.67,-629.88 2337.67,-629.88 2333.83,-629.88 2330,-626.05 2330,-622.22 2330,-622.22 2330,-614.55 2330,-614.55 2330,-610.72 2333.83,-606.88 2337.67,-606.88 2337.67,-606.88 2662.33,-606.88 2662.33,-606.88 2666.17,-606.88 2670,-610.72 2670,-614.55 2670,-614.55 2670,-622.22 2670,-622.22 2670,-626.05 2666.17,-629.88 2662.33,-629.88"/>
<text text-anchor="middle" x="2500" y="-614.68" font-family="Arial" font-size="14.00" fill="#c6c5fe">src/statements/validations/validateClientCredentials.ts</text>
</g>
<!-- src/statements/validations/index.ts&#45;&gt;src/statements/validations/validateClientCredentials.ts -->
<g id="edge91" class="edge">
<title>src/statements/validations/index.ts&#45;&gt;src/statements/validations/validateClientCredentials.ts</title>
<path fill="none" stroke="#757575" d="M2179.21,-527C2205.01,-545.42 2258.66,-580.91 2310,-597.38 2318.66,-600.16 2327.64,-602.58 2336.78,-604.7"/>
<polygon fill="#757575" stroke="#757575" points="2336.23,-608.16 2346.74,-606.87 2337.72,-601.32 2336.23,-608.16"/>
</g>
<!-- src/statements/validations/validateIssuerState.ts -->
<g id="node49" class="node">
<title>src/statements/validations/validateIssuerState.ts</title>
<path fill="none" stroke="#c6c5fe" d="M2644.83,-424.88C2644.83,-424.88 2355.17,-424.88 2355.17,-424.88 2351.33,-424.88 2347.5,-421.05 2347.5,-417.22 2347.5,-417.22 2347.5,-409.55 2347.5,-409.55 2347.5,-405.72 2351.33,-401.88 2355.17,-401.88 2355.17,-401.88 2644.83,-401.88 2644.83,-401.88 2648.67,-401.88 2652.5,-405.72 2652.5,-409.55 2652.5,-409.55 2652.5,-417.22 2652.5,-417.22 2652.5,-421.05 2648.67,-424.88 2644.83,-424.88"/>
<text text-anchor="middle" x="2500" y="-409.68" font-family="Arial" font-size="14.00" fill="#c6c5fe">src/statements/validations/validateIssuerState.ts</text>
</g>
<!-- src/statements/validations/index.ts&#45;&gt;src/statements/validations/validateIssuerState.ts -->
<g id="edge92" class="edge">
<title>src/statements/validations/index.ts&#45;&gt;src/statements/validations/validateIssuerState.ts</title>
<path fill="none" stroke="#757575" d="M2179.2,-503.73C2204.99,-485.27 2258.61,-449.72 2310,-433.38 2318.87,-430.56 2328.08,-428.12 2337.44,-426.01"/>
<polygon fill="#757575" stroke="#757575" points="2338.2,-429.43 2347.25,-423.93 2336.74,-422.58 2338.2,-429.43"/>
</g>
<!-- src/statements/validations/validateRequestUri.ts -->
<g id="node50" class="node">
<title>src/statements/validations/validateRequestUri.ts</title>
<path fill="none" stroke="#c6c5fe" d="M2644.83,-547.88C2644.83,-547.88 2355.17,-547.88 2355.17,-547.88 2351.33,-547.88 2347.5,-544.05 2347.5,-540.22 2347.5,-540.22 2347.5,-532.55 2347.5,-532.55 2347.5,-528.72 2351.33,-524.88 2355.17,-524.88 2355.17,-524.88 2644.83,-524.88 2644.83,-524.88 2648.67,-524.88 2652.5,-528.72 2652.5,-532.55 2652.5,-532.55 2652.5,-540.22 2652.5,-540.22 2652.5,-544.05 2648.67,-547.88 2644.83,-547.88"/>
<text text-anchor="middle" x="2500" y="-532.68" font-family="Arial" font-size="14.00" fill="#c6c5fe">src/statements/validations/validateRequestUri.ts</text>
</g>
<!-- src/statements/validations/index.ts&#45;&gt;src/statements/validations/validateRequestUri.ts -->
<g id="edge93" class="edge">
<title>src/statements/validations/index.ts&#45;&gt;src/statements/validations/validateRequestUri.ts</title>
<path fill="none" stroke="#757575" d="M2274.29,-522.32C2294.47,-523.58 2315.9,-524.92 2337.21,-526.26"/>
<polygon fill="#757575" stroke="#757575" points="2337.12,-529.76 2347.31,-526.89 2337.55,-522.77 2337.12,-529.76"/>
</g>
<!-- src/statements/validations/validateResourceOwner.ts -->
<g id="node51" class="node">
<title>src/statements/validations/validateResourceOwner.ts</title>
<path fill="none" stroke="#c6c5fe" d="M2659.83,-588.88C2659.83,-588.88 2340.17,-588.88 2340.17,-588.88 2336.33,-588.88 2332.5,-585.05 2332.5,-581.22 2332.5,-581.22 2332.5,-573.55 2332.5,-573.55 2332.5,-569.72 2336.33,-565.88 2340.17,-565.88 2340.17,-565.88 2659.83,-565.88 2659.83,-565.88 2663.67,-565.88 2667.5,-569.72 2667.5,-573.55 2667.5,-573.55 2667.5,-581.22 2667.5,-581.22 2667.5,-585.05 2663.67,-588.88 2659.83,-588.88"/>
<text text-anchor="middle" x="2500" y="-573.68" font-family="Arial" font-size="14.00" fill="#c6c5fe">src/statements/validations/validateResourceOwner.ts</text>
</g>
<!-- src/statements/validations/index.ts&#45;&gt;src/statements/validations/validateResourceOwner.ts -->
<g id="edge94" class="edge">
<title>src/statements/validations/index.ts&#45;&gt;src/statements/validations/validateResourceOwner.ts</title>
<path fill="none" stroke="#757575" d="M2198.64,-526.95C2228.08,-536.22 2271.37,-548.88 2310,-556.38 2326.12,-559.51 2343.11,-562.22 2360.02,-564.55"/>
<polygon fill="#757575" stroke="#757575" points="2359.59,-568.02 2369.97,-565.88 2360.52,-561.08 2359.59,-568.02"/>
</g>
<!-- src/statements/validations/validateScope.ts -->
<g id="node52" class="node">
<title>src/statements/validations/validateScope.ts</title>
<path fill="none" stroke="#c6c5fe" d="M2629.83,-506.88C2629.83,-506.88 2370.17,-506.88 2370.17,-506.88 2366.33,-506.88 2362.5,-503.05 2362.5,-499.22 2362.5,-499.22 2362.5,-491.55 2362.5,-491.55 2362.5,-487.72 2366.33,-483.88 2370.17,-483.88 2370.17,-483.88 2629.83,-483.88 2629.83,-483.88 2633.67,-483.88 2637.5,-487.72 2637.5,-491.55 2637.5,-491.55 2637.5,-499.22 2637.5,-499.22 2637.5,-503.05 2633.67,-506.88 2629.83,-506.88"/>
<text text-anchor="middle" x="2500" y="-491.68" font-family="Arial" font-size="14.00" fill="#c6c5fe">src/statements/validations/validateScope.ts</text>
</g>
<!-- src/statements/validations/index.ts&#45;&gt;src/statements/validations/validateScope.ts -->
<g id="edge95" class="edge">
<title>src/statements/validations/index.ts&#45;&gt;src/statements/validations/validateScope.ts</title>
<path fill="none" stroke="#757575" d="M2274.29,-508.78C2299.25,-507.29 2326.12,-505.69 2352.3,-504.13"/>
<polygon fill="#757575" stroke="#757575" points="2352.52,-507.62 2362.29,-503.53 2352.1,-500.63 2352.52,-507.62"/>
</g>
<!-- src/statements/locations/authorizationCodeRedirection.ts&#45;&gt;src/resources.ts -->
<g id="edge71" class="edge">
<title>src/statements/locations/authorizationCodeRedirection.ts&#45;&gt;src/resources.ts</title>
<path fill="none" stroke="#757575" d="M2629.89,-916.91C2650.07,-919.32 2670.64,-922.14 2690,-925.38 2701.74,-927.35 2714.24,-929.92 2726.09,-932.58"/>
<polygon fill="#757575" stroke="#757575" points="2725.33,-936 2735.86,-934.82 2726.89,-929.17 2725.33,-936"/>
</g>
<!-- src/statements/locations/generateAuthorizationRequestUri.ts&#45;&gt;src/resources.ts -->
<g id="edge73" class="edge">
<title>src/statements/locations/generateAuthorizationRequestUri.ts&#45;&gt;src/resources.ts</title>
<path fill="none" stroke="#757575" d="M2662.08,-875.89C2671.64,-878.28 2681.02,-881.09 2690,-884.38 2716.68,-894.17 2743.06,-913.5 2760.5,-927.99"/>
<polygon fill="#757575" stroke="#757575" points="2758.42,-930.82 2768.3,-934.65 2762.96,-925.5 2758.42,-930.82"/>
</g>
<!-- src/statements/locations/generateAuthorizationRequestUri.ts&#45;&gt;src/constants.ts -->
<g id="edge72" class="edge">
<title>src/statements/locations/generateAuthorizationRequestUri.ts&#45;&gt;src/constants.ts</title>
<path fill="none" stroke="#757575" d="M2671.98,-852.85C2678.22,-850.1 2684.26,-846.96 2690,-843.38 2735.55,-814.99 2762.38,-754.47 2774.05,-722.01"/>
<polygon fill="#757575" stroke="#757575" points="2777.5,-722.76 2777.43,-712.17 2770.87,-720.49 2777.5,-722.76"/>
</g>
<!-- src/statements/locations/generateCredentialOffer.ts&#45;&gt;src/resources.ts -->
<g id="edge75" class="edge">
<title>src/statements/locations/generateCredentialOffer.ts&#45;&gt;src/resources.ts</title>
<path fill="none" stroke="#757575" d="M2662.92,-747C2672.49,-750.8 2681.61,-755.53 2690,-761.38 2746.33,-800.72 2769.35,-885.08 2777.34,-924.82"/>
<polygon fill="#757575" stroke="#757575" points="2773.92,-925.6 2779.21,-934.78 2780.8,-924.3 2773.92,-925.6"/>
</g>
<!-- src/statements/locations/generateCredentialOffer.ts&#45;&gt;src/errors.ts -->
<g id="edge74" class="edge">
<title>src/statements/locations/generateCredentialOffer.ts&#45;&gt;src/errors.ts</title>
<path fill="none" stroke="#757575" d="M2662.63,-737.56C2672.5,-733.14 2681.76,-727.51 2690,-720.38 2740.46,-676.76 2770.07,-463.65 2778.49,-394.26"/>
<polygon fill="#757575" stroke="#757575" points="2782,-394.41 2779.7,-384.06 2775.05,-393.58 2782,-394.41"/>
</g>
<!-- src/statements/resources/issuerClient.ts&#45;&gt;src/resources.ts -->
<g id="edge80" class="edge">
<title>src/statements/resources/issuerClient.ts&#45;&gt;src/resources.ts</title>
<path fill="none" stroke="#757575" d="M2628.71,-946.38C2658.89,-946.38 2689.83,-946.38 2715.88,-946.38"/>
<polygon fill="#757575" stroke="#757575" points="2715.98,-949.88 2725.98,-946.38 2715.98,-942.88 2715.98,-949.88"/>
</g>
<!-- src/statements/tokens/generateAccessToken.ts&#45;&gt;src/resources.ts -->
<g id="edge81" class="edge">
<title>src/statements/tokens/generateAccessToken.ts&#45;&gt;src/resources.ts</title>
<path fill="none" stroke="#757575" d="M2649.61,-828.37C2663.69,-831.99 2677.39,-836.88 2690,-843.38 2726.13,-862.02 2754.48,-901.48 2769.4,-925.78"/>
<polygon fill="#757575" stroke="#757575" points="2766.5,-927.76 2774.61,-934.58 2772.52,-924.19 2766.5,-927.76"/>
</g>
<!-- src/statements/tokens/generateAuthorizationCode.ts&#45;&gt;src/resources.ts -->
<g id="edge83" class="edge">
<title>src/statements/tokens/generateAuthorizationCode.ts&#45;&gt;src/resources.ts</title>
<path fill="none" stroke="#757575" d="M2665.71,-706.27C2674.32,-710.06 2682.5,-714.72 2690,-720.38 2756.89,-770.89 2774.75,-878.62 2779.41,-924.72"/>
<polygon fill="#757575" stroke="#757575" points="2775.93,-925.15 2780.31,-934.8 2782.9,-924.53 2775.93,-925.15"/>
</g>
<!-- src/statements/tokens/generateAuthorizationCode.ts&#45;&gt;src/errors.ts -->
<g id="edge82" class="edge">
<title>src/statements/tokens/generateAuthorizationCode.ts&#45;&gt;src/errors.ts</title>
<path fill="none" stroke="#757575" d="M2665.51,-694.83C2674.27,-690.72 2682.53,-685.63 2690,-679.38 2734.95,-641.78 2767.58,-457.87 2777.7,-394.16"/>
<polygon fill="#757575" stroke="#757575" points="2781.2,-394.46 2779.28,-384.04 2774.28,-393.38 2781.2,-394.46"/>
</g>
<!-- src/statements/tokens/generateCNonce.ts&#45;&gt;src/resources.ts -->
<g id="edge84" class="edge">
<title>src/statements/tokens/generateCNonce.ts&#45;&gt;src/resources.ts</title>
<path fill="none" stroke="#757575" d="M2634.65,-781.32C2654.2,-785.39 2673.33,-792.02 2690,-802.38 2736,-830.99 2762.76,-892.38 2774.27,-925"/>
<polygon fill="#757575" stroke="#757575" points="2770.96,-926.14 2777.47,-934.5 2777.59,-923.9 2770.96,-926.14"/>
</g>
<!-- src/statements/validations/validateAccessToken.ts&#45;&gt;src/errors.ts -->
<g id="edge96" class="edge">
<title>src/statements/validations/validateAccessToken.ts&#45;&gt;src/errors.ts</title>
<path fill="none" stroke="#757575" d="M2658.6,-372.38C2683.48,-372.38 2707.61,-372.38 2727.78,-372.38"/>
<polygon fill="#757575" stroke="#757575" points="2727.94,-375.88 2737.94,-372.38 2727.94,-368.88 2727.94,-375.88"/>
</g>
<!-- src/statements/validations/validateAuthorizationCode.ts&#45;&gt;src/errors.ts -->
<g id="edge97" class="edge">
<title>src/statements/validations/validateAuthorizationCode.ts&#45;&gt;src/errors.ts</title>
<path fill="none" stroke="#757575" d="M2658.1,-442.86C2669.03,-440.25 2679.77,-437.12 2690,-433.38 2716.56,-423.67 2742.96,-404.67 2760.43,-390.44"/>
<polygon fill="#757575" stroke="#757575" points="2762.82,-393 2768.25,-383.9 2758.33,-387.63 2762.82,-393"/>
</g>
<!-- src/statements/validations/validateClientCredentials.ts&#45;&gt;src/resources.ts -->
<g id="edge99" class="edge">
<title>src/statements/validations/validateClientCredentials.ts&#45;&gt;src/resources.ts</title>
<path fill="none" stroke="#757575" d="M2670.34,-625.4C2677.31,-629.02 2683.92,-633.31 2690,-638.38 2712.83,-657.4 2760.72,-858.24 2776.12,-924.97"/>
<polygon fill="#757575" stroke="#757575" points="2772.73,-925.85 2778.38,-934.81 2779.55,-924.28 2772.73,-925.85"/>
</g>
<!-- src/statements/validations/validateClientCredentials.ts&#45;&gt;src/errors.ts -->
<g id="edge98" class="edge">
<title>src/statements/validations/validateClientCredentials.ts&#45;&gt;src/errors.ts</title>
<path fill="none" stroke="#757575" d="M2670.21,-609.48C2677.18,-606.07 2683.82,-602.07 2690,-597.38 2756.54,-546.95 2774.59,-439.78 2779.35,-393.92"/>
<polygon fill="#757575" stroke="#757575" points="2782.85,-394.18 2780.28,-383.9 2775.87,-393.54 2782.85,-394.18"/>
</g>
<!-- src/statements/validations/validateIssuerState.ts&#45;&gt;src/errors.ts -->
<g id="edge100" class="edge">
<title>src/statements/validations/validateIssuerState.ts&#45;&gt;src/errors.ts</title>
<path fill="none" stroke="#757575" d="M2622,-401.86C2644.65,-399.16 2668.09,-396 2690,-392.38 2702.22,-390.37 2715.27,-387.77 2727.56,-385.11"/>
<polygon fill="#757575" stroke="#757575" points="2728.66,-388.46 2737.67,-382.88 2727.15,-381.62 2728.66,-388.46"/>
</g>
<!-- src/statements/validations/validateRequestUri.ts&#45;&gt;src/resources.ts -->
<g id="edge103" class="edge">
<title>src/statements/validations/validateRequestUri.ts&#45;&gt;src/resources.ts</title>
<path fill="none" stroke="#757575" d="M2652.91,-534.89C2666.5,-539.76 2679.18,-546.7 2690,-556.38 2745.6,-606.15 2709.18,-647.68 2726,-720.38 2743.43,-795.7 2765.55,-884.76 2775.6,-924.89"/>
<polygon fill="#757575" stroke="#757575" points="2772.22,-925.79 2778.04,-934.64 2779.01,-924.09 2772.22,-925.79"/>
</g>
<!-- src/statements/validations/validateRequestUri.ts&#45;&gt;src/constants.ts -->
<g id="edge101" class="edge">
<title>src/statements/validations/validateRequestUri.ts&#45;&gt;src/constants.ts</title>
<path fill="none" stroke="#757575" d="M2652.7,-539.89C2665.86,-543.87 2678.51,-549.24 2690,-556.38 2736,-584.99 2762.76,-646.38 2774.27,-679"/>
<polygon fill="#757575" stroke="#757575" points="2770.96,-680.14 2777.47,-688.5 2777.59,-677.9 2770.96,-680.14"/>
</g>
<!-- src/statements/validations/validateRequestUri.ts&#45;&gt;src/errors.ts -->
<g id="edge102" class="edge">
<title>src/statements/validations/validateRequestUri.ts&#45;&gt;src/errors.ts</title>
<path fill="none" stroke="#757575" d="M2652.7,-531.98C2665.86,-527.95 2678.51,-522.54 2690,-515.38 2735.55,-486.99 2762.38,-426.47 2774.05,-394.01"/>
<polygon fill="#757575" stroke="#757575" points="2777.5,-394.76 2777.43,-384.17 2770.87,-392.49 2777.5,-394.76"/>
</g>
<!-- src/statements/validations/validateResourceOwner.ts&#45;&gt;src/resources.ts -->
<g id="edge105" class="edge">
<title>src/statements/validations/validateResourceOwner.ts&#45;&gt;src/resources.ts</title>
<path fill="none" stroke="#757575" d="M2667.93,-582.81C2675.82,-586.76 2683.25,-591.57 2690,-597.38 2696.43,-602.92 2757.25,-849.46 2775.71,-924.77"/>
<polygon fill="#757575" stroke="#757575" points="2772.34,-925.7 2778.12,-934.58 2779.14,-924.04 2772.34,-925.7"/>
</g>
<!-- src/statements/validations/validateResourceOwner.ts&#45;&gt;src/errors.ts -->
<g id="edge104" class="edge">
<title>src/statements/validations/validateResourceOwner.ts&#45;&gt;src/errors.ts</title>
<path fill="none" stroke="#757575" d="M2667.52,-568.91C2675.42,-565.45 2682.97,-561.31 2690,-556.38 2746.03,-517.13 2769.2,-433.29 2777.28,-393.8"/>
<polygon fill="#757575" stroke="#757575" points="2780.73,-394.39 2779.18,-383.91 2773.86,-393.07 2780.73,-394.39"/>
</g>
<!-- src/statements/validations/validateScope.ts&#45;&gt;src/resources.ts -->
<g id="edge107" class="edge">
<title>src/statements/validations/validateScope.ts&#45;&gt;src/resources.ts</title>
<path fill="none" stroke="#757575" d="M2570.5,-483.87C2610.4,-481.41 2658.65,-486.11 2690,-515.38 2723.8,-546.95 2716.53,-675.11 2726,-720.38 2741.83,-796.05 2764.75,-884.94 2775.29,-924.95"/>
<polygon fill="#757575" stroke="#757575" points="2771.92,-925.91 2777.87,-934.68 2778.69,-924.12 2771.92,-925.91"/>
</g>
<!-- src/statements/validations/validateScope.ts&#45;&gt;src/errors.ts -->
<g id="edge106" class="edge">
<title>src/statements/validations/validateScope.ts&#45;&gt;src/errors.ts</title>
<path fill="none" stroke="#757575" d="M2637.74,-492.28C2655.94,-488.43 2673.86,-482.71 2690,-474.38 2725.93,-455.84 2754.34,-416.79 2769.33,-392.75"/>
<polygon fill="#757575" stroke="#757575" points="2772.41,-394.43 2774.57,-384.06 2766.41,-390.81 2772.41,-394.43"/>
</g>
</g>
</svg>
