<?xml version="1.0" encoding="UTF-8" standalone="no"?>
<!DOCTYPE svg PUBLIC "-//W3C//DTD SVG 1.1//EN"
 "http://www.w3.org/Graphics/SVG/1.1/DTD/svg11.dtd">
<!-- Generated by graphviz version 2.43.0 (0)
 -->
<!-- Title: G Pages: 1 -->
<svg width="1672pt" height="465pt"
 viewBox="0.00 0.00 1672.20 465.20" xmlns="http://www.w3.org/2000/svg" xmlns:xlink="http://www.w3.org/1999/xlink">
<g id="graph0" class="graph" transform="scale(1 1) rotate(0) translate(21.6 443.6)">
<title>G</title>
<polygon fill="#111111" stroke="transparent" points="-21.6,21.6 -21.6,-443.6 1650.6,-443.6 1650.6,21.6 -21.6,21.6"/>
<!-- app.ts -->
<g id="node1" class="node">
<title>app.ts</title>
<path fill="none" stroke="#c6c5fe" d="M46.33,-76.98C46.33,-76.98 7.67,-76.98 7.67,-76.98 3.83,-76.98 0,-73.14 0,-69.31 0,-69.31 0,-61.64 0,-61.64 0,-57.81 3.83,-53.98 7.67,-53.98 7.67,-53.98 46.33,-53.98 46.33,-53.98 50.17,-53.98 54,-57.81 54,-61.64 54,-61.64 54,-69.31 54,-69.31 54,-73.14 50.17,-76.98 46.33,-76.98"/>
<text text-anchor="middle" x="27" y="-61.78" font-family="Arial" font-size="14.00" fill="#c6c5fe">app.ts</text>
</g>
<!-- src/index.ts -->
<g id="node2" class="node">
<title>src/index.ts</title>
<path fill="none" stroke="#c6c5fe" d="M167.33,-76.98C167.33,-76.98 97.67,-76.98 97.67,-76.98 93.83,-76.98 90,-73.14 90,-69.31 90,-69.31 90,-61.64 90,-61.64 90,-57.81 93.83,-53.98 97.67,-53.98 97.67,-53.98 167.33,-53.98 167.33,-53.98 171.17,-53.98 175,-57.81 175,-61.64 175,-61.64 175,-69.31 175,-69.31 175,-73.14 171.17,-76.98 167.33,-76.98"/>
<text text-anchor="middle" x="132.5" y="-61.78" font-family="Arial" font-size="14.00" fill="#c6c5fe">src/index.ts</text>
</g>
<!-- app.ts&#45;&gt;src/index.ts -->
<g id="edge1" class="edge">
<title>app.ts&#45;&gt;src/index.ts</title>
<path fill="none" stroke="#757575" d="M54.12,-65.48C61.87,-65.48 70.64,-65.48 79.42,-65.48"/>
<polygon fill="#757575" stroke="#757575" points="79.68,-68.98 89.68,-65.48 79.68,-61.98 79.68,-68.98"/>
</g>
<!-- src/core.ts -->
<g id="node5" class="node">
<title>src/core.ts</title>
<path fill="none" stroke="#c6c5fe" d="M282.33,-76.98C282.33,-76.98 218.67,-76.98 218.67,-76.98 214.83,-76.98 211,-73.14 211,-69.31 211,-69.31 211,-61.64 211,-61.64 211,-57.81 214.83,-53.98 218.67,-53.98 218.67,-53.98 282.33,-53.98 282.33,-53.98 286.17,-53.98 290,-57.81 290,-61.64 290,-61.64 290,-69.31 290,-69.31 290,-73.14 286.17,-76.98 282.33,-76.98"/>
<text text-anchor="middle" x="250.5" y="-61.78" font-family="Arial" font-size="14.00" fill="#c6c5fe">src/core.ts</text>
</g>
<!-- src/index.ts&#45;&gt;src/core.ts -->
<g id="edge16" class="edge">
<title>src/index.ts&#45;&gt;src/core.ts</title>
<path fill="none" stroke="#757575" d="M175.05,-65.48C183.37,-65.48 192.18,-65.48 200.72,-65.48"/>
<polygon fill="#757575" stroke="#757575" points="200.95,-68.98 210.95,-65.48 200.95,-61.98 200.95,-68.98"/>
</g>
<!-- src/config.ts -->
<g id="node3" class="node">
<title>src/config.ts</title>
<path fill="none" stroke="#c6c5fe" d="M1016.83,-35.98C1016.83,-35.98 943.17,-35.98 943.17,-35.98 939.33,-35.98 935.5,-32.14 935.5,-28.31 935.5,-28.31 935.5,-20.64 935.5,-20.64 935.5,-16.81 939.33,-12.98 943.17,-12.98 943.17,-12.98 1016.83,-12.98 1016.83,-12.98 1020.67,-12.98 1024.5,-16.81 1024.5,-20.64 1024.5,-20.64 1024.5,-28.31 1024.5,-28.31 1024.5,-32.14 1020.67,-35.98 1016.83,-35.98"/>
<text text-anchor="middle" x="980" y="-20.78" font-family="Arial" font-size="14.00" fill="#c6c5fe">src/config.ts</text>
</g>
<!-- src/resources.ts -->
<g id="node4" class="node">
<title>src/resources.ts</title>
<path fill="none" stroke="#cfffac" d="M1621.33,-154.98C1621.33,-154.98 1524.67,-154.98 1524.67,-154.98 1520.83,-154.98 1517,-151.14 1517,-147.31 1517,-147.31 1517,-139.64 1517,-139.64 1517,-135.81 1520.83,-131.98 1524.67,-131.98 1524.67,-131.98 1621.33,-131.98 1621.33,-131.98 1625.17,-131.98 1629,-135.81 1629,-139.64 1629,-139.64 1629,-147.31 1629,-147.31 1629,-151.14 1625.17,-154.98 1621.33,-154.98"/>
<text text-anchor="middle" x="1573" y="-139.78" font-family="Arial" font-size="14.00" fill="#cfffac">src/resources.ts</text>
</g>
<!-- src/config.ts&#45;&gt;src/resources.ts -->
<g id="edge2" class="edge">
<title>src/config.ts&#45;&gt;src/resources.ts</title>
<path fill="none" stroke="#757575" d="M1024.63,-16.24C1114.71,-1.37 1325.79,22.22 1481,-48.48 1515.89,-64.37 1544.15,-100.27 1559.48,-123.1"/>
<polygon fill="#757575" stroke="#757575" points="1556.68,-125.23 1565.06,-131.71 1562.55,-121.42 1556.68,-125.23"/>
</g>
<!-- src/core.ts&#45;&gt;src/config.ts -->
<g id="edge3" class="edge">
<title>src/core.ts&#45;&gt;src/config.ts</title>
<path fill="none" stroke="#757575" d="M290.1,-63.3C411.32,-56.47 784.67,-35.43 924.97,-27.52"/>
<polygon fill="#757575" stroke="#757575" points="925.27,-31.01 935.05,-26.95 924.87,-24.02 925.27,-31.01"/>
</g>
<!-- src/handlers/index.ts -->
<g id="node6" class="node">
<title>src/handlers/index.ts</title>
<path fill="none" stroke="#c6c5fe" d="M458.33,-116.98C458.33,-116.98 333.67,-116.98 333.67,-116.98 329.83,-116.98 326,-113.14 326,-109.31 326,-109.31 326,-101.64 326,-101.64 326,-97.81 329.83,-93.98 333.67,-93.98 333.67,-93.98 458.33,-93.98 458.33,-93.98 462.17,-93.98 466,-97.81 466,-101.64 466,-101.64 466,-109.31 466,-109.31 466,-113.14 462.17,-116.98 458.33,-116.98"/>
<text text-anchor="middle" x="396" y="-101.78" font-family="Arial" font-size="14.00" fill="#c6c5fe">src/handlers/index.ts</text>
</g>
<!-- src/core.ts&#45;&gt;src/handlers/index.ts -->
<g id="edge4" class="edge">
<title>src/core.ts&#45;&gt;src/handlers/index.ts</title>
<path fill="none" stroke="#757575" d="M290.33,-76.3C306.71,-80.87 326,-86.25 343.54,-91.13"/>
<polygon fill="#757575" stroke="#757575" points="343.05,-94.63 353.62,-93.94 344.93,-87.89 343.05,-94.63"/>
</g>
<!-- src/handlers/credentialOffer.handler.ts -->
<g id="node8" class="node">
<title>src/handlers/credentialOffer.handler.ts</title>
<path fill="none" stroke="#c6c5fe" d="M739.33,-116.98C739.33,-116.98 509.67,-116.98 509.67,-116.98 505.83,-116.98 502,-113.14 502,-109.31 502,-109.31 502,-101.64 502,-101.64 502,-97.81 505.83,-93.98 509.67,-93.98 509.67,-93.98 739.33,-93.98 739.33,-93.98 743.17,-93.98 747,-97.81 747,-101.64 747,-101.64 747,-109.31 747,-109.31 747,-113.14 743.17,-116.98 739.33,-116.98"/>
<text text-anchor="middle" x="624.5" y="-101.78" font-family="Arial" font-size="14.00" fill="#c6c5fe">src/handlers/credentialOffer.handler.ts</text>
</g>
<!-- src/handlers/index.ts&#45;&gt;src/handlers/credentialOffer.handler.ts -->
<g id="edge10" class="edge">
<title>src/handlers/index.ts&#45;&gt;src/handlers/credentialOffer.handler.ts</title>
<path fill="none" stroke="#757575" d="M466.19,-105.48C474.32,-105.48 482.82,-105.48 491.46,-105.48"/>
<polygon fill="#757575" stroke="#757575" points="491.67,-108.98 501.67,-105.48 491.67,-101.98 491.67,-108.98"/>
</g>
<!-- src/handlers/token.handler.ts -->
<g id="node11" class="node">
<title>src/handlers/token.handler.ts</title>
<path fill="none" stroke="#c6c5fe" d="M711.33,-195.98C711.33,-195.98 537.67,-195.98 537.67,-195.98 533.83,-195.98 530,-192.14 530,-188.31 530,-188.31 530,-180.64 530,-180.64 530,-176.81 533.83,-172.98 537.67,-172.98 537.67,-172.98 711.33,-172.98 711.33,-172.98 715.17,-172.98 719,-176.81 719,-180.64 719,-180.64 719,-188.31 719,-188.31 719,-192.14 715.17,-195.98 711.33,-195.98"/>
<text text-anchor="middle" x="624.5" y="-180.78" font-family="Arial" font-size="14.00" fill="#c6c5fe">src/handlers/token.handler.ts</text>
</g>
<!-- src/handlers/index.ts&#45;&gt;src/handlers/token.handler.ts -->
<g id="edge11" class="edge">
<title>src/handlers/index.ts&#45;&gt;src/handlers/token.handler.ts</title>
<path fill="none" stroke="#757575" d="M430.42,-117.13C470.35,-131.06 537.21,-154.38 580.83,-169.6"/>
<polygon fill="#757575" stroke="#757575" points="579.72,-172.91 590.31,-172.9 582.02,-166.3 579.72,-172.91"/>
</g>
<!-- src/errors.ts -->
<g id="node7" class="node">
<title>src/errors.ts</title>
<path fill="none" stroke="#cfffac" d="M1609.33,-318.98C1609.33,-318.98 1536.67,-318.98 1536.67,-318.98 1532.83,-318.98 1529,-315.14 1529,-311.31 1529,-311.31 1529,-303.64 1529,-303.64 1529,-299.81 1532.83,-295.98 1536.67,-295.98 1536.67,-295.98 1609.33,-295.98 1609.33,-295.98 1613.17,-295.98 1617,-299.81 1617,-303.64 1617,-303.64 1617,-311.31 1617,-311.31 1617,-315.14 1613.17,-318.98 1609.33,-318.98"/>
<text text-anchor="middle" x="1573" y="-303.78" font-family="Arial" font-size="14.00" fill="#cfffac">src/errors.ts</text>
</g>
<!-- src/handlers/credentialOffer.handler.ts&#45;&gt;src/config.ts -->
<g id="edge5" class="edge">
<title>src/handlers/credentialOffer.handler.ts&#45;&gt;src/config.ts</title>
<path fill="none" stroke="#757575" d="M656.82,-93.94C681.42,-84.8 716.5,-71.6 747,-59.48 763.11,-53.08 766.2,-48.74 783,-44.48 830.12,-32.53 885.34,-27.69 925.13,-25.74"/>
<polygon fill="#757575" stroke="#757575" points="925.32,-29.23 935.16,-25.29 925.01,-22.24 925.32,-29.23"/>
</g>
<!-- src/handlers/credentialOffer.handler.ts&#45;&gt;src/resources.ts -->
<g id="edge8" class="edge">
<title>src/handlers/credentialOffer.handler.ts&#45;&gt;src/resources.ts</title>
<path fill="none" stroke="#757575" d="M747.22,-103.66C859.06,-101.38 1029.37,-96.34 1177,-85.48 1193.06,-84.3 1196.93,-82.37 1213,-81.48 1331.93,-74.89 1367.18,-46.39 1481,-81.48 1508.47,-89.95 1535.07,-109.86 1552.34,-124.85"/>
<polygon fill="#757575" stroke="#757575" points="1550.25,-127.68 1560.04,-131.74 1554.92,-122.47 1550.25,-127.68"/>
</g>
<!-- src/handlers/credentialOffer.handler.ts&#45;&gt;src/errors.ts -->
<g id="edge6" class="edge">
<title>src/handlers/credentialOffer.handler.ts&#45;&gt;src/errors.ts</title>
<path fill="none" stroke="#757575" d="M657.65,-116.99C683.35,-127.12 719.49,-143.51 747,-164.48 766.29,-179.18 762.51,-192.51 783,-205.48 950.95,-311.81 1016.15,-300.88 1213,-328.48 1330.96,-345.02 1362.65,-341.96 1481,-328.48 1494.22,-326.97 1508.32,-324.27 1521.37,-321.3"/>
<polygon fill="#757575" stroke="#757575" points="1522.2,-324.7 1531.12,-318.99 1520.58,-317.89 1522.2,-324.7"/>
</g>
<!-- src/handlers/schemas/credentialOfferHandlerConfig.schema.ts -->
<g id="node9" class="node">
<title>src/handlers/schemas/credentialOfferHandlerConfig.schema.ts</title>
<path fill="none" stroke="#cfffac" d="M1169.33,-76.98C1169.33,-76.98 790.67,-76.98 790.67,-76.98 786.83,-76.98 783,-73.14 783,-69.31 783,-69.31 783,-61.64 783,-61.64 783,-57.81 786.83,-53.98 790.67,-53.98 790.67,-53.98 1169.33,-53.98 1169.33,-53.98 1173.17,-53.98 1177,-57.81 1177,-61.64 1177,-61.64 1177,-69.31 1177,-69.31 1177,-73.14 1173.17,-76.98 1169.33,-76.98"/>
<text text-anchor="middle" x="980" y="-61.78" font-family="Arial" font-size="14.00" fill="#cfffac">src/handlers/schemas/credentialOfferHandlerConfig.schema.ts</text>
</g>
<!-- src/handlers/credentialOffer.handler.ts&#45;&gt;src/handlers/schemas/credentialOfferHandlerConfig.schema.ts -->
<g id="edge7" class="edge">
<title>src/handlers/credentialOffer.handler.ts&#45;&gt;src/handlers/schemas/credentialOfferHandlerConfig.schema.ts</title>
<path fill="none" stroke="#757575" d="M727.27,-93.96C771.08,-89.01 822.42,-83.2 867.27,-78.12"/>
<polygon fill="#757575" stroke="#757575" points="867.79,-81.58 877.33,-76.98 867,-74.63 867.79,-81.58"/>
</g>
<!-- src/statements/index.ts -->
<g id="node10" class="node">
<title>src/statements/index.ts</title>
<path fill="none" stroke="#c6c5fe" d="M1049.83,-195.98C1049.83,-195.98 910.17,-195.98 910.17,-195.98 906.33,-195.98 902.5,-192.14 902.5,-188.31 902.5,-188.31 902.5,-180.64 902.5,-180.64 902.5,-176.81 906.33,-172.98 910.17,-172.98 910.17,-172.98 1049.83,-172.98 1049.83,-172.98 1053.67,-172.98 1057.5,-176.81 1057.5,-180.64 1057.5,-180.64 1057.5,-188.31 1057.5,-188.31 1057.5,-192.14 1053.67,-195.98 1049.83,-195.98"/>
<text text-anchor="middle" x="980" y="-180.78" font-family="Arial" font-size="14.00" fill="#c6c5fe">src/statements/index.ts</text>
</g>
<!-- src/handlers/credentialOffer.handler.ts&#45;&gt;src/statements/index.ts -->
<g id="edge9" class="edge">
<title>src/handlers/credentialOffer.handler.ts&#45;&gt;src/statements/index.ts</title>
<path fill="none" stroke="#757575" d="M677.28,-117.05C741.03,-131.3 849.19,-155.47 917.22,-170.67"/>
<polygon fill="#757575" stroke="#757575" points="916.85,-174.17 927.37,-172.94 918.37,-167.34 916.85,-174.17"/>
</g>
<!-- src/statements/checkClientCredentials.ts -->
<g id="node13" class="node">
<title>src/statements/checkClientCredentials.ts</title>
<path fill="none" stroke="#c6c5fe" d="M1469.83,-236.98C1469.83,-236.98 1224.17,-236.98 1224.17,-236.98 1220.33,-236.98 1216.5,-233.14 1216.5,-229.31 1216.5,-229.31 1216.5,-221.64 1216.5,-221.64 1216.5,-217.81 1220.33,-213.98 1224.17,-213.98 1224.17,-213.98 1469.83,-213.98 1469.83,-213.98 1473.67,-213.98 1477.5,-217.81 1477.5,-221.64 1477.5,-221.64 1477.5,-229.31 1477.5,-229.31 1477.5,-233.14 1473.67,-236.98 1469.83,-236.98"/>
<text text-anchor="middle" x="1347" y="-221.78" font-family="Arial" font-size="14.00" fill="#c6c5fe">src/statements/checkClientCredentials.ts</text>
</g>
<!-- src/statements/index.ts&#45;&gt;src/statements/checkClientCredentials.ts -->
<g id="edge24" class="edge">
<title>src/statements/index.ts&#45;&gt;src/statements/checkClientCredentials.ts</title>
<path fill="none" stroke="#757575" d="M1057.52,-193.07C1108.49,-198.8 1176.35,-206.42 1233.45,-212.84"/>
<polygon fill="#757575" stroke="#757575" points="1233.28,-216.34 1243.61,-213.98 1234.06,-209.38 1233.28,-216.34"/>
</g>
<!-- src/statements/checkScope.ts -->
<g id="node14" class="node">
<title>src/statements/checkScope.ts</title>
<path fill="none" stroke="#c6c5fe" d="M1437.83,-195.98C1437.83,-195.98 1256.17,-195.98 1256.17,-195.98 1252.33,-195.98 1248.5,-192.14 1248.5,-188.31 1248.5,-188.31 1248.5,-180.64 1248.5,-180.64 1248.5,-176.81 1252.33,-172.98 1256.17,-172.98 1256.17,-172.98 1437.83,-172.98 1437.83,-172.98 1441.67,-172.98 1445.5,-176.81 1445.5,-180.64 1445.5,-180.64 1445.5,-188.31 1445.5,-188.31 1445.5,-192.14 1441.67,-195.98 1437.83,-195.98"/>
<text text-anchor="middle" x="1347" y="-180.78" font-family="Arial" font-size="14.00" fill="#c6c5fe">src/statements/checkScope.ts</text>
</g>
<!-- src/statements/index.ts&#45;&gt;src/statements/checkScope.ts -->
<g id="edge25" class="edge">
<title>src/statements/index.ts&#45;&gt;src/statements/checkScope.ts</title>
<path fill="none" stroke="#757575" d="M1057.52,-184.48C1109.87,-184.48 1180.04,-184.48 1238.06,-184.48"/>
<polygon fill="#757575" stroke="#757575" points="1238.38,-187.98 1248.38,-184.48 1238.38,-180.98 1238.38,-187.98"/>
</g>
<!-- src/statements/generateAccessToken.ts -->
<g id="node15" class="node">
<title>src/statements/generateAccessToken.ts</title>
<path fill="none" stroke="#c6c5fe" d="M1467.33,-113.98C1467.33,-113.98 1226.67,-113.98 1226.67,-113.98 1222.83,-113.98 1219,-110.14 1219,-106.31 1219,-106.31 1219,-98.64 1219,-98.64 1219,-94.81 1222.83,-90.98 1226.67,-90.98 1226.67,-90.98 1467.33,-90.98 1467.33,-90.98 1471.17,-90.98 1475,-94.81 1475,-98.64 1475,-98.64 1475,-106.31 1475,-106.31 1475,-110.14 1471.17,-113.98 1467.33,-113.98"/>
<text text-anchor="middle" x="1347" y="-98.78" font-family="Arial" font-size="14.00" fill="#c6c5fe">src/statements/generateAccessToken.ts</text>
</g>
<!-- src/statements/index.ts&#45;&gt;src/statements/generateAccessToken.ts -->
<g id="edge26" class="edge">
<title>src/statements/index.ts&#45;&gt;src/statements/generateAccessToken.ts</title>
<path fill="none" stroke="#757575" d="M1020.12,-172.9C1066.01,-159.63 1144.53,-137.85 1213,-123.48 1226.35,-120.68 1240.52,-118.06 1254.44,-115.69"/>
<polygon fill="#757575" stroke="#757575" points="1255.24,-119.11 1264.53,-114.01 1254.09,-112.21 1255.24,-119.11"/>
</g>
<!-- src/statements/generateCredentialOffer.ts -->
<g id="node16" class="node">
<title>src/statements/generateCredentialOffer.ts</title>
<path fill="none" stroke="#c6c5fe" d="M1473.33,-318.98C1473.33,-318.98 1220.67,-318.98 1220.67,-318.98 1216.83,-318.98 1213,-315.14 1213,-311.31 1213,-311.31 1213,-303.64 1213,-303.64 1213,-299.81 1216.83,-295.98 1220.67,-295.98 1220.67,-295.98 1473.33,-295.98 1473.33,-295.98 1477.17,-295.98 1481,-299.81 1481,-303.64 1481,-303.64 1481,-311.31 1481,-311.31 1481,-315.14 1477.17,-318.98 1473.33,-318.98"/>
<text text-anchor="middle" x="1347" y="-303.78" font-family="Arial" font-size="14.00" fill="#c6c5fe">src/statements/generateCredentialOffer.ts</text>
</g>
<!-- src/statements/index.ts&#45;&gt;src/statements/generateCredentialOffer.ts -->
<g id="edge27" class="edge">
<title>src/statements/index.ts&#45;&gt;src/statements/generateCredentialOffer.ts</title>
<path fill="none" stroke="#757575" d="M1002.02,-196.13C1041.88,-217.71 1131.77,-263.81 1213,-287.48 1221.31,-289.9 1230,-292.04 1238.78,-293.93"/>
<polygon fill="#757575" stroke="#757575" points="1238.23,-297.38 1248.73,-295.95 1239.63,-290.53 1238.23,-297.38"/>
</g>
<!-- src/statements/generateIssuerGrants.ts -->
<g id="node17" class="node">
<title>src/statements/generateIssuerGrants.ts</title>
<path fill="none" stroke="#cfffac" d="M1466.33,-277.98C1466.33,-277.98 1227.67,-277.98 1227.67,-277.98 1223.83,-277.98 1220,-274.14 1220,-270.31 1220,-270.31 1220,-262.64 1220,-262.64 1220,-258.81 1223.83,-254.98 1227.67,-254.98 1227.67,-254.98 1466.33,-254.98 1466.33,-254.98 1470.17,-254.98 1474,-258.81 1474,-262.64 1474,-262.64 1474,-270.31 1474,-270.31 1474,-274.14 1470.17,-277.98 1466.33,-277.98"/>
<text text-anchor="middle" x="1347" y="-262.78" font-family="Arial" font-size="14.00" fill="#cfffac">src/statements/generateIssuerGrants.ts</text>
</g>
<!-- src/statements/index.ts&#45;&gt;src/statements/generateIssuerGrants.ts -->
<g id="edge28" class="edge">
<title>src/statements/index.ts&#45;&gt;src/statements/generateIssuerGrants.ts</title>
<path fill="none" stroke="#757575" d="M1018.87,-196C1064.54,-209.57 1143.82,-232.08 1213,-246.48 1224.91,-248.96 1237.47,-251.25 1249.93,-253.34"/>
<polygon fill="#757575" stroke="#757575" points="1249.46,-256.81 1259.89,-254.97 1250.59,-249.9 1249.46,-256.81"/>
</g>
<!-- src/statements/issuerClient.ts -->
<g id="node18" class="node">
<title>src/statements/issuerClient.ts</title>
<path fill="none" stroke="#c6c5fe" d="M1436.33,-154.98C1436.33,-154.98 1257.67,-154.98 1257.67,-154.98 1253.83,-154.98 1250,-151.14 1250,-147.31 1250,-147.31 1250,-139.64 1250,-139.64 1250,-135.81 1253.83,-131.98 1257.67,-131.98 1257.67,-131.98 1436.33,-131.98 1436.33,-131.98 1440.17,-131.98 1444,-135.81 1444,-139.64 1444,-139.64 1444,-147.31 1444,-147.31 1444,-151.14 1440.17,-154.98 1436.33,-154.98"/>
<text text-anchor="middle" x="1347" y="-139.78" font-family="Arial" font-size="14.00" fill="#c6c5fe">src/statements/issuerClient.ts</text>
</g>
<!-- src/statements/index.ts&#45;&gt;src/statements/issuerClient.ts -->
<g id="edge29" class="edge">
<title>src/statements/index.ts&#45;&gt;src/statements/issuerClient.ts</title>
<path fill="none" stroke="#757575" d="M1057.52,-175.88C1110.38,-169.95 1181.39,-161.97 1239.73,-155.41"/>
<polygon fill="#757575" stroke="#757575" points="1240.18,-158.89 1249.73,-154.29 1239.4,-151.93 1240.18,-158.89"/>
</g>
<!-- src/handlers/token.handler.ts&#45;&gt;src/config.ts -->
<g id="edge12" class="edge">
<title>src/handlers/token.handler.ts&#45;&gt;src/config.ts</title>
<path fill="none" stroke="#757575" d="M666.84,-172.94C692.7,-163.92 725.13,-149.06 747,-126.48 774.69,-97.89 750.82,-67.91 783,-44.48 823.74,-14.81 882.52,-12.67 925.07,-16.2"/>
<polygon fill="#757575" stroke="#757575" points="924.96,-19.7 935.25,-17.17 925.63,-12.73 924.96,-19.7"/>
</g>
<!-- src/handlers/token.handler.ts&#45;&gt;src/errors.ts -->
<g id="edge13" class="edge">
<title>src/handlers/token.handler.ts&#45;&gt;src/errors.ts</title>
<path fill="none" stroke="#757575" d="M630.12,-196.2C645.3,-232.91 697.67,-345.68 783,-387.48 922.39,-455.76 1333.2,-408.89 1481,-361.48 1505.88,-353.5 1531.2,-337.72 1548.79,-325.27"/>
<polygon fill="#757575" stroke="#757575" points="1551.22,-327.83 1557.24,-319.12 1547.1,-322.17 1551.22,-327.83"/>
</g>
<!-- src/handlers/token.handler.ts&#45;&gt;src/statements/index.ts -->
<g id="edge15" class="edge">
<title>src/handlers/token.handler.ts&#45;&gt;src/statements/index.ts</title>
<path fill="none" stroke="#757575" d="M719.3,-184.48C772.9,-184.48 839.66,-184.48 892.07,-184.48"/>
<polygon fill="#757575" stroke="#757575" points="892.35,-187.98 902.35,-184.48 892.35,-180.98 892.35,-187.98"/>
</g>
<!-- src/handlers/schemas/tokenHandlerConfig.schema.ts -->
<g id="node12" class="node">
<title>src/handlers/schemas/tokenHandlerConfig.schema.ts</title>
<path fill="none" stroke="#cfffac" d="M1141.33,-377.98C1141.33,-377.98 818.67,-377.98 818.67,-377.98 814.83,-377.98 811,-374.14 811,-370.31 811,-370.31 811,-362.64 811,-362.64 811,-358.81 814.83,-354.98 818.67,-354.98 818.67,-354.98 1141.33,-354.98 1141.33,-354.98 1145.17,-354.98 1149,-358.81 1149,-362.64 1149,-362.64 1149,-370.31 1149,-370.31 1149,-374.14 1145.17,-377.98 1141.33,-377.98"/>
<text text-anchor="middle" x="980" y="-362.78" font-family="Arial" font-size="14.00" fill="#cfffac">src/handlers/schemas/tokenHandlerConfig.schema.ts</text>
</g>
<!-- src/handlers/token.handler.ts&#45;&gt;src/handlers/schemas/tokenHandlerConfig.schema.ts -->
<g id="edge14" class="edge">
<title>src/handlers/token.handler.ts&#45;&gt;src/handlers/schemas/tokenHandlerConfig.schema.ts</title>
<path fill="none" stroke="#757575" d="M633.03,-196.01C653.21,-225.82 711.83,-305.55 783,-340.48 792.22,-345 801.97,-348.83 811.99,-352.05"/>
<polygon fill="#757575" stroke="#757575" points="811.09,-355.44 821.68,-354.96 813.11,-348.73 811.09,-355.44"/>
</g>
<!-- src/statements/checkClientCredentials.ts&#45;&gt;src/resources.ts -->
<g id="edge18" class="edge">
<title>src/statements/checkClientCredentials.ts&#45;&gt;src/resources.ts</title>
<path fill="none" stroke="#757575" d="M1454.41,-213.89C1463.54,-211.58 1472.52,-208.8 1481,-205.48 1507.46,-195.1 1533.88,-175.87 1551.38,-161.56"/>
<polygon fill="#757575" stroke="#757575" points="1553.8,-164.1 1559.22,-155 1549.3,-158.74 1553.8,-164.1"/>
</g>
<!-- src/statements/checkClientCredentials.ts&#45;&gt;src/errors.ts -->
<g id="edge17" class="edge">
<title>src/statements/checkClientCredentials.ts&#45;&gt;src/errors.ts</title>
<path fill="none" stroke="#757575" d="M1450.51,-237.02C1460.98,-239.57 1471.31,-242.68 1481,-246.48 1507.17,-256.74 1533.46,-275.49 1551,-289.5"/>
<polygon fill="#757575" stroke="#757575" points="1548.92,-292.32 1558.87,-295.94 1553.35,-286.9 1548.92,-292.32"/>
</g>
<!-- src/statements/checkScope.ts&#45;&gt;src/resources.ts -->
<g id="edge20" class="edge">
<title>src/statements/checkScope.ts&#45;&gt;src/resources.ts</title>
<path fill="none" stroke="#757575" d="M1431.53,-172.93C1447.97,-170.37 1465.06,-167.51 1481,-164.48 1492.09,-162.37 1503.87,-159.85 1515.16,-157.31"/>
<polygon fill="#757575" stroke="#757575" points="1515.95,-160.72 1524.92,-155.08 1514.39,-153.9 1515.95,-160.72"/>
</g>
<!-- src/statements/checkScope.ts&#45;&gt;src/errors.ts -->
<g id="edge19" class="edge">
<title>src/statements/checkScope.ts&#45;&gt;src/errors.ts</title>
<path fill="none" stroke="#757575" d="M1445.74,-191.96C1458.05,-195.17 1470.12,-199.54 1481,-205.48 1516.49,-224.84 1545.05,-263.61 1560.18,-287.38"/>
<polygon fill="#757575" stroke="#757575" points="1557.25,-289.3 1565.48,-295.97 1563.21,-285.62 1557.25,-289.3"/>
</g>
<!-- src/statements/generateAccessToken.ts&#45;&gt;src/resources.ts -->
<g id="edge21" class="edge">
<title>src/statements/generateAccessToken.ts&#45;&gt;src/resources.ts</title>
<path fill="none" stroke="#757575" d="M1426.2,-114.03C1444.23,-116.91 1463.31,-120.14 1481,-123.48 1491.12,-125.39 1501.83,-127.58 1512.22,-129.81"/>
<polygon fill="#757575" stroke="#757575" points="1511.53,-133.24 1522.05,-131.94 1513.01,-126.4 1511.53,-133.24"/>
</g>
<!-- src/statements/generateCredentialOffer.ts&#45;&gt;src/resources.ts -->
<g id="edge23" class="edge">
<title>src/statements/generateCredentialOffer.ts&#45;&gt;src/resources.ts</title>
<path fill="none" stroke="#757575" d="M1465.18,-295.95C1470.7,-293.54 1476.01,-290.73 1481,-287.48 1526.17,-258 1553.17,-197.43 1564.96,-165.04"/>
<polygon fill="#757575" stroke="#757575" points="1568.39,-165.81 1568.38,-155.22 1561.78,-163.51 1568.39,-165.81"/>
</g>
<!-- src/statements/generateCredentialOffer.ts&#45;&gt;src/errors.ts -->
<g id="edge22" class="edge">
<title>src/statements/generateCredentialOffer.ts&#45;&gt;src/errors.ts</title>
<path fill="none" stroke="#757575" d="M1481.21,-307.48C1494.3,-307.48 1507,-307.48 1518.53,-307.48"/>
<polygon fill="#757575" stroke="#757575" points="1518.78,-310.98 1528.78,-307.48 1518.78,-303.98 1518.78,-310.98"/>
</g>
<!-- src/statements/issuerClient.ts&#45;&gt;src/resources.ts -->
<g id="edge30" class="edge">
<title>src/statements/issuerClient.ts&#45;&gt;src/resources.ts</title>
<path fill="none" stroke="#757575" d="M1444.3,-143.48C1465.3,-143.48 1487.06,-143.48 1506.54,-143.48"/>
<polygon fill="#757575" stroke="#757575" points="1506.8,-146.98 1516.8,-143.48 1506.8,-139.98 1506.8,-146.98"/>
</g>
</g>
</svg>
