<?xml version="1.0" encoding="UTF-8" standalone="no"?>
<!DOCTYPE svg PUBLIC "-//W3C//DTD SVG 1.1//EN"
 "http://www.w3.org/Graphics/SVG/1.1/DTD/svg11.dtd">
<!-- Generated by graphviz version 2.43.0 (0)
 -->
<!-- Title: G Pages: 1 -->
<svg width="2881pt" height="1533pt"
 viewBox="0.00 0.00 2881.20 1533.41" xmlns="http://www.w3.org/2000/svg" xmlns:xlink="http://www.w3.org/1999/xlink">
<g id="graph0" class="graph" transform="scale(1 1) rotate(0) translate(21.6 1511.81)">
<title>G</title>
<polygon fill="#111111" stroke="transparent" points="-21.6,21.6 -21.6,-1511.81 2859.6,-1511.81 2859.6,21.6 -21.6,21.6"/>
<!-- app.ts -->
<g id="node1" class="node">
<title>app.ts</title>
<path fill="none" stroke="#c6c5fe" d="M321.83,-1229.98C321.83,-1229.98 283.17,-1229.98 283.17,-1229.98 279.33,-1229.98 275.5,-1226.15 275.5,-1222.31 275.5,-1222.31 275.5,-1214.65 275.5,-1214.65 275.5,-1210.81 279.33,-1206.98 283.17,-1206.98 283.17,-1206.98 321.83,-1206.98 321.83,-1206.98 325.67,-1206.98 329.5,-1210.81 329.5,-1214.65 329.5,-1214.65 329.5,-1222.31 329.5,-1222.31 329.5,-1226.15 325.67,-1229.98 321.83,-1229.98"/>
<text text-anchor="middle" x="302.5" y="-1214.78" font-family="Arial" font-size="14.00" fill="#c6c5fe">app.ts</text>
</g>
<!-- src/index.ts -->
<g id="node2" class="node">
<title>src/index.ts</title>
<path fill="none" stroke="#c6c5fe" d="M603.33,-1151.98C603.33,-1151.98 533.67,-1151.98 533.67,-1151.98 529.83,-1151.98 526,-1148.15 526,-1144.31 526,-1144.31 526,-1136.65 526,-1136.65 526,-1132.81 529.83,-1128.98 533.67,-1128.98 533.67,-1128.98 603.33,-1128.98 603.33,-1128.98 607.17,-1128.98 611,-1132.81 611,-1136.65 611,-1136.65 611,-1144.31 611,-1144.31 611,-1148.15 607.17,-1151.98 603.33,-1151.98"/>
<text text-anchor="middle" x="568.5" y="-1136.78" font-family="Arial" font-size="14.00" fill="#c6c5fe">src/index.ts</text>
</g>
<!-- app.ts&#45;&gt;src/index.ts -->
<g id="edge1" class="edge">
<title>app.ts&#45;&gt;src/index.ts</title>
<path fill="none" stroke="#757575" d="M329.75,-1215.45C366.41,-1210.7 434.68,-1199.97 490,-1180.48 507.22,-1174.41 525.41,-1165.19 539.84,-1157.12"/>
<polygon fill="#757575" stroke="#757575" points="541.79,-1160.04 548.73,-1152.04 538.31,-1153.97 541.79,-1160.04"/>
</g>
<!-- src/resources.ts -->
<g id="node5" class="node">
<title>src/resources.ts</title>
<path fill="none" stroke="#cfffac" d="M2830.33,-955.98C2830.33,-955.98 2733.67,-955.98 2733.67,-955.98 2729.83,-955.98 2726,-952.15 2726,-948.31 2726,-948.31 2726,-940.65 2726,-940.65 2726,-936.81 2729.83,-932.98 2733.67,-932.98 2733.67,-932.98 2830.33,-932.98 2830.33,-932.98 2834.17,-932.98 2838,-936.81 2838,-940.65 2838,-940.65 2838,-948.31 2838,-948.31 2838,-952.15 2834.17,-955.98 2830.33,-955.98"/>
<text text-anchor="middle" x="2782" y="-940.78" font-family="Arial" font-size="14.00" fill="#cfffac">src/resources.ts</text>
</g>
<!-- src/index.ts&#45;&gt;src/resources.ts -->
<g id="edge64" class="edge">
<title>src/index.ts&#45;&gt;src/resources.ts</title>
<path fill="none" stroke="#757575" d="M573.65,-1152.07C593.29,-1204.69 682.24,-1418.48 831,-1418.48 831,-1418.48 831,-1418.48 2163.5,-1418.48 2400.25,-1418.48 2516.44,-1498.51 2690,-1337.48 2745.55,-1285.94 2772.21,-1040.73 2779.13,-966.09"/>
<polygon fill="#757575" stroke="#757575" points="2782.63,-966.27 2780.04,-955.99 2775.65,-965.64 2782.63,-966.27"/>
</g>
<!-- src/config.ts -->
<g id="node8" class="node">
<title>src/config.ts</title>
<path fill="none" stroke="#c6c5fe" d="M1812.83,-1071.98C1812.83,-1071.98 1739.17,-1071.98 1739.17,-1071.98 1735.33,-1071.98 1731.5,-1068.15 1731.5,-1064.31 1731.5,-1064.31 1731.5,-1056.65 1731.5,-1056.65 1731.5,-1052.81 1735.33,-1048.98 1739.17,-1048.98 1739.17,-1048.98 1812.83,-1048.98 1812.83,-1048.98 1816.67,-1048.98 1820.5,-1052.81 1820.5,-1056.65 1820.5,-1056.65 1820.5,-1064.31 1820.5,-1064.31 1820.5,-1068.15 1816.67,-1071.98 1812.83,-1071.98"/>
<text text-anchor="middle" x="1776" y="-1056.78" font-family="Arial" font-size="14.00" fill="#c6c5fe">src/config.ts</text>
</g>
<!-- src/index.ts&#45;&gt;src/config.ts -->
<g id="edge61" class="edge">
<title>src/index.ts&#45;&gt;src/config.ts</title>
<path fill="none" stroke="#757575" d="M611.17,-1140.48C662.77,-1140.48 753.37,-1140.48 831,-1140.48 831,-1140.48 831,-1140.48 1033.5,-1140.48 1137.48,-1140.48 1406.94,-1164.81 1501,-1120.48 1522.64,-1110.28 1515.58,-1091.12 1537,-1080.48 1595.02,-1051.67 1670.87,-1050.57 1721.17,-1054.1"/>
<polygon fill="#757575" stroke="#757575" points="1720.95,-1057.59 1731.19,-1054.88 1721.5,-1050.61 1720.95,-1057.59"/>
</g>
<!-- src/core.ts -->
<g id="node10" class="node">
<title>src/core.ts</title>
<path fill="none" stroke="#c6c5fe" d="M718.33,-1073.98C718.33,-1073.98 654.67,-1073.98 654.67,-1073.98 650.83,-1073.98 647,-1070.15 647,-1066.31 647,-1066.31 647,-1058.65 647,-1058.65 647,-1054.81 650.83,-1050.98 654.67,-1050.98 654.67,-1050.98 718.33,-1050.98 718.33,-1050.98 722.17,-1050.98 726,-1054.81 726,-1058.65 726,-1058.65 726,-1066.31 726,-1066.31 726,-1070.15 722.17,-1073.98 718.33,-1073.98"/>
<text text-anchor="middle" x="686.5" y="-1058.78" font-family="Arial" font-size="14.00" fill="#c6c5fe">src/core.ts</text>
</g>
<!-- src/index.ts&#45;&gt;src/core.ts -->
<g id="edge62" class="edge">
<title>src/index.ts&#45;&gt;src/core.ts</title>
<path fill="none" stroke="#757575" d="M586.62,-1128.97C605.98,-1115.95 637.71,-1094.62 659.99,-1079.63"/>
<polygon fill="#757575" stroke="#757575" points="661.97,-1082.52 668.31,-1074.04 658.06,-1076.71 661.97,-1082.52"/>
</g>
<!-- src/handlers/index.ts -->
<g id="node11" class="node">
<title>src/handlers/index.ts</title>
<path fill="none" stroke="#c6c5fe" d="M894.33,-1111.98C894.33,-1111.98 769.67,-1111.98 769.67,-1111.98 765.83,-1111.98 762,-1108.15 762,-1104.31 762,-1104.31 762,-1096.65 762,-1096.65 762,-1092.81 765.83,-1088.98 769.67,-1088.98 769.67,-1088.98 894.33,-1088.98 894.33,-1088.98 898.17,-1088.98 902,-1092.81 902,-1096.65 902,-1096.65 902,-1104.31 902,-1104.31 902,-1108.15 898.17,-1111.98 894.33,-1111.98"/>
<text text-anchor="middle" x="832" y="-1096.78" font-family="Arial" font-size="14.00" fill="#c6c5fe">src/handlers/index.ts</text>
</g>
<!-- src/index.ts&#45;&gt;src/handlers/index.ts -->
<g id="edge63" class="edge">
<title>src/index.ts&#45;&gt;src/handlers/index.ts</title>
<path fill="none" stroke="#757575" d="M611.28,-1132.63C622.84,-1130.54 635.39,-1128.35 647,-1126.48 681.35,-1120.95 719.41,-1115.47 751.96,-1110.97"/>
<polygon fill="#757575" stroke="#757575" points="752.45,-1114.44 761.88,-1109.61 751.5,-1107.5 752.45,-1114.44"/>
</g>
<!-- main.config.ts -->
<g id="node3" class="node">
<title>main.config.ts</title>
<path fill="none" stroke="#c6c5fe" d="M345.33,-1188.98C345.33,-1188.98 259.67,-1188.98 259.67,-1188.98 255.83,-1188.98 252,-1185.15 252,-1181.31 252,-1181.31 252,-1173.65 252,-1173.65 252,-1169.81 255.83,-1165.98 259.67,-1165.98 259.67,-1165.98 345.33,-1165.98 345.33,-1165.98 349.17,-1165.98 353,-1169.81 353,-1173.65 353,-1173.65 353,-1181.31 353,-1181.31 353,-1185.15 349.17,-1188.98 345.33,-1188.98"/>
<text text-anchor="middle" x="302.5" y="-1173.78" font-family="Arial" font-size="14.00" fill="#c6c5fe">main.config.ts</text>
</g>
<!-- main.config.ts&#45;&gt;src/index.ts -->
<g id="edge3" class="edge">
<title>main.config.ts&#45;&gt;src/index.ts</title>
<path fill="none" stroke="#757575" d="M353.29,-1175.63C391.04,-1173.65 444.08,-1169.6 490,-1161.48 499.99,-1159.71 510.56,-1157.25 520.57,-1154.64"/>
<polygon fill="#757575" stroke="#757575" points="521.62,-1157.98 530.36,-1151.99 519.79,-1151.23 521.62,-1157.98"/>
</g>
<!-- main.logger.ts -->
<g id="node4" class="node">
<title>main.logger.ts</title>
<path fill="none" stroke="#c6c5fe" d="M482.33,-1151.98C482.33,-1151.98 396.67,-1151.98 396.67,-1151.98 392.83,-1151.98 389,-1148.15 389,-1144.31 389,-1144.31 389,-1136.65 389,-1136.65 389,-1132.81 392.83,-1128.98 396.67,-1128.98 396.67,-1128.98 482.33,-1128.98 482.33,-1128.98 486.17,-1128.98 490,-1132.81 490,-1136.65 490,-1136.65 490,-1144.31 490,-1144.31 490,-1148.15 486.17,-1151.98 482.33,-1151.98"/>
<text text-anchor="middle" x="439.5" y="-1136.78" font-family="Arial" font-size="14.00" fill="#c6c5fe">main.logger.ts</text>
</g>
<!-- main.config.ts&#45;&gt;main.logger.ts -->
<g id="edge2" class="edge">
<title>main.config.ts&#45;&gt;main.logger.ts</title>
<path fill="none" stroke="#757575" d="M345.47,-1165.98C358.43,-1162.43 372.86,-1158.47 386.41,-1154.76"/>
<polygon fill="#757575" stroke="#757575" points="387.37,-1158.12 396.09,-1152.1 385.52,-1151.37 387.37,-1158.12"/>
</g>
<!-- main.config.ts&#45;&gt;src/resources.ts -->
<g id="edge4" class="edge">
<title>main.config.ts&#45;&gt;src/resources.ts</title>
<path fill="none" stroke="#757575" d="M336.91,-1189.06C342.54,-1191.72 348.13,-1194.86 353,-1198.48 472.68,-1287.44 418.38,-1456.48 567.5,-1456.48 567.5,-1456.48 567.5,-1456.48 2163.5,-1456.48 2398.77,-1456.48 2516.13,-1559.98 2690,-1401.48 2755.59,-1341.69 2775.6,-1048.68 2779.97,-966.15"/>
<polygon fill="#757575" stroke="#757575" points="2783.47,-966.31 2780.48,-956.15 2776.48,-965.96 2783.47,-966.31"/>
</g>
<!-- main.logger.ts&#45;&gt;src/index.ts -->
<g id="edge7" class="edge">
<title>main.logger.ts&#45;&gt;src/index.ts</title>
<path fill="none" stroke="#757575" d="M490.33,-1140.48C498.63,-1140.48 507.26,-1140.48 515.61,-1140.48"/>
<polygon fill="#757575" stroke="#757575" points="515.61,-1143.98 525.61,-1140.48 515.61,-1136.98 515.61,-1143.98"/>
</g>
<!-- main.container.ts -->
<g id="node6" class="node">
<title>main.container.ts</title>
<path fill="none" stroke="#c6c5fe" d="M208.33,-1188.98C208.33,-1188.98 104.67,-1188.98 104.67,-1188.98 100.83,-1188.98 97,-1185.15 97,-1181.31 97,-1181.31 97,-1173.65 97,-1173.65 97,-1169.81 100.83,-1165.98 104.67,-1165.98 104.67,-1165.98 208.33,-1165.98 208.33,-1165.98 212.17,-1165.98 216,-1169.81 216,-1173.65 216,-1173.65 216,-1181.31 216,-1181.31 216,-1185.15 212.17,-1188.98 208.33,-1188.98"/>
<text text-anchor="middle" x="156.5" y="-1173.78" font-family="Arial" font-size="14.00" fill="#c6c5fe">main.container.ts</text>
</g>
<!-- main.container.ts&#45;&gt;src/index.ts -->
<g id="edge6" class="edge">
<title>main.container.ts&#45;&gt;src/index.ts</title>
<path fill="none" stroke="#757575" d="M187.63,-1165.96C245.84,-1145.1 377.9,-1104.56 490,-1119.48 500.79,-1120.92 512.2,-1123.43 522.85,-1126.23"/>
<polygon fill="#757575" stroke="#757575" points="522.22,-1129.68 532.79,-1128.97 524.09,-1122.94 522.22,-1129.68"/>
</g>
<!-- main.container.ts&#45;&gt;main.config.ts -->
<g id="edge5" class="edge">
<title>main.container.ts&#45;&gt;main.config.ts</title>
<path fill="none" stroke="#757575" d="M216.07,-1177.48C224.48,-1177.48 233.15,-1177.48 241.59,-1177.48"/>
<polygon fill="#757575" stroke="#757575" points="241.74,-1180.98 251.74,-1177.48 241.74,-1173.98 241.74,-1180.98"/>
</g>
<!-- main.ts -->
<g id="node7" class="node">
<title>main.ts</title>
<path fill="none" stroke="#c6c5fe" d="M53.33,-1208.98C53.33,-1208.98 7.67,-1208.98 7.67,-1208.98 3.83,-1208.98 0,-1205.15 0,-1201.31 0,-1201.31 0,-1193.65 0,-1193.65 0,-1189.81 3.83,-1185.98 7.67,-1185.98 7.67,-1185.98 53.33,-1185.98 53.33,-1185.98 57.17,-1185.98 61,-1189.81 61,-1193.65 61,-1193.65 61,-1201.31 61,-1201.31 61,-1205.15 57.17,-1208.98 53.33,-1208.98"/>
<text text-anchor="middle" x="30.5" y="-1193.78" font-family="Arial" font-size="14.00" fill="#c6c5fe">main.ts</text>
</g>
<!-- main.ts&#45;&gt;app.ts -->
<g id="edge8" class="edge">
<title>main.ts&#45;&gt;app.ts</title>
<path fill="none" stroke="#757575" d="M61.17,-1199.79C111,-1203.66 211.33,-1211.47 265.25,-1215.66"/>
<polygon fill="#757575" stroke="#757575" points="265.15,-1219.16 275.39,-1216.45 265.69,-1212.18 265.15,-1219.16"/>
</g>
<!-- main.ts&#45;&gt;main.container.ts -->
<g id="edge9" class="edge">
<title>main.ts&#45;&gt;main.container.ts</title>
<path fill="none" stroke="#757575" d="M61.2,-1192.69C69.01,-1191.43 77.77,-1190.02 86.71,-1188.57"/>
<polygon fill="#757575" stroke="#757575" points="87.54,-1191.99 96.86,-1186.94 86.43,-1185.08 87.54,-1191.99"/>
</g>
<!-- src/config.ts&#45;&gt;src/resources.ts -->
<g id="edge10" class="edge">
<title>src/config.ts&#45;&gt;src/resources.ts</title>
<path fill="none" stroke="#757575" d="M1820.52,-1050.8C1872.72,-1041.9 1960.05,-1036 2015,-1080.48 2057.95,-1115.24 2006.63,-1166.55 2051,-1199.48 2108.01,-1241.8 2631.97,-1240.39 2690,-1199.48 2767.69,-1144.72 2779.42,-1017.37 2780.93,-966.27"/>
<polygon fill="#757575" stroke="#757575" points="2784.43,-966.11 2781.11,-956.05 2777.43,-965.98 2784.43,-966.11"/>
</g>
<!-- src/constants.ts -->
<g id="node9" class="node">
<title>src/constants.ts</title>
<path fill="none" stroke="#cfffac" d="M2829.33,-690.98C2829.33,-690.98 2734.67,-690.98 2734.67,-690.98 2730.83,-690.98 2727,-687.15 2727,-683.31 2727,-683.31 2727,-675.65 2727,-675.65 2727,-671.81 2730.83,-667.98 2734.67,-667.98 2734.67,-667.98 2829.33,-667.98 2829.33,-667.98 2833.17,-667.98 2837,-671.81 2837,-675.65 2837,-675.65 2837,-683.31 2837,-683.31 2837,-687.15 2833.17,-690.98 2829.33,-690.98"/>
<text text-anchor="middle" x="2782" y="-675.78" font-family="Arial" font-size="14.00" fill="#cfffac">src/constants.ts</text>
</g>
<!-- src/core.ts&#45;&gt;src/config.ts -->
<g id="edge11" class="edge">
<title>src/core.ts&#45;&gt;src/config.ts</title>
<path fill="none" stroke="#757575" d="M726.2,-1062.41C890.52,-1062.11 1530.59,-1060.93 1721.17,-1060.58"/>
<polygon fill="#757575" stroke="#757575" points="1721.23,-1064.08 1731.23,-1060.56 1721.22,-1057.08 1721.23,-1064.08"/>
</g>
<!-- src/core.ts&#45;&gt;src/handlers/index.ts -->
<g id="edge12" class="edge">
<title>src/core.ts&#45;&gt;src/handlers/index.ts</title>
<path fill="none" stroke="#757575" d="M726.33,-1072.76C742.08,-1076.93 760.54,-1081.82 777.52,-1086.32"/>
<polygon fill="#757575" stroke="#757575" points="776.76,-1089.74 787.33,-1088.92 778.56,-1082.97 776.76,-1089.74"/>
</g>
<!-- src/handlers/authorize.handler.ts -->
<g id="node13" class="node">
<title>src/handlers/authorize.handler.ts</title>
<path fill="none" stroke="#c6c5fe" d="M1430.33,-808.98C1430.33,-808.98 1233.67,-808.98 1233.67,-808.98 1229.83,-808.98 1226,-805.15 1226,-801.31 1226,-801.31 1226,-793.65 1226,-793.65 1226,-789.81 1229.83,-785.98 1233.67,-785.98 1233.67,-785.98 1430.33,-785.98 1430.33,-785.98 1434.17,-785.98 1438,-789.81 1438,-793.65 1438,-793.65 1438,-801.31 1438,-801.31 1438,-805.15 1434.17,-808.98 1430.33,-808.98"/>
<text text-anchor="middle" x="1332" y="-793.78" font-family="Arial" font-size="14.00" fill="#c6c5fe">src/handlers/authorize.handler.ts</text>
</g>
<!-- src/handlers/index.ts&#45;&gt;src/handlers/authorize.handler.ts -->
<g id="edge28" class="edge">
<title>src/handlers/index.ts&#45;&gt;src/handlers/authorize.handler.ts</title>
<path fill="none" stroke="#757575" d="M835.91,-1088.86C844.95,-1055.29 875.67,-957.31 938,-906.48 1016.78,-842.24 1130.8,-815.77 1215.75,-804.91"/>
<polygon fill="#757575" stroke="#757575" points="1216.2,-808.38 1225.71,-803.69 1215.35,-801.44 1216.2,-808.38"/>
</g>
<!-- src/handlers/credential.handler.ts -->
<g id="node16" class="node">
<title>src/handlers/credential.handler.ts</title>
<path fill="none" stroke="#c6c5fe" d="M1431.83,-750.98C1431.83,-750.98 1232.17,-750.98 1232.17,-750.98 1228.33,-750.98 1224.5,-747.15 1224.5,-743.31 1224.5,-743.31 1224.5,-735.65 1224.5,-735.65 1224.5,-731.81 1228.33,-727.98 1232.17,-727.98 1232.17,-727.98 1431.83,-727.98 1431.83,-727.98 1435.67,-727.98 1439.5,-731.81 1439.5,-735.65 1439.5,-735.65 1439.5,-743.31 1439.5,-743.31 1439.5,-747.15 1435.67,-750.98 1431.83,-750.98"/>
<text text-anchor="middle" x="1332" y="-735.78" font-family="Arial" font-size="14.00" fill="#c6c5fe">src/handlers/credential.handler.ts</text>
</g>
<!-- src/handlers/index.ts&#45;&gt;src/handlers/credential.handler.ts -->
<g id="edge29" class="edge">
<title>src/handlers/index.ts&#45;&gt;src/handlers/credential.handler.ts</title>
<path fill="none" stroke="#757575" d="M833.49,-1088.82C835.98,-1045.4 850.85,-891.75 938,-817.48 1014.01,-752.71 1128.37,-736.06 1214.15,-733.92"/>
<polygon fill="#757575" stroke="#757575" points="1214.27,-737.42 1224.2,-733.73 1214.14,-730.42 1214.27,-737.42"/>
</g>
<!-- src/handlers/credentialOffer.handler.ts -->
<g id="node18" class="node">
<title>src/handlers/credentialOffer.handler.ts</title>
<path fill="none" stroke="#c6c5fe" d="M1446.83,-1111.98C1446.83,-1111.98 1217.17,-1111.98 1217.17,-1111.98 1213.33,-1111.98 1209.5,-1108.15 1209.5,-1104.31 1209.5,-1104.31 1209.5,-1096.65 1209.5,-1096.65 1209.5,-1092.81 1213.33,-1088.98 1217.17,-1088.98 1217.17,-1088.98 1446.83,-1088.98 1446.83,-1088.98 1450.67,-1088.98 1454.5,-1092.81 1454.5,-1096.65 1454.5,-1096.65 1454.5,-1104.31 1454.5,-1104.31 1454.5,-1108.15 1450.67,-1111.98 1446.83,-1111.98"/>
<text text-anchor="middle" x="1332" y="-1096.78" font-family="Arial" font-size="14.00" fill="#c6c5fe">src/handlers/credentialOffer.handler.ts</text>
</g>
<!-- src/handlers/index.ts&#45;&gt;src/handlers/credentialOffer.handler.ts -->
<g id="edge30" class="edge">
<title>src/handlers/index.ts&#45;&gt;src/handlers/credentialOffer.handler.ts</title>
<path fill="none" stroke="#757575" d="M902.24,-1100.48C978.78,-1100.48 1103.83,-1100.48 1199.18,-1100.48"/>
<polygon fill="#757575" stroke="#757575" points="1199.19,-1103.98 1209.19,-1100.48 1199.19,-1096.98 1199.19,-1103.98"/>
</g>
<!-- src/handlers/nonce.handler.ts -->
<g id="node20" class="node">
<title>src/handlers/nonce.handler.ts</title>
<path fill="none" stroke="#c6c5fe" d="M1420.83,-1191.98C1420.83,-1191.98 1243.17,-1191.98 1243.17,-1191.98 1239.33,-1191.98 1235.5,-1188.15 1235.5,-1184.31 1235.5,-1184.31 1235.5,-1176.65 1235.5,-1176.65 1235.5,-1172.81 1239.33,-1168.98 1243.17,-1168.98 1243.17,-1168.98 1420.83,-1168.98 1420.83,-1168.98 1424.67,-1168.98 1428.5,-1172.81 1428.5,-1176.65 1428.5,-1176.65 1428.5,-1184.31 1428.5,-1184.31 1428.5,-1188.15 1424.67,-1191.98 1420.83,-1191.98"/>
<text text-anchor="middle" x="1332" y="-1176.78" font-family="Arial" font-size="14.00" fill="#c6c5fe">src/handlers/nonce.handler.ts</text>
</g>
<!-- src/handlers/index.ts&#45;&gt;src/handlers/nonce.handler.ts -->
<g id="edge31" class="edge">
<title>src/handlers/index.ts&#45;&gt;src/handlers/nonce.handler.ts</title>
<path fill="none" stroke="#757575" d="M902.24,-1111.6C993.1,-1126.2 1152.34,-1151.78 1249.09,-1167.32"/>
<polygon fill="#757575" stroke="#757575" points="1248.69,-1170.8 1259.12,-1168.93 1249.8,-1163.89 1248.69,-1170.8"/>
</g>
<!-- src/handlers/oauthAuthorizationServer.handler.ts -->
<g id="node21" class="node">
<title>src/handlers/oauthAuthorizationServer.handler.ts</title>
<path fill="none" stroke="#c6c5fe" d="M1478.33,-1232.98C1478.33,-1232.98 1185.67,-1232.98 1185.67,-1232.98 1181.83,-1232.98 1178,-1229.15 1178,-1225.31 1178,-1225.31 1178,-1217.65 1178,-1217.65 1178,-1213.81 1181.83,-1209.98 1185.67,-1209.98 1185.67,-1209.98 1478.33,-1209.98 1478.33,-1209.98 1482.17,-1209.98 1486,-1213.81 1486,-1217.65 1486,-1217.65 1486,-1225.31 1486,-1225.31 1486,-1229.15 1482.17,-1232.98 1478.33,-1232.98"/>
<text text-anchor="middle" x="1332" y="-1217.78" font-family="Arial" font-size="14.00" fill="#c6c5fe">src/handlers/oauthAuthorizationServer.handler.ts</text>
</g>
<!-- src/handlers/index.ts&#45;&gt;src/handlers/oauthAuthorizationServer.handler.ts -->
<g id="edge32" class="edge">
<title>src/handlers/index.ts&#45;&gt;src/handlers/oauthAuthorizationServer.handler.ts</title>
<path fill="none" stroke="#757575" d="M855.45,-1112C876.38,-1122.38 908.7,-1137.5 938,-1147.48 1035.35,-1180.63 1061.77,-1183.37 1163,-1201.48 1177.71,-1204.11 1193.2,-1206.49 1208.59,-1208.6"/>
<polygon fill="#757575" stroke="#757575" points="1208.3,-1212.09 1218.67,-1209.96 1209.23,-1205.16 1208.3,-1212.09"/>
</g>
<!-- src/handlers/openidCredentialIssuer.handler.ts -->
<g id="node22" class="node">
<title>src/handlers/openidCredentialIssuer.handler.ts</title>
<path fill="none" stroke="#c6c5fe" d="M1471.33,-1329.98C1471.33,-1329.98 1192.67,-1329.98 1192.67,-1329.98 1188.83,-1329.98 1185,-1326.15 1185,-1322.31 1185,-1322.31 1185,-1314.65 1185,-1314.65 1185,-1310.81 1188.83,-1306.98 1192.67,-1306.98 1192.67,-1306.98 1471.33,-1306.98 1471.33,-1306.98 1475.17,-1306.98 1479,-1310.81 1479,-1314.65 1479,-1314.65 1479,-1322.31 1479,-1322.31 1479,-1326.15 1475.17,-1329.98 1471.33,-1329.98"/>
<text text-anchor="middle" x="1332" y="-1314.78" font-family="Arial" font-size="14.00" fill="#c6c5fe">src/handlers/openidCredentialIssuer.handler.ts</text>
</g>
<!-- src/handlers/index.ts&#45;&gt;src/handlers/openidCredentialIssuer.handler.ts -->
<g id="edge33" class="edge">
<title>src/handlers/index.ts&#45;&gt;src/handlers/openidCredentialIssuer.handler.ts</title>
<path fill="none" stroke="#757575" d="M844.61,-1112.06C862.98,-1129.84 900.54,-1163.94 938,-1184.48 1047.86,-1244.73 1189.71,-1284.94 1269.46,-1304.55"/>
<polygon fill="#757575" stroke="#757575" points="1268.8,-1307.99 1279.35,-1306.95 1270.46,-1301.19 1268.8,-1307.99"/>
</g>
<!-- src/handlers/pushedAuthorizationRequest.handler.ts -->
<g id="node23" class="node">
<title>src/handlers/pushedAuthorizationRequest.handler.ts</title>
<path fill="none" stroke="#c6c5fe" d="M1488.83,-993.98C1488.83,-993.98 1175.17,-993.98 1175.17,-993.98 1171.33,-993.98 1167.5,-990.15 1167.5,-986.31 1167.5,-986.31 1167.5,-978.65 1167.5,-978.65 1167.5,-974.81 1171.33,-970.98 1175.17,-970.98 1175.17,-970.98 1488.83,-970.98 1488.83,-970.98 1492.67,-970.98 1496.5,-974.81 1496.5,-978.65 1496.5,-978.65 1496.5,-986.31 1496.5,-986.31 1496.5,-990.15 1492.67,-993.98 1488.83,-993.98"/>
<text text-anchor="middle" x="1332" y="-978.78" font-family="Arial" font-size="14.00" fill="#c6c5fe">src/handlers/pushedAuthorizationRequest.handler.ts</text>
</g>
<!-- src/handlers/index.ts&#45;&gt;src/handlers/pushedAuthorizationRequest.handler.ts -->
<g id="edge34" class="edge">
<title>src/handlers/index.ts&#45;&gt;src/handlers/pushedAuthorizationRequest.handler.ts</title>
<path fill="none" stroke="#757575" d="M881.66,-1088.95C973.7,-1067.14 1172.97,-1019.93 1272.28,-996.39"/>
<polygon fill="#757575" stroke="#757575" points="1273.22,-999.77 1282.15,-994.06 1271.61,-992.96 1273.22,-999.77"/>
</g>
<!-- src/handlers/token.handler.ts -->
<g id="node24" class="node">
<title>src/handlers/token.handler.ts</title>
<path fill="none" stroke="#c6c5fe" d="M1119.33,-938.98C1119.33,-938.98 945.67,-938.98 945.67,-938.98 941.83,-938.98 938,-935.15 938,-931.31 938,-931.31 938,-923.65 938,-923.65 938,-919.81 941.83,-915.98 945.67,-915.98 945.67,-915.98 1119.33,-915.98 1119.33,-915.98 1123.17,-915.98 1127,-919.81 1127,-923.65 1127,-923.65 1127,-931.31 1127,-931.31 1127,-935.15 1123.17,-938.98 1119.33,-938.98"/>
<text text-anchor="middle" x="1032.5" y="-923.78" font-family="Arial" font-size="14.00" fill="#c6c5fe">src/handlers/token.handler.ts</text>
</g>
<!-- src/handlers/index.ts&#45;&gt;src/handlers/token.handler.ts -->
<g id="edge35" class="edge">
<title>src/handlers/index.ts&#45;&gt;src/handlers/token.handler.ts</title>
<path fill="none" stroke="#757575" d="M842.33,-1088.81C859.74,-1067.44 898.99,-1021.19 938,-988.48 958.04,-971.68 982.92,-955.64 1001.98,-944.23"/>
<polygon fill="#757575" stroke="#757575" points="1003.99,-947.11 1010.83,-939.02 1000.43,-941.08 1003.99,-947.11"/>
</g>
<!-- src/errors.ts -->
<g id="node12" class="node">
<title>src/errors.ts</title>
<path fill="none" stroke="#cfffac" d="M2818.33,-425.98C2818.33,-425.98 2745.67,-425.98 2745.67,-425.98 2741.83,-425.98 2738,-422.15 2738,-418.31 2738,-418.31 2738,-410.65 2738,-410.65 2738,-406.81 2741.83,-402.98 2745.67,-402.98 2745.67,-402.98 2818.33,-402.98 2818.33,-402.98 2822.17,-402.98 2826,-406.81 2826,-410.65 2826,-410.65 2826,-418.31 2826,-418.31 2826,-422.15 2822.17,-425.98 2818.33,-425.98"/>
<text text-anchor="middle" x="2782" y="-410.78" font-family="Arial" font-size="14.00" fill="#cfffac">src/errors.ts</text>
</g>
<!-- src/handlers/authorize.handler.ts&#45;&gt;src/resources.ts -->
<g id="edge16" class="edge">
<title>src/handlers/authorize.handler.ts&#45;&gt;src/resources.ts</title>
<path fill="none" stroke="#757575" d="M1438.38,-802.35C1668.52,-813.64 2201.36,-843.53 2274,-881.48 2296.09,-893.02 2287.65,-913.46 2310,-924.48 2379.4,-958.7 2603.26,-953.28 2715.53,-948.11"/>
<polygon fill="#757575" stroke="#757575" points="2715.88,-951.6 2725.71,-947.63 2715.55,-944.6 2715.88,-951.6"/>
</g>
<!-- src/handlers/authorize.handler.ts&#45;&gt;src/config.ts -->
<g id="edge13" class="edge">
<title>src/handlers/authorize.handler.ts&#45;&gt;src/config.ts</title>
<path fill="none" stroke="#757575" d="M1438.28,-804.04C1461.7,-810.28 1484.45,-820.87 1501,-838.48 1563.15,-904.62 1470.03,-978.23 1537,-1039.48 1586.32,-1084.58 1667.83,-1081.23 1721.48,-1072.55"/>
<polygon fill="#757575" stroke="#757575" points="1722.23,-1075.97 1731.49,-1070.82 1721.03,-1069.08 1722.23,-1075.97"/>
</g>
<!-- src/handlers/authorize.handler.ts&#45;&gt;src/errors.ts -->
<g id="edge14" class="edge">
<title>src/handlers/authorize.handler.ts&#45;&gt;src/errors.ts</title>
<path fill="none" stroke="#757575" d="M1438.3,-794.55C1462.15,-788.76 1485.1,-778.15 1501,-759.48 1584.15,-661.84 1444.91,-272.74 1537,-183.48 1566.89,-154.51 2665.26,-150.23 2690,-167.48 2765.47,-220.1 2778.52,-342.71 2780.65,-392.69"/>
<polygon fill="#757575" stroke="#757575" points="2777.16,-393.09 2780.97,-402.98 2784.16,-392.87 2777.16,-393.09"/>
</g>
<!-- src/handlers/schemas/authorizeHandlerConfig.schema.ts -->
<g id="node14" class="node">
<title>src/handlers/schemas/authorizeHandlerConfig.schema.ts</title>
<path fill="none" stroke="#cfffac" d="M1948.33,-215.98C1948.33,-215.98 1603.67,-215.98 1603.67,-215.98 1599.83,-215.98 1596,-212.15 1596,-208.31 1596,-208.31 1596,-200.65 1596,-200.65 1596,-196.81 1599.83,-192.98 1603.67,-192.98 1603.67,-192.98 1948.33,-192.98 1948.33,-192.98 1952.17,-192.98 1956,-196.81 1956,-200.65 1956,-200.65 1956,-208.31 1956,-208.31 1956,-212.15 1952.17,-215.98 1948.33,-215.98"/>
<text text-anchor="middle" x="1776" y="-200.78" font-family="Arial" font-size="14.00" fill="#cfffac">src/handlers/schemas/authorizeHandlerConfig.schema.ts</text>
</g>
<!-- src/handlers/authorize.handler.ts&#45;&gt;src/handlers/schemas/authorizeHandlerConfig.schema.ts -->
<g id="edge15" class="edge">
<title>src/handlers/authorize.handler.ts&#45;&gt;src/handlers/schemas/authorizeHandlerConfig.schema.ts</title>
<path fill="none" stroke="#757575" d="M1438.23,-794.49C1462.08,-788.7 1485.05,-778.11 1501,-759.48 1577.64,-669.98 1455.4,-315.48 1537,-230.48 1581.15,-184.49 1657.82,-184.27 1712.2,-191.49"/>
<polygon fill="#757575" stroke="#757575" points="1712.02,-195 1722.42,-192.97 1713.02,-188.07 1712.02,-195"/>
</g>
<!-- src/statements/index.ts -->
<g id="node15" class="node">
<title>src/statements/index.ts</title>
<path fill="none" stroke="#c6c5fe" d="M1845.83,-912.98C1845.83,-912.98 1706.17,-912.98 1706.17,-912.98 1702.33,-912.98 1698.5,-909.15 1698.5,-905.31 1698.5,-905.31 1698.5,-897.65 1698.5,-897.65 1698.5,-893.81 1702.33,-889.98 1706.17,-889.98 1706.17,-889.98 1845.83,-889.98 1845.83,-889.98 1849.67,-889.98 1853.5,-893.81 1853.5,-897.65 1853.5,-897.65 1853.5,-905.31 1853.5,-905.31 1853.5,-909.15 1849.67,-912.98 1845.83,-912.98"/>
<text text-anchor="middle" x="1776" y="-897.78" font-family="Arial" font-size="14.00" fill="#c6c5fe">src/statements/index.ts</text>
</g>
<!-- src/handlers/authorize.handler.ts&#45;&gt;src/statements/index.ts -->
<g id="edge17" class="edge">
<title>src/handlers/authorize.handler.ts&#45;&gt;src/statements/index.ts</title>
<path fill="none" stroke="#757575" d="M1381.99,-809.01C1463.8,-828.26 1627.9,-866.87 1715.96,-887.59"/>
<polygon fill="#757575" stroke="#757575" points="1715.25,-891.02 1725.79,-889.9 1716.86,-884.2 1715.25,-891.02"/>
</g>
<!-- src/statements/grants/index.ts -->
<g id="node33" class="node">
<title>src/statements/grants/index.ts</title>
<path fill="none" stroke="#c6c5fe" d="M2253.33,-1118.98C2253.33,-1118.98 2071.67,-1118.98 2071.67,-1118.98 2067.83,-1118.98 2064,-1115.15 2064,-1111.31 2064,-1111.31 2064,-1103.65 2064,-1103.65 2064,-1099.81 2067.83,-1095.98 2071.67,-1095.98 2071.67,-1095.98 2253.33,-1095.98 2253.33,-1095.98 2257.17,-1095.98 2261,-1099.81 2261,-1103.65 2261,-1103.65 2261,-1111.31 2261,-1111.31 2261,-1115.15 2257.17,-1118.98 2253.33,-1118.98"/>
<text text-anchor="middle" x="2162.5" y="-1103.78" font-family="Arial" font-size="14.00" fill="#c6c5fe">src/statements/grants/index.ts</text>
</g>
<!-- src/statements/index.ts&#45;&gt;src/statements/grants/index.ts -->
<g id="edge67" class="edge">
<title>src/statements/index.ts&#45;&gt;src/statements/grants/index.ts</title>
<path fill="none" stroke="#757575" d="M1853.56,-890.42C1904.43,-887.36 1969.9,-892.2 2015,-927.48 2051.55,-956.07 2023.21,-988.32 2051,-1025.48 2072.06,-1053.64 2105.44,-1076.53 2130,-1090.89"/>
<polygon fill="#757575" stroke="#757575" points="2128.51,-1094.08 2138.94,-1095.98 2131.98,-1087.99 2128.51,-1094.08"/>
</g>
<!-- src/statements/locations/index.ts -->
<g id="node34" class="node">
<title>src/statements/locations/index.ts</title>
<path fill="none" stroke="#c6c5fe" d="M2260.83,-833.98C2260.83,-833.98 2064.17,-833.98 2064.17,-833.98 2060.33,-833.98 2056.5,-830.15 2056.5,-826.31 2056.5,-826.31 2056.5,-818.65 2056.5,-818.65 2056.5,-814.81 2060.33,-810.98 2064.17,-810.98 2064.17,-810.98 2260.83,-810.98 2260.83,-810.98 2264.67,-810.98 2268.5,-814.81 2268.5,-818.65 2268.5,-818.65 2268.5,-826.31 2268.5,-826.31 2268.5,-830.15 2264.67,-833.98 2260.83,-833.98"/>
<text text-anchor="middle" x="2162.5" y="-818.78" font-family="Arial" font-size="14.00" fill="#c6c5fe">src/statements/locations/index.ts</text>
</g>
<!-- src/statements/index.ts&#45;&gt;src/statements/locations/index.ts -->
<g id="edge68" class="edge">
<title>src/statements/index.ts&#45;&gt;src/statements/locations/index.ts</title>
<path fill="none" stroke="#757575" d="M1853.62,-893.09C1900.52,-887.25 1961.59,-878.36 2015,-866.48 2050.25,-858.64 2089.38,-846.72 2118.33,-837.26"/>
<polygon fill="#757575" stroke="#757575" points="2119.72,-840.48 2128.12,-834.03 2117.53,-833.84 2119.72,-840.48"/>
</g>
<!-- src/statements/resources/index.ts -->
<g id="node35" class="node">
<title>src/statements/resources/index.ts</title>
<path fill="none" stroke="#c6c5fe" d="M2263.83,-1016.98C2263.83,-1016.98 2061.17,-1016.98 2061.17,-1016.98 2057.33,-1016.98 2053.5,-1013.15 2053.5,-1009.31 2053.5,-1009.31 2053.5,-1001.65 2053.5,-1001.65 2053.5,-997.81 2057.33,-993.98 2061.17,-993.98 2061.17,-993.98 2263.83,-993.98 2263.83,-993.98 2267.67,-993.98 2271.5,-997.81 2271.5,-1001.65 2271.5,-1001.65 2271.5,-1009.31 2271.5,-1009.31 2271.5,-1013.15 2267.67,-1016.98 2263.83,-1016.98"/>
<text text-anchor="middle" x="2162.5" y="-1001.78" font-family="Arial" font-size="14.00" fill="#c6c5fe">src/statements/resources/index.ts</text>
</g>
<!-- src/statements/index.ts&#45;&gt;src/statements/resources/index.ts -->
<g id="edge69" class="edge">
<title>src/statements/index.ts&#45;&gt;src/statements/resources/index.ts</title>
<path fill="none" stroke="#757575" d="M1853.52,-902.49C1900.93,-904.91 1962.57,-911.32 2015,-927.48 2060.47,-941.5 2108.23,-969.88 2136.41,-988.27"/>
<polygon fill="#757575" stroke="#757575" points="2134.58,-991.25 2144.85,-993.86 2138.45,-985.42 2134.58,-991.25"/>
</g>
<!-- src/statements/tokens/index.ts -->
<g id="node36" class="node">
<title>src/statements/tokens/index.ts</title>
<path fill="none" stroke="#c6c5fe" d="M2254.33,-913.98C2254.33,-913.98 2070.67,-913.98 2070.67,-913.98 2066.83,-913.98 2063,-910.15 2063,-906.31 2063,-906.31 2063,-898.65 2063,-898.65 2063,-894.81 2066.83,-890.98 2070.67,-890.98 2070.67,-890.98 2254.33,-890.98 2254.33,-890.98 2258.17,-890.98 2262,-894.81 2262,-898.65 2262,-898.65 2262,-906.31 2262,-906.31 2262,-910.15 2258.17,-913.98 2254.33,-913.98"/>
<text text-anchor="middle" x="2162.5" y="-898.78" font-family="Arial" font-size="14.00" fill="#c6c5fe">src/statements/tokens/index.ts</text>
</g>
<!-- src/statements/index.ts&#45;&gt;src/statements/tokens/index.ts -->
<g id="edge70" class="edge">
<title>src/statements/index.ts&#45;&gt;src/statements/tokens/index.ts</title>
<path fill="none" stroke="#757575" d="M1853.89,-901.68C1910.88,-901.83 1989.35,-902.03 2052.77,-902.2"/>
<polygon fill="#757575" stroke="#757575" points="2052.8,-905.7 2062.81,-902.22 2052.82,-898.7 2052.8,-905.7"/>
</g>
<!-- src/statements/validations/index.ts -->
<g id="node37" class="node">
<title>src/statements/validations/index.ts</title>
<path fill="none" stroke="#c6c5fe" d="M2266.33,-548.98C2266.33,-548.98 2058.67,-548.98 2058.67,-548.98 2054.83,-548.98 2051,-545.15 2051,-541.31 2051,-541.31 2051,-533.65 2051,-533.65 2051,-529.81 2054.83,-525.98 2058.67,-525.98 2058.67,-525.98 2266.33,-525.98 2266.33,-525.98 2270.17,-525.98 2274,-529.81 2274,-533.65 2274,-533.65 2274,-541.31 2274,-541.31 2274,-545.15 2270.17,-548.98 2266.33,-548.98"/>
<text text-anchor="middle" x="2162.5" y="-533.78" font-family="Arial" font-size="14.00" fill="#c6c5fe">src/statements/validations/index.ts</text>
</g>
<!-- src/statements/index.ts&#45;&gt;src/statements/validations/index.ts -->
<g id="edge71" class="edge">
<title>src/statements/index.ts&#45;&gt;src/statements/validations/index.ts</title>
<path fill="none" stroke="#757575" d="M1853.64,-908.24C1904.22,-908.68 1969.33,-901.12 2015,-866.48 2028.44,-856.28 2123.4,-629.32 2152.82,-558.43"/>
<polygon fill="#757575" stroke="#757575" points="2156.08,-559.73 2156.67,-549.15 2149.61,-557.05 2156.08,-559.73"/>
</g>
<!-- src/handlers/credential.handler.ts&#45;&gt;src/resources.ts -->
<g id="edge21" class="edge">
<title>src/handlers/credential.handler.ts&#45;&gt;src/resources.ts</title>
<path fill="none" stroke="#757575" d="M1439.57,-731.01C1741.51,-707.98 2587.53,-650.39 2690,-719.48 2759.39,-766.27 2775.89,-875.9 2779.79,-922.69"/>
<polygon fill="#757575" stroke="#757575" points="2776.32,-923.19 2780.53,-932.91 2783.3,-922.69 2776.32,-923.19"/>
</g>
<!-- src/handlers/credential.handler.ts&#45;&gt;src/config.ts -->
<g id="edge18" class="edge">
<title>src/handlers/credential.handler.ts&#45;&gt;src/config.ts</title>
<path fill="none" stroke="#757575" d="M1439.5,-743.1C1462.6,-748.85 1484.9,-759.03 1501,-776.48 1580.99,-863.2 1451.6,-958.08 1537,-1039.48 1585.38,-1085.59 1667.13,-1081.98 1721.09,-1072.97"/>
<polygon fill="#757575" stroke="#757575" points="1721.93,-1076.37 1731.16,-1071.17 1720.7,-1069.48 1721.93,-1076.37"/>
</g>
<!-- src/handlers/credential.handler.ts&#45;&gt;src/errors.ts -->
<g id="edge19" class="edge">
<title>src/handlers/credential.handler.ts&#45;&gt;src/errors.ts</title>
<path fill="none" stroke="#757575" d="M1334.83,-727.97C1347.72,-648.61 1427.39,-183.43 1537,-103.48 1634.15,-32.62 2614.64,-72.18 2690,-129.48 2774.73,-193.9 2782.12,-337.81 2781.7,-392.67"/>
<polygon fill="#757575" stroke="#757575" points="2778.19,-392.9 2781.51,-402.96 2785.19,-393.02 2778.19,-392.9"/>
</g>
<!-- src/handlers/credential.handler.ts&#45;&gt;src/statements/index.ts -->
<g id="edge22" class="edge">
<title>src/handlers/credential.handler.ts&#45;&gt;src/statements/index.ts</title>
<path fill="none" stroke="#757575" d="M1400.92,-751.05C1431.86,-757.18 1468.71,-765.69 1501,-776.48 1592.78,-807.14 1695.06,-858.8 1744.69,-885.07"/>
<polygon fill="#757575" stroke="#757575" points="1743.14,-888.21 1753.61,-889.82 1746.43,-882.03 1743.14,-888.21"/>
</g>
<!-- src/handlers/schemas/credentialHandlerConfig.schema.ts -->
<g id="node17" class="node">
<title>src/handlers/schemas/credentialHandlerConfig.schema.ts</title>
<path fill="none" stroke="#cfffac" d="M1949.83,-135.98C1949.83,-135.98 1602.17,-135.98 1602.17,-135.98 1598.33,-135.98 1594.5,-132.15 1594.5,-128.31 1594.5,-128.31 1594.5,-120.65 1594.5,-120.65 1594.5,-116.81 1598.33,-112.98 1602.17,-112.98 1602.17,-112.98 1949.83,-112.98 1949.83,-112.98 1953.67,-112.98 1957.5,-116.81 1957.5,-120.65 1957.5,-120.65 1957.5,-128.31 1957.5,-128.31 1957.5,-132.15 1953.67,-135.98 1949.83,-135.98"/>
<text text-anchor="middle" x="1776" y="-120.78" font-family="Arial" font-size="14.00" fill="#cfffac">src/handlers/schemas/credentialHandlerConfig.schema.ts</text>
</g>
<!-- src/handlers/credential.handler.ts&#45;&gt;src/handlers/schemas/credentialHandlerConfig.schema.ts -->
<g id="edge20" class="edge">
<title>src/handlers/credential.handler.ts&#45;&gt;src/handlers/schemas/credentialHandlerConfig.schema.ts</title>
<path fill="none" stroke="#757575" d="M1332.86,-727.74C1332.76,-658.96 1341.96,-305.98 1537,-150.48 1577.96,-117.82 1636.28,-111.02 1684.93,-112.53"/>
<polygon fill="#757575" stroke="#757575" points="1685.02,-116.03 1695.16,-112.97 1685.32,-109.04 1685.02,-116.03"/>
</g>
<!-- src/handlers/credentialOffer.handler.ts&#45;&gt;src/resources.ts -->
<g id="edge26" class="edge">
<title>src/handlers/credentialOffer.handler.ts&#45;&gt;src/resources.ts</title>
<path fill="none" stroke="#757575" d="M1424.1,-1111.99C1597.1,-1134.18 1960.83,-1182.54 2015,-1203.48 2032.94,-1210.41 2032.61,-1221.87 2051,-1227.48 2161.11,-1261.05 2194.89,-1228.26 2310,-1228.48 2478.89,-1228.81 2553.57,-1328.03 2690,-1228.48 2775.89,-1165.81 2782.54,-1020.94 2781.81,-966.07"/>
<polygon fill="#757575" stroke="#757575" points="2785.31,-965.98 2781.58,-956.07 2778.31,-966.15 2785.31,-965.98"/>
</g>
<!-- src/handlers/credentialOffer.handler.ts&#45;&gt;src/config.ts -->
<g id="edge23" class="edge">
<title>src/handlers/credentialOffer.handler.ts&#45;&gt;src/config.ts</title>
<path fill="none" stroke="#757575" d="M1447.61,-1088.96C1476.76,-1086.11 1508.03,-1083.12 1537,-1080.48 1600.09,-1074.74 1672.65,-1068.72 1720.9,-1064.81"/>
<polygon fill="#757575" stroke="#757575" points="1721.43,-1068.28 1731.12,-1063.98 1720.87,-1061.3 1721.43,-1068.28"/>
</g>
<!-- src/handlers/credentialOffer.handler.ts&#45;&gt;src/errors.ts -->
<g id="edge24" class="edge">
<title>src/handlers/credentialOffer.handler.ts&#45;&gt;src/errors.ts</title>
<path fill="none" stroke="#757575" d="M1368.22,-1088.89C1406.41,-1074.53 1466.52,-1046.46 1501,-1002.48 1535.88,-957.99 1496.1,-919.51 1537,-880.48 1695.24,-729.49 1869.95,-927.18 2015,-763.48 2104.06,-662.97 1974,-573.5 2051,-463.48 2114.71,-372.45 2181.67,-412.29 2274,-350.48 2291.55,-338.73 2290.21,-326.83 2310,-319.48 2389.17,-290.09 2612.34,-286.33 2690,-319.48 2725.45,-334.61 2753.7,-371.07 2768.85,-394.17"/>
<polygon fill="#757575" stroke="#757575" points="2766.04,-396.28 2774.34,-402.86 2771.96,-392.54 2766.04,-396.28"/>
</g>
<!-- src/handlers/credentialOffer.handler.ts&#45;&gt;src/statements/index.ts -->
<g id="edge27" class="edge">
<title>src/handlers/credentialOffer.handler.ts&#45;&gt;src/statements/index.ts</title>
<path fill="none" stroke="#757575" d="M1354.77,-1088.9C1391.79,-1069.38 1469.55,-1029.03 1537,-998.48 1605.68,-967.37 1687.39,-935.07 1735,-916.7"/>
<polygon fill="#757575" stroke="#757575" points="1736.55,-919.85 1744.63,-913 1734.04,-913.32 1736.55,-919.85"/>
</g>
<!-- src/handlers/schemas/credentialOfferHandlerConfig.schema.ts -->
<g id="node19" class="node">
<title>src/handlers/schemas/credentialOfferHandlerConfig.schema.ts</title>
<path fill="none" stroke="#cfffac" d="M1965.33,-1112.98C1965.33,-1112.98 1586.67,-1112.98 1586.67,-1112.98 1582.83,-1112.98 1579,-1109.15 1579,-1105.31 1579,-1105.31 1579,-1097.65 1579,-1097.65 1579,-1093.81 1582.83,-1089.98 1586.67,-1089.98 1586.67,-1089.98 1965.33,-1089.98 1965.33,-1089.98 1969.17,-1089.98 1973,-1093.81 1973,-1097.65 1973,-1097.65 1973,-1105.31 1973,-1105.31 1973,-1109.15 1969.17,-1112.98 1965.33,-1112.98"/>
<text text-anchor="middle" x="1776" y="-1097.78" font-family="Arial" font-size="14.00" fill="#cfffac">src/handlers/schemas/credentialOfferHandlerConfig.schema.ts</text>
</g>
<!-- src/handlers/credentialOffer.handler.ts&#45;&gt;src/handlers/schemas/credentialOfferHandlerConfig.schema.ts -->
<g id="edge25" class="edge">
<title>src/handlers/credentialOffer.handler.ts&#45;&gt;src/handlers/schemas/credentialOfferHandlerConfig.schema.ts</title>
<path fill="none" stroke="#757575" d="M1454.66,-1100.76C1489.96,-1100.84 1529.54,-1100.92 1568.51,-1101.01"/>
<polygon fill="#757575" stroke="#757575" points="1568.93,-1104.51 1578.94,-1101.04 1568.95,-1097.51 1568.93,-1104.51"/>
</g>
<!-- src/handlers/nonce.handler.ts&#45;&gt;src/resources.ts -->
<g id="edge39" class="edge">
<title>src/handlers/nonce.handler.ts&#45;&gt;src/resources.ts</title>
<path fill="none" stroke="#757575" d="M1428.76,-1182.07C1561.51,-1185.72 1808.48,-1197.77 2015,-1237.48 2031.43,-1240.64 2034.54,-1245.5 2051,-1248.48 2164.49,-1269.03 2194.72,-1260.92 2310,-1264.48 2478.81,-1269.69 2555.23,-1366.27 2690,-1264.48 2738.91,-1227.54 2769.26,-1031.93 2778.22,-966.11"/>
<polygon fill="#757575" stroke="#757575" points="2781.71,-966.42 2779.56,-956.05 2774.77,-965.5 2781.71,-966.42"/>
</g>
<!-- src/handlers/nonce.handler.ts&#45;&gt;src/config.ts -->
<g id="edge36" class="edge">
<title>src/handlers/nonce.handler.ts&#45;&gt;src/config.ts</title>
<path fill="none" stroke="#757575" d="M1428.53,-1181.45C1454.02,-1177.7 1480.22,-1169.81 1501,-1154.48 1530.43,-1132.76 1506.83,-1101.16 1537,-1080.48 1591.19,-1043.33 1669.46,-1044.51 1721.26,-1050.8"/>
<polygon fill="#757575" stroke="#757575" points="1720.88,-1054.28 1731.25,-1052.11 1721.79,-1047.34 1720.88,-1054.28"/>
</g>
<!-- src/handlers/nonce.handler.ts&#45;&gt;src/errors.ts -->
<g id="edge37" class="edge">
<title>src/handlers/nonce.handler.ts&#45;&gt;src/errors.ts</title>
<path fill="none" stroke="#757575" d="M1428.62,-1179C1606.73,-1175.27 1974.95,-1162.62 2015,-1121.48 2108.95,-1024.97 1973.43,-626.58 2051,-516.48 2113.05,-428.41 2194.91,-494.62 2274,-421.48 2299.4,-398 2280.42,-370.41 2310,-352.48 2382.21,-308.71 2609.3,-327.6 2690,-352.48 2717.47,-360.95 2744.07,-380.87 2761.34,-395.86"/>
<polygon fill="#757575" stroke="#757575" points="2759.25,-398.68 2769.04,-402.75 2763.92,-393.47 2759.25,-398.68"/>
</g>
<!-- src/handlers/nonce.handler.ts&#45;&gt;src/statements/index.ts -->
<g id="edge40" class="edge">
<title>src/handlers/nonce.handler.ts&#45;&gt;src/statements/index.ts</title>
<path fill="none" stroke="#757575" d="M1409.62,-1168.92C1441.72,-1160.45 1477.06,-1145.8 1501,-1120.48 1539.84,-1079.4 1499.07,-1040.4 1537,-998.48 1578.13,-953.02 1643.66,-928.41 1695.56,-915.37"/>
<polygon fill="#757575" stroke="#757575" points="1696.52,-918.74 1705.42,-912.99 1694.87,-911.94 1696.52,-918.74"/>
</g>
<!-- src/handlers/schemas/nonceHandlerConfig.schema.ts -->
<g id="node25" class="node">
<title>src/handlers/schemas/nonceHandlerConfig.schema.ts</title>
<path fill="none" stroke="#cfffac" d="M1938.83,-1268.98C1938.83,-1268.98 1613.17,-1268.98 1613.17,-1268.98 1609.33,-1268.98 1605.5,-1265.15 1605.5,-1261.31 1605.5,-1261.31 1605.5,-1253.65 1605.5,-1253.65 1605.5,-1249.81 1609.33,-1245.98 1613.17,-1245.98 1613.17,-1245.98 1938.83,-1245.98 1938.83,-1245.98 1942.67,-1245.98 1946.5,-1249.81 1946.5,-1253.65 1946.5,-1253.65 1946.5,-1261.31 1946.5,-1261.31 1946.5,-1265.15 1942.67,-1268.98 1938.83,-1268.98"/>
<text text-anchor="middle" x="1776" y="-1253.78" font-family="Arial" font-size="14.00" fill="#cfffac">src/handlers/schemas/nonceHandlerConfig.schema.ts</text>
</g>
<!-- src/handlers/nonce.handler.ts&#45;&gt;src/handlers/schemas/nonceHandlerConfig.schema.ts -->
<g id="edge38" class="edge">
<title>src/handlers/nonce.handler.ts&#45;&gt;src/handlers/schemas/nonceHandlerConfig.schema.ts</title>
<path fill="none" stroke="#757575" d="M1428.81,-1182.98C1453.09,-1186.14 1478.62,-1191.77 1501,-1201.48 1520.1,-1209.77 1517.83,-1223.34 1537,-1231.48 1555.41,-1239.3 1575.31,-1245.1 1595.49,-1249.36"/>
<polygon fill="#757575" stroke="#757575" points="1594.92,-1252.82 1605.41,-1251.34 1596.28,-1245.95 1594.92,-1252.82"/>
</g>
<!-- src/handlers/oauthAuthorizationServer.handler.ts&#45;&gt;src/config.ts -->
<g id="edge41" class="edge">
<title>src/handlers/oauthAuthorizationServer.handler.ts&#45;&gt;src/config.ts</title>
<path fill="none" stroke="#757575" d="M1486.25,-1211.69C1491.45,-1208.75 1496.39,-1205.36 1501,-1201.48 1543.91,-1165.33 1493.47,-1115.88 1537,-1080.48 1588.42,-1038.66 1668.42,-1041.27 1721.26,-1049.13"/>
<polygon fill="#757575" stroke="#757575" points="1721.02,-1052.63 1731.44,-1050.76 1722.12,-1045.72 1721.02,-1052.63"/>
</g>
<!-- src/handlers/schemas/oauthAuthorizationServerHandlerConfig.schema.ts -->
<g id="node26" class="node">
<title>src/handlers/schemas/oauthAuthorizationServerHandlerConfig.schema.ts</title>
<path fill="none" stroke="#cfffac" d="M1996.83,-1309.98C1996.83,-1309.98 1555.17,-1309.98 1555.17,-1309.98 1551.33,-1309.98 1547.5,-1306.15 1547.5,-1302.31 1547.5,-1302.31 1547.5,-1294.65 1547.5,-1294.65 1547.5,-1290.81 1551.33,-1286.98 1555.17,-1286.98 1555.17,-1286.98 1996.83,-1286.98 1996.83,-1286.98 2000.67,-1286.98 2004.5,-1290.81 2004.5,-1294.65 2004.5,-1294.65 2004.5,-1302.31 2004.5,-1302.31 2004.5,-1306.15 2000.67,-1309.98 1996.83,-1309.98"/>
<text text-anchor="middle" x="1776" y="-1294.78" font-family="Arial" font-size="14.00" fill="#cfffac">src/handlers/schemas/oauthAuthorizationServerHandlerConfig.schema.ts</text>
</g>
<!-- src/handlers/oauthAuthorizationServer.handler.ts&#45;&gt;src/handlers/schemas/oauthAuthorizationServerHandlerConfig.schema.ts -->
<g id="edge42" class="edge">
<title>src/handlers/oauthAuthorizationServer.handler.ts&#45;&gt;src/handlers/schemas/oauthAuthorizationServerHandlerConfig.schema.ts</title>
<path fill="none" stroke="#757575" d="M1366.83,-1233.06C1406.93,-1246.28 1476.02,-1267.5 1537,-1278.48 1552.46,-1281.26 1568.56,-1283.66 1584.77,-1285.73"/>
<polygon fill="#757575" stroke="#757575" points="1584.51,-1289.22 1594.87,-1286.97 1585.37,-1282.27 1584.51,-1289.22"/>
</g>
<!-- src/handlers/openidCredentialIssuer.handler.ts&#45;&gt;src/resources.ts -->
<g id="edge45" class="edge">
<title>src/handlers/openidCredentialIssuer.handler.ts&#45;&gt;src/resources.ts</title>
<path fill="none" stroke="#757575" d="M1479.02,-1326.58C1810.28,-1343.57 2597.29,-1375.53 2690,-1301.48 2743.61,-1258.67 2771.27,-1036.92 2778.83,-966.19"/>
<polygon fill="#757575" stroke="#757575" points="2782.32,-966.49 2779.87,-956.18 2775.35,-965.76 2782.32,-966.49"/>
</g>
<!-- src/handlers/openidCredentialIssuer.handler.ts&#45;&gt;src/config.ts -->
<g id="edge43" class="edge">
<title>src/handlers/openidCredentialIssuer.handler.ts&#45;&gt;src/config.ts</title>
<path fill="none" stroke="#757575" d="M1389.02,-1306.89C1426.16,-1296.31 1473.04,-1276.89 1501,-1242.48 1547.51,-1185.24 1481.45,-1129 1537,-1080.48 1587.17,-1036.66 1668.09,-1039.96 1721.42,-1048.5"/>
<polygon fill="#757575" stroke="#757575" points="1720.92,-1051.96 1731.37,-1050.2 1722.11,-1045.06 1720.92,-1051.96"/>
</g>
<!-- src/handlers/schemas/openidCredentialIssuerHandlerConfig.schema.ts -->
<g id="node27" class="node">
<title>src/handlers/schemas/openidCredentialIssuerHandlerConfig.schema.ts</title>
<path fill="none" stroke="#cfffac" d="M1989.83,-1389.98C1989.83,-1389.98 1562.17,-1389.98 1562.17,-1389.98 1558.33,-1389.98 1554.5,-1386.15 1554.5,-1382.31 1554.5,-1382.31 1554.5,-1374.65 1554.5,-1374.65 1554.5,-1370.81 1558.33,-1366.98 1562.17,-1366.98 1562.17,-1366.98 1989.83,-1366.98 1989.83,-1366.98 1993.67,-1366.98 1997.5,-1370.81 1997.5,-1374.65 1997.5,-1374.65 1997.5,-1382.31 1997.5,-1382.31 1997.5,-1386.15 1993.67,-1389.98 1989.83,-1389.98"/>
<text text-anchor="middle" x="1776" y="-1374.78" font-family="Arial" font-size="14.00" fill="#cfffac">src/handlers/schemas/openidCredentialIssuerHandlerConfig.schema.ts</text>
</g>
<!-- src/handlers/openidCredentialIssuer.handler.ts&#45;&gt;src/handlers/schemas/openidCredentialIssuerHandlerConfig.schema.ts -->
<g id="edge44" class="edge">
<title>src/handlers/openidCredentialIssuer.handler.ts&#45;&gt;src/handlers/schemas/openidCredentialIssuerHandlerConfig.schema.ts</title>
<path fill="none" stroke="#757575" d="M1396.72,-1330.05C1436.88,-1337.1 1489.87,-1345.98 1537,-1352.48 1572.76,-1357.41 1611.64,-1361.99 1647.41,-1365.88"/>
<polygon fill="#757575" stroke="#757575" points="1647.1,-1369.37 1657.42,-1366.96 1647.85,-1362.41 1647.1,-1369.37"/>
</g>
<!-- src/handlers/pushedAuthorizationRequest.handler.ts&#45;&gt;src/config.ts -->
<g id="edge46" class="edge">
<title>src/handlers/pushedAuthorizationRequest.handler.ts&#45;&gt;src/config.ts</title>
<path fill="none" stroke="#757575" d="M1458.69,-993.99C1473.32,-997.64 1487.73,-1002.36 1501,-1008.48 1520.17,-1017.32 1517.55,-1031.27 1537,-1039.48 1596.4,-1064.56 1671.41,-1066.92 1721.18,-1064.91"/>
<polygon fill="#757575" stroke="#757575" points="1721.58,-1068.4 1731.4,-1064.42 1721.25,-1061.41 1721.58,-1068.4"/>
</g>
<!-- src/handlers/pushedAuthorizationRequest.handler.ts&#45;&gt;src/errors.ts -->
<g id="edge47" class="edge">
<title>src/handlers/pushedAuthorizationRequest.handler.ts&#45;&gt;src/errors.ts</title>
<path fill="none" stroke="#757575" d="M1487.8,-970.89C1492.44,-968.13 1496.86,-965 1501,-961.48 1544.37,-924.56 1498.19,-880.18 1537,-838.48 1691.45,-672.54 1873.87,-837.89 2015,-660.48 2092.01,-563.67 1975.06,-482.13 2051,-384.48 2127.05,-286.69 2188.33,-304.79 2310,-281.48 2392.94,-265.59 2615.31,-242.08 2690,-281.48 2734.91,-305.17 2761.88,-362.11 2773.77,-393.26"/>
<polygon fill="#757575" stroke="#757575" points="2770.52,-394.55 2777.23,-402.74 2777.1,-392.15 2770.52,-394.55"/>
</g>
<!-- src/handlers/pushedAuthorizationRequest.handler.ts&#45;&gt;src/statements/index.ts -->
<g id="edge49" class="edge">
<title>src/handlers/pushedAuthorizationRequest.handler.ts&#45;&gt;src/statements/index.ts</title>
<path fill="none" stroke="#757575" d="M1437.18,-970.96C1458.35,-968.2 1480.43,-965.01 1501,-961.48 1576.68,-948.49 1663.09,-928.74 1718.29,-915.48"/>
<polygon fill="#757575" stroke="#757575" points="1719.33,-918.83 1728.23,-913.09 1717.68,-912.03 1719.33,-918.83"/>
</g>
<!-- src/handlers/schemas/pushedAuthorizationRequestHandlerConfig.schema.ts -->
<g id="node28" class="node">
<title>src/handlers/schemas/pushedAuthorizationRequestHandlerConfig.schema.ts</title>
<path fill="none" stroke="#cfffac" d="M2007.33,-1030.98C2007.33,-1030.98 1544.67,-1030.98 1544.67,-1030.98 1540.83,-1030.98 1537,-1027.15 1537,-1023.31 1537,-1023.31 1537,-1015.65 1537,-1015.65 1537,-1011.81 1540.83,-1007.98 1544.67,-1007.98 1544.67,-1007.98 2007.33,-1007.98 2007.33,-1007.98 2011.17,-1007.98 2015,-1011.81 2015,-1015.65 2015,-1015.65 2015,-1023.31 2015,-1023.31 2015,-1027.15 2011.17,-1030.98 2007.33,-1030.98"/>
<text text-anchor="middle" x="1776" y="-1015.78" font-family="Arial" font-size="14.00" fill="#cfffac">src/handlers/schemas/pushedAuthorizationRequestHandlerConfig.schema.ts</text>
</g>
<!-- src/handlers/pushedAuthorizationRequest.handler.ts&#45;&gt;src/handlers/schemas/pushedAuthorizationRequestHandlerConfig.schema.ts -->
<g id="edge48" class="edge">
<title>src/handlers/pushedAuthorizationRequest.handler.ts&#45;&gt;src/handlers/schemas/pushedAuthorizationRequestHandlerConfig.schema.ts</title>
<path fill="none" stroke="#757575" d="M1470.43,-993.98C1520.2,-998.15 1576.61,-1002.87 1627.23,-1007.11"/>
<polygon fill="#757575" stroke="#757575" points="1627.02,-1010.6 1637.28,-1007.95 1627.6,-1003.63 1627.02,-1010.6"/>
</g>
<!-- src/handlers/token.handler.ts&#45;&gt;src/config.ts -->
<g id="edge50" class="edge">
<title>src/handlers/token.handler.ts&#45;&gt;src/config.ts</title>
<path fill="none" stroke="#757575" d="M1048.42,-939.02C1071.53,-956.19 1117.99,-987.98 1163,-1002.48 1266.35,-1035.79 1592.08,-1052.79 1721.36,-1058.36"/>
<polygon fill="#757575" stroke="#757575" points="1721.28,-1061.86 1731.42,-1058.79 1721.58,-1054.87 1721.28,-1061.86"/>
</g>
<!-- src/handlers/token.handler.ts&#45;&gt;src/errors.ts -->
<g id="edge51" class="edge">
<title>src/handlers/token.handler.ts&#45;&gt;src/errors.ts</title>
<path fill="none" stroke="#757575" d="M1035.97,-915.85C1055.11,-828.82 1188.6,-276.79 1537,-61.48 1627.16,-5.76 1669.01,-46.48 1775,-46.48 1775,-46.48 1775,-46.48 2163.5,-46.48 2397.81,-46.48 2507.9,73.96 2690,-73.48 2740.86,-114.66 2770.2,-324.54 2778.52,-392.91"/>
<polygon fill="#757575" stroke="#757575" points="2775.06,-393.45 2779.72,-402.96 2782.01,-392.62 2775.06,-393.45"/>
</g>
<!-- src/handlers/schemas/tokenHandlerConfig.schema.ts -->
<g id="node29" class="node">
<title>src/handlers/schemas/tokenHandlerConfig.schema.ts</title>
<path fill="none" stroke="#cfffac" d="M1493.33,-952.98C1493.33,-952.98 1170.67,-952.98 1170.67,-952.98 1166.83,-952.98 1163,-949.15 1163,-945.31 1163,-945.31 1163,-937.65 1163,-937.65 1163,-933.81 1166.83,-929.98 1170.67,-929.98 1170.67,-929.98 1493.33,-929.98 1493.33,-929.98 1497.17,-929.98 1501,-933.81 1501,-937.65 1501,-937.65 1501,-945.31 1501,-945.31 1501,-949.15 1497.17,-952.98 1493.33,-952.98"/>
<text text-anchor="middle" x="1332" y="-937.78" font-family="Arial" font-size="14.00" fill="#cfffac">src/handlers/schemas/tokenHandlerConfig.schema.ts</text>
</g>
<!-- src/handlers/token.handler.ts&#45;&gt;src/handlers/schemas/tokenHandlerConfig.schema.ts -->
<g id="edge52" class="edge">
<title>src/handlers/token.handler.ts&#45;&gt;src/handlers/schemas/tokenHandlerConfig.schema.ts</title>
<path fill="none" stroke="#757575" d="M1127.22,-931.89C1135.49,-932.28 1144.01,-932.68 1152.68,-933.09"/>
<polygon fill="#757575" stroke="#757575" points="1152.76,-936.6 1162.91,-933.57 1153.08,-929.6 1152.76,-936.6"/>
</g>
<!-- src/handlers/token/authorizationCode.ts -->
<g id="node30" class="node">
<title>src/handlers/token/authorizationCode.ts</title>
<path fill="none" stroke="#c6c5fe" d="M1451.33,-870.98C1451.33,-870.98 1212.67,-870.98 1212.67,-870.98 1208.83,-870.98 1205,-867.15 1205,-863.31 1205,-863.31 1205,-855.65 1205,-855.65 1205,-851.81 1208.83,-847.98 1212.67,-847.98 1212.67,-847.98 1451.33,-847.98 1451.33,-847.98 1455.17,-847.98 1459,-851.81 1459,-855.65 1459,-855.65 1459,-863.31 1459,-863.31 1459,-867.15 1455.17,-870.98 1451.33,-870.98"/>
<text text-anchor="middle" x="1332" y="-855.78" font-family="Arial" font-size="14.00" fill="#c6c5fe">src/handlers/token/authorizationCode.ts</text>
</g>
<!-- src/handlers/token.handler.ts&#45;&gt;src/handlers/token/authorizationCode.ts -->
<g id="edge53" class="edge">
<title>src/handlers/token.handler.ts&#45;&gt;src/handlers/token/authorizationCode.ts</title>
<path fill="none" stroke="#757575" d="M1059.23,-915.88C1084.96,-904.77 1125.94,-888.42 1163,-879.48 1173.71,-876.9 1184.89,-874.64 1196.17,-872.67"/>
<polygon fill="#757575" stroke="#757575" points="1196.81,-876.11 1206.1,-871.01 1195.66,-869.21 1196.81,-876.11"/>
</g>
<!-- src/handlers/token/clientCredentials.ts -->
<g id="node31" class="node">
<title>src/handlers/token/clientCredentials.ts</title>
<path fill="none" stroke="#c6c5fe" d="M1446.83,-911.98C1446.83,-911.98 1217.17,-911.98 1217.17,-911.98 1213.33,-911.98 1209.5,-908.15 1209.5,-904.31 1209.5,-904.31 1209.5,-896.65 1209.5,-896.65 1209.5,-892.81 1213.33,-888.98 1217.17,-888.98 1217.17,-888.98 1446.83,-888.98 1446.83,-888.98 1450.67,-888.98 1454.5,-892.81 1454.5,-896.65 1454.5,-896.65 1454.5,-904.31 1454.5,-904.31 1454.5,-908.15 1450.67,-911.98 1446.83,-911.98"/>
<text text-anchor="middle" x="1332" y="-896.78" font-family="Arial" font-size="14.00" fill="#c6c5fe">src/handlers/token/clientCredentials.ts</text>
</g>
<!-- src/handlers/token.handler.ts&#45;&gt;src/handlers/token/clientCredentials.ts -->
<g id="edge54" class="edge">
<title>src/handlers/token.handler.ts&#45;&gt;src/handlers/token/clientCredentials.ts</title>
<path fill="none" stroke="#757575" d="M1127.22,-918.97C1150.13,-916.9 1175.05,-914.63 1199.37,-912.43"/>
<polygon fill="#757575" stroke="#757575" points="1199.73,-915.91 1209.37,-911.52 1199.1,-908.94 1199.73,-915.91"/>
</g>
<!-- src/handlers/token/authorizationCode.ts&#45;&gt;src/resources.ts -->
<g id="edge56" class="edge">
<title>src/handlers/token/authorizationCode.ts&#45;&gt;src/resources.ts</title>
<path fill="none" stroke="#757575" d="M1459.11,-864.05C1473.74,-867.59 1488.04,-872.56 1501,-879.48 1522.69,-891.06 1515.04,-910.42 1537,-921.48 1632.11,-969.38 1934.78,-885.44 2015,-955.48 2073.83,-1006.85 1990.38,-1078.24 2051,-1127.48 2106.11,-1172.25 2629.64,-1164.87 2690,-1127.48 2747.9,-1091.61 2770.13,-1006.64 2777.63,-966.38"/>
<polygon fill="#757575" stroke="#757575" points="2781.12,-966.73 2779.38,-956.28 2774.23,-965.54 2781.12,-966.73"/>
</g>
<!-- src/handlers/token/authorizationCode.ts&#45;&gt;src/errors.ts -->
<g id="edge55" class="edge">
<title>src/handlers/token/authorizationCode.ts&#45;&gt;src/errors.ts</title>
<path fill="none" stroke="#757575" d="M1443.02,-847.91C1464.1,-841.53 1484.66,-831.91 1501,-817.48 1534.23,-788.15 1512.72,-761.56 1537,-724.48 1713.14,-455.52 1756.09,-343.5 2051,-215.48 2123.32,-184.09 2664.17,-188.56 2690,-205.48 2755.15,-248.17 2773.91,-348.76 2779.1,-392.98"/>
<polygon fill="#757575" stroke="#757575" points="2775.62,-393.36 2780.15,-402.94 2782.59,-392.63 2775.62,-393.36"/>
</g>
<!-- src/handlers/token/authorizationCode.ts&#45;&gt;src/statements/index.ts -->
<g id="edge57" class="edge">
<title>src/handlers/token/authorizationCode.ts&#45;&gt;src/statements/index.ts</title>
<path fill="none" stroke="#757575" d="M1454.07,-870.98C1528.22,-878.03 1621.37,-886.88 1688.19,-893.23"/>
<polygon fill="#757575" stroke="#757575" points="1687.98,-896.73 1698.27,-894.19 1688.65,-889.76 1687.98,-896.73"/>
</g>
<!-- src/handlers/token/clientCredentials.ts&#45;&gt;src/resources.ts -->
<g id="edge59" class="edge">
<title>src/handlers/token/clientCredentials.ts&#45;&gt;src/resources.ts</title>
<path fill="none" stroke="#757575" d="M1454.54,-905.34C1470.64,-908.73 1486.55,-913.59 1501,-920.48 1521.14,-930.08 1516.72,-946.17 1537,-955.48 1633.92,-999.99 1934.93,-928.03 2015,-998.48 2070.7,-1047.49 1993.16,-1115.02 2051,-1161.48 2106.35,-1205.94 2630.88,-1200.8 2690,-1161.48 2757.25,-1116.76 2774.9,-1011.69 2779.45,-966.16"/>
<polygon fill="#757575" stroke="#757575" points="2782.94,-966.45 2780.33,-956.18 2775.97,-965.83 2782.94,-966.45"/>
</g>
<!-- src/handlers/token/clientCredentials.ts&#45;&gt;src/errors.ts -->
<g id="edge58" class="edge">
<title>src/handlers/token/clientCredentials.ts&#45;&gt;src/errors.ts</title>
<path fill="none" stroke="#757575" d="M1454.82,-900.24C1471.4,-896.06 1487.38,-889.49 1501,-879.48 1532.09,-856.63 1511.76,-829.67 1537,-800.48 1702.31,-609.31 1877.03,-704.22 2015,-492.48 2071.01,-406.53 1975.77,-334.22 2051,-264.48 2112.95,-207.05 2651.57,-220.4 2690,-243.48 2744.84,-276.42 2768.43,-354.82 2776.93,-392.94"/>
<polygon fill="#757575" stroke="#757575" points="2773.55,-393.89 2779.02,-402.96 2780.4,-392.46 2773.55,-393.89"/>
</g>
<!-- src/handlers/token/clientCredentials.ts&#45;&gt;src/statements/index.ts -->
<g id="edge60" class="edge">
<title>src/handlers/token/clientCredentials.ts&#45;&gt;src/statements/index.ts</title>
<path fill="none" stroke="#757575" d="M1454.66,-900.76C1528.79,-900.92 1621.76,-901.13 1688.42,-901.28"/>
<polygon fill="#757575" stroke="#757575" points="1688.47,-904.78 1698.47,-901.31 1688.48,-897.78 1688.47,-904.78"/>
</g>
<!-- src/statements/grants/generateIssuerGrants.ts -->
<g id="node32" class="node">
<title>src/statements/grants/generateIssuerGrants.ts</title>
<path fill="none" stroke="#c6c5fe" d="M2640.33,-1118.98C2640.33,-1118.98 2359.67,-1118.98 2359.67,-1118.98 2355.83,-1118.98 2352,-1115.15 2352,-1111.31 2352,-1111.31 2352,-1103.65 2352,-1103.65 2352,-1099.81 2355.83,-1095.98 2359.67,-1095.98 2359.67,-1095.98 2640.33,-1095.98 2640.33,-1095.98 2644.17,-1095.98 2648,-1099.81 2648,-1103.65 2648,-1103.65 2648,-1111.31 2648,-1111.31 2648,-1115.15 2644.17,-1118.98 2640.33,-1118.98"/>
<text text-anchor="middle" x="2500" y="-1103.78" font-family="Arial" font-size="14.00" fill="#c6c5fe">src/statements/grants/generateIssuerGrants.ts</text>
</g>
<!-- src/statements/grants/generateIssuerGrants.ts&#45;&gt;src/resources.ts -->
<g id="edge65" class="edge">
<title>src/statements/grants/generateIssuerGrants.ts&#45;&gt;src/resources.ts</title>
<path fill="none" stroke="#757575" d="M2648.33,-1104.31C2663.04,-1100.18 2677.24,-1094.41 2690,-1086.48 2735.37,-1058.3 2762.28,-998.2 2774.01,-965.96"/>
<polygon fill="#757575" stroke="#757575" points="2777.43,-966.78 2777.41,-956.19 2770.82,-964.48 2777.43,-966.78"/>
</g>
<!-- src/statements/grants/index.ts&#45;&gt;src/statements/grants/generateIssuerGrants.ts -->
<g id="edge66" class="edge">
<title>src/statements/grants/index.ts&#45;&gt;src/statements/grants/generateIssuerGrants.ts</title>
<path fill="none" stroke="#757575" d="M2261.44,-1107.48C2286.68,-1107.48 2314.48,-1107.48 2341.9,-1107.48"/>
<polygon fill="#757575" stroke="#757575" points="2341.98,-1110.98 2351.98,-1107.48 2341.98,-1103.98 2341.98,-1110.98"/>
</g>
<!-- src/statements/locations/authorizationCodeRedirection.ts -->
<g id="node38" class="node">
<title>src/statements/locations/authorizationCodeRedirection.ts</title>
<path fill="none" stroke="#c6c5fe" d="M2671.33,-915.98C2671.33,-915.98 2328.67,-915.98 2328.67,-915.98 2324.83,-915.98 2321,-912.15 2321,-908.31 2321,-908.31 2321,-900.65 2321,-900.65 2321,-896.81 2324.83,-892.98 2328.67,-892.98 2328.67,-892.98 2671.33,-892.98 2671.33,-892.98 2675.17,-892.98 2679,-896.81 2679,-900.65 2679,-900.65 2679,-908.31 2679,-908.31 2679,-912.15 2675.17,-915.98 2671.33,-915.98"/>
<text text-anchor="middle" x="2500" y="-900.78" font-family="Arial" font-size="14.00" fill="#c6c5fe">src/statements/locations/authorizationCodeRedirection.ts</text>
</g>
<!-- src/statements/locations/index.ts&#45;&gt;src/statements/locations/authorizationCodeRedirection.ts -->
<g id="edge77" class="edge">
<title>src/statements/locations/index.ts&#45;&gt;src/statements/locations/authorizationCodeRedirection.ts</title>
<path fill="none" stroke="#757575" d="M2237.48,-834.02C2250.11,-837.62 2262.77,-842.33 2274,-848.48 2293.57,-859.2 2289.82,-873.96 2310,-883.48 2314.73,-885.71 2319.6,-887.75 2324.57,-889.61"/>
<polygon fill="#757575" stroke="#757575" points="2323.66,-892.99 2334.25,-892.96 2325.95,-886.38 2323.66,-892.99"/>
</g>
<!-- src/statements/locations/generateAuthorizationRequestUri.ts -->
<g id="node39" class="node">
<title>src/statements/locations/generateAuthorizationRequestUri.ts</title>
<path fill="none" stroke="#c6c5fe" d="M2682.33,-833.98C2682.33,-833.98 2317.67,-833.98 2317.67,-833.98 2313.83,-833.98 2310,-830.15 2310,-826.31 2310,-826.31 2310,-818.65 2310,-818.65 2310,-814.81 2313.83,-810.98 2317.67,-810.98 2317.67,-810.98 2682.33,-810.98 2682.33,-810.98 2686.17,-810.98 2690,-814.81 2690,-818.65 2690,-818.65 2690,-826.31 2690,-826.31 2690,-830.15 2686.17,-833.98 2682.33,-833.98"/>
<text text-anchor="middle" x="2500" y="-818.78" font-family="Arial" font-size="14.00" fill="#c6c5fe">src/statements/locations/generateAuthorizationRequestUri.ts</text>
</g>
<!-- src/statements/locations/index.ts&#45;&gt;src/statements/locations/generateAuthorizationRequestUri.ts -->
<g id="edge78" class="edge">
<title>src/statements/locations/index.ts&#45;&gt;src/statements/locations/generateAuthorizationRequestUri.ts</title>
<path fill="none" stroke="#757575" d="M2268.73,-822.48C2278.78,-822.48 2289.18,-822.48 2299.75,-822.48"/>
<polygon fill="#757575" stroke="#757575" points="2299.93,-825.98 2309.93,-822.48 2299.93,-818.98 2299.93,-825.98"/>
</g>
<!-- src/statements/locations/generateCredentialOffer.ts -->
<g id="node40" class="node">
<title>src/statements/locations/generateCredentialOffer.ts</title>
<path fill="none" stroke="#c6c5fe" d="M2654.83,-751.98C2654.83,-751.98 2345.17,-751.98 2345.17,-751.98 2341.33,-751.98 2337.5,-748.15 2337.5,-744.31 2337.5,-744.31 2337.5,-736.65 2337.5,-736.65 2337.5,-732.81 2341.33,-728.98 2345.17,-728.98 2345.17,-728.98 2654.83,-728.98 2654.83,-728.98 2658.67,-728.98 2662.5,-732.81 2662.5,-736.65 2662.5,-736.65 2662.5,-744.31 2662.5,-744.31 2662.5,-748.15 2658.67,-751.98 2654.83,-751.98"/>
<text text-anchor="middle" x="2500" y="-736.78" font-family="Arial" font-size="14.00" fill="#c6c5fe">src/statements/locations/generateCredentialOffer.ts</text>
</g>
<!-- src/statements/locations/index.ts&#45;&gt;src/statements/locations/generateCredentialOffer.ts -->
<g id="edge79" class="edge">
<title>src/statements/locations/index.ts&#45;&gt;src/statements/locations/generateCredentialOffer.ts</title>
<path fill="none" stroke="#757575" d="M2185.13,-810.92C2213.1,-796.55 2263.74,-772.43 2310,-760.48 2319.87,-757.93 2330.1,-755.71 2340.47,-753.76"/>
<polygon fill="#757575" stroke="#757575" points="2341.22,-757.18 2350.45,-751.99 2339.99,-750.29 2341.22,-757.18"/>
</g>
<!-- src/statements/resources/issuerClient.ts -->
<g id="node41" class="node">
<title>src/statements/resources/issuerClient.ts</title>
<path fill="none" stroke="#c6c5fe" d="M2620.83,-1077.98C2620.83,-1077.98 2379.17,-1077.98 2379.17,-1077.98 2375.33,-1077.98 2371.5,-1074.15 2371.5,-1070.31 2371.5,-1070.31 2371.5,-1062.65 2371.5,-1062.65 2371.5,-1058.81 2375.33,-1054.98 2379.17,-1054.98 2379.17,-1054.98 2620.83,-1054.98 2620.83,-1054.98 2624.67,-1054.98 2628.5,-1058.81 2628.5,-1062.65 2628.5,-1062.65 2628.5,-1070.31 2628.5,-1070.31 2628.5,-1074.15 2624.67,-1077.98 2620.83,-1077.98"/>
<text text-anchor="middle" x="2500" y="-1062.78" font-family="Arial" font-size="14.00" fill="#c6c5fe">src/statements/resources/issuerClient.ts</text>
</g>
<!-- src/statements/resources/index.ts&#45;&gt;src/statements/resources/issuerClient.ts -->
<g id="edge80" class="edge">
<title>src/statements/resources/index.ts&#45;&gt;src/statements/resources/issuerClient.ts</title>
<path fill="none" stroke="#757575" d="M2199.56,-1017.02C2228.99,-1026.02 2271.8,-1038.19 2310,-1045.48 2326.47,-1048.62 2343.84,-1051.35 2361.11,-1053.69"/>
<polygon fill="#757575" stroke="#757575" points="2360.89,-1057.19 2371.26,-1055.03 2361.8,-1050.25 2360.89,-1057.19"/>
</g>
<!-- src/statements/tokens/generateAccessToken.ts -->
<g id="node42" class="node">
<title>src/statements/tokens/generateAccessToken.ts</title>
<path fill="none" stroke="#c6c5fe" d="M2641.83,-1036.98C2641.83,-1036.98 2358.17,-1036.98 2358.17,-1036.98 2354.33,-1036.98 2350.5,-1033.15 2350.5,-1029.31 2350.5,-1029.31 2350.5,-1021.65 2350.5,-1021.65 2350.5,-1017.81 2354.33,-1013.98 2358.17,-1013.98 2358.17,-1013.98 2641.83,-1013.98 2641.83,-1013.98 2645.67,-1013.98 2649.5,-1017.81 2649.5,-1021.65 2649.5,-1021.65 2649.5,-1029.31 2649.5,-1029.31 2649.5,-1033.15 2645.67,-1036.98 2641.83,-1036.98"/>
<text text-anchor="middle" x="2500" y="-1021.78" font-family="Arial" font-size="14.00" fill="#c6c5fe">src/statements/tokens/generateAccessToken.ts</text>
</g>
<!-- src/statements/tokens/index.ts&#45;&gt;src/statements/tokens/generateAccessToken.ts -->
<g id="edge88" class="edge">
<title>src/statements/tokens/index.ts&#45;&gt;src/statements/tokens/generateAccessToken.ts</title>
<path fill="none" stroke="#757575" d="M2178.23,-914.15C2209.35,-938.57 2281.28,-993.69 2310,-1004.48 2319.72,-1008.13 2329.9,-1011.2 2340.29,-1013.78"/>
<polygon fill="#757575" stroke="#757575" points="2339.77,-1017.25 2350.3,-1016.11 2341.35,-1010.44 2339.77,-1017.25"/>
</g>
<!-- src/statements/tokens/generateAuthorizationCode.ts -->
<g id="node43" class="node">
<title>src/statements/tokens/generateAuthorizationCode.ts</title>
<path fill="none" stroke="#c6c5fe" d="M2657.83,-792.98C2657.83,-792.98 2342.17,-792.98 2342.17,-792.98 2338.33,-792.98 2334.5,-789.15 2334.5,-785.31 2334.5,-785.31 2334.5,-777.65 2334.5,-777.65 2334.5,-773.81 2338.33,-769.98 2342.17,-769.98 2342.17,-769.98 2657.83,-769.98 2657.83,-769.98 2661.67,-769.98 2665.5,-773.81 2665.5,-777.65 2665.5,-777.65 2665.5,-785.31 2665.5,-785.31 2665.5,-789.15 2661.67,-792.98 2657.83,-792.98"/>
<text text-anchor="middle" x="2500" y="-777.78" font-family="Arial" font-size="14.00" fill="#c6c5fe">src/statements/tokens/generateAuthorizationCode.ts</text>
</g>
<!-- src/statements/tokens/index.ts&#45;&gt;src/statements/tokens/generateAuthorizationCode.ts -->
<g id="edge89" class="edge">
<title>src/statements/tokens/index.ts&#45;&gt;src/statements/tokens/generateAuthorizationCode.ts</title>
<path fill="none" stroke="#757575" d="M2191.02,-890.86C2214.43,-880.23 2248.24,-863.05 2274,-842.48 2292.95,-827.35 2288.47,-812.63 2310,-801.48 2314.73,-799.03 2319.62,-796.81 2324.62,-794.8"/>
<polygon fill="#757575" stroke="#757575" points="2326.21,-797.94 2334.38,-791.19 2323.78,-791.38 2326.21,-797.94"/>
</g>
<!-- src/statements/tokens/generateCNonce.ts -->
<g id="node44" class="node">
<title>src/statements/tokens/generateCNonce.ts</title>
<path fill="none" stroke="#c6c5fe" d="M2626.83,-995.98C2626.83,-995.98 2373.17,-995.98 2373.17,-995.98 2369.33,-995.98 2365.5,-992.15 2365.5,-988.31 2365.5,-988.31 2365.5,-980.65 2365.5,-980.65 2365.5,-976.81 2369.33,-972.98 2373.17,-972.98 2373.17,-972.98 2626.83,-972.98 2626.83,-972.98 2630.67,-972.98 2634.5,-976.81 2634.5,-980.65 2634.5,-980.65 2634.5,-988.31 2634.5,-988.31 2634.5,-992.15 2630.67,-995.98 2626.83,-995.98"/>
<text text-anchor="middle" x="2500" y="-980.78" font-family="Arial" font-size="14.00" fill="#c6c5fe">src/statements/tokens/generateCNonce.ts</text>
</g>
<!-- src/statements/tokens/index.ts&#45;&gt;src/statements/tokens/generateCNonce.ts -->
<g id="edge90" class="edge">
<title>src/statements/tokens/index.ts&#45;&gt;src/statements/tokens/generateCNonce.ts</title>
<path fill="none" stroke="#757575" d="M2188.34,-913.99C2217.03,-926.8 2265.95,-947.19 2310,-958.48 2330.59,-963.76 2352.73,-968.02 2374.36,-971.45"/>
<polygon fill="#757575" stroke="#757575" points="2373.83,-974.91 2384.25,-972.97 2374.89,-967.99 2373.83,-974.91"/>
</g>
<!-- src/statements/tokens/generateCredentials.ts -->
<g id="node45" class="node">
<title>src/statements/tokens/generateCredentials.ts</title>
<path fill="none" stroke="#c6c5fe" d="M2636.33,-874.98C2636.33,-874.98 2363.67,-874.98 2363.67,-874.98 2359.83,-874.98 2356,-871.15 2356,-867.31 2356,-867.31 2356,-859.65 2356,-859.65 2356,-855.81 2359.83,-851.98 2363.67,-851.98 2363.67,-851.98 2636.33,-851.98 2636.33,-851.98 2640.17,-851.98 2644,-855.81 2644,-859.65 2644,-859.65 2644,-867.31 2644,-867.31 2644,-871.15 2640.17,-874.98 2636.33,-874.98"/>
<text text-anchor="middle" x="2500" y="-859.78" font-family="Arial" font-size="14.00" fill="#c6c5fe">src/statements/tokens/generateCredentials.ts</text>
</g>
<!-- src/statements/tokens/index.ts&#45;&gt;src/statements/tokens/generateCredentials.ts -->
<g id="edge91" class="edge">
<title>src/statements/tokens/index.ts&#45;&gt;src/statements/tokens/generateCredentials.ts</title>
<path fill="none" stroke="#757575" d="M2249.83,-890.94C2269.59,-888.39 2290.51,-885.77 2310,-883.48 2331.31,-880.97 2354,-878.45 2375.98,-876.07"/>
<polygon fill="#757575" stroke="#757575" points="2376.45,-879.54 2386.02,-875 2375.7,-872.58 2376.45,-879.54"/>
</g>
<!-- src/statements/validations/validateAccessToken.ts -->
<g id="node46" class="node">
<title>src/statements/validations/validateAccessToken.ts</title>
<path fill="none" stroke="#c6c5fe" d="M2650.83,-589.98C2650.83,-589.98 2349.17,-589.98 2349.17,-589.98 2345.33,-589.98 2341.5,-586.15 2341.5,-582.31 2341.5,-582.31 2341.5,-574.65 2341.5,-574.65 2341.5,-570.81 2345.33,-566.98 2349.17,-566.98 2349.17,-566.98 2650.83,-566.98 2650.83,-566.98 2654.67,-566.98 2658.5,-570.81 2658.5,-574.65 2658.5,-574.65 2658.5,-582.31 2658.5,-582.31 2658.5,-586.15 2654.67,-589.98 2650.83,-589.98"/>
<text text-anchor="middle" x="2500" y="-574.78" font-family="Arial" font-size="14.00" fill="#c6c5fe">src/statements/validations/validateAccessToken.ts</text>
</g>
<!-- src/statements/validations/index.ts&#45;&gt;src/statements/validations/validateAccessToken.ts -->
<g id="edge92" class="edge">
<title>src/statements/validations/index.ts&#45;&gt;src/statements/validations/validateAccessToken.ts</title>
<path fill="none" stroke="#757575" d="M2245.2,-549C2266.3,-551.88 2288.98,-554.88 2310,-557.48 2332.94,-560.32 2357.46,-563.18 2380.99,-565.83"/>
<polygon fill="#757575" stroke="#757575" points="2380.67,-569.32 2391,-566.95 2381.46,-562.36 2380.67,-569.32"/>
</g>
<!-- src/statements/validations/validateAuthorizationCode.ts -->
<g id="node47" class="node">
<title>src/statements/validations/validateAuthorizationCode.ts</title>
<path fill="none" stroke="#c6c5fe" d="M2666.33,-507.98C2666.33,-507.98 2333.67,-507.98 2333.67,-507.98 2329.83,-507.98 2326,-504.15 2326,-500.31 2326,-500.31 2326,-492.65 2326,-492.65 2326,-488.81 2329.83,-484.98 2333.67,-484.98 2333.67,-484.98 2666.33,-484.98 2666.33,-484.98 2670.17,-484.98 2674,-488.81 2674,-492.65 2674,-492.65 2674,-500.31 2674,-500.31 2674,-504.15 2670.17,-507.98 2666.33,-507.98"/>
<text text-anchor="middle" x="2500" y="-492.78" font-family="Arial" font-size="14.00" fill="#c6c5fe">src/statements/validations/validateAuthorizationCode.ts</text>
</g>
<!-- src/statements/validations/index.ts&#45;&gt;src/statements/validations/validateAuthorizationCode.ts -->
<g id="edge93" class="edge">
<title>src/statements/validations/index.ts&#45;&gt;src/statements/validations/validateAuthorizationCode.ts</title>
<path fill="none" stroke="#757575" d="M2240.22,-525.94C2262.69,-522.71 2287.31,-519.31 2310,-516.48 2330.56,-513.92 2352.41,-511.41 2373.68,-509.08"/>
<polygon fill="#757575" stroke="#757575" points="2374.17,-512.55 2383.73,-507.99 2373.41,-505.59 2374.17,-512.55"/>
</g>
<!-- src/statements/validations/validateClientCredentials.ts -->
<g id="node48" class="node">
<title>src/statements/validations/validateClientCredentials.ts</title>
<path fill="none" stroke="#c6c5fe" d="M2662.33,-466.98C2662.33,-466.98 2337.67,-466.98 2337.67,-466.98 2333.83,-466.98 2330,-463.15 2330,-459.31 2330,-459.31 2330,-451.65 2330,-451.65 2330,-447.81 2333.83,-443.98 2337.67,-443.98 2337.67,-443.98 2662.33,-443.98 2662.33,-443.98 2666.17,-443.98 2670,-447.81 2670,-451.65 2670,-451.65 2670,-459.31 2670,-459.31 2670,-463.15 2666.17,-466.98 2662.33,-466.98"/>
<text text-anchor="middle" x="2500" y="-451.78" font-family="Arial" font-size="14.00" fill="#c6c5fe">src/statements/validations/validateClientCredentials.ts</text>
</g>
<!-- src/statements/validations/index.ts&#45;&gt;src/statements/validations/validateClientCredentials.ts -->
<g id="edge94" class="edge">
<title>src/statements/validations/index.ts&#45;&gt;src/statements/validations/validateClientCredentials.ts</title>
<path fill="none" stroke="#757575" d="M2191.74,-525.94C2214.11,-516.75 2246.13,-503.47 2274,-491.48 2290.08,-484.56 2293.09,-480.01 2310,-475.48 2319.38,-472.97 2329.11,-470.77 2338.97,-468.84"/>
<polygon fill="#757575" stroke="#757575" points="2339.67,-472.27 2348.87,-467 2338.4,-465.39 2339.67,-472.27"/>
</g>
<!-- src/statements/validations/validateDpop.ts -->
<g id="node49" class="node">
<title>src/statements/validations/validateDpop.ts</title>
<path fill="none" stroke="#c6c5fe" d="M2626.83,-425.98C2626.83,-425.98 2373.17,-425.98 2373.17,-425.98 2369.33,-425.98 2365.5,-422.15 2365.5,-418.31 2365.5,-418.31 2365.5,-410.65 2365.5,-410.65 2365.5,-406.81 2369.33,-402.98 2373.17,-402.98 2373.17,-402.98 2626.83,-402.98 2626.83,-402.98 2630.67,-402.98 2634.5,-406.81 2634.5,-410.65 2634.5,-410.65 2634.5,-418.31 2634.5,-418.31 2634.5,-422.15 2630.67,-425.98 2626.83,-425.98"/>
<text text-anchor="middle" x="2500" y="-410.78" font-family="Arial" font-size="14.00" fill="#c6c5fe">src/statements/validations/validateDpop.ts</text>
</g>
<!-- src/statements/validations/index.ts&#45;&gt;src/statements/validations/validateDpop.ts -->
<g id="edge95" class="edge">
<title>src/statements/validations/index.ts&#45;&gt;src/statements/validations/validateDpop.ts</title>
<path fill="none" stroke="#757575" d="M2207.79,-525.94C2229.47,-518.68 2254.94,-507.56 2274,-491.48 2296.9,-472.16 2284.56,-450.31 2310,-434.48 2323.81,-425.89 2339.3,-419.87 2355.32,-415.74"/>
<polygon fill="#757575" stroke="#757575" points="2356.4,-419.09 2365.35,-413.41 2354.82,-412.27 2356.4,-419.09"/>
</g>
<!-- src/statements/validations/validateIssuerState.ts -->
<g id="node50" class="node">
<title>src/statements/validations/validateIssuerState.ts</title>
<path fill="none" stroke="#c6c5fe" d="M2644.83,-384.98C2644.83,-384.98 2355.17,-384.98 2355.17,-384.98 2351.33,-384.98 2347.5,-381.15 2347.5,-377.31 2347.5,-377.31 2347.5,-369.65 2347.5,-369.65 2347.5,-365.81 2351.33,-361.98 2355.17,-361.98 2355.17,-361.98 2644.83,-361.98 2644.83,-361.98 2648.67,-361.98 2652.5,-365.81 2652.5,-369.65 2652.5,-369.65 2652.5,-377.31 2652.5,-377.31 2652.5,-381.15 2648.67,-384.98 2644.83,-384.98"/>
<text text-anchor="middle" x="2500" y="-369.78" font-family="Arial" font-size="14.00" fill="#c6c5fe">src/statements/validations/validateIssuerState.ts</text>
</g>
<!-- src/statements/validations/index.ts&#45;&gt;src/statements/validations/validateIssuerState.ts -->
<g id="edge96" class="edge">
<title>src/statements/validations/index.ts&#45;&gt;src/statements/validations/validateIssuerState.ts</title>
<path fill="none" stroke="#757575" d="M2214.33,-525.95C2235.15,-518.99 2258.04,-508.13 2274,-491.48 2306.11,-457.98 2273.4,-422.01 2310,-393.48 2318.48,-386.87 2327.86,-381.62 2337.78,-377.49"/>
<polygon fill="#757575" stroke="#757575" points="2339.31,-380.65 2347.45,-373.86 2336.85,-374.1 2339.31,-380.65"/>
</g>
<!-- src/statements/validations/validateRequestUri.ts -->
<g id="node51" class="node">
<title>src/statements/validations/validateRequestUri.ts</title>
<path fill="none" stroke="#c6c5fe" d="M2644.83,-548.98C2644.83,-548.98 2355.17,-548.98 2355.17,-548.98 2351.33,-548.98 2347.5,-545.15 2347.5,-541.31 2347.5,-541.31 2347.5,-533.65 2347.5,-533.65 2347.5,-529.81 2351.33,-525.98 2355.17,-525.98 2355.17,-525.98 2644.83,-525.98 2644.83,-525.98 2648.67,-525.98 2652.5,-529.81 2652.5,-533.65 2652.5,-533.65 2652.5,-541.31 2652.5,-541.31 2652.5,-545.15 2648.67,-548.98 2644.83,-548.98"/>
<text text-anchor="middle" x="2500" y="-533.78" font-family="Arial" font-size="14.00" fill="#c6c5fe">src/statements/validations/validateRequestUri.ts</text>
</g>
<!-- src/statements/validations/index.ts&#45;&gt;src/statements/validations/validateRequestUri.ts -->
<g id="edge97" class="edge">
<title>src/statements/validations/index.ts&#45;&gt;src/statements/validations/validateRequestUri.ts</title>
<path fill="none" stroke="#757575" d="M2274.29,-537.48C2294.47,-537.48 2315.9,-537.48 2337.21,-537.48"/>
<polygon fill="#757575" stroke="#757575" points="2337.31,-540.98 2347.31,-537.48 2337.31,-533.98 2337.31,-540.98"/>
</g>
<!-- src/statements/validations/validateResourceOwner.ts -->
<g id="node52" class="node">
<title>src/statements/validations/validateResourceOwner.ts</title>
<path fill="none" stroke="#c6c5fe" d="M2659.83,-671.98C2659.83,-671.98 2340.17,-671.98 2340.17,-671.98 2336.33,-671.98 2332.5,-668.15 2332.5,-664.31 2332.5,-664.31 2332.5,-656.65 2332.5,-656.65 2332.5,-652.81 2336.33,-648.98 2340.17,-648.98 2340.17,-648.98 2659.83,-648.98 2659.83,-648.98 2663.67,-648.98 2667.5,-652.81 2667.5,-656.65 2667.5,-656.65 2667.5,-664.31 2667.5,-664.31 2667.5,-668.15 2663.67,-671.98 2659.83,-671.98"/>
<text text-anchor="middle" x="2500" y="-656.78" font-family="Arial" font-size="14.00" fill="#c6c5fe">src/statements/validations/validateResourceOwner.ts</text>
</g>
<!-- src/statements/validations/index.ts&#45;&gt;src/statements/validations/validateResourceOwner.ts -->
<g id="edge98" class="edge">
<title>src/statements/validations/index.ts&#45;&gt;src/statements/validations/validateResourceOwner.ts</title>
<path fill="none" stroke="#757575" d="M2175.58,-549.15C2199.17,-571.15 2254.01,-618.44 2310,-639.48 2316.8,-642.03 2323.83,-644.31 2330.99,-646.32"/>
<polygon fill="#757575" stroke="#757575" points="2330.27,-649.75 2340.84,-648.92 2332.06,-642.98 2330.27,-649.75"/>
</g>
<!-- src/statements/validations/validateScope.ts -->
<g id="node53" class="node">
<title>src/statements/validations/validateScope.ts</title>
<path fill="none" stroke="#c6c5fe" d="M2629.83,-630.98C2629.83,-630.98 2370.17,-630.98 2370.17,-630.98 2366.33,-630.98 2362.5,-627.15 2362.5,-623.31 2362.5,-623.31 2362.5,-615.65 2362.5,-615.65 2362.5,-611.81 2366.33,-607.98 2370.17,-607.98 2370.17,-607.98 2629.83,-607.98 2629.83,-607.98 2633.67,-607.98 2637.5,-611.81 2637.5,-615.65 2637.5,-615.65 2637.5,-623.31 2637.5,-623.31 2637.5,-627.15 2633.67,-630.98 2629.83,-630.98"/>
<text text-anchor="middle" x="2500" y="-615.78" font-family="Arial" font-size="14.00" fill="#c6c5fe">src/statements/validations/validateScope.ts</text>
</g>
<!-- src/statements/validations/index.ts&#45;&gt;src/statements/validations/validateScope.ts -->
<g id="edge99" class="edge">
<title>src/statements/validations/index.ts&#45;&gt;src/statements/validations/validateScope.ts</title>
<path fill="none" stroke="#757575" d="M2185.65,-549.05C2213.76,-563.17 2264.12,-586.64 2310,-598.48 2323.64,-602 2337.97,-604.93 2352.4,-607.37"/>
<polygon fill="#757575" stroke="#757575" points="2351.97,-610.84 2362.4,-608.98 2353.09,-603.93 2351.97,-610.84"/>
</g>
<!-- src/statements/locations/authorizationCodeRedirection.ts&#45;&gt;src/resources.ts -->
<g id="edge72" class="edge">
<title>src/statements/locations/authorizationCodeRedirection.ts&#45;&gt;src/resources.ts</title>
<path fill="none" stroke="#757575" d="M2587.13,-916.03C2619.41,-920.44 2656.41,-925.59 2690,-930.48 2698.3,-931.69 2707.02,-932.99 2715.64,-934.3"/>
<polygon fill="#757575" stroke="#757575" points="2715.27,-937.78 2725.68,-935.83 2716.32,-930.86 2715.27,-937.78"/>
</g>
<!-- src/statements/locations/generateAuthorizationRequestUri.ts&#45;&gt;src/resources.ts -->
<g id="edge74" class="edge">
<title>src/statements/locations/generateAuthorizationRequestUri.ts&#45;&gt;src/resources.ts</title>
<path fill="none" stroke="#757575" d="M2670.81,-834.1C2677.41,-836.54 2683.83,-839.32 2690,-842.48 2725.98,-860.93 2754.38,-900 2769.35,-924.08"/>
<polygon fill="#757575" stroke="#757575" points="2766.43,-926.02 2774.58,-932.79 2772.43,-922.41 2766.43,-926.02"/>
</g>
<!-- src/statements/locations/generateAuthorizationRequestUri.ts&#45;&gt;src/constants.ts -->
<g id="edge73" class="edge">
<title>src/statements/locations/generateAuthorizationRequestUri.ts&#45;&gt;src/constants.ts</title>
<path fill="none" stroke="#757575" d="M2670.26,-810.97C2677.08,-808.24 2683.7,-805.09 2690,-801.48 2730.63,-778.2 2758.62,-728.68 2772,-700.41"/>
<polygon fill="#757575" stroke="#757575" points="2775.3,-701.6 2776.26,-691.04 2768.93,-698.7 2775.3,-701.6"/>
</g>
<!-- src/statements/locations/generateCredentialOffer.ts&#45;&gt;src/resources.ts -->
<g id="edge76" class="edge">
<title>src/statements/locations/generateCredentialOffer.ts&#45;&gt;src/resources.ts</title>
<path fill="none" stroke="#757575" d="M2662.91,-746.12C2672.48,-749.91 2681.61,-754.63 2690,-760.48 2746.13,-799.58 2769.25,-883.5 2777.3,-923.03"/>
<polygon fill="#757575" stroke="#757575" points="2773.88,-923.77 2779.19,-932.94 2780.76,-922.46 2773.88,-923.77"/>
</g>
<!-- src/statements/locations/generateCredentialOffer.ts&#45;&gt;src/errors.ts -->
<g id="edge75" class="edge">
<title>src/statements/locations/generateCredentialOffer.ts&#45;&gt;src/errors.ts</title>
<path fill="none" stroke="#757575" d="M2593.72,-728.86C2627.72,-720.39 2664.16,-705.75 2690,-680.48 2760.23,-611.79 2776.28,-486.68 2779.93,-436.33"/>
<polygon fill="#757575" stroke="#757575" points="2783.43,-436.45 2780.56,-426.25 2776.44,-436.01 2783.43,-436.45"/>
</g>
<!-- src/statements/resources/issuerClient.ts&#45;&gt;src/resources.ts -->
<g id="edge81" class="edge">
<title>src/statements/resources/issuerClient.ts&#45;&gt;src/resources.ts</title>
<path fill="none" stroke="#757575" d="M2628.74,-1065.04C2649.99,-1061.26 2671.2,-1055.13 2690,-1045.48 2725.78,-1027.12 2754.24,-988.46 2769.28,-964.65"/>
<polygon fill="#757575" stroke="#757575" points="2772.31,-966.4 2774.54,-956.04 2766.34,-962.75 2772.31,-966.4"/>
</g>
<!-- src/statements/tokens/generateAccessToken.ts&#45;&gt;src/resources.ts -->
<g id="edge82" class="edge">
<title>src/statements/tokens/generateAccessToken.ts&#45;&gt;src/resources.ts</title>
<path fill="none" stroke="#757575" d="M2649.57,-1015.76C2663.44,-1012.84 2677.11,-1009.14 2690,-1004.48 2716.31,-994.97 2742.57,-976.44 2760.07,-962.48"/>
<polygon fill="#757575" stroke="#757575" points="2762.41,-965.09 2767.92,-956.05 2757.97,-959.68 2762.41,-965.09"/>
</g>
<!-- src/statements/tokens/generateAuthorizationCode.ts&#45;&gt;src/resources.ts -->
<g id="edge84" class="edge">
<title>src/statements/tokens/generateAuthorizationCode.ts&#45;&gt;src/resources.ts</title>
<path fill="none" stroke="#757575" d="M2665.96,-789.59C2674.35,-792.86 2682.43,-796.79 2690,-801.48 2735.62,-829.75 2762.43,-890.32 2774.07,-922.82"/>
<polygon fill="#757575" stroke="#757575" points="2770.89,-924.35 2777.44,-932.68 2777.52,-922.08 2770.89,-924.35"/>
</g>
<!-- src/statements/tokens/generateAuthorizationCode.ts&#45;&gt;src/errors.ts -->
<g id="edge83" class="edge">
<title>src/statements/tokens/generateAuthorizationCode.ts&#45;&gt;src/errors.ts</title>
<path fill="none" stroke="#757575" d="M2665.74,-776.2C2674.44,-772.02 2682.63,-766.84 2690,-760.48 2702.69,-749.53 2758.71,-510.92 2775.94,-436.47"/>
<polygon fill="#757575" stroke="#757575" points="2779.43,-436.88 2778.27,-426.35 2772.61,-435.31 2779.43,-436.88"/>
</g>
<!-- src/statements/tokens/generateCNonce.ts&#45;&gt;src/resources.ts -->
<g id="edge85" class="edge">
<title>src/statements/tokens/generateCNonce.ts&#45;&gt;src/resources.ts</title>
<path fill="none" stroke="#757575" d="M2587.13,-972.93C2619.41,-968.52 2656.41,-963.37 2690,-958.48 2698.3,-957.27 2707.02,-955.97 2715.64,-954.66"/>
<polygon fill="#757575" stroke="#757575" points="2716.32,-958.1 2725.68,-953.14 2715.27,-951.18 2716.32,-958.1"/>
</g>
<!-- src/statements/tokens/generateCredentials.ts&#45;&gt;src/resources.ts -->
<g id="edge87" class="edge">
<title>src/statements/tokens/generateCredentials.ts&#45;&gt;src/resources.ts</title>
<path fill="none" stroke="#757575" d="M2644.08,-871.13C2659.83,-874.17 2675.42,-878.19 2690,-883.48 2716.58,-893.12 2742.98,-912.14 2760.44,-926.39"/>
<polygon fill="#757575" stroke="#757575" points="2758.35,-929.2 2768.26,-932.94 2762.84,-923.83 2758.35,-929.2"/>
</g>
<!-- src/statements/tokens/generateCredentials.ts&#45;&gt;src/errors.ts -->
<g id="edge86" class="edge">
<title>src/statements/tokens/generateCredentials.ts&#45;&gt;src/errors.ts</title>
<path fill="none" stroke="#757575" d="M2644.3,-867.3C2661.19,-862.32 2677.01,-854.44 2690,-842.48 2751.3,-786.04 2708.84,-740.02 2726,-658.48 2743.36,-576 2766.01,-478.32 2775.95,-435.91"/>
<polygon fill="#757575" stroke="#757575" points="2779.37,-436.67 2778.25,-426.14 2772.56,-435.07 2779.37,-436.67"/>
</g>
<!-- src/statements/validations/validateAccessToken.ts&#45;&gt;src/resources.ts -->
<g id="edge101" class="edge">
<title>src/statements/validations/validateAccessToken.ts&#45;&gt;src/resources.ts</title>
<path fill="none" stroke="#757575" d="M2658.51,-579.7C2669.92,-584.29 2680.61,-590.42 2690,-598.48 2702.72,-609.4 2758.72,-848.03 2775.94,-922.49"/>
<polygon fill="#757575" stroke="#757575" points="2772.62,-923.65 2778.28,-932.61 2779.44,-922.08 2772.62,-923.65"/>
</g>
<!-- src/statements/validations/validateAccessToken.ts&#45;&gt;src/errors.ts -->
<g id="edge100" class="edge">
<title>src/statements/validations/validateAccessToken.ts&#45;&gt;src/errors.ts</title>
<path fill="none" stroke="#757575" d="M2658.92,-572.05C2669.84,-568.29 2680.33,-563.5 2690,-557.48 2735.55,-529.09 2762.38,-468.57 2774.05,-436.11"/>
<polygon fill="#757575" stroke="#757575" points="2777.5,-436.86 2777.43,-426.27 2770.87,-434.59 2777.5,-436.86"/>
</g>
<!-- src/statements/validations/validateAuthorizationCode.ts&#45;&gt;src/resources.ts -->
<g id="edge103" class="edge">
<title>src/statements/validations/validateAuthorizationCode.ts&#45;&gt;src/resources.ts</title>
<path fill="none" stroke="#757575" d="M2674.31,-504.78C2679.87,-508.14 2685.13,-512.03 2690,-516.48 2751.16,-572.43 2708.92,-618.37 2726,-699.48 2743.44,-782.28 2766.05,-880.37 2775.97,-922.96"/>
<polygon fill="#757575" stroke="#757575" points="2772.58,-923.83 2778.26,-932.77 2779.39,-922.24 2772.58,-923.83"/>
</g>
<!-- src/statements/validations/validateAuthorizationCode.ts&#45;&gt;src/errors.ts -->
<g id="edge102" class="edge">
<title>src/statements/validations/validateAuthorizationCode.ts&#45;&gt;src/errors.ts</title>
<path fill="none" stroke="#757575" d="M2658.1,-484.96C2669.03,-482.35 2679.77,-479.22 2690,-475.48 2716.56,-465.77 2742.96,-446.76 2760.43,-432.53"/>
<polygon fill="#757575" stroke="#757575" points="2762.82,-435.09 2768.25,-425.99 2758.33,-429.72 2762.82,-435.09"/>
</g>
<!-- src/statements/validations/validateClientCredentials.ts&#45;&gt;src/resources.ts -->
<g id="edge105" class="edge">
<title>src/statements/validations/validateClientCredentials.ts&#45;&gt;src/resources.ts</title>
<path fill="none" stroke="#757575" d="M2568.36,-443.96C2608.75,-441.11 2658.26,-445.41 2690,-475.48 2726.6,-510.16 2716.47,-649.97 2726,-699.48 2741.99,-782.57 2765.35,-880.51 2775.71,-923.01"/>
<polygon fill="#757575" stroke="#757575" points="2772.33,-923.92 2778.11,-932.8 2779.13,-922.26 2772.33,-923.92"/>
</g>
<!-- src/statements/validations/validateClientCredentials.ts&#45;&gt;src/errors.ts -->
<g id="edge104" class="edge">
<title>src/statements/validations/validateClientCredentials.ts&#45;&gt;src/errors.ts</title>
<path fill="none" stroke="#757575" d="M2622,-443.96C2644.65,-441.26 2668.09,-438.09 2690,-434.48 2702.22,-432.46 2715.27,-429.87 2727.56,-427.21"/>
<polygon fill="#757575" stroke="#757575" points="2728.66,-430.55 2737.67,-424.98 2727.15,-423.72 2728.66,-430.55"/>
</g>
<!-- src/statements/validations/validateDpop.ts&#45;&gt;src/errors.ts -->
<g id="edge106" class="edge">
<title>src/statements/validations/validateDpop.ts&#45;&gt;src/errors.ts</title>
<path fill="none" stroke="#757575" d="M2634.85,-414.48C2667.74,-414.48 2701.09,-414.48 2727.61,-414.48"/>
<polygon fill="#757575" stroke="#757575" points="2727.79,-417.98 2737.79,-414.48 2727.79,-410.98 2727.79,-417.98"/>
</g>
<!-- src/statements/validations/validateIssuerState.ts&#45;&gt;src/errors.ts -->
<g id="edge107" class="edge">
<title>src/statements/validations/validateIssuerState.ts&#45;&gt;src/errors.ts</title>
<path fill="none" stroke="#757575" d="M2629.89,-385C2650.07,-387.42 2670.64,-390.23 2690,-393.48 2702.37,-395.55 2715.56,-398.29 2727.96,-401.1"/>
<polygon fill="#757575" stroke="#757575" points="2727.17,-404.51 2737.7,-403.36 2728.75,-397.69 2727.17,-404.51"/>
</g>
<!-- src/statements/validations/validateRequestUri.ts&#45;&gt;src/resources.ts -->
<g id="edge110" class="edge">
<title>src/statements/validations/validateRequestUri.ts&#45;&gt;src/resources.ts</title>
<path fill="none" stroke="#757575" d="M2652.77,-536.16C2666.38,-540.99 2679.11,-547.88 2690,-557.48 2693.54,-560.6 2757.45,-840.86 2776,-922.44"/>
<polygon fill="#757575" stroke="#757575" points="2772.67,-923.61 2778.3,-932.58 2779.5,-922.06 2772.67,-923.61"/>
</g>
<!-- src/statements/validations/validateRequestUri.ts&#45;&gt;src/constants.ts -->
<g id="edge108" class="edge">
<title>src/statements/validations/validateRequestUri.ts&#45;&gt;src/constants.ts</title>
<path fill="none" stroke="#757575" d="M2652.62,-542.08C2665.72,-545.85 2678.39,-550.87 2690,-557.48 2730.7,-580.66 2758.66,-630.22 2772.01,-658.52"/>
<polygon fill="#757575" stroke="#757575" points="2768.95,-660.24 2776.27,-667.9 2775.33,-657.35 2768.95,-660.24"/>
</g>
<!-- src/statements/validations/validateRequestUri.ts&#45;&gt;src/errors.ts -->
<g id="edge109" class="edge">
<title>src/statements/validations/validateRequestUri.ts&#45;&gt;src/errors.ts</title>
<path fill="none" stroke="#757575" d="M2652.54,-530.79C2665.58,-527.21 2678.27,-522.54 2690,-516.48 2725.93,-497.93 2754.34,-458.89 2769.33,-434.85"/>
<polygon fill="#757575" stroke="#757575" points="2772.41,-436.53 2774.57,-426.15 2766.41,-432.91 2772.41,-436.53"/>
</g>
<!-- src/statements/validations/validateResourceOwner.ts&#45;&gt;src/resources.ts -->
<g id="edge112" class="edge">
<title>src/statements/validations/validateResourceOwner.ts&#45;&gt;src/resources.ts</title>
<path fill="none" stroke="#757575" d="M2667.5,-672.1C2675.5,-676.08 2683.07,-680.83 2690,-686.48 2764.25,-747.04 2777.99,-872.38 2780.48,-922.79"/>
<polygon fill="#757575" stroke="#757575" points="2776.98,-923.02 2780.87,-932.88 2783.98,-922.75 2776.98,-923.02"/>
</g>
<!-- src/statements/validations/validateResourceOwner.ts&#45;&gt;src/errors.ts -->
<g id="edge111" class="edge">
<title>src/statements/validations/validateResourceOwner.ts&#45;&gt;src/errors.ts</title>
<path fill="none" stroke="#757575" d="M2667.53,-652.85C2675.47,-649.18 2683.03,-644.76 2690,-639.48 2756.54,-589.04 2774.59,-481.87 2779.35,-436.02"/>
<polygon fill="#757575" stroke="#757575" points="2782.85,-436.28 2780.28,-426 2775.87,-435.63 2782.85,-436.28"/>
</g>
<!-- src/statements/validations/validateScope.ts&#45;&gt;src/resources.ts -->
<g id="edge114" class="edge">
<title>src/statements/validations/validateScope.ts&#45;&gt;src/resources.ts</title>
<path fill="none" stroke="#757575" d="M2637.91,-614.68C2656.91,-619.27 2675.02,-627.04 2690,-639.48 2734.81,-676.7 2767.54,-859.5 2777.69,-922.83"/>
<polygon fill="#757575" stroke="#757575" points="2774.26,-923.55 2779.27,-932.89 2781.17,-922.47 2774.26,-923.55"/>
</g>
<!-- src/statements/validations/validateScope.ts&#45;&gt;src/errors.ts -->
<g id="edge113" class="edge">
<title>src/statements/validations/validateScope.ts&#45;&gt;src/errors.ts</title>
<path fill="none" stroke="#757575" d="M2637.63,-620.83C2656.35,-616.43 2674.45,-609.37 2690,-598.48 2746.03,-559.23 2769.2,-475.39 2777.28,-435.9"/>
<polygon fill="#757575" stroke="#757575" points="2780.73,-436.49 2779.18,-426.01 2773.86,-435.17 2780.73,-436.49"/>
</g>
</g>
</svg>
