<?xml version="1.0" encoding="UTF-8" standalone="no"?>
<!DOCTYPE svg PUBLIC "-//W3C//DTD SVG 1.1//EN"
 "http://www.w3.org/Graphics/SVG/1.1/DTD/svg11.dtd">
<!-- Generated by graphviz version 2.43.0 (0)
 -->
<!-- Title: G Pages: 1 -->
<svg width="2647pt" height="766pt"
 viewBox="0.00 0.00 2647.20 766.45" xmlns="http://www.w3.org/2000/svg" xmlns:xlink="http://www.w3.org/1999/xlink">
<g id="graph0" class="graph" transform="scale(1 1) rotate(0) translate(21.6 744.85)">
<title>G</title>
<polygon fill="#111111" stroke="transparent" points="-21.6,21.6 -21.6,-744.85 2625.6,-744.85 2625.6,21.6 -21.6,21.6"/>
<!-- app.ts -->
<g id="node1" class="node">
<title>app.ts</title>
<path fill="none" stroke="#c6c5fe" d="M321.83,-264.25C321.83,-264.25 283.17,-264.25 283.17,-264.25 279.33,-264.25 275.5,-260.42 275.5,-256.59 275.5,-256.59 275.5,-248.92 275.5,-248.92 275.5,-245.09 279.33,-241.25 283.17,-241.25 283.17,-241.25 321.83,-241.25 321.83,-241.25 325.67,-241.25 329.5,-245.09 329.5,-248.92 329.5,-248.92 329.5,-256.59 329.5,-256.59 329.5,-260.42 325.67,-264.25 321.83,-264.25"/>
<text text-anchor="middle" x="302.5" y="-249.05" font-family="Arial" font-size="14.00" fill="#c6c5fe">app.ts</text>
</g>
<!-- src/index.ts -->
<g id="node2" class="node">
<title>src/index.ts</title>
<path fill="none" stroke="#c6c5fe" d="M603.33,-224.25C603.33,-224.25 533.67,-224.25 533.67,-224.25 529.83,-224.25 526,-220.42 526,-216.59 526,-216.59 526,-208.92 526,-208.92 526,-205.09 529.83,-201.25 533.67,-201.25 533.67,-201.25 603.33,-201.25 603.33,-201.25 607.17,-201.25 611,-205.09 611,-208.92 611,-208.92 611,-216.59 611,-216.59 611,-220.42 607.17,-224.25 603.33,-224.25"/>
<text text-anchor="middle" x="568.5" y="-209.05" font-family="Arial" font-size="14.00" fill="#c6c5fe">src/index.ts</text>
</g>
<!-- app.ts&#45;&gt;src/index.ts -->
<g id="edge1" class="edge">
<title>app.ts&#45;&gt;src/index.ts</title>
<path fill="none" stroke="#757575" d="M329.8,-249.42C365.96,-244.77 433.02,-235.87 490,-226.75 498.35,-225.42 507.18,-223.91 515.78,-222.39"/>
<polygon fill="#757575" stroke="#757575" points="516.49,-225.82 525.72,-220.62 515.26,-218.93 516.49,-225.82"/>
</g>
<!-- src/config.ts -->
<g id="node8" class="node">
<title>src/config.ts</title>
<path fill="none" stroke="#c6c5fe" d="M1578.83,-204.25C1578.83,-204.25 1505.17,-204.25 1505.17,-204.25 1501.33,-204.25 1497.5,-200.42 1497.5,-196.59 1497.5,-196.59 1497.5,-188.92 1497.5,-188.92 1497.5,-185.09 1501.33,-181.25 1505.17,-181.25 1505.17,-181.25 1578.83,-181.25 1578.83,-181.25 1582.67,-181.25 1586.5,-185.09 1586.5,-188.92 1586.5,-188.92 1586.5,-196.59 1586.5,-196.59 1586.5,-200.42 1582.67,-204.25 1578.83,-204.25"/>
<text text-anchor="middle" x="1542" y="-189.05" font-family="Arial" font-size="14.00" fill="#c6c5fe">src/config.ts</text>
</g>
<!-- src/index.ts&#45;&gt;src/config.ts -->
<g id="edge42" class="edge">
<title>src/index.ts&#45;&gt;src/config.ts</title>
<path fill="none" stroke="#757575" d="M611.24,-211.89C766.87,-208.69 1313.22,-197.44 1487.29,-193.86"/>
<polygon fill="#757575" stroke="#757575" points="1487.56,-197.35 1497.49,-193.65 1487.42,-190.35 1487.56,-197.35"/>
</g>
<!-- src/core.ts -->
<g id="node10" class="node">
<title>src/core.ts</title>
<path fill="none" stroke="#c6c5fe" d="M718.33,-244.25C718.33,-244.25 654.67,-244.25 654.67,-244.25 650.83,-244.25 647,-240.42 647,-236.59 647,-236.59 647,-228.92 647,-228.92 647,-225.09 650.83,-221.25 654.67,-221.25 654.67,-221.25 718.33,-221.25 718.33,-221.25 722.17,-221.25 726,-225.09 726,-228.92 726,-228.92 726,-236.59 726,-236.59 726,-240.42 722.17,-244.25 718.33,-244.25"/>
<text text-anchor="middle" x="686.5" y="-229.05" font-family="Arial" font-size="14.00" fill="#c6c5fe">src/core.ts</text>
</g>
<!-- src/index.ts&#45;&gt;src/core.ts -->
<g id="edge43" class="edge">
<title>src/index.ts&#45;&gt;src/core.ts</title>
<path fill="none" stroke="#757575" d="M611.05,-219.92C619.46,-221.37 628.38,-222.9 637,-224.39"/>
<polygon fill="#757575" stroke="#757575" points="636.5,-227.85 646.95,-226.1 637.69,-220.96 636.5,-227.85"/>
</g>
<!-- src/handlers/index.ts -->
<g id="node11" class="node">
<title>src/handlers/index.ts</title>
<path fill="none" stroke="#c6c5fe" d="M894.33,-284.25C894.33,-284.25 769.67,-284.25 769.67,-284.25 765.83,-284.25 762,-280.42 762,-276.59 762,-276.59 762,-268.92 762,-268.92 762,-265.09 765.83,-261.25 769.67,-261.25 769.67,-261.25 894.33,-261.25 894.33,-261.25 898.17,-261.25 902,-265.09 902,-268.92 902,-268.92 902,-276.59 902,-276.59 902,-280.42 898.17,-284.25 894.33,-284.25"/>
<text text-anchor="middle" x="832" y="-269.05" font-family="Arial" font-size="14.00" fill="#c6c5fe">src/handlers/index.ts</text>
</g>
<!-- src/index.ts&#45;&gt;src/handlers/index.ts -->
<g id="edge44" class="edge">
<title>src/index.ts&#45;&gt;src/handlers/index.ts</title>
<path fill="none" stroke="#757575" d="M586.82,-224.42C601.99,-234.01 625.01,-247.07 647,-253.75 680.42,-263.9 718.65,-268.85 751.57,-271.19"/>
<polygon fill="#757575" stroke="#757575" points="751.4,-274.69 761.61,-271.84 751.85,-267.71 751.4,-274.69"/>
</g>
<!-- main.config.ts -->
<g id="node3" class="node">
<title>main.config.ts</title>
<path fill="none" stroke="#c6c5fe" d="M345.33,-164.25C345.33,-164.25 259.67,-164.25 259.67,-164.25 255.83,-164.25 252,-160.42 252,-156.59 252,-156.59 252,-148.92 252,-148.92 252,-145.09 255.83,-141.25 259.67,-141.25 259.67,-141.25 345.33,-141.25 345.33,-141.25 349.17,-141.25 353,-145.09 353,-148.92 353,-148.92 353,-156.59 353,-156.59 353,-160.42 349.17,-164.25 345.33,-164.25"/>
<text text-anchor="middle" x="302.5" y="-149.05" font-family="Arial" font-size="14.00" fill="#c6c5fe">main.config.ts</text>
</g>
<!-- main.config.ts&#45;&gt;src/index.ts -->
<g id="edge3" class="edge">
<title>main.config.ts&#45;&gt;src/index.ts</title>
<path fill="none" stroke="#757575" d="M353.23,-144.19C391.64,-139.58 445.58,-137.57 490,-152.75 513.64,-160.83 535.65,-179.38 550.13,-193.73"/>
<polygon fill="#757575" stroke="#757575" points="547.89,-196.44 557.36,-201.18 552.91,-191.56 547.89,-196.44"/>
</g>
<!-- main.logger.ts -->
<g id="node4" class="node">
<title>main.logger.ts</title>
<path fill="none" stroke="#c6c5fe" d="M482.33,-184.25C482.33,-184.25 396.67,-184.25 396.67,-184.25 392.83,-184.25 389,-180.42 389,-176.59 389,-176.59 389,-168.92 389,-168.92 389,-165.09 392.83,-161.25 396.67,-161.25 396.67,-161.25 482.33,-161.25 482.33,-161.25 486.17,-161.25 490,-165.09 490,-168.92 490,-168.92 490,-176.59 490,-176.59 490,-180.42 486.17,-184.25 482.33,-184.25"/>
<text text-anchor="middle" x="439.5" y="-169.05" font-family="Arial" font-size="14.00" fill="#c6c5fe">main.logger.ts</text>
</g>
<!-- main.config.ts&#45;&gt;main.logger.ts -->
<g id="edge2" class="edge">
<title>main.config.ts&#45;&gt;main.logger.ts</title>
<path fill="none" stroke="#757575" d="M353,-160.09C361.33,-161.32 370.06,-162.61 378.61,-163.88"/>
<polygon fill="#757575" stroke="#757575" points="378.15,-167.35 388.55,-165.35 379.17,-160.42 378.15,-167.35"/>
</g>
<!-- src/resources.ts -->
<g id="node5" class="node">
<title>src/resources.ts</title>
<path fill="none" stroke="#cfffac" d="M2596.33,-269.25C2596.33,-269.25 2499.67,-269.25 2499.67,-269.25 2495.83,-269.25 2492,-265.42 2492,-261.59 2492,-261.59 2492,-253.92 2492,-253.92 2492,-250.09 2495.83,-246.25 2499.67,-246.25 2499.67,-246.25 2596.33,-246.25 2596.33,-246.25 2600.17,-246.25 2604,-250.09 2604,-253.92 2604,-253.92 2604,-261.59 2604,-261.59 2604,-265.42 2600.17,-269.25 2596.33,-269.25"/>
<text text-anchor="middle" x="2548" y="-254.05" font-family="Arial" font-size="14.00" fill="#cfffac">src/resources.ts</text>
</g>
<!-- main.config.ts&#45;&gt;src/resources.ts -->
<g id="edge4" class="edge">
<title>main.config.ts&#45;&gt;src/resources.ts</title>
<path fill="none" stroke="#757575" d="M317.36,-141.25C355,-111.21 463.28,-32.75 567.5,-32.75 567.5,-32.75 567.5,-32.75 1929.5,-32.75 2164.11,-32.75 2261.71,60.74 2456,-70.75 2513.52,-109.68 2535.98,-195.69 2543.59,-236.05"/>
<polygon fill="#757575" stroke="#757575" points="2540.15,-236.68 2545.32,-245.92 2547.04,-235.47 2540.15,-236.68"/>
</g>
<!-- main.logger.ts&#45;&gt;src/index.ts -->
<g id="edge7" class="edge">
<title>main.logger.ts&#45;&gt;src/index.ts</title>
<path fill="none" stroke="#757575" d="M477.23,-184.32C490.92,-188.63 506.65,-193.59 521.09,-198.14"/>
<polygon fill="#757575" stroke="#757575" points="520.26,-201.54 530.85,-201.21 522.36,-194.87 520.26,-201.54"/>
</g>
<!-- main.container.ts -->
<g id="node6" class="node">
<title>main.container.ts</title>
<path fill="none" stroke="#c6c5fe" d="M208.33,-224.25C208.33,-224.25 104.67,-224.25 104.67,-224.25 100.83,-224.25 97,-220.42 97,-216.59 97,-216.59 97,-208.92 97,-208.92 97,-205.09 100.83,-201.25 104.67,-201.25 104.67,-201.25 208.33,-201.25 208.33,-201.25 212.17,-201.25 216,-205.09 216,-208.92 216,-208.92 216,-216.59 216,-216.59 216,-220.42 212.17,-224.25 208.33,-224.25"/>
<text text-anchor="middle" x="156.5" y="-209.05" font-family="Arial" font-size="14.00" fill="#c6c5fe">main.container.ts</text>
</g>
<!-- main.container.ts&#45;&gt;src/index.ts -->
<g id="edge6" class="edge">
<title>main.container.ts&#45;&gt;src/index.ts</title>
<path fill="none" stroke="#757575" d="M216.24,-212.75C296.5,-212.75 439.16,-212.75 515.65,-212.75"/>
<polygon fill="#757575" stroke="#757575" points="515.99,-216.25 525.99,-212.75 515.99,-209.25 515.99,-216.25"/>
</g>
<!-- main.container.ts&#45;&gt;main.config.ts -->
<g id="edge5" class="edge">
<title>main.container.ts&#45;&gt;main.config.ts</title>
<path fill="none" stroke="#757575" d="M185.26,-201.18C207.78,-191.8 239.71,-178.5 264.41,-168.21"/>
<polygon fill="#757575" stroke="#757575" points="265.94,-171.36 273.82,-164.29 263.24,-164.9 265.94,-171.36"/>
</g>
<!-- main.ts -->
<g id="node7" class="node">
<title>main.ts</title>
<path fill="none" stroke="#c6c5fe" d="M53.33,-244.25C53.33,-244.25 7.67,-244.25 7.67,-244.25 3.83,-244.25 0,-240.42 0,-236.59 0,-236.59 0,-228.92 0,-228.92 0,-225.09 3.83,-221.25 7.67,-221.25 7.67,-221.25 53.33,-221.25 53.33,-221.25 57.17,-221.25 61,-225.09 61,-228.92 61,-228.92 61,-236.59 61,-236.59 61,-240.42 57.17,-244.25 53.33,-244.25"/>
<text text-anchor="middle" x="30.5" y="-229.05" font-family="Arial" font-size="14.00" fill="#c6c5fe">main.ts</text>
</g>
<!-- main.ts&#45;&gt;app.ts -->
<g id="edge8" class="edge">
<title>main.ts&#45;&gt;app.ts</title>
<path fill="none" stroke="#757575" d="M61.17,-234.95C111,-238.64 211.33,-246.07 265.25,-250.07"/>
<polygon fill="#757575" stroke="#757575" points="265.16,-253.57 275.39,-250.82 265.68,-246.59 265.16,-253.57"/>
</g>
<!-- main.ts&#45;&gt;main.container.ts -->
<g id="edge9" class="edge">
<title>main.ts&#45;&gt;main.container.ts</title>
<path fill="none" stroke="#757575" d="M61.2,-227.96C69.01,-226.7 77.77,-225.29 86.71,-223.85"/>
<polygon fill="#757575" stroke="#757575" points="87.54,-227.26 96.86,-222.21 86.43,-220.35 87.54,-227.26"/>
</g>
<!-- src/config.ts&#45;&gt;src/resources.ts -->
<g id="edge10" class="edge">
<title>src/config.ts&#45;&gt;src/resources.ts</title>
<path fill="none" stroke="#757575" d="M1586.6,-197.91C1636.19,-201.84 1718.39,-202.34 1781,-172.75 1801.74,-162.95 1795.92,-144.8 1817,-135.75 1872.39,-111.98 2404.66,-106.62 2456,-132.75 2498.8,-154.53 2526.22,-206.92 2538.86,-236.5"/>
<polygon fill="#757575" stroke="#757575" points="2535.69,-237.99 2542.71,-245.92 2542.16,-235.34 2535.69,-237.99"/>
</g>
<!-- src/constants.ts -->
<g id="node9" class="node">
<title>src/constants.ts</title>
<path fill="none" stroke="#cfffac" d="M2595.33,-329.25C2595.33,-329.25 2500.67,-329.25 2500.67,-329.25 2496.83,-329.25 2493,-325.42 2493,-321.59 2493,-321.59 2493,-313.92 2493,-313.92 2493,-310.09 2496.83,-306.25 2500.67,-306.25 2500.67,-306.25 2595.33,-306.25 2595.33,-306.25 2599.17,-306.25 2603,-310.09 2603,-313.92 2603,-313.92 2603,-321.59 2603,-321.59 2603,-325.42 2599.17,-329.25 2595.33,-329.25"/>
<text text-anchor="middle" x="2548" y="-314.05" font-family="Arial" font-size="14.00" fill="#cfffac">src/constants.ts</text>
</g>
<!-- src/core.ts&#45;&gt;src/config.ts -->
<g id="edge11" class="edge">
<title>src/core.ts&#45;&gt;src/config.ts</title>
<path fill="none" stroke="#757575" d="M726.16,-231.1C819.26,-227.11 1063.3,-216.53 1267,-206.75 1343.43,-203.08 1431.83,-198.51 1487.09,-195.61"/>
<polygon fill="#757575" stroke="#757575" points="1487.54,-199.09 1497.35,-195.07 1487.18,-192.1 1487.54,-199.09"/>
</g>
<!-- src/core.ts&#45;&gt;src/handlers/index.ts -->
<g id="edge12" class="edge">
<title>src/core.ts&#45;&gt;src/handlers/index.ts</title>
<path fill="none" stroke="#757575" d="M726.33,-243.58C742.71,-248.14 762,-253.52 779.54,-258.41"/>
<polygon fill="#757575" stroke="#757575" points="779.05,-261.9 789.62,-261.22 780.93,-255.16 779.05,-261.9"/>
</g>
<!-- src/handlers/authorize.handler.ts -->
<g id="node13" class="node">
<title>src/handlers/authorize.handler.ts</title>
<path fill="none" stroke="#c6c5fe" d="M1200.83,-284.25C1200.83,-284.25 1004.17,-284.25 1004.17,-284.25 1000.33,-284.25 996.5,-280.42 996.5,-276.59 996.5,-276.59 996.5,-268.92 996.5,-268.92 996.5,-265.09 1000.33,-261.25 1004.17,-261.25 1004.17,-261.25 1200.83,-261.25 1200.83,-261.25 1204.67,-261.25 1208.5,-265.09 1208.5,-268.92 1208.5,-268.92 1208.5,-276.59 1208.5,-276.59 1208.5,-280.42 1204.67,-284.25 1200.83,-284.25"/>
<text text-anchor="middle" x="1102.5" y="-269.05" font-family="Arial" font-size="14.00" fill="#c6c5fe">src/handlers/authorize.handler.ts</text>
</g>
<!-- src/handlers/index.ts&#45;&gt;src/handlers/authorize.handler.ts -->
<g id="edge23" class="edge">
<title>src/handlers/index.ts&#45;&gt;src/handlers/authorize.handler.ts</title>
<path fill="none" stroke="#757575" d="M902.15,-272.75C927.79,-272.75 957.62,-272.75 986.26,-272.75"/>
<polygon fill="#757575" stroke="#757575" points="986.34,-276.25 996.34,-272.75 986.34,-269.25 986.34,-276.25"/>
</g>
<!-- src/handlers/credentialOffer.handler.ts -->
<g id="node16" class="node">
<title>src/handlers/credentialOffer.handler.ts</title>
<path fill="none" stroke="#c6c5fe" d="M1217.33,-523.25C1217.33,-523.25 987.67,-523.25 987.67,-523.25 983.83,-523.25 980,-519.42 980,-515.59 980,-515.59 980,-507.92 980,-507.92 980,-504.09 983.83,-500.25 987.67,-500.25 987.67,-500.25 1217.33,-500.25 1217.33,-500.25 1221.17,-500.25 1225,-504.09 1225,-507.92 1225,-507.92 1225,-515.59 1225,-515.59 1225,-519.42 1221.17,-523.25 1217.33,-523.25"/>
<text text-anchor="middle" x="1102.5" y="-508.05" font-family="Arial" font-size="14.00" fill="#c6c5fe">src/handlers/credentialOffer.handler.ts</text>
</g>
<!-- src/handlers/index.ts&#45;&gt;src/handlers/credentialOffer.handler.ts -->
<g id="edge24" class="edge">
<title>src/handlers/index.ts&#45;&gt;src/handlers/credentialOffer.handler.ts</title>
<path fill="none" stroke="#757575" d="M844.35,-284.5C863.3,-303.96 902.76,-343.91 938,-375.75 986.79,-419.84 1046.82,-468.4 1078.84,-493.88"/>
<polygon fill="#757575" stroke="#757575" points="1076.72,-496.66 1086.73,-500.13 1081.07,-491.18 1076.72,-496.66"/>
</g>
<!-- src/handlers/oauthAuthorizationServer.handler.ts -->
<g id="node18" class="node">
<title>src/handlers/oauthAuthorizationServer.handler.ts</title>
<path fill="none" stroke="#c6c5fe" d="M1248.83,-164.25C1248.83,-164.25 956.17,-164.25 956.17,-164.25 952.33,-164.25 948.5,-160.42 948.5,-156.59 948.5,-156.59 948.5,-148.92 948.5,-148.92 948.5,-145.09 952.33,-141.25 956.17,-141.25 956.17,-141.25 1248.83,-141.25 1248.83,-141.25 1252.67,-141.25 1256.5,-145.09 1256.5,-148.92 1256.5,-148.92 1256.5,-156.59 1256.5,-156.59 1256.5,-160.42 1252.67,-164.25 1248.83,-164.25"/>
<text text-anchor="middle" x="1102.5" y="-149.05" font-family="Arial" font-size="14.00" fill="#c6c5fe">src/handlers/oauthAuthorizationServer.handler.ts</text>
</g>
<!-- src/handlers/index.ts&#45;&gt;src/handlers/oauthAuthorizationServer.handler.ts -->
<g id="edge25" class="edge">
<title>src/handlers/index.ts&#45;&gt;src/handlers/oauthAuthorizationServer.handler.ts</title>
<path fill="none" stroke="#757575" d="M858.74,-261.25C907.04,-239.66 1011.27,-193.08 1066.12,-168.57"/>
<polygon fill="#757575" stroke="#757575" points="1067.74,-171.68 1075.44,-164.4 1064.88,-165.28 1067.74,-171.68"/>
</g>
<!-- src/handlers/openidCredentialIssuer.handler.ts -->
<g id="node19" class="node">
<title>src/handlers/openidCredentialIssuer.handler.ts</title>
<path fill="none" stroke="#c6c5fe" d="M1241.83,-122.25C1241.83,-122.25 963.17,-122.25 963.17,-122.25 959.33,-122.25 955.5,-118.42 955.5,-114.59 955.5,-114.59 955.5,-106.92 955.5,-106.92 955.5,-103.09 959.33,-99.25 963.17,-99.25 963.17,-99.25 1241.83,-99.25 1241.83,-99.25 1245.67,-99.25 1249.5,-103.09 1249.5,-106.92 1249.5,-106.92 1249.5,-114.59 1249.5,-114.59 1249.5,-118.42 1245.67,-122.25 1241.83,-122.25"/>
<text text-anchor="middle" x="1102.5" y="-107.05" font-family="Arial" font-size="14.00" fill="#c6c5fe">src/handlers/openidCredentialIssuer.handler.ts</text>
</g>
<!-- src/handlers/index.ts&#45;&gt;src/handlers/openidCredentialIssuer.handler.ts -->
<g id="edge26" class="edge">
<title>src/handlers/index.ts&#45;&gt;src/handlers/openidCredentialIssuer.handler.ts</title>
<path fill="none" stroke="#757575" d="M837.8,-261.25C849.95,-233.71 884.8,-163.96 938,-132.75 942,-130.41 946.15,-128.27 950.41,-126.32"/>
<polygon fill="#757575" stroke="#757575" points="952.02,-129.44 959.9,-122.36 949.32,-122.98 952.02,-129.44"/>
</g>
<!-- src/handlers/pushedAuthorizationRequest.handler.ts -->
<g id="node20" class="node">
<title>src/handlers/pushedAuthorizationRequest.handler.ts</title>
<path fill="none" stroke="#c6c5fe" d="M1259.33,-366.25C1259.33,-366.25 945.67,-366.25 945.67,-366.25 941.83,-366.25 938,-362.42 938,-358.59 938,-358.59 938,-350.92 938,-350.92 938,-347.09 941.83,-343.25 945.67,-343.25 945.67,-343.25 1259.33,-343.25 1259.33,-343.25 1263.17,-343.25 1267,-347.09 1267,-350.92 1267,-350.92 1267,-358.59 1267,-358.59 1267,-362.42 1263.17,-366.25 1259.33,-366.25"/>
<text text-anchor="middle" x="1102.5" y="-351.05" font-family="Arial" font-size="14.00" fill="#c6c5fe">src/handlers/pushedAuthorizationRequest.handler.ts</text>
</g>
<!-- src/handlers/index.ts&#45;&gt;src/handlers/pushedAuthorizationRequest.handler.ts -->
<g id="edge27" class="edge">
<title>src/handlers/index.ts&#45;&gt;src/handlers/pushedAuthorizationRequest.handler.ts</title>
<path fill="none" stroke="#757575" d="M848.02,-284.36C867.56,-298.8 903.32,-322.97 938,-334.75 944.55,-336.98 951.32,-338.96 958.21,-340.73"/>
<polygon fill="#757575" stroke="#757575" points="957.85,-344.24 968.39,-343.17 959.48,-337.43 957.85,-344.24"/>
</g>
<!-- src/handlers/token.handler.ts -->
<g id="node21" class="node">
<title>src/handlers/token.handler.ts</title>
<path fill="none" stroke="#c6c5fe" d="M1189.33,-325.25C1189.33,-325.25 1015.67,-325.25 1015.67,-325.25 1011.83,-325.25 1008,-321.42 1008,-317.59 1008,-317.59 1008,-309.92 1008,-309.92 1008,-306.09 1011.83,-302.25 1015.67,-302.25 1015.67,-302.25 1189.33,-302.25 1189.33,-302.25 1193.17,-302.25 1197,-306.09 1197,-309.92 1197,-309.92 1197,-317.59 1197,-317.59 1197,-321.42 1193.17,-325.25 1189.33,-325.25"/>
<text text-anchor="middle" x="1102.5" y="-310.05" font-family="Arial" font-size="14.00" fill="#c6c5fe">src/handlers/token.handler.ts</text>
</g>
<!-- src/handlers/index.ts&#45;&gt;src/handlers/token.handler.ts -->
<g id="edge28" class="edge">
<title>src/handlers/index.ts&#45;&gt;src/handlers/token.handler.ts</title>
<path fill="none" stroke="#757575" d="M886.54,-284.27C903,-287.6 921.21,-291.05 938,-293.75 957.32,-296.86 978,-299.74 997.92,-302.28"/>
<polygon fill="#757575" stroke="#757575" points="997.59,-305.77 1007.95,-303.54 998.46,-298.82 997.59,-305.77"/>
</g>
<!-- src/errors.ts -->
<g id="node12" class="node">
<title>src/errors.ts</title>
<path fill="none" stroke="#cfffac" d="M2584.33,-544.25C2584.33,-544.25 2511.67,-544.25 2511.67,-544.25 2507.83,-544.25 2504,-540.42 2504,-536.59 2504,-536.59 2504,-528.92 2504,-528.92 2504,-525.09 2507.83,-521.25 2511.67,-521.25 2511.67,-521.25 2584.33,-521.25 2584.33,-521.25 2588.17,-521.25 2592,-525.09 2592,-528.92 2592,-528.92 2592,-536.59 2592,-536.59 2592,-540.42 2588.17,-544.25 2584.33,-544.25"/>
<text text-anchor="middle" x="2548" y="-529.05" font-family="Arial" font-size="14.00" fill="#cfffac">src/errors.ts</text>
</g>
<!-- src/handlers/authorize.handler.ts&#45;&gt;src/resources.ts -->
<g id="edge16" class="edge">
<title>src/handlers/authorize.handler.ts&#45;&gt;src/resources.ts</title>
<path fill="none" stroke="#757575" d="M1208.59,-276.06C1387.11,-280.79 1734.83,-285.79 1781,-254.75 1814.03,-232.55 1783.93,-194.9 1817,-172.75 1912.67,-108.68 1960.87,-168.09 2076,-166.75 2244.88,-164.8 2299.97,-102.12 2456,-166.75 2490.47,-181.03 2518.69,-215.4 2534.15,-237.58"/>
<polygon fill="#757575" stroke="#757575" points="2531.31,-239.62 2539.79,-245.96 2537.11,-235.71 2531.31,-239.62"/>
</g>
<!-- src/handlers/authorize.handler.ts&#45;&gt;src/config.ts -->
<g id="edge13" class="edge">
<title>src/handlers/authorize.handler.ts&#45;&gt;src/config.ts</title>
<path fill="none" stroke="#757575" d="M1208.75,-265.29C1228.74,-261.32 1249.01,-255.44 1267,-246.75 1286.55,-237.31 1283.14,-222.5 1303,-213.75 1362.01,-187.76 1437.1,-185.59 1487,-187.89"/>
<polygon fill="#757575" stroke="#757575" points="1487.07,-191.4 1497.25,-188.45 1487.45,-184.41 1487.07,-191.4"/>
</g>
<!-- src/handlers/authorize.handler.ts&#45;&gt;src/errors.ts -->
<g id="edge14" class="edge">
<title>src/handlers/authorize.handler.ts&#45;&gt;src/errors.ts</title>
<path fill="none" stroke="#757575" d="M1208.63,-270.34C1229.51,-274.05 1250.16,-281.15 1267,-293.75 1298.87,-317.6 1272.04,-350.74 1303,-375.75 1371.2,-430.83 1988.78,-524.93 2076,-533.75 2226.88,-549.01 2406.35,-541.64 2493.79,-536.41"/>
<polygon fill="#757575" stroke="#757575" points="2494.23,-539.89 2503.99,-535.79 2493.8,-532.91 2494.23,-539.89"/>
</g>
<!-- src/handlers/schemas/authorizeHandlerConfig.schema.ts -->
<g id="node14" class="node">
<title>src/handlers/schemas/authorizeHandlerConfig.schema.ts</title>
<path fill="none" stroke="#cfffac" d="M1714.33,-245.25C1714.33,-245.25 1369.67,-245.25 1369.67,-245.25 1365.83,-245.25 1362,-241.42 1362,-237.59 1362,-237.59 1362,-229.92 1362,-229.92 1362,-226.09 1365.83,-222.25 1369.67,-222.25 1369.67,-222.25 1714.33,-222.25 1714.33,-222.25 1718.17,-222.25 1722,-226.09 1722,-229.92 1722,-229.92 1722,-237.59 1722,-237.59 1722,-241.42 1718.17,-245.25 1714.33,-245.25"/>
<text text-anchor="middle" x="1542" y="-230.05" font-family="Arial" font-size="14.00" fill="#cfffac">src/handlers/schemas/authorizeHandlerConfig.schema.ts</text>
</g>
<!-- src/handlers/authorize.handler.ts&#45;&gt;src/handlers/schemas/authorizeHandlerConfig.schema.ts -->
<g id="edge15" class="edge">
<title>src/handlers/authorize.handler.ts&#45;&gt;src/handlers/schemas/authorizeHandlerConfig.schema.ts</title>
<path fill="none" stroke="#757575" d="M1208.57,-263.39C1266.41,-258.23 1338.92,-251.77 1401.46,-246.19"/>
<polygon fill="#757575" stroke="#757575" points="1402.15,-249.64 1411.8,-245.27 1401.53,-242.67 1402.15,-249.64"/>
</g>
<!-- src/statements/index.ts -->
<g id="node15" class="node">
<title>src/statements/index.ts</title>
<path fill="none" stroke="#c6c5fe" d="M1611.83,-366.25C1611.83,-366.25 1472.17,-366.25 1472.17,-366.25 1468.33,-366.25 1464.5,-362.42 1464.5,-358.59 1464.5,-358.59 1464.5,-350.92 1464.5,-350.92 1464.5,-347.09 1468.33,-343.25 1472.17,-343.25 1472.17,-343.25 1611.83,-343.25 1611.83,-343.25 1615.67,-343.25 1619.5,-347.09 1619.5,-350.92 1619.5,-350.92 1619.5,-358.59 1619.5,-358.59 1619.5,-362.42 1615.67,-366.25 1611.83,-366.25"/>
<text text-anchor="middle" x="1542" y="-351.05" font-family="Arial" font-size="14.00" fill="#c6c5fe">src/statements/index.ts</text>
</g>
<!-- src/handlers/authorize.handler.ts&#45;&gt;src/statements/index.ts -->
<g id="edge17" class="edge">
<title>src/handlers/authorize.handler.ts&#45;&gt;src/statements/index.ts</title>
<path fill="none" stroke="#757575" d="M1208.57,-274.92C1228.79,-278.42 1249.19,-284.27 1267,-293.75 1288.41,-305.14 1281.35,-323.83 1303,-334.75 1349.31,-358.1 1407.18,-363.41 1454.26,-362.73"/>
<polygon fill="#757575" stroke="#757575" points="1454.52,-366.23 1464.44,-362.49 1454.36,-359.23 1454.52,-366.23"/>
</g>
<!-- src/statements/grants/index.ts -->
<g id="node27" class="node">
<title>src/statements/grants/index.ts</title>
<path fill="none" stroke="#c6c5fe" d="M2019.33,-401.25C2019.33,-401.25 1837.67,-401.25 1837.67,-401.25 1833.83,-401.25 1830,-397.42 1830,-393.59 1830,-393.59 1830,-385.92 1830,-385.92 1830,-382.09 1833.83,-378.25 1837.67,-378.25 1837.67,-378.25 2019.33,-378.25 2019.33,-378.25 2023.17,-378.25 2027,-382.09 2027,-385.92 2027,-385.92 2027,-393.59 2027,-393.59 2027,-397.42 2023.17,-401.25 2019.33,-401.25"/>
<text text-anchor="middle" x="1928.5" y="-386.05" font-family="Arial" font-size="14.00" fill="#c6c5fe">src/statements/grants/index.ts</text>
</g>
<!-- src/statements/index.ts&#45;&gt;src/statements/grants/index.ts -->
<g id="edge46" class="edge">
<title>src/statements/index.ts&#45;&gt;src/statements/grants/index.ts</title>
<path fill="none" stroke="#757575" d="M1619.89,-361.75C1677.2,-366.97 1756.21,-374.16 1819.81,-379.95"/>
<polygon fill="#757575" stroke="#757575" points="1819.6,-383.44 1829.88,-380.87 1820.24,-376.47 1819.6,-383.44"/>
</g>
<!-- src/statements/locations/index.ts -->
<g id="node28" class="node">
<title>src/statements/locations/index.ts</title>
<path fill="none" stroke="#c6c5fe" d="M2026.83,-360.25C2026.83,-360.25 1830.17,-360.25 1830.17,-360.25 1826.33,-360.25 1822.5,-356.42 1822.5,-352.59 1822.5,-352.59 1822.5,-344.92 1822.5,-344.92 1822.5,-341.09 1826.33,-337.25 1830.17,-337.25 1830.17,-337.25 2026.83,-337.25 2026.83,-337.25 2030.67,-337.25 2034.5,-341.09 2034.5,-344.92 2034.5,-344.92 2034.5,-352.59 2034.5,-352.59 2034.5,-356.42 2030.67,-360.25 2026.83,-360.25"/>
<text text-anchor="middle" x="1928.5" y="-345.05" font-family="Arial" font-size="14.00" fill="#c6c5fe">src/statements/locations/index.ts</text>
</g>
<!-- src/statements/index.ts&#45;&gt;src/statements/locations/index.ts -->
<g id="edge47" class="edge">
<title>src/statements/index.ts&#45;&gt;src/statements/locations/index.ts</title>
<path fill="none" stroke="#757575" d="M1619.89,-353.55C1674.9,-352.69 1749.91,-351.52 1812.09,-350.55"/>
<polygon fill="#757575" stroke="#757575" points="1812.4,-354.05 1822.35,-350.39 1812.29,-347.05 1812.4,-354.05"/>
</g>
<!-- src/statements/resources/index.ts -->
<g id="node29" class="node">
<title>src/statements/resources/index.ts</title>
<path fill="none" stroke="#c6c5fe" d="M2029.83,-265.25C2029.83,-265.25 1827.17,-265.25 1827.17,-265.25 1823.33,-265.25 1819.5,-261.42 1819.5,-257.59 1819.5,-257.59 1819.5,-249.92 1819.5,-249.92 1819.5,-246.09 1823.33,-242.25 1827.17,-242.25 1827.17,-242.25 2029.83,-242.25 2029.83,-242.25 2033.67,-242.25 2037.5,-246.09 2037.5,-249.92 2037.5,-249.92 2037.5,-257.59 2037.5,-257.59 2037.5,-261.42 2033.67,-265.25 2029.83,-265.25"/>
<text text-anchor="middle" x="1928.5" y="-250.05" font-family="Arial" font-size="14.00" fill="#c6c5fe">src/statements/resources/index.ts</text>
</g>
<!-- src/statements/index.ts&#45;&gt;src/statements/resources/index.ts -->
<g id="edge48" class="edge">
<title>src/statements/index.ts&#45;&gt;src/statements/resources/index.ts</title>
<path fill="none" stroke="#757575" d="M1619.69,-363.25C1668.59,-365.18 1731.79,-361 1781,-334.75 1803.6,-322.7 1795.94,-304.33 1817,-289.75 1830.33,-280.53 1846.17,-273.55 1861.64,-268.31"/>
<polygon fill="#757575" stroke="#757575" points="1862.72,-271.64 1871.19,-265.27 1860.6,-264.97 1862.72,-271.64"/>
</g>
<!-- src/statements/tokens/index.ts -->
<g id="node30" class="node">
<title>src/statements/tokens/index.ts</title>
<path fill="none" stroke="#c6c5fe" d="M2020.33,-204.25C2020.33,-204.25 1836.67,-204.25 1836.67,-204.25 1832.83,-204.25 1829,-200.42 1829,-196.59 1829,-196.59 1829,-188.92 1829,-188.92 1829,-185.09 1832.83,-181.25 1836.67,-181.25 1836.67,-181.25 2020.33,-181.25 2020.33,-181.25 2024.17,-181.25 2028,-185.09 2028,-188.92 2028,-188.92 2028,-196.59 2028,-196.59 2028,-200.42 2024.17,-204.25 2020.33,-204.25"/>
<text text-anchor="middle" x="1928.5" y="-189.05" font-family="Arial" font-size="14.00" fill="#c6c5fe">src/statements/tokens/index.ts</text>
</g>
<!-- src/statements/index.ts&#45;&gt;src/statements/tokens/index.ts -->
<g id="edge49" class="edge">
<title>src/statements/index.ts&#45;&gt;src/statements/tokens/index.ts</title>
<path fill="none" stroke="#757575" d="M1601.89,-366.28C1654.31,-373.03 1730.32,-373.77 1781,-334.75 1818.76,-305.68 1783.52,-267.67 1817,-233.75 1828.49,-222.11 1843.57,-213.75 1858.89,-207.74"/>
<polygon fill="#757575" stroke="#757575" points="1860.2,-210.99 1868.42,-204.3 1857.83,-204.4 1860.2,-210.99"/>
</g>
<!-- src/statements/validations/index.ts -->
<g id="node31" class="node">
<title>src/statements/validations/index.ts</title>
<path fill="none" stroke="#c6c5fe" d="M2032.33,-442.25C2032.33,-442.25 1824.67,-442.25 1824.67,-442.25 1820.83,-442.25 1817,-438.42 1817,-434.59 1817,-434.59 1817,-426.92 1817,-426.92 1817,-423.09 1820.83,-419.25 1824.67,-419.25 1824.67,-419.25 2032.33,-419.25 2032.33,-419.25 2036.17,-419.25 2040,-423.09 2040,-426.92 2040,-426.92 2040,-434.59 2040,-434.59 2040,-438.42 2036.17,-442.25 2032.33,-442.25"/>
<text text-anchor="middle" x="1928.5" y="-427.05" font-family="Arial" font-size="14.00" fill="#c6c5fe">src/statements/validations/index.ts</text>
</g>
<!-- src/statements/index.ts&#45;&gt;src/statements/validations/index.ts -->
<g id="edge50" class="edge">
<title>src/statements/index.ts&#45;&gt;src/statements/validations/index.ts</title>
<path fill="none" stroke="#757575" d="M1597.51,-366.27C1652.76,-377.85 1740.72,-396.06 1817,-410.75 1828.44,-412.96 1840.56,-415.22 1852.42,-417.4"/>
<polygon fill="#757575" stroke="#757575" points="1851.84,-420.85 1862.31,-419.2 1853.1,-413.96 1851.84,-420.85"/>
</g>
<!-- src/handlers/credentialOffer.handler.ts&#45;&gt;src/resources.ts -->
<g id="edge21" class="edge">
<title>src/handlers/credentialOffer.handler.ts&#45;&gt;src/resources.ts</title>
<path fill="none" stroke="#757575" d="M1129.94,-523.35C1167.53,-539.13 1238.96,-566.58 1303,-576.75 1512.82,-610.07 1620.35,-715.76 1781,-576.75 1865.22,-503.87 1738.75,-408.01 1817,-328.75 1863.27,-281.88 2311.57,-264.4 2481.84,-259.41"/>
<polygon fill="#757575" stroke="#757575" points="2482.03,-262.91 2491.92,-259.12 2481.83,-255.91 2482.03,-262.91"/>
</g>
<!-- src/handlers/credentialOffer.handler.ts&#45;&gt;src/config.ts -->
<g id="edge18" class="edge">
<title>src/handlers/credentialOffer.handler.ts&#45;&gt;src/config.ts</title>
<path fill="none" stroke="#757575" d="M1125.18,-500.12C1160.75,-479.85 1231.14,-434.53 1267,-375.75 1305.41,-312.79 1247.55,-262.39 1303,-213.75 1353.09,-169.81 1434.04,-172.75 1487.39,-181.03"/>
<polygon fill="#757575" stroke="#757575" points="1486.91,-184.5 1497.34,-182.69 1488.06,-177.6 1486.91,-184.5"/>
</g>
<!-- src/handlers/credentialOffer.handler.ts&#45;&gt;src/errors.ts -->
<g id="edge19" class="edge">
<title>src/handlers/credentialOffer.handler.ts&#45;&gt;src/errors.ts</title>
<path fill="none" stroke="#757575" d="M1115.16,-523.6C1143.89,-551.85 1221.69,-622.67 1303,-647.75 1401.15,-678.03 2383.36,-677.26 2456,-642.75 2494.91,-624.27 2522.93,-580.18 2536.91,-553.78"/>
<polygon fill="#757575" stroke="#757575" points="2540.16,-555.11 2541.58,-544.61 2533.92,-551.94 2540.16,-555.11"/>
</g>
<!-- src/handlers/credentialOffer.handler.ts&#45;&gt;src/statements/index.ts -->
<g id="edge22" class="edge">
<title>src/handlers/credentialOffer.handler.ts&#45;&gt;src/statements/index.ts</title>
<path fill="none" stroke="#757575" d="M1135.67,-500.21C1213.58,-472.25 1412.33,-400.93 1499.24,-369.74"/>
<polygon fill="#757575" stroke="#757575" points="1500.55,-372.99 1508.78,-366.31 1498.19,-366.4 1500.55,-372.99"/>
</g>
<!-- src/handlers/schemas/credentialOfferHandlerConfig.schema.ts -->
<g id="node17" class="node">
<title>src/handlers/schemas/credentialOfferHandlerConfig.schema.ts</title>
<path fill="none" stroke="#cfffac" d="M1731.33,-723.25C1731.33,-723.25 1352.67,-723.25 1352.67,-723.25 1348.83,-723.25 1345,-719.42 1345,-715.59 1345,-715.59 1345,-707.92 1345,-707.92 1345,-704.09 1348.83,-700.25 1352.67,-700.25 1352.67,-700.25 1731.33,-700.25 1731.33,-700.25 1735.17,-700.25 1739,-704.09 1739,-707.92 1739,-707.92 1739,-715.59 1739,-715.59 1739,-719.42 1735.17,-723.25 1731.33,-723.25"/>
<text text-anchor="middle" x="1542" y="-708.05" font-family="Arial" font-size="14.00" fill="#cfffac">src/handlers/schemas/credentialOfferHandlerConfig.schema.ts</text>
</g>
<!-- src/handlers/credentialOffer.handler.ts&#45;&gt;src/handlers/schemas/credentialOfferHandlerConfig.schema.ts -->
<g id="edge20" class="edge">
<title>src/handlers/credentialOffer.handler.ts&#45;&gt;src/handlers/schemas/credentialOfferHandlerConfig.schema.ts</title>
<path fill="none" stroke="#757575" d="M1112.31,-523.29C1137.73,-555.62 1215.02,-647.2 1303,-685.75 1313.38,-690.3 1324.25,-694.18 1335.38,-697.47"/>
<polygon fill="#757575" stroke="#757575" points="1334.66,-700.9 1345.23,-700.21 1336.54,-694.16 1334.66,-700.9"/>
</g>
<!-- src/handlers/oauthAuthorizationServer.handler.ts&#45;&gt;src/config.ts -->
<g id="edge29" class="edge">
<title>src/handlers/oauthAuthorizationServer.handler.ts&#45;&gt;src/config.ts</title>
<path fill="none" stroke="#757575" d="M1215.05,-164.25C1243.71,-167.12 1274.49,-170.13 1303,-172.75 1366.09,-178.56 1438.65,-184.56 1486.9,-188.46"/>
<polygon fill="#757575" stroke="#757575" points="1486.87,-191.96 1497.12,-189.28 1487.43,-184.99 1486.87,-191.96"/>
</g>
<!-- src/handlers/schemas/oauthAuthorizationServerHandlerConfig.schema.ts -->
<g id="node22" class="node">
<title>src/handlers/schemas/oauthAuthorizationServerHandlerConfig.schema.ts</title>
<path fill="none" stroke="#cfffac" d="M1762.83,-163.25C1762.83,-163.25 1321.17,-163.25 1321.17,-163.25 1317.33,-163.25 1313.5,-159.42 1313.5,-155.59 1313.5,-155.59 1313.5,-147.92 1313.5,-147.92 1313.5,-144.09 1317.33,-140.25 1321.17,-140.25 1321.17,-140.25 1762.83,-140.25 1762.83,-140.25 1766.67,-140.25 1770.5,-144.09 1770.5,-147.92 1770.5,-147.92 1770.5,-155.59 1770.5,-155.59 1770.5,-159.42 1766.67,-163.25 1762.83,-163.25"/>
<text text-anchor="middle" x="1542" y="-148.05" font-family="Arial" font-size="14.00" fill="#cfffac">src/handlers/schemas/oauthAuthorizationServerHandlerConfig.schema.ts</text>
</g>
<!-- src/handlers/oauthAuthorizationServer.handler.ts&#45;&gt;src/handlers/schemas/oauthAuthorizationServerHandlerConfig.schema.ts -->
<g id="edge30" class="edge">
<title>src/handlers/oauthAuthorizationServer.handler.ts&#45;&gt;src/handlers/schemas/oauthAuthorizationServerHandlerConfig.schema.ts</title>
<path fill="none" stroke="#757575" d="M1256.52,-152.4C1271.68,-152.37 1287.3,-152.33 1303.06,-152.3"/>
<polygon fill="#757575" stroke="#757575" points="1303.44,-155.8 1313.43,-152.27 1303.42,-148.8 1303.44,-155.8"/>
</g>
<!-- src/handlers/openidCredentialIssuer.handler.ts&#45;&gt;src/resources.ts -->
<g id="edge33" class="edge">
<title>src/handlers/openidCredentialIssuer.handler.ts&#45;&gt;src/resources.ts</title>
<path fill="none" stroke="#757575" d="M1193.72,-99.23C1227.89,-95.4 1267.18,-91.63 1303,-89.75 1430.96,-83.04 2345.05,-46.66 2456,-110.75 2504.08,-138.52 2530.19,-202.91 2540.98,-236.5"/>
<polygon fill="#757575" stroke="#757575" points="2537.68,-237.7 2543.95,-246.24 2544.38,-235.65 2537.68,-237.7"/>
</g>
<!-- src/handlers/openidCredentialIssuer.handler.ts&#45;&gt;src/config.ts -->
<g id="edge31" class="edge">
<title>src/handlers/openidCredentialIssuer.handler.ts&#45;&gt;src/config.ts</title>
<path fill="none" stroke="#757575" d="M1242.19,-122.25C1250.8,-125.14 1259.15,-128.61 1267,-132.75 1288.15,-143.92 1281.58,-162.11 1303,-172.75 1361.02,-201.57 1436.87,-202.66 1487.17,-199.13"/>
<polygon fill="#757575" stroke="#757575" points="1487.5,-202.62 1497.19,-198.35 1486.95,-195.64 1487.5,-202.62"/>
</g>
<!-- src/handlers/schemas/openidCredentialIssuerHandlerConfig.schema.ts -->
<g id="node23" class="node">
<title>src/handlers/schemas/openidCredentialIssuerHandlerConfig.schema.ts</title>
<path fill="none" stroke="#cfffac" d="M1755.83,-122.25C1755.83,-122.25 1328.17,-122.25 1328.17,-122.25 1324.33,-122.25 1320.5,-118.42 1320.5,-114.59 1320.5,-114.59 1320.5,-106.92 1320.5,-106.92 1320.5,-103.09 1324.33,-99.25 1328.17,-99.25 1328.17,-99.25 1755.83,-99.25 1755.83,-99.25 1759.67,-99.25 1763.5,-103.09 1763.5,-106.92 1763.5,-106.92 1763.5,-114.59 1763.5,-114.59 1763.5,-118.42 1759.67,-122.25 1755.83,-122.25"/>
<text text-anchor="middle" x="1542" y="-107.05" font-family="Arial" font-size="14.00" fill="#cfffac">src/handlers/schemas/openidCredentialIssuerHandlerConfig.schema.ts</text>
</g>
<!-- src/handlers/openidCredentialIssuer.handler.ts&#45;&gt;src/handlers/schemas/openidCredentialIssuerHandlerConfig.schema.ts -->
<g id="edge32" class="edge">
<title>src/handlers/openidCredentialIssuer.handler.ts&#45;&gt;src/handlers/schemas/openidCredentialIssuerHandlerConfig.schema.ts</title>
<path fill="none" stroke="#757575" d="M1249.79,-110.75C1269.32,-110.75 1289.72,-110.75 1310.27,-110.75"/>
<polygon fill="#757575" stroke="#757575" points="1310.36,-114.25 1320.36,-110.75 1310.36,-107.25 1310.36,-114.25"/>
</g>
<!-- src/handlers/pushedAuthorizationRequest.handler.ts&#45;&gt;src/config.ts -->
<g id="edge34" class="edge">
<title>src/handlers/pushedAuthorizationRequest.handler.ts&#45;&gt;src/config.ts</title>
<path fill="none" stroke="#757575" d="M1255.22,-343.21C1259.35,-340.7 1263.29,-337.89 1267,-334.75 1309.85,-298.54 1259.54,-249.24 1303,-213.75 1354.35,-171.81 1434.37,-174.06 1487.23,-181.66"/>
<polygon fill="#757575" stroke="#757575" points="1487,-185.17 1497.42,-183.24 1488.07,-178.25 1487,-185.17"/>
</g>
<!-- src/handlers/pushedAuthorizationRequest.handler.ts&#45;&gt;src/errors.ts -->
<g id="edge35" class="edge">
<title>src/handlers/pushedAuthorizationRequest.handler.ts&#45;&gt;src/errors.ts</title>
<path fill="none" stroke="#757575" d="M1122.42,-366.26C1155.73,-387.37 1225.26,-435.34 1267,-491.75 1291.4,-524.73 1269.21,-553.48 1303,-576.75 1408.53,-649.45 2334.96,-646.84 2456,-604.75 2486.03,-594.31 2513.62,-569.38 2530.37,-551.79"/>
<polygon fill="#757575" stroke="#757575" points="2533.06,-554.03 2537.27,-544.3 2527.91,-549.28 2533.06,-554.03"/>
</g>
<!-- src/handlers/pushedAuthorizationRequest.handler.ts&#45;&gt;src/statements/index.ts -->
<g id="edge37" class="edge">
<title>src/handlers/pushedAuthorizationRequest.handler.ts&#45;&gt;src/statements/index.ts</title>
<path fill="none" stroke="#757575" d="M1267.03,-354.75C1330.65,-354.75 1400.93,-354.75 1454.38,-354.75"/>
<polygon fill="#757575" stroke="#757575" points="1454.5,-358.25 1464.5,-354.75 1454.5,-351.25 1454.5,-358.25"/>
</g>
<!-- src/handlers/schemas/pushedAuthorizationRequestHandlerConfig.schema.ts -->
<g id="node24" class="node">
<title>src/handlers/schemas/pushedAuthorizationRequestHandlerConfig.schema.ts</title>
<path fill="none" stroke="#cfffac" d="M1773.33,-567.25C1773.33,-567.25 1310.67,-567.25 1310.67,-567.25 1306.83,-567.25 1303,-563.42 1303,-559.59 1303,-559.59 1303,-551.92 1303,-551.92 1303,-548.09 1306.83,-544.25 1310.67,-544.25 1310.67,-544.25 1773.33,-544.25 1773.33,-544.25 1777.17,-544.25 1781,-548.09 1781,-551.92 1781,-551.92 1781,-559.59 1781,-559.59 1781,-563.42 1777.17,-567.25 1773.33,-567.25"/>
<text text-anchor="middle" x="1542" y="-552.05" font-family="Arial" font-size="14.00" fill="#cfffac">src/handlers/schemas/pushedAuthorizationRequestHandlerConfig.schema.ts</text>
</g>
<!-- src/handlers/pushedAuthorizationRequest.handler.ts&#45;&gt;src/handlers/schemas/pushedAuthorizationRequestHandlerConfig.schema.ts -->
<g id="edge36" class="edge">
<title>src/handlers/pushedAuthorizationRequest.handler.ts&#45;&gt;src/handlers/schemas/pushedAuthorizationRequestHandlerConfig.schema.ts</title>
<path fill="none" stroke="#757575" d="M1118.42,-366.3C1147.76,-389.23 1214.67,-442.52 1267,-491.75 1283.94,-507.69 1282.16,-519.41 1303,-529.75 1311.64,-534.04 1320.66,-537.76 1329.93,-540.99"/>
<polygon fill="#757575" stroke="#757575" points="1329.09,-544.39 1339.68,-544.17 1331.26,-537.74 1329.09,-544.39"/>
</g>
<!-- src/handlers/token.handler.ts&#45;&gt;src/config.ts -->
<g id="edge38" class="edge">
<title>src/handlers/token.handler.ts&#45;&gt;src/config.ts</title>
<path fill="none" stroke="#757575" d="M1197.42,-318.35C1221.96,-315.46 1247.08,-308.42 1267,-293.75 1298.39,-270.63 1271.22,-236.34 1303,-213.75 1356.72,-175.56 1435.45,-176.69 1487.45,-183.04"/>
<polygon fill="#757575" stroke="#757575" points="1487.1,-186.53 1497.47,-184.37 1488.02,-179.59 1487.1,-186.53"/>
</g>
<!-- src/handlers/token.handler.ts&#45;&gt;src/errors.ts -->
<g id="edge39" class="edge">
<title>src/handlers/token.handler.ts&#45;&gt;src/errors.ts</title>
<path fill="none" stroke="#757575" d="M1197.37,-307.06C1222.62,-309.89 1248.13,-317.64 1267,-334.75 1320.03,-382.84 1249.11,-444.62 1303,-491.75 1343.15,-526.86 1727.92,-530.52 1781,-535.75 1912.2,-548.68 1944.35,-559.85 2076,-566.75 2244.66,-575.59 2289.8,-596.79 2456,-566.75 2475.84,-563.17 2496.99,-555.52 2513.91,-548.38"/>
<polygon fill="#757575" stroke="#757575" points="2515.56,-551.47 2523.33,-544.27 2512.77,-545.06 2515.56,-551.47"/>
</g>
<!-- src/handlers/token.handler.ts&#45;&gt;src/statements/index.ts -->
<g id="edge41" class="edge">
<title>src/handlers/token.handler.ts&#45;&gt;src/statements/index.ts</title>
<path fill="none" stroke="#757575" d="M1197.08,-324.01C1230.49,-327.57 1268.41,-331.48 1303,-334.75 1353.08,-339.49 1409.15,-344.23 1454.28,-347.91"/>
<polygon fill="#757575" stroke="#757575" points="1454.08,-351.4 1464.33,-348.72 1454.64,-344.42 1454.08,-351.4"/>
</g>
<!-- src/handlers/schemas/tokenHandlerConfig.schema.ts -->
<g id="node25" class="node">
<title>src/handlers/schemas/tokenHandlerConfig.schema.ts</title>
<path fill="none" stroke="#cfffac" d="M1703.33,-325.25C1703.33,-325.25 1380.67,-325.25 1380.67,-325.25 1376.83,-325.25 1373,-321.42 1373,-317.59 1373,-317.59 1373,-309.92 1373,-309.92 1373,-306.09 1376.83,-302.25 1380.67,-302.25 1380.67,-302.25 1703.33,-302.25 1703.33,-302.25 1707.17,-302.25 1711,-306.09 1711,-309.92 1711,-309.92 1711,-317.59 1711,-317.59 1711,-321.42 1707.17,-325.25 1703.33,-325.25"/>
<text text-anchor="middle" x="1542" y="-310.05" font-family="Arial" font-size="14.00" fill="#cfffac">src/handlers/schemas/tokenHandlerConfig.schema.ts</text>
</g>
<!-- src/handlers/token.handler.ts&#45;&gt;src/handlers/schemas/tokenHandlerConfig.schema.ts -->
<g id="edge40" class="edge">
<title>src/handlers/token.handler.ts&#45;&gt;src/handlers/schemas/tokenHandlerConfig.schema.ts</title>
<path fill="none" stroke="#757575" d="M1197.09,-313.75C1245.39,-313.75 1305.97,-313.75 1362.78,-313.75"/>
<polygon fill="#757575" stroke="#757575" points="1362.96,-317.25 1372.96,-313.75 1362.96,-310.25 1362.96,-317.25"/>
</g>
<!-- src/statements/grants/generateIssuerGrants.ts -->
<g id="node26" class="node">
<title>src/statements/grants/generateIssuerGrants.ts</title>
<path fill="none" stroke="#cfffac" d="M2406.33,-401.25C2406.33,-401.25 2125.67,-401.25 2125.67,-401.25 2121.83,-401.25 2118,-397.42 2118,-393.59 2118,-393.59 2118,-385.92 2118,-385.92 2118,-382.09 2121.83,-378.25 2125.67,-378.25 2125.67,-378.25 2406.33,-378.25 2406.33,-378.25 2410.17,-378.25 2414,-382.09 2414,-385.92 2414,-385.92 2414,-393.59 2414,-393.59 2414,-397.42 2410.17,-401.25 2406.33,-401.25"/>
<text text-anchor="middle" x="2266" y="-386.05" font-family="Arial" font-size="14.00" fill="#cfffac">src/statements/grants/generateIssuerGrants.ts</text>
</g>
<!-- src/statements/grants/index.ts&#45;&gt;src/statements/grants/generateIssuerGrants.ts -->
<g id="edge45" class="edge">
<title>src/statements/grants/index.ts&#45;&gt;src/statements/grants/generateIssuerGrants.ts</title>
<path fill="none" stroke="#757575" d="M2027.44,-389.75C2052.68,-389.75 2080.48,-389.75 2107.9,-389.75"/>
<polygon fill="#757575" stroke="#757575" points="2107.98,-393.25 2117.98,-389.75 2107.98,-386.25 2107.98,-393.25"/>
</g>
<!-- src/statements/locations/generateAuthorizationRequestUri.ts -->
<g id="node32" class="node">
<title>src/statements/locations/generateAuthorizationRequestUri.ts</title>
<path fill="none" stroke="#c6c5fe" d="M2448.33,-319.25C2448.33,-319.25 2083.67,-319.25 2083.67,-319.25 2079.83,-319.25 2076,-315.42 2076,-311.59 2076,-311.59 2076,-303.92 2076,-303.92 2076,-300.09 2079.83,-296.25 2083.67,-296.25 2083.67,-296.25 2448.33,-296.25 2448.33,-296.25 2452.17,-296.25 2456,-300.09 2456,-303.92 2456,-303.92 2456,-311.59 2456,-311.59 2456,-315.42 2452.17,-319.25 2448.33,-319.25"/>
<text text-anchor="middle" x="2266" y="-304.05" font-family="Arial" font-size="14.00" fill="#c6c5fe">src/statements/locations/generateAuthorizationRequestUri.ts</text>
</g>
<!-- src/statements/locations/index.ts&#45;&gt;src/statements/locations/generateAuthorizationRequestUri.ts -->
<g id="edge55" class="edge">
<title>src/statements/locations/index.ts&#45;&gt;src/statements/locations/generateAuthorizationRequestUri.ts</title>
<path fill="none" stroke="#757575" d="M2011.2,-337.23C2032.3,-334.36 2054.98,-331.35 2076,-328.75 2098.94,-325.91 2123.46,-323.06 2146.99,-320.4"/>
<polygon fill="#757575" stroke="#757575" points="2147.46,-323.87 2157,-319.28 2146.67,-316.92 2147.46,-323.87"/>
</g>
<!-- src/statements/locations/generateCredentialOffer.ts -->
<g id="node33" class="node">
<title>src/statements/locations/generateCredentialOffer.ts</title>
<path fill="none" stroke="#c6c5fe" d="M2420.83,-360.25C2420.83,-360.25 2111.17,-360.25 2111.17,-360.25 2107.33,-360.25 2103.5,-356.42 2103.5,-352.59 2103.5,-352.59 2103.5,-344.92 2103.5,-344.92 2103.5,-341.09 2107.33,-337.25 2111.17,-337.25 2111.17,-337.25 2420.83,-337.25 2420.83,-337.25 2424.67,-337.25 2428.5,-341.09 2428.5,-344.92 2428.5,-344.92 2428.5,-352.59 2428.5,-352.59 2428.5,-356.42 2424.67,-360.25 2420.83,-360.25"/>
<text text-anchor="middle" x="2266" y="-345.05" font-family="Arial" font-size="14.00" fill="#c6c5fe">src/statements/locations/generateCredentialOffer.ts</text>
</g>
<!-- src/statements/locations/index.ts&#45;&gt;src/statements/locations/generateCredentialOffer.ts -->
<g id="edge56" class="edge">
<title>src/statements/locations/index.ts&#45;&gt;src/statements/locations/generateCredentialOffer.ts</title>
<path fill="none" stroke="#757575" d="M2034.73,-348.75C2053.39,-348.75 2073.26,-348.75 2093.2,-348.75"/>
<polygon fill="#757575" stroke="#757575" points="2093.3,-352.25 2103.3,-348.75 2093.3,-345.25 2093.3,-352.25"/>
</g>
<!-- src/statements/resources/issuerClient.ts -->
<g id="node34" class="node">
<title>src/statements/resources/issuerClient.ts</title>
<path fill="none" stroke="#c6c5fe" d="M2386.83,-239.25C2386.83,-239.25 2145.17,-239.25 2145.17,-239.25 2141.33,-239.25 2137.5,-235.42 2137.5,-231.59 2137.5,-231.59 2137.5,-223.92 2137.5,-223.92 2137.5,-220.09 2141.33,-216.25 2145.17,-216.25 2145.17,-216.25 2386.83,-216.25 2386.83,-216.25 2390.67,-216.25 2394.5,-220.09 2394.5,-223.92 2394.5,-223.92 2394.5,-231.59 2394.5,-231.59 2394.5,-235.42 2390.67,-239.25 2386.83,-239.25"/>
<text text-anchor="middle" x="2266" y="-224.05" font-family="Arial" font-size="14.00" fill="#c6c5fe">src/statements/resources/issuerClient.ts</text>
</g>
<!-- src/statements/resources/index.ts&#45;&gt;src/statements/resources/issuerClient.ts -->
<g id="edge57" class="edge">
<title>src/statements/resources/index.ts&#45;&gt;src/statements/resources/issuerClient.ts</title>
<path fill="none" stroke="#757575" d="M2037.5,-245.38C2066.07,-243.17 2097.3,-240.75 2127.21,-238.43"/>
<polygon fill="#757575" stroke="#757575" points="2127.6,-241.91 2137.3,-237.65 2127.06,-234.93 2127.6,-241.91"/>
</g>
<!-- src/statements/tokens/generateAccessToken.ts -->
<g id="node35" class="node">
<title>src/statements/tokens/generateAccessToken.ts</title>
<path fill="none" stroke="#c6c5fe" d="M2407.83,-198.25C2407.83,-198.25 2124.17,-198.25 2124.17,-198.25 2120.33,-198.25 2116.5,-194.42 2116.5,-190.59 2116.5,-190.59 2116.5,-182.92 2116.5,-182.92 2116.5,-179.09 2120.33,-175.25 2124.17,-175.25 2124.17,-175.25 2407.83,-175.25 2407.83,-175.25 2411.67,-175.25 2415.5,-179.09 2415.5,-182.92 2415.5,-182.92 2415.5,-190.59 2415.5,-190.59 2415.5,-194.42 2411.67,-198.25 2407.83,-198.25"/>
<text text-anchor="middle" x="2266" y="-183.05" font-family="Arial" font-size="14.00" fill="#c6c5fe">src/statements/tokens/generateAccessToken.ts</text>
</g>
<!-- src/statements/tokens/index.ts&#45;&gt;src/statements/tokens/generateAccessToken.ts -->
<g id="edge60" class="edge">
<title>src/statements/tokens/index.ts&#45;&gt;src/statements/tokens/generateAccessToken.ts</title>
<path fill="none" stroke="#757575" d="M2028.35,-190.98C2052.86,-190.55 2079.74,-190.07 2106.32,-189.59"/>
<polygon fill="#757575" stroke="#757575" points="2106.55,-193.09 2116.49,-189.41 2106.43,-186.09 2106.55,-193.09"/>
</g>
<!-- src/statements/validations/validateClientCredentials.ts -->
<g id="node36" class="node">
<title>src/statements/validations/validateClientCredentials.ts</title>
<path fill="none" stroke="#c6c5fe" d="M2428.33,-483.25C2428.33,-483.25 2103.67,-483.25 2103.67,-483.25 2099.83,-483.25 2096,-479.42 2096,-475.59 2096,-475.59 2096,-467.92 2096,-467.92 2096,-464.09 2099.83,-460.25 2103.67,-460.25 2103.67,-460.25 2428.33,-460.25 2428.33,-460.25 2432.17,-460.25 2436,-464.09 2436,-467.92 2436,-467.92 2436,-475.59 2436,-475.59 2436,-479.42 2432.17,-483.25 2428.33,-483.25"/>
<text text-anchor="middle" x="2266" y="-468.05" font-family="Arial" font-size="14.00" fill="#c6c5fe">src/statements/validations/validateClientCredentials.ts</text>
</g>
<!-- src/statements/validations/index.ts&#45;&gt;src/statements/validations/validateClientCredentials.ts -->
<g id="edge61" class="edge">
<title>src/statements/validations/index.ts&#45;&gt;src/statements/validations/validateClientCredentials.ts</title>
<path fill="none" stroke="#757575" d="M2006.22,-442.29C2028.69,-445.53 2053.31,-448.93 2076,-451.75 2096.56,-454.31 2118.41,-456.82 2139.68,-459.15"/>
<polygon fill="#757575" stroke="#757575" points="2139.41,-462.64 2149.73,-460.24 2140.17,-455.68 2139.41,-462.64"/>
</g>
<!-- src/statements/validations/validateRequestUri.ts -->
<g id="node37" class="node">
<title>src/statements/validations/validateRequestUri.ts</title>
<path fill="none" stroke="#c6c5fe" d="M2410.83,-524.25C2410.83,-524.25 2121.17,-524.25 2121.17,-524.25 2117.33,-524.25 2113.5,-520.42 2113.5,-516.59 2113.5,-516.59 2113.5,-508.92 2113.5,-508.92 2113.5,-505.09 2117.33,-501.25 2121.17,-501.25 2121.17,-501.25 2410.83,-501.25 2410.83,-501.25 2414.67,-501.25 2418.5,-505.09 2418.5,-508.92 2418.5,-508.92 2418.5,-516.59 2418.5,-516.59 2418.5,-520.42 2414.67,-524.25 2410.83,-524.25"/>
<text text-anchor="middle" x="2266" y="-509.05" font-family="Arial" font-size="14.00" fill="#c6c5fe">src/statements/validations/validateRequestUri.ts</text>
</g>
<!-- src/statements/validations/index.ts&#45;&gt;src/statements/validations/validateRequestUri.ts -->
<g id="edge62" class="edge">
<title>src/statements/validations/index.ts&#45;&gt;src/statements/validations/validateRequestUri.ts</title>
<path fill="none" stroke="#757575" d="M1951.13,-442.31C1979.1,-456.69 2029.74,-480.8 2076,-492.75 2085.87,-495.3 2096.1,-497.53 2106.47,-499.47"/>
<polygon fill="#757575" stroke="#757575" points="2105.99,-502.94 2116.45,-501.25 2107.22,-496.05 2105.99,-502.94"/>
</g>
<!-- src/statements/validations/validateScope.ts -->
<g id="node38" class="node">
<title>src/statements/validations/validateScope.ts</title>
<path fill="none" stroke="#c6c5fe" d="M2395.83,-442.25C2395.83,-442.25 2136.17,-442.25 2136.17,-442.25 2132.33,-442.25 2128.5,-438.42 2128.5,-434.59 2128.5,-434.59 2128.5,-426.92 2128.5,-426.92 2128.5,-423.09 2132.33,-419.25 2136.17,-419.25 2136.17,-419.25 2395.83,-419.25 2395.83,-419.25 2399.67,-419.25 2403.5,-423.09 2403.5,-426.92 2403.5,-426.92 2403.5,-434.59 2403.5,-434.59 2403.5,-438.42 2399.67,-442.25 2395.83,-442.25"/>
<text text-anchor="middle" x="2266" y="-427.05" font-family="Arial" font-size="14.00" fill="#c6c5fe">src/statements/validations/validateScope.ts</text>
</g>
<!-- src/statements/validations/index.ts&#45;&gt;src/statements/validations/validateScope.ts -->
<g id="edge63" class="edge">
<title>src/statements/validations/index.ts&#45;&gt;src/statements/validations/validateScope.ts</title>
<path fill="none" stroke="#757575" d="M2040.29,-430.75C2065.14,-430.75 2091.89,-430.75 2117.95,-430.75"/>
<polygon fill="#757575" stroke="#757575" points="2118.29,-434.25 2128.29,-430.75 2118.29,-427.25 2118.29,-434.25"/>
</g>
<!-- src/statements/locations/generateAuthorizationRequestUri.ts&#45;&gt;src/resources.ts -->
<g id="edge52" class="edge">
<title>src/statements/locations/generateAuthorizationRequestUri.ts&#45;&gt;src/resources.ts</title>
<path fill="none" stroke="#757575" d="M2367.43,-296.24C2396.15,-292.32 2427.42,-287.47 2456,-281.75 2469.53,-279.05 2484.04,-275.51 2497.41,-271.99"/>
<polygon fill="#757575" stroke="#757575" points="2498.63,-275.29 2507.38,-269.32 2496.81,-268.53 2498.63,-275.29"/>
</g>
<!-- src/statements/locations/generateAuthorizationRequestUri.ts&#45;&gt;src/constants.ts -->
<g id="edge51" class="edge">
<title>src/statements/locations/generateAuthorizationRequestUri.ts&#45;&gt;src/constants.ts</title>
<path fill="none" stroke="#757575" d="M2456.09,-314.51C2465.38,-314.84 2474.34,-315.16 2482.77,-315.46"/>
<polygon fill="#757575" stroke="#757575" points="2482.67,-318.96 2492.78,-315.82 2482.92,-311.96 2482.67,-318.96"/>
</g>
<!-- src/statements/locations/generateCredentialOffer.ts&#45;&gt;src/resources.ts -->
<g id="edge54" class="edge">
<title>src/statements/locations/generateCredentialOffer.ts&#45;&gt;src/resources.ts</title>
<path fill="none" stroke="#757575" d="M2428.56,-338.42C2438,-335.74 2447.22,-332.55 2456,-328.75 2475.38,-320.37 2475.45,-310.86 2492,-297.75 2501.64,-290.12 2512.53,-282.08 2522.07,-275.22"/>
<polygon fill="#757575" stroke="#757575" points="2524.26,-277.96 2530.37,-269.31 2520.2,-272.26 2524.26,-277.96"/>
</g>
<!-- src/statements/locations/generateCredentialOffer.ts&#45;&gt;src/errors.ts -->
<g id="edge53" class="edge">
<title>src/statements/locations/generateCredentialOffer.ts&#45;&gt;src/errors.ts</title>
<path fill="none" stroke="#757575" d="M2428.6,-355.78C2438.24,-359.49 2447.47,-364.09 2456,-369.75 2506.65,-403.38 2531.93,-475.25 2541.83,-511.26"/>
<polygon fill="#757575" stroke="#757575" points="2538.51,-512.41 2544.42,-521.2 2545.29,-510.64 2538.51,-512.41"/>
</g>
<!-- src/statements/resources/issuerClient.ts&#45;&gt;src/resources.ts -->
<g id="edge58" class="edge">
<title>src/statements/resources/issuerClient.ts&#45;&gt;src/resources.ts</title>
<path fill="none" stroke="#757575" d="M2374.45,-239.26C2410.64,-243.14 2449.89,-247.35 2481.8,-250.77"/>
<polygon fill="#757575" stroke="#757575" points="2481.57,-254.26 2491.89,-251.85 2482.32,-247.3 2481.57,-254.26"/>
</g>
<!-- src/statements/tokens/generateAccessToken.ts&#45;&gt;src/resources.ts -->
<g id="edge59" class="edge">
<title>src/statements/tokens/generateAccessToken.ts&#45;&gt;src/resources.ts</title>
<path fill="none" stroke="#757575" d="M2415.7,-197.67C2429.48,-200.35 2443.1,-203.67 2456,-207.75 2479.71,-215.26 2504.29,-229.19 2521.92,-240.45"/>
<polygon fill="#757575" stroke="#757575" points="2520.18,-243.49 2530.46,-246.04 2524.01,-237.64 2520.18,-243.49"/>
</g>
<!-- src/statements/validations/validateClientCredentials.ts&#45;&gt;src/resources.ts -->
<g id="edge65" class="edge">
<title>src/statements/validations/validateClientCredentials.ts&#45;&gt;src/resources.ts</title>
<path fill="none" stroke="#757575" d="M2436.27,-465.39C2443.31,-461.61 2449.94,-457.1 2456,-451.75 2508.69,-405.23 2453.14,-356.32 2492,-297.75 2497.97,-288.75 2506.7,-281.07 2515.45,-274.92"/>
<polygon fill="#757575" stroke="#757575" points="2517.64,-277.68 2524.11,-269.29 2513.82,-271.81 2517.64,-277.68"/>
</g>
<!-- src/statements/validations/validateClientCredentials.ts&#45;&gt;src/errors.ts -->
<g id="edge64" class="edge">
<title>src/statements/validations/validateClientCredentials.ts&#45;&gt;src/errors.ts</title>
<path fill="none" stroke="#757575" d="M2411.8,-483.27C2426.84,-485.82 2441.81,-488.94 2456,-492.75 2476.95,-498.38 2499.27,-508.13 2516.56,-516.59"/>
<polygon fill="#757575" stroke="#757575" points="2515.1,-519.77 2525.61,-521.13 2518.24,-513.52 2515.1,-519.77"/>
</g>
<!-- src/statements/validations/validateRequestUri.ts&#45;&gt;src/resources.ts -->
<g id="edge68" class="edge">
<title>src/statements/validations/validateRequestUri.ts&#45;&gt;src/resources.ts</title>
<path fill="none" stroke="#757575" d="M2338.25,-524.27C2377.76,-526.44 2425.01,-521.44 2456,-492.75 2520.67,-432.88 2445.02,-372.31 2492,-297.75 2497.71,-288.69 2506.29,-281.02 2514.97,-274.9"/>
<polygon fill="#757575" stroke="#757575" points="2517.12,-277.69 2523.6,-269.31 2513.31,-271.81 2517.12,-277.69"/>
</g>
<!-- src/statements/validations/validateRequestUri.ts&#45;&gt;src/constants.ts -->
<g id="edge66" class="edge">
<title>src/statements/validations/validateRequestUri.ts&#45;&gt;src/constants.ts</title>
<path fill="none" stroke="#757575" d="M2418.88,-510.4C2432.07,-506.2 2444.69,-500.47 2456,-492.75 2509.57,-456.24 2533.67,-378.03 2542.6,-339.76"/>
<polygon fill="#757575" stroke="#757575" points="2546.09,-340.19 2544.81,-329.67 2539.25,-338.69 2546.09,-340.19"/>
</g>
<!-- src/statements/validations/validateRequestUri.ts&#45;&gt;src/errors.ts -->
<g id="edge67" class="edge">
<title>src/statements/validations/validateRequestUri.ts&#45;&gt;src/errors.ts</title>
<path fill="none" stroke="#757575" d="M2418.88,-523.6C2445.73,-525.52 2471.99,-527.39 2493.68,-528.94"/>
<polygon fill="#757575" stroke="#757575" points="2493.71,-532.45 2503.94,-529.68 2494.21,-525.47 2493.71,-532.45"/>
</g>
<!-- src/statements/validations/validateScope.ts&#45;&gt;src/resources.ts -->
<g id="edge70" class="edge">
<title>src/statements/validations/validateScope.ts&#45;&gt;src/resources.ts</title>
<path fill="none" stroke="#757575" d="M2403.7,-435.3C2422.74,-430.74 2440.91,-423.05 2456,-410.75 2496.86,-377.45 2461.15,-340.49 2492,-297.75 2498.44,-288.83 2507.48,-281.1 2516.38,-274.88"/>
<polygon fill="#757575" stroke="#757575" points="2518.32,-277.79 2524.77,-269.39 2514.49,-271.93 2518.32,-277.79"/>
</g>
<!-- src/statements/validations/validateScope.ts&#45;&gt;src/errors.ts -->
<g id="edge69" class="edge">
<title>src/statements/validations/validateScope.ts&#45;&gt;src/errors.ts</title>
<path fill="none" stroke="#757575" d="M2403.9,-435.8C2421.89,-439.37 2439.71,-444.5 2456,-451.75 2487.14,-465.62 2515.13,-494.13 2531.6,-513.35"/>
<polygon fill="#757575" stroke="#757575" points="2529.05,-515.74 2538.13,-521.19 2534.43,-511.26 2529.05,-515.74"/>
</g>
</g>
</svg>
