<?xml version="1.0" encoding="UTF-8" standalone="no"?>
<!DOCTYPE svg PUBLIC "-//W3C//DTD SVG 1.1//EN"
 "http://www.w3.org/Graphics/SVG/1.1/DTD/svg11.dtd">
<!-- Generated by graphviz version 2.43.0 (0)
 -->
<!-- Title: G Pages: 1 -->
<svg width="2881pt" height="1107pt"
 viewBox="0.00 0.00 2881.20 1106.61" xmlns="http://www.w3.org/2000/svg" xmlns:xlink="http://www.w3.org/1999/xlink">
<g id="graph0" class="graph" transform="scale(1 1) rotate(0) translate(21.6 1085.01)">
<title>G</title>
<polygon fill="#111111" stroke="transparent" points="-21.6,21.6 -21.6,-1085.01 2859.6,-1085.01 2859.6,21.6 -21.6,21.6"/>
<!-- app.ts -->
<g id="node1" class="node">
<title>app.ts</title>
<path fill="none" stroke="#c6c5fe" d="M321.83,-927.02C321.83,-927.02 283.17,-927.02 283.17,-927.02 279.33,-927.02 275.5,-923.19 275.5,-919.35 275.5,-919.35 275.5,-911.69 275.5,-911.69 275.5,-907.85 279.33,-904.02 283.17,-904.02 283.17,-904.02 321.83,-904.02 321.83,-904.02 325.67,-904.02 329.5,-907.85 329.5,-911.69 329.5,-911.69 329.5,-919.35 329.5,-919.35 329.5,-923.19 325.67,-927.02 321.83,-927.02"/>
<text text-anchor="middle" x="302.5" y="-911.82" font-family="Arial" font-size="14.00" fill="#c6c5fe">app.ts</text>
</g>
<!-- src/index.ts -->
<g id="node2" class="node">
<title>src/index.ts</title>
<path fill="none" stroke="#c6c5fe" d="M603.33,-849.02C603.33,-849.02 533.67,-849.02 533.67,-849.02 529.83,-849.02 526,-845.19 526,-841.35 526,-841.35 526,-833.69 526,-833.69 526,-829.85 529.83,-826.02 533.67,-826.02 533.67,-826.02 603.33,-826.02 603.33,-826.02 607.17,-826.02 611,-829.85 611,-833.69 611,-833.69 611,-841.35 611,-841.35 611,-845.19 607.17,-849.02 603.33,-849.02"/>
<text text-anchor="middle" x="568.5" y="-833.82" font-family="Arial" font-size="14.00" fill="#c6c5fe">src/index.ts</text>
</g>
<!-- app.ts&#45;&gt;src/index.ts -->
<g id="edge1" class="edge">
<title>app.ts&#45;&gt;src/index.ts</title>
<path fill="none" stroke="#757575" d="M329.75,-915.53C366.71,-914.74 435.64,-910.28 490,-889.52 510.75,-881.6 531.5,-867.25 546.3,-855.63"/>
<polygon fill="#757575" stroke="#757575" points="548.71,-858.18 554.28,-849.17 544.31,-852.74 548.71,-858.18"/>
</g>
<!-- src/resources.ts -->
<g id="node5" class="node">
<title>src/resources.ts</title>
<path fill="none" stroke="#cfffac" d="M2830.33,-691.02C2830.33,-691.02 2733.67,-691.02 2733.67,-691.02 2729.83,-691.02 2726,-687.19 2726,-683.35 2726,-683.35 2726,-675.69 2726,-675.69 2726,-671.85 2729.83,-668.02 2733.67,-668.02 2733.67,-668.02 2830.33,-668.02 2830.33,-668.02 2834.17,-668.02 2838,-671.85 2838,-675.69 2838,-675.69 2838,-683.35 2838,-683.35 2838,-687.19 2834.17,-691.02 2830.33,-691.02"/>
<text text-anchor="middle" x="2782" y="-675.82" font-family="Arial" font-size="14.00" fill="#cfffac">src/resources.ts</text>
</g>
<!-- src/index.ts&#45;&gt;src/resources.ts -->
<g id="edge50" class="edge">
<title>src/index.ts&#45;&gt;src/resources.ts</title>
<path fill="none" stroke="#757575" d="M579.11,-849.03C610.89,-885.71 717.1,-997.52 831,-997.52 831,-997.52 831,-997.52 2163.5,-997.52 2400.46,-997.52 2505.61,-1062.34 2690,-913.52 2757.37,-859.14 2774.98,-748.28 2779.49,-701.32"/>
<polygon fill="#757575" stroke="#757575" points="2783,-701.33 2780.36,-691.07 2776.02,-700.74 2783,-701.33"/>
</g>
<!-- src/config.ts -->
<g id="node8" class="node">
<title>src/config.ts</title>
<path fill="none" stroke="#c6c5fe" d="M1812.83,-848.02C1812.83,-848.02 1739.17,-848.02 1739.17,-848.02 1735.33,-848.02 1731.5,-844.19 1731.5,-840.35 1731.5,-840.35 1731.5,-832.69 1731.5,-832.69 1731.5,-828.85 1735.33,-825.02 1739.17,-825.02 1739.17,-825.02 1812.83,-825.02 1812.83,-825.02 1816.67,-825.02 1820.5,-828.85 1820.5,-832.69 1820.5,-832.69 1820.5,-840.35 1820.5,-840.35 1820.5,-844.19 1816.67,-848.02 1812.83,-848.02"/>
<text text-anchor="middle" x="1776" y="-832.82" font-family="Arial" font-size="14.00" fill="#c6c5fe">src/config.ts</text>
</g>
<!-- src/index.ts&#45;&gt;src/config.ts -->
<g id="edge47" class="edge">
<title>src/index.ts&#45;&gt;src/config.ts</title>
<path fill="none" stroke="#757575" d="M611.17,-837.52C662.77,-837.52 753.37,-837.52 831,-837.52 831,-837.52 831,-837.52 1033.5,-837.52 1290.87,-837.52 1598.48,-836.91 1720.9,-836.64"/>
<polygon fill="#757575" stroke="#757575" points="1721.13,-840.14 1731.12,-836.62 1721.12,-833.14 1721.13,-840.14"/>
</g>
<!-- src/core.ts -->
<g id="node10" class="node">
<title>src/core.ts</title>
<path fill="none" stroke="#c6c5fe" d="M718.33,-809.02C718.33,-809.02 654.67,-809.02 654.67,-809.02 650.83,-809.02 647,-805.19 647,-801.35 647,-801.35 647,-793.69 647,-793.69 647,-789.85 650.83,-786.02 654.67,-786.02 654.67,-786.02 718.33,-786.02 718.33,-786.02 722.17,-786.02 726,-789.85 726,-793.69 726,-793.69 726,-801.35 726,-801.35 726,-805.19 722.17,-809.02 718.33,-809.02"/>
<text text-anchor="middle" x="686.5" y="-793.82" font-family="Arial" font-size="14.00" fill="#c6c5fe">src/core.ts</text>
</g>
<!-- src/index.ts&#45;&gt;src/core.ts -->
<g id="edge48" class="edge">
<title>src/index.ts&#45;&gt;src/core.ts</title>
<path fill="none" stroke="#757575" d="M603.05,-825.95C615.32,-821.72 629.36,-816.88 642.35,-812.4"/>
<polygon fill="#757575" stroke="#757575" points="643.71,-815.63 652.02,-809.06 641.43,-809.01 643.71,-815.63"/>
</g>
<!-- src/handlers/index.ts -->
<g id="node11" class="node">
<title>src/handlers/index.ts</title>
<path fill="none" stroke="#c6c5fe" d="M894.33,-742.02C894.33,-742.02 769.67,-742.02 769.67,-742.02 765.83,-742.02 762,-738.19 762,-734.35 762,-734.35 762,-726.69 762,-726.69 762,-722.85 765.83,-719.02 769.67,-719.02 769.67,-719.02 894.33,-719.02 894.33,-719.02 898.17,-719.02 902,-722.85 902,-726.69 902,-726.69 902,-734.35 902,-734.35 902,-738.19 898.17,-742.02 894.33,-742.02"/>
<text text-anchor="middle" x="832" y="-726.82" font-family="Arial" font-size="14.00" fill="#c6c5fe">src/handlers/index.ts</text>
</g>
<!-- src/index.ts&#45;&gt;src/handlers/index.ts -->
<g id="edge49" class="edge">
<title>src/index.ts&#45;&gt;src/handlers/index.ts</title>
<path fill="none" stroke="#757575" d="M581.01,-825.83C595.26,-812.03 620.86,-789.34 647,-776.52 679.55,-760.56 718.14,-749.82 751.55,-742.76"/>
<polygon fill="#757575" stroke="#757575" points="752.64,-746.11 761.74,-740.68 751.25,-739.25 752.64,-746.11"/>
</g>
<!-- main.config.ts -->
<g id="node3" class="node">
<title>main.config.ts</title>
<path fill="none" stroke="#c6c5fe" d="M345.33,-847.02C345.33,-847.02 259.67,-847.02 259.67,-847.02 255.83,-847.02 252,-843.19 252,-839.35 252,-839.35 252,-831.69 252,-831.69 252,-827.85 255.83,-824.02 259.67,-824.02 259.67,-824.02 345.33,-824.02 345.33,-824.02 349.17,-824.02 353,-827.85 353,-831.69 353,-831.69 353,-839.35 353,-839.35 353,-843.19 349.17,-847.02 345.33,-847.02"/>
<text text-anchor="middle" x="302.5" y="-831.82" font-family="Arial" font-size="14.00" fill="#c6c5fe">main.config.ts</text>
</g>
<!-- main.config.ts&#45;&gt;src/index.ts -->
<g id="edge3" class="edge">
<title>main.config.ts&#45;&gt;src/index.ts</title>
<path fill="none" stroke="#757575" d="M353.16,-835.9C399.54,-836.25 468.5,-836.77 515.59,-837.13"/>
<polygon fill="#757575" stroke="#757575" points="515.86,-840.63 525.88,-837.2 515.91,-833.63 515.86,-840.63"/>
</g>
<!-- main.logger.ts -->
<g id="node4" class="node">
<title>main.logger.ts</title>
<path fill="none" stroke="#c6c5fe" d="M482.33,-809.02C482.33,-809.02 396.67,-809.02 396.67,-809.02 392.83,-809.02 389,-805.19 389,-801.35 389,-801.35 389,-793.69 389,-793.69 389,-789.85 392.83,-786.02 396.67,-786.02 396.67,-786.02 482.33,-786.02 482.33,-786.02 486.17,-786.02 490,-789.85 490,-793.69 490,-793.69 490,-801.35 490,-801.35 490,-805.19 486.17,-809.02 482.33,-809.02"/>
<text text-anchor="middle" x="439.5" y="-793.82" font-family="Arial" font-size="14.00" fill="#c6c5fe">main.logger.ts</text>
</g>
<!-- main.config.ts&#45;&gt;main.logger.ts -->
<g id="edge2" class="edge">
<title>main.config.ts&#45;&gt;main.logger.ts</title>
<path fill="none" stroke="#757575" d="M344.37,-824.02C357.99,-820.18 373.33,-815.86 387.62,-811.84"/>
<polygon fill="#757575" stroke="#757575" points="388.62,-815.19 397.3,-809.12 386.73,-808.46 388.62,-815.19"/>
</g>
<!-- main.config.ts&#45;&gt;src/resources.ts -->
<g id="edge4" class="edge">
<title>main.config.ts&#45;&gt;src/resources.ts</title>
<path fill="none" stroke="#757575" d="M314.79,-847.14C356.77,-889.82 504.68,-1035.52 567.5,-1035.52 567.5,-1035.52 567.5,-1035.52 2163.5,-1035.52 2398.96,-1035.52 2508.78,-1126.86 2690,-976.52 2775.23,-905.81 2782.28,-757.43 2781.73,-701.49"/>
<polygon fill="#757575" stroke="#757575" points="2785.23,-701.23 2781.53,-691.3 2778.23,-701.37 2785.23,-701.23"/>
</g>
<!-- main.logger.ts&#45;&gt;src/index.ts -->
<g id="edge7" class="edge">
<title>main.logger.ts&#45;&gt;src/index.ts</title>
<path fill="none" stroke="#757575" d="M477.23,-809.09C490.92,-813.4 506.65,-818.35 521.09,-822.9"/>
<polygon fill="#757575" stroke="#757575" points="520.26,-826.31 530.85,-825.98 522.36,-819.63 520.26,-826.31"/>
</g>
<!-- main.container.ts -->
<g id="node6" class="node">
<title>main.container.ts</title>
<path fill="none" stroke="#c6c5fe" d="M208.33,-887.02C208.33,-887.02 104.67,-887.02 104.67,-887.02 100.83,-887.02 97,-883.19 97,-879.35 97,-879.35 97,-871.69 97,-871.69 97,-867.85 100.83,-864.02 104.67,-864.02 104.67,-864.02 208.33,-864.02 208.33,-864.02 212.17,-864.02 216,-867.85 216,-871.69 216,-871.69 216,-879.35 216,-879.35 216,-883.19 212.17,-887.02 208.33,-887.02"/>
<text text-anchor="middle" x="156.5" y="-871.82" font-family="Arial" font-size="14.00" fill="#c6c5fe">main.container.ts</text>
</g>
<!-- main.container.ts&#45;&gt;src/index.ts -->
<g id="edge6" class="edge">
<title>main.container.ts&#45;&gt;src/index.ts</title>
<path fill="none" stroke="#757575" d="M216.22,-872.73C282.78,-869.18 394.46,-862.1 490,-850.52 498.37,-849.51 507.22,-848.22 515.82,-846.86"/>
<polygon fill="#757575" stroke="#757575" points="516.47,-850.3 525.77,-845.24 515.34,-843.39 516.47,-850.3"/>
</g>
<!-- main.container.ts&#45;&gt;main.config.ts -->
<g id="edge5" class="edge">
<title>main.container.ts&#45;&gt;main.config.ts</title>
<path fill="none" stroke="#757575" d="M199.15,-863.95C215.12,-859.51 233.53,-854.4 250.29,-849.74"/>
<polygon fill="#757575" stroke="#757575" points="251.24,-853.11 259.94,-847.06 249.37,-846.37 251.24,-853.11"/>
</g>
<!-- main.ts -->
<g id="node7" class="node">
<title>main.ts</title>
<path fill="none" stroke="#c6c5fe" d="M53.33,-907.02C53.33,-907.02 7.67,-907.02 7.67,-907.02 3.83,-907.02 0,-903.19 0,-899.35 0,-899.35 0,-891.69 0,-891.69 0,-887.85 3.83,-884.02 7.67,-884.02 7.67,-884.02 53.33,-884.02 53.33,-884.02 57.17,-884.02 61,-887.85 61,-891.69 61,-891.69 61,-899.35 61,-899.35 61,-903.19 57.17,-907.02 53.33,-907.02"/>
<text text-anchor="middle" x="30.5" y="-891.82" font-family="Arial" font-size="14.00" fill="#c6c5fe">main.ts</text>
</g>
<!-- main.ts&#45;&gt;app.ts -->
<g id="edge8" class="edge">
<title>main.ts&#45;&gt;app.ts</title>
<path fill="none" stroke="#757575" d="M61.17,-897.72C111,-901.41 211.33,-908.84 265.25,-912.83"/>
<polygon fill="#757575" stroke="#757575" points="265.16,-916.34 275.39,-913.59 265.68,-909.36 265.16,-916.34"/>
</g>
<!-- main.ts&#45;&gt;main.container.ts -->
<g id="edge9" class="edge">
<title>main.ts&#45;&gt;main.container.ts</title>
<path fill="none" stroke="#757575" d="M61.2,-890.73C69.01,-889.47 77.77,-888.06 86.71,-886.61"/>
<polygon fill="#757575" stroke="#757575" points="87.54,-890.03 96.86,-884.98 86.43,-883.12 87.54,-890.03"/>
</g>
<!-- src/config.ts&#45;&gt;src/resources.ts -->
<g id="edge10" class="edge">
<title>src/config.ts&#45;&gt;src/resources.ts</title>
<path fill="none" stroke="#757575" d="M1820.78,-840.04C1992.63,-853.51 2615.29,-898.76 2690,-853.52 2745.47,-819.93 2768.75,-740.19 2777.05,-701.43"/>
<polygon fill="#757575" stroke="#757575" points="2780.56,-701.72 2779.09,-691.23 2773.7,-700.35 2780.56,-701.72"/>
</g>
<!-- src/constants.ts -->
<g id="node9" class="node">
<title>src/constants.ts</title>
<path fill="none" stroke="#cfffac" d="M2829.33,-507.02C2829.33,-507.02 2734.67,-507.02 2734.67,-507.02 2730.83,-507.02 2727,-503.19 2727,-499.35 2727,-499.35 2727,-491.69 2727,-491.69 2727,-487.85 2730.83,-484.02 2734.67,-484.02 2734.67,-484.02 2829.33,-484.02 2829.33,-484.02 2833.17,-484.02 2837,-487.85 2837,-491.69 2837,-491.69 2837,-499.35 2837,-499.35 2837,-503.19 2833.17,-507.02 2829.33,-507.02"/>
<text text-anchor="middle" x="2782" y="-491.82" font-family="Arial" font-size="14.00" fill="#cfffac">src/constants.ts</text>
</g>
<!-- src/core.ts&#45;&gt;src/config.ts -->
<g id="edge11" class="edge">
<title>src/core.ts&#45;&gt;src/config.ts</title>
<path fill="none" stroke="#757575" d="M726.04,-798.54C842.77,-801.68 1202.73,-811.68 1501,-823.52 1577.44,-826.55 1665.85,-830.9 1721.09,-833.72"/>
<polygon fill="#757575" stroke="#757575" points="1721.18,-837.22 1731.35,-834.24 1721.54,-830.23 1721.18,-837.22"/>
</g>
<!-- src/core.ts&#45;&gt;src/handlers/index.ts -->
<g id="edge12" class="edge">
<title>src/core.ts&#45;&gt;src/handlers/index.ts</title>
<path fill="none" stroke="#757575" d="M712.17,-786C735.58,-775.07 770.96,-758.55 797.03,-746.38"/>
<polygon fill="#757575" stroke="#757575" points="798.59,-749.51 806.17,-742.11 795.63,-743.17 798.59,-749.51"/>
</g>
<!-- src/handlers/authorize.handler.ts -->
<g id="node13" class="node">
<title>src/handlers/authorize.handler.ts</title>
<path fill="none" stroke="#c6c5fe" d="M1430.33,-651.02C1430.33,-651.02 1233.67,-651.02 1233.67,-651.02 1229.83,-651.02 1226,-647.19 1226,-643.35 1226,-643.35 1226,-635.69 1226,-635.69 1226,-631.85 1229.83,-628.02 1233.67,-628.02 1233.67,-628.02 1430.33,-628.02 1430.33,-628.02 1434.17,-628.02 1438,-631.85 1438,-635.69 1438,-635.69 1438,-643.35 1438,-643.35 1438,-647.19 1434.17,-651.02 1430.33,-651.02"/>
<text text-anchor="middle" x="1332" y="-635.82" font-family="Arial" font-size="14.00" fill="#c6c5fe">src/handlers/authorize.handler.ts</text>
</g>
<!-- src/handlers/index.ts&#45;&gt;src/handlers/authorize.handler.ts -->
<g id="edge23" class="edge">
<title>src/handlers/index.ts&#45;&gt;src/handlers/authorize.handler.ts</title>
<path fill="none" stroke="#757575" d="M865.78,-718.94C886.33,-712 913.48,-703.42 938,-697.52 1030.28,-675.34 1136.91,-660.24 1215.8,-651.03"/>
<polygon fill="#757575" stroke="#757575" points="1216.24,-654.5 1225.77,-649.88 1215.43,-647.55 1216.24,-654.5"/>
</g>
<!-- src/handlers/credentialOffer.handler.ts -->
<g id="node16" class="node">
<title>src/handlers/credentialOffer.handler.ts</title>
<path fill="none" stroke="#c6c5fe" d="M1446.83,-692.02C1446.83,-692.02 1217.17,-692.02 1217.17,-692.02 1213.33,-692.02 1209.5,-688.19 1209.5,-684.35 1209.5,-684.35 1209.5,-676.69 1209.5,-676.69 1209.5,-672.85 1213.33,-669.02 1217.17,-669.02 1217.17,-669.02 1446.83,-669.02 1446.83,-669.02 1450.67,-669.02 1454.5,-672.85 1454.5,-676.69 1454.5,-676.69 1454.5,-684.35 1454.5,-684.35 1454.5,-688.19 1450.67,-692.02 1446.83,-692.02"/>
<text text-anchor="middle" x="1332" y="-676.82" font-family="Arial" font-size="14.00" fill="#c6c5fe">src/handlers/credentialOffer.handler.ts</text>
</g>
<!-- src/handlers/index.ts&#45;&gt;src/handlers/credentialOffer.handler.ts -->
<g id="edge24" class="edge">
<title>src/handlers/index.ts&#45;&gt;src/handlers/credentialOffer.handler.ts</title>
<path fill="none" stroke="#757575" d="M902.24,-723.57C980.71,-715.69 1110.18,-702.69 1206.35,-693.03"/>
<polygon fill="#757575" stroke="#757575" points="1206.84,-696.5 1216.44,-692.02 1206.14,-689.54 1206.84,-696.5"/>
</g>
<!-- src/handlers/oauthAuthorizationServer.handler.ts -->
<g id="node18" class="node">
<title>src/handlers/oauthAuthorizationServer.handler.ts</title>
<path fill="none" stroke="#c6c5fe" d="M1478.33,-889.02C1478.33,-889.02 1185.67,-889.02 1185.67,-889.02 1181.83,-889.02 1178,-885.19 1178,-881.35 1178,-881.35 1178,-873.69 1178,-873.69 1178,-869.85 1181.83,-866.02 1185.67,-866.02 1185.67,-866.02 1478.33,-866.02 1478.33,-866.02 1482.17,-866.02 1486,-869.85 1486,-873.69 1486,-873.69 1486,-881.35 1486,-881.35 1486,-885.19 1482.17,-889.02 1478.33,-889.02"/>
<text text-anchor="middle" x="1332" y="-873.82" font-family="Arial" font-size="14.00" fill="#c6c5fe">src/handlers/oauthAuthorizationServer.handler.ts</text>
</g>
<!-- src/handlers/index.ts&#45;&gt;src/handlers/oauthAuthorizationServer.handler.ts -->
<g id="edge25" class="edge">
<title>src/handlers/index.ts&#45;&gt;src/handlers/oauthAuthorizationServer.handler.ts</title>
<path fill="none" stroke="#757575" d="M872.08,-742.05C961.97,-768.59 1183.26,-833.91 1282.03,-863.06"/>
<polygon fill="#757575" stroke="#757575" points="1281.18,-866.46 1291.76,-865.94 1283.16,-859.75 1281.18,-866.46"/>
</g>
<!-- src/handlers/openidCredentialIssuer.handler.ts -->
<g id="node19" class="node">
<title>src/handlers/openidCredentialIssuer.handler.ts</title>
<path fill="none" stroke="#c6c5fe" d="M1471.33,-930.02C1471.33,-930.02 1192.67,-930.02 1192.67,-930.02 1188.83,-930.02 1185,-926.19 1185,-922.35 1185,-922.35 1185,-914.69 1185,-914.69 1185,-910.85 1188.83,-907.02 1192.67,-907.02 1192.67,-907.02 1471.33,-907.02 1471.33,-907.02 1475.17,-907.02 1479,-910.85 1479,-914.69 1479,-914.69 1479,-922.35 1479,-922.35 1479,-926.19 1475.17,-930.02 1471.33,-930.02"/>
<text text-anchor="middle" x="1332" y="-914.82" font-family="Arial" font-size="14.00" fill="#c6c5fe">src/handlers/openidCredentialIssuer.handler.ts</text>
</g>
<!-- src/handlers/index.ts&#45;&gt;src/handlers/openidCredentialIssuer.handler.ts -->
<g id="edge26" class="edge">
<title>src/handlers/index.ts&#45;&gt;src/handlers/openidCredentialIssuer.handler.ts</title>
<path fill="none" stroke="#757575" d="M847.29,-742.12C866.9,-757.68 903.65,-785.54 938,-804.52 1032.86,-856.94 1058.19,-870.96 1163,-898.52 1172.59,-901.04 1182.57,-903.24 1192.67,-905.17"/>
<polygon fill="#757575" stroke="#757575" points="1192.34,-908.67 1202.8,-907.01 1193.58,-901.78 1192.34,-908.67"/>
</g>
<!-- src/handlers/pushedAuthorizationRequest.handler.ts -->
<g id="node20" class="node">
<title>src/handlers/pushedAuthorizationRequest.handler.ts</title>
<path fill="none" stroke="#c6c5fe" d="M1488.83,-733.02C1488.83,-733.02 1175.17,-733.02 1175.17,-733.02 1171.33,-733.02 1167.5,-729.19 1167.5,-725.35 1167.5,-725.35 1167.5,-717.69 1167.5,-717.69 1167.5,-713.85 1171.33,-710.02 1175.17,-710.02 1175.17,-710.02 1488.83,-710.02 1488.83,-710.02 1492.67,-710.02 1496.5,-713.85 1496.5,-717.69 1496.5,-717.69 1496.5,-725.35 1496.5,-725.35 1496.5,-729.19 1492.67,-733.02 1488.83,-733.02"/>
<text text-anchor="middle" x="1332" y="-717.82" font-family="Arial" font-size="14.00" fill="#c6c5fe">src/handlers/pushedAuthorizationRequest.handler.ts</text>
</g>
<!-- src/handlers/index.ts&#45;&gt;src/handlers/pushedAuthorizationRequest.handler.ts -->
<g id="edge27" class="edge">
<title>src/handlers/index.ts&#45;&gt;src/handlers/pushedAuthorizationRequest.handler.ts</title>
<path fill="none" stroke="#757575" d="M902.24,-729.27C968,-728.08 1069.55,-726.24 1157.32,-724.66"/>
<polygon fill="#757575" stroke="#757575" points="1157.47,-728.16 1167.41,-724.48 1157.35,-721.16 1157.47,-728.16"/>
</g>
<!-- src/handlers/token.handler.ts -->
<g id="node21" class="node">
<title>src/handlers/token.handler.ts</title>
<path fill="none" stroke="#c6c5fe" d="M1119.33,-590.02C1119.33,-590.02 945.67,-590.02 945.67,-590.02 941.83,-590.02 938,-586.19 938,-582.35 938,-582.35 938,-574.69 938,-574.69 938,-570.85 941.83,-567.02 945.67,-567.02 945.67,-567.02 1119.33,-567.02 1119.33,-567.02 1123.17,-567.02 1127,-570.85 1127,-574.69 1127,-574.69 1127,-582.35 1127,-582.35 1127,-586.19 1123.17,-590.02 1119.33,-590.02"/>
<text text-anchor="middle" x="1032.5" y="-574.82" font-family="Arial" font-size="14.00" fill="#c6c5fe">src/handlers/token.handler.ts</text>
</g>
<!-- src/handlers/index.ts&#45;&gt;src/handlers/token.handler.ts -->
<g id="edge28" class="edge">
<title>src/handlers/index.ts&#45;&gt;src/handlers/token.handler.ts</title>
<path fill="none" stroke="#757575" d="M842.75,-718.73C860.22,-698.11 898.74,-654.99 938,-626.52 955.32,-613.96 976.4,-602.83 994.15,-594.46"/>
<polygon fill="#757575" stroke="#757575" points="996,-597.46 1003.63,-590.1 993.08,-591.1 996,-597.46"/>
</g>
<!-- src/errors.ts -->
<g id="node12" class="node">
<title>src/errors.ts</title>
<path fill="none" stroke="#cfffac" d="M2818.33,-322.02C2818.33,-322.02 2745.67,-322.02 2745.67,-322.02 2741.83,-322.02 2738,-318.19 2738,-314.35 2738,-314.35 2738,-306.69 2738,-306.69 2738,-302.85 2741.83,-299.02 2745.67,-299.02 2745.67,-299.02 2818.33,-299.02 2818.33,-299.02 2822.17,-299.02 2826,-302.85 2826,-306.69 2826,-306.69 2826,-314.35 2826,-314.35 2826,-318.19 2822.17,-322.02 2818.33,-322.02"/>
<text text-anchor="middle" x="2782" y="-306.82" font-family="Arial" font-size="14.00" fill="#cfffac">src/errors.ts</text>
</g>
<!-- src/handlers/authorize.handler.ts&#45;&gt;src/resources.ts -->
<g id="edge16" class="edge">
<title>src/handlers/authorize.handler.ts&#45;&gt;src/resources.ts</title>
<path fill="none" stroke="#757575" d="M1438.17,-647.84C1629.14,-662.96 2013.53,-693.51 2015,-694.52 2045.75,-715.76 2019.85,-749.87 2051,-770.52 2147.03,-834.18 2194.81,-779.07 2310,-781.52 2478.85,-785.1 2535.87,-850.57 2690,-781.52 2727.09,-764.9 2755.28,-724.87 2769.88,-700.19"/>
<polygon fill="#757575" stroke="#757575" points="2773.06,-701.68 2774.97,-691.26 2766.98,-698.22 2773.06,-701.68"/>
</g>
<!-- src/handlers/authorize.handler.ts&#45;&gt;src/config.ts -->
<g id="edge13" class="edge">
<title>src/handlers/authorize.handler.ts&#45;&gt;src/config.ts</title>
<path fill="none" stroke="#757575" d="M1438.12,-632.74C1461.13,-636.17 1483.74,-644.01 1501,-659.52 1554.25,-707.36 1482.93,-769.61 1537,-816.52 1587.32,-860.17 1668.2,-856.91 1721.48,-848.43"/>
<polygon fill="#757575" stroke="#757575" points="1722.15,-851.87 1731.42,-846.74 1720.98,-844.97 1722.15,-851.87"/>
</g>
<!-- src/handlers/authorize.handler.ts&#45;&gt;src/errors.ts -->
<g id="edge14" class="edge">
<title>src/handlers/authorize.handler.ts&#45;&gt;src/errors.ts</title>
<path fill="none" stroke="#757575" d="M1438.43,-647.44C1461.85,-643.93 1484.56,-635.54 1501,-618.52 1563.01,-554.33 1471.12,-278.73 1537,-218.52 1584.28,-175.3 2630.89,-193.85 2690,-218.52 2724.8,-233.05 2753.09,-268.08 2768.45,-290.48"/>
<polygon fill="#757575" stroke="#757575" points="2765.6,-292.53 2774.04,-298.94 2771.44,-288.66 2765.6,-292.53"/>
</g>
<!-- src/handlers/schemas/authorizeHandlerConfig.schema.ts -->
<g id="node14" class="node">
<title>src/handlers/schemas/authorizeHandlerConfig.schema.ts</title>
<path fill="none" stroke="#cfffac" d="M1948.33,-166.02C1948.33,-166.02 1603.67,-166.02 1603.67,-166.02 1599.83,-166.02 1596,-162.19 1596,-158.35 1596,-158.35 1596,-150.69 1596,-150.69 1596,-146.85 1599.83,-143.02 1603.67,-143.02 1603.67,-143.02 1948.33,-143.02 1948.33,-143.02 1952.17,-143.02 1956,-146.85 1956,-150.69 1956,-150.69 1956,-158.35 1956,-158.35 1956,-162.19 1952.17,-166.02 1948.33,-166.02"/>
<text text-anchor="middle" x="1776" y="-150.82" font-family="Arial" font-size="14.00" fill="#cfffac">src/handlers/schemas/authorizeHandlerConfig.schema.ts</text>
</g>
<!-- src/handlers/authorize.handler.ts&#45;&gt;src/handlers/schemas/authorizeHandlerConfig.schema.ts -->
<g id="edge15" class="edge">
<title>src/handlers/authorize.handler.ts&#45;&gt;src/handlers/schemas/authorizeHandlerConfig.schema.ts</title>
<path fill="none" stroke="#757575" d="M1438.09,-647.59C1461.66,-644.12 1484.52,-635.71 1501,-618.52 1568.58,-548.02 1468.87,-250.5 1537,-180.52 1581.2,-135.12 1657.14,-134.57 1711.35,-141.55"/>
<polygon fill="#757575" stroke="#757575" points="1711.16,-145.06 1721.55,-142.99 1712.13,-138.13 1711.16,-145.06"/>
</g>
<!-- src/statements/index.ts -->
<g id="node15" class="node">
<title>src/statements/index.ts</title>
<path fill="none" stroke="#c6c5fe" d="M1845.83,-647.02C1845.83,-647.02 1706.17,-647.02 1706.17,-647.02 1702.33,-647.02 1698.5,-643.19 1698.5,-639.35 1698.5,-639.35 1698.5,-631.69 1698.5,-631.69 1698.5,-627.85 1702.33,-624.02 1706.17,-624.02 1706.17,-624.02 1845.83,-624.02 1845.83,-624.02 1849.67,-624.02 1853.5,-627.85 1853.5,-631.69 1853.5,-631.69 1853.5,-639.35 1853.5,-639.35 1853.5,-643.19 1849.67,-647.02 1845.83,-647.02"/>
<text text-anchor="middle" x="1776" y="-631.82" font-family="Arial" font-size="14.00" fill="#c6c5fe">src/statements/index.ts</text>
</g>
<!-- src/handlers/authorize.handler.ts&#45;&gt;src/statements/index.ts -->
<g id="edge17" class="edge">
<title>src/handlers/authorize.handler.ts&#45;&gt;src/statements/index.ts</title>
<path fill="none" stroke="#757575" d="M1438.03,-638.57C1514.32,-637.88 1616.33,-636.96 1688.06,-636.31"/>
<polygon fill="#757575" stroke="#757575" points="1688.45,-639.8 1698.42,-636.21 1688.39,-632.8 1688.45,-639.8"/>
</g>
<!-- src/statements/grants/index.ts -->
<g id="node29" class="node">
<title>src/statements/grants/index.ts</title>
<path fill="none" stroke="#c6c5fe" d="M2253.33,-710.02C2253.33,-710.02 2071.67,-710.02 2071.67,-710.02 2067.83,-710.02 2064,-706.19 2064,-702.35 2064,-702.35 2064,-694.69 2064,-694.69 2064,-690.85 2067.83,-687.02 2071.67,-687.02 2071.67,-687.02 2253.33,-687.02 2253.33,-687.02 2257.17,-687.02 2261,-690.85 2261,-694.69 2261,-694.69 2261,-702.35 2261,-702.35 2261,-706.19 2257.17,-710.02 2253.33,-710.02"/>
<text text-anchor="middle" x="2162.5" y="-694.82" font-family="Arial" font-size="14.00" fill="#c6c5fe">src/statements/grants/index.ts</text>
</g>
<!-- src/statements/index.ts&#45;&gt;src/statements/grants/index.ts -->
<g id="edge53" class="edge">
<title>src/statements/index.ts&#45;&gt;src/statements/grants/index.ts</title>
<path fill="none" stroke="#757575" d="M1853.76,-641.19C1900.58,-645.32 1961.51,-651.89 2015,-661.52 2047.79,-667.42 2084.11,-676.58 2112.38,-684.3"/>
<polygon fill="#757575" stroke="#757575" points="2111.46,-687.68 2122.03,-686.97 2113.32,-680.93 2111.46,-687.68"/>
</g>
<!-- src/statements/locations/index.ts -->
<g id="node30" class="node">
<title>src/statements/locations/index.ts</title>
<path fill="none" stroke="#c6c5fe" d="M2260.83,-648.02C2260.83,-648.02 2064.17,-648.02 2064.17,-648.02 2060.33,-648.02 2056.5,-644.19 2056.5,-640.35 2056.5,-640.35 2056.5,-632.69 2056.5,-632.69 2056.5,-628.85 2060.33,-625.02 2064.17,-625.02 2064.17,-625.02 2260.83,-625.02 2260.83,-625.02 2264.67,-625.02 2268.5,-628.85 2268.5,-632.69 2268.5,-632.69 2268.5,-640.35 2268.5,-640.35 2268.5,-644.19 2264.67,-648.02 2260.83,-648.02"/>
<text text-anchor="middle" x="2162.5" y="-632.82" font-family="Arial" font-size="14.00" fill="#c6c5fe">src/statements/locations/index.ts</text>
</g>
<!-- src/statements/index.ts&#45;&gt;src/statements/locations/index.ts -->
<g id="edge54" class="edge">
<title>src/statements/index.ts&#45;&gt;src/statements/locations/index.ts</title>
<path fill="none" stroke="#757575" d="M1853.89,-635.72C1908.9,-635.86 1983.91,-636.06 2046.09,-636.22"/>
<polygon fill="#757575" stroke="#757575" points="2046.34,-639.72 2056.35,-636.25 2046.36,-632.72 2046.34,-639.72"/>
</g>
<!-- src/statements/resources/index.ts -->
<g id="node31" class="node">
<title>src/statements/resources/index.ts</title>
<path fill="none" stroke="#c6c5fe" d="M2263.83,-762.02C2263.83,-762.02 2061.17,-762.02 2061.17,-762.02 2057.33,-762.02 2053.5,-758.19 2053.5,-754.35 2053.5,-754.35 2053.5,-746.69 2053.5,-746.69 2053.5,-742.85 2057.33,-739.02 2061.17,-739.02 2061.17,-739.02 2263.83,-739.02 2263.83,-739.02 2267.67,-739.02 2271.5,-742.85 2271.5,-746.69 2271.5,-746.69 2271.5,-754.35 2271.5,-754.35 2271.5,-758.19 2267.67,-762.02 2263.83,-762.02"/>
<text text-anchor="middle" x="2162.5" y="-746.82" font-family="Arial" font-size="14.00" fill="#c6c5fe">src/statements/resources/index.ts</text>
</g>
<!-- src/statements/index.ts&#45;&gt;src/statements/resources/index.ts -->
<g id="edge55" class="edge">
<title>src/statements/index.ts&#45;&gt;src/statements/resources/index.ts</title>
<path fill="none" stroke="#757575" d="M1853.52,-627.56C1903.11,-626.13 1967.14,-631.64 2015,-661.52 2040.42,-677.39 2027.05,-700.51 2051,-718.52 2060.6,-725.74 2071.79,-731.33 2083.3,-735.67"/>
<polygon fill="#757575" stroke="#757575" points="2082.41,-739.06 2093.01,-739.02 2084.7,-732.45 2082.41,-739.06"/>
</g>
<!-- src/statements/tokens/index.ts -->
<g id="node32" class="node">
<title>src/statements/tokens/index.ts</title>
<path fill="none" stroke="#c6c5fe" d="M2254.33,-568.02C2254.33,-568.02 2070.67,-568.02 2070.67,-568.02 2066.83,-568.02 2063,-564.19 2063,-560.35 2063,-560.35 2063,-552.69 2063,-552.69 2063,-548.85 2066.83,-545.02 2070.67,-545.02 2070.67,-545.02 2254.33,-545.02 2254.33,-545.02 2258.17,-545.02 2262,-548.85 2262,-552.69 2262,-552.69 2262,-560.35 2262,-560.35 2262,-564.19 2258.17,-568.02 2254.33,-568.02"/>
<text text-anchor="middle" x="2162.5" y="-552.82" font-family="Arial" font-size="14.00" fill="#c6c5fe">src/statements/tokens/index.ts</text>
</g>
<!-- src/statements/index.ts&#45;&gt;src/statements/tokens/index.ts -->
<g id="edge56" class="edge">
<title>src/statements/index.ts&#45;&gt;src/statements/tokens/index.ts</title>
<path fill="none" stroke="#757575" d="M1833.32,-623.95C1902.95,-609.64 2021.28,-585.33 2095.21,-570.14"/>
<polygon fill="#757575" stroke="#757575" points="2096.25,-573.5 2105.34,-568.06 2094.84,-566.64 2096.25,-573.5"/>
</g>
<!-- src/statements/validations/index.ts -->
<g id="node33" class="node">
<title>src/statements/validations/index.ts</title>
<path fill="none" stroke="#c6c5fe" d="M2266.33,-425.02C2266.33,-425.02 2058.67,-425.02 2058.67,-425.02 2054.83,-425.02 2051,-421.19 2051,-417.35 2051,-417.35 2051,-409.69 2051,-409.69 2051,-405.85 2054.83,-402.02 2058.67,-402.02 2058.67,-402.02 2266.33,-402.02 2266.33,-402.02 2270.17,-402.02 2274,-405.85 2274,-409.69 2274,-409.69 2274,-417.35 2274,-417.35 2274,-421.19 2270.17,-425.02 2266.33,-425.02"/>
<text text-anchor="middle" x="2162.5" y="-409.82" font-family="Arial" font-size="14.00" fill="#c6c5fe">src/statements/validations/index.ts</text>
</g>
<!-- src/statements/index.ts&#45;&gt;src/statements/validations/index.ts -->
<g id="edge57" class="edge">
<title>src/statements/index.ts&#45;&gt;src/statements/validations/index.ts</title>
<path fill="none" stroke="#757575" d="M1797.13,-623.9C1860.85,-587.11 2058.28,-473.11 2132.71,-430.14"/>
<polygon fill="#757575" stroke="#757575" points="2134.66,-433.06 2141.57,-425.03 2131.16,-427 2134.66,-433.06"/>
</g>
<!-- src/handlers/credentialOffer.handler.ts&#45;&gt;src/resources.ts -->
<g id="edge21" class="edge">
<title>src/handlers/credentialOffer.handler.ts&#45;&gt;src/resources.ts</title>
<path fill="none" stroke="#757575" d="M1454.54,-685.38C1470.64,-688.77 1486.55,-693.63 1501,-700.52 1521.14,-710.12 1516.68,-726.29 1537,-735.52 1731.07,-823.67 1820.93,-686.37 2015,-774.52 2035.32,-783.75 2030.42,-800.89 2051,-809.52 2157.18,-854.07 2194.87,-814.19 2310,-815.52 2478.88,-817.48 2541.03,-895.09 2690,-815.52 2735.7,-791.11 2762.47,-732.45 2774.09,-700.74"/>
<polygon fill="#757575" stroke="#757575" points="2777.46,-701.69 2777.45,-691.1 2770.85,-699.39 2777.46,-701.69"/>
</g>
<!-- src/handlers/credentialOffer.handler.ts&#45;&gt;src/config.ts -->
<g id="edge18" class="edge">
<title>src/handlers/credentialOffer.handler.ts&#45;&gt;src/config.ts</title>
<path fill="none" stroke="#757575" d="M1454.68,-678.13C1471.58,-682.39 1487.68,-689.43 1501,-700.52 1542.49,-735.05 1494.92,-782.71 1537,-816.52 1588.52,-857.91 1668.13,-855.52 1720.89,-847.81"/>
<polygon fill="#757575" stroke="#757575" points="1721.74,-851.22 1731.07,-846.21 1720.65,-844.31 1721.74,-851.22"/>
</g>
<!-- src/handlers/credentialOffer.handler.ts&#45;&gt;src/errors.ts -->
<g id="edge19" class="edge">
<title>src/handlers/credentialOffer.handler.ts&#45;&gt;src/errors.ts</title>
<path fill="none" stroke="#757575" d="M1454.83,-685.1C1472.23,-680.49 1488.44,-672.53 1501,-659.52 1563.45,-594.83 1470.65,-317.2 1537,-256.52 1584.27,-213.29 2628.23,-239.57 2690,-256.52 2715.5,-263.52 2741.08,-279.71 2758.6,-292.55"/>
<polygon fill="#757575" stroke="#757575" points="2756.9,-295.65 2766.99,-298.89 2761.12,-290.07 2756.9,-295.65"/>
</g>
<!-- src/handlers/credentialOffer.handler.ts&#45;&gt;src/statements/index.ts -->
<g id="edge22" class="edge">
<title>src/handlers/credentialOffer.handler.ts&#45;&gt;src/statements/index.ts</title>
<path fill="none" stroke="#757575" d="M1445.97,-669.02C1521.42,-661.34 1619.15,-651.39 1688.44,-644.33"/>
<polygon fill="#757575" stroke="#757575" points="1688.86,-647.81 1698.45,-643.31 1688.15,-640.84 1688.86,-647.81"/>
</g>
<!-- src/handlers/schemas/credentialOfferHandlerConfig.schema.ts -->
<g id="node17" class="node">
<title>src/handlers/schemas/credentialOfferHandlerConfig.schema.ts</title>
<path fill="none" stroke="#cfffac" d="M1965.33,-727.02C1965.33,-727.02 1586.67,-727.02 1586.67,-727.02 1582.83,-727.02 1579,-723.19 1579,-719.35 1579,-719.35 1579,-711.69 1579,-711.69 1579,-707.85 1582.83,-704.02 1586.67,-704.02 1586.67,-704.02 1965.33,-704.02 1965.33,-704.02 1969.17,-704.02 1973,-707.85 1973,-711.69 1973,-711.69 1973,-719.35 1973,-719.35 1973,-723.19 1969.17,-727.02 1965.33,-727.02"/>
<text text-anchor="middle" x="1776" y="-711.82" font-family="Arial" font-size="14.00" fill="#cfffac">src/handlers/schemas/credentialOfferHandlerConfig.schema.ts</text>
</g>
<!-- src/handlers/credentialOffer.handler.ts&#45;&gt;src/handlers/schemas/credentialOfferHandlerConfig.schema.ts -->
<g id="edge20" class="edge">
<title>src/handlers/credentialOffer.handler.ts&#45;&gt;src/handlers/schemas/credentialOfferHandlerConfig.schema.ts</title>
<path fill="none" stroke="#757575" d="M1454.66,-690.15C1505.66,-694.19 1565.57,-698.94 1619.7,-703.22"/>
<polygon fill="#757575" stroke="#757575" points="1619.49,-706.72 1629.74,-704.02 1620.05,-699.74 1619.49,-706.72"/>
</g>
<!-- src/handlers/oauthAuthorizationServer.handler.ts&#45;&gt;src/config.ts -->
<g id="edge29" class="edge">
<title>src/handlers/oauthAuthorizationServer.handler.ts&#45;&gt;src/config.ts</title>
<path fill="none" stroke="#757575" d="M1448.42,-866.01C1477.34,-863.18 1508.3,-860.19 1537,-857.52 1600.1,-851.64 1672.66,-845.3 1720.91,-841.14"/>
<polygon fill="#757575" stroke="#757575" points="1721.46,-844.61 1731.12,-840.26 1720.86,-837.63 1721.46,-844.61"/>
</g>
<!-- src/handlers/schemas/oauthAuthorizationServerHandlerConfig.schema.ts -->
<g id="node22" class="node">
<title>src/handlers/schemas/oauthAuthorizationServerHandlerConfig.schema.ts</title>
<path fill="none" stroke="#cfffac" d="M1996.83,-889.02C1996.83,-889.02 1555.17,-889.02 1555.17,-889.02 1551.33,-889.02 1547.5,-885.19 1547.5,-881.35 1547.5,-881.35 1547.5,-873.69 1547.5,-873.69 1547.5,-869.85 1551.33,-866.02 1555.17,-866.02 1555.17,-866.02 1996.83,-866.02 1996.83,-866.02 2000.67,-866.02 2004.5,-869.85 2004.5,-873.69 2004.5,-873.69 2004.5,-881.35 2004.5,-881.35 2004.5,-885.19 2000.67,-889.02 1996.83,-889.02"/>
<text text-anchor="middle" x="1776" y="-873.82" font-family="Arial" font-size="14.00" fill="#cfffac">src/handlers/schemas/oauthAuthorizationServerHandlerConfig.schema.ts</text>
</g>
<!-- src/handlers/oauthAuthorizationServer.handler.ts&#45;&gt;src/handlers/schemas/oauthAuthorizationServerHandlerConfig.schema.ts -->
<g id="edge30" class="edge">
<title>src/handlers/oauthAuthorizationServer.handler.ts&#45;&gt;src/handlers/schemas/oauthAuthorizationServerHandlerConfig.schema.ts</title>
<path fill="none" stroke="#757575" d="M1486.04,-877.52C1502.62,-877.52 1519.76,-877.52 1537.04,-877.52"/>
<polygon fill="#757575" stroke="#757575" points="1537.23,-881.02 1547.23,-877.52 1537.23,-874.02 1537.23,-881.02"/>
</g>
<!-- src/handlers/openidCredentialIssuer.handler.ts&#45;&gt;src/resources.ts -->
<g id="edge33" class="edge">
<title>src/handlers/openidCredentialIssuer.handler.ts&#45;&gt;src/resources.ts</title>
<path fill="none" stroke="#757575" d="M1479.09,-922.57C1809.09,-930.5 2591.15,-942.04 2690,-876.52 2751.11,-836.01 2771.9,-743.25 2778.35,-701.09"/>
<polygon fill="#757575" stroke="#757575" points="2781.84,-701.46 2779.76,-691.07 2774.9,-700.48 2781.84,-701.46"/>
</g>
<!-- src/handlers/openidCredentialIssuer.handler.ts&#45;&gt;src/config.ts -->
<g id="edge31" class="edge">
<title>src/handlers/openidCredentialIssuer.handler.ts&#45;&gt;src/config.ts</title>
<path fill="none" stroke="#757575" d="M1479.36,-907.86C1486.85,-905.23 1494.11,-902.14 1501,-898.52 1522.46,-887.23 1515.37,-868.48 1537,-857.52 1594.81,-828.22 1670.7,-826.86 1721.07,-830.25"/>
<polygon fill="#757575" stroke="#757575" points="1720.87,-833.75 1731.11,-831.01 1721.4,-826.77 1720.87,-833.75"/>
</g>
<!-- src/handlers/schemas/openidCredentialIssuerHandlerConfig.schema.ts -->
<g id="node23" class="node">
<title>src/handlers/schemas/openidCredentialIssuerHandlerConfig.schema.ts</title>
<path fill="none" stroke="#cfffac" d="M1989.83,-969.02C1989.83,-969.02 1562.17,-969.02 1562.17,-969.02 1558.33,-969.02 1554.5,-965.19 1554.5,-961.35 1554.5,-961.35 1554.5,-953.69 1554.5,-953.69 1554.5,-949.85 1558.33,-946.02 1562.17,-946.02 1562.17,-946.02 1989.83,-946.02 1989.83,-946.02 1993.67,-946.02 1997.5,-949.85 1997.5,-953.69 1997.5,-953.69 1997.5,-961.35 1997.5,-961.35 1997.5,-965.19 1993.67,-969.02 1989.83,-969.02"/>
<text text-anchor="middle" x="1776" y="-953.82" font-family="Arial" font-size="14.00" fill="#cfffac">src/handlers/schemas/openidCredentialIssuerHandlerConfig.schema.ts</text>
</g>
<!-- src/handlers/openidCredentialIssuer.handler.ts&#45;&gt;src/handlers/schemas/openidCredentialIssuerHandlerConfig.schema.ts -->
<g id="edge32" class="edge">
<title>src/handlers/openidCredentialIssuer.handler.ts&#45;&gt;src/handlers/schemas/openidCredentialIssuerHandlerConfig.schema.ts</title>
<path fill="none" stroke="#757575" d="M1463.52,-930.04C1517.21,-934.77 1579.51,-940.27 1634.22,-945.1"/>
<polygon fill="#757575" stroke="#757575" points="1634.08,-948.6 1644.35,-945.99 1634.69,-941.63 1634.08,-948.6"/>
</g>
<!-- src/handlers/pushedAuthorizationRequest.handler.ts&#45;&gt;src/config.ts -->
<g id="edge34" class="edge">
<title>src/handlers/pushedAuthorizationRequest.handler.ts&#45;&gt;src/config.ts</title>
<path fill="none" stroke="#757575" d="M1474.49,-733.08C1483.89,-736.92 1492.84,-741.68 1501,-747.52 1529.12,-767.67 1508.2,-797.37 1537,-816.52 1591.7,-852.9 1669.86,-851.91 1721.48,-845.87"/>
<polygon fill="#757575" stroke="#757575" points="1721.96,-849.34 1731.44,-844.61 1721.08,-842.39 1721.96,-849.34"/>
</g>
<!-- src/handlers/pushedAuthorizationRequest.handler.ts&#45;&gt;src/errors.ts -->
<g id="edge35" class="edge">
<title>src/handlers/pushedAuthorizationRequest.handler.ts&#45;&gt;src/errors.ts</title>
<path fill="none" stroke="#757575" d="M1486.15,-709.95C1491.34,-707.2 1496.32,-704.07 1501,-700.52 1534,-675.46 1507.87,-643.98 1537,-614.52 1799.04,-349.51 1943.97,-359.63 2310,-289.52 2475.87,-257.75 2522.2,-270.41 2690,-289.52 2703.22,-291.03 2717.32,-293.72 2730.37,-296.7"/>
<polygon fill="#757575" stroke="#757575" points="2729.58,-300.11 2740.12,-299.01 2731.2,-293.29 2729.58,-300.11"/>
</g>
<!-- src/handlers/pushedAuthorizationRequest.handler.ts&#45;&gt;src/statements/index.ts -->
<g id="edge37" class="edge">
<title>src/handlers/pushedAuthorizationRequest.handler.ts&#45;&gt;src/statements/index.ts</title>
<path fill="none" stroke="#757575" d="M1439.46,-709.98C1459.95,-707.26 1481.19,-704.1 1501,-700.52 1578.9,-686.45 1667.88,-664.18 1722.75,-649.7"/>
<polygon fill="#757575" stroke="#757575" points="1723.82,-653.04 1732.59,-647.1 1722.02,-646.27 1723.82,-653.04"/>
</g>
<!-- src/handlers/schemas/pushedAuthorizationRequestHandlerConfig.schema.ts -->
<g id="node24" class="node">
<title>src/handlers/schemas/pushedAuthorizationRequestHandlerConfig.schema.ts</title>
<path fill="none" stroke="#cfffac" d="M2007.33,-807.02C2007.33,-807.02 1544.67,-807.02 1544.67,-807.02 1540.83,-807.02 1537,-803.19 1537,-799.35 1537,-799.35 1537,-791.69 1537,-791.69 1537,-787.85 1540.83,-784.02 1544.67,-784.02 1544.67,-784.02 2007.33,-784.02 2007.33,-784.02 2011.17,-784.02 2015,-787.85 2015,-791.69 2015,-791.69 2015,-799.35 2015,-799.35 2015,-803.19 2011.17,-807.02 2007.33,-807.02"/>
<text text-anchor="middle" x="1776" y="-791.82" font-family="Arial" font-size="14.00" fill="#cfffac">src/handlers/schemas/pushedAuthorizationRequestHandlerConfig.schema.ts</text>
</g>
<!-- src/handlers/pushedAuthorizationRequest.handler.ts&#45;&gt;src/handlers/schemas/pushedAuthorizationRequestHandlerConfig.schema.ts -->
<g id="edge36" class="edge">
<title>src/handlers/pushedAuthorizationRequest.handler.ts&#45;&gt;src/handlers/schemas/pushedAuthorizationRequestHandlerConfig.schema.ts</title>
<path fill="none" stroke="#757575" d="M1447.95,-733.11C1466.01,-736.69 1484.23,-741.38 1501,-747.52 1518.61,-753.97 1519.25,-763.47 1537,-769.52 1551.74,-774.55 1567.27,-778.66 1583.03,-782.02"/>
<polygon fill="#757575" stroke="#757575" points="1582.38,-785.46 1592.87,-784.01 1583.77,-778.6 1582.38,-785.46"/>
</g>
<!-- src/handlers/token.handler.ts&#45;&gt;src/config.ts -->
<g id="edge38" class="edge">
<title>src/handlers/token.handler.ts&#45;&gt;src/config.ts</title>
<path fill="none" stroke="#757575" d="M1038.76,-590.1C1053.4,-620.85 1097.87,-704.71 1163,-741.52 1294.88,-816.06 1362.69,-723.72 1501,-785.52 1520.28,-794.13 1517.53,-808.35 1537,-816.52 1596.43,-841.46 1671.44,-843.49 1721.19,-841.23"/>
<polygon fill="#757575" stroke="#757575" points="1721.61,-844.72 1731.41,-840.69 1721.24,-837.72 1721.61,-844.72"/>
</g>
<!-- src/handlers/token.handler.ts&#45;&gt;src/errors.ts -->
<g id="edge39" class="edge">
<title>src/handlers/token.handler.ts&#45;&gt;src/errors.ts</title>
<path fill="none" stroke="#757575" d="M1040.9,-566.61C1081.39,-502.66 1283.43,-198.2 1537,-71.52 1632.53,-23.79 1668.21,-38.52 1775,-38.52 1775,-38.52 1775,-38.52 2163.5,-38.52 2397.99,-38.52 2501.23,66.58 2690,-72.52 2761.05,-124.87 2776.63,-240.17 2780.04,-288.51"/>
<polygon fill="#757575" stroke="#757575" points="2776.56,-289.01 2780.65,-298.78 2783.55,-288.59 2776.56,-289.01"/>
</g>
<!-- src/handlers/schemas/tokenHandlerConfig.schema.ts -->
<g id="node25" class="node">
<title>src/handlers/schemas/tokenHandlerConfig.schema.ts</title>
<path fill="none" stroke="#cfffac" d="M1493.33,-610.02C1493.33,-610.02 1170.67,-610.02 1170.67,-610.02 1166.83,-610.02 1163,-606.19 1163,-602.35 1163,-602.35 1163,-594.69 1163,-594.69 1163,-590.85 1166.83,-587.02 1170.67,-587.02 1170.67,-587.02 1493.33,-587.02 1493.33,-587.02 1497.17,-587.02 1501,-590.85 1501,-594.69 1501,-594.69 1501,-602.35 1501,-602.35 1501,-606.19 1497.17,-610.02 1493.33,-610.02"/>
<text text-anchor="middle" x="1332" y="-594.82" font-family="Arial" font-size="14.00" fill="#cfffac">src/handlers/schemas/tokenHandlerConfig.schema.ts</text>
</g>
<!-- src/handlers/token.handler.ts&#45;&gt;src/handlers/schemas/tokenHandlerConfig.schema.ts -->
<g id="edge40" class="edge">
<title>src/handlers/token.handler.ts&#45;&gt;src/handlers/schemas/tokenHandlerConfig.schema.ts</title>
<path fill="none" stroke="#757575" d="M1127.22,-584.82C1135.49,-585.38 1144.01,-585.95 1152.68,-586.53"/>
<polygon fill="#757575" stroke="#757575" points="1152.7,-590.04 1162.91,-587.22 1153.17,-583.06 1152.7,-590.04"/>
</g>
<!-- src/handlers/token/authorizationCode.ts -->
<g id="node26" class="node">
<title>src/handlers/token/authorizationCode.ts</title>
<path fill="none" stroke="#c6c5fe" d="M1451.33,-569.02C1451.33,-569.02 1212.67,-569.02 1212.67,-569.02 1208.83,-569.02 1205,-565.19 1205,-561.35 1205,-561.35 1205,-553.69 1205,-553.69 1205,-549.85 1208.83,-546.02 1212.67,-546.02 1212.67,-546.02 1451.33,-546.02 1451.33,-546.02 1455.17,-546.02 1459,-549.85 1459,-553.69 1459,-553.69 1459,-561.35 1459,-561.35 1459,-565.19 1455.17,-569.02 1451.33,-569.02"/>
<text text-anchor="middle" x="1332" y="-553.82" font-family="Arial" font-size="14.00" fill="#c6c5fe">src/handlers/token/authorizationCode.ts</text>
</g>
<!-- src/handlers/token.handler.ts&#45;&gt;src/handlers/token/authorizationCode.ts -->
<g id="edge41" class="edge">
<title>src/handlers/token.handler.ts&#45;&gt;src/handlers/token/authorizationCode.ts</title>
<path fill="none" stroke="#757575" d="M1127.22,-571.9C1148.66,-570.39 1171.87,-568.75 1194.7,-567.14"/>
<polygon fill="#757575" stroke="#757575" points="1195.06,-570.62 1204.79,-566.43 1194.57,-563.64 1195.06,-570.62"/>
</g>
<!-- src/handlers/token/clientCredentials.ts -->
<g id="node27" class="node">
<title>src/handlers/token/clientCredentials.ts</title>
<path fill="none" stroke="#c6c5fe" d="M1446.83,-528.02C1446.83,-528.02 1217.17,-528.02 1217.17,-528.02 1213.33,-528.02 1209.5,-524.19 1209.5,-520.35 1209.5,-520.35 1209.5,-512.69 1209.5,-512.69 1209.5,-508.85 1213.33,-505.02 1217.17,-505.02 1217.17,-505.02 1446.83,-505.02 1446.83,-505.02 1450.67,-505.02 1454.5,-508.85 1454.5,-512.69 1454.5,-512.69 1454.5,-520.35 1454.5,-520.35 1454.5,-524.19 1450.67,-528.02 1446.83,-528.02"/>
<text text-anchor="middle" x="1332" y="-512.82" font-family="Arial" font-size="14.00" fill="#c6c5fe">src/handlers/token/clientCredentials.ts</text>
</g>
<!-- src/handlers/token.handler.ts&#45;&gt;src/handlers/token/clientCredentials.ts -->
<g id="edge42" class="edge">
<title>src/handlers/token.handler.ts&#45;&gt;src/handlers/token/clientCredentials.ts</title>
<path fill="none" stroke="#757575" d="M1063.39,-566.98C1089.35,-557.41 1128.14,-544.17 1163,-536.52 1174.88,-533.91 1187.32,-531.62 1199.82,-529.62"/>
<polygon fill="#757575" stroke="#757575" points="1200.5,-533.06 1209.85,-528.07 1199.44,-526.14 1200.5,-533.06"/>
</g>
<!-- src/handlers/token/authorizationCode.ts&#45;&gt;src/errors.ts -->
<g id="edge43" class="edge">
<title>src/handlers/token/authorizationCode.ts&#45;&gt;src/errors.ts</title>
<path fill="none" stroke="#757575" d="M1459.05,-560.91C1474.84,-556.17 1489.47,-548.47 1501,-536.52 1563.45,-471.83 1470.65,-194.2 1537,-133.52 1584.62,-89.96 2649.44,-157.58 2690,-180.52 2733.11,-204.91 2760.56,-259.17 2773.07,-289.31"/>
<polygon fill="#757575" stroke="#757575" points="2769.93,-290.87 2776.88,-298.87 2776.43,-288.29 2769.93,-290.87"/>
</g>
<!-- src/handlers/token/authorizationCode.ts&#45;&gt;src/statements/index.ts -->
<g id="edge44" class="edge">
<title>src/handlers/token/authorizationCode.ts&#45;&gt;src/statements/index.ts</title>
<path fill="none" stroke="#757575" d="M1442.1,-569.06C1461.75,-571.55 1482.02,-574.39 1501,-577.52 1575.97,-589.89 1661.52,-608.77 1716.79,-621.6"/>
<polygon fill="#757575" stroke="#757575" points="1716.21,-625.06 1726.74,-623.93 1717.8,-618.25 1716.21,-625.06"/>
</g>
<!-- src/handlers/token/clientCredentials.ts&#45;&gt;src/errors.ts -->
<g id="edge45" class="edge">
<title>src/handlers/token/clientCredentials.ts&#45;&gt;src/errors.ts</title>
<path fill="none" stroke="#757575" d="M1334.39,-504.68C1341.85,-447.27 1382.73,-196.69 1537,-100.52 1591.36,-66.63 2636.45,-65.37 2690,-100.52 2755.38,-143.44 2774.02,-244.49 2779.14,-288.92"/>
<polygon fill="#757575" stroke="#757575" points="2775.66,-289.34 2780.17,-298.93 2782.63,-288.62 2775.66,-289.34"/>
</g>
<!-- src/handlers/token/clientCredentials.ts&#45;&gt;src/statements/index.ts -->
<g id="edge46" class="edge">
<title>src/handlers/token/clientCredentials.ts&#45;&gt;src/statements/index.ts</title>
<path fill="none" stroke="#757575" d="M1454.71,-527.67C1470.38,-530.08 1486.14,-533 1501,-536.52 1589.31,-557.44 1688.44,-597.67 1739.83,-619.86"/>
<polygon fill="#757575" stroke="#757575" points="1738.59,-623.14 1749.16,-623.92 1741.38,-616.72 1738.59,-623.14"/>
</g>
<!-- src/statements/grants/generateIssuerGrants.ts -->
<g id="node28" class="node">
<title>src/statements/grants/generateIssuerGrants.ts</title>
<path fill="none" stroke="#c6c5fe" d="M2640.33,-732.02C2640.33,-732.02 2359.67,-732.02 2359.67,-732.02 2355.83,-732.02 2352,-728.19 2352,-724.35 2352,-724.35 2352,-716.69 2352,-716.69 2352,-712.85 2355.83,-709.02 2359.67,-709.02 2359.67,-709.02 2640.33,-709.02 2640.33,-709.02 2644.17,-709.02 2648,-712.85 2648,-716.69 2648,-716.69 2648,-724.35 2648,-724.35 2648,-728.19 2644.17,-732.02 2640.33,-732.02"/>
<text text-anchor="middle" x="2500" y="-716.82" font-family="Arial" font-size="14.00" fill="#c6c5fe">src/statements/grants/generateIssuerGrants.ts</text>
</g>
<!-- src/statements/grants/generateIssuerGrants.ts&#45;&gt;src/resources.ts -->
<g id="edge51" class="edge">
<title>src/statements/grants/generateIssuerGrants.ts&#45;&gt;src/resources.ts</title>
<path fill="none" stroke="#757575" d="M2622,-709C2644.65,-706.3 2668.09,-703.13 2690,-699.52 2700.75,-697.75 2712.15,-695.52 2723.11,-693.2"/>
<polygon fill="#757575" stroke="#757575" points="2723.98,-696.6 2733.01,-691.06 2722.5,-689.75 2723.98,-696.6"/>
</g>
<!-- src/statements/grants/index.ts&#45;&gt;src/statements/grants/generateIssuerGrants.ts -->
<g id="edge52" class="edge">
<title>src/statements/grants/index.ts&#45;&gt;src/statements/grants/generateIssuerGrants.ts</title>
<path fill="none" stroke="#757575" d="M2261.44,-704.94C2286.68,-706.6 2314.48,-708.42 2341.9,-710.22"/>
<polygon fill="#757575" stroke="#757575" points="2341.77,-713.72 2351.98,-710.88 2342.23,-706.73 2341.77,-713.72"/>
</g>
<!-- src/statements/locations/authorizationCodeRedirection.ts -->
<g id="node34" class="node">
<title>src/statements/locations/authorizationCodeRedirection.ts</title>
<path fill="none" stroke="#c6c5fe" d="M2671.33,-691.02C2671.33,-691.02 2328.67,-691.02 2328.67,-691.02 2324.83,-691.02 2321,-687.19 2321,-683.35 2321,-683.35 2321,-675.69 2321,-675.69 2321,-671.85 2324.83,-668.02 2328.67,-668.02 2328.67,-668.02 2671.33,-668.02 2671.33,-668.02 2675.17,-668.02 2679,-671.85 2679,-675.69 2679,-675.69 2679,-683.35 2679,-683.35 2679,-687.19 2675.17,-691.02 2671.33,-691.02"/>
<text text-anchor="middle" x="2500" y="-675.82" font-family="Arial" font-size="14.00" fill="#c6c5fe">src/statements/locations/authorizationCodeRedirection.ts</text>
</g>
<!-- src/statements/locations/index.ts&#45;&gt;src/statements/locations/authorizationCodeRedirection.ts -->
<g id="edge63" class="edge">
<title>src/statements/locations/index.ts&#45;&gt;src/statements/locations/authorizationCodeRedirection.ts</title>
<path fill="none" stroke="#757575" d="M2236.45,-648.04C2259.91,-651.59 2286.03,-655.39 2310,-658.52 2332.24,-661.42 2355.99,-664.27 2378.88,-666.87"/>
<polygon fill="#757575" stroke="#757575" points="2378.65,-670.37 2388.98,-668.02 2379.44,-663.42 2378.65,-670.37"/>
</g>
<!-- src/statements/locations/generateAuthorizationRequestUri.ts -->
<g id="node35" class="node">
<title>src/statements/locations/generateAuthorizationRequestUri.ts</title>
<path fill="none" stroke="#c6c5fe" d="M2682.33,-650.02C2682.33,-650.02 2317.67,-650.02 2317.67,-650.02 2313.83,-650.02 2310,-646.19 2310,-642.35 2310,-642.35 2310,-634.69 2310,-634.69 2310,-630.85 2313.83,-627.02 2317.67,-627.02 2317.67,-627.02 2682.33,-627.02 2682.33,-627.02 2686.17,-627.02 2690,-630.85 2690,-634.69 2690,-634.69 2690,-642.35 2690,-642.35 2690,-646.19 2686.17,-650.02 2682.33,-650.02"/>
<text text-anchor="middle" x="2500" y="-634.82" font-family="Arial" font-size="14.00" fill="#c6c5fe">src/statements/locations/generateAuthorizationRequestUri.ts</text>
</g>
<!-- src/statements/locations/index.ts&#45;&gt;src/statements/locations/generateAuthorizationRequestUri.ts -->
<g id="edge64" class="edge">
<title>src/statements/locations/index.ts&#45;&gt;src/statements/locations/generateAuthorizationRequestUri.ts</title>
<path fill="none" stroke="#757575" d="M2268.73,-637.15C2278.78,-637.21 2289.18,-637.27 2299.75,-637.33"/>
<polygon fill="#757575" stroke="#757575" points="2299.91,-640.83 2309.93,-637.39 2299.95,-633.83 2299.91,-640.83"/>
</g>
<!-- src/statements/locations/generateCredentialOffer.ts -->
<g id="node36" class="node">
<title>src/statements/locations/generateCredentialOffer.ts</title>
<path fill="none" stroke="#c6c5fe" d="M2654.83,-609.02C2654.83,-609.02 2345.17,-609.02 2345.17,-609.02 2341.33,-609.02 2337.5,-605.19 2337.5,-601.35 2337.5,-601.35 2337.5,-593.69 2337.5,-593.69 2337.5,-589.85 2341.33,-586.02 2345.17,-586.02 2345.17,-586.02 2654.83,-586.02 2654.83,-586.02 2658.67,-586.02 2662.5,-589.85 2662.5,-593.69 2662.5,-593.69 2662.5,-601.35 2662.5,-601.35 2662.5,-605.19 2658.67,-609.02 2654.83,-609.02"/>
<text text-anchor="middle" x="2500" y="-593.82" font-family="Arial" font-size="14.00" fill="#c6c5fe">src/statements/locations/generateCredentialOffer.ts</text>
</g>
<!-- src/statements/locations/index.ts&#45;&gt;src/statements/locations/generateCredentialOffer.ts -->
<g id="edge65" class="edge">
<title>src/statements/locations/index.ts&#45;&gt;src/statements/locations/generateCredentialOffer.ts</title>
<path fill="none" stroke="#757575" d="M2249.83,-624.98C2269.59,-622.43 2290.51,-619.81 2310,-617.52 2331.31,-615.01 2354,-612.49 2375.98,-610.11"/>
<polygon fill="#757575" stroke="#757575" points="2376.45,-613.58 2386.02,-609.04 2375.7,-606.62 2376.45,-613.58"/>
</g>
<!-- src/statements/resources/issuerClient.ts -->
<g id="node37" class="node">
<title>src/statements/resources/issuerClient.ts</title>
<path fill="none" stroke="#c6c5fe" d="M2620.83,-773.02C2620.83,-773.02 2379.17,-773.02 2379.17,-773.02 2375.33,-773.02 2371.5,-769.19 2371.5,-765.35 2371.5,-765.35 2371.5,-757.69 2371.5,-757.69 2371.5,-753.85 2375.33,-750.02 2379.17,-750.02 2379.17,-750.02 2620.83,-750.02 2620.83,-750.02 2624.67,-750.02 2628.5,-753.85 2628.5,-757.69 2628.5,-757.69 2628.5,-765.35 2628.5,-765.35 2628.5,-769.19 2624.67,-773.02 2620.83,-773.02"/>
<text text-anchor="middle" x="2500" y="-757.82" font-family="Arial" font-size="14.00" fill="#c6c5fe">src/statements/resources/issuerClient.ts</text>
</g>
<!-- src/statements/resources/index.ts&#45;&gt;src/statements/resources/issuerClient.ts -->
<g id="edge66" class="edge">
<title>src/statements/resources/index.ts&#45;&gt;src/statements/resources/issuerClient.ts</title>
<path fill="none" stroke="#757575" d="M2271.5,-754.06C2300.07,-755 2331.3,-756.02 2361.21,-757"/>
<polygon fill="#757575" stroke="#757575" points="2361.19,-760.5 2371.3,-757.33 2361.42,-753.51 2361.19,-760.5"/>
</g>
<!-- src/statements/tokens/generateAccessToken.ts -->
<g id="node38" class="node">
<title>src/statements/tokens/generateAccessToken.ts</title>
<path fill="none" stroke="#c6c5fe" d="M2641.83,-568.02C2641.83,-568.02 2358.17,-568.02 2358.17,-568.02 2354.33,-568.02 2350.5,-564.19 2350.5,-560.35 2350.5,-560.35 2350.5,-552.69 2350.5,-552.69 2350.5,-548.85 2354.33,-545.02 2358.17,-545.02 2358.17,-545.02 2641.83,-545.02 2641.83,-545.02 2645.67,-545.02 2649.5,-548.85 2649.5,-552.69 2649.5,-552.69 2649.5,-560.35 2649.5,-560.35 2649.5,-564.19 2645.67,-568.02 2641.83,-568.02"/>
<text text-anchor="middle" x="2500" y="-552.82" font-family="Arial" font-size="14.00" fill="#c6c5fe">src/statements/tokens/generateAccessToken.ts</text>
</g>
<!-- src/statements/tokens/index.ts&#45;&gt;src/statements/tokens/generateAccessToken.ts -->
<g id="edge71" class="edge">
<title>src/statements/tokens/index.ts&#45;&gt;src/statements/tokens/generateAccessToken.ts</title>
<path fill="none" stroke="#757575" d="M2262.35,-556.52C2286.86,-556.52 2313.74,-556.52 2340.32,-556.52"/>
<polygon fill="#757575" stroke="#757575" points="2340.49,-560.02 2350.49,-556.52 2340.49,-553.02 2340.49,-560.02"/>
</g>
<!-- src/statements/tokens/generateAuthorizationCode.ts -->
<g id="node39" class="node">
<title>src/statements/tokens/generateAuthorizationCode.ts</title>
<path fill="none" stroke="#c6c5fe" d="M2657.83,-527.02C2657.83,-527.02 2342.17,-527.02 2342.17,-527.02 2338.33,-527.02 2334.5,-523.19 2334.5,-519.35 2334.5,-519.35 2334.5,-511.69 2334.5,-511.69 2334.5,-507.85 2338.33,-504.02 2342.17,-504.02 2342.17,-504.02 2657.83,-504.02 2657.83,-504.02 2661.67,-504.02 2665.5,-507.85 2665.5,-511.69 2665.5,-511.69 2665.5,-519.35 2665.5,-519.35 2665.5,-523.19 2661.67,-527.02 2657.83,-527.02"/>
<text text-anchor="middle" x="2500" y="-511.82" font-family="Arial" font-size="14.00" fill="#c6c5fe">src/statements/tokens/generateAuthorizationCode.ts</text>
</g>
<!-- src/statements/tokens/index.ts&#45;&gt;src/statements/tokens/generateAuthorizationCode.ts -->
<g id="edge72" class="edge">
<title>src/statements/tokens/index.ts&#45;&gt;src/statements/tokens/generateAuthorizationCode.ts</title>
<path fill="none" stroke="#757575" d="M2240.22,-544.98C2262.69,-541.75 2287.31,-538.35 2310,-535.52 2330.56,-532.96 2352.41,-530.45 2373.68,-528.12"/>
<polygon fill="#757575" stroke="#757575" points="2374.17,-531.59 2383.73,-527.03 2373.41,-524.63 2374.17,-531.59"/>
</g>
<!-- src/statements/validations/validateClientCredentials.ts -->
<g id="node40" class="node">
<title>src/statements/validations/validateClientCredentials.ts</title>
<path fill="none" stroke="#c6c5fe" d="M2662.33,-486.02C2662.33,-486.02 2337.67,-486.02 2337.67,-486.02 2333.83,-486.02 2330,-482.19 2330,-478.35 2330,-478.35 2330,-470.69 2330,-470.69 2330,-466.85 2333.83,-463.02 2337.67,-463.02 2337.67,-463.02 2662.33,-463.02 2662.33,-463.02 2666.17,-463.02 2670,-466.85 2670,-470.69 2670,-470.69 2670,-478.35 2670,-478.35 2670,-482.19 2666.17,-486.02 2662.33,-486.02"/>
<text text-anchor="middle" x="2500" y="-470.82" font-family="Arial" font-size="14.00" fill="#c6c5fe">src/statements/validations/validateClientCredentials.ts</text>
</g>
<!-- src/statements/validations/index.ts&#45;&gt;src/statements/validations/validateClientCredentials.ts -->
<g id="edge73" class="edge">
<title>src/statements/validations/index.ts&#45;&gt;src/statements/validations/validateClientCredentials.ts</title>
<path fill="none" stroke="#757575" d="M2199.56,-425.06C2228.99,-434.06 2271.8,-446.23 2310,-453.52 2326.33,-456.64 2343.55,-459.34 2360.68,-461.67"/>
<polygon fill="#757575" stroke="#757575" points="2360.38,-465.16 2370.75,-463 2361.3,-458.22 2360.38,-465.16"/>
</g>
<!-- src/statements/validations/validateIssuerState.ts -->
<g id="node41" class="node">
<title>src/statements/validations/validateIssuerState.ts</title>
<path fill="none" stroke="#c6c5fe" d="M2644.83,-322.02C2644.83,-322.02 2355.17,-322.02 2355.17,-322.02 2351.33,-322.02 2347.5,-318.19 2347.5,-314.35 2347.5,-314.35 2347.5,-306.69 2347.5,-306.69 2347.5,-302.85 2351.33,-299.02 2355.17,-299.02 2355.17,-299.02 2644.83,-299.02 2644.83,-299.02 2648.67,-299.02 2652.5,-302.85 2652.5,-306.69 2652.5,-306.69 2652.5,-314.35 2652.5,-314.35 2652.5,-318.19 2648.67,-322.02 2644.83,-322.02"/>
<text text-anchor="middle" x="2500" y="-306.82" font-family="Arial" font-size="14.00" fill="#c6c5fe">src/statements/validations/validateIssuerState.ts</text>
</g>
<!-- src/statements/validations/index.ts&#45;&gt;src/statements/validations/validateIssuerState.ts -->
<g id="edge74" class="edge">
<title>src/statements/validations/index.ts&#45;&gt;src/statements/validations/validateIssuerState.ts</title>
<path fill="none" stroke="#757575" d="M2179.17,-401.72C2204.93,-383.03 2258.51,-347.04 2310,-330.52 2318.92,-327.66 2328.18,-325.19 2337.61,-323.05"/>
<polygon fill="#757575" stroke="#757575" points="2338.43,-326.45 2347.48,-320.95 2336.97,-319.61 2338.43,-326.45"/>
</g>
<!-- src/statements/validations/validateRequestUri.ts -->
<g id="node42" class="node">
<title>src/statements/validations/validateRequestUri.ts</title>
<path fill="none" stroke="#c6c5fe" d="M2644.83,-363.02C2644.83,-363.02 2355.17,-363.02 2355.17,-363.02 2351.33,-363.02 2347.5,-359.19 2347.5,-355.35 2347.5,-355.35 2347.5,-347.69 2347.5,-347.69 2347.5,-343.85 2351.33,-340.02 2355.17,-340.02 2355.17,-340.02 2644.83,-340.02 2644.83,-340.02 2648.67,-340.02 2652.5,-343.85 2652.5,-347.69 2652.5,-347.69 2652.5,-355.35 2652.5,-355.35 2652.5,-359.19 2648.67,-363.02 2644.83,-363.02"/>
<text text-anchor="middle" x="2500" y="-347.82" font-family="Arial" font-size="14.00" fill="#c6c5fe">src/statements/validations/validateRequestUri.ts</text>
</g>
<!-- src/statements/validations/index.ts&#45;&gt;src/statements/validations/validateRequestUri.ts -->
<g id="edge75" class="edge">
<title>src/statements/validations/index.ts&#45;&gt;src/statements/validations/validateRequestUri.ts</title>
<path fill="none" stroke="#757575" d="M2197.43,-401.97C2226.86,-392.4 2270.78,-379.16 2310,-371.52 2323.88,-368.82 2338.41,-366.46 2352.99,-364.4"/>
<polygon fill="#757575" stroke="#757575" points="2353.64,-367.85 2363.07,-363.03 2352.69,-360.91 2353.64,-367.85"/>
</g>
<!-- src/statements/validations/validateResourceOwner.ts -->
<g id="node43" class="node">
<title>src/statements/validations/validateResourceOwner.ts</title>
<path fill="none" stroke="#c6c5fe" d="M2659.83,-445.02C2659.83,-445.02 2340.17,-445.02 2340.17,-445.02 2336.33,-445.02 2332.5,-441.19 2332.5,-437.35 2332.5,-437.35 2332.5,-429.69 2332.5,-429.69 2332.5,-425.85 2336.33,-422.02 2340.17,-422.02 2340.17,-422.02 2659.83,-422.02 2659.83,-422.02 2663.67,-422.02 2667.5,-425.85 2667.5,-429.69 2667.5,-429.69 2667.5,-437.35 2667.5,-437.35 2667.5,-441.19 2663.67,-445.02 2659.83,-445.02"/>
<text text-anchor="middle" x="2500" y="-429.82" font-family="Arial" font-size="14.00" fill="#c6c5fe">src/statements/validations/validateResourceOwner.ts</text>
</g>
<!-- src/statements/validations/index.ts&#45;&gt;src/statements/validations/validateResourceOwner.ts -->
<g id="edge76" class="edge">
<title>src/statements/validations/index.ts&#45;&gt;src/statements/validations/validateResourceOwner.ts</title>
<path fill="none" stroke="#757575" d="M2274.29,-420.12C2289.7,-421.04 2305.83,-422 2322.09,-422.97"/>
<polygon fill="#757575" stroke="#757575" points="2322.03,-426.48 2332.22,-423.58 2322.44,-419.49 2322.03,-426.48"/>
</g>
<!-- src/statements/validations/validateScope.ts -->
<g id="node44" class="node">
<title>src/statements/validations/validateScope.ts</title>
<path fill="none" stroke="#c6c5fe" d="M2629.83,-404.02C2629.83,-404.02 2370.17,-404.02 2370.17,-404.02 2366.33,-404.02 2362.5,-400.19 2362.5,-396.35 2362.5,-396.35 2362.5,-388.69 2362.5,-388.69 2362.5,-384.85 2366.33,-381.02 2370.17,-381.02 2370.17,-381.02 2629.83,-381.02 2629.83,-381.02 2633.67,-381.02 2637.5,-384.85 2637.5,-388.69 2637.5,-388.69 2637.5,-396.35 2637.5,-396.35 2637.5,-400.19 2633.67,-404.02 2629.83,-404.02"/>
<text text-anchor="middle" x="2500" y="-388.82" font-family="Arial" font-size="14.00" fill="#c6c5fe">src/statements/validations/validateScope.ts</text>
</g>
<!-- src/statements/validations/index.ts&#45;&gt;src/statements/validations/validateScope.ts -->
<g id="edge77" class="edge">
<title>src/statements/validations/index.ts&#45;&gt;src/statements/validations/validateScope.ts</title>
<path fill="none" stroke="#757575" d="M2274.29,-406.59C2299.25,-405.02 2326.12,-403.34 2352.3,-401.7"/>
<polygon fill="#757575" stroke="#757575" points="2352.53,-405.19 2362.29,-401.08 2352.1,-398.21 2352.53,-405.19"/>
</g>
<!-- src/statements/locations/authorizationCodeRedirection.ts&#45;&gt;src/resources.ts -->
<g id="edge58" class="edge">
<title>src/statements/locations/authorizationCodeRedirection.ts&#45;&gt;src/resources.ts</title>
<path fill="none" stroke="#757575" d="M2679.12,-679.52C2691.92,-679.52 2704.26,-679.52 2715.67,-679.52"/>
<polygon fill="#757575" stroke="#757575" points="2715.86,-683.02 2725.86,-679.52 2715.86,-676.02 2715.86,-683.02"/>
</g>
<!-- src/statements/locations/generateAuthorizationRequestUri.ts&#45;&gt;src/resources.ts -->
<g id="edge60" class="edge">
<title>src/statements/locations/generateAuthorizationRequestUri.ts&#45;&gt;src/resources.ts</title>
<path fill="none" stroke="#757575" d="M2629.89,-650.04C2650.07,-652.46 2670.64,-655.27 2690,-658.52 2701.74,-660.49 2714.24,-663.06 2726.09,-665.72"/>
<polygon fill="#757575" stroke="#757575" points="2725.33,-669.13 2735.86,-667.96 2726.89,-662.31 2725.33,-669.13"/>
</g>
<!-- src/statements/locations/generateAuthorizationRequestUri.ts&#45;&gt;src/constants.ts -->
<g id="edge59" class="edge">
<title>src/statements/locations/generateAuthorizationRequestUri.ts&#45;&gt;src/constants.ts</title>
<path fill="none" stroke="#757575" d="M2670.26,-627.01C2677.08,-624.28 2683.7,-621.13 2690,-617.52 2730.63,-594.24 2758.62,-544.72 2772,-516.45"/>
<polygon fill="#757575" stroke="#757575" points="2775.3,-517.63 2776.26,-507.08 2768.93,-514.73 2775.3,-517.63"/>
</g>
<!-- src/statements/locations/generateCredentialOffer.ts&#45;&gt;src/resources.ts -->
<g id="edge62" class="edge">
<title>src/statements/locations/generateCredentialOffer.ts&#45;&gt;src/resources.ts</title>
<path fill="none" stroke="#757575" d="M2662.08,-609.03C2671.64,-611.42 2681.02,-614.22 2690,-617.52 2716.68,-627.31 2743.06,-646.64 2760.5,-661.13"/>
<polygon fill="#757575" stroke="#757575" points="2758.42,-663.96 2768.3,-667.79 2762.96,-658.63 2758.42,-663.96"/>
</g>
<!-- src/statements/locations/generateCredentialOffer.ts&#45;&gt;src/errors.ts -->
<g id="edge61" class="edge">
<title>src/statements/locations/generateCredentialOffer.ts&#45;&gt;src/errors.ts</title>
<path fill="none" stroke="#757575" d="M2662.95,-592.6C2672.62,-588.41 2681.76,-583.13 2690,-576.52 2692.51,-574.5 2752.86,-394.64 2773.87,-331.85"/>
<polygon fill="#757575" stroke="#757575" points="2777.25,-332.78 2777.1,-322.19 2770.61,-330.56 2777.25,-332.78"/>
</g>
<!-- src/statements/resources/issuerClient.ts&#45;&gt;src/resources.ts -->
<g id="edge67" class="edge">
<title>src/statements/resources/issuerClient.ts&#45;&gt;src/resources.ts</title>
<path fill="none" stroke="#757575" d="M2628.74,-755.77C2649.61,-752.45 2670.7,-747.58 2690,-740.52 2716.56,-730.81 2742.96,-711.8 2760.43,-697.57"/>
<polygon fill="#757575" stroke="#757575" points="2762.82,-700.13 2768.25,-691.03 2758.33,-694.76 2762.82,-700.13"/>
</g>
<!-- src/statements/tokens/generateAccessToken.ts&#45;&gt;src/resources.ts -->
<g id="edge68" class="edge">
<title>src/statements/tokens/generateAccessToken.ts&#45;&gt;src/resources.ts</title>
<path fill="none" stroke="#757575" d="M2649.61,-561.51C2663.69,-565.13 2677.39,-570.01 2690,-576.52 2726.13,-595.16 2754.48,-634.61 2769.4,-658.92"/>
<polygon fill="#757575" stroke="#757575" points="2766.5,-660.9 2774.61,-667.71 2772.52,-657.33 2766.5,-660.9"/>
</g>
<!-- src/statements/tokens/generateAuthorizationCode.ts&#45;&gt;src/resources.ts -->
<g id="edge70" class="edge">
<title>src/statements/tokens/generateAuthorizationCode.ts&#45;&gt;src/resources.ts</title>
<path fill="none" stroke="#757575" d="M2665.51,-523.42C2674.06,-526.74 2682.29,-530.73 2690,-535.52 2736,-564.13 2762.76,-625.52 2774.27,-658.14"/>
<polygon fill="#757575" stroke="#757575" points="2770.96,-659.28 2777.47,-667.64 2777.59,-657.04 2770.96,-659.28"/>
</g>
<!-- src/statements/tokens/generateAuthorizationCode.ts&#45;&gt;src/errors.ts -->
<g id="edge69" class="edge">
<title>src/statements/tokens/generateAuthorizationCode.ts&#45;&gt;src/errors.ts</title>
<path fill="none" stroke="#757575" d="M2665.7,-507.84C2674.25,-504.22 2682.43,-499.82 2690,-494.52 2746.03,-455.27 2769.2,-371.43 2777.28,-331.94"/>
<polygon fill="#757575" stroke="#757575" points="2780.73,-332.53 2779.18,-322.05 2773.86,-331.21 2780.73,-332.53"/>
</g>
<!-- src/statements/validations/validateClientCredentials.ts&#45;&gt;src/resources.ts -->
<g id="edge79" class="edge">
<title>src/statements/validations/validateClientCredentials.ts&#45;&gt;src/resources.ts</title>
<path fill="none" stroke="#757575" d="M2670.23,-483.27C2677.15,-486.45 2683.78,-490.18 2690,-494.52 2746.33,-533.85 2769.35,-618.21 2777.34,-657.96"/>
<polygon fill="#757575" stroke="#757575" points="2773.92,-658.73 2779.21,-667.91 2780.8,-657.44 2773.92,-658.73"/>
</g>
<!-- src/statements/validations/validateClientCredentials.ts&#45;&gt;src/errors.ts -->
<g id="edge78" class="edge">
<title>src/statements/validations/validateClientCredentials.ts&#45;&gt;src/errors.ts</title>
<path fill="none" stroke="#757575" d="M2670.14,-463.78C2677.04,-460.85 2683.7,-457.45 2690,-453.52 2735.55,-425.13 2762.38,-364.61 2774.05,-332.15"/>
<polygon fill="#757575" stroke="#757575" points="2777.5,-332.9 2777.43,-322.31 2770.87,-330.63 2777.5,-332.9"/>
</g>
<!-- src/statements/validations/validateIssuerState.ts&#45;&gt;src/errors.ts -->
<g id="edge80" class="edge">
<title>src/statements/validations/validateIssuerState.ts&#45;&gt;src/errors.ts</title>
<path fill="none" stroke="#757575" d="M2652.88,-310.52C2679.73,-310.52 2705.99,-310.52 2727.68,-310.52"/>
<polygon fill="#757575" stroke="#757575" points="2727.94,-314.02 2737.94,-310.52 2727.94,-307.02 2727.94,-314.02"/>
</g>
<!-- src/statements/validations/validateRequestUri.ts&#45;&gt;src/resources.ts -->
<g id="edge83" class="edge">
<title>src/statements/validations/validateRequestUri.ts&#45;&gt;src/resources.ts</title>
<path fill="none" stroke="#757575" d="M2652.63,-350.35C2666.27,-355.15 2679.04,-361.99 2690,-371.52 2739.79,-414.8 2707.5,-452.2 2726,-515.52 2741.07,-567.09 2761.94,-626.68 2773.14,-657.89"/>
<polygon fill="#757575" stroke="#757575" points="2769.99,-659.47 2776.67,-667.69 2776.57,-657.09 2769.99,-659.47"/>
</g>
<!-- src/statements/validations/validateRequestUri.ts&#45;&gt;src/constants.ts -->
<g id="edge81" class="edge">
<title>src/statements/validations/validateRequestUri.ts&#45;&gt;src/constants.ts</title>
<path fill="none" stroke="#757575" d="M2652.67,-356.02C2665.76,-359.81 2678.41,-364.86 2690,-371.52 2731.21,-395.2 2759.11,-445.91 2772.28,-474.6"/>
<polygon fill="#757575" stroke="#757575" points="2769.08,-476.02 2776.33,-483.75 2775.49,-473.19 2769.08,-476.02"/>
</g>
<!-- src/statements/validations/validateRequestUri.ts&#45;&gt;src/errors.ts -->
<g id="edge82" class="edge">
<title>src/statements/validations/validateRequestUri.ts&#45;&gt;src/errors.ts</title>
<path fill="none" stroke="#757575" d="M2622,-340C2644.65,-337.3 2668.09,-334.13 2690,-330.52 2702.22,-328.5 2715.27,-325.9 2727.56,-323.25"/>
<polygon fill="#757575" stroke="#757575" points="2728.66,-326.59 2737.67,-321.02 2727.15,-319.76 2728.66,-326.59"/>
</g>
<!-- src/statements/validations/validateResourceOwner.ts&#45;&gt;src/resources.ts -->
<g id="edge85" class="edge">
<title>src/statements/validations/validateResourceOwner.ts&#45;&gt;src/resources.ts</title>
<path fill="none" stroke="#757575" d="M2667.52,-440.22C2675.46,-443.86 2683.02,-448.25 2690,-453.52 2707.37,-466.63 2755.61,-604.69 2773.87,-658.36"/>
<polygon fill="#757575" stroke="#757575" points="2770.58,-659.55 2777.11,-667.9 2777.21,-657.31 2770.58,-659.55"/>
</g>
<!-- src/statements/validations/validateResourceOwner.ts&#45;&gt;src/errors.ts -->
<g id="edge84" class="edge">
<title>src/statements/validations/validateResourceOwner.ts&#45;&gt;src/errors.ts</title>
<path fill="none" stroke="#757575" d="M2667.51,-422.16C2675.27,-419.42 2682.81,-416.23 2690,-412.52 2725.93,-393.97 2754.34,-354.93 2769.33,-330.89"/>
<polygon fill="#757575" stroke="#757575" points="2772.41,-332.57 2774.57,-322.19 2766.41,-328.95 2772.41,-332.57"/>
</g>
<!-- src/statements/validations/validateScope.ts&#45;&gt;src/resources.ts -->
<g id="edge87" class="edge">
<title>src/statements/validations/validateScope.ts&#45;&gt;src/resources.ts</title>
<path fill="none" stroke="#757575" d="M2637.97,-388.36C2656.86,-392.89 2674.92,-400.47 2690,-412.52 2691.26,-413.53 2752.42,-594.73 2773.75,-658.01"/>
<polygon fill="#757575" stroke="#757575" points="2770.53,-659.4 2777.04,-667.75 2777.16,-657.16 2770.53,-659.4"/>
</g>
<!-- src/statements/validations/validateScope.ts&#45;&gt;src/errors.ts -->
<g id="edge86" class="edge">
<title>src/statements/validations/validateScope.ts&#45;&gt;src/errors.ts</title>
<path fill="none" stroke="#757575" d="M2637.55,-385.28C2655.5,-382.03 2673.41,-377.59 2690,-371.52 2716.56,-361.81 2742.96,-342.8 2760.43,-328.57"/>
<polygon fill="#757575" stroke="#757575" points="2762.82,-331.13 2768.25,-322.03 2758.33,-325.76 2762.82,-331.13"/>
</g>
</g>
</svg>
