<?xml version="1.0" encoding="UTF-8" standalone="no"?>
<!DOCTYPE svg PUBLIC "-//W3C//DTD SVG 1.1//EN"
 "http://www.w3.org/Graphics/SVG/1.1/DTD/svg11.dtd">
<!-- Generated by graphviz version 2.43.0 (0)
 -->
<!-- Title: G Pages: 1 -->
<svg width="2881pt" height="1461pt"
 viewBox="0.00 0.00 2881.20 1461.29" xmlns="http://www.w3.org/2000/svg" xmlns:xlink="http://www.w3.org/1999/xlink">
<g id="graph0" class="graph" transform="scale(1 1) rotate(0) translate(21.6 1439.69)">
<title>G</title>
<polygon fill="#111111" stroke="transparent" points="-21.6,21.6 -21.6,-1439.69 2859.6,-1439.69 2859.6,21.6 -21.6,21.6"/>
<!-- app.ts -->
<g id="node1" class="node">
<title>app.ts</title>
<path fill="none" stroke="#c6c5fe" d="M321.83,-332.74C321.83,-332.74 283.17,-332.74 283.17,-332.74 279.33,-332.74 275.5,-328.91 275.5,-325.07 275.5,-325.07 275.5,-317.41 275.5,-317.41 275.5,-313.57 279.33,-309.74 283.17,-309.74 283.17,-309.74 321.83,-309.74 321.83,-309.74 325.67,-309.74 329.5,-313.57 329.5,-317.41 329.5,-317.41 329.5,-325.07 329.5,-325.07 329.5,-328.91 325.67,-332.74 321.83,-332.74"/>
<text text-anchor="middle" x="302.5" y="-317.54" font-family="Arial" font-size="14.00" fill="#c6c5fe">app.ts</text>
</g>
<!-- src/index.ts -->
<g id="node2" class="node">
<title>src/index.ts</title>
<path fill="none" stroke="#c6c5fe" d="M603.33,-292.74C603.33,-292.74 533.67,-292.74 533.67,-292.74 529.83,-292.74 526,-288.91 526,-285.07 526,-285.07 526,-277.41 526,-277.41 526,-273.57 529.83,-269.74 533.67,-269.74 533.67,-269.74 603.33,-269.74 603.33,-269.74 607.17,-269.74 611,-273.57 611,-277.41 611,-277.41 611,-285.07 611,-285.07 611,-288.91 607.17,-292.74 603.33,-292.74"/>
<text text-anchor="middle" x="568.5" y="-277.54" font-family="Arial" font-size="14.00" fill="#c6c5fe">src/index.ts</text>
</g>
<!-- app.ts&#45;&gt;src/index.ts -->
<g id="edge1" class="edge">
<title>app.ts&#45;&gt;src/index.ts</title>
<path fill="none" stroke="#757575" d="M329.8,-317.91C365.96,-313.26 433.02,-304.36 490,-295.24 498.35,-293.91 507.18,-292.4 515.78,-290.88"/>
<polygon fill="#757575" stroke="#757575" points="516.49,-294.31 525.72,-289.11 515.26,-287.42 516.49,-294.31"/>
</g>
<!-- src/resources.ts -->
<g id="node5" class="node">
<title>src/resources.ts</title>
<path fill="none" stroke="#cfffac" d="M2830.33,-532.74C2830.33,-532.74 2733.67,-532.74 2733.67,-532.74 2729.83,-532.74 2726,-528.91 2726,-525.07 2726,-525.07 2726,-517.41 2726,-517.41 2726,-513.57 2729.83,-509.74 2733.67,-509.74 2733.67,-509.74 2830.33,-509.74 2830.33,-509.74 2834.17,-509.74 2838,-513.57 2838,-517.41 2838,-517.41 2838,-525.07 2838,-525.07 2838,-528.91 2834.17,-532.74 2830.33,-532.74"/>
<text text-anchor="middle" x="2782" y="-517.54" font-family="Arial" font-size="14.00" fill="#cfffac">src/resources.ts</text>
</g>
<!-- src/index.ts&#45;&gt;src/resources.ts -->
<g id="edge58" class="edge">
<title>src/index.ts&#45;&gt;src/resources.ts</title>
<path fill="none" stroke="#757575" d="M569.83,-292.86C573.37,-406.57 608.6,-1316.24 831,-1316.24 831,-1316.24 831,-1316.24 1333,-1316.24 1636.23,-1316.24 1797.65,-1508.68 2015,-1297.24 2118.54,-1196.52 1952.29,-753.7 2051,-648.24 2099.88,-596.02 2621.83,-591.9 2690,-570.24 2713.45,-562.79 2737.88,-549.27 2755.52,-538.31"/>
<polygon fill="#757575" stroke="#757575" points="2757.52,-541.18 2764.08,-532.86 2753.76,-535.28 2757.52,-541.18"/>
</g>
<!-- src/config.ts -->
<g id="node8" class="node">
<title>src/config.ts</title>
<path fill="none" stroke="#c6c5fe" d="M1812.83,-214.74C1812.83,-214.74 1739.17,-214.74 1739.17,-214.74 1735.33,-214.74 1731.5,-210.91 1731.5,-207.07 1731.5,-207.07 1731.5,-199.41 1731.5,-199.41 1731.5,-195.57 1735.33,-191.74 1739.17,-191.74 1739.17,-191.74 1812.83,-191.74 1812.83,-191.74 1816.67,-191.74 1820.5,-195.57 1820.5,-199.41 1820.5,-199.41 1820.5,-207.07 1820.5,-207.07 1820.5,-210.91 1816.67,-214.74 1812.83,-214.74"/>
<text text-anchor="middle" x="1776" y="-199.54" font-family="Arial" font-size="14.00" fill="#c6c5fe">src/config.ts</text>
</g>
<!-- src/index.ts&#45;&gt;src/config.ts -->
<g id="edge55" class="edge">
<title>src/index.ts&#45;&gt;src/config.ts</title>
<path fill="none" stroke="#757575" d="M583.8,-269.6C621.65,-240 728.54,-164.24 831,-164.24 831,-164.24 831,-164.24 1033.5,-164.24 1291.22,-164.24 1598.64,-188.03 1720.95,-198.45"/>
<polygon fill="#757575" stroke="#757575" points="1720.9,-201.96 1731.16,-199.32 1721.5,-194.98 1720.9,-201.96"/>
</g>
<!-- src/core.ts -->
<g id="node10" class="node">
<title>src/core.ts</title>
<path fill="none" stroke="#c6c5fe" d="M718.33,-292.74C718.33,-292.74 654.67,-292.74 654.67,-292.74 650.83,-292.74 647,-288.91 647,-285.07 647,-285.07 647,-277.41 647,-277.41 647,-273.57 650.83,-269.74 654.67,-269.74 654.67,-269.74 718.33,-269.74 718.33,-269.74 722.17,-269.74 726,-273.57 726,-277.41 726,-277.41 726,-285.07 726,-285.07 726,-288.91 722.17,-292.74 718.33,-292.74"/>
<text text-anchor="middle" x="686.5" y="-277.54" font-family="Arial" font-size="14.00" fill="#c6c5fe">src/core.ts</text>
</g>
<!-- src/index.ts&#45;&gt;src/core.ts -->
<g id="edge56" class="edge">
<title>src/index.ts&#45;&gt;src/core.ts</title>
<path fill="none" stroke="#757575" d="M611.05,-281.24C619.37,-281.24 628.18,-281.24 636.72,-281.24"/>
<polygon fill="#757575" stroke="#757575" points="636.95,-284.74 646.95,-281.24 636.95,-277.74 636.95,-284.74"/>
</g>
<!-- src/handlers/index.ts -->
<g id="node11" class="node">
<title>src/handlers/index.ts</title>
<path fill="none" stroke="#c6c5fe" d="M894.33,-369.74C894.33,-369.74 769.67,-369.74 769.67,-369.74 765.83,-369.74 762,-365.91 762,-362.07 762,-362.07 762,-354.41 762,-354.41 762,-350.57 765.83,-346.74 769.67,-346.74 769.67,-346.74 894.33,-346.74 894.33,-346.74 898.17,-346.74 902,-350.57 902,-354.41 902,-354.41 902,-362.07 902,-362.07 902,-365.91 898.17,-369.74 894.33,-369.74"/>
<text text-anchor="middle" x="832" y="-354.54" font-family="Arial" font-size="14.00" fill="#c6c5fe">src/handlers/index.ts</text>
</g>
<!-- src/index.ts&#45;&gt;src/handlers/index.ts -->
<g id="edge57" class="edge">
<title>src/index.ts&#45;&gt;src/handlers/index.ts</title>
<path fill="none" stroke="#757575" d="M608.65,-292.77C654.87,-306.38 731.77,-329.02 781.93,-343.79"/>
<polygon fill="#757575" stroke="#757575" points="781,-347.17 791.58,-346.63 782.98,-340.45 781,-347.17"/>
</g>
<!-- main.config.ts -->
<g id="node3" class="node">
<title>main.config.ts</title>
<path fill="none" stroke="#c6c5fe" d="M345.33,-232.74C345.33,-232.74 259.67,-232.74 259.67,-232.74 255.83,-232.74 252,-228.91 252,-225.07 252,-225.07 252,-217.41 252,-217.41 252,-213.57 255.83,-209.74 259.67,-209.74 259.67,-209.74 345.33,-209.74 345.33,-209.74 349.17,-209.74 353,-213.57 353,-217.41 353,-217.41 353,-225.07 353,-225.07 353,-228.91 349.17,-232.74 345.33,-232.74"/>
<text text-anchor="middle" x="302.5" y="-217.54" font-family="Arial" font-size="14.00" fill="#c6c5fe">main.config.ts</text>
</g>
<!-- main.config.ts&#45;&gt;src/index.ts -->
<g id="edge3" class="edge">
<title>main.config.ts&#45;&gt;src/index.ts</title>
<path fill="none" stroke="#757575" d="M353.26,-212.17C391.7,-207.24 445.64,-204.88 490,-220.24 513.89,-228.52 536,-247.54 550.44,-262.16"/>
<polygon fill="#757575" stroke="#757575" points="548.21,-264.89 557.64,-269.73 553.29,-260.07 548.21,-264.89"/>
</g>
<!-- main.logger.ts -->
<g id="node4" class="node">
<title>main.logger.ts</title>
<path fill="none" stroke="#c6c5fe" d="M482.33,-252.74C482.33,-252.74 396.67,-252.74 396.67,-252.74 392.83,-252.74 389,-248.91 389,-245.07 389,-245.07 389,-237.41 389,-237.41 389,-233.57 392.83,-229.74 396.67,-229.74 396.67,-229.74 482.33,-229.74 482.33,-229.74 486.17,-229.74 490,-233.57 490,-237.41 490,-237.41 490,-245.07 490,-245.07 490,-248.91 486.17,-252.74 482.33,-252.74"/>
<text text-anchor="middle" x="439.5" y="-237.54" font-family="Arial" font-size="14.00" fill="#c6c5fe">main.logger.ts</text>
</g>
<!-- main.config.ts&#45;&gt;main.logger.ts -->
<g id="edge2" class="edge">
<title>main.config.ts&#45;&gt;main.logger.ts</title>
<path fill="none" stroke="#757575" d="M353,-228.58C361.33,-229.81 370.06,-231.1 378.61,-232.37"/>
<polygon fill="#757575" stroke="#757575" points="378.15,-235.84 388.55,-233.84 379.17,-228.91 378.15,-235.84"/>
</g>
<!-- main.config.ts&#45;&gt;src/resources.ts -->
<g id="edge4" class="edge">
<title>main.config.ts&#45;&gt;src/resources.ts</title>
<path fill="none" stroke="#757575" d="M312.08,-209.56C342.24,-169.96 448.1,-43.24 567.5,-43.24 567.5,-43.24 567.5,-43.24 2163.5,-43.24 2398.08,-43.24 2513.45,74.21 2690,-80.24 2754.34,-136.53 2775.17,-418.53 2779.87,-499.48"/>
<polygon fill="#757575" stroke="#757575" points="2776.37,-499.74 2780.42,-509.53 2783.36,-499.35 2776.37,-499.74"/>
</g>
<!-- main.logger.ts&#45;&gt;src/index.ts -->
<g id="edge7" class="edge">
<title>main.logger.ts&#45;&gt;src/index.ts</title>
<path fill="none" stroke="#757575" d="M477.23,-252.81C490.92,-257.12 506.65,-262.07 521.09,-266.62"/>
<polygon fill="#757575" stroke="#757575" points="520.26,-270.03 530.85,-269.7 522.36,-263.36 520.26,-270.03"/>
</g>
<!-- main.container.ts -->
<g id="node6" class="node">
<title>main.container.ts</title>
<path fill="none" stroke="#c6c5fe" d="M208.33,-292.74C208.33,-292.74 104.67,-292.74 104.67,-292.74 100.83,-292.74 97,-288.91 97,-285.07 97,-285.07 97,-277.41 97,-277.41 97,-273.57 100.83,-269.74 104.67,-269.74 104.67,-269.74 208.33,-269.74 208.33,-269.74 212.17,-269.74 216,-273.57 216,-277.41 216,-277.41 216,-285.07 216,-285.07 216,-288.91 212.17,-292.74 208.33,-292.74"/>
<text text-anchor="middle" x="156.5" y="-277.54" font-family="Arial" font-size="14.00" fill="#c6c5fe">main.container.ts</text>
</g>
<!-- main.container.ts&#45;&gt;src/index.ts -->
<g id="edge6" class="edge">
<title>main.container.ts&#45;&gt;src/index.ts</title>
<path fill="none" stroke="#757575" d="M216.24,-281.24C296.5,-281.24 439.16,-281.24 515.65,-281.24"/>
<polygon fill="#757575" stroke="#757575" points="515.99,-284.74 525.99,-281.24 515.99,-277.74 515.99,-284.74"/>
</g>
<!-- main.container.ts&#45;&gt;main.config.ts -->
<g id="edge5" class="edge">
<title>main.container.ts&#45;&gt;main.config.ts</title>
<path fill="none" stroke="#757575" d="M185.26,-269.67C207.78,-260.29 239.71,-246.99 264.41,-236.7"/>
<polygon fill="#757575" stroke="#757575" points="265.94,-239.85 273.82,-232.77 263.24,-233.39 265.94,-239.85"/>
</g>
<!-- main.ts -->
<g id="node7" class="node">
<title>main.ts</title>
<path fill="none" stroke="#c6c5fe" d="M53.33,-312.74C53.33,-312.74 7.67,-312.74 7.67,-312.74 3.83,-312.74 0,-308.91 0,-305.07 0,-305.07 0,-297.41 0,-297.41 0,-293.57 3.83,-289.74 7.67,-289.74 7.67,-289.74 53.33,-289.74 53.33,-289.74 57.17,-289.74 61,-293.57 61,-297.41 61,-297.41 61,-305.07 61,-305.07 61,-308.91 57.17,-312.74 53.33,-312.74"/>
<text text-anchor="middle" x="30.5" y="-297.54" font-family="Arial" font-size="14.00" fill="#c6c5fe">main.ts</text>
</g>
<!-- main.ts&#45;&gt;app.ts -->
<g id="edge8" class="edge">
<title>main.ts&#45;&gt;app.ts</title>
<path fill="none" stroke="#757575" d="M61.17,-303.44C111,-307.13 211.33,-314.56 265.25,-318.56"/>
<polygon fill="#757575" stroke="#757575" points="265.16,-322.06 275.39,-319.31 265.68,-315.08 265.16,-322.06"/>
</g>
<!-- main.ts&#45;&gt;main.container.ts -->
<g id="edge9" class="edge">
<title>main.ts&#45;&gt;main.container.ts</title>
<path fill="none" stroke="#757575" d="M61.2,-296.45C69.01,-295.19 77.77,-293.78 86.71,-292.34"/>
<polygon fill="#757575" stroke="#757575" points="87.54,-295.75 96.86,-290.7 86.43,-288.84 87.54,-295.75"/>
</g>
<!-- src/config.ts&#45;&gt;src/resources.ts -->
<g id="edge10" class="edge">
<title>src/config.ts&#45;&gt;src/resources.ts</title>
<path fill="none" stroke="#757575" d="M1820.78,-201.5C1993.34,-195.05 2620.34,-175.45 2690,-228.24 2734.56,-262.01 2767.23,-437.43 2777.55,-499.47"/>
<polygon fill="#757575" stroke="#757575" points="2774.15,-500.37 2779.21,-509.68 2781.06,-499.25 2774.15,-500.37"/>
</g>
<!-- src/constants.ts -->
<g id="node9" class="node">
<title>src/constants.ts</title>
<path fill="none" stroke="#cfffac" d="M2829.33,-771.74C2829.33,-771.74 2734.67,-771.74 2734.67,-771.74 2730.83,-771.74 2727,-767.91 2727,-764.07 2727,-764.07 2727,-756.41 2727,-756.41 2727,-752.57 2730.83,-748.74 2734.67,-748.74 2734.67,-748.74 2829.33,-748.74 2829.33,-748.74 2833.17,-748.74 2837,-752.57 2837,-756.41 2837,-756.41 2837,-764.07 2837,-764.07 2837,-767.91 2833.17,-771.74 2829.33,-771.74"/>
<text text-anchor="middle" x="2782" y="-756.54" font-family="Arial" font-size="14.00" fill="#cfffac">src/constants.ts</text>
</g>
<!-- src/core.ts&#45;&gt;src/config.ts -->
<g id="edge11" class="edge">
<title>src/core.ts&#45;&gt;src/config.ts</title>
<path fill="none" stroke="#757575" d="M726.04,-278.74C842.78,-271.15 1202.77,-247.48 1501,-225.24 1577.45,-219.54 1665.85,-212.33 1721.1,-207.75"/>
<polygon fill="#757575" stroke="#757575" points="1721.68,-211.22 1731.35,-206.9 1721.1,-204.24 1721.68,-211.22"/>
</g>
<!-- src/core.ts&#45;&gt;src/handlers/index.ts -->
<g id="edge12" class="edge">
<title>src/core.ts&#45;&gt;src/handlers/index.ts</title>
<path fill="none" stroke="#757575" d="M708.98,-292.77C733.29,-305.81 773.06,-327.15 800.56,-341.91"/>
<polygon fill="#757575" stroke="#757575" points="798.9,-344.99 809.37,-346.63 802.21,-338.82 798.9,-344.99"/>
</g>
<!-- src/handlers/authorize.handler.ts -->
<g id="node13" class="node">
<title>src/handlers/authorize.handler.ts</title>
<path fill="none" stroke="#c6c5fe" d="M1430.33,-410.74C1430.33,-410.74 1233.67,-410.74 1233.67,-410.74 1229.83,-410.74 1226,-406.91 1226,-403.07 1226,-403.07 1226,-395.41 1226,-395.41 1226,-391.57 1229.83,-387.74 1233.67,-387.74 1233.67,-387.74 1430.33,-387.74 1430.33,-387.74 1434.17,-387.74 1438,-391.57 1438,-395.41 1438,-395.41 1438,-403.07 1438,-403.07 1438,-406.91 1434.17,-410.74 1430.33,-410.74"/>
<text text-anchor="middle" x="1332" y="-395.54" font-family="Arial" font-size="14.00" fill="#c6c5fe">src/handlers/authorize.handler.ts</text>
</g>
<!-- src/handlers/index.ts&#45;&gt;src/handlers/authorize.handler.ts -->
<g id="edge23" class="edge">
<title>src/handlers/index.ts&#45;&gt;src/handlers/authorize.handler.ts</title>
<path fill="none" stroke="#757575" d="M902.17,-364.99C914.12,-366.11 926.42,-367.23 938,-368.24 1031.31,-376.36 1137.17,-384.66 1215.5,-390.63"/>
<polygon fill="#757575" stroke="#757575" points="1215.64,-394.15 1225.87,-391.41 1216.17,-387.17 1215.64,-394.15"/>
</g>
<!-- src/handlers/credentialOffer.handler.ts -->
<g id="node16" class="node">
<title>src/handlers/credentialOffer.handler.ts</title>
<path fill="none" stroke="#c6c5fe" d="M1446.83,-480.74C1446.83,-480.74 1217.17,-480.74 1217.17,-480.74 1213.33,-480.74 1209.5,-476.91 1209.5,-473.07 1209.5,-473.07 1209.5,-465.41 1209.5,-465.41 1209.5,-461.57 1213.33,-457.74 1217.17,-457.74 1217.17,-457.74 1446.83,-457.74 1446.83,-457.74 1450.67,-457.74 1454.5,-461.57 1454.5,-465.41 1454.5,-465.41 1454.5,-473.07 1454.5,-473.07 1454.5,-476.91 1450.67,-480.74 1446.83,-480.74"/>
<text text-anchor="middle" x="1332" y="-465.54" font-family="Arial" font-size="14.00" fill="#c6c5fe">src/handlers/credentialOffer.handler.ts</text>
</g>
<!-- src/handlers/index.ts&#45;&gt;src/handlers/credentialOffer.handler.ts -->
<g id="edge24" class="edge">
<title>src/handlers/index.ts&#45;&gt;src/handlers/credentialOffer.handler.ts</title>
<path fill="none" stroke="#757575" d="M869.23,-369.78C889.37,-375.98 914.94,-383.5 938,-389.24 1047.67,-416.54 1176.25,-441.38 1255.68,-455.91"/>
<polygon fill="#757575" stroke="#757575" points="1255.13,-459.36 1265.59,-457.71 1256.38,-452.48 1255.13,-459.36"/>
</g>
<!-- src/handlers/nonce.handler.ts -->
<g id="node18" class="node">
<title>src/handlers/nonce.handler.ts</title>
<path fill="none" stroke="#c6c5fe" d="M1420.83,-361.74C1420.83,-361.74 1243.17,-361.74 1243.17,-361.74 1239.33,-361.74 1235.5,-357.91 1235.5,-354.07 1235.5,-354.07 1235.5,-346.41 1235.5,-346.41 1235.5,-342.57 1239.33,-338.74 1243.17,-338.74 1243.17,-338.74 1420.83,-338.74 1420.83,-338.74 1424.67,-338.74 1428.5,-342.57 1428.5,-346.41 1428.5,-346.41 1428.5,-354.07 1428.5,-354.07 1428.5,-357.91 1424.67,-361.74 1420.83,-361.74"/>
<text text-anchor="middle" x="1332" y="-346.54" font-family="Arial" font-size="14.00" fill="#c6c5fe">src/handlers/nonce.handler.ts</text>
</g>
<!-- src/handlers/index.ts&#45;&gt;src/handlers/nonce.handler.ts -->
<g id="edge25" class="edge">
<title>src/handlers/index.ts&#45;&gt;src/handlers/nonce.handler.ts</title>
<path fill="none" stroke="#757575" d="M902.24,-357.13C985.88,-355.79 1127.44,-353.51 1224.88,-351.95"/>
<polygon fill="#757575" stroke="#757575" points="1225.11,-355.44 1235.05,-351.78 1225,-348.44 1225.11,-355.44"/>
</g>
<!-- src/handlers/oauthAuthorizationServer.handler.ts -->
<g id="node19" class="node">
<title>src/handlers/oauthAuthorizationServer.handler.ts</title>
<path fill="none" stroke="#c6c5fe" d="M1478.33,-215.74C1478.33,-215.74 1185.67,-215.74 1185.67,-215.74 1181.83,-215.74 1178,-211.91 1178,-208.07 1178,-208.07 1178,-200.41 1178,-200.41 1178,-196.57 1181.83,-192.74 1185.67,-192.74 1185.67,-192.74 1478.33,-192.74 1478.33,-192.74 1482.17,-192.74 1486,-196.57 1486,-200.41 1486,-200.41 1486,-208.07 1486,-208.07 1486,-211.91 1482.17,-215.74 1478.33,-215.74"/>
<text text-anchor="middle" x="1332" y="-200.54" font-family="Arial" font-size="14.00" fill="#c6c5fe">src/handlers/oauthAuthorizationServer.handler.ts</text>
</g>
<!-- src/handlers/index.ts&#45;&gt;src/handlers/oauthAuthorizationServer.handler.ts -->
<g id="edge26" class="edge">
<title>src/handlers/index.ts&#45;&gt;src/handlers/oauthAuthorizationServer.handler.ts</title>
<path fill="none" stroke="#757575" d="M902.23,-348.33C962.59,-338.58 1051.97,-321.48 1127,-296.24 1143.77,-290.6 1146.92,-286.63 1163,-279.24 1208.44,-258.37 1261.13,-234.98 1295.21,-219.96"/>
<polygon fill="#757575" stroke="#757575" points="1296.99,-222.99 1304.73,-215.76 1294.17,-216.59 1296.99,-222.99"/>
</g>
<!-- src/handlers/openidCredentialIssuer.handler.ts -->
<g id="node20" class="node">
<title>src/handlers/openidCredentialIssuer.handler.ts</title>
<path fill="none" stroke="#c6c5fe" d="M1471.33,-133.74C1471.33,-133.74 1192.67,-133.74 1192.67,-133.74 1188.83,-133.74 1185,-129.91 1185,-126.07 1185,-126.07 1185,-118.41 1185,-118.41 1185,-114.57 1188.83,-110.74 1192.67,-110.74 1192.67,-110.74 1471.33,-110.74 1471.33,-110.74 1475.17,-110.74 1479,-114.57 1479,-118.41 1479,-118.41 1479,-126.07 1479,-126.07 1479,-129.91 1475.17,-133.74 1471.33,-133.74"/>
<text text-anchor="middle" x="1332" y="-118.54" font-family="Arial" font-size="14.00" fill="#c6c5fe">src/handlers/openidCredentialIssuer.handler.ts</text>
</g>
<!-- src/handlers/index.ts&#45;&gt;src/handlers/openidCredentialIssuer.handler.ts -->
<g id="edge27" class="edge">
<title>src/handlers/index.ts&#45;&gt;src/handlers/openidCredentialIssuer.handler.ts</title>
<path fill="none" stroke="#757575" d="M851.75,-346.65C872.58,-333.89 907.34,-312.97 938,-296.24 1036.24,-242.65 1060.23,-227.52 1163,-183.24 1203.85,-165.64 1251.63,-148.62 1285.77,-137.06"/>
<polygon fill="#757575" stroke="#757575" points="1287.1,-140.3 1295.46,-133.79 1284.86,-133.67 1287.1,-140.3"/>
</g>
<!-- src/handlers/pushedAuthorizationRequest.handler.ts -->
<g id="node21" class="node">
<title>src/handlers/pushedAuthorizationRequest.handler.ts</title>
<path fill="none" stroke="#c6c5fe" d="M1488.83,-1287.74C1488.83,-1287.74 1175.17,-1287.74 1175.17,-1287.74 1171.33,-1287.74 1167.5,-1283.91 1167.5,-1280.07 1167.5,-1280.07 1167.5,-1272.41 1167.5,-1272.41 1167.5,-1268.57 1171.33,-1264.74 1175.17,-1264.74 1175.17,-1264.74 1488.83,-1264.74 1488.83,-1264.74 1492.67,-1264.74 1496.5,-1268.57 1496.5,-1272.41 1496.5,-1272.41 1496.5,-1280.07 1496.5,-1280.07 1496.5,-1283.91 1492.67,-1287.74 1488.83,-1287.74"/>
<text text-anchor="middle" x="1332" y="-1272.54" font-family="Arial" font-size="14.00" fill="#c6c5fe">src/handlers/pushedAuthorizationRequest.handler.ts</text>
</g>
<!-- src/handlers/index.ts&#45;&gt;src/handlers/pushedAuthorizationRequest.handler.ts -->
<g id="edge28" class="edge">
<title>src/handlers/index.ts&#45;&gt;src/handlers/pushedAuthorizationRequest.handler.ts</title>
<path fill="none" stroke="#757575" d="M833.22,-369.75C835.51,-455.98 861.86,-1004.22 1163,-1250.24 1167.43,-1253.86 1172.15,-1257.08 1177.09,-1259.94"/>
<polygon fill="#757575" stroke="#757575" points="1175.73,-1263.18 1186.21,-1264.71 1178.97,-1256.97 1175.73,-1263.18"/>
</g>
<!-- src/handlers/token.handler.ts -->
<g id="node22" class="node">
<title>src/handlers/token.handler.ts</title>
<path fill="none" stroke="#c6c5fe" d="M1119.33,-553.74C1119.33,-553.74 945.67,-553.74 945.67,-553.74 941.83,-553.74 938,-549.91 938,-546.07 938,-546.07 938,-538.41 938,-538.41 938,-534.57 941.83,-530.74 945.67,-530.74 945.67,-530.74 1119.33,-530.74 1119.33,-530.74 1123.17,-530.74 1127,-534.57 1127,-538.41 1127,-538.41 1127,-546.07 1127,-546.07 1127,-549.91 1123.17,-553.74 1119.33,-553.74"/>
<text text-anchor="middle" x="1032.5" y="-538.54" font-family="Arial" font-size="14.00" fill="#c6c5fe">src/handlers/token.handler.ts</text>
</g>
<!-- src/handlers/index.ts&#45;&gt;src/handlers/token.handler.ts -->
<g id="edge29" class="edge">
<title>src/handlers/index.ts&#45;&gt;src/handlers/token.handler.ts</title>
<path fill="none" stroke="#757575" d="M844.47,-369.76C863.58,-388.86 903.27,-428.18 938,-460.24 962.18,-482.57 990.72,-507.38 1009.85,-523.8"/>
<polygon fill="#757575" stroke="#757575" points="1007.81,-526.66 1017.68,-530.51 1012.36,-521.34 1007.81,-526.66"/>
</g>
<!-- src/errors.ts -->
<g id="node12" class="node">
<title>src/errors.ts</title>
<path fill="none" stroke="#cfffac" d="M2818.33,-1017.74C2818.33,-1017.74 2745.67,-1017.74 2745.67,-1017.74 2741.83,-1017.74 2738,-1013.91 2738,-1010.07 2738,-1010.07 2738,-1002.41 2738,-1002.41 2738,-998.57 2741.83,-994.74 2745.67,-994.74 2745.67,-994.74 2818.33,-994.74 2818.33,-994.74 2822.17,-994.74 2826,-998.57 2826,-1002.41 2826,-1002.41 2826,-1010.07 2826,-1010.07 2826,-1013.91 2822.17,-1017.74 2818.33,-1017.74"/>
<text text-anchor="middle" x="2782" y="-1002.54" font-family="Arial" font-size="14.00" fill="#cfffac">src/errors.ts</text>
</g>
<!-- src/handlers/authorize.handler.ts&#45;&gt;src/resources.ts -->
<g id="edge16" class="edge">
<title>src/handlers/authorize.handler.ts&#45;&gt;src/resources.ts</title>
<path fill="none" stroke="#757575" d="M1410.86,-387.71C1542.4,-368.81 1817.16,-331.91 2051,-317.24 2165.89,-310.03 2194.88,-314.91 2310,-314.24 2478.89,-313.26 2548.57,-221.93 2690,-314.24 2754.41,-356.29 2773.53,-455.24 2778.96,-499.35"/>
<polygon fill="#757575" stroke="#757575" points="2775.51,-500 2780.09,-509.55 2782.47,-499.23 2775.51,-500"/>
</g>
<!-- src/handlers/authorize.handler.ts&#45;&gt;src/config.ts -->
<g id="edge13" class="edge">
<title>src/handlers/authorize.handler.ts&#45;&gt;src/config.ts</title>
<path fill="none" stroke="#757575" d="M1438.28,-399.19C1461.02,-394.68 1483.47,-386.22 1501,-371.24 1539.47,-338.37 1499.91,-297.66 1537,-263.24 1587.08,-216.78 1667.77,-204.98 1721.09,-202.65"/>
<polygon fill="#757575" stroke="#757575" points="1721.5,-206.14 1731.38,-202.3 1721.26,-199.14 1721.5,-206.14"/>
</g>
<!-- src/handlers/authorize.handler.ts&#45;&gt;src/errors.ts -->
<g id="edge14" class="edge">
<title>src/handlers/authorize.handler.ts&#45;&gt;src/errors.ts</title>
<path fill="none" stroke="#757575" d="M1425.34,-410.85C1452.39,-418.15 1480.24,-430.01 1501,-449.24 1533.82,-479.64 1511.52,-506.47 1537,-543.24 1710.77,-794.01 1780.35,-857.42 2051,-998.24 2177.56,-1064.09 2552.42,-1097.99 2690,-1060.24 2715.5,-1053.25 2741.08,-1037.05 2758.6,-1024.21"/>
<polygon fill="#757575" stroke="#757575" points="2761.12,-1026.69 2766.99,-1017.87 2756.9,-1021.11 2761.12,-1026.69"/>
</g>
<!-- src/handlers/schemas/authorizeHandlerConfig.schema.ts -->
<g id="node14" class="node">
<title>src/handlers/schemas/authorizeHandlerConfig.schema.ts</title>
<path fill="none" stroke="#cfffac" d="M1948.33,-412.74C1948.33,-412.74 1603.67,-412.74 1603.67,-412.74 1599.83,-412.74 1596,-408.91 1596,-405.07 1596,-405.07 1596,-397.41 1596,-397.41 1596,-393.57 1599.83,-389.74 1603.67,-389.74 1603.67,-389.74 1948.33,-389.74 1948.33,-389.74 1952.17,-389.74 1956,-393.57 1956,-397.41 1956,-397.41 1956,-405.07 1956,-405.07 1956,-408.91 1952.17,-412.74 1948.33,-412.74"/>
<text text-anchor="middle" x="1776" y="-397.54" font-family="Arial" font-size="14.00" fill="#cfffac">src/handlers/schemas/authorizeHandlerConfig.schema.ts</text>
</g>
<!-- src/handlers/authorize.handler.ts&#45;&gt;src/handlers/schemas/authorizeHandlerConfig.schema.ts -->
<g id="edge15" class="edge">
<title>src/handlers/authorize.handler.ts&#45;&gt;src/handlers/schemas/authorizeHandlerConfig.schema.ts</title>
<path fill="none" stroke="#757575" d="M1438.03,-399.72C1482.19,-399.92 1534.97,-400.16 1585.51,-400.38"/>
<polygon fill="#757575" stroke="#757575" points="1585.57,-403.88 1595.58,-400.43 1585.6,-396.88 1585.57,-403.88"/>
</g>
<!-- src/statements/index.ts -->
<g id="node15" class="node">
<title>src/statements/index.ts</title>
<path fill="none" stroke="#c6c5fe" d="M1845.83,-533.74C1845.83,-533.74 1706.17,-533.74 1706.17,-533.74 1702.33,-533.74 1698.5,-529.91 1698.5,-526.07 1698.5,-526.07 1698.5,-518.41 1698.5,-518.41 1698.5,-514.57 1702.33,-510.74 1706.17,-510.74 1706.17,-510.74 1845.83,-510.74 1845.83,-510.74 1849.67,-510.74 1853.5,-514.57 1853.5,-518.41 1853.5,-518.41 1853.5,-526.07 1853.5,-526.07 1853.5,-529.91 1849.67,-533.74 1845.83,-533.74"/>
<text text-anchor="middle" x="1776" y="-518.54" font-family="Arial" font-size="14.00" fill="#c6c5fe">src/statements/index.ts</text>
</g>
<!-- src/handlers/authorize.handler.ts&#45;&gt;src/statements/index.ts -->
<g id="edge17" class="edge">
<title>src/handlers/authorize.handler.ts&#45;&gt;src/statements/index.ts</title>
<path fill="none" stroke="#757575" d="M1410.78,-410.8C1441.06,-418.12 1474.72,-430.01 1501,-449.24 1523.98,-466.06 1512.42,-487.87 1537,-502.24 1582.2,-528.66 1640.71,-533.89 1688.41,-532.4"/>
<polygon fill="#757575" stroke="#757575" points="1688.57,-535.89 1698.41,-531.98 1688.28,-528.9 1688.57,-535.89"/>
</g>
<!-- src/statements/grants/index.ts -->
<g id="node31" class="node">
<title>src/statements/grants/index.ts</title>
<path fill="none" stroke="#c6c5fe" d="M2253.33,-441.74C2253.33,-441.74 2071.67,-441.74 2071.67,-441.74 2067.83,-441.74 2064,-437.91 2064,-434.07 2064,-434.07 2064,-426.41 2064,-426.41 2064,-422.57 2067.83,-418.74 2071.67,-418.74 2071.67,-418.74 2253.33,-418.74 2253.33,-418.74 2257.17,-418.74 2261,-422.57 2261,-426.41 2261,-426.41 2261,-434.07 2261,-434.07 2261,-437.91 2257.17,-441.74 2253.33,-441.74"/>
<text text-anchor="middle" x="2162.5" y="-426.54" font-family="Arial" font-size="14.00" fill="#c6c5fe">src/statements/grants/index.ts</text>
</g>
<!-- src/statements/index.ts&#45;&gt;src/statements/grants/index.ts -->
<g id="edge61" class="edge">
<title>src/statements/index.ts&#45;&gt;src/statements/grants/index.ts</title>
<path fill="none" stroke="#757575" d="M1853.56,-529.98C1902.27,-531.58 1965.29,-527.31 2015,-502.24 2036.65,-491.32 2030.48,-474.16 2051,-461.24 2061.95,-454.35 2074.46,-448.96 2087.02,-444.75"/>
<polygon fill="#757575" stroke="#757575" points="2088.12,-448.07 2096.62,-441.76 2086.03,-441.39 2088.12,-448.07"/>
</g>
<!-- src/statements/locations/index.ts -->
<g id="node32" class="node">
<title>src/statements/locations/index.ts</title>
<path fill="none" stroke="#c6c5fe" d="M2260.83,-679.74C2260.83,-679.74 2064.17,-679.74 2064.17,-679.74 2060.33,-679.74 2056.5,-675.91 2056.5,-672.07 2056.5,-672.07 2056.5,-664.41 2056.5,-664.41 2056.5,-660.57 2060.33,-656.74 2064.17,-656.74 2064.17,-656.74 2260.83,-656.74 2260.83,-656.74 2264.67,-656.74 2268.5,-660.57 2268.5,-664.41 2268.5,-664.41 2268.5,-672.07 2268.5,-672.07 2268.5,-675.91 2264.67,-679.74 2260.83,-679.74"/>
<text text-anchor="middle" x="2162.5" y="-664.54" font-family="Arial" font-size="14.00" fill="#c6c5fe">src/statements/locations/index.ts</text>
</g>
<!-- src/statements/index.ts&#45;&gt;src/statements/locations/index.ts -->
<g id="edge62" class="edge">
<title>src/statements/index.ts&#45;&gt;src/statements/locations/index.ts</title>
<path fill="none" stroke="#757575" d="M1807.49,-533.82C1876.48,-560.01 2044.51,-623.82 2121.62,-653.1"/>
<polygon fill="#757575" stroke="#757575" points="2120.41,-656.38 2131,-656.66 2122.9,-649.84 2120.41,-656.38"/>
</g>
<!-- src/statements/resources/index.ts -->
<g id="node33" class="node">
<title>src/statements/resources/index.ts</title>
<path fill="none" stroke="#c6c5fe" d="M2263.83,-380.74C2263.83,-380.74 2061.17,-380.74 2061.17,-380.74 2057.33,-380.74 2053.5,-376.91 2053.5,-373.07 2053.5,-373.07 2053.5,-365.41 2053.5,-365.41 2053.5,-361.57 2057.33,-357.74 2061.17,-357.74 2061.17,-357.74 2263.83,-357.74 2263.83,-357.74 2267.67,-357.74 2271.5,-361.57 2271.5,-365.41 2271.5,-365.41 2271.5,-373.07 2271.5,-373.07 2271.5,-376.91 2267.67,-380.74 2263.83,-380.74"/>
<text text-anchor="middle" x="2162.5" y="-365.54" font-family="Arial" font-size="14.00" fill="#c6c5fe">src/statements/resources/index.ts</text>
</g>
<!-- src/statements/index.ts&#45;&gt;src/statements/resources/index.ts -->
<g id="edge63" class="edge">
<title>src/statements/index.ts&#45;&gt;src/statements/resources/index.ts</title>
<path fill="none" stroke="#757575" d="M1838.68,-533.77C1890.78,-539.91 1964.73,-539.74 2015,-502.24 2050.2,-475.99 2019.68,-441.01 2051,-410.24 2062.85,-398.6 2078.29,-390.22 2093.85,-384.21"/>
<polygon fill="#757575" stroke="#757575" points="2095.28,-387.41 2103.53,-380.76 2092.93,-380.82 2095.28,-387.41"/>
</g>
<!-- src/statements/tokens/index.ts -->
<g id="node34" class="node">
<title>src/statements/tokens/index.ts</title>
<path fill="none" stroke="#c6c5fe" d="M2254.33,-492.74C2254.33,-492.74 2070.67,-492.74 2070.67,-492.74 2066.83,-492.74 2063,-488.91 2063,-485.07 2063,-485.07 2063,-477.41 2063,-477.41 2063,-473.57 2066.83,-469.74 2070.67,-469.74 2070.67,-469.74 2254.33,-469.74 2254.33,-469.74 2258.17,-469.74 2262,-473.57 2262,-477.41 2262,-477.41 2262,-485.07 2262,-485.07 2262,-488.91 2258.17,-492.74 2254.33,-492.74"/>
<text text-anchor="middle" x="2162.5" y="-477.54" font-family="Arial" font-size="14.00" fill="#c6c5fe">src/statements/tokens/index.ts</text>
</g>
<!-- src/statements/index.ts&#45;&gt;src/statements/tokens/index.ts -->
<g id="edge64" class="edge">
<title>src/statements/index.ts&#45;&gt;src/statements/tokens/index.ts</title>
<path fill="none" stroke="#757575" d="M1853.75,-516.94C1900.44,-513.43 1961.23,-508.35 2015,-502.24 2035.09,-499.96 2056.68,-497.1 2076.94,-494.22"/>
<polygon fill="#757575" stroke="#757575" points="2077.68,-497.65 2087.08,-492.77 2076.68,-490.72 2077.68,-497.65"/>
</g>
<!-- src/statements/validations/index.ts -->
<g id="node35" class="node">
<title>src/statements/validations/index.ts</title>
<path fill="none" stroke="#c6c5fe" d="M2266.33,-894.74C2266.33,-894.74 2058.67,-894.74 2058.67,-894.74 2054.83,-894.74 2051,-890.91 2051,-887.07 2051,-887.07 2051,-879.41 2051,-879.41 2051,-875.57 2054.83,-871.74 2058.67,-871.74 2058.67,-871.74 2266.33,-871.74 2266.33,-871.74 2270.17,-871.74 2274,-875.57 2274,-879.41 2274,-879.41 2274,-887.07 2274,-887.07 2274,-890.91 2270.17,-894.74 2266.33,-894.74"/>
<text text-anchor="middle" x="2162.5" y="-879.54" font-family="Arial" font-size="14.00" fill="#c6c5fe">src/statements/validations/index.ts</text>
</g>
<!-- src/statements/index.ts&#45;&gt;src/statements/validations/index.ts -->
<g id="edge65" class="edge">
<title>src/statements/index.ts&#45;&gt;src/statements/validations/index.ts</title>
<path fill="none" stroke="#757575" d="M1789.36,-533.84C1844.94,-586.03 2072.09,-799.29 2141.35,-864.33"/>
<polygon fill="#757575" stroke="#757575" points="2139.31,-867.21 2149,-871.5 2144.1,-862.1 2139.31,-867.21"/>
</g>
<!-- src/handlers/credentialOffer.handler.ts&#45;&gt;src/resources.ts -->
<g id="edge21" class="edge">
<title>src/handlers/credentialOffer.handler.ts&#45;&gt;src/resources.ts</title>
<path fill="none" stroke="#757575" d="M1454.86,-463.98C1644.79,-455.34 1992.16,-437.56 2015,-422.24 2045.04,-402.09 2020.69,-368.99 2051,-349.24 2111.95,-309.52 2647.68,-312.02 2690,-338.24 2747.9,-374.11 2770.13,-459.08 2777.63,-499.35"/>
<polygon fill="#757575" stroke="#757575" points="2774.23,-500.18 2779.38,-509.44 2781.12,-498.99 2774.23,-500.18"/>
</g>
<!-- src/handlers/credentialOffer.handler.ts&#45;&gt;src/config.ts -->
<g id="edge18" class="edge">
<title>src/handlers/credentialOffer.handler.ts&#45;&gt;src/config.ts</title>
<path fill="none" stroke="#757575" d="M1435.33,-457.62C1459.67,-450.32 1483.59,-438.7 1501,-420.24 1550.12,-368.16 1486.93,-314.4 1537,-263.24 1585.02,-214.17 1666.87,-203.1 1720.94,-201.64"/>
<polygon fill="#757575" stroke="#757575" points="1721.1,-205.14 1731.03,-201.47 1720.98,-198.14 1721.1,-205.14"/>
</g>
<!-- src/handlers/credentialOffer.handler.ts&#45;&gt;src/errors.ts -->
<g id="edge19" class="edge">
<title>src/handlers/credentialOffer.handler.ts&#45;&gt;src/errors.ts</title>
<path fill="none" stroke="#757575" d="M1454.79,-472.61C1472.42,-478.31 1488.72,-487.33 1501,-501.24 1583.4,-594.54 1448.31,-972.89 1537,-1060.24 1567.63,-1090.41 2267.02,-1097.19 2310,-1098.24 2478.84,-1102.39 2534.14,-1163.3 2690,-1098.24 2724.8,-1083.71 2753.09,-1048.68 2768.45,-1026.28"/>
<polygon fill="#757575" stroke="#757575" points="2771.44,-1028.1 2774.04,-1017.83 2765.6,-1024.23 2771.44,-1028.1"/>
</g>
<!-- src/handlers/credentialOffer.handler.ts&#45;&gt;src/statements/index.ts -->
<g id="edge22" class="edge">
<title>src/handlers/credentialOffer.handler.ts&#45;&gt;src/statements/index.ts</title>
<path fill="none" stroke="#757575" d="M1396.23,-480.75C1436.43,-487.75 1489.64,-496.43 1537,-502.24 1587.03,-508.38 1643.21,-513.2 1688.42,-516.57"/>
<polygon fill="#757575" stroke="#757575" points="1688.25,-520.06 1698.48,-517.31 1688.76,-513.08 1688.25,-520.06"/>
</g>
<!-- src/handlers/schemas/credentialOfferHandlerConfig.schema.ts -->
<g id="node17" class="node">
<title>src/handlers/schemas/credentialOfferHandlerConfig.schema.ts</title>
<path fill="none" stroke="#cfffac" d="M1965.33,-492.74C1965.33,-492.74 1586.67,-492.74 1586.67,-492.74 1582.83,-492.74 1579,-488.91 1579,-485.07 1579,-485.07 1579,-477.41 1579,-477.41 1579,-473.57 1582.83,-469.74 1586.67,-469.74 1586.67,-469.74 1965.33,-469.74 1965.33,-469.74 1969.17,-469.74 1973,-473.57 1973,-477.41 1973,-477.41 1973,-485.07 1973,-485.07 1973,-488.91 1969.17,-492.74 1965.33,-492.74"/>
<text text-anchor="middle" x="1776" y="-477.54" font-family="Arial" font-size="14.00" fill="#cfffac">src/handlers/schemas/credentialOfferHandlerConfig.schema.ts</text>
</g>
<!-- src/handlers/credentialOffer.handler.ts&#45;&gt;src/handlers/schemas/credentialOfferHandlerConfig.schema.ts -->
<g id="edge20" class="edge">
<title>src/handlers/credentialOffer.handler.ts&#45;&gt;src/handlers/schemas/credentialOfferHandlerConfig.schema.ts</title>
<path fill="none" stroke="#757575" d="M1454.66,-472.54C1489.96,-473.5 1529.54,-474.58 1568.51,-475.64"/>
<polygon fill="#757575" stroke="#757575" points="1568.85,-479.15 1578.94,-475.92 1569.04,-472.15 1568.85,-479.15"/>
</g>
<!-- src/handlers/nonce.handler.ts&#45;&gt;src/resources.ts -->
<g id="edge33" class="edge">
<title>src/handlers/nonce.handler.ts&#45;&gt;src/resources.ts</title>
<path fill="none" stroke="#757575" d="M1424.15,-338.7C1450.4,-332.49 1478.1,-322.94 1501,-308.24 1522.56,-294.41 1513.92,-274.34 1537,-263.24 1631.04,-218.04 2611.55,-212.65 2690,-268.24 2766.84,-322.69 2779.08,-448.44 2780.82,-499.3"/>
<polygon fill="#757575" stroke="#757575" points="2777.33,-499.58 2781.06,-509.49 2784.33,-499.41 2777.33,-499.58"/>
</g>
<!-- src/handlers/nonce.handler.ts&#45;&gt;src/config.ts -->
<g id="edge30" class="edge">
<title>src/handlers/nonce.handler.ts&#45;&gt;src/config.ts</title>
<path fill="none" stroke="#757575" d="M1428.79,-340.9C1454.43,-334.58 1480.64,-324.2 1501,-307.24 1530.34,-282.81 1506.01,-251.54 1537,-229.24 1590.62,-190.67 1669.37,-189.97 1721.4,-194.98"/>
<polygon fill="#757575" stroke="#757575" points="1721.12,-198.47 1731.43,-196.05 1721.86,-191.51 1721.12,-198.47"/>
</g>
<!-- src/handlers/nonce.handler.ts&#45;&gt;src/errors.ts -->
<g id="edge31" class="edge">
<title>src/handlers/nonce.handler.ts&#45;&gt;src/errors.ts</title>
<path fill="none" stroke="#757575" d="M1428.56,-339.77C1596.47,-323.68 1934.3,-302.4 2015,-381.24 2098.33,-462.65 1983.28,-809.45 2051,-904.24 2113.52,-991.76 2181.67,-943.08 2274,-998.24 2291.64,-1008.78 2290.62,-1020.41 2310,-1027.24 2469.27,-1083.41 2522.2,-1046.35 2690,-1027.24 2703.22,-1025.74 2717.32,-1023.04 2730.37,-1020.06"/>
<polygon fill="#757575" stroke="#757575" points="2731.2,-1023.47 2740.12,-1017.75 2729.58,-1016.66 2731.2,-1023.47"/>
</g>
<!-- src/handlers/nonce.handler.ts&#45;&gt;src/statements/index.ts -->
<g id="edge34" class="edge">
<title>src/handlers/nonce.handler.ts&#45;&gt;src/statements/index.ts</title>
<path fill="none" stroke="#757575" d="M1428.67,-348.71C1454.75,-352.76 1481.23,-361.61 1501,-379.24 1543.5,-417.16 1492.89,-466.21 1537,-502.24 1584.87,-541.34 1657.68,-541.69 1710.17,-535.16"/>
<polygon fill="#757575" stroke="#757575" points="1710.94,-538.58 1720.38,-533.77 1710,-531.65 1710.94,-538.58"/>
</g>
<!-- src/handlers/schemas/nonceHandlerConfig.schema.ts -->
<g id="node23" class="node">
<title>src/handlers/schemas/nonceHandlerConfig.schema.ts</title>
<path fill="none" stroke="#cfffac" d="M1938.83,-294.74C1938.83,-294.74 1613.17,-294.74 1613.17,-294.74 1609.33,-294.74 1605.5,-290.91 1605.5,-287.07 1605.5,-287.07 1605.5,-279.41 1605.5,-279.41 1605.5,-275.57 1609.33,-271.74 1613.17,-271.74 1613.17,-271.74 1938.83,-271.74 1938.83,-271.74 1942.67,-271.74 1946.5,-275.57 1946.5,-279.41 1946.5,-279.41 1946.5,-287.07 1946.5,-287.07 1946.5,-290.91 1942.67,-294.74 1938.83,-294.74"/>
<text text-anchor="middle" x="1776" y="-279.54" font-family="Arial" font-size="14.00" fill="#cfffac">src/handlers/schemas/nonceHandlerConfig.schema.ts</text>
</g>
<!-- src/handlers/nonce.handler.ts&#45;&gt;src/handlers/schemas/nonceHandlerConfig.schema.ts -->
<g id="edge32" class="edge">
<title>src/handlers/nonce.handler.ts&#45;&gt;src/handlers/schemas/nonceHandlerConfig.schema.ts</title>
<path fill="none" stroke="#757575" d="M1383.91,-338.69C1425.05,-329.68 1484.52,-317.36 1537,-309.24 1570.13,-304.11 1606.01,-299.64 1639.62,-295.91"/>
<polygon fill="#757575" stroke="#757575" points="1640.41,-299.34 1649.97,-294.77 1639.65,-292.38 1640.41,-299.34"/>
</g>
<!-- src/handlers/oauthAuthorizationServer.handler.ts&#45;&gt;src/config.ts -->
<g id="edge35" class="edge">
<title>src/handlers/oauthAuthorizationServer.handler.ts&#45;&gt;src/config.ts</title>
<path fill="none" stroke="#757575" d="M1486.04,-203.9C1567.69,-203.71 1663.05,-203.49 1721.22,-203.36"/>
<polygon fill="#757575" stroke="#757575" points="1721.29,-206.86 1731.28,-203.34 1721.27,-199.86 1721.29,-206.86"/>
</g>
<!-- src/handlers/schemas/oauthAuthorizationServerHandlerConfig.schema.ts -->
<g id="node24" class="node">
<title>src/handlers/schemas/oauthAuthorizationServerHandlerConfig.schema.ts</title>
<path fill="none" stroke="#cfffac" d="M1996.83,-173.74C1996.83,-173.74 1555.17,-173.74 1555.17,-173.74 1551.33,-173.74 1547.5,-169.91 1547.5,-166.07 1547.5,-166.07 1547.5,-158.41 1547.5,-158.41 1547.5,-154.57 1551.33,-150.74 1555.17,-150.74 1555.17,-150.74 1996.83,-150.74 1996.83,-150.74 2000.67,-150.74 2004.5,-154.57 2004.5,-158.41 2004.5,-158.41 2004.5,-166.07 2004.5,-166.07 2004.5,-169.91 2000.67,-173.74 1996.83,-173.74"/>
<text text-anchor="middle" x="1776" y="-158.54" font-family="Arial" font-size="14.00" fill="#cfffac">src/handlers/schemas/oauthAuthorizationServerHandlerConfig.schema.ts</text>
</g>
<!-- src/handlers/oauthAuthorizationServer.handler.ts&#45;&gt;src/handlers/schemas/oauthAuthorizationServerHandlerConfig.schema.ts -->
<g id="edge36" class="edge">
<title>src/handlers/oauthAuthorizationServer.handler.ts&#45;&gt;src/handlers/schemas/oauthAuthorizationServerHandlerConfig.schema.ts</title>
<path fill="none" stroke="#757575" d="M1435.42,-192.72C1467.89,-189.19 1503.93,-185.41 1537,-182.24 1564.2,-179.63 1593.17,-177.04 1621.2,-174.63"/>
<polygon fill="#757575" stroke="#757575" points="1621.81,-178.09 1631.48,-173.75 1621.21,-171.12 1621.81,-178.09"/>
</g>
<!-- src/handlers/openidCredentialIssuer.handler.ts&#45;&gt;src/resources.ts -->
<g id="edge39" class="edge">
<title>src/handlers/openidCredentialIssuer.handler.ts&#45;&gt;src/resources.ts</title>
<path fill="none" stroke="#757575" d="M1420.44,-110.73C1456.47,-106.53 1498.67,-102.3 1537,-100.24 1793.61,-86.44 2496.32,-20.33 2690,-189.24 2737.8,-230.92 2768.88,-431.66 2778.12,-499.09"/>
<polygon fill="#757575" stroke="#757575" points="2774.7,-499.96 2779.5,-509.4 2781.64,-499.02 2774.7,-499.96"/>
</g>
<!-- src/handlers/openidCredentialIssuer.handler.ts&#45;&gt;src/config.ts -->
<g id="edge37" class="edge">
<title>src/handlers/openidCredentialIssuer.handler.ts&#45;&gt;src/config.ts</title>
<path fill="none" stroke="#757575" d="M1453.49,-133.84C1469.91,-137.84 1486.19,-143.16 1501,-150.24 1520.31,-159.47 1517.34,-173.76 1537,-182.24 1596.2,-207.78 1671.26,-210.05 1721.09,-207.89"/>
<polygon fill="#757575" stroke="#757575" points="1721.51,-211.37 1731.32,-207.37 1721.16,-204.38 1721.51,-211.37"/>
</g>
<!-- src/handlers/schemas/openidCredentialIssuerHandlerConfig.schema.ts -->
<g id="node25" class="node">
<title>src/handlers/schemas/openidCredentialIssuerHandlerConfig.schema.ts</title>
<path fill="none" stroke="#cfffac" d="M1989.83,-132.74C1989.83,-132.74 1562.17,-132.74 1562.17,-132.74 1558.33,-132.74 1554.5,-128.91 1554.5,-125.07 1554.5,-125.07 1554.5,-117.41 1554.5,-117.41 1554.5,-113.57 1558.33,-109.74 1562.17,-109.74 1562.17,-109.74 1989.83,-109.74 1989.83,-109.74 1993.67,-109.74 1997.5,-113.57 1997.5,-117.41 1997.5,-117.41 1997.5,-125.07 1997.5,-125.07 1997.5,-128.91 1993.67,-132.74 1989.83,-132.74"/>
<text text-anchor="middle" x="1776" y="-117.54" font-family="Arial" font-size="14.00" fill="#cfffac">src/handlers/schemas/openidCredentialIssuerHandlerConfig.schema.ts</text>
</g>
<!-- src/handlers/openidCredentialIssuer.handler.ts&#45;&gt;src/handlers/schemas/openidCredentialIssuerHandlerConfig.schema.ts -->
<g id="edge38" class="edge">
<title>src/handlers/openidCredentialIssuer.handler.ts&#45;&gt;src/handlers/schemas/openidCredentialIssuerHandlerConfig.schema.ts</title>
<path fill="none" stroke="#757575" d="M1479.26,-121.91C1500.19,-121.86 1522.13,-121.81 1544.2,-121.76"/>
<polygon fill="#757575" stroke="#757575" points="1544.35,-125.26 1554.34,-121.74 1544.34,-118.26 1544.35,-125.26"/>
</g>
<!-- src/handlers/pushedAuthorizationRequest.handler.ts&#45;&gt;src/config.ts -->
<g id="edge40" class="edge">
<title>src/handlers/pushedAuthorizationRequest.handler.ts&#45;&gt;src/config.ts</title>
<path fill="none" stroke="#757575" d="M1340.2,-1264.55C1367.38,-1219.72 1464.06,-1053.69 1501,-902.24 1517.85,-833.15 1491.73,-318.08 1537,-263.24 1581.31,-209.57 1665.96,-199.96 1721.44,-200.04"/>
<polygon fill="#757575" stroke="#757575" points="1721.4,-203.54 1731.44,-200.15 1721.48,-196.54 1721.4,-203.54"/>
</g>
<!-- src/handlers/pushedAuthorizationRequest.handler.ts&#45;&gt;src/errors.ts -->
<g id="edge41" class="edge">
<title>src/handlers/pushedAuthorizationRequest.handler.ts&#45;&gt;src/errors.ts</title>
<path fill="none" stroke="#757575" d="M1365.33,-1287.83C1527.57,-1343.72 2261.97,-1570.04 2690,-1250.24 2762.58,-1196.01 2777.29,-1077.17 2780.26,-1028.1"/>
<polygon fill="#757575" stroke="#757575" points="2783.76,-1028.13 2780.76,-1017.97 2776.77,-1027.78 2783.76,-1028.13"/>
</g>
<!-- src/handlers/pushedAuthorizationRequest.handler.ts&#45;&gt;src/statements/index.ts -->
<g id="edge43" class="edge">
<title>src/handlers/pushedAuthorizationRequest.handler.ts&#45;&gt;src/statements/index.ts</title>
<path fill="none" stroke="#757575" d="M1339.77,-1264.7C1389.48,-1179.9 1698.1,-653.42 1763.02,-542.67"/>
<polygon fill="#757575" stroke="#757575" points="1766.18,-544.2 1768.22,-533.8 1760.15,-540.66 1766.18,-544.2"/>
</g>
<!-- src/handlers/schemas/pushedAuthorizationRequestHandlerConfig.schema.ts -->
<g id="node26" class="node">
<title>src/handlers/schemas/pushedAuthorizationRequestHandlerConfig.schema.ts</title>
<path fill="none" stroke="#cfffac" d="M2007.33,-1287.74C2007.33,-1287.74 1544.67,-1287.74 1544.67,-1287.74 1540.83,-1287.74 1537,-1283.91 1537,-1280.07 1537,-1280.07 1537,-1272.41 1537,-1272.41 1537,-1268.57 1540.83,-1264.74 1544.67,-1264.74 1544.67,-1264.74 2007.33,-1264.74 2007.33,-1264.74 2011.17,-1264.74 2015,-1268.57 2015,-1272.41 2015,-1272.41 2015,-1280.07 2015,-1280.07 2015,-1283.91 2011.17,-1287.74 2007.33,-1287.74"/>
<text text-anchor="middle" x="1776" y="-1272.54" font-family="Arial" font-size="14.00" fill="#cfffac">src/handlers/schemas/pushedAuthorizationRequestHandlerConfig.schema.ts</text>
</g>
<!-- src/handlers/pushedAuthorizationRequest.handler.ts&#45;&gt;src/handlers/schemas/pushedAuthorizationRequestHandlerConfig.schema.ts -->
<g id="edge42" class="edge">
<title>src/handlers/pushedAuthorizationRequest.handler.ts&#45;&gt;src/handlers/schemas/pushedAuthorizationRequestHandlerConfig.schema.ts</title>
<path fill="none" stroke="#757575" d="M1496.64,-1276.24C1506.51,-1276.24 1516.53,-1276.24 1526.64,-1276.24"/>
<polygon fill="#757575" stroke="#757575" points="1526.76,-1279.74 1536.76,-1276.24 1526.76,-1272.74 1526.76,-1279.74"/>
</g>
<!-- src/handlers/token.handler.ts&#45;&gt;src/config.ts -->
<g id="edge44" class="edge">
<title>src/handlers/token.handler.ts&#45;&gt;src/config.ts</title>
<path fill="none" stroke="#757575" d="M1036.97,-530.55C1048.35,-494.32 1088.2,-383.21 1163,-330.24 1288.35,-241.48 1362.3,-324.22 1501,-258.24 1519.55,-249.42 1518.02,-237.12 1537,-229.24 1596.49,-204.54 1671.18,-200.22 1720.86,-200.65"/>
<polygon fill="#757575" stroke="#757575" points="1721.01,-204.16 1731.06,-200.81 1721.12,-197.16 1721.01,-204.16"/>
</g>
<!-- src/handlers/token.handler.ts&#45;&gt;src/errors.ts -->
<g id="edge45" class="edge">
<title>src/handlers/token.handler.ts&#45;&gt;src/errors.ts</title>
<path fill="none" stroke="#757575" d="M1035.36,-553.86C1043.38,-601.13 1078.48,-782.23 1163,-902.24 1341.43,-1155.59 1465.13,-1236.24 1775,-1236.24 1775,-1236.24 1775,-1236.24 2163.5,-1236.24 2280.64,-1236.24 2593.34,-1276.41 2690,-1210.24 2752.41,-1167.52 2772.54,-1071.5 2778.59,-1028.18"/>
<polygon fill="#757575" stroke="#757575" points="2782.08,-1028.5 2779.87,-1018.13 2775.14,-1027.61 2782.08,-1028.5"/>
</g>
<!-- src/handlers/schemas/tokenHandlerConfig.schema.ts -->
<g id="node27" class="node">
<title>src/handlers/schemas/tokenHandlerConfig.schema.ts</title>
<path fill="none" stroke="#cfffac" d="M1493.33,-532.74C1493.33,-532.74 1170.67,-532.74 1170.67,-532.74 1166.83,-532.74 1163,-528.91 1163,-525.07 1163,-525.07 1163,-517.41 1163,-517.41 1163,-513.57 1166.83,-509.74 1170.67,-509.74 1170.67,-509.74 1493.33,-509.74 1493.33,-509.74 1497.17,-509.74 1501,-513.57 1501,-517.41 1501,-517.41 1501,-525.07 1501,-525.07 1501,-528.91 1497.17,-532.74 1493.33,-532.74"/>
<text text-anchor="middle" x="1332" y="-517.54" font-family="Arial" font-size="14.00" fill="#cfffac">src/handlers/schemas/tokenHandlerConfig.schema.ts</text>
</g>
<!-- src/handlers/token.handler.ts&#45;&gt;src/handlers/schemas/tokenHandlerConfig.schema.ts -->
<g id="edge46" class="edge">
<title>src/handlers/token.handler.ts&#45;&gt;src/handlers/schemas/tokenHandlerConfig.schema.ts</title>
<path fill="none" stroke="#757575" d="M1127.22,-535.63C1137.16,-534.92 1147.48,-534.2 1157.97,-533.46"/>
<polygon fill="#757575" stroke="#757575" points="1158.33,-536.94 1168.06,-532.74 1157.84,-529.96 1158.33,-536.94"/>
</g>
<!-- src/handlers/token/authorizationCode.ts -->
<g id="node28" class="node">
<title>src/handlers/token/authorizationCode.ts</title>
<path fill="none" stroke="#c6c5fe" d="M1451.33,-573.74C1451.33,-573.74 1212.67,-573.74 1212.67,-573.74 1208.83,-573.74 1205,-569.91 1205,-566.07 1205,-566.07 1205,-558.41 1205,-558.41 1205,-554.57 1208.83,-550.74 1212.67,-550.74 1212.67,-550.74 1451.33,-550.74 1451.33,-550.74 1455.17,-550.74 1459,-554.57 1459,-558.41 1459,-558.41 1459,-566.07 1459,-566.07 1459,-569.91 1455.17,-573.74 1451.33,-573.74"/>
<text text-anchor="middle" x="1332" y="-558.54" font-family="Arial" font-size="14.00" fill="#c6c5fe">src/handlers/token/authorizationCode.ts</text>
</g>
<!-- src/handlers/token.handler.ts&#45;&gt;src/handlers/token/authorizationCode.ts -->
<g id="edge47" class="edge">
<title>src/handlers/token.handler.ts&#45;&gt;src/handlers/token/authorizationCode.ts</title>
<path fill="none" stroke="#757575" d="M1127.22,-548.54C1148.66,-549.98 1171.87,-551.54 1194.7,-553.08"/>
<polygon fill="#757575" stroke="#757575" points="1194.58,-556.58 1204.79,-553.76 1195.05,-549.59 1194.58,-556.58"/>
</g>
<!-- src/handlers/token/clientCredentials.ts -->
<g id="node29" class="node">
<title>src/handlers/token/clientCredentials.ts</title>
<path fill="none" stroke="#c6c5fe" d="M1446.83,-892.74C1446.83,-892.74 1217.17,-892.74 1217.17,-892.74 1213.33,-892.74 1209.5,-888.91 1209.5,-885.07 1209.5,-885.07 1209.5,-877.41 1209.5,-877.41 1209.5,-873.57 1213.33,-869.74 1217.17,-869.74 1217.17,-869.74 1446.83,-869.74 1446.83,-869.74 1450.67,-869.74 1454.5,-873.57 1454.5,-877.41 1454.5,-877.41 1454.5,-885.07 1454.5,-885.07 1454.5,-888.91 1450.67,-892.74 1446.83,-892.74"/>
<text text-anchor="middle" x="1332" y="-877.54" font-family="Arial" font-size="14.00" fill="#c6c5fe">src/handlers/token/clientCredentials.ts</text>
</g>
<!-- src/handlers/token.handler.ts&#45;&gt;src/handlers/token/clientCredentials.ts -->
<g id="edge48" class="edge">
<title>src/handlers/token.handler.ts&#45;&gt;src/handlers/token/clientCredentials.ts</title>
<path fill="none" stroke="#757575" d="M1043.74,-553.91C1087.55,-603.83 1259.42,-799.68 1314.16,-862.05"/>
<polygon fill="#757575" stroke="#757575" points="1311.58,-864.41 1320.8,-869.62 1316.84,-859.8 1311.58,-864.41"/>
</g>
<!-- src/handlers/token/authorizationCode.ts&#45;&gt;src/resources.ts -->
<g id="edge50" class="edge">
<title>src/handlers/token/authorizationCode.ts&#45;&gt;src/resources.ts</title>
<path fill="none" stroke="#757575" d="M1459.01,-558.76C1595.88,-554.98 1820.97,-548.73 2015,-543.24 2274.29,-535.91 2582.94,-526.98 2715.36,-523.15"/>
<polygon fill="#757575" stroke="#757575" points="2715.83,-526.63 2725.73,-522.85 2715.63,-519.64 2715.83,-526.63"/>
</g>
<!-- src/handlers/token/authorizationCode.ts&#45;&gt;src/errors.ts -->
<g id="edge49" class="edge">
<title>src/handlers/token/authorizationCode.ts&#45;&gt;src/errors.ts</title>
<path fill="none" stroke="#757575" d="M1341.54,-573.75C1369.58,-612.17 1459.45,-740.47 1501,-861.24 1518.33,-911.61 1497.47,-1062.54 1537,-1098.24 1632.12,-1184.16 2576.31,-1195.44 2690,-1136.24 2733.94,-1113.37 2761.04,-1058.5 2773.29,-1027.86"/>
<polygon fill="#757575" stroke="#757575" points="2776.71,-1028.71 2777.01,-1018.12 2770.17,-1026.22 2776.71,-1028.71"/>
</g>
<!-- src/handlers/token/authorizationCode.ts&#45;&gt;src/statements/index.ts -->
<g id="edge51" class="edge">
<title>src/handlers/token/authorizationCode.ts&#45;&gt;src/statements/index.ts</title>
<path fill="none" stroke="#757575" d="M1459.07,-550.83C1532.33,-544.2 1622.79,-536.02 1688.11,-530.1"/>
<polygon fill="#757575" stroke="#757575" points="1688.73,-533.56 1698.37,-529.18 1688.1,-526.59 1688.73,-533.56"/>
</g>
<!-- src/handlers/token/clientCredentials.ts&#45;&gt;src/resources.ts -->
<g id="edge53" class="edge">
<title>src/handlers/token/clientCredentials.ts&#45;&gt;src/resources.ts</title>
<path fill="none" stroke="#757575" d="M1356.45,-869.7C1444.87,-826.78 1767.44,-675.34 2051,-608.24 2328.79,-542.51 2408.62,-591.34 2690,-543.24 2702.64,-541.08 2716.14,-538.16 2728.76,-535.16"/>
<polygon fill="#757575" stroke="#757575" points="2729.77,-538.51 2738.66,-532.74 2728.11,-531.71 2729.77,-538.51"/>
</g>
<!-- src/handlers/token/clientCredentials.ts&#45;&gt;src/errors.ts -->
<g id="edge52" class="edge">
<title>src/handlers/token/clientCredentials.ts&#45;&gt;src/errors.ts</title>
<path fill="none" stroke="#757575" d="M1336.69,-892.93C1352.06,-939.32 1415.85,-1110.97 1537,-1174.24 1650.56,-1233.55 2579.93,-1239.8 2690,-1174.24 2743.95,-1142.11 2767.87,-1065.63 2776.67,-1027.96"/>
<polygon fill="#757575" stroke="#757575" points="2780.13,-1028.54 2778.85,-1018.02 2773.29,-1027.04 2780.13,-1028.54"/>
</g>
<!-- src/handlers/token/clientCredentials.ts&#45;&gt;src/statements/index.ts -->
<g id="edge54" class="edge">
<title>src/handlers/token/clientCredentials.ts&#45;&gt;src/statements/index.ts</title>
<path fill="none" stroke="#757575" d="M1347.21,-869.7C1411.36,-817.59 1674.34,-604 1752.8,-540.27"/>
<polygon fill="#757575" stroke="#757575" points="1755.07,-542.94 1760.63,-533.92 1750.66,-537.5 1755.07,-542.94"/>
</g>
<!-- src/statements/grants/generateIssuerGrants.ts -->
<g id="node30" class="node">
<title>src/statements/grants/generateIssuerGrants.ts</title>
<path fill="none" stroke="#c6c5fe" d="M2640.33,-410.74C2640.33,-410.74 2359.67,-410.74 2359.67,-410.74 2355.83,-410.74 2352,-406.91 2352,-403.07 2352,-403.07 2352,-395.41 2352,-395.41 2352,-391.57 2355.83,-387.74 2359.67,-387.74 2359.67,-387.74 2640.33,-387.74 2640.33,-387.74 2644.17,-387.74 2648,-391.57 2648,-395.41 2648,-395.41 2648,-403.07 2648,-403.07 2648,-406.91 2644.17,-410.74 2640.33,-410.74"/>
<text text-anchor="middle" x="2500" y="-395.54" font-family="Arial" font-size="14.00" fill="#c6c5fe">src/statements/grants/generateIssuerGrants.ts</text>
</g>
<!-- src/statements/grants/generateIssuerGrants.ts&#45;&gt;src/resources.ts -->
<g id="edge59" class="edge">
<title>src/statements/grants/generateIssuerGrants.ts&#45;&gt;src/resources.ts</title>
<path fill="none" stroke="#757575" d="M2648.09,-404.83C2662.69,-408.53 2676.93,-413.53 2690,-420.24 2725.78,-438.6 2754.24,-477.26 2769.28,-501.07"/>
<polygon fill="#757575" stroke="#757575" points="2766.34,-502.97 2774.54,-509.68 2772.31,-499.32 2766.34,-502.97"/>
</g>
<!-- src/statements/grants/index.ts&#45;&gt;src/statements/grants/generateIssuerGrants.ts -->
<g id="edge60" class="edge">
<title>src/statements/grants/index.ts&#45;&gt;src/statements/grants/generateIssuerGrants.ts</title>
<path fill="none" stroke="#757575" d="M2261.44,-421.19C2293.57,-418.22 2329.85,-414.87 2364.22,-411.7"/>
<polygon fill="#757575" stroke="#757575" points="2364.69,-415.17 2374.33,-410.76 2364.05,-408.2 2364.69,-415.17"/>
</g>
<!-- src/statements/locations/authorizationCodeRedirection.ts -->
<g id="node36" class="node">
<title>src/statements/locations/authorizationCodeRedirection.ts</title>
<path fill="none" stroke="#c6c5fe" d="M2671.33,-648.74C2671.33,-648.74 2328.67,-648.74 2328.67,-648.74 2324.83,-648.74 2321,-644.91 2321,-641.07 2321,-641.07 2321,-633.41 2321,-633.41 2321,-629.57 2324.83,-625.74 2328.67,-625.74 2328.67,-625.74 2671.33,-625.74 2671.33,-625.74 2675.17,-625.74 2679,-629.57 2679,-633.41 2679,-633.41 2679,-641.07 2679,-641.07 2679,-644.91 2675.17,-648.74 2671.33,-648.74"/>
<text text-anchor="middle" x="2500" y="-633.54" font-family="Arial" font-size="14.00" fill="#c6c5fe">src/statements/locations/authorizationCodeRedirection.ts</text>
</g>
<!-- src/statements/locations/index.ts&#45;&gt;src/statements/locations/authorizationCodeRedirection.ts -->
<g id="edge71" class="edge">
<title>src/statements/locations/index.ts&#45;&gt;src/statements/locations/authorizationCodeRedirection.ts</title>
<path fill="none" stroke="#757575" d="M2268.73,-658.52C2298.99,-655.72 2332.42,-652.63 2364.2,-649.7"/>
<polygon fill="#757575" stroke="#757575" points="2364.82,-653.15 2374.46,-648.75 2364.18,-646.18 2364.82,-653.15"/>
</g>
<!-- src/statements/locations/generateAuthorizationRequestUri.ts -->
<g id="node37" class="node">
<title>src/statements/locations/generateAuthorizationRequestUri.ts</title>
<path fill="none" stroke="#c6c5fe" d="M2682.33,-689.74C2682.33,-689.74 2317.67,-689.74 2317.67,-689.74 2313.83,-689.74 2310,-685.91 2310,-682.07 2310,-682.07 2310,-674.41 2310,-674.41 2310,-670.57 2313.83,-666.74 2317.67,-666.74 2317.67,-666.74 2682.33,-666.74 2682.33,-666.74 2686.17,-666.74 2690,-670.57 2690,-674.41 2690,-674.41 2690,-682.07 2690,-682.07 2690,-685.91 2686.17,-689.74 2682.33,-689.74"/>
<text text-anchor="middle" x="2500" y="-674.54" font-family="Arial" font-size="14.00" fill="#c6c5fe">src/statements/locations/generateAuthorizationRequestUri.ts</text>
</g>
<!-- src/statements/locations/index.ts&#45;&gt;src/statements/locations/generateAuthorizationRequestUri.ts -->
<g id="edge72" class="edge">
<title>src/statements/locations/index.ts&#45;&gt;src/statements/locations/generateAuthorizationRequestUri.ts</title>
<path fill="none" stroke="#757575" d="M2268.73,-671.38C2278.78,-671.68 2289.18,-671.99 2299.75,-672.3"/>
<polygon fill="#757575" stroke="#757575" points="2299.83,-675.81 2309.93,-672.61 2300.04,-668.81 2299.83,-675.81"/>
</g>
<!-- src/statements/locations/generateCredentialOffer.ts -->
<g id="node38" class="node">
<title>src/statements/locations/generateCredentialOffer.ts</title>
<path fill="none" stroke="#c6c5fe" d="M2654.83,-771.74C2654.83,-771.74 2345.17,-771.74 2345.17,-771.74 2341.33,-771.74 2337.5,-767.91 2337.5,-764.07 2337.5,-764.07 2337.5,-756.41 2337.5,-756.41 2337.5,-752.57 2341.33,-748.74 2345.17,-748.74 2345.17,-748.74 2654.83,-748.74 2654.83,-748.74 2658.67,-748.74 2662.5,-752.57 2662.5,-756.41 2662.5,-756.41 2662.5,-764.07 2662.5,-764.07 2662.5,-767.91 2658.67,-771.74 2654.83,-771.74"/>
<text text-anchor="middle" x="2500" y="-756.54" font-family="Arial" font-size="14.00" fill="#c6c5fe">src/statements/locations/generateCredentialOffer.ts</text>
</g>
<!-- src/statements/locations/index.ts&#45;&gt;src/statements/locations/generateCredentialOffer.ts -->
<g id="edge73" class="edge">
<title>src/statements/locations/index.ts&#45;&gt;src/statements/locations/generateCredentialOffer.ts</title>
<path fill="none" stroke="#757575" d="M2181.61,-679.77C2208.47,-696.24 2260.99,-726.09 2310,-740.24 2318.41,-742.67 2327.1,-744.81 2335.93,-746.69"/>
<polygon fill="#757575" stroke="#757575" points="2335.46,-750.17 2345.95,-748.71 2336.84,-743.31 2335.46,-750.17"/>
</g>
<!-- src/statements/resources/issuerClient.ts -->
<g id="node39" class="node">
<title>src/statements/resources/issuerClient.ts</title>
<path fill="none" stroke="#c6c5fe" d="M2620.83,-369.74C2620.83,-369.74 2379.17,-369.74 2379.17,-369.74 2375.33,-369.74 2371.5,-365.91 2371.5,-362.07 2371.5,-362.07 2371.5,-354.41 2371.5,-354.41 2371.5,-350.57 2375.33,-346.74 2379.17,-346.74 2379.17,-346.74 2620.83,-346.74 2620.83,-346.74 2624.67,-346.74 2628.5,-350.57 2628.5,-354.41 2628.5,-354.41 2628.5,-362.07 2628.5,-362.07 2628.5,-365.91 2624.67,-369.74 2620.83,-369.74"/>
<text text-anchor="middle" x="2500" y="-354.54" font-family="Arial" font-size="14.00" fill="#c6c5fe">src/statements/resources/issuerClient.ts</text>
</g>
<!-- src/statements/resources/index.ts&#45;&gt;src/statements/resources/issuerClient.ts -->
<g id="edge74" class="edge">
<title>src/statements/resources/index.ts&#45;&gt;src/statements/resources/issuerClient.ts</title>
<path fill="none" stroke="#757575" d="M2271.5,-365.7C2300.07,-364.76 2331.3,-363.74 2361.21,-362.76"/>
<polygon fill="#757575" stroke="#757575" points="2361.42,-366.25 2371.3,-362.43 2361.19,-359.26 2361.42,-366.25"/>
</g>
<!-- src/statements/tokens/generateAccessToken.ts -->
<g id="node40" class="node">
<title>src/statements/tokens/generateAccessToken.ts</title>
<path fill="none" stroke="#c6c5fe" d="M2641.83,-492.74C2641.83,-492.74 2358.17,-492.74 2358.17,-492.74 2354.33,-492.74 2350.5,-488.91 2350.5,-485.07 2350.5,-485.07 2350.5,-477.41 2350.5,-477.41 2350.5,-473.57 2354.33,-469.74 2358.17,-469.74 2358.17,-469.74 2641.83,-469.74 2641.83,-469.74 2645.67,-469.74 2649.5,-473.57 2649.5,-477.41 2649.5,-477.41 2649.5,-485.07 2649.5,-485.07 2649.5,-488.91 2645.67,-492.74 2641.83,-492.74"/>
<text text-anchor="middle" x="2500" y="-477.54" font-family="Arial" font-size="14.00" fill="#c6c5fe">src/statements/tokens/generateAccessToken.ts</text>
</g>
<!-- src/statements/tokens/index.ts&#45;&gt;src/statements/tokens/generateAccessToken.ts -->
<g id="edge80" class="edge">
<title>src/statements/tokens/index.ts&#45;&gt;src/statements/tokens/generateAccessToken.ts</title>
<path fill="none" stroke="#757575" d="M2262.35,-481.24C2286.86,-481.24 2313.74,-481.24 2340.32,-481.24"/>
<polygon fill="#757575" stroke="#757575" points="2340.49,-484.74 2350.49,-481.24 2340.49,-477.74 2340.49,-484.74"/>
</g>
<!-- src/statements/tokens/generateAuthorizationCode.ts -->
<g id="node41" class="node">
<title>src/statements/tokens/generateAuthorizationCode.ts</title>
<path fill="none" stroke="#c6c5fe" d="M2657.83,-730.74C2657.83,-730.74 2342.17,-730.74 2342.17,-730.74 2338.33,-730.74 2334.5,-726.91 2334.5,-723.07 2334.5,-723.07 2334.5,-715.41 2334.5,-715.41 2334.5,-711.57 2338.33,-707.74 2342.17,-707.74 2342.17,-707.74 2657.83,-707.74 2657.83,-707.74 2661.67,-707.74 2665.5,-711.57 2665.5,-715.41 2665.5,-715.41 2665.5,-723.07 2665.5,-723.07 2665.5,-726.91 2661.67,-730.74 2657.83,-730.74"/>
<text text-anchor="middle" x="2500" y="-715.54" font-family="Arial" font-size="14.00" fill="#c6c5fe">src/statements/tokens/generateAuthorizationCode.ts</text>
</g>
<!-- src/statements/tokens/index.ts&#45;&gt;src/statements/tokens/generateAuthorizationCode.ts -->
<g id="edge81" class="edge">
<title>src/statements/tokens/index.ts&#45;&gt;src/statements/tokens/generateAuthorizationCode.ts</title>
<path fill="none" stroke="#757575" d="M2171.06,-492.77C2200.3,-537.33 2304.63,-696.01 2310,-699.24 2314.77,-702.11 2319.73,-704.7 2324.84,-707.01"/>
<polygon fill="#757575" stroke="#757575" points="2323.6,-710.29 2334.18,-710.9 2326.29,-703.83 2323.6,-710.29"/>
</g>
<!-- src/statements/tokens/generateCNonce.ts -->
<g id="node42" class="node">
<title>src/statements/tokens/generateCNonce.ts</title>
<path fill="none" stroke="#c6c5fe" d="M2626.83,-451.74C2626.83,-451.74 2373.17,-451.74 2373.17,-451.74 2369.33,-451.74 2365.5,-447.91 2365.5,-444.07 2365.5,-444.07 2365.5,-436.41 2365.5,-436.41 2365.5,-432.57 2369.33,-428.74 2373.17,-428.74 2373.17,-428.74 2626.83,-428.74 2626.83,-428.74 2630.67,-428.74 2634.5,-432.57 2634.5,-436.41 2634.5,-436.41 2634.5,-444.07 2634.5,-444.07 2634.5,-447.91 2630.67,-451.74 2626.83,-451.74"/>
<text text-anchor="middle" x="2500" y="-436.54" font-family="Arial" font-size="14.00" fill="#c6c5fe">src/statements/tokens/generateCNonce.ts</text>
</g>
<!-- src/statements/tokens/index.ts&#45;&gt;src/statements/tokens/generateCNonce.ts -->
<g id="edge82" class="edge">
<title>src/statements/tokens/index.ts&#45;&gt;src/statements/tokens/generateCNonce.ts</title>
<path fill="none" stroke="#757575" d="M2245.2,-469.72C2266.3,-466.85 2288.98,-463.84 2310,-461.24 2332.94,-458.4 2357.46,-455.55 2380.99,-452.89"/>
<polygon fill="#757575" stroke="#757575" points="2381.46,-456.36 2391,-451.77 2380.67,-449.41 2381.46,-456.36"/>
</g>
<!-- src/statements/validations/validateAuthorizationCode.ts -->
<g id="node43" class="node">
<title>src/statements/validations/validateAuthorizationCode.ts</title>
<path fill="none" stroke="#c6c5fe" d="M2666.33,-1017.74C2666.33,-1017.74 2333.67,-1017.74 2333.67,-1017.74 2329.83,-1017.74 2326,-1013.91 2326,-1010.07 2326,-1010.07 2326,-1002.41 2326,-1002.41 2326,-998.57 2329.83,-994.74 2333.67,-994.74 2333.67,-994.74 2666.33,-994.74 2666.33,-994.74 2670.17,-994.74 2674,-998.57 2674,-1002.41 2674,-1002.41 2674,-1010.07 2674,-1010.07 2674,-1013.91 2670.17,-1017.74 2666.33,-1017.74"/>
<text text-anchor="middle" x="2500" y="-1002.54" font-family="Arial" font-size="14.00" fill="#c6c5fe">src/statements/validations/validateAuthorizationCode.ts</text>
</g>
<!-- src/statements/validations/index.ts&#45;&gt;src/statements/validations/validateAuthorizationCode.ts -->
<g id="edge83" class="edge">
<title>src/statements/validations/index.ts&#45;&gt;src/statements/validations/validateAuthorizationCode.ts</title>
<path fill="none" stroke="#757575" d="M2175.54,-895.05C2199.08,-917.32 2253.82,-965.15 2310,-986.24 2315.54,-988.32 2321.23,-990.21 2327.03,-991.92"/>
<polygon fill="#757575" stroke="#757575" points="2326.3,-995.35 2336.87,-994.63 2328.16,-988.6 2326.3,-995.35"/>
</g>
<!-- src/statements/validations/validateClientCredentials.ts -->
<g id="node44" class="node">
<title>src/statements/validations/validateClientCredentials.ts</title>
<path fill="none" stroke="#c6c5fe" d="M2662.33,-935.74C2662.33,-935.74 2337.67,-935.74 2337.67,-935.74 2333.83,-935.74 2330,-931.91 2330,-928.07 2330,-928.07 2330,-920.41 2330,-920.41 2330,-916.57 2333.83,-912.74 2337.67,-912.74 2337.67,-912.74 2662.33,-912.74 2662.33,-912.74 2666.17,-912.74 2670,-916.57 2670,-920.41 2670,-920.41 2670,-928.07 2670,-928.07 2670,-931.91 2666.17,-935.74 2662.33,-935.74"/>
<text text-anchor="middle" x="2500" y="-920.54" font-family="Arial" font-size="14.00" fill="#c6c5fe">src/statements/validations/validateClientCredentials.ts</text>
</g>
<!-- src/statements/validations/index.ts&#45;&gt;src/statements/validations/validateClientCredentials.ts -->
<g id="edge84" class="edge">
<title>src/statements/validations/index.ts&#45;&gt;src/statements/validations/validateClientCredentials.ts</title>
<path fill="none" stroke="#757575" d="M2240.22,-894.78C2262.69,-898.02 2287.31,-901.42 2310,-904.24 2330.56,-906.8 2352.41,-909.31 2373.68,-911.64"/>
<polygon fill="#757575" stroke="#757575" points="2373.41,-915.13 2383.73,-912.73 2374.17,-908.17 2373.41,-915.13"/>
</g>
<!-- src/statements/validations/validateIssuerState.ts -->
<g id="node45" class="node">
<title>src/statements/validations/validateIssuerState.ts</title>
<path fill="none" stroke="#c6c5fe" d="M2644.83,-976.74C2644.83,-976.74 2355.17,-976.74 2355.17,-976.74 2351.33,-976.74 2347.5,-972.91 2347.5,-969.07 2347.5,-969.07 2347.5,-961.41 2347.5,-961.41 2347.5,-957.57 2351.33,-953.74 2355.17,-953.74 2355.17,-953.74 2644.83,-953.74 2644.83,-953.74 2648.67,-953.74 2652.5,-957.57 2652.5,-961.41 2652.5,-961.41 2652.5,-969.07 2652.5,-969.07 2652.5,-972.91 2648.67,-976.74 2644.83,-976.74"/>
<text text-anchor="middle" x="2500" y="-961.54" font-family="Arial" font-size="14.00" fill="#c6c5fe">src/statements/validations/validateIssuerState.ts</text>
</g>
<!-- src/statements/validations/index.ts&#45;&gt;src/statements/validations/validateIssuerState.ts -->
<g id="edge85" class="edge">
<title>src/statements/validations/index.ts&#45;&gt;src/statements/validations/validateIssuerState.ts</title>
<path fill="none" stroke="#757575" d="M2185.13,-894.8C2213.1,-909.18 2263.74,-933.29 2310,-945.24 2319.87,-947.79 2330.1,-950.02 2340.47,-951.96"/>
<polygon fill="#757575" stroke="#757575" points="2339.99,-955.43 2350.45,-953.74 2341.22,-948.54 2339.99,-955.43"/>
</g>
<!-- src/statements/validations/validateRequestUri.ts -->
<g id="node46" class="node">
<title>src/statements/validations/validateRequestUri.ts</title>
<path fill="none" stroke="#c6c5fe" d="M2644.83,-853.74C2644.83,-853.74 2355.17,-853.74 2355.17,-853.74 2351.33,-853.74 2347.5,-849.91 2347.5,-846.07 2347.5,-846.07 2347.5,-838.41 2347.5,-838.41 2347.5,-834.57 2351.33,-830.74 2355.17,-830.74 2355.17,-830.74 2644.83,-830.74 2644.83,-830.74 2648.67,-830.74 2652.5,-834.57 2652.5,-838.41 2652.5,-838.41 2652.5,-846.07 2652.5,-846.07 2652.5,-849.91 2648.67,-853.74 2644.83,-853.74"/>
<text text-anchor="middle" x="2500" y="-838.54" font-family="Arial" font-size="14.00" fill="#c6c5fe">src/statements/validations/validateRequestUri.ts</text>
</g>
<!-- src/statements/validations/index.ts&#45;&gt;src/statements/validations/validateRequestUri.ts -->
<g id="edge86" class="edge">
<title>src/statements/validations/index.ts&#45;&gt;src/statements/validations/validateRequestUri.ts</title>
<path fill="none" stroke="#757575" d="M2245.2,-871.72C2266.3,-868.85 2288.98,-865.84 2310,-863.24 2332.94,-860.4 2357.46,-857.55 2380.99,-854.89"/>
<polygon fill="#757575" stroke="#757575" points="2381.46,-858.36 2391,-853.77 2380.67,-851.41 2381.46,-858.36"/>
</g>
<!-- src/statements/validations/validateResourceOwner.ts -->
<g id="node47" class="node">
<title>src/statements/validations/validateResourceOwner.ts</title>
<path fill="none" stroke="#c6c5fe" d="M2659.83,-894.74C2659.83,-894.74 2340.17,-894.74 2340.17,-894.74 2336.33,-894.74 2332.5,-890.91 2332.5,-887.07 2332.5,-887.07 2332.5,-879.41 2332.5,-879.41 2332.5,-875.57 2336.33,-871.74 2340.17,-871.74 2340.17,-871.74 2659.83,-871.74 2659.83,-871.74 2663.67,-871.74 2667.5,-875.57 2667.5,-879.41 2667.5,-879.41 2667.5,-887.07 2667.5,-887.07 2667.5,-890.91 2663.67,-894.74 2659.83,-894.74"/>
<text text-anchor="middle" x="2500" y="-879.54" font-family="Arial" font-size="14.00" fill="#c6c5fe">src/statements/validations/validateResourceOwner.ts</text>
</g>
<!-- src/statements/validations/index.ts&#45;&gt;src/statements/validations/validateResourceOwner.ts -->
<g id="edge87" class="edge">
<title>src/statements/validations/index.ts&#45;&gt;src/statements/validations/validateResourceOwner.ts</title>
<path fill="none" stroke="#757575" d="M2274.29,-883.24C2289.7,-883.24 2305.83,-883.24 2322.09,-883.24"/>
<polygon fill="#757575" stroke="#757575" points="2322.22,-886.74 2332.22,-883.24 2322.22,-879.74 2322.22,-886.74"/>
</g>
<!-- src/statements/validations/validateScope.ts -->
<g id="node48" class="node">
<title>src/statements/validations/validateScope.ts</title>
<path fill="none" stroke="#c6c5fe" d="M2629.83,-812.74C2629.83,-812.74 2370.17,-812.74 2370.17,-812.74 2366.33,-812.74 2362.5,-808.91 2362.5,-805.07 2362.5,-805.07 2362.5,-797.41 2362.5,-797.41 2362.5,-793.57 2366.33,-789.74 2370.17,-789.74 2370.17,-789.74 2629.83,-789.74 2629.83,-789.74 2633.67,-789.74 2637.5,-793.57 2637.5,-797.41 2637.5,-797.41 2637.5,-805.07 2637.5,-805.07 2637.5,-808.91 2633.67,-812.74 2629.83,-812.74"/>
<text text-anchor="middle" x="2500" y="-797.54" font-family="Arial" font-size="14.00" fill="#c6c5fe">src/statements/validations/validateScope.ts</text>
</g>
<!-- src/statements/validations/index.ts&#45;&gt;src/statements/validations/validateScope.ts -->
<g id="edge88" class="edge">
<title>src/statements/validations/index.ts&#45;&gt;src/statements/validations/validateScope.ts</title>
<path fill="none" stroke="#757575" d="M2185.65,-871.67C2213.76,-857.55 2264.12,-834.08 2310,-822.24 2323.64,-818.72 2337.97,-815.79 2352.4,-813.35"/>
<polygon fill="#757575" stroke="#757575" points="2353.09,-816.79 2362.4,-811.74 2351.97,-809.88 2353.09,-816.79"/>
</g>
<!-- src/statements/locations/authorizationCodeRedirection.ts&#45;&gt;src/resources.ts -->
<g id="edge66" class="edge">
<title>src/statements/locations/authorizationCodeRedirection.ts&#45;&gt;src/resources.ts</title>
<path fill="none" stroke="#757575" d="M2651.24,-625.74C2664.7,-622 2677.82,-617.25 2690,-611.24 2722.78,-595.07 2751.01,-562.52 2767,-541.32"/>
<polygon fill="#757575" stroke="#757575" points="2770,-543.14 2773.08,-533.01 2764.35,-539.01 2770,-543.14"/>
</g>
<!-- src/statements/locations/generateAuthorizationRequestUri.ts&#45;&gt;src/resources.ts -->
<g id="edge68" class="edge">
<title>src/statements/locations/generateAuthorizationRequestUri.ts&#45;&gt;src/resources.ts</title>
<path fill="none" stroke="#757575" d="M2673.7,-666.71C2679.33,-664.22 2684.78,-661.41 2690,-658.24 2734.31,-631.38 2761.53,-573.75 2773.62,-542.48"/>
<polygon fill="#757575" stroke="#757575" points="2776.95,-543.56 2777.15,-532.97 2770.39,-541.13 2776.95,-543.56"/>
</g>
<!-- src/statements/locations/generateAuthorizationRequestUri.ts&#45;&gt;src/constants.ts -->
<g id="edge67" class="edge">
<title>src/statements/locations/generateAuthorizationRequestUri.ts&#45;&gt;src/constants.ts</title>
<path fill="none" stroke="#757575" d="M2658.1,-689.77C2669.03,-692.37 2679.77,-695.5 2690,-699.24 2716.56,-708.95 2742.96,-727.96 2760.43,-742.19"/>
<polygon fill="#757575" stroke="#757575" points="2758.33,-745 2768.25,-748.73 2762.82,-739.63 2758.33,-745"/>
</g>
<!-- src/statements/locations/generateCredentialOffer.ts&#45;&gt;src/resources.ts -->
<g id="edge70" class="edge">
<title>src/statements/locations/generateCredentialOffer.ts&#45;&gt;src/resources.ts</title>
<path fill="none" stroke="#757575" d="M2662.9,-755.42C2672.53,-751.45 2681.67,-746.46 2690,-740.24 2754.94,-691.77 2773.81,-588.38 2779.07,-543.17"/>
<polygon fill="#757575" stroke="#757575" points="2782.58,-543.31 2780.13,-533 2775.61,-542.58 2782.58,-543.31"/>
</g>
<!-- src/statements/locations/generateCredentialOffer.ts&#45;&gt;src/errors.ts -->
<g id="edge69" class="edge">
<title>src/statements/locations/generateCredentialOffer.ts&#45;&gt;src/errors.ts</title>
<path fill="none" stroke="#757575" d="M2662.54,-765.68C2672.31,-769.75 2681.58,-774.86 2690,-781.24 2756.54,-831.68 2774.59,-938.85 2779.35,-984.7"/>
<polygon fill="#757575" stroke="#757575" points="2775.87,-985.09 2780.28,-994.72 2782.85,-984.44 2775.87,-985.09"/>
</g>
<!-- src/statements/resources/issuerClient.ts&#45;&gt;src/resources.ts -->
<g id="edge75" class="edge">
<title>src/statements/resources/issuerClient.ts&#45;&gt;src/resources.ts</title>
<path fill="none" stroke="#757575" d="M2628.7,-356.87C2650.29,-360.89 2671.63,-367.83 2690,-379.24 2735.37,-407.42 2762.28,-467.52 2774.01,-499.76"/>
<polygon fill="#757575" stroke="#757575" points="2770.82,-501.24 2777.41,-509.53 2777.43,-498.94 2770.82,-501.24"/>
</g>
<!-- src/statements/tokens/generateAccessToken.ts&#45;&gt;src/resources.ts -->
<g id="edge76" class="edge">
<title>src/statements/tokens/generateAccessToken.ts&#45;&gt;src/resources.ts</title>
<path fill="none" stroke="#757575" d="M2587.13,-492.8C2619.41,-497.2 2656.41,-502.35 2690,-507.24 2698.3,-508.45 2707.02,-509.75 2715.64,-511.06"/>
<polygon fill="#757575" stroke="#757575" points="2715.27,-514.54 2725.68,-512.59 2716.32,-507.62 2715.27,-514.54"/>
</g>
<!-- src/statements/tokens/generateAuthorizationCode.ts&#45;&gt;src/resources.ts -->
<g id="edge78" class="edge">
<title>src/statements/tokens/generateAuthorizationCode.ts&#45;&gt;src/resources.ts</title>
<path fill="none" stroke="#757575" d="M2665.59,-712.35C2674.17,-708.8 2682.38,-704.47 2690,-699.24 2744.42,-661.86 2768.21,-581.75 2776.84,-543.05"/>
<polygon fill="#757575" stroke="#757575" points="2780.35,-543.39 2778.97,-532.89 2773.5,-541.96 2780.35,-543.39"/>
</g>
<!-- src/statements/tokens/generateAuthorizationCode.ts&#45;&gt;src/errors.ts -->
<g id="edge77" class="edge">
<title>src/statements/tokens/generateAuthorizationCode.ts&#45;&gt;src/errors.ts</title>
<path fill="none" stroke="#757575" d="M2665.66,-725.37C2674.33,-729.35 2682.53,-734.25 2690,-740.24 2729.53,-771.94 2764.79,-927.18 2776.71,-984.73"/>
<polygon fill="#757575" stroke="#757575" points="2773.29,-985.48 2778.72,-994.58 2780.15,-984.08 2773.29,-985.48"/>
</g>
<!-- src/statements/tokens/generateCNonce.ts&#45;&gt;src/resources.ts -->
<g id="edge79" class="edge">
<title>src/statements/tokens/generateCNonce.ts&#45;&gt;src/resources.ts</title>
<path fill="none" stroke="#757575" d="M2634.74,-447.12C2653.62,-450.38 2672.53,-454.93 2690,-461.24 2716.31,-470.75 2742.57,-489.28 2760.07,-503.24"/>
<polygon fill="#757575" stroke="#757575" points="2757.97,-506.05 2767.92,-509.67 2762.41,-500.63 2757.97,-506.05"/>
</g>
<!-- src/statements/validations/validateAuthorizationCode.ts&#45;&gt;src/errors.ts -->
<g id="edge89" class="edge">
<title>src/statements/validations/validateAuthorizationCode.ts&#45;&gt;src/errors.ts</title>
<path fill="none" stroke="#757575" d="M2674.35,-1006.24C2693.62,-1006.24 2712,-1006.24 2727.9,-1006.24"/>
<polygon fill="#757575" stroke="#757575" points="2727.98,-1009.74 2737.98,-1006.24 2727.98,-1002.74 2727.98,-1009.74"/>
</g>
<!-- src/statements/validations/validateClientCredentials.ts&#45;&gt;src/resources.ts -->
<g id="edge91" class="edge">
<title>src/statements/validations/validateClientCredentials.ts&#45;&gt;src/resources.ts</title>
<path fill="none" stroke="#757575" d="M2670.36,-917.98C2677.37,-914.18 2683.98,-909.63 2690,-904.24 2745.6,-854.47 2708.91,-812.88 2726,-740.24 2743.07,-667.69 2765.12,-582.11 2775.34,-542.87"/>
<polygon fill="#757575" stroke="#757575" points="2778.76,-543.64 2777.89,-533.08 2771.98,-541.87 2778.76,-543.64"/>
</g>
<!-- src/statements/validations/validateClientCredentials.ts&#45;&gt;src/errors.ts -->
<g id="edge90" class="edge">
<title>src/statements/validations/validateClientCredentials.ts&#45;&gt;src/errors.ts</title>
<path fill="none" stroke="#757575" d="M2658.1,-935.77C2669.03,-938.37 2679.77,-941.5 2690,-945.24 2716.56,-954.95 2742.96,-973.96 2760.43,-988.19"/>
<polygon fill="#757575" stroke="#757575" points="2758.33,-991 2768.25,-994.73 2762.82,-985.63 2758.33,-991"/>
</g>
<!-- src/statements/validations/validateIssuerState.ts&#45;&gt;src/errors.ts -->
<g id="edge92" class="edge">
<title>src/statements/validations/validateIssuerState.ts&#45;&gt;src/errors.ts</title>
<path fill="none" stroke="#757575" d="M2622,-976.76C2644.65,-979.46 2668.09,-982.63 2690,-986.24 2702.22,-988.26 2715.27,-990.86 2727.56,-993.51"/>
<polygon fill="#757575" stroke="#757575" points="2727.15,-997 2737.67,-995.74 2728.66,-990.17 2727.15,-997"/>
</g>
<!-- src/statements/validations/validateRequestUri.ts&#45;&gt;src/resources.ts -->
<g id="edge95" class="edge">
<title>src/statements/validations/validateRequestUri.ts&#45;&gt;src/resources.ts</title>
<path fill="none" stroke="#757575" d="M2652.63,-842.69C2666.19,-838.01 2678.94,-831.39 2690,-822.24 2712.31,-803.77 2760.17,-609.07 2775.88,-543.02"/>
<polygon fill="#757575" stroke="#757575" points="2779.38,-543.44 2778.28,-532.9 2772.57,-541.83 2779.38,-543.44"/>
</g>
<!-- src/statements/validations/validateRequestUri.ts&#45;&gt;src/constants.ts -->
<g id="edge93" class="edge">
<title>src/statements/validations/validateRequestUri.ts&#45;&gt;src/constants.ts</title>
<path fill="none" stroke="#757575" d="M2652.64,-832.94C2665.46,-830.13 2678.07,-826.62 2690,-822.24 2716.68,-812.45 2743.06,-793.12 2760.5,-778.63"/>
<polygon fill="#757575" stroke="#757575" points="2762.96,-781.13 2768.3,-771.97 2758.42,-775.8 2762.96,-781.13"/>
</g>
<!-- src/statements/validations/validateRequestUri.ts&#45;&gt;src/errors.ts -->
<g id="edge94" class="edge">
<title>src/statements/validations/validateRequestUri.ts&#45;&gt;src/errors.ts</title>
<path fill="none" stroke="#757575" d="M2652.7,-846.65C2665.86,-850.68 2678.51,-856.08 2690,-863.24 2735.55,-891.63 2762.38,-952.15 2774.05,-984.61"/>
<polygon fill="#757575" stroke="#757575" points="2770.87,-986.13 2777.43,-994.45 2777.5,-983.86 2770.87,-986.13"/>
</g>
<!-- src/statements/validations/validateResourceOwner.ts&#45;&gt;src/resources.ts -->
<g id="edge97" class="edge">
<title>src/statements/validations/validateResourceOwner.ts&#45;&gt;src/resources.ts</title>
<path fill="none" stroke="#757575" d="M2667.89,-877.77C2675.79,-873.83 2683.23,-869.04 2690,-863.24 2696.31,-857.84 2756.97,-617.21 2775.59,-542.88"/>
<polygon fill="#757575" stroke="#757575" points="2779.08,-543.35 2778.11,-532.8 2772.29,-541.65 2779.08,-543.35"/>
</g>
<!-- src/statements/validations/validateResourceOwner.ts&#45;&gt;src/errors.ts -->
<g id="edge96" class="edge">
<title>src/statements/validations/validateResourceOwner.ts&#45;&gt;src/errors.ts</title>
<path fill="none" stroke="#757575" d="M2667.51,-894.6C2675.27,-897.34 2682.81,-900.53 2690,-904.24 2725.93,-922.79 2754.34,-961.83 2769.33,-985.87"/>
<polygon fill="#757575" stroke="#757575" points="2766.41,-987.81 2774.57,-994.57 2772.41,-984.2 2766.41,-987.81"/>
</g>
<!-- src/statements/validations/validateScope.ts&#45;&gt;src/resources.ts -->
<g id="edge99" class="edge">
<title>src/statements/validations/validateScope.ts&#45;&gt;src/resources.ts</title>
<path fill="none" stroke="#757575" d="M2637.88,-805.29C2656.78,-800.78 2674.87,-793.22 2690,-781.24 2728.75,-750.55 2764.26,-599.89 2776.49,-543.03"/>
<polygon fill="#757575" stroke="#757575" points="2779.97,-543.47 2778.62,-532.97 2773.12,-542.02 2779.97,-543.47"/>
</g>
<!-- src/statements/validations/validateScope.ts&#45;&gt;src/errors.ts -->
<g id="edge98" class="edge">
<title>src/statements/validations/validateScope.ts&#45;&gt;src/errors.ts</title>
<path fill="none" stroke="#757575" d="M2637.63,-799.89C2656.35,-804.29 2674.45,-811.35 2690,-822.24 2746.03,-861.49 2769.2,-945.33 2777.28,-984.82"/>
<polygon fill="#757575" stroke="#757575" points="2773.86,-985.55 2779.18,-994.71 2780.73,-984.23 2773.86,-985.55"/>
</g>
</g>
</svg>
