<?xml version="1.0" encoding="UTF-8" standalone="no"?>
<!DOCTYPE svg PUBLIC "-//W3C//DTD SVG 1.1//EN"
 "http://www.w3.org/Graphics/SVG/1.1/DTD/svg11.dtd">
<!-- Generated by graphviz version 2.43.0 (0)
 -->
<!-- Title: G Pages: 1 -->
<svg width="1798pt" height="560pt"
 viewBox="0.00 0.00 1798.20 560.21" xmlns="http://www.w3.org/2000/svg" xmlns:xlink="http://www.w3.org/1999/xlink">
<g id="graph0" class="graph" transform="scale(1 1) rotate(0) translate(21.6 538.61)">
<title>G</title>
<polygon fill="#111111" stroke="transparent" points="-21.6,21.6 -21.6,-538.61 1776.6,-538.61 1776.6,21.6 -21.6,21.6"/>
<!-- app.ts -->
<g id="node1" class="node">
<title>app.ts</title>
<path fill="none" stroke="#c6c5fe" d="M46.33,-401.01C46.33,-401.01 7.67,-401.01 7.67,-401.01 3.83,-401.01 0,-397.18 0,-393.35 0,-393.35 0,-385.68 0,-385.68 0,-381.85 3.83,-378.01 7.67,-378.01 7.67,-378.01 46.33,-378.01 46.33,-378.01 50.17,-378.01 54,-381.85 54,-385.68 54,-385.68 54,-393.35 54,-393.35 54,-397.18 50.17,-401.01 46.33,-401.01"/>
<text text-anchor="middle" x="27" y="-385.81" font-family="Arial" font-size="14.00" fill="#c6c5fe">app.ts</text>
</g>
<!-- src/index.ts -->
<g id="node2" class="node">
<title>src/index.ts</title>
<path fill="none" stroke="#c6c5fe" d="M167.33,-401.01C167.33,-401.01 97.67,-401.01 97.67,-401.01 93.83,-401.01 90,-397.18 90,-393.35 90,-393.35 90,-385.68 90,-385.68 90,-381.85 93.83,-378.01 97.67,-378.01 97.67,-378.01 167.33,-378.01 167.33,-378.01 171.17,-378.01 175,-381.85 175,-385.68 175,-385.68 175,-393.35 175,-393.35 175,-397.18 171.17,-401.01 167.33,-401.01"/>
<text text-anchor="middle" x="132.5" y="-385.81" font-family="Arial" font-size="14.00" fill="#c6c5fe">src/index.ts</text>
</g>
<!-- app.ts&#45;&gt;src/index.ts -->
<g id="edge1" class="edge">
<title>app.ts&#45;&gt;src/index.ts</title>
<path fill="none" stroke="#757575" d="M54.12,-389.51C61.87,-389.51 70.64,-389.51 79.42,-389.51"/>
<polygon fill="#757575" stroke="#757575" points="79.68,-393.01 89.68,-389.51 79.68,-386.01 79.68,-393.01"/>
</g>
<!-- src/core.ts -->
<g id="node5" class="node">
<title>src/core.ts</title>
<path fill="none" stroke="#c6c5fe" d="M282.33,-421.01C282.33,-421.01 218.67,-421.01 218.67,-421.01 214.83,-421.01 211,-417.18 211,-413.35 211,-413.35 211,-405.68 211,-405.68 211,-401.85 214.83,-398.01 218.67,-398.01 218.67,-398.01 282.33,-398.01 282.33,-398.01 286.17,-398.01 290,-401.85 290,-405.68 290,-405.68 290,-413.35 290,-413.35 290,-417.18 286.17,-421.01 282.33,-421.01"/>
<text text-anchor="middle" x="250.5" y="-405.81" font-family="Arial" font-size="14.00" fill="#c6c5fe">src/core.ts</text>
</g>
<!-- src/index.ts&#45;&gt;src/core.ts -->
<g id="edge23" class="edge">
<title>src/index.ts&#45;&gt;src/core.ts</title>
<path fill="none" stroke="#757575" d="M175.05,-396.68C183.46,-398.13 192.38,-399.66 201,-401.15"/>
<polygon fill="#757575" stroke="#757575" points="200.5,-404.62 210.95,-402.87 201.69,-397.72 200.5,-404.62"/>
</g>
<!-- src/handlers/index.ts -->
<g id="node6" class="node">
<title>src/handlers/index.ts</title>
<path fill="none" stroke="#c6c5fe" d="M458.33,-381.01C458.33,-381.01 333.67,-381.01 333.67,-381.01 329.83,-381.01 326,-377.18 326,-373.35 326,-373.35 326,-365.68 326,-365.68 326,-361.85 329.83,-358.01 333.67,-358.01 333.67,-358.01 458.33,-358.01 458.33,-358.01 462.17,-358.01 466,-361.85 466,-365.68 466,-365.68 466,-373.35 466,-373.35 466,-377.18 462.17,-381.01 458.33,-381.01"/>
<text text-anchor="middle" x="396" y="-365.81" font-family="Arial" font-size="14.00" fill="#c6c5fe">src/handlers/index.ts</text>
</g>
<!-- src/index.ts&#45;&gt;src/handlers/index.ts -->
<g id="edge24" class="edge">
<title>src/index.ts&#45;&gt;src/handlers/index.ts</title>
<path fill="none" stroke="#757575" d="M175.22,-386.32C212.97,-383.43 269.58,-379.11 315.89,-375.56"/>
<polygon fill="#757575" stroke="#757575" points="316.2,-379.05 325.9,-374.8 315.66,-372.07 316.2,-379.05"/>
</g>
<!-- src/config.ts -->
<g id="node3" class="node">
<title>src/config.ts</title>
<path fill="none" stroke="#c6c5fe" d="M1111.33,-396.01C1111.33,-396.01 1037.67,-396.01 1037.67,-396.01 1033.83,-396.01 1030,-392.18 1030,-388.35 1030,-388.35 1030,-380.68 1030,-380.68 1030,-376.85 1033.83,-373.01 1037.67,-373.01 1037.67,-373.01 1111.33,-373.01 1111.33,-373.01 1115.17,-373.01 1119,-376.85 1119,-380.68 1119,-380.68 1119,-388.35 1119,-388.35 1119,-392.18 1115.17,-396.01 1111.33,-396.01"/>
<text text-anchor="middle" x="1074.5" y="-380.81" font-family="Arial" font-size="14.00" fill="#c6c5fe">src/config.ts</text>
</g>
<!-- src/resources.ts -->
<g id="node4" class="node">
<title>src/resources.ts</title>
<path fill="none" stroke="#cfffac" d="M1747.33,-317.01C1747.33,-317.01 1650.67,-317.01 1650.67,-317.01 1646.83,-317.01 1643,-313.18 1643,-309.35 1643,-309.35 1643,-301.68 1643,-301.68 1643,-297.85 1646.83,-294.01 1650.67,-294.01 1650.67,-294.01 1747.33,-294.01 1747.33,-294.01 1751.17,-294.01 1755,-297.85 1755,-301.68 1755,-301.68 1755,-309.35 1755,-309.35 1755,-313.18 1751.17,-317.01 1747.33,-317.01"/>
<text text-anchor="middle" x="1699" y="-301.81" font-family="Arial" font-size="14.00" fill="#cfffac">src/resources.ts</text>
</g>
<!-- src/config.ts&#45;&gt;src/resources.ts -->
<g id="edge2" class="edge">
<title>src/config.ts&#45;&gt;src/resources.ts</title>
<path fill="none" stroke="#757575" d="M1119.39,-387.92C1230.05,-395.9 1517.99,-412.84 1607,-380.51 1637.54,-369.42 1665.18,-343.26 1681.79,-324.97"/>
<polygon fill="#757575" stroke="#757575" points="1684.64,-327.03 1688.61,-317.21 1679.38,-322.41 1684.64,-327.03"/>
</g>
<!-- src/core.ts&#45;&gt;src/config.ts -->
<g id="edge3" class="edge">
<title>src/core.ts&#45;&gt;src/config.ts</title>
<path fill="none" stroke="#757575" d="M290.04,-408.34C423.39,-404.29 865.36,-390.84 1019.72,-386.15"/>
<polygon fill="#757575" stroke="#757575" points="1020.01,-389.64 1029.9,-385.84 1019.8,-382.64 1020.01,-389.64"/>
</g>
<!-- src/core.ts&#45;&gt;src/handlers/index.ts -->
<g id="edge4" class="edge">
<title>src/core.ts&#45;&gt;src/handlers/index.ts</title>
<path fill="none" stroke="#757575" d="M290.33,-398.69C306.71,-394.12 326,-388.75 343.54,-383.86"/>
<polygon fill="#757575" stroke="#757575" points="344.93,-387.1 353.62,-381.05 343.05,-380.36 344.93,-387.1"/>
</g>
<!-- src/handlers/credentialOffer.handler.ts -->
<g id="node8" class="node">
<title>src/handlers/credentialOffer.handler.ts</title>
<path fill="none" stroke="#c6c5fe" d="M770.83,-321.01C770.83,-321.01 541.17,-321.01 541.17,-321.01 537.33,-321.01 533.5,-317.18 533.5,-313.35 533.5,-313.35 533.5,-305.68 533.5,-305.68 533.5,-301.85 537.33,-298.01 541.17,-298.01 541.17,-298.01 770.83,-298.01 770.83,-298.01 774.67,-298.01 778.5,-301.85 778.5,-305.68 778.5,-305.68 778.5,-313.35 778.5,-313.35 778.5,-317.18 774.67,-321.01 770.83,-321.01"/>
<text text-anchor="middle" x="656" y="-305.81" font-family="Arial" font-size="14.00" fill="#c6c5fe">src/handlers/credentialOffer.handler.ts</text>
</g>
<!-- src/handlers/index.ts&#45;&gt;src/handlers/credentialOffer.handler.ts -->
<g id="edge10" class="edge">
<title>src/handlers/index.ts&#45;&gt;src/handlers/credentialOffer.handler.ts</title>
<path fill="none" stroke="#757575" d="M446.74,-357.94C489.22,-348.07 550.41,-333.84 595.47,-323.36"/>
<polygon fill="#757575" stroke="#757575" points="596.46,-326.72 605.41,-321.05 594.87,-319.9 596.46,-326.72"/>
</g>
<!-- src/handlers/oauthAuthorizationServer.handler.ts -->
<g id="node11" class="node">
<title>src/handlers/oauthAuthorizationServer.handler.ts</title>
<path fill="none" stroke="#c6c5fe" d="M802.33,-381.01C802.33,-381.01 509.67,-381.01 509.67,-381.01 505.83,-381.01 502,-377.18 502,-373.35 502,-373.35 502,-365.68 502,-365.68 502,-361.85 505.83,-358.01 509.67,-358.01 509.67,-358.01 802.33,-358.01 802.33,-358.01 806.17,-358.01 810,-361.85 810,-365.68 810,-365.68 810,-373.35 810,-373.35 810,-377.18 806.17,-381.01 802.33,-381.01"/>
<text text-anchor="middle" x="656" y="-365.81" font-family="Arial" font-size="14.00" fill="#c6c5fe">src/handlers/oauthAuthorizationServer.handler.ts</text>
</g>
<!-- src/handlers/index.ts&#45;&gt;src/handlers/oauthAuthorizationServer.handler.ts -->
<g id="edge11" class="edge">
<title>src/handlers/index.ts&#45;&gt;src/handlers/oauthAuthorizationServer.handler.ts</title>
<path fill="none" stroke="#757575" d="M466.14,-369.51C474.19,-369.51 482.63,-369.51 491.3,-369.51"/>
<polygon fill="#757575" stroke="#757575" points="491.58,-373.01 501.58,-369.51 491.58,-366.01 491.58,-373.01"/>
</g>
<!-- src/handlers/openidCredentialIssuer.handler.ts -->
<g id="node12" class="node">
<title>src/handlers/openidCredentialIssuer.handler.ts</title>
<path fill="none" stroke="#c6c5fe" d="M795.33,-471.01C795.33,-471.01 516.67,-471.01 516.67,-471.01 512.83,-471.01 509,-467.18 509,-463.35 509,-463.35 509,-455.68 509,-455.68 509,-451.85 512.83,-448.01 516.67,-448.01 516.67,-448.01 795.33,-448.01 795.33,-448.01 799.17,-448.01 803,-451.85 803,-455.68 803,-455.68 803,-463.35 803,-463.35 803,-467.18 799.17,-471.01 795.33,-471.01"/>
<text text-anchor="middle" x="656" y="-455.81" font-family="Arial" font-size="14.00" fill="#c6c5fe">src/handlers/openidCredentialIssuer.handler.ts</text>
</g>
<!-- src/handlers/index.ts&#45;&gt;src/handlers/openidCredentialIssuer.handler.ts -->
<g id="edge12" class="edge">
<title>src/handlers/index.ts&#45;&gt;src/handlers/openidCredentialIssuer.handler.ts</title>
<path fill="none" stroke="#757575" d="M430.2,-381.09C476.64,-397.3 561.04,-426.74 612.17,-444.57"/>
<polygon fill="#757575" stroke="#757575" points="611.33,-447.99 621.93,-447.98 613.64,-441.38 611.33,-447.99"/>
</g>
<!-- src/handlers/token.handler.ts -->
<g id="node13" class="node">
<title>src/handlers/token.handler.ts</title>
<path fill="none" stroke="#c6c5fe" d="M742.83,-256.01C742.83,-256.01 569.17,-256.01 569.17,-256.01 565.33,-256.01 561.5,-252.18 561.5,-248.35 561.5,-248.35 561.5,-240.68 561.5,-240.68 561.5,-236.85 565.33,-233.01 569.17,-233.01 569.17,-233.01 742.83,-233.01 742.83,-233.01 746.67,-233.01 750.5,-236.85 750.5,-240.68 750.5,-240.68 750.5,-248.35 750.5,-248.35 750.5,-252.18 746.67,-256.01 742.83,-256.01"/>
<text text-anchor="middle" x="656" y="-240.81" font-family="Arial" font-size="14.00" fill="#c6c5fe">src/handlers/token.handler.ts</text>
</g>
<!-- src/handlers/index.ts&#45;&gt;src/handlers/token.handler.ts -->
<g id="edge13" class="edge">
<title>src/handlers/index.ts&#45;&gt;src/handlers/token.handler.ts</title>
<path fill="none" stroke="#757575" d="M408.88,-357.86C427.32,-340.39 464.61,-307.44 502,-288.51 528.14,-275.28 558.86,-265.47 585.88,-258.5"/>
<polygon fill="#757575" stroke="#757575" points="586.8,-261.88 595.66,-256.07 585.11,-255.09 586.8,-261.88"/>
</g>
<!-- src/errors.ts -->
<g id="node7" class="node">
<title>src/errors.ts</title>
<path fill="none" stroke="#cfffac" d="M1735.33,-174.01C1735.33,-174.01 1662.67,-174.01 1662.67,-174.01 1658.83,-174.01 1655,-170.18 1655,-166.35 1655,-166.35 1655,-158.68 1655,-158.68 1655,-154.85 1658.83,-151.01 1662.67,-151.01 1662.67,-151.01 1735.33,-151.01 1735.33,-151.01 1739.17,-151.01 1743,-154.85 1743,-158.68 1743,-158.68 1743,-166.35 1743,-166.35 1743,-170.18 1739.17,-174.01 1735.33,-174.01"/>
<text text-anchor="middle" x="1699" y="-158.81" font-family="Arial" font-size="14.00" fill="#cfffac">src/errors.ts</text>
</g>
<!-- src/handlers/credentialOffer.handler.ts&#45;&gt;src/config.ts -->
<g id="edge5" class="edge">
<title>src/handlers/credentialOffer.handler.ts&#45;&gt;src/config.ts</title>
<path fill="none" stroke="#757575" d="M703.26,-321.03C733.65,-328.66 774.24,-338.99 810,-348.51 826.05,-352.79 829.7,-355.34 846,-358.51 904.77,-369.96 973.13,-376.94 1019.46,-380.74"/>
<polygon fill="#757575" stroke="#757575" points="1019.33,-384.24 1029.57,-381.55 1019.89,-377.26 1019.33,-384.24"/>
</g>
<!-- src/handlers/credentialOffer.handler.ts&#45;&gt;src/resources.ts -->
<g id="edge8" class="edge">
<title>src/handlers/credentialOffer.handler.ts&#45;&gt;src/resources.ts</title>
<path fill="none" stroke="#757575" d="M778.71,-319.8C801.08,-321.51 824.24,-323.16 846,-324.51 1014.86,-334.98 1441.59,-382.05 1607,-346.51 1629.01,-341.78 1652.12,-331.29 1669.55,-322.11"/>
<polygon fill="#757575" stroke="#757575" points="1671.49,-325.04 1678.6,-317.18 1668.14,-318.89 1671.49,-325.04"/>
</g>
<!-- src/handlers/credentialOffer.handler.ts&#45;&gt;src/errors.ts -->
<g id="edge6" class="edge">
<title>src/handlers/credentialOffer.handler.ts&#45;&gt;src/errors.ts</title>
<path fill="none" stroke="#757575" d="M725.63,-298.01C753.34,-291.22 784.68,-280.68 810,-264.51 830.44,-251.46 825.29,-236.13 846,-223.51 1038.83,-105.98 1114.86,-128.05 1339,-100.51 1457.22,-85.99 1493.18,-65.42 1607,-100.51 1634.47,-108.98 1661.07,-128.9 1678.34,-143.89"/>
<polygon fill="#757575" stroke="#757575" points="1676.25,-146.71 1686.04,-150.78 1680.92,-141.5 1676.25,-146.71"/>
</g>
<!-- src/handlers/schemas/credentialOfferHandlerConfig.schema.ts -->
<g id="node9" class="node">
<title>src/handlers/schemas/credentialOfferHandlerConfig.schema.ts</title>
<path fill="none" stroke="#cfffac" d="M1263.83,-316.01C1263.83,-316.01 885.17,-316.01 885.17,-316.01 881.33,-316.01 877.5,-312.18 877.5,-308.35 877.5,-308.35 877.5,-300.68 877.5,-300.68 877.5,-296.85 881.33,-293.01 885.17,-293.01 885.17,-293.01 1263.83,-293.01 1263.83,-293.01 1267.67,-293.01 1271.5,-296.85 1271.5,-300.68 1271.5,-300.68 1271.5,-308.35 1271.5,-308.35 1271.5,-312.18 1267.67,-316.01 1263.83,-316.01"/>
<text text-anchor="middle" x="1074.5" y="-300.81" font-family="Arial" font-size="14.00" fill="#cfffac">src/handlers/schemas/credentialOfferHandlerConfig.schema.ts</text>
</g>
<!-- src/handlers/credentialOffer.handler.ts&#45;&gt;src/handlers/schemas/credentialOfferHandlerConfig.schema.ts -->
<g id="edge7" class="edge">
<title>src/handlers/credentialOffer.handler.ts&#45;&gt;src/handlers/schemas/credentialOfferHandlerConfig.schema.ts</title>
<path fill="none" stroke="#757575" d="M778.59,-308.05C806.42,-307.72 836.76,-307.35 867.05,-306.99"/>
<polygon fill="#757575" stroke="#757575" points="867.36,-310.49 877.32,-306.87 867.27,-303.49 867.36,-310.49"/>
</g>
<!-- src/statements/index.ts -->
<g id="node10" class="node">
<title>src/statements/index.ts</title>
<path fill="none" stroke="#c6c5fe" d="M1144.33,-256.01C1144.33,-256.01 1004.67,-256.01 1004.67,-256.01 1000.83,-256.01 997,-252.18 997,-248.35 997,-248.35 997,-240.68 997,-240.68 997,-236.85 1000.83,-233.01 1004.67,-233.01 1004.67,-233.01 1144.33,-233.01 1144.33,-233.01 1148.17,-233.01 1152,-236.85 1152,-240.68 1152,-240.68 1152,-248.35 1152,-248.35 1152,-252.18 1148.17,-256.01 1144.33,-256.01"/>
<text text-anchor="middle" x="1074.5" y="-240.81" font-family="Arial" font-size="14.00" fill="#c6c5fe">src/statements/index.ts</text>
</g>
<!-- src/handlers/credentialOffer.handler.ts&#45;&gt;src/statements/index.ts -->
<g id="edge9" class="edge">
<title>src/handlers/credentialOffer.handler.ts&#45;&gt;src/statements/index.ts</title>
<path fill="none" stroke="#757575" d="M730.98,-297.97C803.47,-286.65 913.78,-269.44 989.52,-257.62"/>
<polygon fill="#757575" stroke="#757575" points="990.17,-261.06 999.51,-256.06 989.09,-254.14 990.17,-261.06"/>
</g>
<!-- src/statements/checkClientCredentials.ts -->
<g id="node17" class="node">
<title>src/statements/checkClientCredentials.ts</title>
<path fill="none" stroke="#c6c5fe" d="M1595.83,-256.01C1595.83,-256.01 1350.17,-256.01 1350.17,-256.01 1346.33,-256.01 1342.5,-252.18 1342.5,-248.35 1342.5,-248.35 1342.5,-240.68 1342.5,-240.68 1342.5,-236.85 1346.33,-233.01 1350.17,-233.01 1350.17,-233.01 1595.83,-233.01 1595.83,-233.01 1599.67,-233.01 1603.5,-236.85 1603.5,-240.68 1603.5,-240.68 1603.5,-248.35 1603.5,-248.35 1603.5,-252.18 1599.67,-256.01 1595.83,-256.01"/>
<text text-anchor="middle" x="1473" y="-240.81" font-family="Arial" font-size="14.00" fill="#c6c5fe">src/statements/checkClientCredentials.ts</text>
</g>
<!-- src/statements/index.ts&#45;&gt;src/statements/checkClientCredentials.ts -->
<g id="edge32" class="edge">
<title>src/statements/index.ts&#45;&gt;src/statements/checkClientCredentials.ts</title>
<path fill="none" stroke="#757575" d="M1152.42,-244.51C1203.4,-244.51 1271.79,-244.51 1332.21,-244.51"/>
<polygon fill="#757575" stroke="#757575" points="1332.22,-248.01 1342.22,-244.51 1332.22,-241.01 1332.22,-248.01"/>
</g>
<!-- src/statements/checkScope.ts -->
<g id="node18" class="node">
<title>src/statements/checkScope.ts</title>
<path fill="none" stroke="#c6c5fe" d="M1563.83,-174.01C1563.83,-174.01 1382.17,-174.01 1382.17,-174.01 1378.33,-174.01 1374.5,-170.18 1374.5,-166.35 1374.5,-166.35 1374.5,-158.68 1374.5,-158.68 1374.5,-154.85 1378.33,-151.01 1382.17,-151.01 1382.17,-151.01 1563.83,-151.01 1563.83,-151.01 1567.67,-151.01 1571.5,-154.85 1571.5,-158.68 1571.5,-158.68 1571.5,-166.35 1571.5,-166.35 1571.5,-170.18 1567.67,-174.01 1563.83,-174.01"/>
<text text-anchor="middle" x="1473" y="-158.81" font-family="Arial" font-size="14.00" fill="#c6c5fe">src/statements/checkScope.ts</text>
</g>
<!-- src/statements/index.ts&#45;&gt;src/statements/checkScope.ts -->
<g id="edge33" class="edge">
<title>src/statements/index.ts&#45;&gt;src/statements/checkScope.ts</title>
<path fill="none" stroke="#757575" d="M1119.55,-232.98C1171.69,-219.61 1261.24,-197.48 1339,-182.51 1351.61,-180.09 1364.93,-177.78 1378.09,-175.65"/>
<polygon fill="#757575" stroke="#757575" points="1378.78,-179.09 1388.1,-174.06 1377.68,-172.17 1378.78,-179.09"/>
</g>
<!-- src/statements/generateAccessToken.ts -->
<g id="node19" class="node">
<title>src/statements/generateAccessToken.ts</title>
<path fill="none" stroke="#c6c5fe" d="M1593.33,-297.01C1593.33,-297.01 1352.67,-297.01 1352.67,-297.01 1348.83,-297.01 1345,-293.18 1345,-289.35 1345,-289.35 1345,-281.68 1345,-281.68 1345,-277.85 1348.83,-274.01 1352.67,-274.01 1352.67,-274.01 1593.33,-274.01 1593.33,-274.01 1597.17,-274.01 1601,-277.85 1601,-281.68 1601,-281.68 1601,-289.35 1601,-289.35 1601,-293.18 1597.17,-297.01 1593.33,-297.01"/>
<text text-anchor="middle" x="1473" y="-281.81" font-family="Arial" font-size="14.00" fill="#c6c5fe">src/statements/generateAccessToken.ts</text>
</g>
<!-- src/statements/index.ts&#45;&gt;src/statements/generateAccessToken.ts -->
<g id="edge34" class="edge">
<title>src/statements/index.ts&#45;&gt;src/statements/generateAccessToken.ts</title>
<path fill="none" stroke="#757575" d="M1152.42,-252.47C1208.53,-258.27 1285.72,-266.25 1350.18,-272.92"/>
<polygon fill="#757575" stroke="#757575" points="1350.1,-276.43 1360.41,-273.97 1350.82,-269.46 1350.1,-276.43"/>
</g>
<!-- src/statements/generateCredentialOffer.ts -->
<g id="node20" class="node">
<title>src/statements/generateCredentialOffer.ts</title>
<path fill="none" stroke="#c6c5fe" d="M1599.33,-215.01C1599.33,-215.01 1346.67,-215.01 1346.67,-215.01 1342.83,-215.01 1339,-211.18 1339,-207.35 1339,-207.35 1339,-199.68 1339,-199.68 1339,-195.85 1342.83,-192.01 1346.67,-192.01 1346.67,-192.01 1599.33,-192.01 1599.33,-192.01 1603.17,-192.01 1607,-195.85 1607,-199.68 1607,-199.68 1607,-207.35 1607,-207.35 1607,-211.18 1603.17,-215.01 1599.33,-215.01"/>
<text text-anchor="middle" x="1473" y="-199.81" font-family="Arial" font-size="14.00" fill="#c6c5fe">src/statements/generateCredentialOffer.ts</text>
</g>
<!-- src/statements/index.ts&#45;&gt;src/statements/generateCredentialOffer.ts -->
<g id="edge35" class="edge">
<title>src/statements/index.ts&#45;&gt;src/statements/generateCredentialOffer.ts</title>
<path fill="none" stroke="#757575" d="M1152.42,-236.56C1208.53,-230.76 1285.72,-222.78 1350.18,-216.11"/>
<polygon fill="#757575" stroke="#757575" points="1350.82,-219.56 1360.41,-215.05 1350.1,-212.6 1350.82,-219.56"/>
</g>
<!-- src/statements/generateIssuerGrants.ts -->
<g id="node21" class="node">
<title>src/statements/generateIssuerGrants.ts</title>
<path fill="none" stroke="#cfffac" d="M1592.33,-133.01C1592.33,-133.01 1353.67,-133.01 1353.67,-133.01 1349.83,-133.01 1346,-129.18 1346,-125.35 1346,-125.35 1346,-117.68 1346,-117.68 1346,-113.85 1349.83,-110.01 1353.67,-110.01 1353.67,-110.01 1592.33,-110.01 1592.33,-110.01 1596.17,-110.01 1600,-113.85 1600,-117.68 1600,-117.68 1600,-125.35 1600,-125.35 1600,-129.18 1596.17,-133.01 1592.33,-133.01"/>
<text text-anchor="middle" x="1473" y="-117.81" font-family="Arial" font-size="14.00" fill="#cfffac">src/statements/generateIssuerGrants.ts</text>
</g>
<!-- src/statements/index.ts&#45;&gt;src/statements/generateIssuerGrants.ts -->
<g id="edge36" class="edge">
<title>src/statements/index.ts&#45;&gt;src/statements/generateIssuerGrants.ts</title>
<path fill="none" stroke="#757575" d="M1099.59,-232.98C1145.22,-211.62 1247.89,-165.84 1339,-141.51 1348.13,-139.08 1357.69,-136.91 1367.32,-134.99"/>
<polygon fill="#757575" stroke="#757575" points="1368.2,-138.39 1377.37,-133.08 1366.89,-131.51 1368.2,-138.39"/>
</g>
<!-- src/statements/issuerClient.ts -->
<g id="node22" class="node">
<title>src/statements/issuerClient.ts</title>
<path fill="none" stroke="#c6c5fe" d="M1562.33,-338.01C1562.33,-338.01 1383.67,-338.01 1383.67,-338.01 1379.83,-338.01 1376,-334.18 1376,-330.35 1376,-330.35 1376,-322.68 1376,-322.68 1376,-318.85 1379.83,-315.01 1383.67,-315.01 1383.67,-315.01 1562.33,-315.01 1562.33,-315.01 1566.17,-315.01 1570,-318.85 1570,-322.68 1570,-322.68 1570,-330.35 1570,-330.35 1570,-334.18 1566.17,-338.01 1562.33,-338.01"/>
<text text-anchor="middle" x="1473" y="-322.81" font-family="Arial" font-size="14.00" fill="#c6c5fe">src/statements/issuerClient.ts</text>
</g>
<!-- src/statements/index.ts&#45;&gt;src/statements/issuerClient.ts -->
<g id="edge37" class="edge">
<title>src/statements/index.ts&#45;&gt;src/statements/issuerClient.ts</title>
<path fill="none" stroke="#757575" d="M1152.19,-250.37C1197.22,-255.58 1254.6,-265.34 1303,-283.51 1320.55,-290.1 1321.4,-299.04 1339,-305.51 1347.54,-308.65 1356.56,-311.33 1365.71,-313.6"/>
<polygon fill="#757575" stroke="#757575" points="1365.14,-317.06 1375.68,-315.91 1366.72,-310.24 1365.14,-317.06"/>
</g>
<!-- src/handlers/oauthAuthorizationServer.handler.ts&#45;&gt;src/config.ts -->
<g id="edge14" class="edge">
<title>src/handlers/oauthAuthorizationServer.handler.ts&#45;&gt;src/config.ts</title>
<path fill="none" stroke="#757575" d="M810.02,-375.02C883.34,-377.66 966.5,-380.66 1019.43,-382.57"/>
<polygon fill="#757575" stroke="#757575" points="1019.49,-386.07 1029.61,-382.93 1019.74,-379.07 1019.49,-386.07"/>
</g>
<!-- src/handlers/schemas/oauthAuthorizationServerHandlerConfig.schema.ts -->
<g id="node14" class="node">
<title>src/handlers/schemas/oauthAuthorizationServerHandlerConfig.schema.ts</title>
<path fill="none" stroke="#cfffac" d="M1295.33,-437.01C1295.33,-437.01 853.67,-437.01 853.67,-437.01 849.83,-437.01 846,-433.18 846,-429.35 846,-429.35 846,-421.68 846,-421.68 846,-417.85 849.83,-414.01 853.67,-414.01 853.67,-414.01 1295.33,-414.01 1295.33,-414.01 1299.17,-414.01 1303,-417.85 1303,-421.68 1303,-421.68 1303,-429.35 1303,-429.35 1303,-433.18 1299.17,-437.01 1295.33,-437.01"/>
<text text-anchor="middle" x="1074.5" y="-421.81" font-family="Arial" font-size="14.00" fill="#cfffac">src/handlers/schemas/oauthAuthorizationServerHandlerConfig.schema.ts</text>
</g>
<!-- src/handlers/oauthAuthorizationServer.handler.ts&#45;&gt;src/handlers/schemas/oauthAuthorizationServerHandlerConfig.schema.ts -->
<g id="edge15" class="edge">
<title>src/handlers/oauthAuthorizationServer.handler.ts&#45;&gt;src/handlers/schemas/oauthAuthorizationServerHandlerConfig.schema.ts</title>
<path fill="none" stroke="#757575" d="M711.78,-381.02C749.4,-388.59 800.55,-398.22 846,-404.51 868.95,-407.69 893.27,-410.51 917.14,-412.97"/>
<polygon fill="#757575" stroke="#757575" points="917.03,-416.48 927.33,-414 917.74,-409.51 917.03,-416.48"/>
</g>
<!-- src/handlers/openidCredentialIssuer.handler.ts&#45;&gt;src/config.ts -->
<g id="edge16" class="edge">
<title>src/handlers/openidCredentialIssuer.handler.ts&#45;&gt;src/config.ts</title>
<path fill="none" stroke="#757575" d="M722.48,-447.93C749.98,-442.09 782.02,-433.99 810,-423.51 826.94,-417.17 828.65,-409.63 846,-404.51 903.63,-387.52 972.75,-383.64 1019.56,-383.3"/>
<polygon fill="#757575" stroke="#757575" points="1019.79,-386.8 1029.79,-383.28 1019.78,-379.8 1019.79,-386.8"/>
</g>
<!-- src/handlers/openidCredentialIssuer.handler.ts&#45;&gt;src/resources.ts -->
<g id="edge18" class="edge">
<title>src/handlers/openidCredentialIssuer.handler.ts&#45;&gt;src/resources.ts</title>
<path fill="none" stroke="#757575" d="M803.04,-465.48C1034.02,-472.55 1471.35,-475.55 1607,-404.51 1641.9,-386.24 1670.33,-349.04 1685.66,-325.8"/>
<polygon fill="#757575" stroke="#757575" points="1688.79,-327.39 1691.23,-317.08 1682.89,-323.63 1688.79,-327.39"/>
</g>
<!-- src/handlers/schemas/openidCredentialIssuerHandlerConfig.schema.ts -->
<g id="node15" class="node">
<title>src/handlers/schemas/openidCredentialIssuerHandlerConfig.schema.ts</title>
<path fill="none" stroke="#cfffac" d="M1288.33,-517.01C1288.33,-517.01 860.67,-517.01 860.67,-517.01 856.83,-517.01 853,-513.18 853,-509.35 853,-509.35 853,-501.68 853,-501.68 853,-497.85 856.83,-494.01 860.67,-494.01 860.67,-494.01 1288.33,-494.01 1288.33,-494.01 1292.17,-494.01 1296,-497.85 1296,-501.68 1296,-501.68 1296,-509.35 1296,-509.35 1296,-513.18 1292.17,-517.01 1288.33,-517.01"/>
<text text-anchor="middle" x="1074.5" y="-501.81" font-family="Arial" font-size="14.00" fill="#cfffac">src/handlers/schemas/openidCredentialIssuerHandlerConfig.schema.ts</text>
</g>
<!-- src/handlers/openidCredentialIssuer.handler.ts&#45;&gt;src/handlers/schemas/openidCredentialIssuerHandlerConfig.schema.ts -->
<g id="edge17" class="edge">
<title>src/handlers/openidCredentialIssuer.handler.ts&#45;&gt;src/handlers/schemas/openidCredentialIssuerHandlerConfig.schema.ts</title>
<path fill="none" stroke="#757575" d="M761.29,-471.03C821.44,-477.67 897.14,-486.03 958.94,-492.86"/>
<polygon fill="#757575" stroke="#757575" points="958.8,-496.37 969.13,-493.99 959.57,-489.41 958.8,-496.37"/>
</g>
<!-- src/handlers/token.handler.ts&#45;&gt;src/config.ts -->
<g id="edge19" class="edge">
<title>src/handlers/token.handler.ts&#45;&gt;src/config.ts</title>
<path fill="none" stroke="#757575" d="M723.97,-256.06C751.88,-262.78 783.81,-273.07 810,-288.51 829.49,-300 826.38,-313.24 846,-324.51 900.55,-355.87 971.83,-371.21 1019.95,-378.46"/>
<polygon fill="#757575" stroke="#757575" points="1019.45,-381.93 1029.85,-379.89 1020.45,-375 1019.45,-381.93"/>
</g>
<!-- src/handlers/token.handler.ts&#45;&gt;src/errors.ts -->
<g id="edge20" class="edge">
<title>src/handlers/token.handler.ts&#45;&gt;src/errors.ts</title>
<path fill="none" stroke="#757575" d="M663.1,-232.98C683.25,-196.33 751.74,-82.54 846,-41.51 1001.15,26.02 1454.35,5.49 1607,-67.51 1641.59,-84.05 1669.94,-119.75 1685.37,-142.37"/>
<polygon fill="#757575" stroke="#757575" points="1682.56,-144.47 1690.99,-150.89 1688.4,-140.62 1682.56,-144.47"/>
</g>
<!-- src/handlers/token.handler.ts&#45;&gt;src/statements/index.ts -->
<g id="edge22" class="edge">
<title>src/handlers/token.handler.ts&#45;&gt;src/statements/index.ts</title>
<path fill="none" stroke="#757575" d="M750.73,-244.51C821.35,-244.51 917.47,-244.51 986.41,-244.51"/>
<polygon fill="#757575" stroke="#757575" points="986.81,-248.01 996.81,-244.51 986.81,-241.01 986.81,-248.01"/>
</g>
<!-- src/handlers/schemas/tokenHandlerConfig.schema.ts -->
<g id="node16" class="node">
<title>src/handlers/schemas/tokenHandlerConfig.schema.ts</title>
<path fill="none" stroke="#cfffac" d="M1235.83,-74.01C1235.83,-74.01 913.17,-74.01 913.17,-74.01 909.33,-74.01 905.5,-70.18 905.5,-66.35 905.5,-66.35 905.5,-58.68 905.5,-58.68 905.5,-54.85 909.33,-51.01 913.17,-51.01 913.17,-51.01 1235.83,-51.01 1235.83,-51.01 1239.67,-51.01 1243.5,-54.85 1243.5,-58.68 1243.5,-58.68 1243.5,-66.35 1243.5,-66.35 1243.5,-70.18 1239.67,-74.01 1235.83,-74.01"/>
<text text-anchor="middle" x="1074.5" y="-58.81" font-family="Arial" font-size="14.00" fill="#cfffac">src/handlers/schemas/tokenHandlerConfig.schema.ts</text>
</g>
<!-- src/handlers/token.handler.ts&#45;&gt;src/handlers/schemas/tokenHandlerConfig.schema.ts -->
<g id="edge21" class="edge">
<title>src/handlers/token.handler.ts&#45;&gt;src/handlers/schemas/tokenHandlerConfig.schema.ts</title>
<path fill="none" stroke="#757575" d="M666.58,-232.91C692.11,-202.92 765.34,-122.8 846,-88.51 861.6,-81.88 878.31,-76.74 895.33,-72.77"/>
<polygon fill="#757575" stroke="#757575" points="896.37,-76.13 905.38,-70.57 894.87,-69.29 896.37,-76.13"/>
</g>
<!-- src/statements/checkClientCredentials.ts&#45;&gt;src/resources.ts -->
<g id="edge26" class="edge">
<title>src/statements/checkClientCredentials.ts&#45;&gt;src/resources.ts</title>
<path fill="none" stroke="#757575" d="M1571.65,-256.05C1583.66,-258.39 1595.69,-261.18 1607,-264.51 1627.9,-270.66 1650.22,-280.66 1667.52,-289.24"/>
<polygon fill="#757575" stroke="#757575" points="1666.08,-292.44 1676.58,-293.83 1669.24,-286.19 1666.08,-292.44"/>
</g>
<!-- src/statements/checkClientCredentials.ts&#45;&gt;src/errors.ts -->
<g id="edge25" class="edge">
<title>src/statements/checkClientCredentials.ts&#45;&gt;src/errors.ts</title>
<path fill="none" stroke="#757575" d="M1576.51,-232.97C1586.98,-230.42 1597.31,-227.31 1607,-223.51 1633.17,-213.25 1659.46,-194.5 1677,-180.49"/>
<polygon fill="#757575" stroke="#757575" points="1679.35,-183.09 1684.87,-174.05 1674.92,-177.67 1679.35,-183.09"/>
</g>
<!-- src/statements/checkScope.ts&#45;&gt;src/resources.ts -->
<g id="edge28" class="edge">
<title>src/statements/checkScope.ts&#45;&gt;src/resources.ts</title>
<path fill="none" stroke="#757575" d="M1571.56,-168.08C1584.03,-171.37 1596.2,-176.01 1607,-182.51 1647.34,-206.78 1675.44,-256.4 1688.91,-284.64"/>
<polygon fill="#757575" stroke="#757575" points="1685.86,-286.36 1693.21,-293.99 1692.22,-283.44 1685.86,-286.36"/>
</g>
<!-- src/statements/checkScope.ts&#45;&gt;src/errors.ts -->
<g id="edge27" class="edge">
<title>src/statements/checkScope.ts&#45;&gt;src/errors.ts</title>
<path fill="none" stroke="#757575" d="M1571.6,-162.51C1596.74,-162.51 1622.86,-162.51 1644.79,-162.51"/>
<polygon fill="#757575" stroke="#757575" points="1644.87,-166.01 1654.87,-162.51 1644.87,-159.01 1644.87,-166.01"/>
</g>
<!-- src/statements/generateAccessToken.ts&#45;&gt;src/resources.ts -->
<g id="edge29" class="edge">
<title>src/statements/generateAccessToken.ts&#45;&gt;src/resources.ts</title>
<path fill="none" stroke="#757575" d="M1601.05,-296.86C1611.9,-297.83 1622.55,-298.78 1632.6,-299.67"/>
<polygon fill="#757575" stroke="#757575" points="1632.56,-303.18 1642.83,-300.59 1633.18,-296.21 1632.56,-303.18"/>
</g>
<!-- src/statements/generateCredentialOffer.ts&#45;&gt;src/resources.ts -->
<g id="edge31" class="edge">
<title>src/statements/generateCredentialOffer.ts&#45;&gt;src/resources.ts</title>
<path fill="none" stroke="#757575" d="M1585.08,-215.11C1592.65,-217.45 1600.03,-220.22 1607,-223.51 1637.99,-238.15 1666.02,-266.85 1682.54,-286.11"/>
<polygon fill="#757575" stroke="#757575" points="1680,-288.53 1689.09,-293.97 1685.38,-284.05 1680,-288.53"/>
</g>
<!-- src/statements/generateCredentialOffer.ts&#45;&gt;src/errors.ts -->
<g id="edge30" class="edge">
<title>src/statements/generateCredentialOffer.ts&#45;&gt;src/errors.ts</title>
<path fill="none" stroke="#757575" d="M1552.2,-191.96C1570.23,-189.08 1589.31,-185.85 1607,-182.51 1619.17,-180.22 1632.2,-177.51 1644.49,-174.83"/>
<polygon fill="#757575" stroke="#757575" points="1645.58,-178.17 1654.6,-172.61 1644.08,-171.34 1645.58,-178.17"/>
</g>
<!-- src/statements/issuerClient.ts&#45;&gt;src/resources.ts -->
<g id="edge38" class="edge">
<title>src/statements/issuerClient.ts&#45;&gt;src/resources.ts</title>
<path fill="none" stroke="#757575" d="M1570.3,-317.48C1591.4,-315.51 1613.26,-313.46 1632.81,-311.62"/>
<polygon fill="#757575" stroke="#757575" points="1633.17,-315.11 1642.8,-310.69 1632.52,-308.14 1633.17,-315.11"/>
</g>
</g>
</svg>
