<?xml version="1.0" encoding="UTF-8" standalone="no"?>
<!DOCTYPE svg PUBLIC "-//W3C//DTD SVG 1.1//EN"
 "http://www.w3.org/Graphics/SVG/1.1/DTD/svg11.dtd">
<!-- Generated by graphviz version 2.43.0 (0)
 -->
<!-- Title: G Pages: 1 -->
<svg width="1998pt" height="581pt"
 viewBox="0.00 0.00 1998.20 581.32" xmlns="http://www.w3.org/2000/svg" xmlns:xlink="http://www.w3.org/1999/xlink">
<g id="graph0" class="graph" transform="scale(1 1) rotate(0) translate(21.6 559.72)">
<title>G</title>
<polygon fill="#111111" stroke="transparent" points="-21.6,21.6 -21.6,-559.72 1976.6,-559.72 1976.6,21.6 -21.6,21.6"/>
<!-- app.ts -->
<g id="node1" class="node">
<title>app.ts</title>
<path fill="none" stroke="#c6c5fe" d="M175.83,-423C175.83,-423 137.17,-423 137.17,-423 133.33,-423 129.5,-419.17 129.5,-415.33 129.5,-415.33 129.5,-407.67 129.5,-407.67 129.5,-403.83 133.33,-400 137.17,-400 137.17,-400 175.83,-400 175.83,-400 179.67,-400 183.5,-403.83 183.5,-407.67 183.5,-407.67 183.5,-415.33 183.5,-415.33 183.5,-419.17 179.67,-423 175.83,-423"/>
<text text-anchor="middle" x="156.5" y="-407.8" font-family="Arial" font-size="14.00" fill="#c6c5fe">app.ts</text>
</g>
<!-- src/index.ts -->
<g id="node2" class="node">
<title>src/index.ts</title>
<path fill="none" stroke="#c6c5fe" d="M337.33,-423C337.33,-423 267.67,-423 267.67,-423 263.83,-423 260,-419.17 260,-415.33 260,-415.33 260,-407.67 260,-407.67 260,-403.83 263.83,-400 267.67,-400 267.67,-400 337.33,-400 337.33,-400 341.17,-400 345,-403.83 345,-407.67 345,-407.67 345,-415.33 345,-415.33 345,-419.17 341.17,-423 337.33,-423"/>
<text text-anchor="middle" x="302.5" y="-407.8" font-family="Arial" font-size="14.00" fill="#c6c5fe">src/index.ts</text>
</g>
<!-- app.ts&#45;&gt;src/index.ts -->
<g id="edge1" class="edge">
<title>app.ts&#45;&gt;src/index.ts</title>
<path fill="none" stroke="#757575" d="M183.58,-411.5C201.99,-411.5 227.28,-411.5 249.72,-411.5"/>
<polygon fill="#757575" stroke="#757575" points="249.8,-415 259.8,-411.5 249.8,-408 249.8,-415"/>
</g>
<!-- src/core.ts -->
<g id="node9" class="node">
<title>src/core.ts</title>
<path fill="none" stroke="#c6c5fe" d="M471.33,-423C471.33,-423 407.67,-423 407.67,-423 403.83,-423 400,-419.17 400,-415.33 400,-415.33 400,-407.67 400,-407.67 400,-403.83 403.83,-400 407.67,-400 407.67,-400 471.33,-400 471.33,-400 475.17,-400 479,-403.83 479,-407.67 479,-407.67 479,-415.33 479,-415.33 479,-419.17 475.17,-423 471.33,-423"/>
<text text-anchor="middle" x="439.5" y="-407.8" font-family="Arial" font-size="14.00" fill="#c6c5fe">src/core.ts</text>
</g>
<!-- src/index.ts&#45;&gt;src/core.ts -->
<g id="edge29" class="edge">
<title>src/index.ts&#45;&gt;src/core.ts</title>
<path fill="none" stroke="#757575" d="M345.11,-411.5C359.07,-411.5 374.78,-411.5 389.27,-411.5"/>
<polygon fill="#757575" stroke="#757575" points="389.57,-415 399.57,-411.5 389.57,-408 389.57,-415"/>
</g>
<!-- src/handlers/index.ts -->
<g id="node10" class="node">
<title>src/handlers/index.ts</title>
<path fill="none" stroke="#c6c5fe" d="M658.33,-383C658.33,-383 533.67,-383 533.67,-383 529.83,-383 526,-379.17 526,-375.33 526,-375.33 526,-367.67 526,-367.67 526,-363.83 529.83,-360 533.67,-360 533.67,-360 658.33,-360 658.33,-360 662.17,-360 666,-363.83 666,-367.67 666,-367.67 666,-375.33 666,-375.33 666,-379.17 662.17,-383 658.33,-383"/>
<text text-anchor="middle" x="596" y="-367.8" font-family="Arial" font-size="14.00" fill="#c6c5fe">src/handlers/index.ts</text>
</g>
<!-- src/index.ts&#45;&gt;src/handlers/index.ts -->
<g id="edge30" class="edge">
<title>src/index.ts&#45;&gt;src/handlers/index.ts</title>
<path fill="none" stroke="#757575" d="M344.99,-399.99C358.89,-396.49 374.53,-392.93 389,-390.5 430.46,-383.54 477.06,-378.97 515.45,-376.06"/>
<polygon fill="#757575" stroke="#757575" points="515.81,-379.54 525.53,-375.32 515.3,-372.56 515.81,-379.54"/>
</g>
<!-- main.config.ts -->
<g id="node3" class="node">
<title>main.config.ts</title>
<path fill="none" stroke="#c6c5fe" d="M345.33,-484C345.33,-484 259.67,-484 259.67,-484 255.83,-484 252,-480.17 252,-476.33 252,-476.33 252,-468.67 252,-468.67 252,-464.83 255.83,-461 259.67,-461 259.67,-461 345.33,-461 345.33,-461 349.17,-461 353,-464.83 353,-468.67 353,-468.67 353,-476.33 353,-476.33 353,-480.17 349.17,-484 345.33,-484"/>
<text text-anchor="middle" x="302.5" y="-468.8" font-family="Arial" font-size="14.00" fill="#c6c5fe">main.config.ts</text>
</g>
<!-- main.logger.ts -->
<g id="node4" class="node">
<title>main.logger.ts</title>
<path fill="none" stroke="#cfffac" d="M482.33,-484C482.33,-484 396.67,-484 396.67,-484 392.83,-484 389,-480.17 389,-476.33 389,-476.33 389,-468.67 389,-468.67 389,-464.83 392.83,-461 396.67,-461 396.67,-461 482.33,-461 482.33,-461 486.17,-461 490,-464.83 490,-468.67 490,-468.67 490,-476.33 490,-476.33 490,-480.17 486.17,-484 482.33,-484"/>
<text text-anchor="middle" x="439.5" y="-468.8" font-family="Arial" font-size="14.00" fill="#cfffac">main.logger.ts</text>
</g>
<!-- main.config.ts&#45;&gt;main.logger.ts -->
<g id="edge2" class="edge">
<title>main.config.ts&#45;&gt;main.logger.ts</title>
<path fill="none" stroke="#757575" d="M353,-472.5C361.24,-472.5 369.87,-472.5 378.34,-472.5"/>
<polygon fill="#757575" stroke="#757575" points="378.55,-476 388.55,-472.5 378.55,-469 378.55,-476"/>
</g>
<!-- src/resources.ts -->
<g id="node5" class="node">
<title>src/resources.ts</title>
<path fill="none" stroke="#cfffac" d="M1947.33,-346C1947.33,-346 1850.67,-346 1850.67,-346 1846.83,-346 1843,-342.17 1843,-338.33 1843,-338.33 1843,-330.67 1843,-330.67 1843,-326.83 1846.83,-323 1850.67,-323 1850.67,-323 1947.33,-323 1947.33,-323 1951.17,-323 1955,-326.83 1955,-330.67 1955,-330.67 1955,-338.33 1955,-338.33 1955,-342.17 1951.17,-346 1947.33,-346"/>
<text text-anchor="middle" x="1899" y="-330.8" font-family="Arial" font-size="14.00" fill="#cfffac">src/resources.ts</text>
</g>
<!-- main.config.ts&#45;&gt;src/resources.ts -->
<g id="edge3" class="edge">
<title>main.config.ts&#45;&gt;src/resources.ts</title>
<path fill="none" stroke="#757575" d="M337.14,-484.07C390.93,-501.5 499.93,-532.5 595,-532.5 595,-532.5 595,-532.5 1275.5,-532.5 1514.87,-532.5 1603.19,-571.04 1807,-445.5 1843.69,-422.9 1872.33,-380.19 1887.06,-354.85"/>
<polygon fill="#757575" stroke="#757575" points="1890.15,-356.49 1892.01,-346.06 1884.05,-353.06 1890.15,-356.49"/>
</g>
<!-- main.container.ts -->
<g id="node6" class="node">
<title>main.container.ts</title>
<path fill="none" stroke="#c6c5fe" d="M208.33,-464C208.33,-464 104.67,-464 104.67,-464 100.83,-464 97,-460.17 97,-456.33 97,-456.33 97,-448.67 97,-448.67 97,-444.83 100.83,-441 104.67,-441 104.67,-441 208.33,-441 208.33,-441 212.17,-441 216,-444.83 216,-448.67 216,-448.67 216,-456.33 216,-456.33 216,-460.17 212.17,-464 208.33,-464"/>
<text text-anchor="middle" x="156.5" y="-448.8" font-family="Arial" font-size="14.00" fill="#c6c5fe">main.container.ts</text>
</g>
<!-- main.container.ts&#45;&gt;src/index.ts -->
<g id="edge5" class="edge">
<title>main.container.ts&#45;&gt;src/index.ts</title>
<path fill="none" stroke="#757575" d="M198,-440.97C214.41,-436.3 233.54,-430.85 250.86,-425.92"/>
<polygon fill="#757575" stroke="#757575" points="252.15,-429.19 260.81,-423.09 250.23,-422.46 252.15,-429.19"/>
</g>
<!-- main.container.ts&#45;&gt;main.config.ts -->
<g id="edge4" class="edge">
<title>main.container.ts&#45;&gt;main.config.ts</title>
<path fill="none" stroke="#757575" d="M216.07,-460.63C224.48,-461.8 233.15,-463.01 241.59,-464.18"/>
<polygon fill="#757575" stroke="#757575" points="241.36,-467.68 251.74,-465.59 242.32,-460.75 241.36,-467.68"/>
</g>
<!-- main.ts -->
<g id="node7" class="node">
<title>main.ts</title>
<path fill="none" stroke="#c6c5fe" d="M53.33,-443C53.33,-443 7.67,-443 7.67,-443 3.83,-443 0,-439.17 0,-435.33 0,-435.33 0,-427.67 0,-427.67 0,-423.83 3.83,-420 7.67,-420 7.67,-420 53.33,-420 53.33,-420 57.17,-420 61,-423.83 61,-427.67 61,-427.67 61,-435.33 61,-435.33 61,-439.17 57.17,-443 53.33,-443"/>
<text text-anchor="middle" x="30.5" y="-427.8" font-family="Arial" font-size="14.00" fill="#c6c5fe">main.ts</text>
</g>
<!-- main.ts&#45;&gt;app.ts -->
<g id="edge6" class="edge">
<title>main.ts&#45;&gt;app.ts</title>
<path fill="none" stroke="#757575" d="M61.2,-426.71C78.65,-423.89 100.84,-420.32 119.31,-417.34"/>
<polygon fill="#757575" stroke="#757575" points="120.09,-420.76 129.41,-415.71 118.98,-413.85 120.09,-420.76"/>
</g>
<!-- main.ts&#45;&gt;main.container.ts -->
<g id="edge7" class="edge">
<title>main.ts&#45;&gt;main.container.ts</title>
<path fill="none" stroke="#757575" d="M61.2,-436.53C69.01,-437.85 77.77,-439.34 86.71,-440.85"/>
<polygon fill="#757575" stroke="#757575" points="86.41,-444.35 96.86,-442.57 87.58,-437.45 86.41,-444.35"/>
</g>
<!-- src/config.ts -->
<g id="node8" class="node">
<title>src/config.ts</title>
<path fill="none" stroke="#c6c5fe" d="M1311.33,-383C1311.33,-383 1237.67,-383 1237.67,-383 1233.83,-383 1230,-379.17 1230,-375.33 1230,-375.33 1230,-367.67 1230,-367.67 1230,-363.83 1233.83,-360 1237.67,-360 1237.67,-360 1311.33,-360 1311.33,-360 1315.17,-360 1319,-363.83 1319,-367.67 1319,-367.67 1319,-375.33 1319,-375.33 1319,-379.17 1315.17,-383 1311.33,-383"/>
<text text-anchor="middle" x="1274.5" y="-367.8" font-family="Arial" font-size="14.00" fill="#c6c5fe">src/config.ts</text>
</g>
<!-- src/config.ts&#45;&gt;src/resources.ts -->
<g id="edge8" class="edge">
<title>src/config.ts&#45;&gt;src/resources.ts</title>
<path fill="none" stroke="#757575" d="M1319.28,-375.19C1371.54,-379.4 1461.57,-386 1539,-388.5 1658.05,-392.34 1692.13,-420.02 1807,-388.5 1832.5,-381.5 1858.08,-365.31 1875.6,-352.47"/>
<polygon fill="#757575" stroke="#757575" points="1878.12,-354.95 1883.99,-346.12 1873.9,-349.37 1878.12,-354.95"/>
</g>
<!-- src/core.ts&#45;&gt;src/config.ts -->
<g id="edge9" class="edge">
<title>src/core.ts&#45;&gt;src/config.ts</title>
<path fill="none" stroke="#757575" d="M479.19,-410.68C571.24,-408.62 810.46,-402.57 1010,-391.5 1082.58,-387.47 1166.25,-380.77 1219.48,-376.25"/>
<polygon fill="#757575" stroke="#757575" points="1220.04,-379.71 1229.71,-375.37 1219.45,-372.74 1220.04,-379.71"/>
</g>
<!-- src/core.ts&#45;&gt;src/handlers/index.ts -->
<g id="edge10" class="edge">
<title>src/core.ts&#45;&gt;src/handlers/index.ts</title>
<path fill="none" stroke="#757575" d="M479.09,-401.51C497.68,-396.7 520.29,-390.84 540.59,-385.59"/>
<polygon fill="#757575" stroke="#757575" points="541.54,-388.96 550.34,-383.06 539.78,-382.18 541.54,-388.96"/>
</g>
<!-- src/handlers/credentialOffer.handler.ts -->
<g id="node12" class="node">
<title>src/handlers/credentialOffer.handler.ts</title>
<path fill="none" stroke="#c6c5fe" d="M970.83,-282C970.83,-282 741.17,-282 741.17,-282 737.33,-282 733.5,-278.17 733.5,-274.33 733.5,-274.33 733.5,-266.67 733.5,-266.67 733.5,-262.83 737.33,-259 741.17,-259 741.17,-259 970.83,-259 970.83,-259 974.67,-259 978.5,-262.83 978.5,-266.67 978.5,-266.67 978.5,-274.33 978.5,-274.33 978.5,-278.17 974.67,-282 970.83,-282"/>
<text text-anchor="middle" x="856" y="-266.8" font-family="Arial" font-size="14.00" fill="#c6c5fe">src/handlers/credentialOffer.handler.ts</text>
</g>
<!-- src/handlers/index.ts&#45;&gt;src/handlers/credentialOffer.handler.ts -->
<g id="edge16" class="edge">
<title>src/handlers/index.ts&#45;&gt;src/handlers/credentialOffer.handler.ts</title>
<path fill="none" stroke="#757575" d="M613.32,-359.86C633.35,-346.07 668.73,-323.23 702,-309.5 727.84,-298.83 757.37,-290.48 783.55,-284.28"/>
<polygon fill="#757575" stroke="#757575" points="784.44,-287.67 793.4,-282.01 782.87,-280.85 784.44,-287.67"/>
</g>
<!-- src/handlers/oauthAuthorizationServer.handler.ts -->
<g id="node15" class="node">
<title>src/handlers/oauthAuthorizationServer.handler.ts</title>
<path fill="none" stroke="#c6c5fe" d="M1002.33,-383C1002.33,-383 709.67,-383 709.67,-383 705.83,-383 702,-379.17 702,-375.33 702,-375.33 702,-367.67 702,-367.67 702,-363.83 705.83,-360 709.67,-360 709.67,-360 1002.33,-360 1002.33,-360 1006.17,-360 1010,-363.83 1010,-367.67 1010,-367.67 1010,-375.33 1010,-375.33 1010,-379.17 1006.17,-383 1002.33,-383"/>
<text text-anchor="middle" x="856" y="-367.8" font-family="Arial" font-size="14.00" fill="#c6c5fe">src/handlers/oauthAuthorizationServer.handler.ts</text>
</g>
<!-- src/handlers/index.ts&#45;&gt;src/handlers/oauthAuthorizationServer.handler.ts -->
<g id="edge17" class="edge">
<title>src/handlers/index.ts&#45;&gt;src/handlers/oauthAuthorizationServer.handler.ts</title>
<path fill="none" stroke="#757575" d="M666.14,-371.5C674.19,-371.5 682.63,-371.5 691.3,-371.5"/>
<polygon fill="#757575" stroke="#757575" points="691.58,-375 701.58,-371.5 691.58,-368 691.58,-375"/>
</g>
<!-- src/handlers/openidCredentialIssuer.handler.ts -->
<g id="node16" class="node">
<title>src/handlers/openidCredentialIssuer.handler.ts</title>
<path fill="none" stroke="#c6c5fe" d="M995.33,-464C995.33,-464 716.67,-464 716.67,-464 712.83,-464 709,-460.17 709,-456.33 709,-456.33 709,-448.67 709,-448.67 709,-444.83 712.83,-441 716.67,-441 716.67,-441 995.33,-441 995.33,-441 999.17,-441 1003,-444.83 1003,-448.67 1003,-448.67 1003,-456.33 1003,-456.33 1003,-460.17 999.17,-464 995.33,-464"/>
<text text-anchor="middle" x="856" y="-448.8" font-family="Arial" font-size="14.00" fill="#c6c5fe">src/handlers/openidCredentialIssuer.handler.ts</text>
</g>
<!-- src/handlers/index.ts&#45;&gt;src/handlers/openidCredentialIssuer.handler.ts -->
<g id="edge18" class="edge">
<title>src/handlers/index.ts&#45;&gt;src/handlers/openidCredentialIssuer.handler.ts</title>
<path fill="none" stroke="#757575" d="M633.69,-383.02C679.6,-397.43 758.27,-422.13 808.39,-437.87"/>
<polygon fill="#757575" stroke="#757575" points="807.43,-441.23 818.02,-440.89 809.53,-434.55 807.43,-441.23"/>
</g>
<!-- src/handlers/token.handler.ts -->
<g id="node17" class="node">
<title>src/handlers/token.handler.ts</title>
<path fill="none" stroke="#c6c5fe" d="M942.83,-342C942.83,-342 769.17,-342 769.17,-342 765.33,-342 761.5,-338.17 761.5,-334.33 761.5,-334.33 761.5,-326.67 761.5,-326.67 761.5,-322.83 765.33,-319 769.17,-319 769.17,-319 942.83,-319 942.83,-319 946.67,-319 950.5,-322.83 950.5,-326.67 950.5,-326.67 950.5,-334.33 950.5,-334.33 950.5,-338.17 946.67,-342 942.83,-342"/>
<text text-anchor="middle" x="856" y="-326.8" font-family="Arial" font-size="14.00" fill="#c6c5fe">src/handlers/token.handler.ts</text>
</g>
<!-- src/handlers/index.ts&#45;&gt;src/handlers/token.handler.ts -->
<g id="edge19" class="edge">
<title>src/handlers/index.ts&#45;&gt;src/handlers/token.handler.ts</title>
<path fill="none" stroke="#757575" d="M651.1,-359.96C667.42,-356.67 685.4,-353.24 702,-350.5 717.87,-347.88 734.71,-345.39 751.19,-343.11"/>
<polygon fill="#757575" stroke="#757575" points="751.96,-346.54 761.4,-341.72 751.02,-339.6 751.96,-346.54"/>
</g>
<!-- src/errors.ts -->
<g id="node11" class="node">
<title>src/errors.ts</title>
<path fill="none" stroke="#cfffac" d="M1935.33,-141C1935.33,-141 1862.67,-141 1862.67,-141 1858.83,-141 1855,-137.17 1855,-133.33 1855,-133.33 1855,-125.67 1855,-125.67 1855,-121.83 1858.83,-118 1862.67,-118 1862.67,-118 1935.33,-118 1935.33,-118 1939.17,-118 1943,-121.83 1943,-125.67 1943,-125.67 1943,-133.33 1943,-133.33 1943,-137.17 1939.17,-141 1935.33,-141"/>
<text text-anchor="middle" x="1899" y="-125.8" font-family="Arial" font-size="14.00" fill="#cfffac">src/errors.ts</text>
</g>
<!-- src/handlers/credentialOffer.handler.ts&#45;&gt;src/resources.ts -->
<g id="edge14" class="edge">
<title>src/handlers/credentialOffer.handler.ts&#45;&gt;src/resources.ts</title>
<path fill="none" stroke="#757575" d="M978.51,-272.54C1152.78,-276.27 1457.8,-286.07 1503,-309.5 1525.74,-321.29 1515.92,-343.4 1539,-354.5 1644.1,-405.02 1786.98,-371.15 1856.54,-349.16"/>
<polygon fill="#757575" stroke="#757575" points="1857.82,-352.43 1866.26,-346.02 1855.66,-345.77 1857.82,-352.43"/>
</g>
<!-- src/handlers/credentialOffer.handler.ts&#45;&gt;src/config.ts -->
<g id="edge11" class="edge">
<title>src/handlers/credentialOffer.handler.ts&#45;&gt;src/config.ts</title>
<path fill="none" stroke="#757575" d="M939.64,-282.07C963.53,-287.86 988.85,-296.54 1010,-309.5 1030.67,-322.17 1024.39,-339.49 1046,-350.5 1100.33,-378.18 1171.44,-380.19 1219.59,-377.38"/>
<polygon fill="#757575" stroke="#757575" points="1220.06,-380.85 1229.8,-376.69 1219.59,-373.87 1220.06,-380.85"/>
</g>
<!-- src/handlers/credentialOffer.handler.ts&#45;&gt;src/errors.ts -->
<g id="edge12" class="edge">
<title>src/handlers/credentialOffer.handler.ts&#45;&gt;src/errors.ts</title>
<path fill="none" stroke="#757575" d="M863.67,-258.65C884.75,-222.62 953.96,-114.47 1046,-75.5 1201.73,-9.57 1643.92,-30.75 1807,-75.5 1832.5,-82.5 1858.08,-98.69 1875.6,-111.53"/>
<polygon fill="#757575" stroke="#757575" points="1873.9,-114.63 1883.99,-117.88 1878.12,-109.05 1873.9,-114.63"/>
</g>
<!-- src/handlers/schemas/credentialOfferHandlerConfig.schema.ts -->
<g id="node13" class="node">
<title>src/handlers/schemas/credentialOfferHandlerConfig.schema.ts</title>
<path fill="none" stroke="#cfffac" d="M1463.83,-23C1463.83,-23 1085.17,-23 1085.17,-23 1081.33,-23 1077.5,-19.17 1077.5,-15.33 1077.5,-15.33 1077.5,-7.67 1077.5,-7.67 1077.5,-3.83 1081.33,0 1085.17,0 1085.17,0 1463.83,0 1463.83,0 1467.67,0 1471.5,-3.83 1471.5,-7.67 1471.5,-7.67 1471.5,-15.33 1471.5,-15.33 1471.5,-19.17 1467.67,-23 1463.83,-23"/>
<text text-anchor="middle" x="1274.5" y="-7.8" font-family="Arial" font-size="14.00" fill="#cfffac">src/handlers/schemas/credentialOfferHandlerConfig.schema.ts</text>
</g>
<!-- src/handlers/credentialOffer.handler.ts&#45;&gt;src/handlers/schemas/credentialOfferHandlerConfig.schema.ts -->
<g id="edge13" class="edge">
<title>src/handlers/credentialOffer.handler.ts&#45;&gt;src/handlers/schemas/credentialOfferHandlerConfig.schema.ts</title>
<path fill="none" stroke="#757575" d="M862.3,-258.9C880.93,-219.68 947.58,-91.47 1046,-37.5 1053.66,-33.3 1061.68,-29.63 1069.95,-26.43"/>
<polygon fill="#757575" stroke="#757575" points="1071.17,-29.71 1079.38,-23.01 1068.78,-23.13 1071.17,-29.71"/>
</g>
<!-- src/statements/index.ts -->
<g id="node14" class="node">
<title>src/statements/index.ts</title>
<path fill="none" stroke="#c6c5fe" d="M1344.33,-262C1344.33,-262 1204.67,-262 1204.67,-262 1200.83,-262 1197,-258.17 1197,-254.33 1197,-254.33 1197,-246.67 1197,-246.67 1197,-242.83 1200.83,-239 1204.67,-239 1204.67,-239 1344.33,-239 1344.33,-239 1348.17,-239 1352,-242.83 1352,-246.67 1352,-246.67 1352,-254.33 1352,-254.33 1352,-258.17 1348.17,-262 1344.33,-262"/>
<text text-anchor="middle" x="1274.5" y="-246.8" font-family="Arial" font-size="14.00" fill="#c6c5fe">src/statements/index.ts</text>
</g>
<!-- src/handlers/credentialOffer.handler.ts&#45;&gt;src/statements/index.ts -->
<g id="edge15" class="edge">
<title>src/handlers/credentialOffer.handler.ts&#45;&gt;src/statements/index.ts</title>
<path fill="none" stroke="#757575" d="M978.59,-264.66C1045.21,-261.46 1126.23,-257.57 1186.47,-254.68"/>
<polygon fill="#757575" stroke="#757575" points="1186.9,-258.16 1196.72,-254.19 1186.56,-251.17 1186.9,-258.16"/>
</g>
<!-- src/statements/checkClientCredentials.ts -->
<g id="node21" class="node">
<title>src/statements/checkClientCredentials.ts</title>
<path fill="none" stroke="#c6c5fe" d="M1795.83,-223C1795.83,-223 1550.17,-223 1550.17,-223 1546.33,-223 1542.5,-219.17 1542.5,-215.33 1542.5,-215.33 1542.5,-207.67 1542.5,-207.67 1542.5,-203.83 1546.33,-200 1550.17,-200 1550.17,-200 1795.83,-200 1795.83,-200 1799.67,-200 1803.5,-203.83 1803.5,-207.67 1803.5,-207.67 1803.5,-215.33 1803.5,-215.33 1803.5,-219.17 1799.67,-223 1795.83,-223"/>
<text text-anchor="middle" x="1673" y="-207.8" font-family="Arial" font-size="14.00" fill="#c6c5fe">src/statements/checkClientCredentials.ts</text>
</g>
<!-- src/statements/index.ts&#45;&gt;src/statements/checkClientCredentials.ts -->
<g id="edge38" class="edge">
<title>src/statements/index.ts&#45;&gt;src/statements/checkClientCredentials.ts</title>
<path fill="none" stroke="#757575" d="M1352.42,-242.93C1407.04,-237.56 1481.62,-230.23 1544.99,-223.99"/>
<polygon fill="#757575" stroke="#757575" points="1545.46,-227.46 1555.06,-223 1544.77,-220.5 1545.46,-227.46"/>
</g>
<!-- src/statements/checkScope.ts -->
<g id="node22" class="node">
<title>src/statements/checkScope.ts</title>
<path fill="none" stroke="#c6c5fe" d="M1763.83,-141C1763.83,-141 1582.17,-141 1582.17,-141 1578.33,-141 1574.5,-137.17 1574.5,-133.33 1574.5,-133.33 1574.5,-125.67 1574.5,-125.67 1574.5,-121.83 1578.33,-118 1582.17,-118 1582.17,-118 1763.83,-118 1763.83,-118 1767.67,-118 1771.5,-121.83 1771.5,-125.67 1771.5,-125.67 1771.5,-133.33 1771.5,-133.33 1771.5,-137.17 1767.67,-141 1763.83,-141"/>
<text text-anchor="middle" x="1673" y="-125.8" font-family="Arial" font-size="14.00" fill="#c6c5fe">src/statements/checkScope.ts</text>
</g>
<!-- src/statements/index.ts&#45;&gt;src/statements/checkScope.ts -->
<g id="edge39" class="edge">
<title>src/statements/index.ts&#45;&gt;src/statements/checkScope.ts</title>
<path fill="none" stroke="#757575" d="M1300.34,-238.88C1346.37,-217.83 1448.51,-173.34 1539,-149.5 1548.4,-147.02 1558.26,-144.82 1568.18,-142.88"/>
<polygon fill="#757575" stroke="#757575" points="1568.92,-146.3 1578.1,-141.01 1567.63,-139.42 1568.92,-146.3"/>
</g>
<!-- src/statements/generateAccessToken.ts -->
<g id="node23" class="node">
<title>src/statements/generateAccessToken.ts</title>
<path fill="none" stroke="#c6c5fe" d="M1793.33,-305C1793.33,-305 1552.67,-305 1552.67,-305 1548.83,-305 1545,-301.17 1545,-297.33 1545,-297.33 1545,-289.67 1545,-289.67 1545,-285.83 1548.83,-282 1552.67,-282 1552.67,-282 1793.33,-282 1793.33,-282 1797.17,-282 1801,-285.83 1801,-289.67 1801,-289.67 1801,-297.33 1801,-297.33 1801,-301.17 1797.17,-305 1793.33,-305"/>
<text text-anchor="middle" x="1673" y="-289.8" font-family="Arial" font-size="14.00" fill="#c6c5fe">src/statements/generateAccessToken.ts</text>
</g>
<!-- src/statements/index.ts&#45;&gt;src/statements/generateAccessToken.ts -->
<g id="edge40" class="edge">
<title>src/statements/index.ts&#45;&gt;src/statements/generateAccessToken.ts</title>
<path fill="none" stroke="#757575" d="M1352.42,-258.84C1410.15,-265.1 1490.18,-273.78 1555.71,-280.89"/>
<polygon fill="#757575" stroke="#757575" points="1555.36,-284.37 1565.68,-281.97 1556.12,-277.41 1555.36,-284.37"/>
</g>
<!-- src/statements/generateCredentialOffer.ts -->
<g id="node24" class="node">
<title>src/statements/generateCredentialOffer.ts</title>
<path fill="none" stroke="#c6c5fe" d="M1799.33,-264C1799.33,-264 1546.67,-264 1546.67,-264 1542.83,-264 1539,-260.17 1539,-256.33 1539,-256.33 1539,-248.67 1539,-248.67 1539,-244.83 1542.83,-241 1546.67,-241 1546.67,-241 1799.33,-241 1799.33,-241 1803.17,-241 1807,-244.83 1807,-248.67 1807,-248.67 1807,-256.33 1807,-256.33 1807,-260.17 1803.17,-264 1799.33,-264"/>
<text text-anchor="middle" x="1673" y="-248.8" font-family="Arial" font-size="14.00" fill="#c6c5fe">src/statements/generateCredentialOffer.ts</text>
</g>
<!-- src/statements/index.ts&#45;&gt;src/statements/generateCredentialOffer.ts -->
<g id="edge41" class="edge">
<title>src/statements/index.ts&#45;&gt;src/statements/generateCredentialOffer.ts</title>
<path fill="none" stroke="#757575" d="M1352.42,-250.89C1402.34,-251.14 1468.94,-251.48 1528.42,-251.78"/>
<polygon fill="#757575" stroke="#757575" points="1528.65,-255.28 1538.67,-251.83 1528.68,-248.28 1528.65,-255.28"/>
</g>
<!-- src/statements/generateIssuerGrants.ts -->
<g id="node25" class="node">
<title>src/statements/generateIssuerGrants.ts</title>
<path fill="none" stroke="#cfffac" d="M1792.33,-182C1792.33,-182 1553.67,-182 1553.67,-182 1549.83,-182 1546,-178.17 1546,-174.33 1546,-174.33 1546,-166.67 1546,-166.67 1546,-162.83 1549.83,-159 1553.67,-159 1553.67,-159 1792.33,-159 1792.33,-159 1796.17,-159 1800,-162.83 1800,-166.67 1800,-166.67 1800,-174.33 1800,-174.33 1800,-178.17 1796.17,-182 1792.33,-182"/>
<text text-anchor="middle" x="1673" y="-166.8" font-family="Arial" font-size="14.00" fill="#cfffac">src/statements/generateIssuerGrants.ts</text>
</g>
<!-- src/statements/index.ts&#45;&gt;src/statements/generateIssuerGrants.ts -->
<g id="edge42" class="edge">
<title>src/statements/index.ts&#45;&gt;src/statements/generateIssuerGrants.ts</title>
<path fill="none" stroke="#757575" d="M1321.45,-238.94C1373.86,-226.01 1462.24,-204.99 1539,-190.5 1551.8,-188.08 1565.33,-185.77 1578.68,-183.63"/>
<polygon fill="#757575" stroke="#757575" points="1579.5,-187.05 1588.83,-182.03 1578.41,-180.13 1579.5,-187.05"/>
</g>
<!-- src/statements/issuerClient.ts -->
<g id="node26" class="node">
<title>src/statements/issuerClient.ts</title>
<path fill="none" stroke="#c6c5fe" d="M1762.33,-346C1762.33,-346 1583.67,-346 1583.67,-346 1579.83,-346 1576,-342.17 1576,-338.33 1576,-338.33 1576,-330.67 1576,-330.67 1576,-326.83 1579.83,-323 1583.67,-323 1583.67,-323 1762.33,-323 1762.33,-323 1766.17,-323 1770,-326.83 1770,-330.67 1770,-330.67 1770,-338.33 1770,-338.33 1770,-342.17 1766.17,-346 1762.33,-346"/>
<text text-anchor="middle" x="1673" y="-330.8" font-family="Arial" font-size="14.00" fill="#c6c5fe">src/statements/issuerClient.ts</text>
</g>
<!-- src/statements/index.ts&#45;&gt;src/statements/issuerClient.ts -->
<g id="edge43" class="edge">
<title>src/statements/index.ts&#45;&gt;src/statements/issuerClient.ts</title>
<path fill="none" stroke="#757575" d="M1352.08,-246.63C1398,-247.3 1456.34,-253.59 1503,-276.5 1523.59,-286.61 1518.63,-302.95 1539,-313.5 1547.47,-317.89 1556.63,-321.41 1566.03,-324.23"/>
<polygon fill="#757575" stroke="#757575" points="1565.32,-327.67 1575.89,-326.93 1567.17,-320.92 1565.32,-327.67"/>
</g>
<!-- src/handlers/oauthAuthorizationServer.handler.ts&#45;&gt;src/config.ts -->
<g id="edge20" class="edge">
<title>src/handlers/oauthAuthorizationServer.handler.ts&#45;&gt;src/config.ts</title>
<path fill="none" stroke="#757575" d="M1010.02,-371.5C1083.34,-371.5 1166.5,-371.5 1219.43,-371.5"/>
<polygon fill="#757575" stroke="#757575" points="1219.61,-375 1229.61,-371.5 1219.61,-368 1219.61,-375"/>
</g>
<!-- src/handlers/schemas/oauthAuthorizationServerHandlerConfig.schema.ts -->
<g id="node18" class="node">
<title>src/handlers/schemas/oauthAuthorizationServerHandlerConfig.schema.ts</title>
<path fill="none" stroke="#cfffac" d="M1495.33,-424C1495.33,-424 1053.67,-424 1053.67,-424 1049.83,-424 1046,-420.17 1046,-416.33 1046,-416.33 1046,-408.67 1046,-408.67 1046,-404.83 1049.83,-401 1053.67,-401 1053.67,-401 1495.33,-401 1495.33,-401 1499.17,-401 1503,-404.83 1503,-408.67 1503,-408.67 1503,-416.33 1503,-416.33 1503,-420.17 1499.17,-424 1495.33,-424"/>
<text text-anchor="middle" x="1274.5" y="-408.8" font-family="Arial" font-size="14.00" fill="#cfffac">src/handlers/schemas/oauthAuthorizationServerHandlerConfig.schema.ts</text>
</g>
<!-- src/handlers/oauthAuthorizationServer.handler.ts&#45;&gt;src/handlers/schemas/oauthAuthorizationServerHandlerConfig.schema.ts -->
<g id="edge21" class="edge">
<title>src/handlers/oauthAuthorizationServer.handler.ts&#45;&gt;src/handlers/schemas/oauthAuthorizationServerHandlerConfig.schema.ts</title>
<path fill="none" stroke="#757575" d="M963.43,-383.01C990.36,-385.86 1019.24,-388.85 1046,-391.5 1074.99,-394.37 1106.07,-397.32 1135.66,-400.07"/>
<polygon fill="#757575" stroke="#757575" points="1135.35,-403.56 1145.63,-401 1136,-396.59 1135.35,-403.56"/>
</g>
<!-- src/handlers/openidCredentialIssuer.handler.ts&#45;&gt;src/resources.ts -->
<g id="edge24" class="edge">
<title>src/handlers/openidCredentialIssuer.handler.ts&#45;&gt;src/resources.ts</title>
<path fill="none" stroke="#757575" d="M1003.02,-457.8C1232.34,-464.17 1665.41,-467.71 1807,-410.5 1837.29,-398.26 1864.99,-371.99 1881.68,-353.79"/>
<polygon fill="#757575" stroke="#757575" points="1884.51,-355.87 1888.54,-346.07 1879.28,-351.22 1884.51,-355.87"/>
</g>
<!-- src/handlers/openidCredentialIssuer.handler.ts&#45;&gt;src/config.ts -->
<g id="edge22" class="edge">
<title>src/handlers/openidCredentialIssuer.handler.ts&#45;&gt;src/config.ts</title>
<path fill="none" stroke="#757575" d="M967.74,-440.92C982.39,-437.12 996.87,-432.1 1010,-425.5 1029.66,-415.62 1025.93,-400.52 1046,-391.5 1101.43,-366.6 1172.02,-364.34 1219.76,-366.54"/>
<polygon fill="#757575" stroke="#757575" points="1219.71,-370.05 1229.89,-367.09 1220.09,-363.06 1219.71,-370.05"/>
</g>
<!-- src/handlers/schemas/openidCredentialIssuerHandlerConfig.schema.ts -->
<g id="node19" class="node">
<title>src/handlers/schemas/openidCredentialIssuerHandlerConfig.schema.ts</title>
<path fill="none" stroke="#cfffac" d="M1488.33,-504C1488.33,-504 1060.67,-504 1060.67,-504 1056.83,-504 1053,-500.17 1053,-496.33 1053,-496.33 1053,-488.67 1053,-488.67 1053,-484.83 1056.83,-481 1060.67,-481 1060.67,-481 1488.33,-481 1488.33,-481 1492.17,-481 1496,-484.83 1496,-488.67 1496,-488.67 1496,-496.33 1496,-496.33 1496,-500.17 1492.17,-504 1488.33,-504"/>
<text text-anchor="middle" x="1274.5" y="-488.8" font-family="Arial" font-size="14.00" fill="#cfffac">src/handlers/schemas/openidCredentialIssuerHandlerConfig.schema.ts</text>
</g>
<!-- src/handlers/openidCredentialIssuer.handler.ts&#45;&gt;src/handlers/schemas/openidCredentialIssuerHandlerConfig.schema.ts -->
<g id="edge23" class="edge">
<title>src/handlers/openidCredentialIssuer.handler.ts&#45;&gt;src/handlers/schemas/openidCredentialIssuerHandlerConfig.schema.ts</title>
<path fill="none" stroke="#757575" d="M976.91,-464.02C1029.06,-469.02 1090.29,-474.9 1143.53,-480.02"/>
<polygon fill="#757575" stroke="#757575" points="1143.43,-483.52 1153.72,-481 1144.1,-476.56 1143.43,-483.52"/>
</g>
<!-- src/handlers/token.handler.ts&#45;&gt;src/config.ts -->
<g id="edge25" class="edge">
<title>src/handlers/token.handler.ts&#45;&gt;src/config.ts</title>
<path fill="none" stroke="#757575" d="M950.7,-340.67C981.1,-343.9 1014.97,-347.43 1046,-350.5 1105.45,-356.39 1173.69,-362.62 1219.8,-366.75"/>
<polygon fill="#757575" stroke="#757575" points="1219.6,-370.24 1229.87,-367.65 1220.22,-363.27 1219.6,-370.24"/>
</g>
<!-- src/handlers/token.handler.ts&#45;&gt;src/errors.ts -->
<g id="edge26" class="edge">
<title>src/handlers/token.handler.ts&#45;&gt;src/errors.ts</title>
<path fill="none" stroke="#757575" d="M948.06,-318.98C969.88,-313.04 992.03,-304.07 1010,-290.5 1035.12,-271.53 1020.73,-248.28 1046,-229.5 1227.08,-94.92 1315.02,-135.58 1539,-108.5 1657.25,-94.2 1688.65,-95.02 1807,-108.5 1820.22,-110.01 1834.32,-112.7 1847.37,-115.68"/>
<polygon fill="#757575" stroke="#757575" points="1846.58,-119.09 1857.12,-117.99 1848.2,-112.28 1846.58,-119.09"/>
</g>
<!-- src/handlers/token.handler.ts&#45;&gt;src/statements/index.ts -->
<g id="edge28" class="edge">
<title>src/handlers/token.handler.ts&#45;&gt;src/statements/index.ts</title>
<path fill="none" stroke="#757575" d="M917.12,-318.95C992.95,-304.39 1123.1,-279.39 1203.38,-263.97"/>
<polygon fill="#757575" stroke="#757575" points="1204.24,-267.37 1213.4,-262.04 1202.92,-260.49 1204.24,-267.37"/>
</g>
<!-- src/handlers/schemas/tokenHandlerConfig.schema.ts -->
<g id="node20" class="node">
<title>src/handlers/schemas/tokenHandlerConfig.schema.ts</title>
<path fill="none" stroke="#cfffac" d="M1435.83,-342C1435.83,-342 1113.17,-342 1113.17,-342 1109.33,-342 1105.5,-338.17 1105.5,-334.33 1105.5,-334.33 1105.5,-326.67 1105.5,-326.67 1105.5,-322.83 1109.33,-319 1113.17,-319 1113.17,-319 1435.83,-319 1435.83,-319 1439.67,-319 1443.5,-322.83 1443.5,-326.67 1443.5,-326.67 1443.5,-334.33 1443.5,-334.33 1443.5,-338.17 1439.67,-342 1435.83,-342"/>
<text text-anchor="middle" x="1274.5" y="-326.8" font-family="Arial" font-size="14.00" fill="#cfffac">src/handlers/schemas/tokenHandlerConfig.schema.ts</text>
</g>
<!-- src/handlers/token.handler.ts&#45;&gt;src/handlers/schemas/tokenHandlerConfig.schema.ts -->
<g id="edge27" class="edge">
<title>src/handlers/token.handler.ts&#45;&gt;src/handlers/schemas/tokenHandlerConfig.schema.ts</title>
<path fill="none" stroke="#757575" d="M950.73,-330.5C993.37,-330.5 1045.31,-330.5 1094.95,-330.5"/>
<polygon fill="#757575" stroke="#757575" points="1095.17,-334 1105.17,-330.5 1095.17,-327 1095.17,-334"/>
</g>
<!-- src/statements/checkClientCredentials.ts&#45;&gt;src/resources.ts -->
<g id="edge32" class="edge">
<title>src/statements/checkClientCredentials.ts&#45;&gt;src/resources.ts</title>
<path fill="none" stroke="#757575" d="M1787.9,-223.03C1794.53,-225.41 1800.95,-228.21 1807,-231.5 1842.71,-250.93 1871.2,-290.12 1886.26,-314.16"/>
<polygon fill="#757575" stroke="#757575" points="1883.35,-316.12 1891.53,-322.85 1889.34,-312.49 1883.35,-316.12"/>
</g>
<!-- src/statements/checkClientCredentials.ts&#45;&gt;src/errors.ts -->
<g id="edge31" class="edge">
<title>src/statements/checkClientCredentials.ts&#45;&gt;src/errors.ts</title>
<path fill="none" stroke="#757575" d="M1776.51,-199.96C1786.98,-197.41 1797.31,-194.3 1807,-190.5 1833.17,-180.24 1859.46,-161.49 1877,-147.48"/>
<polygon fill="#757575" stroke="#757575" points="1879.35,-150.08 1884.87,-141.04 1874.92,-144.66 1879.35,-150.08"/>
</g>
<!-- src/statements/checkScope.ts&#45;&gt;src/resources.ts -->
<g id="edge34" class="edge">
<title>src/statements/checkScope.ts&#45;&gt;src/resources.ts</title>
<path fill="none" stroke="#757575" d="M1771.71,-133.01C1784.36,-136.58 1796.54,-141.85 1807,-149.5 1862.19,-189.87 1885.69,-273.01 1894.06,-312.61"/>
<polygon fill="#757575" stroke="#757575" points="1890.65,-313.42 1896.03,-322.55 1897.52,-312.06 1890.65,-313.42"/>
</g>
<!-- src/statements/checkScope.ts&#45;&gt;src/errors.ts -->
<g id="edge33" class="edge">
<title>src/statements/checkScope.ts&#45;&gt;src/errors.ts</title>
<path fill="none" stroke="#757575" d="M1771.6,-129.5C1796.74,-129.5 1822.86,-129.5 1844.79,-129.5"/>
<polygon fill="#757575" stroke="#757575" points="1844.87,-133 1854.87,-129.5 1844.87,-126 1844.87,-133"/>
</g>
<!-- src/statements/generateAccessToken.ts&#45;&gt;src/resources.ts -->
<g id="edge35" class="edge">
<title>src/statements/generateAccessToken.ts&#45;&gt;src/resources.ts</title>
<path fill="none" stroke="#757575" d="M1757.53,-305.05C1773.97,-307.61 1791.06,-310.47 1807,-313.5 1818.09,-315.61 1829.87,-318.12 1841.16,-320.67"/>
<polygon fill="#757575" stroke="#757575" points="1840.39,-324.08 1850.92,-322.9 1841.95,-317.26 1840.39,-324.08"/>
</g>
<!-- src/statements/generateCredentialOffer.ts&#45;&gt;src/resources.ts -->
<g id="edge37" class="edge">
<title>src/statements/generateCredentialOffer.ts&#45;&gt;src/resources.ts</title>
<path fill="none" stroke="#757575" d="M1780.41,-264.08C1789.54,-266.4 1798.52,-269.18 1807,-272.5 1833.46,-282.87 1859.88,-302.11 1877.38,-316.42"/>
<polygon fill="#757575" stroke="#757575" points="1875.3,-319.24 1885.22,-322.98 1879.8,-313.88 1875.3,-319.24"/>
</g>
<!-- src/statements/generateCredentialOffer.ts&#45;&gt;src/errors.ts -->
<g id="edge36" class="edge">
<title>src/statements/generateCredentialOffer.ts&#45;&gt;src/errors.ts</title>
<path fill="none" stroke="#757575" d="M1785.18,-240.98C1792.77,-238.38 1800.13,-235.25 1807,-231.5 1842.49,-212.13 1871.05,-173.36 1886.18,-149.6"/>
<polygon fill="#757575" stroke="#757575" points="1889.21,-151.35 1891.48,-141.01 1883.25,-147.68 1889.21,-151.35"/>
</g>
<!-- src/statements/issuerClient.ts&#45;&gt;src/resources.ts -->
<g id="edge44" class="edge">
<title>src/statements/issuerClient.ts&#45;&gt;src/resources.ts</title>
<path fill="none" stroke="#757575" d="M1770.3,-334.5C1791.3,-334.5 1813.06,-334.5 1832.54,-334.5"/>
<polygon fill="#757575" stroke="#757575" points="1832.8,-338 1842.8,-334.5 1832.8,-331 1832.8,-338"/>
</g>
</g>
</svg>
