<?xml version="1.0" encoding="UTF-8" standalone="no"?>
<!DOCTYPE svg PUBLIC "-//W3C//DTD SVG 1.1//EN"
 "http://www.w3.org/Graphics/SVG/1.1/DTD/svg11.dtd">
<!-- Generated by graphviz version 2.43.0 (0)
 -->
<!-- Title: G Pages: 1 -->
<svg width="2164pt" height="1554pt"
 viewBox="0.00 0.00 2164.20 1553.70" xmlns="http://www.w3.org/2000/svg" xmlns:xlink="http://www.w3.org/1999/xlink">
<g id="graph0" class="graph" transform="scale(1 1) rotate(0) translate(21.6 1532.1)">
<title>G</title>
<polygon fill="#111111" stroke="transparent" points="-21.6,21.6 -21.6,-1532.1 2142.6,-1532.1 2142.6,21.6 -21.6,21.6"/>
<!-- config.ts -->
<g id="node1" class="node">
<title>config.ts</title>
<path fill="none" stroke="#c6c5fe" d="M1155.83,-783.92C1155.83,-783.92 1104.17,-783.92 1104.17,-783.92 1100.33,-783.92 1096.5,-780.09 1096.5,-776.26 1096.5,-776.26 1096.5,-768.59 1096.5,-768.59 1096.5,-764.76 1100.33,-760.92 1104.17,-760.92 1104.17,-760.92 1155.83,-760.92 1155.83,-760.92 1159.67,-760.92 1163.5,-764.76 1163.5,-768.59 1163.5,-768.59 1163.5,-776.26 1163.5,-776.26 1163.5,-780.09 1159.67,-783.92 1155.83,-783.92"/>
<text text-anchor="middle" x="1130" y="-768.72" font-family="Arial" font-size="14.00" fill="#c6c5fe">config.ts</text>
</g>
<!-- resources.ts -->
<g id="node2" class="node">
<title>resources.ts</title>
<path fill="none" stroke="#cfffac" d="M2113.33,-517.92C2113.33,-517.92 2038.67,-517.92 2038.67,-517.92 2034.83,-517.92 2031,-514.09 2031,-510.26 2031,-510.26 2031,-502.59 2031,-502.59 2031,-498.76 2034.83,-494.92 2038.67,-494.92 2038.67,-494.92 2113.33,-494.92 2113.33,-494.92 2117.17,-494.92 2121,-498.76 2121,-502.59 2121,-502.59 2121,-510.26 2121,-510.26 2121,-514.09 2117.17,-517.92 2113.33,-517.92"/>
<text text-anchor="middle" x="2076" y="-502.72" font-family="Arial" font-size="14.00" fill="#cfffac">resources.ts</text>
</g>
<!-- config.ts&#45;&gt;resources.ts -->
<g id="edge1" class="edge">
<title>config.ts&#45;&gt;resources.ts</title>
<path fill="none" stroke="#757575" d="M1163.58,-772.22C1214.21,-769.96 1310.86,-757.5 1358,-697.42 1420.61,-617.63 1321.42,-313.27 1394,-242.42 1449.31,-188.43 1938.32,-186.79 1995,-229.42 2036.72,-260.8 2063.56,-424.9 2072.07,-484.64"/>
<polygon fill="#757575" stroke="#757575" points="2068.65,-485.41 2073.49,-494.83 2075.58,-484.44 2068.65,-485.41"/>
</g>
<!-- constants.ts -->
<g id="node3" class="node">
<title>constants.ts</title>
<path fill="none" stroke="#cfffac" d="M2112.83,-751.92C2112.83,-751.92 2039.17,-751.92 2039.17,-751.92 2035.33,-751.92 2031.5,-748.09 2031.5,-744.26 2031.5,-744.26 2031.5,-736.59 2031.5,-736.59 2031.5,-732.76 2035.33,-728.92 2039.17,-728.92 2039.17,-728.92 2112.83,-728.92 2112.83,-728.92 2116.67,-728.92 2120.5,-732.76 2120.5,-736.59 2120.5,-736.59 2120.5,-744.26 2120.5,-744.26 2120.5,-748.09 2116.67,-751.92 2112.83,-751.92"/>
<text text-anchor="middle" x="2076" y="-736.72" font-family="Arial" font-size="14.00" fill="#cfffac">constants.ts</text>
</g>
<!-- core.ts -->
<g id="node4" class="node">
<title>core.ts</title>
<path fill="none" stroke="#c6c5fe" d="M148.33,-862.92C148.33,-862.92 106.67,-862.92 106.67,-862.92 102.83,-862.92 99,-859.09 99,-855.26 99,-855.26 99,-847.59 99,-847.59 99,-843.76 102.83,-839.92 106.67,-839.92 106.67,-839.92 148.33,-839.92 148.33,-839.92 152.17,-839.92 156,-843.76 156,-847.59 156,-847.59 156,-855.26 156,-855.26 156,-859.09 152.17,-862.92 148.33,-862.92"/>
<text text-anchor="middle" x="127.5" y="-847.72" font-family="Arial" font-size="14.00" fill="#c6c5fe">core.ts</text>
</g>
<!-- core.ts&#45;&gt;config.ts -->
<g id="edge2" class="edge">
<title>core.ts&#45;&gt;config.ts</title>
<path fill="none" stroke="#757575" d="M156.04,-849.25C294.77,-838.29 917.06,-789.16 1086.36,-775.79"/>
<polygon fill="#757575" stroke="#757575" points="1086.7,-779.27 1096.39,-775 1086.14,-772.3 1086.7,-779.27"/>
</g>
<!-- crypto.ts -->
<g id="node5" class="node">
<title>crypto.ts</title>
<path fill="none" stroke="#cfffac" d="M2102.33,-1086.92C2102.33,-1086.92 2049.67,-1086.92 2049.67,-1086.92 2045.83,-1086.92 2042,-1083.09 2042,-1079.26 2042,-1079.26 2042,-1071.59 2042,-1071.59 2042,-1067.76 2045.83,-1063.92 2049.67,-1063.92 2049.67,-1063.92 2102.33,-1063.92 2102.33,-1063.92 2106.17,-1063.92 2110,-1067.76 2110,-1071.59 2110,-1071.59 2110,-1079.26 2110,-1079.26 2110,-1083.09 2106.17,-1086.92 2102.33,-1086.92"/>
<text text-anchor="middle" x="2076" y="-1071.72" font-family="Arial" font-size="14.00" fill="#cfffac">crypto.ts</text>
</g>
<!-- core.ts&#45;&gt;crypto.ts -->
<g id="edge3" class="edge">
<title>core.ts&#45;&gt;crypto.ts</title>
<path fill="none" stroke="#757575" d="M128.43,-863.04C128.58,-949.51 141.08,-1489.42 429.5,-1489.42 429.5,-1489.42 429.5,-1489.42 1495.5,-1489.42 1719.79,-1489.42 1829.68,-1569.01 1995,-1417.42 2042.9,-1373.51 2066.49,-1165.66 2073.05,-1097.28"/>
<polygon fill="#757575" stroke="#757575" points="2076.55,-1097.49 2073.99,-1087.21 2069.58,-1096.85 2076.55,-1097.49"/>
</g>
<!-- handlers/index.ts -->
<g id="node6" class="node">
<title>handlers/index.ts</title>
<path fill="none" stroke="#c6c5fe" d="M303.33,-902.92C303.33,-902.92 199.67,-902.92 199.67,-902.92 195.83,-902.92 192,-899.09 192,-895.26 192,-895.26 192,-887.59 192,-887.59 192,-883.76 195.83,-879.92 199.67,-879.92 199.67,-879.92 303.33,-879.92 303.33,-879.92 307.17,-879.92 311,-883.76 311,-887.59 311,-887.59 311,-895.26 311,-895.26 311,-899.09 307.17,-902.92 303.33,-902.92"/>
<text text-anchor="middle" x="251.5" y="-887.72" font-family="Arial" font-size="14.00" fill="#c6c5fe">handlers/index.ts</text>
</g>
<!-- core.ts&#45;&gt;handlers/index.ts -->
<g id="edge4" class="edge">
<title>core.ts&#45;&gt;handlers/index.ts</title>
<path fill="none" stroke="#757575" d="M156.18,-860.5C170.76,-865.28 188.99,-871.26 205.54,-876.68"/>
<polygon fill="#757575" stroke="#757575" points="204.45,-880.01 215.04,-879.8 206.63,-873.35 204.45,-880.01"/>
</g>
<!-- handlers/authorize.handler.ts -->
<g id="node8" class="node">
<title>handlers/authorize.handler.ts</title>
<path fill="none" stroke="#c6c5fe" d="M795.33,-941.92C795.33,-941.92 620.67,-941.92 620.67,-941.92 616.83,-941.92 613,-938.09 613,-934.26 613,-934.26 613,-926.59 613,-926.59 613,-922.76 616.83,-918.92 620.67,-918.92 620.67,-918.92 795.33,-918.92 795.33,-918.92 799.17,-918.92 803,-922.76 803,-926.59 803,-926.59 803,-934.26 803,-934.26 803,-938.09 799.17,-941.92 795.33,-941.92"/>
<text text-anchor="middle" x="708" y="-926.72" font-family="Arial" font-size="14.00" fill="#c6c5fe">handlers/authorize.handler.ts</text>
</g>
<!-- handlers/index.ts&#45;&gt;handlers/authorize.handler.ts -->
<g id="edge19" class="edge">
<title>handlers/index.ts&#45;&gt;handlers/authorize.handler.ts</title>
<path fill="none" stroke="#757575" d="M311.16,-900.09C323.01,-901.67 335.39,-903.21 347,-904.42 432.83,-913.42 530.51,-920.26 602.44,-924.66"/>
<polygon fill="#757575" stroke="#757575" points="602.67,-928.18 612.86,-925.29 603.09,-921.19 602.67,-928.18"/>
</g>
<!-- handlers/credential.handler.ts -->
<g id="node11" class="node">
<title>handlers/credential.handler.ts</title>
<path fill="none" stroke="#c6c5fe" d="M796.83,-1421.92C796.83,-1421.92 619.17,-1421.92 619.17,-1421.92 615.33,-1421.92 611.5,-1418.09 611.5,-1414.26 611.5,-1414.26 611.5,-1406.59 611.5,-1406.59 611.5,-1402.76 615.33,-1398.92 619.17,-1398.92 619.17,-1398.92 796.83,-1398.92 796.83,-1398.92 800.67,-1398.92 804.5,-1402.76 804.5,-1406.59 804.5,-1406.59 804.5,-1414.26 804.5,-1414.26 804.5,-1418.09 800.67,-1421.92 796.83,-1421.92"/>
<text text-anchor="middle" x="708" y="-1406.72" font-family="Arial" font-size="14.00" fill="#c6c5fe">handlers/credential.handler.ts</text>
</g>
<!-- handlers/index.ts&#45;&gt;handlers/credential.handler.ts -->
<g id="edge20" class="edge">
<title>handlers/index.ts&#45;&gt;handlers/credential.handler.ts</title>
<path fill="none" stroke="#757575" d="M255.6,-903.28C272.56,-965.67 360.48,-1257.81 550,-1384.42 565.29,-1394.63 583.23,-1401.29 601.42,-1405.56"/>
<polygon fill="#757575" stroke="#757575" points="600.74,-1408.99 611.24,-1407.63 602.18,-1402.14 600.74,-1408.99"/>
</g>
<!-- handlers/credentialOffer.handler.ts -->
<g id="node13" class="node">
<title>handlers/credentialOffer.handler.ts</title>
<path fill="none" stroke="#c6c5fe" d="M811.83,-900.92C811.83,-900.92 604.17,-900.92 604.17,-900.92 600.33,-900.92 596.5,-897.09 596.5,-893.26 596.5,-893.26 596.5,-885.59 596.5,-885.59 596.5,-881.76 600.33,-877.92 604.17,-877.92 604.17,-877.92 811.83,-877.92 811.83,-877.92 815.67,-877.92 819.5,-881.76 819.5,-885.59 819.5,-885.59 819.5,-893.26 819.5,-893.26 819.5,-897.09 815.67,-900.92 811.83,-900.92"/>
<text text-anchor="middle" x="708" y="-885.72" font-family="Arial" font-size="14.00" fill="#c6c5fe">handlers/credentialOffer.handler.ts</text>
</g>
<!-- handlers/index.ts&#45;&gt;handlers/credentialOffer.handler.ts -->
<g id="edge21" class="edge">
<title>handlers/index.ts&#45;&gt;handlers/credentialOffer.handler.ts</title>
<path fill="none" stroke="#757575" d="M311.45,-891.16C380.72,-890.86 497.45,-890.34 586.19,-889.95"/>
<polygon fill="#757575" stroke="#757575" points="586.34,-893.45 596.32,-889.91 586.31,-886.45 586.34,-893.45"/>
</g>
<!-- handlers/nonce.handler.ts -->
<g id="node15" class="node">
<title>handlers/nonce.handler.ts</title>
<path fill="none" stroke="#c6c5fe" d="M785.83,-687.92C785.83,-687.92 630.17,-687.92 630.17,-687.92 626.33,-687.92 622.5,-684.09 622.5,-680.26 622.5,-680.26 622.5,-672.59 622.5,-672.59 622.5,-668.76 626.33,-664.92 630.17,-664.92 630.17,-664.92 785.83,-664.92 785.83,-664.92 789.67,-664.92 793.5,-668.76 793.5,-672.59 793.5,-672.59 793.5,-680.26 793.5,-680.26 793.5,-684.09 789.67,-687.92 785.83,-687.92"/>
<text text-anchor="middle" x="708" y="-672.72" font-family="Arial" font-size="14.00" fill="#c6c5fe">handlers/nonce.handler.ts</text>
</g>
<!-- handlers/index.ts&#45;&gt;handlers/nonce.handler.ts -->
<g id="edge22" class="edge">
<title>handlers/index.ts&#45;&gt;handlers/nonce.handler.ts</title>
<path fill="none" stroke="#757575" d="M287.08,-879.89C337.84,-862.54 435.05,-827.64 514,-789.42 575.86,-759.48 644.44,-716.92 680.88,-693.51"/>
<polygon fill="#757575" stroke="#757575" points="682.92,-696.35 689.43,-687.99 679.13,-690.47 682.92,-696.35"/>
</g>
<!-- handlers/oauthAuthorizationServer.handler.ts -->
<g id="node16" class="node">
<title>handlers/oauthAuthorizationServer.handler.ts</title>
<path fill="none" stroke="#c6c5fe" d="M843.33,-363.92C843.33,-363.92 572.67,-363.92 572.67,-363.92 568.83,-363.92 565,-360.09 565,-356.26 565,-356.26 565,-348.59 565,-348.59 565,-344.76 568.83,-340.92 572.67,-340.92 572.67,-340.92 843.33,-340.92 843.33,-340.92 847.17,-340.92 851,-344.76 851,-348.59 851,-348.59 851,-356.26 851,-356.26 851,-360.09 847.17,-363.92 843.33,-363.92"/>
<text text-anchor="middle" x="708" y="-348.72" font-family="Arial" font-size="14.00" fill="#c6c5fe">handlers/oauthAuthorizationServer.handler.ts</text>
</g>
<!-- handlers/index.ts&#45;&gt;handlers/oauthAuthorizationServer.handler.ts -->
<g id="edge23" class="edge">
<title>handlers/index.ts&#45;&gt;handlers/oauthAuthorizationServer.handler.ts</title>
<path fill="none" stroke="#757575" d="M255.76,-879.71C273.57,-818.06 365.11,-528.73 550,-391.42 564.74,-380.47 582.2,-372.57 600.02,-366.88"/>
<polygon fill="#757575" stroke="#757575" points="601.35,-370.13 609.94,-363.94 599.36,-363.42 601.35,-370.13"/>
</g>
<!-- handlers/openidCredentialIssuer.handler.ts -->
<g id="node17" class="node">
<title>handlers/openidCredentialIssuer.handler.ts</title>
<path fill="none" stroke="#c6c5fe" d="M836.33,-423.92C836.33,-423.92 579.67,-423.92 579.67,-423.92 575.83,-423.92 572,-420.09 572,-416.26 572,-416.26 572,-408.59 572,-408.59 572,-404.76 575.83,-400.92 579.67,-400.92 579.67,-400.92 836.33,-400.92 836.33,-400.92 840.17,-400.92 844,-404.76 844,-408.59 844,-408.59 844,-416.26 844,-416.26 844,-420.09 840.17,-423.92 836.33,-423.92"/>
<text text-anchor="middle" x="708" y="-408.72" font-family="Arial" font-size="14.00" fill="#c6c5fe">handlers/openidCredentialIssuer.handler.ts</text>
</g>
<!-- handlers/index.ts&#45;&gt;handlers/openidCredentialIssuer.handler.ts -->
<g id="edge24" class="edge">
<title>handlers/index.ts&#45;&gt;handlers/openidCredentialIssuer.handler.ts</title>
<path fill="none" stroke="#757575" d="M259.74,-879.83C273.77,-858.39 306.86,-812.6 347,-789.42 412.92,-751.36 456.58,-801.39 514,-751.42 548.06,-721.78 529.67,-696.74 550,-656.42 594.27,-568.61 662.33,-472.82 692.15,-432.3"/>
<polygon fill="#757575" stroke="#757575" points="695.09,-434.2 698.23,-424.08 689.47,-430.03 695.09,-434.2"/>
</g>
<!-- handlers/pushedAuthorizationRequest.handler.ts -->
<g id="node18" class="node">
<title>handlers/pushedAuthorizationRequest.handler.ts</title>
<path fill="none" stroke="#c6c5fe" d="M854.33,-1105.92C854.33,-1105.92 561.67,-1105.92 561.67,-1105.92 557.83,-1105.92 554,-1102.09 554,-1098.26 554,-1098.26 554,-1090.59 554,-1090.59 554,-1086.76 557.83,-1082.92 561.67,-1082.92 561.67,-1082.92 854.33,-1082.92 854.33,-1082.92 858.17,-1082.92 862,-1086.76 862,-1090.59 862,-1090.59 862,-1098.26 862,-1098.26 862,-1102.09 858.17,-1105.92 854.33,-1105.92"/>
<text text-anchor="middle" x="708" y="-1090.72" font-family="Arial" font-size="14.00" fill="#c6c5fe">handlers/pushedAuthorizationRequest.handler.ts</text>
</g>
<!-- handlers/index.ts&#45;&gt;handlers/pushedAuthorizationRequest.handler.ts -->
<g id="edge25" class="edge">
<title>handlers/index.ts&#45;&gt;handlers/pushedAuthorizationRequest.handler.ts</title>
<path fill="none" stroke="#757575" d="M258.35,-903C271.09,-927.06 303.72,-982.68 347,-1012.42 404.41,-1051.87 477.95,-1072.61 543.58,-1083.41"/>
<polygon fill="#757575" stroke="#757575" points="543.2,-1086.89 553.62,-1084.99 544.29,-1079.97 543.2,-1086.89"/>
</g>
<!-- handlers/token.handler.ts -->
<g id="node19" class="node">
<title>handlers/token.handler.ts</title>
<path fill="none" stroke="#c6c5fe" d="M506.33,-1002.92C506.33,-1002.92 354.67,-1002.92 354.67,-1002.92 350.83,-1002.92 347,-999.09 347,-995.26 347,-995.26 347,-987.59 347,-987.59 347,-983.76 350.83,-979.92 354.67,-979.92 354.67,-979.92 506.33,-979.92 506.33,-979.92 510.17,-979.92 514,-983.76 514,-987.59 514,-987.59 514,-995.26 514,-995.26 514,-999.09 510.17,-1002.92 506.33,-1002.92"/>
<text text-anchor="middle" x="430.5" y="-987.72" font-family="Arial" font-size="14.00" fill="#c6c5fe">handlers/token.handler.ts</text>
</g>
<!-- handlers/index.ts&#45;&gt;handlers/token.handler.ts -->
<g id="edge26" class="edge">
<title>handlers/index.ts&#45;&gt;handlers/token.handler.ts</title>
<path fill="none" stroke="#757575" d="M273.15,-903.09C304.46,-920.78 364.08,-954.46 399.97,-974.74"/>
<polygon fill="#757575" stroke="#757575" points="398.55,-977.96 408.98,-979.83 402,-971.86 398.55,-977.96"/>
</g>
<!-- errors.ts -->
<g id="node7" class="node">
<title>errors.ts</title>
<path fill="none" stroke="#cfffac" d="M2101.33,-1025.92C2101.33,-1025.92 2050.67,-1025.92 2050.67,-1025.92 2046.83,-1025.92 2043,-1022.09 2043,-1018.26 2043,-1018.26 2043,-1010.59 2043,-1010.59 2043,-1006.76 2046.83,-1002.92 2050.67,-1002.92 2050.67,-1002.92 2101.33,-1002.92 2101.33,-1002.92 2105.17,-1002.92 2109,-1006.76 2109,-1010.59 2109,-1010.59 2109,-1018.26 2109,-1018.26 2109,-1022.09 2105.17,-1025.92 2101.33,-1025.92"/>
<text text-anchor="middle" x="2076" y="-1010.72" font-family="Arial" font-size="14.00" fill="#cfffac">errors.ts</text>
</g>
<!-- handlers/authorize.handler.ts&#45;&gt;config.ts -->
<g id="edge5" class="edge">
<title>handlers/authorize.handler.ts&#45;&gt;config.ts</title>
<path fill="none" stroke="#757575" d="M803.22,-933.67C825.47,-930.5 847.94,-923.66 866,-910.42 896.79,-887.85 872.76,-856.97 902,-832.42 954.61,-788.25 1036.32,-776.24 1086.02,-773.18"/>
<polygon fill="#757575" stroke="#757575" points="1086.31,-776.67 1096.12,-772.66 1085.95,-769.68 1086.31,-776.67"/>
</g>
<!-- handlers/authorize.handler.ts&#45;&gt;resources.ts -->
<g id="edge8" class="edge">
<title>handlers/authorize.handler.ts&#45;&gt;resources.ts</title>
<path fill="none" stroke="#757575" d="M803.07,-936.4C964.24,-944.42 1283.06,-949.83 1358,-873.42 1440.19,-789.62 1316.28,-434.39 1394,-346.42 1475.55,-254.13 1994.69,-300.21 1995,-300.42 2057.04,-342.88 2070.97,-441.03 2074.1,-484.74"/>
<polygon fill="#757575" stroke="#757575" points="2070.61,-485.07 2074.69,-494.85 2077.6,-484.66 2070.61,-485.07"/>
</g>
<!-- handlers/authorize.handler.ts&#45;&gt;errors.ts -->
<g id="edge6" class="edge">
<title>handlers/authorize.handler.ts&#45;&gt;errors.ts</title>
<path fill="none" stroke="#757575" d="M803.23,-932.18C824.76,-935.48 846.91,-941.35 866,-951.42 887.15,-962.58 881.38,-979.3 902,-991.42 1188.52,-1159.91 1300.71,-1121.07 1631,-1158.42 1711.38,-1167.51 1929.04,-1205.24 1995,-1158.42 2034.54,-1130.35 2004.49,-1096.03 2031,-1055.42 2036.45,-1047.08 2043.95,-1039.25 2051.22,-1032.72"/>
<polygon fill="#757575" stroke="#757575" points="2053.56,-1035.33 2058.91,-1026.18 2049.02,-1030 2053.56,-1035.33"/>
</g>
<!-- handlers/schemas/authorizeHandlerConfig.schema.ts -->
<g id="node9" class="node">
<title>handlers/schemas/authorizeHandlerConfig.schema.ts</title>
<path fill="none" stroke="#cfffac" d="M1291.33,-1186.92C1291.33,-1186.92 968.67,-1186.92 968.67,-1186.92 964.83,-1186.92 961,-1183.09 961,-1179.26 961,-1179.26 961,-1171.59 961,-1171.59 961,-1167.76 964.83,-1163.92 968.67,-1163.92 968.67,-1163.92 1291.33,-1163.92 1291.33,-1163.92 1295.17,-1163.92 1299,-1167.76 1299,-1171.59 1299,-1171.59 1299,-1179.26 1299,-1179.26 1299,-1183.09 1295.17,-1186.92 1291.33,-1186.92"/>
<text text-anchor="middle" x="1130" y="-1171.72" font-family="Arial" font-size="14.00" fill="#cfffac">handlers/schemas/authorizeHandlerConfig.schema.ts</text>
</g>
<!-- handlers/authorize.handler.ts&#45;&gt;handlers/schemas/authorizeHandlerConfig.schema.ts -->
<g id="edge7" class="edge">
<title>handlers/authorize.handler.ts&#45;&gt;handlers/schemas/authorizeHandlerConfig.schema.ts</title>
<path fill="none" stroke="#757575" d="M803.34,-924.47C826.37,-927.64 849.19,-935.38 866,-951.42 930.71,-1013.17 836.71,-1088.29 902,-1149.42 941.89,-1186.77 1004.58,-1191.45 1053.99,-1187.81"/>
<polygon fill="#757575" stroke="#757575" points="1054.33,-1191.29 1063.99,-1186.94 1053.73,-1184.32 1054.33,-1191.29"/>
</g>
<!-- statements/index.ts -->
<g id="node10" class="node">
<title>statements/index.ts</title>
<path fill="none" stroke="#c6c5fe" d="M1189.33,-981.92C1189.33,-981.92 1070.67,-981.92 1070.67,-981.92 1066.83,-981.92 1063,-978.09 1063,-974.26 1063,-974.26 1063,-966.59 1063,-966.59 1063,-962.76 1066.83,-958.92 1070.67,-958.92 1070.67,-958.92 1189.33,-958.92 1189.33,-958.92 1193.17,-958.92 1197,-962.76 1197,-966.59 1197,-966.59 1197,-974.26 1197,-974.26 1197,-978.09 1193.17,-981.92 1189.33,-981.92"/>
<text text-anchor="middle" x="1130" y="-966.72" font-family="Arial" font-size="14.00" fill="#c6c5fe">statements/index.ts</text>
</g>
<!-- handlers/authorize.handler.ts&#45;&gt;statements/index.ts -->
<g id="edge9" class="edge">
<title>handlers/authorize.handler.ts&#45;&gt;statements/index.ts</title>
<path fill="none" stroke="#757575" d="M803.26,-939.4C878.52,-946.57 982.63,-956.48 1052.72,-963.16"/>
<polygon fill="#757575" stroke="#757575" points="1052.52,-966.65 1062.8,-964.12 1053.18,-959.69 1052.52,-966.65"/>
</g>
<!-- statements/grants/index.ts -->
<g id="node29" class="node">
<title>statements/grants/index.ts</title>
<path fill="none" stroke="#c6c5fe" d="M1574.33,-429.92C1574.33,-429.92 1414.67,-429.92 1414.67,-429.92 1410.83,-429.92 1407,-426.09 1407,-422.26 1407,-422.26 1407,-414.59 1407,-414.59 1407,-410.76 1410.83,-406.92 1414.67,-406.92 1414.67,-406.92 1574.33,-406.92 1574.33,-406.92 1578.17,-406.92 1582,-410.76 1582,-414.59 1582,-414.59 1582,-422.26 1582,-422.26 1582,-426.09 1578.17,-429.92 1574.33,-429.92"/>
<text text-anchor="middle" x="1494.5" y="-414.72" font-family="Arial" font-size="14.00" fill="#c6c5fe">statements/grants/index.ts</text>
</g>
<!-- statements/index.ts&#45;&gt;statements/grants/index.ts -->
<g id="edge59" class="edge">
<title>statements/index.ts&#45;&gt;statements/grants/index.ts</title>
<path fill="none" stroke="#757575" d="M1187.25,-981.94C1239.29,-988.97 1314.9,-989.38 1358,-944.42 1435.24,-863.84 1322.25,-528.92 1394,-443.42 1396.36,-440.61 1398.99,-438.09 1401.82,-435.82"/>
<polygon fill="#757575" stroke="#757575" points="1403.96,-438.61 1410.31,-430.13 1400.06,-432.79 1403.96,-438.61"/>
</g>
<!-- statements/locations/index.ts -->
<g id="node30" class="node">
<title>statements/locations/index.ts</title>
<path fill="none" stroke="#c6c5fe" d="M1582.33,-475.92C1582.33,-475.92 1406.67,-475.92 1406.67,-475.92 1402.83,-475.92 1399,-472.09 1399,-468.26 1399,-468.26 1399,-460.59 1399,-460.59 1399,-456.76 1402.83,-452.92 1406.67,-452.92 1406.67,-452.92 1582.33,-452.92 1582.33,-452.92 1586.17,-452.92 1590,-456.76 1590,-460.59 1590,-460.59 1590,-468.26 1590,-468.26 1590,-472.09 1586.17,-475.92 1582.33,-475.92"/>
<text text-anchor="middle" x="1494.5" y="-460.72" font-family="Arial" font-size="14.00" fill="#c6c5fe">statements/locations/index.ts</text>
</g>
<!-- statements/index.ts&#45;&gt;statements/locations/index.ts -->
<g id="edge60" class="edge">
<title>statements/index.ts&#45;&gt;statements/locations/index.ts</title>
<path fill="none" stroke="#757575" d="M1189.21,-981.94C1240.95,-988.49 1314.89,-988.12 1358,-944.42 1414,-887.66 1363.66,-661.16 1394,-587.42 1411.56,-544.75 1448.93,-505.11 1472.54,-482.9"/>
<polygon fill="#757575" stroke="#757575" points="1474.98,-485.41 1479.97,-476.06 1470.24,-480.26 1474.98,-485.41"/>
</g>
<!-- statements/resources/index.ts -->
<g id="node31" class="node">
<title>statements/resources/index.ts</title>
<path fill="none" stroke="#c6c5fe" d="M1585.33,-378.92C1585.33,-378.92 1403.67,-378.92 1403.67,-378.92 1399.83,-378.92 1396,-375.09 1396,-371.26 1396,-371.26 1396,-363.59 1396,-363.59 1396,-359.76 1399.83,-355.92 1403.67,-355.92 1403.67,-355.92 1585.33,-355.92 1585.33,-355.92 1589.17,-355.92 1593,-359.76 1593,-363.59 1593,-363.59 1593,-371.26 1593,-371.26 1593,-375.09 1589.17,-378.92 1585.33,-378.92"/>
<text text-anchor="middle" x="1494.5" y="-363.72" font-family="Arial" font-size="14.00" fill="#c6c5fe">statements/resources/index.ts</text>
</g>
<!-- statements/index.ts&#45;&gt;statements/resources/index.ts -->
<g id="edge61" class="edge">
<title>statements/index.ts&#45;&gt;statements/resources/index.ts</title>
<path fill="none" stroke="#757575" d="M1186.82,-981.93C1238.91,-989.07 1314.9,-989.65 1358,-944.42 1442.03,-856.23 1318.18,-492.77 1394,-397.42 1398.3,-392.01 1403.54,-387.55 1409.34,-383.88"/>
<polygon fill="#757575" stroke="#757575" points="1411.11,-386.9 1418.21,-379.03 1407.75,-380.76 1411.11,-386.9"/>
</g>
<!-- statements/tokens/index.ts -->
<g id="node32" class="node">
<title>statements/tokens/index.ts</title>
<path fill="none" stroke="#c6c5fe" d="M1575.33,-619.92C1575.33,-619.92 1413.67,-619.92 1413.67,-619.92 1409.83,-619.92 1406,-616.09 1406,-612.26 1406,-612.26 1406,-604.59 1406,-604.59 1406,-600.76 1409.83,-596.92 1413.67,-596.92 1413.67,-596.92 1575.33,-596.92 1575.33,-596.92 1579.17,-596.92 1583,-600.76 1583,-604.59 1583,-604.59 1583,-612.26 1583,-612.26 1583,-616.09 1579.17,-619.92 1575.33,-619.92"/>
<text text-anchor="middle" x="1494.5" y="-604.72" font-family="Arial" font-size="14.00" fill="#c6c5fe">statements/tokens/index.ts</text>
</g>
<!-- statements/index.ts&#45;&gt;statements/tokens/index.ts -->
<g id="edge62" class="edge">
<title>statements/index.ts&#45;&gt;statements/tokens/index.ts</title>
<path fill="none" stroke="#757575" d="M1197.23,-979.72C1246.41,-982.93 1312.55,-979.03 1358,-944.42 1462.59,-864.79 1486.72,-691.24 1492.05,-630.19"/>
<polygon fill="#757575" stroke="#757575" points="1495.55,-630.4 1492.84,-620.15 1488.57,-629.85 1495.55,-630.4"/>
</g>
<!-- statements/validations/index.ts -->
<g id="node33" class="node">
<title>statements/validations/index.ts</title>
<path fill="none" stroke="#c6c5fe" d="M1587.33,-982.92C1587.33,-982.92 1401.67,-982.92 1401.67,-982.92 1397.83,-982.92 1394,-979.09 1394,-975.26 1394,-975.26 1394,-967.59 1394,-967.59 1394,-963.76 1397.83,-959.92 1401.67,-959.92 1401.67,-959.92 1587.33,-959.92 1587.33,-959.92 1591.17,-959.92 1595,-963.76 1595,-967.59 1595,-967.59 1595,-975.26 1595,-975.26 1595,-979.09 1591.17,-982.92 1587.33,-982.92"/>
<text text-anchor="middle" x="1494.5" y="-967.72" font-family="Arial" font-size="14.00" fill="#c6c5fe">statements/validations/index.ts</text>
</g>
<!-- statements/index.ts&#45;&gt;statements/validations/index.ts -->
<g id="edge63" class="edge">
<title>statements/index.ts&#45;&gt;statements/validations/index.ts</title>
<path fill="none" stroke="#757575" d="M1197.07,-970.6C1249.1,-970.75 1322.77,-970.95 1383.64,-971.12"/>
<polygon fill="#757575" stroke="#757575" points="1383.68,-974.62 1393.69,-971.15 1383.7,-967.62 1383.68,-974.62"/>
</g>
<!-- handlers/credential.handler.ts&#45;&gt;config.ts -->
<g id="edge10" class="edge">
<title>handlers/credential.handler.ts&#45;&gt;config.ts</title>
<path fill="none" stroke="#757575" d="M717.25,-1398.76C743.95,-1360.39 828.39,-1233.74 866,-1115.42 885.21,-1055.01 860.22,-880.11 902,-832.42 947.99,-779.93 1033.99,-770.81 1085.92,-770.53"/>
<polygon fill="#757575" stroke="#757575" points="1086.12,-774.03 1096.14,-770.59 1086.16,-767.03 1086.12,-774.03"/>
</g>
<!-- handlers/credential.handler.ts&#45;&gt;errors.ts -->
<g id="edge11" class="edge">
<title>handlers/credential.handler.ts&#45;&gt;errors.ts</title>
<path fill="none" stroke="#757575" d="M804.75,-1412.36C1095.53,-1417.81 1951.22,-1430.36 1995,-1390.42 2050.31,-1339.96 1997.5,-1122.38 2031,-1055.42 2035.39,-1046.64 2042.49,-1038.78 2049.72,-1032.35"/>
<polygon fill="#757575" stroke="#757575" points="2051.99,-1035.02 2057.48,-1025.96 2047.54,-1029.61 2051.99,-1035.02"/>
</g>
<!-- handlers/credential.handler.ts&#45;&gt;statements/index.ts -->
<g id="edge13" class="edge">
<title>handlers/credential.handler.ts&#45;&gt;statements/index.ts</title>
<path fill="none" stroke="#757575" d="M716.39,-1398.73C740.44,-1361.11 819.7,-1240.73 902,-1155.42 968.54,-1086.45 1060.17,-1018.74 1103.86,-987.83"/>
<polygon fill="#757575" stroke="#757575" points="1106.02,-990.6 1112.19,-981.98 1101.99,-984.87 1106.02,-990.6"/>
</g>
<!-- handlers/schemas/credentialHandlerConfig.schema.ts -->
<g id="node12" class="node">
<title>handlers/schemas/credentialHandlerConfig.schema.ts</title>
<path fill="none" stroke="#cfffac" d="M1292.83,-1460.92C1292.83,-1460.92 967.17,-1460.92 967.17,-1460.92 963.33,-1460.92 959.5,-1457.09 959.5,-1453.26 959.5,-1453.26 959.5,-1445.59 959.5,-1445.59 959.5,-1441.76 963.33,-1437.92 967.17,-1437.92 967.17,-1437.92 1292.83,-1437.92 1292.83,-1437.92 1296.67,-1437.92 1300.5,-1441.76 1300.5,-1445.59 1300.5,-1445.59 1300.5,-1453.26 1300.5,-1453.26 1300.5,-1457.09 1296.67,-1460.92 1292.83,-1460.92"/>
<text text-anchor="middle" x="1130" y="-1445.72" font-family="Arial" font-size="14.00" fill="#cfffac">handlers/schemas/credentialHandlerConfig.schema.ts</text>
</g>
<!-- handlers/credential.handler.ts&#45;&gt;handlers/schemas/credentialHandlerConfig.schema.ts -->
<g id="edge12" class="edge">
<title>handlers/credential.handler.ts&#45;&gt;handlers/schemas/credentialHandlerConfig.schema.ts</title>
<path fill="none" stroke="#757575" d="M804.57,-1419.3C860.86,-1424.52 932.95,-1431.22 994.87,-1436.97"/>
<polygon fill="#757575" stroke="#757575" points="994.83,-1440.48 1005.11,-1437.92 995.48,-1433.51 994.83,-1440.48"/>
</g>
<!-- handlers/credentialOffer.handler.ts&#45;&gt;config.ts -->
<g id="edge14" class="edge">
<title>handlers/credentialOffer.handler.ts&#45;&gt;config.ts</title>
<path fill="none" stroke="#757575" d="M819.54,-884.06C836.11,-879.7 852.23,-873.14 866,-863.42 892.98,-844.38 874.55,-816.78 902,-798.42 957.14,-761.54 1037.11,-761.75 1085.93,-766.33"/>
<polygon fill="#757575" stroke="#757575" points="1085.85,-769.84 1096.16,-767.39 1086.57,-762.88 1085.85,-769.84"/>
</g>
<!-- handlers/credentialOffer.handler.ts&#45;&gt;resources.ts -->
<g id="edge17" class="edge">
<title>handlers/credentialOffer.handler.ts&#45;&gt;resources.ts</title>
<path fill="none" stroke="#757575" d="M815.5,-877.91C832.83,-873.93 850.25,-868.59 866,-861.42 884.7,-852.91 882.93,-840.08 902,-832.42 996.38,-794.54 1286.57,-865.82 1358,-793.42 1436.24,-714.12 1316.72,-373.65 1394,-293.42 1460.41,-224.48 1959.73,-242.03 1995,-267.42 2066.16,-318.65 2074.94,-436.12 2075.39,-484.74"/>
<polygon fill="#757575" stroke="#757575" points="2071.89,-484.78 2075.37,-494.78 2078.89,-484.79 2071.89,-484.78"/>
</g>
<!-- handlers/credentialOffer.handler.ts&#45;&gt;errors.ts -->
<g id="edge15" class="edge">
<title>handlers/credentialOffer.handler.ts&#45;&gt;errors.ts</title>
<path fill="none" stroke="#757575" d="M819.61,-886.01C1112.23,-877.73 1891.39,-860.86 1995,-912.42 2029.35,-929.52 2053.43,-969.09 2065.69,-993.61"/>
<polygon fill="#757575" stroke="#757575" points="2062.6,-995.28 2070.07,-1002.79 2068.92,-992.26 2062.6,-995.28"/>
</g>
<!-- handlers/credentialOffer.handler.ts&#45;&gt;statements/index.ts -->
<g id="edge18" class="edge">
<title>handlers/credentialOffer.handler.ts&#45;&gt;statements/index.ts</title>
<path fill="none" stroke="#757575" d="M805.95,-900.98C825.86,-903.75 846.65,-906.93 866,-910.42 938.52,-923.52 1021.26,-943.18 1074.25,-956.39"/>
<polygon fill="#757575" stroke="#757575" points="1073.56,-959.83 1084.12,-958.87 1075.27,-953.04 1073.56,-959.83"/>
</g>
<!-- handlers/schemas/credentialOfferHandlerConfig.schema.ts -->
<g id="node14" class="node">
<title>handlers/schemas/credentialOfferHandlerConfig.schema.ts</title>
<path fill="none" stroke="#cfffac" d="M1308.33,-863.92C1308.33,-863.92 951.67,-863.92 951.67,-863.92 947.83,-863.92 944,-860.09 944,-856.26 944,-856.26 944,-848.59 944,-848.59 944,-844.76 947.83,-840.92 951.67,-840.92 951.67,-840.92 1308.33,-840.92 1308.33,-840.92 1312.17,-840.92 1316,-844.76 1316,-848.59 1316,-848.59 1316,-856.26 1316,-856.26 1316,-860.09 1312.17,-863.92 1308.33,-863.92"/>
<text text-anchor="middle" x="1130" y="-848.72" font-family="Arial" font-size="14.00" fill="#cfffac">handlers/schemas/credentialOfferHandlerConfig.schema.ts</text>
</g>
<!-- handlers/credentialOffer.handler.ts&#45;&gt;handlers/schemas/credentialOfferHandlerConfig.schema.ts -->
<g id="edge16" class="edge">
<title>handlers/credentialOffer.handler.ts&#45;&gt;handlers/schemas/credentialOfferHandlerConfig.schema.ts</title>
<path fill="none" stroke="#757575" d="M819.62,-879.68C871.22,-875.13 933.21,-869.67 988.12,-864.83"/>
<polygon fill="#757575" stroke="#757575" points="988.63,-868.3 998.28,-863.94 988.01,-861.33 988.63,-868.3"/>
</g>
<!-- handlers/nonce.handler.ts&#45;&gt;config.ts -->
<g id="edge27" class="edge">
<title>handlers/nonce.handler.ts&#45;&gt;config.ts</title>
<path fill="none" stroke="#757575" d="M793.88,-679.27C818.4,-682.98 844.36,-689.9 866,-702.42 887.87,-715.08 879.82,-734.32 902,-746.42 959.9,-778.02 1038.37,-779.54 1086.25,-776.72"/>
<polygon fill="#757575" stroke="#757575" points="1086.53,-780.21 1096.27,-776.04 1086.06,-773.23 1086.53,-780.21"/>
</g>
<!-- handlers/nonce.handler.ts&#45;&gt;resources.ts -->
<g id="edge30" class="edge">
<title>handlers/nonce.handler.ts&#45;&gt;resources.ts</title>
<path fill="none" stroke="#757575" d="M720.11,-664.64C780.6,-601.48 1079.08,-302.02 1394,-200.42 1467.08,-176.84 1964.25,-172.6 1995,-196.42 2041.43,-232.39 2065.72,-420.2 2072.78,-484.67"/>
<polygon fill="#757575" stroke="#757575" points="2069.33,-485.32 2073.87,-494.89 2076.29,-484.57 2069.33,-485.32"/>
</g>
<!-- handlers/nonce.handler.ts&#45;&gt;errors.ts -->
<g id="edge28" class="edge">
<title>handlers/nonce.handler.ts&#45;&gt;errors.ts</title>
<path fill="none" stroke="#757575" d="M793.68,-685.99C943.81,-703.01 1250.9,-738.11 1358,-752.42 1479.61,-768.67 1509.31,-777.77 1631,-793.42 1711.69,-803.8 1929.35,-784.38 1995,-832.42 2048.1,-871.28 2066.48,-953.18 2072.4,-992.48"/>
<polygon fill="#757575" stroke="#757575" points="2068.96,-993.15 2073.79,-1002.58 2075.9,-992.2 2068.96,-993.15"/>
</g>
<!-- handlers/nonce.handler.ts&#45;&gt;statements/index.ts -->
<g id="edge31" class="edge">
<title>handlers/nonce.handler.ts&#45;&gt;statements/index.ts</title>
<path fill="none" stroke="#757575" d="M717.77,-688.19C743.03,-721.38 819.4,-816.94 902,-873.42 958.27,-911.89 1032.23,-940 1080.19,-955.78"/>
<polygon fill="#757575" stroke="#757575" points="1079.13,-959.11 1089.72,-958.86 1081.28,-952.45 1079.13,-959.11"/>
</g>
<!-- handlers/schemas/nonceHandlerConfig.schema.ts -->
<g id="node20" class="node">
<title>handlers/schemas/nonceHandlerConfig.schema.ts</title>
<path fill="none" stroke="#cfffac" d="M1282.33,-687.92C1282.33,-687.92 977.67,-687.92 977.67,-687.92 973.83,-687.92 970,-684.09 970,-680.26 970,-680.26 970,-672.59 970,-672.59 970,-668.76 973.83,-664.92 977.67,-664.92 977.67,-664.92 1282.33,-664.92 1282.33,-664.92 1286.17,-664.92 1290,-668.76 1290,-672.59 1290,-672.59 1290,-680.26 1290,-680.26 1290,-684.09 1286.17,-687.92 1282.33,-687.92"/>
<text text-anchor="middle" x="1130" y="-672.72" font-family="Arial" font-size="14.00" fill="#cfffac">handlers/schemas/nonceHandlerConfig.schema.ts</text>
</g>
<!-- handlers/nonce.handler.ts&#45;&gt;handlers/schemas/nonceHandlerConfig.schema.ts -->
<g id="edge29" class="edge">
<title>handlers/nonce.handler.ts&#45;&gt;handlers/schemas/nonceHandlerConfig.schema.ts</title>
<path fill="none" stroke="#757575" d="M793.74,-676.42C841.32,-676.42 902.43,-676.42 959.41,-676.42"/>
<polygon fill="#757575" stroke="#757575" points="959.62,-679.92 969.62,-676.42 959.62,-672.92 959.62,-679.92"/>
</g>
<!-- handlers/oauthAuthorizationServer.handler.ts&#45;&gt;config.ts -->
<g id="edge32" class="edge">
<title>handlers/oauthAuthorizationServer.handler.ts&#45;&gt;config.ts</title>
<path fill="none" stroke="#757575" d="M825.37,-364.07C840.8,-370.21 855.05,-378.99 866,-391.42 956.52,-494.17 815.43,-591.32 902,-697.42 947.05,-752.63 1033.76,-767.52 1086,-771.34"/>
<polygon fill="#757575" stroke="#757575" points="1086.08,-774.85 1096.28,-771.98 1086.52,-767.87 1086.08,-774.85"/>
</g>
<!-- handlers/oauthAuthorizationServer.handler.ts&#45;&gt;resources.ts -->
<g id="edge34" class="edge">
<title>handlers/oauthAuthorizationServer.handler.ts&#45;&gt;resources.ts</title>
<path fill="none" stroke="#757575" d="M713.1,-340.74C729.06,-297.4 791.61,-145.34 902,-89.42 1024.9,-27.17 1970.56,-108.33 1995,-129.42 2049.56,-176.53 2068.95,-411.42 2073.72,-484.61"/>
<polygon fill="#757575" stroke="#757575" points="2070.25,-485.15 2074.37,-494.92 2077.24,-484.72 2070.25,-485.15"/>
</g>
<!-- handlers/schemas/oauthAuthorizationServerHandlerConfig.schema.ts -->
<g id="node21" class="node">
<title>handlers/schemas/oauthAuthorizationServerHandlerConfig.schema.ts</title>
<path fill="none" stroke="#cfffac" d="M1339.83,-121.92C1339.83,-121.92 920.17,-121.92 920.17,-121.92 916.33,-121.92 912.5,-118.09 912.5,-114.26 912.5,-114.26 912.5,-106.59 912.5,-106.59 912.5,-102.76 916.33,-98.92 920.17,-98.92 920.17,-98.92 1339.83,-98.92 1339.83,-98.92 1343.67,-98.92 1347.5,-102.76 1347.5,-106.59 1347.5,-106.59 1347.5,-114.26 1347.5,-114.26 1347.5,-118.09 1343.67,-121.92 1339.83,-121.92"/>
<text text-anchor="middle" x="1130" y="-106.72" font-family="Arial" font-size="14.00" fill="#cfffac">handlers/schemas/oauthAuthorizationServerHandlerConfig.schema.ts</text>
</g>
<!-- handlers/oauthAuthorizationServer.handler.ts&#45;&gt;handlers/schemas/oauthAuthorizationServerHandlerConfig.schema.ts -->
<g id="edge33" class="edge">
<title>handlers/oauthAuthorizationServer.handler.ts&#45;&gt;handlers/schemas/oauthAuthorizationServerHandlerConfig.schema.ts</title>
<path fill="none" stroke="#757575" d="M715.16,-340.88C735.78,-303.6 806.43,-185.91 902,-136.42 910.21,-132.17 918.81,-128.48 927.66,-125.27"/>
<polygon fill="#757575" stroke="#757575" points="929.01,-128.51 937.35,-121.99 926.76,-121.88 929.01,-128.51"/>
</g>
<!-- handlers/openidCredentialIssuer.handler.ts&#45;&gt;config.ts -->
<g id="edge35" class="edge">
<title>handlers/openidCredentialIssuer.handler.ts&#45;&gt;config.ts</title>
<path fill="none" stroke="#757575" d="M716.25,-424.06C748.13,-475.08 875.37,-677.29 902,-697.42 957.48,-739.37 1037.6,-758.54 1086.32,-766.77"/>
<polygon fill="#757575" stroke="#757575" points="1085.79,-770.23 1096.22,-768.37 1086.91,-763.32 1085.79,-770.23"/>
</g>
<!-- handlers/openidCredentialIssuer.handler.ts&#45;&gt;resources.ts -->
<g id="edge37" class="edge">
<title>handlers/openidCredentialIssuer.handler.ts&#45;&gt;resources.ts</title>
<path fill="none" stroke="#757575" d="M821.2,-400.79C838.06,-394.57 853.85,-385.51 866,-372.42 928.35,-305.28 832.74,-229.42 902,-169.42 961.96,-117.47 1961.47,-126.64 1995,-153.42 2047.56,-195.4 2068.16,-414.03 2073.5,-484.5"/>
<polygon fill="#757575" stroke="#757575" points="2070.03,-485.12 2074.25,-494.84 2077.01,-484.61 2070.03,-485.12"/>
</g>
<!-- handlers/schemas/openidCredentialIssuerHandlerConfig.schema.ts -->
<g id="node22" class="node">
<title>handlers/schemas/openidCredentialIssuerHandlerConfig.schema.ts</title>
<path fill="none" stroke="#cfffac" d="M1333.33,-201.92C1333.33,-201.92 926.67,-201.92 926.67,-201.92 922.83,-201.92 919,-198.09 919,-194.26 919,-194.26 919,-186.59 919,-186.59 919,-182.76 922.83,-178.92 926.67,-178.92 926.67,-178.92 1333.33,-178.92 1333.33,-178.92 1337.17,-178.92 1341,-182.76 1341,-186.59 1341,-186.59 1341,-194.26 1341,-194.26 1341,-198.09 1337.17,-201.92 1333.33,-201.92"/>
<text text-anchor="middle" x="1130" y="-186.72" font-family="Arial" font-size="14.00" fill="#cfffac">handlers/schemas/openidCredentialIssuerHandlerConfig.schema.ts</text>
</g>
<!-- handlers/openidCredentialIssuer.handler.ts&#45;&gt;handlers/schemas/openidCredentialIssuerHandlerConfig.schema.ts -->
<g id="edge36" class="edge">
<title>handlers/openidCredentialIssuer.handler.ts&#45;&gt;handlers/schemas/openidCredentialIssuerHandlerConfig.schema.ts</title>
<path fill="none" stroke="#757575" d="M819.03,-400.82C836.55,-394.65 853.12,-385.6 866,-372.42 915.74,-321.54 848.93,-263.82 902,-216.42 941.01,-181.58 1000.07,-175.73 1048.16,-178.26"/>
<polygon fill="#757575" stroke="#757575" points="1048.04,-181.75 1058.25,-178.91 1048.5,-174.77 1048.04,-181.75"/>
</g>
<!-- handlers/pushedAuthorizationRequest.handler.ts&#45;&gt;config.ts -->
<g id="edge38" class="edge">
<title>handlers/pushedAuthorizationRequest.handler.ts&#45;&gt;config.ts</title>
<path fill="none" stroke="#757575" d="M855.95,-1082.76C859.5,-1080.27 862.86,-1077.5 866,-1074.42 943.69,-998.34 829.48,-913.45 902,-832.42 948.54,-780.42 1034.36,-771.14 1086.1,-770.69"/>
<polygon fill="#757575" stroke="#757575" points="1086.28,-774.19 1096.29,-770.72 1086.3,-767.19 1086.28,-774.19"/>
</g>
<!-- handlers/pushedAuthorizationRequest.handler.ts&#45;&gt;errors.ts -->
<g id="edge39" class="edge">
<title>handlers/pushedAuthorizationRequest.handler.ts&#45;&gt;errors.ts</title>
<path fill="none" stroke="#757575" d="M717.82,-1106.03C742.63,-1137.61 816.78,-1224.87 902,-1257.42 1015.45,-1300.76 1903.34,-1336.09 1995,-1256.42 2063.5,-1196.89 1987.57,-1135.11 2031,-1055.42 2035.7,-1046.8 2042.88,-1038.99 2050.08,-1032.54"/>
<polygon fill="#757575" stroke="#757575" points="2052.35,-1035.21 2057.8,-1026.12 2047.87,-1029.83 2052.35,-1035.21"/>
</g>
<!-- handlers/pushedAuthorizationRequest.handler.ts&#45;&gt;statements/index.ts -->
<g id="edge41" class="edge">
<title>handlers/pushedAuthorizationRequest.handler.ts&#45;&gt;statements/index.ts</title>
<path fill="none" stroke="#757575" d="M825.37,-1082.92C839.16,-1080.58 852.96,-1077.77 866,-1074.42 952.04,-1052.3 1047.84,-1009.5 1096.62,-986.3"/>
<polygon fill="#757575" stroke="#757575" points="1098.23,-989.41 1105.73,-981.93 1095.2,-983.1 1098.23,-989.41"/>
</g>
<!-- handlers/schemas/pushedAuthorizationRequestHandlerConfig.schema.ts -->
<g id="node23" class="node">
<title>handlers/schemas/pushedAuthorizationRequestHandlerConfig.schema.ts</title>
<path fill="none" stroke="#cfffac" d="M1350.33,-1342.92C1350.33,-1342.92 909.67,-1342.92 909.67,-1342.92 905.83,-1342.92 902,-1339.09 902,-1335.26 902,-1335.26 902,-1327.59 902,-1327.59 902,-1323.76 905.83,-1319.92 909.67,-1319.92 909.67,-1319.92 1350.33,-1319.92 1350.33,-1319.92 1354.17,-1319.92 1358,-1323.76 1358,-1327.59 1358,-1327.59 1358,-1335.26 1358,-1335.26 1358,-1339.09 1354.17,-1342.92 1350.33,-1342.92"/>
<text text-anchor="middle" x="1130" y="-1327.72" font-family="Arial" font-size="14.00" fill="#cfffac">handlers/schemas/pushedAuthorizationRequestHandlerConfig.schema.ts</text>
</g>
<!-- handlers/pushedAuthorizationRequest.handler.ts&#45;&gt;handlers/schemas/pushedAuthorizationRequestHandlerConfig.schema.ts -->
<g id="edge40" class="edge">
<title>handlers/pushedAuthorizationRequest.handler.ts&#45;&gt;handlers/schemas/pushedAuthorizationRequestHandlerConfig.schema.ts</title>
<path fill="none" stroke="#757575" d="M715.39,-1105.95C736.42,-1142.66 807.6,-1257.23 902,-1305.42 910.46,-1309.74 919.32,-1313.48 928.43,-1316.7"/>
<polygon fill="#757575" stroke="#757575" points="927.42,-1320.06 938.01,-1319.89 929.62,-1313.41 927.42,-1320.06"/>
</g>
<!-- handlers/token.handler.ts&#45;&gt;config.ts -->
<g id="edge42" class="edge">
<title>handlers/token.handler.ts&#45;&gt;config.ts</title>
<path fill="none" stroke="#757575" d="M438.71,-979.92C455.06,-954.97 497.59,-895.99 550,-869.42 676.48,-805.31 734.9,-879.45 866,-825.42 884.49,-817.8 883.42,-805.82 902,-798.42 962.65,-774.28 1039.12,-770.44 1086.01,-770.77"/>
<polygon fill="#757575" stroke="#757575" points="1086.08,-774.27 1096.13,-770.9 1086.18,-767.27 1086.08,-774.27"/>
</g>
<!-- handlers/token.handler.ts&#45;&gt;errors.ts -->
<g id="edge43" class="edge">
<title>handlers/token.handler.ts&#45;&gt;errors.ts</title>
<path fill="none" stroke="#757575" d="M440.78,-1003.05C484.89,-1057.18 680.44,-1284.79 902,-1352.42 1095.84,-1411.6 1155.55,-1361.78 1358,-1352.42 1429,-1349.14 1943.31,-1342.21 1995,-1293.42 2072.8,-1219.99 1981.09,-1150.05 2031,-1055.42 2035.58,-1046.74 2042.73,-1038.91 2049.94,-1032.47"/>
<polygon fill="#757575" stroke="#757575" points="2052.21,-1035.13 2057.68,-1026.06 2047.74,-1029.74 2052.21,-1035.13"/>
</g>
<!-- handlers/schemas/tokenHandlerConfig.schema.ts -->
<g id="node24" class="node">
<title>handlers/schemas/tokenHandlerConfig.schema.ts</title>
<path fill="none" stroke="#cfffac" d="M858.33,-1064.92C858.33,-1064.92 557.67,-1064.92 557.67,-1064.92 553.83,-1064.92 550,-1061.09 550,-1057.26 550,-1057.26 550,-1049.59 550,-1049.59 550,-1045.76 553.83,-1041.92 557.67,-1041.92 557.67,-1041.92 858.33,-1041.92 858.33,-1041.92 862.17,-1041.92 866,-1045.76 866,-1049.59 866,-1049.59 866,-1057.26 866,-1057.26 866,-1061.09 862.17,-1064.92 858.33,-1064.92"/>
<text text-anchor="middle" x="708" y="-1049.72" font-family="Arial" font-size="14.00" fill="#cfffac">handlers/schemas/tokenHandlerConfig.schema.ts</text>
</g>
<!-- handlers/token.handler.ts&#45;&gt;handlers/schemas/tokenHandlerConfig.schema.ts -->
<g id="edge44" class="edge">
<title>handlers/token.handler.ts&#45;&gt;handlers/schemas/tokenHandlerConfig.schema.ts</title>
<path fill="none" stroke="#757575" d="M458.77,-1002.97C482.47,-1012.55 517.94,-1025.79 550,-1033.42 560.75,-1035.98 572,-1038.23 583.32,-1040.2"/>
<polygon fill="#757575" stroke="#757575" points="582.84,-1043.67 593.28,-1041.86 583.99,-1036.77 582.84,-1043.67"/>
</g>
<!-- handlers/token/authorizationCode.ts -->
<g id="node25" class="node">
<title>handlers/token/authorizationCode.ts</title>
<path fill="none" stroke="#c6c5fe" d="M816.83,-982.92C816.83,-982.92 599.17,-982.92 599.17,-982.92 595.33,-982.92 591.5,-979.09 591.5,-975.26 591.5,-975.26 591.5,-967.59 591.5,-967.59 591.5,-963.76 595.33,-959.92 599.17,-959.92 599.17,-959.92 816.83,-959.92 816.83,-959.92 820.67,-959.92 824.5,-963.76 824.5,-967.59 824.5,-967.59 824.5,-975.26 824.5,-975.26 824.5,-979.09 820.67,-982.92 816.83,-982.92"/>
<text text-anchor="middle" x="708" y="-967.72" font-family="Arial" font-size="14.00" fill="#c6c5fe">handlers/token/authorizationCode.ts</text>
</g>
<!-- handlers/token.handler.ts&#45;&gt;handlers/token/authorizationCode.ts -->
<g id="edge45" class="edge">
<title>handlers/token.handler.ts&#45;&gt;handlers/token/authorizationCode.ts</title>
<path fill="none" stroke="#757575" d="M514.16,-985.42C535.28,-983.89 558.48,-982.2 581.23,-980.55"/>
<polygon fill="#757575" stroke="#757575" points="581.57,-984.04 591.3,-979.82 581.07,-977.06 581.57,-984.04"/>
</g>
<!-- handlers/token/clientCredentials.ts -->
<g id="node26" class="node">
<title>handlers/token/clientCredentials.ts</title>
<path fill="none" stroke="#c6c5fe" d="M811.83,-1023.92C811.83,-1023.92 604.17,-1023.92 604.17,-1023.92 600.33,-1023.92 596.5,-1020.09 596.5,-1016.26 596.5,-1016.26 596.5,-1008.59 596.5,-1008.59 596.5,-1004.76 600.33,-1000.92 604.17,-1000.92 604.17,-1000.92 811.83,-1000.92 811.83,-1000.92 815.67,-1000.92 819.5,-1004.76 819.5,-1008.59 819.5,-1008.59 819.5,-1016.26 819.5,-1016.26 819.5,-1020.09 815.67,-1023.92 811.83,-1023.92"/>
<text text-anchor="middle" x="708" y="-1008.72" font-family="Arial" font-size="14.00" fill="#c6c5fe">handlers/token/clientCredentials.ts</text>
</g>
<!-- handlers/token.handler.ts&#45;&gt;handlers/token/clientCredentials.ts -->
<g id="edge46" class="edge">
<title>handlers/token.handler.ts&#45;&gt;handlers/token/clientCredentials.ts</title>
<path fill="none" stroke="#757575" d="M514.16,-997.72C536.87,-999.45 561.96,-1001.37 586.34,-1003.22"/>
<polygon fill="#757575" stroke="#757575" points="586.12,-1006.72 596.36,-1003.99 586.66,-999.74 586.12,-1006.72"/>
</g>
<!-- handlers/token/authorizationCode.ts&#45;&gt;config.ts -->
<g id="edge47" class="edge">
<title>handlers/token/authorizationCode.ts&#45;&gt;config.ts</title>
<path fill="none" stroke="#757575" d="M824.83,-972.18C839.88,-968.02 854.14,-961.45 866,-951.42 908.2,-915.75 862.24,-870.8 902,-832.42 951.83,-784.32 1035.52,-773.64 1086.16,-771.9"/>
<polygon fill="#757575" stroke="#757575" points="1086.53,-775.39 1096.44,-771.65 1086.36,-768.39 1086.53,-775.39"/>
</g>
<!-- handlers/token/authorizationCode.ts&#45;&gt;errors.ts -->
<g id="edge48" class="edge">
<title>handlers/token/authorizationCode.ts&#45;&gt;errors.ts</title>
<path fill="none" stroke="#757575" d="M824.82,-969.86C840.14,-974.27 854.49,-981.38 866,-992.42 932.44,-1056.15 831.47,-1137.25 902,-1196.42 937,-1225.79 1947.46,-1228.32 1995,-1191.42 2044.4,-1153.09 1998.87,-1109.06 2031,-1055.42 2036.12,-1046.87 2043.54,-1039 2050.84,-1032.48"/>
<polygon fill="#757575" stroke="#757575" points="2053.17,-1035.09 2058.58,-1025.98 2048.67,-1029.73 2053.17,-1035.09"/>
</g>
<!-- handlers/token/authorizationCode.ts&#45;&gt;statements/index.ts -->
<g id="edge49" class="edge">
<title>handlers/token/authorizationCode.ts&#45;&gt;statements/index.ts</title>
<path fill="none" stroke="#757575" d="M824.6,-971.15C897.17,-970.97 988.74,-970.76 1052.4,-970.6"/>
<polygon fill="#757575" stroke="#757575" points="1052.77,-974.1 1062.76,-970.58 1052.75,-967.1 1052.77,-974.1"/>
</g>
<!-- handlers/token/clientCredentials.ts&#45;&gt;config.ts -->
<g id="edge50" class="edge">
<title>handlers/token/clientCredentials.ts&#45;&gt;config.ts</title>
<path fill="none" stroke="#757575" d="M819.52,-1015.52C836.67,-1011.42 852.99,-1004.25 866,-992.42 919.92,-943.38 851.42,-884.91 902,-832.42 950.29,-782.3 1035.14,-772.35 1086.3,-771.28"/>
<polygon fill="#757575" stroke="#757575" points="1086.41,-774.78 1096.37,-771.17 1086.34,-767.78 1086.41,-774.78"/>
</g>
<!-- handlers/token/clientCredentials.ts&#45;&gt;errors.ts -->
<g id="edge51" class="edge">
<title>handlers/token/clientCredentials.ts&#45;&gt;errors.ts</title>
<path fill="none" stroke="#757575" d="M819.56,-1009.56C836.82,-1013.79 853.16,-1021.19 866,-1033.42 930.13,-1094.51 833.95,-1172.73 902,-1229.42 948.65,-1268.29 1947.91,-1267.76 1995,-1229.42 2056.24,-1179.56 1992.29,-1124.25 2031,-1055.42 2035.81,-1046.87 2043.02,-1039.07 2050.22,-1032.62"/>
<polygon fill="#757575" stroke="#757575" points="2052.49,-1035.29 2057.91,-1026.19 2048,-1029.92 2052.49,-1035.29"/>
</g>
<!-- handlers/token/clientCredentials.ts&#45;&gt;statements/index.ts -->
<g id="edge52" class="edge">
<title>handlers/token/clientCredentials.ts&#45;&gt;statements/index.ts</title>
<path fill="none" stroke="#757575" d="M819.62,-1001.36C892.99,-994.02 987.38,-984.58 1052.5,-978.07"/>
<polygon fill="#757575" stroke="#757575" points="1053.09,-981.53 1062.7,-977.05 1052.4,-974.56 1053.09,-981.53"/>
</g>
<!-- index.ts -->
<g id="node27" class="node">
<title>index.ts</title>
<path fill="none" stroke="#c6c5fe" d="M55.33,-786.92C55.33,-786.92 7.67,-786.92 7.67,-786.92 3.83,-786.92 0,-783.09 0,-779.26 0,-779.26 0,-771.59 0,-771.59 0,-767.76 3.83,-763.92 7.67,-763.92 7.67,-763.92 55.33,-763.92 55.33,-763.92 59.17,-763.92 63,-767.76 63,-771.59 63,-771.59 63,-779.26 63,-779.26 63,-783.09 59.17,-786.92 55.33,-786.92"/>
<text text-anchor="middle" x="31.5" y="-771.72" font-family="Arial" font-size="14.00" fill="#c6c5fe">index.ts</text>
</g>
<!-- index.ts&#45;&gt;config.ts -->
<g id="edge53" class="edge">
<title>index.ts&#45;&gt;config.ts</title>
<path fill="none" stroke="#757575" d="M63.26,-775.34C217.56,-774.92 906.89,-773.03 1086.24,-772.54"/>
<polygon fill="#757575" stroke="#757575" points="1086.35,-776.04 1096.34,-772.51 1086.33,-769.04 1086.35,-776.04"/>
</g>
<!-- index.ts&#45;&gt;resources.ts -->
<g id="edge56" class="edge">
<title>index.ts&#45;&gt;resources.ts</title>
<path fill="none" stroke="#757575" d="M33.29,-763.75C40.01,-669.23 91.2,-32.42 250.5,-32.42 250.5,-32.42 250.5,-32.42 1495.5,-32.42 1718.7,-32.42 1830.72,66.67 1995,-84.42 2054.77,-139.39 2070.74,-406.26 2074.18,-484.7"/>
<polygon fill="#757575" stroke="#757575" points="2070.69,-485.01 2074.6,-494.86 2077.68,-484.72 2070.69,-485.01"/>
</g>
<!-- index.ts&#45;&gt;core.ts -->
<g id="edge54" class="edge">
<title>index.ts&#45;&gt;core.ts</title>
<path fill="none" stroke="#757575" d="M46.78,-786.96C61.96,-799.24 86.19,-818.83 103.95,-833.19"/>
<polygon fill="#757575" stroke="#757575" points="102.11,-836.21 112.09,-839.77 106.51,-830.76 102.11,-836.21"/>
</g>
<!-- index.ts&#45;&gt;handlers/index.ts -->
<g id="edge55" class="edge">
<title>index.ts&#45;&gt;handlers/index.ts</title>
<path fill="none" stroke="#757575" d="M36.74,-787.08C45.07,-808.12 65.7,-852.13 99,-872.42 123.39,-887.28 154.08,-893 181.45,-894.64"/>
<polygon fill="#757575" stroke="#757575" points="181.62,-898.15 191.76,-895.08 181.92,-891.16 181.62,-898.15"/>
</g>
<!-- statements/grants/generateIssuerGrants.ts -->
<g id="node28" class="node">
<title>statements/grants/generateIssuerGrants.ts</title>
<path fill="none" stroke="#c6c5fe" d="M1942.33,-373.92C1942.33,-373.92 1683.67,-373.92 1683.67,-373.92 1679.83,-373.92 1676,-370.09 1676,-366.26 1676,-366.26 1676,-358.59 1676,-358.59 1676,-354.76 1679.83,-350.92 1683.67,-350.92 1683.67,-350.92 1942.33,-350.92 1942.33,-350.92 1946.17,-350.92 1950,-354.76 1950,-358.59 1950,-358.59 1950,-366.26 1950,-366.26 1950,-370.09 1946.17,-373.92 1942.33,-373.92"/>
<text text-anchor="middle" x="1813" y="-358.72" font-family="Arial" font-size="14.00" fill="#c6c5fe">statements/grants/generateIssuerGrants.ts</text>
</g>
<!-- statements/grants/generateIssuerGrants.ts&#45;&gt;resources.ts -->
<g id="edge57" class="edge">
<title>statements/grants/generateIssuerGrants.ts&#45;&gt;resources.ts</title>
<path fill="none" stroke="#757575" d="M1950.4,-364.16C1966.16,-368.16 1981.42,-374.02 1995,-382.42 2033.62,-406.31 2057.11,-456.55 2067.91,-485.21"/>
<polygon fill="#757575" stroke="#757575" points="2064.64,-486.48 2071.32,-494.71 2071.23,-484.11 2064.64,-486.48"/>
</g>
<!-- statements/grants/index.ts&#45;&gt;statements/grants/generateIssuerGrants.ts -->
<g id="edge58" class="edge">
<title>statements/grants/index.ts&#45;&gt;statements/grants/generateIssuerGrants.ts</title>
<path fill="none" stroke="#757575" d="M1532.83,-406.89C1559.85,-398.94 1597.38,-388.71 1631,-382.42 1645.4,-379.73 1660.52,-377.35 1675.63,-375.27"/>
<polygon fill="#757575" stroke="#757575" points="1676.1,-378.74 1685.55,-373.95 1675.17,-371.8 1676.1,-378.74"/>
</g>
<!-- statements/locations/authorizationCodeRedirection.ts -->
<g id="node34" class="node">
<title>statements/locations/authorizationCodeRedirection.ts</title>
<path fill="none" stroke="#c6c5fe" d="M1973.33,-414.92C1973.33,-414.92 1652.67,-414.92 1652.67,-414.92 1648.83,-414.92 1645,-411.09 1645,-407.26 1645,-407.26 1645,-399.59 1645,-399.59 1645,-395.76 1648.83,-391.92 1652.67,-391.92 1652.67,-391.92 1973.33,-391.92 1973.33,-391.92 1977.17,-391.92 1981,-395.76 1981,-399.59 1981,-399.59 1981,-407.26 1981,-407.26 1981,-411.09 1977.17,-414.92 1973.33,-414.92"/>
<text text-anchor="middle" x="1813" y="-399.72" font-family="Arial" font-size="14.00" fill="#c6c5fe">statements/locations/authorizationCodeRedirection.ts</text>
</g>
<!-- statements/locations/index.ts&#45;&gt;statements/locations/authorizationCodeRedirection.ts -->
<g id="edge69" class="edge">
<title>statements/locations/index.ts&#45;&gt;statements/locations/authorizationCodeRedirection.ts</title>
<path fill="none" stroke="#757575" d="M1545.25,-452.87C1561.27,-448.77 1579.01,-443.81 1595,-438.42 1611.42,-432.88 1614.22,-427.75 1631,-423.42 1640.86,-420.88 1651.1,-418.66 1661.48,-416.72"/>
<polygon fill="#757575" stroke="#757575" points="1662.22,-420.14 1671.46,-414.95 1661,-413.25 1662.22,-420.14"/>
</g>
<!-- statements/locations/generateAuthorizationRequestUri.ts -->
<g id="node35" class="node">
<title>statements/locations/generateAuthorizationRequestUri.ts</title>
<path fill="none" stroke="#c6c5fe" d="M1984.33,-455.92C1984.33,-455.92 1641.67,-455.92 1641.67,-455.92 1637.83,-455.92 1634,-452.09 1634,-448.26 1634,-448.26 1634,-440.59 1634,-440.59 1634,-436.76 1637.83,-432.92 1641.67,-432.92 1641.67,-432.92 1984.33,-432.92 1984.33,-432.92 1988.17,-432.92 1992,-436.76 1992,-440.59 1992,-440.59 1992,-448.26 1992,-448.26 1992,-452.09 1988.17,-455.92 1984.33,-455.92"/>
<text text-anchor="middle" x="1813" y="-440.72" font-family="Arial" font-size="14.00" fill="#c6c5fe">statements/locations/generateAuthorizationRequestUri.ts</text>
</g>
<!-- statements/locations/index.ts&#45;&gt;statements/locations/generateAuthorizationRequestUri.ts -->
<g id="edge70" class="edge">
<title>statements/locations/index.ts&#45;&gt;statements/locations/generateAuthorizationRequestUri.ts</title>
<path fill="none" stroke="#757575" d="M1590.03,-458.45C1600.88,-457.76 1612.21,-457.05 1623.76,-456.32"/>
<polygon fill="#757575" stroke="#757575" points="1624.2,-459.8 1633.96,-455.67 1623.75,-452.81 1624.2,-459.8"/>
</g>
<!-- statements/locations/generateCredentialOffer.ts -->
<g id="node36" class="node">
<title>statements/locations/generateCredentialOffer.ts</title>
<path fill="none" stroke="#c6c5fe" d="M1956.83,-496.92C1956.83,-496.92 1669.17,-496.92 1669.17,-496.92 1665.33,-496.92 1661.5,-493.09 1661.5,-489.26 1661.5,-489.26 1661.5,-481.59 1661.5,-481.59 1661.5,-477.76 1665.33,-473.92 1669.17,-473.92 1669.17,-473.92 1956.83,-473.92 1956.83,-473.92 1960.67,-473.92 1964.5,-477.76 1964.5,-481.59 1964.5,-481.59 1964.5,-489.26 1964.5,-489.26 1964.5,-493.09 1960.67,-496.92 1956.83,-496.92"/>
<text text-anchor="middle" x="1813" y="-481.72" font-family="Arial" font-size="14.00" fill="#c6c5fe">statements/locations/generateCredentialOffer.ts</text>
</g>
<!-- statements/locations/index.ts&#45;&gt;statements/locations/generateCredentialOffer.ts -->
<g id="edge71" class="edge">
<title>statements/locations/index.ts&#45;&gt;statements/locations/generateCredentialOffer.ts</title>
<path fill="none" stroke="#757575" d="M1590.03,-470.69C1609.45,-471.98 1630.41,-473.37 1651.42,-474.77"/>
<polygon fill="#757575" stroke="#757575" points="1651.19,-478.26 1661.4,-475.43 1651.66,-471.28 1651.19,-478.26"/>
</g>
<!-- statements/resources/issuerClient.ts -->
<g id="node37" class="node">
<title>statements/resources/issuerClient.ts</title>
<path fill="none" stroke="#c6c5fe" d="M1922.83,-332.92C1922.83,-332.92 1703.17,-332.92 1703.17,-332.92 1699.33,-332.92 1695.5,-329.09 1695.5,-325.26 1695.5,-325.26 1695.5,-317.59 1695.5,-317.59 1695.5,-313.76 1699.33,-309.92 1703.17,-309.92 1703.17,-309.92 1922.83,-309.92 1922.83,-309.92 1926.67,-309.92 1930.5,-313.76 1930.5,-317.59 1930.5,-317.59 1930.5,-325.26 1930.5,-325.26 1930.5,-329.09 1926.67,-332.92 1922.83,-332.92"/>
<text text-anchor="middle" x="1813" y="-317.72" font-family="Arial" font-size="14.00" fill="#c6c5fe">statements/resources/issuerClient.ts</text>
</g>
<!-- statements/resources/index.ts&#45;&gt;statements/resources/issuerClient.ts -->
<g id="edge72" class="edge">
<title>statements/resources/index.ts&#45;&gt;statements/resources/issuerClient.ts</title>
<path fill="none" stroke="#757575" d="M1550.38,-355.86C1574.96,-350.95 1604.35,-345.44 1631,-341.42 1648.54,-338.77 1667.09,-336.33 1685.36,-334.12"/>
<polygon fill="#757575" stroke="#757575" points="1685.95,-337.57 1695.47,-332.92 1685.12,-330.62 1685.95,-337.57"/>
</g>
<!-- statements/tokens/generateAccessToken.ts -->
<g id="node38" class="node">
<title>statements/tokens/generateAccessToken.ts</title>
<path fill="none" stroke="#c6c5fe" d="M1944.33,-578.92C1944.33,-578.92 1681.67,-578.92 1681.67,-578.92 1677.83,-578.92 1674,-575.09 1674,-571.26 1674,-571.26 1674,-563.59 1674,-563.59 1674,-559.76 1677.83,-555.92 1681.67,-555.92 1681.67,-555.92 1944.33,-555.92 1944.33,-555.92 1948.17,-555.92 1952,-559.76 1952,-563.59 1952,-563.59 1952,-571.26 1952,-571.26 1952,-575.09 1948.17,-578.92 1944.33,-578.92"/>
<text text-anchor="middle" x="1813" y="-563.72" font-family="Arial" font-size="14.00" fill="#c6c5fe">statements/tokens/generateAccessToken.ts</text>
</g>
<!-- statements/tokens/index.ts&#45;&gt;statements/tokens/generateAccessToken.ts -->
<g id="edge80" class="edge">
<title>statements/tokens/index.ts&#45;&gt;statements/tokens/generateAccessToken.ts</title>
<path fill="none" stroke="#757575" d="M1566.09,-596.88C1586.97,-593.63 1609.88,-590.22 1631,-587.42 1650.3,-584.86 1670.8,-582.37 1690.79,-580.07"/>
<polygon fill="#757575" stroke="#757575" points="1691.33,-583.54 1700.87,-578.93 1690.54,-576.58 1691.33,-583.54"/>
</g>
<!-- statements/tokens/generateAuthorizationCode.ts -->
<g id="node39" class="node">
<title>statements/tokens/generateAuthorizationCode.ts</title>
<path fill="none" stroke="#c6c5fe" d="M1959.83,-619.92C1959.83,-619.92 1666.17,-619.92 1666.17,-619.92 1662.33,-619.92 1658.5,-616.09 1658.5,-612.26 1658.5,-612.26 1658.5,-604.59 1658.5,-604.59 1658.5,-600.76 1662.33,-596.92 1666.17,-596.92 1666.17,-596.92 1959.83,-596.92 1959.83,-596.92 1963.67,-596.92 1967.5,-600.76 1967.5,-604.59 1967.5,-604.59 1967.5,-612.26 1967.5,-612.26 1967.5,-616.09 1963.67,-619.92 1959.83,-619.92"/>
<text text-anchor="middle" x="1813" y="-604.72" font-family="Arial" font-size="14.00" fill="#c6c5fe">statements/tokens/generateAuthorizationCode.ts</text>
</g>
<!-- statements/tokens/index.ts&#45;&gt;statements/tokens/generateAuthorizationCode.ts -->
<g id="edge81" class="edge">
<title>statements/tokens/index.ts&#45;&gt;statements/tokens/generateAuthorizationCode.ts</title>
<path fill="none" stroke="#757575" d="M1583.24,-608.42C1603.47,-608.42 1625.63,-608.42 1647.94,-608.42"/>
<polygon fill="#757575" stroke="#757575" points="1648.2,-611.92 1658.2,-608.42 1648.2,-604.92 1648.2,-611.92"/>
</g>
<!-- statements/tokens/generateCNonce.ts -->
<g id="node40" class="node">
<title>statements/tokens/generateCNonce.ts</title>
<path fill="none" stroke="#c6c5fe" d="M1928.83,-537.92C1928.83,-537.92 1697.17,-537.92 1697.17,-537.92 1693.33,-537.92 1689.5,-534.09 1689.5,-530.26 1689.5,-530.26 1689.5,-522.59 1689.5,-522.59 1689.5,-518.76 1693.33,-514.92 1697.17,-514.92 1697.17,-514.92 1928.83,-514.92 1928.83,-514.92 1932.67,-514.92 1936.5,-518.76 1936.5,-522.59 1936.5,-522.59 1936.5,-530.26 1936.5,-530.26 1936.5,-534.09 1932.67,-537.92 1928.83,-537.92"/>
<text text-anchor="middle" x="1813" y="-522.72" font-family="Arial" font-size="14.00" fill="#c6c5fe">statements/tokens/generateCNonce.ts</text>
</g>
<!-- statements/tokens/index.ts&#45;&gt;statements/tokens/generateCNonce.ts -->
<g id="edge82" class="edge">
<title>statements/tokens/index.ts&#45;&gt;statements/tokens/generateCNonce.ts</title>
<path fill="none" stroke="#757575" d="M1515.39,-596.86C1541.15,-582.47 1587.86,-558.34 1631,-546.42 1646.39,-542.17 1662.76,-538.81 1679.12,-536.17"/>
<polygon fill="#757575" stroke="#757575" points="1679.93,-539.59 1689.29,-534.62 1678.87,-532.67 1679.93,-539.59"/>
</g>
<!-- statements/tokens/generateCredentials.ts -->
<g id="node41" class="node">
<title>statements/tokens/generateCredentials.ts</title>
<path fill="none" stroke="#c6c5fe" d="M1938.33,-701.92C1938.33,-701.92 1687.67,-701.92 1687.67,-701.92 1683.83,-701.92 1680,-698.09 1680,-694.26 1680,-694.26 1680,-686.59 1680,-686.59 1680,-682.76 1683.83,-678.92 1687.67,-678.92 1687.67,-678.92 1938.33,-678.92 1938.33,-678.92 1942.17,-678.92 1946,-682.76 1946,-686.59 1946,-686.59 1946,-694.26 1946,-694.26 1946,-698.09 1942.17,-701.92 1938.33,-701.92"/>
<text text-anchor="middle" x="1813" y="-686.72" font-family="Arial" font-size="14.00" fill="#c6c5fe">statements/tokens/generateCredentials.ts</text>
</g>
<!-- statements/tokens/index.ts&#45;&gt;statements/tokens/generateCredentials.ts -->
<g id="edge83" class="edge">
<title>statements/tokens/index.ts&#45;&gt;statements/tokens/generateCredentials.ts</title>
<path fill="none" stroke="#757575" d="M1515.39,-619.99C1541.15,-634.38 1587.86,-658.5 1631,-670.42 1643.38,-673.84 1656.4,-676.68 1669.53,-679.04"/>
<polygon fill="#757575" stroke="#757575" points="1669.14,-682.52 1679.59,-680.75 1670.31,-675.62 1669.14,-682.52"/>
</g>
<!-- statements/validations/validateAccessToken.ts -->
<g id="node42" class="node">
<title>statements/validations/validateAccessToken.ts</title>
<path fill="none" stroke="#c6c5fe" d="M1952.83,-1107.92C1952.83,-1107.92 1673.17,-1107.92 1673.17,-1107.92 1669.33,-1107.92 1665.5,-1104.09 1665.5,-1100.26 1665.5,-1100.26 1665.5,-1092.59 1665.5,-1092.59 1665.5,-1088.76 1669.33,-1084.92 1673.17,-1084.92 1673.17,-1084.92 1952.83,-1084.92 1952.83,-1084.92 1956.67,-1084.92 1960.5,-1088.76 1960.5,-1092.59 1960.5,-1092.59 1960.5,-1100.26 1960.5,-1100.26 1960.5,-1104.09 1956.67,-1107.92 1952.83,-1107.92"/>
<text text-anchor="middle" x="1813" y="-1092.72" font-family="Arial" font-size="14.00" fill="#c6c5fe">statements/validations/validateAccessToken.ts</text>
</g>
<!-- statements/validations/index.ts&#45;&gt;statements/validations/validateAccessToken.ts -->
<g id="edge84" class="edge">
<title>statements/validations/index.ts&#45;&gt;statements/validations/validateAccessToken.ts</title>
<path fill="none" stroke="#757575" d="M1506.08,-983.1C1527.26,-1005.63 1577.48,-1054.76 1631,-1076.42 1638.79,-1079.58 1646.92,-1082.29 1655.23,-1084.62"/>
<polygon fill="#757575" stroke="#757575" points="1654.5,-1088.05 1665.06,-1087.19 1656.26,-1081.28 1654.5,-1088.05"/>
</g>
<!-- statements/validations/validateAuthorizationCode.ts -->
<g id="node43" class="node">
<title>statements/validations/validateAuthorizationCode.ts</title>
<path fill="none" stroke="#c6c5fe" d="M1968.33,-1066.92C1968.33,-1066.92 1657.67,-1066.92 1657.67,-1066.92 1653.83,-1066.92 1650,-1063.09 1650,-1059.26 1650,-1059.26 1650,-1051.59 1650,-1051.59 1650,-1047.76 1653.83,-1043.92 1657.67,-1043.92 1657.67,-1043.92 1968.33,-1043.92 1968.33,-1043.92 1972.17,-1043.92 1976,-1047.76 1976,-1051.59 1976,-1051.59 1976,-1059.26 1976,-1059.26 1976,-1063.09 1972.17,-1066.92 1968.33,-1066.92"/>
<text text-anchor="middle" x="1813" y="-1051.72" font-family="Arial" font-size="14.00" fill="#c6c5fe">statements/validations/validateAuthorizationCode.ts</text>
</g>
<!-- statements/validations/index.ts&#45;&gt;statements/validations/validateAuthorizationCode.ts -->
<g id="edge85" class="edge">
<title>statements/validations/index.ts&#45;&gt;statements/validations/validateAuthorizationCode.ts</title>
<path fill="none" stroke="#757575" d="M1514.89,-983.12C1540.5,-997.96 1587.44,-1023.1 1631,-1035.42 1639.71,-1037.89 1648.74,-1040.05 1657.91,-1041.95"/>
<polygon fill="#757575" stroke="#757575" points="1657.41,-1045.42 1667.9,-1043.91 1658.76,-1038.55 1657.41,-1045.42"/>
</g>
<!-- statements/validations/validateClientCredentials.ts -->
<g id="node44" class="node">
<title>statements/validations/validateClientCredentials.ts</title>
<path fill="none" stroke="#c6c5fe" d="M1964.33,-742.92C1964.33,-742.92 1661.67,-742.92 1661.67,-742.92 1657.83,-742.92 1654,-739.09 1654,-735.26 1654,-735.26 1654,-727.59 1654,-727.59 1654,-723.76 1657.83,-719.92 1661.67,-719.92 1661.67,-719.92 1964.33,-719.92 1964.33,-719.92 1968.17,-719.92 1972,-723.76 1972,-727.59 1972,-727.59 1972,-735.26 1972,-735.26 1972,-739.09 1968.17,-742.92 1964.33,-742.92"/>
<text text-anchor="middle" x="1813" y="-727.72" font-family="Arial" font-size="14.00" fill="#c6c5fe">statements/validations/validateClientCredentials.ts</text>
</g>
<!-- statements/validations/index.ts&#45;&gt;statements/validations/validateClientCredentials.ts -->
<g id="edge86" class="edge">
<title>statements/validations/index.ts&#45;&gt;statements/validations/validateClientCredentials.ts</title>
<path fill="none" stroke="#757575" d="M1498.72,-959.82C1509.82,-922.3 1550.25,-803.74 1631,-752.42 1635.39,-749.63 1639.97,-747.11 1644.69,-744.84"/>
<polygon fill="#757575" stroke="#757575" points="1646.18,-748.01 1653.92,-740.77 1643.36,-741.6 1646.18,-748.01"/>
</g>
<!-- statements/validations/validateCodeVerifier.ts -->
<g id="node45" class="node">
<title>statements/validations/validateCodeVerifier.ts</title>
<path fill="none" stroke="#c6c5fe" d="M1949.83,-984.92C1949.83,-984.92 1676.17,-984.92 1676.17,-984.92 1672.33,-984.92 1668.5,-981.09 1668.5,-977.26 1668.5,-977.26 1668.5,-969.59 1668.5,-969.59 1668.5,-965.76 1672.33,-961.92 1676.17,-961.92 1676.17,-961.92 1949.83,-961.92 1949.83,-961.92 1953.67,-961.92 1957.5,-965.76 1957.5,-969.59 1957.5,-969.59 1957.5,-977.26 1957.5,-977.26 1957.5,-981.09 1953.67,-984.92 1949.83,-984.92"/>
<text text-anchor="middle" x="1813" y="-969.72" font-family="Arial" font-size="14.00" fill="#c6c5fe">statements/validations/validateCodeVerifier.ts</text>
</g>
<!-- statements/validations/index.ts&#45;&gt;statements/validations/validateCodeVerifier.ts -->
<g id="edge87" class="edge">
<title>statements/validations/index.ts&#45;&gt;statements/validations/validateCodeVerifier.ts</title>
<path fill="none" stroke="#757575" d="M1595.21,-972.05C1615.23,-972.18 1636.71,-972.31 1658.08,-972.45"/>
<polygon fill="#757575" stroke="#757575" points="1658.2,-975.95 1668.22,-972.51 1658.24,-968.95 1658.2,-975.95"/>
</g>
<!-- statements/validations/validateCredentialConfigurations.ts -->
<g id="node46" class="node">
<title>statements/validations/validateCredentialConfigurations.ts</title>
<path fill="none" stroke="#c6c5fe" d="M1987.33,-660.92C1987.33,-660.92 1638.67,-660.92 1638.67,-660.92 1634.83,-660.92 1631,-657.09 1631,-653.26 1631,-653.26 1631,-645.59 1631,-645.59 1631,-641.76 1634.83,-637.92 1638.67,-637.92 1638.67,-637.92 1987.33,-637.92 1987.33,-637.92 1991.17,-637.92 1995,-641.76 1995,-645.59 1995,-645.59 1995,-653.26 1995,-653.26 1995,-657.09 1991.17,-660.92 1987.33,-660.92"/>
<text text-anchor="middle" x="1813" y="-645.72" font-family="Arial" font-size="14.00" fill="#c6c5fe">statements/validations/validateCredentialConfigurations.ts</text>
</g>
<!-- statements/validations/index.ts&#45;&gt;statements/validations/validateCredentialConfigurations.ts -->
<g id="edge88" class="edge">
<title>statements/validations/index.ts&#45;&gt;statements/validations/validateCredentialConfigurations.ts</title>
<path fill="none" stroke="#757575" d="M1496.75,-959.66C1502.31,-913.66 1529.25,-744.87 1631,-670.42 1633.12,-668.87 1635.3,-667.4 1637.52,-666"/>
<polygon fill="#757575" stroke="#757575" points="1639.37,-668.97 1646.32,-660.97 1635.9,-662.89 1639.37,-668.97"/>
</g>
<!-- statements/validations/validateDpop.ts -->
<g id="node47" class="node">
<title>statements/validations/validateDpop.ts</title>
<path fill="none" stroke="#c6c5fe" d="M1929.33,-1148.92C1929.33,-1148.92 1696.67,-1148.92 1696.67,-1148.92 1692.83,-1148.92 1689,-1145.09 1689,-1141.26 1689,-1141.26 1689,-1133.59 1689,-1133.59 1689,-1129.76 1692.83,-1125.92 1696.67,-1125.92 1696.67,-1125.92 1929.33,-1125.92 1929.33,-1125.92 1933.17,-1125.92 1937,-1129.76 1937,-1133.59 1937,-1133.59 1937,-1141.26 1937,-1141.26 1937,-1145.09 1933.17,-1148.92 1929.33,-1148.92"/>
<text text-anchor="middle" x="1813" y="-1133.72" font-family="Arial" font-size="14.00" fill="#c6c5fe">statements/validations/validateDpop.ts</text>
</g>
<!-- statements/validations/index.ts&#45;&gt;statements/validations/validateDpop.ts -->
<g id="edge89" class="edge">
<title>statements/validations/index.ts&#45;&gt;statements/validations/validateDpop.ts</title>
<path fill="none" stroke="#757575" d="M1502.2,-983.12C1519.36,-1011.82 1567.99,-1085.7 1631,-1117.42 1645.87,-1124.91 1662.28,-1130.16 1678.98,-1133.78"/>
<polygon fill="#757575" stroke="#757575" points="1678.34,-1137.22 1688.82,-1135.73 1679.69,-1130.36 1678.34,-1137.22"/>
</g>
<!-- statements/validations/validateIssuerState.ts -->
<g id="node48" class="node">
<title>statements/validations/validateIssuerState.ts</title>
<path fill="none" stroke="#c6c5fe" d="M1947.33,-1380.92C1947.33,-1380.92 1678.67,-1380.92 1678.67,-1380.92 1674.83,-1380.92 1671,-1377.09 1671,-1373.26 1671,-1373.26 1671,-1365.59 1671,-1365.59 1671,-1361.76 1674.83,-1357.92 1678.67,-1357.92 1678.67,-1357.92 1947.33,-1357.92 1947.33,-1357.92 1951.17,-1357.92 1955,-1361.76 1955,-1365.59 1955,-1365.59 1955,-1373.26 1955,-1373.26 1955,-1377.09 1951.17,-1380.92 1947.33,-1380.92"/>
<text text-anchor="middle" x="1813" y="-1365.72" font-family="Arial" font-size="14.00" fill="#c6c5fe">statements/validations/validateIssuerState.ts</text>
</g>
<!-- statements/validations/index.ts&#45;&gt;statements/validations/validateIssuerState.ts -->
<g id="edge90" class="edge">
<title>statements/validations/index.ts&#45;&gt;statements/validations/validateIssuerState.ts</title>
<path fill="none" stroke="#757575" d="M1503.43,-983.05C1523.83,-1012.8 1580.09,-1093.9 1631,-1158.42 1688.53,-1231.34 1761.85,-1313.86 1794.71,-1350.35"/>
<polygon fill="#757575" stroke="#757575" points="1792.15,-1352.73 1801.45,-1357.81 1797.34,-1348.04 1792.15,-1352.73"/>
</g>
<!-- statements/validations/validateProofs.ts -->
<g id="node49" class="node">
<title>statements/validations/validateProofs.ts</title>
<path fill="none" stroke="#c6c5fe" d="M1932.33,-1025.92C1932.33,-1025.92 1693.67,-1025.92 1693.67,-1025.92 1689.83,-1025.92 1686,-1022.09 1686,-1018.26 1686,-1018.26 1686,-1010.59 1686,-1010.59 1686,-1006.76 1689.83,-1002.92 1693.67,-1002.92 1693.67,-1002.92 1932.33,-1002.92 1932.33,-1002.92 1936.17,-1002.92 1940,-1006.76 1940,-1010.59 1940,-1010.59 1940,-1018.26 1940,-1018.26 1940,-1022.09 1936.17,-1025.92 1932.33,-1025.92"/>
<text text-anchor="middle" x="1813" y="-1010.72" font-family="Arial" font-size="14.00" fill="#c6c5fe">statements/validations/validateProofs.ts</text>
</g>
<!-- statements/validations/index.ts&#45;&gt;statements/validations/validateProofs.ts -->
<g id="edge91" class="edge">
<title>statements/validations/index.ts&#45;&gt;statements/validations/validateProofs.ts</title>
<path fill="none" stroke="#757575" d="M1558.8,-982.95C1581.52,-986.88 1607.37,-991.11 1631,-994.42 1649.53,-997.02 1669.17,-999.48 1688.41,-1001.73"/>
<polygon fill="#757575" stroke="#757575" points="1688.09,-1005.22 1698.42,-1002.89 1688.89,-998.27 1688.09,-1005.22"/>
</g>
<!-- statements/validations/validateRequestUri.ts -->
<g id="node50" class="node">
<title>statements/validations/validateRequestUri.ts</title>
<path fill="none" stroke="#c6c5fe" d="M1946.83,-943.92C1946.83,-943.92 1679.17,-943.92 1679.17,-943.92 1675.33,-943.92 1671.5,-940.09 1671.5,-936.26 1671.5,-936.26 1671.5,-928.59 1671.5,-928.59 1671.5,-924.76 1675.33,-920.92 1679.17,-920.92 1679.17,-920.92 1946.83,-920.92 1946.83,-920.92 1950.67,-920.92 1954.5,-924.76 1954.5,-928.59 1954.5,-928.59 1954.5,-936.26 1954.5,-936.26 1954.5,-940.09 1950.67,-943.92 1946.83,-943.92"/>
<text text-anchor="middle" x="1813" y="-928.72" font-family="Arial" font-size="14.00" fill="#c6c5fe">statements/validations/validateRequestUri.ts</text>
</g>
<!-- statements/validations/index.ts&#45;&gt;statements/validations/validateRequestUri.ts -->
<g id="edge92" class="edge">
<title>statements/validations/index.ts&#45;&gt;statements/validations/validateRequestUri.ts</title>
<path fill="none" stroke="#757575" d="M1580.76,-959.88C1597.42,-957.68 1614.75,-955.44 1631,-953.42 1653.29,-950.65 1677.13,-947.8 1699.96,-945.13"/>
<polygon fill="#757575" stroke="#757575" points="1700.49,-948.59 1710.02,-943.95 1699.68,-941.64 1700.49,-948.59"/>
</g>
<!-- statements/validations/validateResourceOwner.ts -->
<g id="node51" class="node">
<title>statements/validations/validateResourceOwner.ts</title>
<path fill="none" stroke="#c6c5fe" d="M1961.83,-863.92C1961.83,-863.92 1664.17,-863.92 1664.17,-863.92 1660.33,-863.92 1656.5,-860.09 1656.5,-856.26 1656.5,-856.26 1656.5,-848.59 1656.5,-848.59 1656.5,-844.76 1660.33,-840.92 1664.17,-840.92 1664.17,-840.92 1961.83,-840.92 1961.83,-840.92 1965.67,-840.92 1969.5,-844.76 1969.5,-848.59 1969.5,-848.59 1969.5,-856.26 1969.5,-856.26 1969.5,-860.09 1965.67,-863.92 1961.83,-863.92"/>
<text text-anchor="middle" x="1813" y="-848.72" font-family="Arial" font-size="14.00" fill="#c6c5fe">statements/validations/validateResourceOwner.ts</text>
</g>
<!-- statements/validations/index.ts&#45;&gt;statements/validations/validateResourceOwner.ts -->
<g id="edge93" class="edge">
<title>statements/validations/index.ts&#45;&gt;statements/validations/validateResourceOwner.ts</title>
<path fill="none" stroke="#757575" d="M1520.19,-959.86C1547.14,-947.44 1591.7,-927.46 1631,-912.42 1675.51,-895.39 1727.2,-878.54 1763.92,-867.05"/>
<polygon fill="#757575" stroke="#757575" points="1765.35,-870.27 1773.86,-863.96 1763.27,-863.59 1765.35,-870.27"/>
</g>
<!-- statements/validations/validateScope.ts -->
<g id="node52" class="node">
<title>statements/validations/validateScope.ts</title>
<path fill="none" stroke="#c6c5fe" d="M1932.33,-783.92C1932.33,-783.92 1693.67,-783.92 1693.67,-783.92 1689.83,-783.92 1686,-780.09 1686,-776.26 1686,-776.26 1686,-768.59 1686,-768.59 1686,-764.76 1689.83,-760.92 1693.67,-760.92 1693.67,-760.92 1932.33,-760.92 1932.33,-760.92 1936.17,-760.92 1940,-764.76 1940,-768.59 1940,-768.59 1940,-776.26 1940,-776.26 1940,-780.09 1936.17,-783.92 1932.33,-783.92"/>
<text text-anchor="middle" x="1813" y="-768.72" font-family="Arial" font-size="14.00" fill="#c6c5fe">statements/validations/validateScope.ts</text>
</g>
<!-- statements/validations/index.ts&#45;&gt;statements/validations/validateScope.ts -->
<g id="edge94" class="edge">
<title>statements/validations/index.ts&#45;&gt;statements/validations/validateScope.ts</title>
<path fill="none" stroke="#757575" d="M1503.62,-959.91C1522.79,-933.55 1573.58,-868.35 1631,-832.42 1665.76,-810.67 1709.25,-795.92 1744.89,-786.49"/>
<polygon fill="#757575" stroke="#757575" points="1745.9,-789.85 1754.72,-783.97 1744.16,-783.07 1745.9,-789.85"/>
</g>
<!-- statements/locations/authorizationCodeRedirection.ts&#45;&gt;resources.ts -->
<g id="edge64" class="edge">
<title>statements/locations/authorizationCodeRedirection.ts&#45;&gt;resources.ts</title>
<path fill="none" stroke="#757575" d="M1974.66,-414.99C1981.66,-417.42 1988.47,-420.21 1995,-423.42 2023.97,-437.66 2048.19,-466.91 2062.15,-486.6"/>
<polygon fill="#757575" stroke="#757575" points="2059.28,-488.61 2067.82,-494.88 2065.06,-484.65 2059.28,-488.61"/>
</g>
<!-- statements/locations/generateAuthorizationRequestUri.ts&#45;&gt;resources.ts -->
<g id="edge66" class="edge">
<title>statements/locations/generateAuthorizationRequestUri.ts&#45;&gt;resources.ts</title>
<path fill="none" stroke="#757575" d="M1961.15,-455.97C1972.71,-458.31 1984.12,-461.09 1995,-464.42 2014.01,-470.23 2033.8,-480.58 2048.94,-489.55"/>
<polygon fill="#757575" stroke="#757575" points="2047.36,-492.69 2057.72,-494.9 2051,-486.71 2047.36,-492.69"/>
</g>
<!-- statements/locations/generateAuthorizationRequestUri.ts&#45;&gt;constants.ts -->
<g id="edge65" class="edge">
<title>statements/locations/generateAuthorizationRequestUri.ts&#45;&gt;constants.ts</title>
<path fill="none" stroke="#757575" d="M1983.56,-456.11C1987.55,-458.61 1991.37,-461.37 1995,-464.42 2034.72,-497.84 2062.73,-659.29 2071.82,-718.55"/>
<polygon fill="#757575" stroke="#757575" points="2068.39,-719.3 2073.34,-728.67 2075.31,-718.26 2068.39,-719.3"/>
</g>
<!-- statements/locations/generateCredentialOffer.ts&#45;&gt;resources.ts -->
<g id="edge68" class="edge">
<title>statements/locations/generateCredentialOffer.ts&#45;&gt;resources.ts</title>
<path fill="none" stroke="#757575" d="M1957.1,-496.94C1979.74,-498.76 2001.87,-500.54 2020.73,-502.06"/>
<polygon fill="#757575" stroke="#757575" points="2020.6,-505.56 2030.85,-502.87 2021.17,-498.58 2020.6,-505.56"/>
</g>
<!-- statements/locations/generateCredentialOffer.ts&#45;&gt;errors.ts -->
<g id="edge67" class="edge">
<title>statements/locations/generateCredentialOffer.ts&#45;&gt;errors.ts</title>
<path fill="none" stroke="#757575" d="M1964.61,-485.66C1975.8,-490.4 1986.15,-496.83 1995,-505.42 2036.22,-545.44 2022.08,-704.67 2031,-761.42 2044.5,-847.31 2062.97,-949.17 2071,-992.82"/>
<polygon fill="#757575" stroke="#757575" points="2067.59,-993.65 2072.85,-1002.84 2074.48,-992.38 2067.59,-993.65"/>
</g>
<!-- statements/resources/issuerClient.ts&#45;&gt;resources.ts -->
<g id="edge73" class="edge">
<title>statements/resources/issuerClient.ts&#45;&gt;resources.ts</title>
<path fill="none" stroke="#757575" d="M1930.81,-317.14C1953.64,-320.87 1976.27,-328.2 1995,-341.42 2043.79,-375.86 2064.03,-448.43 2071.37,-484.75"/>
<polygon fill="#757575" stroke="#757575" points="2067.96,-485.59 2073.25,-494.78 2074.84,-484.3 2067.96,-485.59"/>
</g>
<!-- statements/tokens/generateAccessToken.ts&#45;&gt;resources.ts -->
<g id="edge74" class="edge">
<title>statements/tokens/generateAccessToken.ts&#45;&gt;resources.ts</title>
<path fill="none" stroke="#757575" d="M1952.38,-556.42C1966.92,-553.77 1981.36,-550.49 1995,-546.42 2013.36,-540.95 2032.61,-531.46 2047.62,-523.1"/>
<polygon fill="#757575" stroke="#757575" points="2049.44,-526.09 2056.38,-518.08 2045.96,-520.02 2049.44,-526.09"/>
</g>
<!-- statements/tokens/generateAuthorizationCode.ts&#45;&gt;resources.ts -->
<g id="edge76" class="edge">
<title>statements/tokens/generateAuthorizationCode.ts&#45;&gt;resources.ts</title>
<path fill="none" stroke="#757575" d="M1967.72,-598.09C1977.15,-595.17 1986.33,-591.65 1995,-587.42 2023.37,-573.59 2047.48,-545.49 2061.6,-526.31"/>
<polygon fill="#757575" stroke="#757575" points="2064.6,-528.14 2067.54,-517.96 2058.89,-524.08 2064.6,-528.14"/>
</g>
<!-- statements/tokens/generateAuthorizationCode.ts&#45;&gt;errors.ts -->
<g id="edge75" class="edge">
<title>statements/tokens/generateAuthorizationCode.ts&#45;&gt;errors.ts</title>
<path fill="none" stroke="#757575" d="M1967.51,-611.65C1977.51,-616.13 1986.83,-621.95 1995,-629.42 2008.75,-641.99 2057.21,-912.99 2071.19,-992.61"/>
<polygon fill="#757575" stroke="#757575" points="2067.83,-993.67 2073,-1002.92 2074.72,-992.46 2067.83,-993.67"/>
</g>
<!-- statements/tokens/generateCNonce.ts&#45;&gt;resources.ts -->
<g id="edge77" class="edge">
<title>statements/tokens/generateCNonce.ts&#45;&gt;resources.ts</title>
<path fill="none" stroke="#757575" d="M1936.86,-517.01C1966.24,-514.76 1996.15,-512.46 2020.58,-510.59"/>
<polygon fill="#757575" stroke="#757575" points="2021,-514.07 2030.7,-509.82 2020.46,-507.09 2021,-514.07"/>
</g>
<!-- statements/tokens/generateCredentials.ts&#45;&gt;resources.ts -->
<g id="edge79" class="edge">
<title>statements/tokens/generateCredentials.ts&#45;&gt;resources.ts</title>
<path fill="none" stroke="#757575" d="M1946.3,-691.54C1963.72,-687.31 1980.52,-680.62 1995,-670.42 2043.59,-636.21 2063.93,-564.07 2071.32,-527.96"/>
<polygon fill="#757575" stroke="#757575" points="2074.79,-528.48 2073.22,-518 2067.91,-527.17 2074.79,-528.48"/>
</g>
<!-- statements/tokens/generateCredentials.ts&#45;&gt;errors.ts -->
<g id="edge78" class="edge">
<title>statements/tokens/generateCredentials.ts&#45;&gt;errors.ts</title>
<path fill="none" stroke="#757575" d="M1946.45,-687.11C1964.26,-691.76 1981.13,-699.41 1995,-711.42 2038.25,-748.9 2064.44,-929.39 2072.4,-992.55"/>
<polygon fill="#757575" stroke="#757575" points="2068.94,-993.1 2073.64,-1002.6 2075.89,-992.24 2068.94,-993.1"/>
</g>
<!-- statements/validations/validateAccessToken.ts&#45;&gt;resources.ts -->
<g id="edge97" class="edge">
<title>statements/validations/validateAccessToken.ts&#45;&gt;resources.ts</title>
<path fill="none" stroke="#757575" d="M1882.25,-1107.93C1920.56,-1110.25 1966.3,-1105.39 1995,-1076.42 2050.96,-1019.94 2018.98,-799.02 2031,-720.42 2041.86,-649.44 2060.72,-566.41 2069.81,-527.97"/>
<polygon fill="#757575" stroke="#757575" points="2073.28,-528.48 2072.2,-517.95 2066.47,-526.86 2073.28,-528.48"/>
</g>
<!-- statements/validations/validateAccessToken.ts&#45;&gt;crypto.ts -->
<g id="edge95" class="edge">
<title>statements/validations/validateAccessToken.ts&#45;&gt;crypto.ts</title>
<path fill="none" stroke="#757575" d="M1957.1,-1084.91C1984.32,-1082.72 2010.8,-1080.59 2031.75,-1078.9"/>
<polygon fill="#757575" stroke="#757575" points="2032.18,-1082.38 2041.87,-1078.09 2031.62,-1075.4 2032.18,-1082.38"/>
</g>
<!-- statements/validations/validateAccessToken.ts&#45;&gt;errors.ts -->
<g id="edge96" class="edge">
<title>statements/validations/validateAccessToken.ts&#45;&gt;errors.ts</title>
<path fill="none" stroke="#757575" d="M1960.95,-1087.19C1972.67,-1084.35 1984.16,-1080.81 1995,-1076.42 2018.99,-1066.71 2041.87,-1047.64 2056.96,-1033.2"/>
<polygon fill="#757575" stroke="#757575" points="2059.45,-1035.67 2064.11,-1026.15 2054.53,-1030.68 2059.45,-1035.67"/>
</g>
<!-- statements/validations/validateAuthorizationCode.ts&#45;&gt;resources.ts -->
<g id="edge100" class="edge">
<title>statements/validations/validateAuthorizationCode.ts&#45;&gt;resources.ts</title>
<path fill="none" stroke="#757575" d="M1976.08,-1049.82C1982.92,-1045.87 1989.29,-1041.11 1995,-1035.42 2044.91,-985.7 2019.89,-790 2031,-720.42 2042.32,-649.51 2060.96,-566.45 2069.9,-527.99"/>
<polygon fill="#757575" stroke="#757575" points="2073.38,-528.49 2072.25,-517.95 2066.56,-526.89 2073.38,-528.49"/>
</g>
<!-- statements/validations/validateAuthorizationCode.ts&#45;&gt;crypto.ts -->
<g id="edge98" class="edge">
<title>statements/validations/validateAuthorizationCode.ts&#45;&gt;crypto.ts</title>
<path fill="none" stroke="#757575" d="M1964.31,-1066.94C1988.98,-1068.83 2012.68,-1070.65 2031.78,-1072.11"/>
<polygon fill="#757575" stroke="#757575" points="2031.65,-1075.61 2041.89,-1072.88 2032.19,-1068.63 2031.65,-1075.61"/>
</g>
<!-- statements/validations/validateAuthorizationCode.ts&#45;&gt;errors.ts -->
<g id="edge99" class="edge">
<title>statements/validations/validateAuthorizationCode.ts&#45;&gt;errors.ts</title>
<path fill="none" stroke="#757575" d="M1939.96,-1043.91C1958.48,-1041.52 1977.28,-1038.71 1995,-1035.42 2007.46,-1033.11 2020.85,-1029.9 2033.03,-1026.68"/>
<polygon fill="#757575" stroke="#757575" points="2034.2,-1029.98 2042.94,-1023.99 2032.37,-1023.23 2034.2,-1029.98"/>
</g>
<!-- statements/validations/validateClientCredentials.ts&#45;&gt;resources.ts -->
<g id="edge102" class="edge">
<title>statements/validations/validateClientCredentials.ts&#45;&gt;resources.ts</title>
<path fill="none" stroke="#757575" d="M1972.26,-724.91C1980.32,-721.26 1987.98,-716.81 1995,-711.42 2053.99,-666.17 2069.52,-571.25 2073.58,-528.33"/>
<polygon fill="#757575" stroke="#757575" points="2077.09,-528.39 2074.42,-518.14 2070.11,-527.82 2077.09,-528.39"/>
</g>
<!-- statements/validations/validateClientCredentials.ts&#45;&gt;errors.ts -->
<g id="edge101" class="edge">
<title>statements/validations/validateClientCredentials.ts&#45;&gt;errors.ts</title>
<path fill="none" stroke="#757575" d="M1972.36,-738.02C1980.45,-741.9 1988.08,-746.65 1995,-752.42 2068.86,-814 2075.95,-941.76 2075.67,-992.74"/>
<polygon fill="#757575" stroke="#757575" points="2072.17,-992.87 2075.51,-1002.92 2079.17,-992.98 2072.17,-992.87"/>
</g>
<!-- statements/validations/validateCodeVerifier.ts&#45;&gt;errors.ts -->
<g id="edge103" class="edge">
<title>statements/validations/validateCodeVerifier.ts&#45;&gt;errors.ts</title>
<path fill="none" stroke="#757575" d="M1932.62,-984.95C1953.48,-987.62 1974.93,-990.76 1995,-994.42 2007.43,-996.69 2020.81,-999.77 2032.99,-1002.83"/>
<polygon fill="#757575" stroke="#757575" points="2032.34,-1006.28 2042.9,-1005.39 2034.09,-999.5 2032.34,-1006.28"/>
</g>
<!-- statements/validations/validateCredentialConfigurations.ts&#45;&gt;resources.ts -->
<g id="edge104" class="edge">
<title>statements/validations/validateCredentialConfigurations.ts&#45;&gt;resources.ts</title>
<path fill="none" stroke="#757575" d="M1979.01,-637.84C1984.53,-635.37 1989.89,-632.57 1995,-629.42 2033.44,-605.74 2057,-555.9 2067.86,-527.46"/>
<polygon fill="#757575" stroke="#757575" points="2071.15,-528.64 2071.29,-518.05 2064.58,-526.24 2071.15,-528.64"/>
</g>
<!-- statements/validations/validateDpop.ts&#45;&gt;errors.ts -->
<g id="edge105" class="edge">
<title>statements/validations/validateDpop.ts&#45;&gt;errors.ts</title>
<path fill="none" stroke="#757575" d="M1937.17,-1139.37C1957.64,-1135.45 1977.78,-1128.64 1995,-1117.42 2021.7,-1100.03 2011.13,-1080.33 2031,-1055.42 2037.41,-1047.39 2045.39,-1039.47 2052.79,-1032.77"/>
<polygon fill="#757575" stroke="#757575" points="2055.27,-1035.25 2060.49,-1026.03 2050.66,-1029.99 2055.27,-1035.25"/>
</g>
<!-- statements/validations/validateIssuerState.ts&#45;&gt;crypto.ts -->
<g id="edge106" class="edge">
<title>statements/validations/validateIssuerState.ts&#45;&gt;crypto.ts</title>
<path fill="none" stroke="#757575" d="M1955.44,-1365.53C1969.89,-1360.51 1983.46,-1353.37 1995,-1343.42 2069.51,-1279.16 2076.19,-1148.72 2075.73,-1097.13"/>
<polygon fill="#757575" stroke="#757575" points="2079.23,-1097.03 2075.54,-1087.1 2072.23,-1097.17 2079.23,-1097.03"/>
</g>
<!-- statements/validations/validateIssuerState.ts&#45;&gt;errors.ts -->
<g id="edge107" class="edge">
<title>statements/validations/validateIssuerState.ts&#45;&gt;errors.ts</title>
<path fill="none" stroke="#757575" d="M1955.38,-1368.01C1970.2,-1362.64 1983.88,-1354.75 1995,-1343.42 2040.19,-1297.4 2001.65,-1112.85 2031,-1055.42 2035.47,-1046.68 2042.59,-1038.83 2049.81,-1032.4"/>
<polygon fill="#757575" stroke="#757575" points="2052.08,-1035.06 2057.56,-1026 2047.62,-1029.66 2052.08,-1035.06"/>
</g>
<!-- statements/validations/validateProofs.ts&#45;&gt;resources.ts -->
<g id="edge110" class="edge">
<title>statements/validations/validateProofs.ts&#45;&gt;resources.ts</title>
<path fill="none" stroke="#757575" d="M1940.02,-1021.95C1960.55,-1017.55 1979.98,-1009.13 1995,-994.42 2038.87,-951.45 2020.81,-780.98 2031,-720.42 2042.92,-649.61 2061.27,-566.5 2070.02,-528.01"/>
<polygon fill="#757575" stroke="#757575" points="2073.5,-528.49 2072.32,-517.97 2066.68,-526.93 2073.5,-528.49"/>
</g>
<!-- statements/validations/validateProofs.ts&#45;&gt;crypto.ts -->
<g id="edge108" class="edge">
<title>statements/validations/validateProofs.ts&#45;&gt;crypto.ts</title>
<path fill="none" stroke="#757575" d="M1940.27,-1023.35C1958.83,-1026.31 1977.57,-1030.23 1995,-1035.42 2013.36,-1040.89 2032.61,-1050.38 2047.62,-1058.75"/>
<polygon fill="#757575" stroke="#757575" points="2045.96,-1061.83 2056.38,-1063.76 2049.44,-1055.75 2045.96,-1061.83"/>
</g>
<!-- statements/validations/validateProofs.ts&#45;&gt;errors.ts -->
<g id="edge109" class="edge">
<title>statements/validations/validateProofs.ts&#45;&gt;errors.ts</title>
<path fill="none" stroke="#757575" d="M1940.3,-1014.42C1973.54,-1014.42 2007.15,-1014.42 2032.48,-1014.42"/>
<polygon fill="#757575" stroke="#757575" points="2032.81,-1017.92 2042.81,-1014.42 2032.81,-1010.92 2032.81,-1017.92"/>
</g>
<!-- statements/validations/validateRequestUri.ts&#45;&gt;resources.ts -->
<g id="edge114" class="edge">
<title>statements/validations/validateRequestUri.ts&#45;&gt;resources.ts</title>
<path fill="none" stroke="#757575" d="M1908.56,-920.83C1940.04,-912.45 1972.72,-898.06 1995,-873.42 2000.95,-866.84 2054.68,-605.84 2070.58,-528.07"/>
<polygon fill="#757575" stroke="#757575" points="2074.07,-528.48 2072.65,-517.98 2067.21,-527.07 2074.07,-528.48"/>
</g>
<!-- statements/validations/validateRequestUri.ts&#45;&gt;constants.ts -->
<g id="edge111" class="edge">
<title>statements/validations/validateRequestUri.ts&#45;&gt;constants.ts</title>
<path fill="none" stroke="#757575" d="M1887.59,-920.86C1922.95,-912.38 1964.23,-897.91 1995,-873.42 2032.37,-843.68 2056.34,-791.37 2067.55,-762"/>
<polygon fill="#757575" stroke="#757575" points="2070.95,-762.89 2071.11,-752.3 2064.38,-760.49 2070.95,-762.89"/>
</g>
<!-- statements/validations/validateRequestUri.ts&#45;&gt;crypto.ts -->
<g id="edge112" class="edge">
<title>statements/validations/validateRequestUri.ts&#45;&gt;crypto.ts</title>
<path fill="none" stroke="#757575" d="M1954.57,-933.75C1969.08,-938.15 1982.91,-944.49 1995,-953.42 2027.01,-977.07 2007.77,-1003.11 2031,-1035.42 2036.63,-1043.25 2044.01,-1050.7 2051.12,-1056.99"/>
<polygon fill="#757575" stroke="#757575" points="2049.31,-1060.04 2059.21,-1063.81 2053.82,-1054.69 2049.31,-1060.04"/>
</g>
<!-- statements/validations/validateRequestUri.ts&#45;&gt;errors.ts -->
<g id="edge113" class="edge">
<title>statements/validations/validateRequestUri.ts&#45;&gt;errors.ts</title>
<path fill="none" stroke="#757575" d="M1954.72,-941.17C1968.59,-944.27 1982.24,-948.27 1995,-953.42 2018.51,-962.91 2041.07,-981.24 2056.21,-995.34"/>
<polygon fill="#757575" stroke="#757575" points="2054.18,-998.25 2063.81,-1002.66 2059.03,-993.2 2054.18,-998.25"/>
</g>
<!-- statements/validations/validateResourceOwner.ts&#45;&gt;resources.ts -->
<g id="edge116" class="edge">
<title>statements/validations/validateResourceOwner.ts&#45;&gt;resources.ts</title>
<path fill="none" stroke="#757575" d="M1904.98,-840.86C1937.23,-832.5 1971.34,-818.13 1995,-793.42 2032.38,-754.38 2062.05,-587.81 2071.68,-527.95"/>
<polygon fill="#757575" stroke="#757575" points="2075.14,-528.49 2073.24,-518.07 2068.22,-527.4 2075.14,-528.49"/>
</g>
<!-- statements/validations/validateResourceOwner.ts&#45;&gt;errors.ts -->
<g id="edge115" class="edge">
<title>statements/validations/validateResourceOwner.ts&#45;&gt;errors.ts</title>
<path fill="none" stroke="#757575" d="M1966.95,-863.95C1976.84,-867.82 1986.3,-872.59 1995,-878.42 2035.9,-905.86 2058.81,-961.84 2068.83,-992.74"/>
<polygon fill="#757575" stroke="#757575" points="2065.55,-994.01 2071.84,-1002.53 2072.25,-991.95 2065.55,-994.01"/>
</g>
<!-- statements/validations/validateScope.ts&#45;&gt;resources.ts -->
<g id="edge118" class="edge">
<title>statements/validations/validateScope.ts&#45;&gt;resources.ts</title>
<path fill="none" stroke="#757575" d="M1940.24,-777.1C1960.15,-772.83 1979.31,-765.2 1995,-752.42 2064.8,-695.61 2074.34,-577.01 2075.2,-528.16"/>
<polygon fill="#757575" stroke="#757575" points="2078.7,-528.1 2075.26,-518.08 2071.7,-528.05 2078.7,-528.1"/>
</g>
<!-- statements/validations/validateScope.ts&#45;&gt;errors.ts -->
<g id="edge117" class="edge">
<title>statements/validations/validateScope.ts&#45;&gt;errors.ts</title>
<path fill="none" stroke="#757575" d="M1940.05,-772.82C1959.98,-777.65 1979.19,-785.66 1995,-798.42 2055.96,-847.65 2070.47,-948.06 2073.92,-992.47"/>
<polygon fill="#757575" stroke="#757575" points="2070.45,-992.97 2074.6,-1002.72 2077.43,-992.51 2070.45,-992.97"/>
</g>
</g>
</svg>
