<?xml version="1.0" encoding="UTF-8" standalone="no"?>
<!DOCTYPE svg PUBLIC "-//W3C//DTD SVG 1.1//EN"
 "http://www.w3.org/Graphics/SVG/1.1/DTD/svg11.dtd">
<!-- Generated by graphviz version 2.43.0 (0)
 -->
<!-- Title: G Pages: 1 -->
<svg width="2118pt" height="1054pt"
 viewBox="0.00 0.00 2118.20 1054.16" xmlns="http://www.w3.org/2000/svg" xmlns:xlink="http://www.w3.org/1999/xlink">
<g id="graph0" class="graph" transform="scale(1 1) rotate(0) translate(21.6 1032.56)">
<title>G</title>
<polygon fill="#111111" stroke="transparent" points="-21.6,21.6 -21.6,-1032.56 2096.6,-1032.56 2096.6,21.6 -21.6,21.6"/>
<!-- config.ts -->
<g id="node1" class="node">
<title>config.ts</title>
<path fill="none" stroke="#c6c5fe" d="M1002.83,-879.72C1002.83,-879.72 951.17,-879.72 951.17,-879.72 947.33,-879.72 943.5,-875.89 943.5,-872.06 943.5,-872.06 943.5,-864.39 943.5,-864.39 943.5,-860.56 947.33,-856.72 951.17,-856.72 951.17,-856.72 1002.83,-856.72 1002.83,-856.72 1006.67,-856.72 1010.5,-860.56 1010.5,-864.39 1010.5,-864.39 1010.5,-872.06 1010.5,-872.06 1010.5,-875.89 1006.67,-879.72 1002.83,-879.72"/>
<text text-anchor="middle" x="977" y="-864.52" font-family="Arial" font-size="14.00" fill="#c6c5fe">config.ts</text>
</g>
<!-- ports.ts -->
<g id="node2" class="node">
<title>ports.ts</title>
<path fill="none" stroke="#c6c5fe" d="M1938.83,-662.72C1938.83,-662.72 1893.17,-662.72 1893.17,-662.72 1889.33,-662.72 1885.5,-658.89 1885.5,-655.06 1885.5,-655.06 1885.5,-647.39 1885.5,-647.39 1885.5,-643.56 1889.33,-639.72 1893.17,-639.72 1893.17,-639.72 1938.83,-639.72 1938.83,-639.72 1942.67,-639.72 1946.5,-643.56 1946.5,-647.39 1946.5,-647.39 1946.5,-655.06 1946.5,-655.06 1946.5,-658.89 1942.67,-662.72 1938.83,-662.72"/>
<text text-anchor="middle" x="1916" y="-647.52" font-family="Arial" font-size="14.00" fill="#c6c5fe">ports.ts</text>
</g>
<!-- config.ts&#45;&gt;ports.ts -->
<g id="edge1" class="edge">
<title>config.ts&#45;&gt;ports.ts</title>
<path fill="none" stroke="#757575" d="M1010.66,-869.44C1151.73,-874.09 1707.86,-885.96 1847,-790.22 1886.99,-762.71 1904.41,-704.78 1911.19,-673.09"/>
<polygon fill="#757575" stroke="#757575" points="1914.67,-673.55 1913.17,-663.06 1907.8,-672.2 1914.67,-673.55"/>
</g>
<!-- resources.ts -->
<g id="node3" class="node">
<title>resources.ts</title>
<path fill="none" stroke="#cfffac" d="M2067.33,-702.72C2067.33,-702.72 1992.67,-702.72 1992.67,-702.72 1988.83,-702.72 1985,-698.89 1985,-695.06 1985,-695.06 1985,-687.39 1985,-687.39 1985,-683.56 1988.83,-679.72 1992.67,-679.72 1992.67,-679.72 2067.33,-679.72 2067.33,-679.72 2071.17,-679.72 2075,-683.56 2075,-687.39 2075,-687.39 2075,-695.06 2075,-695.06 2075,-698.89 2071.17,-702.72 2067.33,-702.72"/>
<text text-anchor="middle" x="2030" y="-687.52" font-family="Arial" font-size="14.00" fill="#cfffac">resources.ts</text>
</g>
<!-- config.ts&#45;&gt;resources.ts -->
<g id="edge2" class="edge">
<title>config.ts&#45;&gt;resources.ts</title>
<path fill="none" stroke="#757575" d="M1010.75,-875.99C1162.37,-911.14 1795.26,-1048.9 1949,-937.22 2021.98,-884.21 2029.69,-762.95 2029.62,-713.17"/>
<polygon fill="#757575" stroke="#757575" points="2033.12,-712.86 2029.49,-702.91 2026.12,-712.95 2033.12,-712.86"/>
</g>
<!-- ports.ts&#45;&gt;resources.ts -->
<g id="edge42" class="edge">
<title>ports.ts&#45;&gt;resources.ts</title>
<path fill="none" stroke="#757575" d="M1946.72,-661.84C1959.13,-666.27 1973.77,-671.5 1987.23,-676.31"/>
<polygon fill="#757575" stroke="#757575" points="1986.19,-679.65 1996.78,-679.72 1988.54,-673.06 1986.19,-679.65"/>
</g>
<!-- core.ts -->
<g id="node4" class="node">
<title>core.ts</title>
<path fill="none" stroke="#c6c5fe" d="M148.33,-857.72C148.33,-857.72 106.67,-857.72 106.67,-857.72 102.83,-857.72 99,-853.89 99,-850.06 99,-850.06 99,-842.39 99,-842.39 99,-838.56 102.83,-834.72 106.67,-834.72 106.67,-834.72 148.33,-834.72 148.33,-834.72 152.17,-834.72 156,-838.56 156,-842.39 156,-842.39 156,-850.06 156,-850.06 156,-853.89 152.17,-857.72 148.33,-857.72"/>
<text text-anchor="middle" x="127.5" y="-842.52" font-family="Arial" font-size="14.00" fill="#c6c5fe">core.ts</text>
</g>
<!-- core.ts&#45;&gt;config.ts -->
<g id="edge3" class="edge">
<title>core.ts&#45;&gt;config.ts</title>
<path fill="none" stroke="#757575" d="M156.22,-846.94C279.91,-850.15 782.03,-863.19 932.92,-867.11"/>
<polygon fill="#757575" stroke="#757575" points="933.08,-870.61 943.16,-867.37 933.26,-863.61 933.08,-870.61"/>
</g>
<!-- handlers/index.ts -->
<g id="node5" class="node">
<title>handlers/index.ts</title>
<path fill="none" stroke="#c6c5fe" d="M303.33,-700.72C303.33,-700.72 199.67,-700.72 199.67,-700.72 195.83,-700.72 192,-696.89 192,-693.06 192,-693.06 192,-685.39 192,-685.39 192,-681.56 195.83,-677.72 199.67,-677.72 199.67,-677.72 303.33,-677.72 303.33,-677.72 307.17,-677.72 311,-681.56 311,-685.39 311,-685.39 311,-693.06 311,-693.06 311,-696.89 307.17,-700.72 303.33,-700.72"/>
<text text-anchor="middle" x="251.5" y="-685.52" font-family="Arial" font-size="14.00" fill="#c6c5fe">handlers/index.ts</text>
</g>
<!-- core.ts&#45;&gt;handlers/index.ts -->
<g id="edge4" class="edge">
<title>core.ts&#45;&gt;handlers/index.ts</title>
<path fill="none" stroke="#757575" d="M137.47,-834.68C158.18,-808.03 209.52,-741.96 235.27,-708.83"/>
<polygon fill="#757575" stroke="#757575" points="238.14,-710.83 241.52,-700.79 232.62,-706.53 238.14,-710.83"/>
</g>
<!-- handlers/authorization.handler.ts -->
<g id="node7" class="node">
<title>handlers/authorization.handler.ts</title>
<path fill="none" stroke="#c6c5fe" d="M785.33,-680.72C785.33,-680.72 588.67,-680.72 588.67,-680.72 584.83,-680.72 581,-676.89 581,-673.06 581,-673.06 581,-665.39 581,-665.39 581,-661.56 584.83,-657.72 588.67,-657.72 588.67,-657.72 785.33,-657.72 785.33,-657.72 789.17,-657.72 793,-661.56 793,-665.39 793,-665.39 793,-673.06 793,-673.06 793,-676.89 789.17,-680.72 785.33,-680.72"/>
<text text-anchor="middle" x="687" y="-665.52" font-family="Arial" font-size="14.00" fill="#c6c5fe">handlers/authorization.handler.ts</text>
</g>
<!-- handlers/index.ts&#45;&gt;handlers/authorization.handler.ts -->
<g id="edge15" class="edge">
<title>handlers/index.ts&#45;&gt;handlers/authorization.handler.ts</title>
<path fill="none" stroke="#757575" d="M311.41,-686.51C377.82,-683.44 487.39,-678.39 570.91,-674.53"/>
<polygon fill="#757575" stroke="#757575" points="571.14,-678.03 580.97,-674.07 570.82,-671.03 571.14,-678.03"/>
</g>
<!-- handlers/credential.handler.ts -->
<g id="node10" class="node">
<title>handlers/credential.handler.ts</title>
<path fill="none" stroke="#c6c5fe" d="M775.83,-721.72C775.83,-721.72 598.17,-721.72 598.17,-721.72 594.33,-721.72 590.5,-717.89 590.5,-714.06 590.5,-714.06 590.5,-706.39 590.5,-706.39 590.5,-702.56 594.33,-698.72 598.17,-698.72 598.17,-698.72 775.83,-698.72 775.83,-698.72 779.67,-698.72 783.5,-702.56 783.5,-706.39 783.5,-706.39 783.5,-714.06 783.5,-714.06 783.5,-717.89 779.67,-721.72 775.83,-721.72"/>
<text text-anchor="middle" x="687" y="-706.52" font-family="Arial" font-size="14.00" fill="#c6c5fe">handlers/credential.handler.ts</text>
</g>
<!-- handlers/index.ts&#45;&gt;handlers/credential.handler.ts -->
<g id="edge16" class="edge">
<title>handlers/index.ts&#45;&gt;handlers/credential.handler.ts</title>
<path fill="none" stroke="#757575" d="M311.22,-692.38C323.07,-693.01 335.43,-693.64 347,-694.22 425.08,-698.13 513.29,-702.29 580.16,-705.38"/>
<polygon fill="#757575" stroke="#757575" points="580.13,-708.89 590.28,-705.85 580.46,-701.89 580.13,-708.89"/>
</g>
<!-- handlers/location.handler.ts -->
<g id="node11" class="node">
<title>handlers/location.handler.ts</title>
<path fill="none" stroke="#c6c5fe" d="M520.33,-374.72C520.33,-374.72 354.67,-374.72 354.67,-374.72 350.83,-374.72 347,-370.89 347,-367.06 347,-367.06 347,-359.39 347,-359.39 347,-355.56 350.83,-351.72 354.67,-351.72 354.67,-351.72 520.33,-351.72 520.33,-351.72 524.17,-351.72 528,-355.56 528,-359.39 528,-359.39 528,-367.06 528,-367.06 528,-370.89 524.17,-374.72 520.33,-374.72"/>
<text text-anchor="middle" x="437.5" y="-359.52" font-family="Arial" font-size="14.00" fill="#c6c5fe">handlers/location.handler.ts</text>
</g>
<!-- handlers/index.ts&#45;&gt;handlers/location.handler.ts -->
<g id="edge17" class="edge">
<title>handlers/index.ts&#45;&gt;handlers/location.handler.ts</title>
<path fill="none" stroke="#757575" d="M259.05,-677.62C286.15,-629.6 389.76,-446.04 424.82,-383.92"/>
<polygon fill="#757575" stroke="#757575" points="427.97,-385.46 429.84,-375.03 421.87,-382.02 427.97,-385.46"/>
</g>
<!-- errors.ts -->
<g id="node6" class="node">
<title>errors.ts</title>
<path fill="none" stroke="#cfffac" d="M1941.33,-413.72C1941.33,-413.72 1890.67,-413.72 1890.67,-413.72 1886.83,-413.72 1883,-409.89 1883,-406.06 1883,-406.06 1883,-398.39 1883,-398.39 1883,-394.56 1886.83,-390.72 1890.67,-390.72 1890.67,-390.72 1941.33,-390.72 1941.33,-390.72 1945.17,-390.72 1949,-394.56 1949,-398.39 1949,-398.39 1949,-406.06 1949,-406.06 1949,-409.89 1945.17,-413.72 1941.33,-413.72"/>
<text text-anchor="middle" x="1916" y="-398.52" font-family="Arial" font-size="14.00" fill="#cfffac">errors.ts</text>
</g>
<!-- handlers/authorization.handler.ts&#45;&gt;config.ts -->
<g id="edge5" class="edge">
<title>handlers/authorization.handler.ts&#45;&gt;config.ts</title>
<path fill="none" stroke="#757575" d="M793.15,-679.08C799.21,-682.1 804.9,-685.77 810,-690.22 850.03,-725.17 811.38,-763.92 846,-804.22 868.8,-830.77 905.2,-847.36 933.7,-856.98"/>
<polygon fill="#757575" stroke="#757575" points="932.82,-860.38 943.41,-860.1 934.96,-853.71 932.82,-860.38"/>
</g>
<!-- handlers/authorization.handler.ts&#45;&gt;resources.ts -->
<g id="edge8" class="edge">
<title>handlers/authorization.handler.ts&#45;&gt;resources.ts</title>
<path fill="none" stroke="#757575" d="M776.21,-680.75C787.73,-683.32 799.26,-686.44 810,-690.22 827.26,-696.31 828.83,-703.87 846,-710.22 1055.28,-787.69 1628.83,-837.14 1847,-790.22 1909.95,-776.69 1973.85,-733.68 2006.59,-709.03"/>
<polygon fill="#757575" stroke="#757575" points="2008.79,-711.75 2014.6,-702.9 2004.54,-706.2 2008.79,-711.75"/>
</g>
<!-- handlers/authorization.handler.ts&#45;&gt;errors.ts -->
<g id="edge6" class="edge">
<title>handlers/authorization.handler.ts&#45;&gt;errors.ts</title>
<path fill="none" stroke="#757575" d="M691.95,-657.45C705.97,-617.55 757.29,-486.3 846,-421.22 849.46,-418.69 1139.75,-341.78 1144,-341.22 1298.88,-320.8 1701.1,-285.37 1847,-341.22 1868.54,-349.47 1887.56,-368.04 1899.96,-382.54"/>
<polygon fill="#757575" stroke="#757575" points="1897.43,-384.97 1906.47,-390.49 1902.85,-380.54 1897.43,-384.97"/>
</g>
<!-- handlers/schemas/index.ts -->
<g id="node8" class="node">
<title>handlers/schemas/index.ts</title>
<path fill="none" stroke="#c6c5fe" d="M1057.83,-700.72C1057.83,-700.72 896.17,-700.72 896.17,-700.72 892.33,-700.72 888.5,-696.89 888.5,-693.06 888.5,-693.06 888.5,-685.39 888.5,-685.39 888.5,-681.56 892.33,-677.72 896.17,-677.72 896.17,-677.72 1057.83,-677.72 1057.83,-677.72 1061.67,-677.72 1065.5,-681.56 1065.5,-685.39 1065.5,-685.39 1065.5,-693.06 1065.5,-693.06 1065.5,-696.89 1061.67,-700.72 1057.83,-700.72"/>
<text text-anchor="middle" x="977" y="-685.52" font-family="Arial" font-size="14.00" fill="#c6c5fe">handlers/schemas/index.ts</text>
</g>
<!-- handlers/authorization.handler.ts&#45;&gt;handlers/schemas/index.ts -->
<g id="edge7" class="edge">
<title>handlers/authorization.handler.ts&#45;&gt;handlers/schemas/index.ts</title>
<path fill="none" stroke="#757575" d="M793.2,-676.53C820.84,-678.45 850.54,-680.51 877.8,-682.4"/>
<polygon fill="#757575" stroke="#757575" points="877.9,-685.92 888.12,-683.12 878.39,-678.94 877.9,-685.92"/>
</g>
<!-- statements/index.ts -->
<g id="node9" class="node">
<title>statements/index.ts</title>
<path fill="none" stroke="#c6c5fe" d="M1036.33,-452.72C1036.33,-452.72 917.67,-452.72 917.67,-452.72 913.83,-452.72 910,-448.89 910,-445.06 910,-445.06 910,-437.39 910,-437.39 910,-433.56 913.83,-429.72 917.67,-429.72 917.67,-429.72 1036.33,-429.72 1036.33,-429.72 1040.17,-429.72 1044,-433.56 1044,-437.39 1044,-437.39 1044,-445.06 1044,-445.06 1044,-448.89 1040.17,-452.72 1036.33,-452.72"/>
<text text-anchor="middle" x="977" y="-437.52" font-family="Arial" font-size="14.00" fill="#c6c5fe">statements/index.ts</text>
</g>
<!-- handlers/authorization.handler.ts&#45;&gt;statements/index.ts -->
<g id="edge9" class="edge">
<title>handlers/authorization.handler.ts&#45;&gt;statements/index.ts</title>
<path fill="none" stroke="#757575" d="M693.4,-657.51C710.28,-622.27 765.83,-516.62 846,-467.22 862.11,-457.3 881.28,-451.06 899.89,-447.18"/>
<polygon fill="#757575" stroke="#757575" points="900.67,-450.59 909.85,-445.3 899.37,-443.71 900.67,-450.59"/>
</g>
<!-- handlers/schemas/authorizationHandlerConfig.schema.ts -->
<g id="node17" class="node">
<title>handlers/schemas/authorizationHandlerConfig.schema.ts</title>
<path fill="none" stroke="#cfffac" d="M1496.33,-720.72C1496.33,-720.72 1151.67,-720.72 1151.67,-720.72 1147.83,-720.72 1144,-716.89 1144,-713.06 1144,-713.06 1144,-705.39 1144,-705.39 1144,-701.56 1147.83,-697.72 1151.67,-697.72 1151.67,-697.72 1496.33,-697.72 1496.33,-697.72 1500.17,-697.72 1504,-701.56 1504,-705.39 1504,-705.39 1504,-713.06 1504,-713.06 1504,-716.89 1500.17,-720.72 1496.33,-720.72"/>
<text text-anchor="middle" x="1324" y="-705.52" font-family="Arial" font-size="14.00" fill="#cfffac">handlers/schemas/authorizationHandlerConfig.schema.ts</text>
</g>
<!-- handlers/schemas/index.ts&#45;&gt;handlers/schemas/authorizationHandlerConfig.schema.ts -->
<g id="edge34" class="edge">
<title>handlers/schemas/index.ts&#45;&gt;handlers/schemas/authorizationHandlerConfig.schema.ts</title>
<path fill="none" stroke="#757575" d="M1065.5,-694.3C1086.55,-695.52 1109.85,-696.87 1133.58,-698.24"/>
<polygon fill="#757575" stroke="#757575" points="1133.59,-701.75 1143.77,-698.83 1133.99,-694.76 1133.59,-701.75"/>
</g>
<!-- handlers/schemas/credentialHandlerConfig.schema.ts -->
<g id="node18" class="node">
<title>handlers/schemas/credentialHandlerConfig.schema.ts</title>
<path fill="none" stroke="#cfffac" d="M1486.83,-679.72C1486.83,-679.72 1161.17,-679.72 1161.17,-679.72 1157.33,-679.72 1153.5,-675.89 1153.5,-672.06 1153.5,-672.06 1153.5,-664.39 1153.5,-664.39 1153.5,-660.56 1157.33,-656.72 1161.17,-656.72 1161.17,-656.72 1486.83,-656.72 1486.83,-656.72 1490.67,-656.72 1494.5,-660.56 1494.5,-664.39 1494.5,-664.39 1494.5,-672.06 1494.5,-672.06 1494.5,-675.89 1490.67,-679.72 1486.83,-679.72"/>
<text text-anchor="middle" x="1324" y="-664.52" font-family="Arial" font-size="14.00" fill="#cfffac">handlers/schemas/credentialHandlerConfig.schema.ts</text>
</g>
<!-- handlers/schemas/index.ts&#45;&gt;handlers/schemas/credentialHandlerConfig.schema.ts -->
<g id="edge35" class="edge">
<title>handlers/schemas/index.ts&#45;&gt;handlers/schemas/credentialHandlerConfig.schema.ts</title>
<path fill="none" stroke="#757575" d="M1065.5,-683.9C1089.31,-682.45 1116,-680.82 1142.94,-679.18"/>
<polygon fill="#757575" stroke="#757575" points="1143.5,-682.66 1153.27,-678.56 1143.07,-675.67 1143.5,-682.66"/>
</g>
<!-- handlers/schemas/locationHandlerConfig.schema.ts -->
<g id="node19" class="node">
<title>handlers/schemas/locationHandlerConfig.schema.ts</title>
<path fill="none" stroke="#cfffac" d="M1480.83,-761.72C1480.83,-761.72 1167.17,-761.72 1167.17,-761.72 1163.33,-761.72 1159.5,-757.89 1159.5,-754.06 1159.5,-754.06 1159.5,-746.39 1159.5,-746.39 1159.5,-742.56 1163.33,-738.72 1167.17,-738.72 1167.17,-738.72 1480.83,-738.72 1480.83,-738.72 1484.67,-738.72 1488.5,-742.56 1488.5,-746.39 1488.5,-746.39 1488.5,-754.06 1488.5,-754.06 1488.5,-757.89 1484.67,-761.72 1480.83,-761.72"/>
<text text-anchor="middle" x="1324" y="-746.52" font-family="Arial" font-size="14.00" fill="#cfffac">handlers/schemas/locationHandlerConfig.schema.ts</text>
</g>
<!-- handlers/schemas/index.ts&#45;&gt;handlers/schemas/locationHandlerConfig.schema.ts -->
<g id="edge36" class="edge">
<title>handlers/schemas/index.ts&#45;&gt;handlers/schemas/locationHandlerConfig.schema.ts</title>
<path fill="none" stroke="#757575" d="M1018.27,-700.74C1051.7,-709.92 1100.6,-722.47 1144,-730.22 1158.9,-732.88 1174.56,-735.25 1190.17,-737.35"/>
<polygon fill="#757575" stroke="#757575" points="1190.04,-740.86 1200.41,-738.68 1190.94,-733.92 1190.04,-740.86"/>
</g>
<!-- statements/locations/index.ts -->
<g id="node21" class="node">
<title>statements/locations/index.ts</title>
<path fill="none" stroke="#c6c5fe" d="M1411.83,-638.72C1411.83,-638.72 1236.17,-638.72 1236.17,-638.72 1232.33,-638.72 1228.5,-634.89 1228.5,-631.06 1228.5,-631.06 1228.5,-623.39 1228.5,-623.39 1228.5,-619.56 1232.33,-615.72 1236.17,-615.72 1236.17,-615.72 1411.83,-615.72 1411.83,-615.72 1415.67,-615.72 1419.5,-619.56 1419.5,-623.39 1419.5,-623.39 1419.5,-631.06 1419.5,-631.06 1419.5,-634.89 1415.67,-638.72 1411.83,-638.72"/>
<text text-anchor="middle" x="1324" y="-623.52" font-family="Arial" font-size="14.00" fill="#c6c5fe">statements/locations/index.ts</text>
</g>
<!-- statements/index.ts&#45;&gt;statements/locations/index.ts -->
<g id="edge43" class="edge">
<title>statements/index.ts&#45;&gt;statements/locations/index.ts</title>
<path fill="none" stroke="#757575" d="M985.56,-453.12C1006.36,-484.69 1067.97,-570.65 1144,-607.22 1166.76,-618.17 1192.98,-624.2 1218.21,-627.33"/>
<polygon fill="#757575" stroke="#757575" points="1217.87,-630.81 1228.19,-628.43 1218.64,-623.85 1217.87,-630.81"/>
</g>
<!-- statements/resources/index.ts -->
<g id="node22" class="node">
<title>statements/resources/index.ts</title>
<path fill="none" stroke="#c6c5fe" d="M1414.83,-372.72C1414.83,-372.72 1233.17,-372.72 1233.17,-372.72 1229.33,-372.72 1225.5,-368.89 1225.5,-365.06 1225.5,-365.06 1225.5,-357.39 1225.5,-357.39 1225.5,-353.56 1229.33,-349.72 1233.17,-349.72 1233.17,-349.72 1414.83,-349.72 1414.83,-349.72 1418.67,-349.72 1422.5,-353.56 1422.5,-357.39 1422.5,-357.39 1422.5,-365.06 1422.5,-365.06 1422.5,-368.89 1418.67,-372.72 1414.83,-372.72"/>
<text text-anchor="middle" x="1324" y="-357.52" font-family="Arial" font-size="14.00" fill="#c6c5fe">statements/resources/index.ts</text>
</g>
<!-- statements/index.ts&#45;&gt;statements/resources/index.ts -->
<g id="edge44" class="edge">
<title>statements/index.ts&#45;&gt;statements/resources/index.ts</title>
<path fill="none" stroke="#757575" d="M1038.98,-429.66C1060.8,-425.36 1085.55,-420.29 1108,-415.22 1163.38,-402.74 1226.32,-386.71 1269.73,-375.37"/>
<polygon fill="#757575" stroke="#757575" points="1270.71,-378.73 1279.5,-372.81 1268.94,-371.96 1270.71,-378.73"/>
</g>
<!-- statements/tokens/index.ts -->
<g id="node23" class="node">
<title>statements/tokens/index.ts</title>
<path fill="none" stroke="#c6c5fe" d="M1404.83,-597.72C1404.83,-597.72 1243.17,-597.72 1243.17,-597.72 1239.33,-597.72 1235.5,-593.89 1235.5,-590.06 1235.5,-590.06 1235.5,-582.39 1235.5,-582.39 1235.5,-578.56 1239.33,-574.72 1243.17,-574.72 1243.17,-574.72 1404.83,-574.72 1404.83,-574.72 1408.67,-574.72 1412.5,-578.56 1412.5,-582.39 1412.5,-582.39 1412.5,-590.06 1412.5,-590.06 1412.5,-593.89 1408.67,-597.72 1404.83,-597.72"/>
<text text-anchor="middle" x="1324" y="-582.52" font-family="Arial" font-size="14.00" fill="#c6c5fe">statements/tokens/index.ts</text>
</g>
<!-- statements/index.ts&#45;&gt;statements/tokens/index.ts -->
<g id="edge45" class="edge">
<title>statements/index.ts&#45;&gt;statements/tokens/index.ts</title>
<path fill="none" stroke="#757575" d="M1005.65,-452.84C1067.35,-478.77 1216.29,-541.37 1285.93,-570.65"/>
<polygon fill="#757575" stroke="#757575" points="1284.64,-573.9 1295.22,-574.55 1287.36,-567.45 1284.64,-573.9"/>
</g>
<!-- statements/validations/index.ts -->
<g id="node24" class="node">
<title>statements/validations/index.ts</title>
<path fill="none" stroke="#c6c5fe" d="M1416.83,-452.72C1416.83,-452.72 1231.17,-452.72 1231.17,-452.72 1227.33,-452.72 1223.5,-448.89 1223.5,-445.06 1223.5,-445.06 1223.5,-437.39 1223.5,-437.39 1223.5,-433.56 1227.33,-429.72 1231.17,-429.72 1231.17,-429.72 1416.83,-429.72 1416.83,-429.72 1420.67,-429.72 1424.5,-433.56 1424.5,-437.39 1424.5,-437.39 1424.5,-445.06 1424.5,-445.06 1424.5,-448.89 1420.67,-452.72 1416.83,-452.72"/>
<text text-anchor="middle" x="1324" y="-437.52" font-family="Arial" font-size="14.00" fill="#c6c5fe">statements/validations/index.ts</text>
</g>
<!-- statements/index.ts&#45;&gt;statements/validations/index.ts -->
<g id="edge46" class="edge">
<title>statements/index.ts&#45;&gt;statements/validations/index.ts</title>
<path fill="none" stroke="#757575" d="M1044.11,-441.22C1091.91,-441.22 1157.59,-441.22 1213.2,-441.22"/>
<polygon fill="#757575" stroke="#757575" points="1213.46,-444.72 1223.46,-441.22 1213.46,-437.72 1213.46,-444.72"/>
</g>
<!-- handlers/credential.handler.ts&#45;&gt;config.ts -->
<g id="edge10" class="edge">
<title>handlers/credential.handler.ts&#45;&gt;config.ts</title>
<path fill="none" stroke="#757575" d="M708.42,-721.76C733.86,-736.72 777.9,-764.54 810,-795.22 829.02,-813.4 823.67,-828.31 846,-842.22 872.13,-858.5 906.44,-864.87 933.25,-867.24"/>
<polygon fill="#757575" stroke="#757575" points="933.27,-870.75 943.49,-867.98 933.77,-863.77 933.27,-870.75"/>
</g>
<!-- handlers/credential.handler.ts&#45;&gt;resources.ts -->
<g id="edge13" class="edge">
<title>handlers/credential.handler.ts&#45;&gt;resources.ts</title>
<path fill="none" stroke="#757575" d="M783.62,-713.98C793.08,-717.09 802.09,-721.38 810,-727.22 840.39,-749.66 814.41,-783.51 846,-804.22 897.25,-837.83 1895.6,-853.3 1949,-823.22 1991.19,-799.46 2013.68,-743.48 2023.26,-712.6"/>
<polygon fill="#757575" stroke="#757575" points="2026.67,-713.4 2026.12,-702.82 2019.95,-711.43 2026.67,-713.4"/>
</g>
<!-- handlers/credential.handler.ts&#45;&gt;errors.ts -->
<g id="edge11" class="edge">
<title>handlers/credential.handler.ts&#45;&gt;errors.ts</title>
<path fill="none" stroke="#757575" d="M780.84,-698.67C790.82,-696.35 800.71,-693.57 810,-690.22 827.43,-683.95 829.17,-676.95 846,-669.22 1138.51,-534.92 1224.02,-523.52 1540,-462.22 1675.02,-436.03 1712.57,-452.29 1847,-423.22 1855.51,-421.38 1864.48,-418.97 1873.02,-416.43"/>
<polygon fill="#757575" stroke="#757575" points="1874.26,-419.71 1882.79,-413.42 1872.2,-413.02 1874.26,-419.71"/>
</g>
<!-- handlers/credential.handler.ts&#45;&gt;handlers/schemas/index.ts -->
<g id="edge12" class="edge">
<title>handlers/credential.handler.ts&#45;&gt;handlers/schemas/index.ts</title>
<path fill="none" stroke="#757575" d="M783.9,-703.23C814.18,-701.02 847.68,-698.58 878.1,-696.36"/>
<polygon fill="#757575" stroke="#757575" points="878.57,-699.84 888.29,-695.62 878.06,-692.86 878.57,-699.84"/>
</g>
<!-- handlers/credential.handler.ts&#45;&gt;statements/index.ts -->
<g id="edge14" class="edge">
<title>handlers/credential.handler.ts&#45;&gt;statements/index.ts</title>
<path fill="none" stroke="#757575" d="M783.73,-706.75C793.52,-703 802.57,-697.67 810,-690.22 880.9,-619.15 776.35,-539.53 846,-467.22 860.07,-452.62 879.86,-444.99 899.76,-441.26"/>
<polygon fill="#757575" stroke="#757575" points="900.48,-444.69 909.82,-439.69 899.4,-437.77 900.48,-444.69"/>
</g>
<!-- handlers/location.handler.ts&#45;&gt;config.ts -->
<g id="edge18" class="edge">
<title>handlers/location.handler.ts&#45;&gt;config.ts</title>
<path fill="none" stroke="#757575" d="M439.06,-374.9C442.05,-424.8 460.29,-622.59 564,-731.22 657.01,-828.65 716.79,-804.2 846,-842.22 874.62,-850.65 907.6,-857.21 933.17,-861.63"/>
<polygon fill="#757575" stroke="#757575" points="932.85,-865.12 943.29,-863.34 934.01,-858.22 932.85,-865.12"/>
</g>
<!-- handlers/location.handler.ts&#45;&gt;errors.ts -->
<g id="edge19" class="edge">
<title>handlers/location.handler.ts&#45;&gt;errors.ts</title>
<path fill="none" stroke="#757575" d="M445.89,-351.38C463.03,-325.05 508.3,-261.65 564,-232.22 676.35,-172.87 719.7,-199.16 846,-185.22 956.63,-173.01 1758.74,-79.41 1847,-147.22 1884.48,-176.02 1905.71,-323.99 1912.54,-380.37"/>
<polygon fill="#757575" stroke="#757575" points="1909.11,-381.12 1913.75,-390.65 1916.06,-380.31 1909.11,-381.12"/>
</g>
<!-- handlers/location.handler.ts&#45;&gt;handlers/schemas/index.ts -->
<g id="edge25" class="edge">
<title>handlers/location.handler.ts&#45;&gt;handlers/schemas/index.ts</title>
<path fill="none" stroke="#757575" d="M457.63,-374.83C538.52,-423.89 852.71,-614.44 948.27,-672.4"/>
<polygon fill="#757575" stroke="#757575" points="946.45,-675.4 956.82,-677.59 950.08,-669.41 946.45,-675.4"/>
</g>
<!-- handlers/location/authorizationCode.ts -->
<g id="node12" class="node">
<title>handlers/location/authorizationCode.ts</title>
<path fill="none" stroke="#c6c5fe" d="M802.33,-334.72C802.33,-334.72 571.67,-334.72 571.67,-334.72 567.83,-334.72 564,-330.89 564,-327.06 564,-327.06 564,-319.39 564,-319.39 564,-315.56 567.83,-311.72 571.67,-311.72 571.67,-311.72 802.33,-311.72 802.33,-311.72 806.17,-311.72 810,-315.56 810,-319.39 810,-319.39 810,-327.06 810,-327.06 810,-330.89 806.17,-334.72 802.33,-334.72"/>
<text text-anchor="middle" x="687" y="-319.52" font-family="Arial" font-size="14.00" fill="#c6c5fe">handlers/location/authorizationCode.ts</text>
</g>
<!-- handlers/location.handler.ts&#45;&gt;handlers/location/authorizationCode.ts -->
<g id="edge20" class="edge">
<title>handlers/location.handler.ts&#45;&gt;handlers/location/authorizationCode.ts</title>
<path fill="none" stroke="#757575" d="M509.76,-351.71C539.39,-346.92 573.96,-341.33 604.59,-336.38"/>
<polygon fill="#757575" stroke="#757575" points="605.51,-339.78 614.82,-334.73 604.39,-332.87 605.51,-339.78"/>
</g>
<!-- handlers/location/credentialOffer.ts -->
<g id="node13" class="node">
<title>handlers/location/credentialOffer.ts</title>
<path fill="none" stroke="#c6c5fe" d="M791.83,-414.72C791.83,-414.72 582.17,-414.72 582.17,-414.72 578.33,-414.72 574.5,-410.89 574.5,-407.06 574.5,-407.06 574.5,-399.39 574.5,-399.39 574.5,-395.56 578.33,-391.72 582.17,-391.72 582.17,-391.72 791.83,-391.72 791.83,-391.72 795.67,-391.72 799.5,-395.56 799.5,-399.39 799.5,-399.39 799.5,-407.06 799.5,-407.06 799.5,-410.89 795.67,-414.72 791.83,-414.72"/>
<text text-anchor="middle" x="687" y="-399.52" font-family="Arial" font-size="14.00" fill="#c6c5fe">handlers/location/credentialOffer.ts</text>
</g>
<!-- handlers/location.handler.ts&#45;&gt;handlers/location/credentialOffer.ts -->
<g id="edge21" class="edge">
<title>handlers/location.handler.ts&#45;&gt;handlers/location/credentialOffer.ts</title>
<path fill="none" stroke="#757575" d="M509.76,-374.74C539.39,-379.53 573.96,-385.12 604.59,-390.07"/>
<polygon fill="#757575" stroke="#757575" points="604.39,-393.58 614.82,-391.72 605.51,-386.67 604.39,-393.58"/>
</g>
<!-- handlers/location/presentationRequest.ts -->
<g id="node14" class="node">
<title>handlers/location/presentationRequest.ts</title>
<path fill="none" stroke="#c6c5fe" d="M1816.33,-534.72C1816.33,-534.72 1570.67,-534.72 1570.67,-534.72 1566.83,-534.72 1563,-530.89 1563,-527.06 1563,-527.06 1563,-519.39 1563,-519.39 1563,-515.56 1566.83,-511.72 1570.67,-511.72 1570.67,-511.72 1816.33,-511.72 1816.33,-511.72 1820.17,-511.72 1824,-515.56 1824,-519.39 1824,-519.39 1824,-527.06 1824,-527.06 1824,-530.89 1820.17,-534.72 1816.33,-534.72"/>
<text text-anchor="middle" x="1693.5" y="-519.52" font-family="Arial" font-size="14.00" fill="#c6c5fe">handlers/location/presentationRequest.ts</text>
</g>
<!-- handlers/location.handler.ts&#45;&gt;handlers/location/presentationRequest.ts -->
<g id="edge22" class="edge">
<title>handlers/location.handler.ts&#45;&gt;handlers/location/presentationRequest.ts</title>
<path fill="none" stroke="#757575" d="M528.21,-368.03C603.45,-372.07 713.74,-378 810,-383.22 887.11,-387.41 1440.52,-377.24 1504,-421.22 1536.72,-443.89 1508.16,-479.33 1540,-503.22 1544.29,-506.45 1548.86,-509.29 1553.62,-511.78"/>
<polygon fill="#757575" stroke="#757575" points="1552.45,-515.1 1562.99,-516.17 1555.42,-508.76 1552.45,-515.1"/>
</g>
<!-- handlers/location/presentationSuccess.ts -->
<g id="node15" class="node">
<title>handlers/location/presentationSuccess.ts</title>
<path fill="none" stroke="#c6c5fe" d="M1100.33,-100.72C1100.33,-100.72 853.67,-100.72 853.67,-100.72 849.83,-100.72 846,-96.89 846,-93.06 846,-93.06 846,-85.39 846,-85.39 846,-81.56 849.83,-77.72 853.67,-77.72 853.67,-77.72 1100.33,-77.72 1100.33,-77.72 1104.17,-77.72 1108,-81.56 1108,-85.39 1108,-85.39 1108,-93.06 1108,-93.06 1108,-96.89 1104.17,-100.72 1100.33,-100.72"/>
<text text-anchor="middle" x="977" y="-85.52" font-family="Arial" font-size="14.00" fill="#c6c5fe">handlers/location/presentationSuccess.ts</text>
</g>
<!-- handlers/location.handler.ts&#45;&gt;handlers/location/presentationSuccess.ts -->
<g id="edge23" class="edge">
<title>handlers/location.handler.ts&#45;&gt;handlers/location/presentationSuccess.ts</title>
<path fill="none" stroke="#757575" d="M440.26,-351.72C447.19,-310.97 476.57,-172.84 564,-115.22 607.47,-86.58 734.3,-82.07 835.87,-83.53"/>
<polygon fill="#757575" stroke="#757575" points="835.87,-87.03 845.93,-83.7 835.99,-80.03 835.87,-87.03"/>
</g>
<!-- handlers/location/protocolError.ts -->
<g id="node16" class="node">
<title>handlers/location/protocolError.ts</title>
<path fill="none" stroke="#c6c5fe" d="M1076.33,-216.72C1076.33,-216.72 877.67,-216.72 877.67,-216.72 873.83,-216.72 870,-212.89 870,-209.06 870,-209.06 870,-201.39 870,-201.39 870,-197.56 873.83,-193.72 877.67,-193.72 877.67,-193.72 1076.33,-193.72 1076.33,-193.72 1080.17,-193.72 1084,-197.56 1084,-201.39 1084,-201.39 1084,-209.06 1084,-209.06 1084,-212.89 1080.17,-216.72 1076.33,-216.72"/>
<text text-anchor="middle" x="977" y="-201.52" font-family="Arial" font-size="14.00" fill="#c6c5fe">handlers/location/protocolError.ts</text>
</g>
<!-- handlers/location.handler.ts&#45;&gt;handlers/location/protocolError.ts -->
<g id="edge24" class="edge">
<title>handlers/location.handler.ts&#45;&gt;handlers/location/protocolError.ts</title>
<path fill="none" stroke="#757575" d="M459.71,-351.5C484.23,-338.32 526.09,-316.98 564,-303.22 676.41,-262.45 812.28,-233.93 896.43,-218.55"/>
<polygon fill="#757575" stroke="#757575" points="897.22,-221.96 906.43,-216.74 895.97,-215.08 897.22,-221.96"/>
</g>
<!-- handlers/location/authorizationCode.ts&#45;&gt;errors.ts -->
<g id="edge26" class="edge">
<title>handlers/location/authorizationCode.ts&#45;&gt;errors.ts</title>
<path fill="none" stroke="#757575" d="M764.83,-311.72C855.28,-298.78 1010.16,-278.48 1144,-270.22 1299.93,-260.6 1713.99,-185.29 1847,-267.22 1887.37,-292.09 1904.63,-349.11 1911.29,-380.51"/>
<polygon fill="#757575" stroke="#757575" points="1907.88,-381.3 1913.22,-390.45 1914.75,-379.96 1907.88,-381.3"/>
</g>
<!-- handlers/location/authorizationCode.ts&#45;&gt;statements/index.ts -->
<g id="edge27" class="edge">
<title>handlers/location/authorizationCode.ts&#45;&gt;statements/index.ts</title>
<path fill="none" stroke="#757575" d="M716.14,-334.75C768.29,-356.12 879.98,-401.88 938.49,-425.85"/>
<polygon fill="#757575" stroke="#757575" points="937.17,-429.09 947.75,-429.65 939.82,-422.62 937.17,-429.09"/>
</g>
<!-- handlers/location/credentialOffer.ts&#45;&gt;errors.ts -->
<g id="edge28" class="edge">
<title>handlers/location/credentialOffer.ts&#45;&gt;errors.ts</title>
<path fill="none" stroke="#757575" d="M728.73,-391.67C807.92,-369.87 988.5,-323.41 1144,-307.22 1299.38,-291.04 1708.06,-235.81 1847,-307.22 1877.17,-322.73 1896.94,-358.52 1907.03,-381.48"/>
<polygon fill="#757575" stroke="#757575" points="1903.8,-382.83 1910.87,-390.72 1910.26,-380.14 1903.8,-382.83"/>
</g>
<!-- handlers/location/credentialOffer.ts&#45;&gt;statements/index.ts -->
<g id="edge29" class="edge">
<title>handlers/location/credentialOffer.ts&#45;&gt;statements/index.ts</title>
<path fill="none" stroke="#757575" d="M775.19,-414.73C814.86,-419.96 861.37,-426.1 899.64,-431.15"/>
<polygon fill="#757575" stroke="#757575" points="899.32,-434.64 909.69,-432.47 900.23,-427.7 899.32,-434.64"/>
</g>
<!-- handlers/location/presentationRequest.ts&#45;&gt;ports.ts -->
<g id="edge31" class="edge">
<title>handlers/location/presentationRequest.ts&#45;&gt;ports.ts</title>
<path fill="none" stroke="#757575" d="M1824.3,-532.85C1832.27,-535.93 1839.92,-539.68 1847,-544.22 1878.44,-564.41 1898.08,-604.87 1907.75,-629.84"/>
<polygon fill="#757575" stroke="#757575" points="1904.56,-631.31 1911.29,-639.49 1911.13,-628.9 1904.56,-631.31"/>
</g>
<!-- handlers/location/presentationRequest.ts&#45;&gt;errors.ts -->
<g id="edge30" class="edge">
<title>handlers/location/presentationRequest.ts&#45;&gt;errors.ts</title>
<path fill="none" stroke="#757575" d="M1824.14,-514.27C1832.15,-511.29 1839.85,-507.65 1847,-503.22 1877.06,-484.61 1896.87,-447.21 1906.99,-423.51"/>
<polygon fill="#757575" stroke="#757575" points="1910.33,-424.58 1910.85,-414 1903.84,-421.95 1910.33,-424.58"/>
</g>
<!-- handlers/location/presentationSuccess.ts&#45;&gt;errors.ts -->
<g id="edge32" class="edge">
<title>handlers/location/presentationSuccess.ts&#45;&gt;errors.ts</title>
<path fill="none" stroke="#757575" d="M1108.16,-84.23C1336.68,-76.71 1791.24,-67.79 1847,-113.22 1888.85,-147.32 1907.74,-319.1 1913.22,-380.43"/>
<polygon fill="#757575" stroke="#757575" points="1909.75,-380.87 1914.1,-390.53 1916.72,-380.27 1909.75,-380.87"/>
</g>
<!-- handlers/location/protocolError.ts&#45;&gt;errors.ts -->
<g id="edge33" class="edge">
<title>handlers/location/protocolError.ts&#45;&gt;errors.ts</title>
<path fill="none" stroke="#757575" d="M1084.25,-201.97C1302.5,-196.2 1786,-188.49 1847,-231.22 1859.93,-240.28 1893.44,-337.33 1908.04,-381.07"/>
<polygon fill="#757575" stroke="#757575" points="1904.77,-382.33 1911.24,-390.72 1911.41,-380.12 1904.77,-382.33"/>
</g>
<!-- index.ts -->
<g id="node20" class="node">
<title>index.ts</title>
<path fill="none" stroke="#c6c5fe" d="M55.33,-897.72C55.33,-897.72 7.67,-897.72 7.67,-897.72 3.83,-897.72 0,-893.89 0,-890.06 0,-890.06 0,-882.39 0,-882.39 0,-878.56 3.83,-874.72 7.67,-874.72 7.67,-874.72 55.33,-874.72 55.33,-874.72 59.17,-874.72 63,-878.56 63,-882.39 63,-882.39 63,-890.06 63,-890.06 63,-893.89 59.17,-897.72 55.33,-897.72"/>
<text text-anchor="middle" x="31.5" y="-882.52" font-family="Arial" font-size="14.00" fill="#c6c5fe">index.ts</text>
</g>
<!-- index.ts&#45;&gt;config.ts -->
<g id="edge37" class="edge">
<title>index.ts&#45;&gt;config.ts</title>
<path fill="none" stroke="#757575" d="M63.19,-886.22C105.39,-886.22 183.7,-886.22 250.5,-886.22 250.5,-886.22 250.5,-886.22 438.5,-886.22 622.62,-886.22 842.01,-875.54 933.09,-870.64"/>
<polygon fill="#757575" stroke="#757575" points="933.5,-874.12 943.29,-870.08 933.12,-867.13 933.5,-874.12"/>
</g>
<!-- index.ts&#45;&gt;ports.ts -->
<g id="edge40" class="edge">
<title>index.ts&#45;&gt;ports.ts</title>
<path fill="none" stroke="#757575" d="M59.46,-897.83C100.08,-914.23 179.77,-942.22 250.5,-942.22 250.5,-942.22 250.5,-942.22 978,-942.22 1366.98,-942.22 1543.27,-1081.24 1847,-838.22 1898.67,-796.89 1911.09,-712.72 1914.06,-672.96"/>
<polygon fill="#757575" stroke="#757575" points="1917.57,-672.97 1914.69,-662.78 1910.58,-672.54 1917.57,-672.97"/>
</g>
<!-- index.ts&#45;&gt;resources.ts -->
<g id="edge41" class="edge">
<title>index.ts&#45;&gt;resources.ts</title>
<path fill="none" stroke="#757575" d="M44.6,-897.89C75.89,-926.76 163.11,-999.22 250.5,-999.22 250.5,-999.22 250.5,-999.22 1694.5,-999.22 1808.68,-999.22 1865.02,-1041.58 1949,-964.22 2022.61,-896.42 2029.81,-764.91 2029.62,-713.03"/>
<polygon fill="#757575" stroke="#757575" points="2033.11,-712.9 2029.48,-702.95 2026.12,-713 2033.11,-712.9"/>
</g>
<!-- index.ts&#45;&gt;core.ts -->
<g id="edge38" class="edge">
<title>index.ts&#45;&gt;core.ts</title>
<path fill="none" stroke="#757575" d="M59.69,-874.65C69.14,-870.63 79.9,-866.05 89.98,-861.76"/>
<polygon fill="#757575" stroke="#757575" points="91.54,-864.9 99.37,-857.77 88.8,-858.46 91.54,-864.9"/>
</g>
<!-- index.ts&#45;&gt;errors.ts -->
<g id="edge39" class="edge">
<title>index.ts&#45;&gt;errors.ts</title>
<path fill="none" stroke="#757575" d="M32.92,-874.71C36.88,-774.18 71.62,-49.22 250.5,-49.22 250.5,-49.22 250.5,-49.22 1325,-49.22 1557.27,-49.22 1670.42,76.67 1847,-74.22 1893.91,-114.31 1909.78,-313.35 1913.83,-380.25"/>
<polygon fill="#757575" stroke="#757575" points="1910.35,-380.69 1914.42,-390.47 1917.34,-380.29 1910.35,-380.69"/>
</g>
<!-- statements/locations/fetchAuthorizationUrl.ts -->
<g id="node25" class="node">
<title>statements/locations/fetchAuthorizationUrl.ts</title>
<path fill="none" stroke="#c6c5fe" d="M1827.83,-780.72C1827.83,-780.72 1559.17,-780.72 1559.17,-780.72 1555.33,-780.72 1551.5,-776.89 1551.5,-773.06 1551.5,-773.06 1551.5,-765.39 1551.5,-765.39 1551.5,-761.56 1555.33,-757.72 1559.17,-757.72 1559.17,-757.72 1827.83,-757.72 1827.83,-757.72 1831.67,-757.72 1835.5,-761.56 1835.5,-765.39 1835.5,-765.39 1835.5,-773.06 1835.5,-773.06 1835.5,-776.89 1831.67,-780.72 1827.83,-780.72"/>
<text text-anchor="middle" x="1693.5" y="-765.52" font-family="Arial" font-size="14.00" fill="#c6c5fe">statements/locations/fetchAuthorizationUrl.ts</text>
</g>
<!-- statements/locations/index.ts&#45;&gt;statements/locations/fetchAuthorizationUrl.ts -->
<g id="edge50" class="edge">
<title>statements/locations/index.ts&#45;&gt;statements/locations/fetchAuthorizationUrl.ts</title>
<path fill="none" stroke="#757575" d="M1419.83,-619.65C1449.46,-621.88 1480.5,-629.51 1504,-648.22 1541.28,-677.91 1502.93,-719.28 1540,-749.22 1541.2,-750.19 1542.43,-751.13 1543.67,-752.03"/>
<polygon fill="#757575" stroke="#757575" points="1541.9,-755.05 1552.2,-757.54 1545.69,-749.17 1541.9,-755.05"/>
</g>
<!-- statements/resources/clientState.ts -->
<g id="node26" class="node">
<title>statements/resources/clientState.ts</title>
<path fill="none" stroke="#c6c5fe" d="M1799.33,-493.72C1799.33,-493.72 1587.67,-493.72 1587.67,-493.72 1583.83,-493.72 1580,-489.89 1580,-486.06 1580,-486.06 1580,-478.39 1580,-478.39 1580,-474.56 1583.83,-470.72 1587.67,-470.72 1587.67,-470.72 1799.33,-470.72 1799.33,-470.72 1803.17,-470.72 1807,-474.56 1807,-478.39 1807,-478.39 1807,-486.06 1807,-486.06 1807,-489.89 1803.17,-493.72 1799.33,-493.72"/>
<text text-anchor="middle" x="1693.5" y="-478.52" font-family="Arial" font-size="14.00" fill="#c6c5fe">statements/resources/clientState.ts</text>
</g>
<!-- statements/resources/index.ts&#45;&gt;statements/resources/clientState.ts -->
<g id="edge57" class="edge">
<title>statements/resources/index.ts&#45;&gt;statements/resources/clientState.ts</title>
<path fill="none" stroke="#757575" d="M1422.71,-364.05C1450.1,-367.81 1479.16,-374.77 1504,-387.22 1524.23,-397.37 1521.04,-410.87 1540,-423.22 1570.48,-443.07 1608.65,-457.83 1639.18,-467.63"/>
<polygon fill="#757575" stroke="#757575" points="1638.22,-470.99 1648.81,-470.63 1640.3,-464.31 1638.22,-470.99"/>
</g>
<!-- statements/resources/fetchIssuerMetadata.ts -->
<g id="node27" class="node">
<title>statements/resources/fetchIssuerMetadata.ts</title>
<path fill="none" stroke="#c6c5fe" d="M1829.33,-372.72C1829.33,-372.72 1557.67,-372.72 1557.67,-372.72 1553.83,-372.72 1550,-368.89 1550,-365.06 1550,-365.06 1550,-357.39 1550,-357.39 1550,-353.56 1553.83,-349.72 1557.67,-349.72 1557.67,-349.72 1829.33,-349.72 1829.33,-349.72 1833.17,-349.72 1837,-353.56 1837,-357.39 1837,-357.39 1837,-365.06 1837,-365.06 1837,-368.89 1833.17,-372.72 1829.33,-372.72"/>
<text text-anchor="middle" x="1693.5" y="-357.52" font-family="Arial" font-size="14.00" fill="#c6c5fe">statements/resources/fetchIssuerMetadata.ts</text>
</g>
<!-- statements/resources/index.ts&#45;&gt;statements/resources/fetchIssuerMetadata.ts -->
<g id="edge58" class="edge">
<title>statements/resources/index.ts&#45;&gt;statements/resources/fetchIssuerMetadata.ts</title>
<path fill="none" stroke="#757575" d="M1422.52,-361.22C1458.49,-361.22 1500.16,-361.22 1539.85,-361.22"/>
<polygon fill="#757575" stroke="#757575" points="1539.89,-364.72 1549.89,-361.22 1539.89,-357.72 1539.89,-364.72"/>
</g>
<!-- statements/resources/issuerClient.ts -->
<g id="node28" class="node">
<title>statements/resources/issuerClient.ts</title>
<path fill="none" stroke="#c6c5fe" d="M1803.33,-178.72C1803.33,-178.72 1583.67,-178.72 1583.67,-178.72 1579.83,-178.72 1576,-174.89 1576,-171.06 1576,-171.06 1576,-163.39 1576,-163.39 1576,-159.56 1579.83,-155.72 1583.67,-155.72 1583.67,-155.72 1803.33,-155.72 1803.33,-155.72 1807.17,-155.72 1811,-159.56 1811,-163.39 1811,-163.39 1811,-171.06 1811,-171.06 1811,-174.89 1807.17,-178.72 1803.33,-178.72"/>
<text text-anchor="middle" x="1693.5" y="-163.52" font-family="Arial" font-size="14.00" fill="#c6c5fe">statements/resources/issuerClient.ts</text>
</g>
<!-- statements/resources/index.ts&#45;&gt;statements/resources/issuerClient.ts -->
<g id="edge59" class="edge">
<title>statements/resources/index.ts&#45;&gt;statements/resources/issuerClient.ts</title>
<path fill="none" stroke="#757575" d="M1346.89,-349.67C1409.3,-316.72 1588.29,-222.23 1661.12,-183.79"/>
<polygon fill="#757575" stroke="#757575" points="1663.05,-186.73 1670.26,-178.96 1659.78,-180.54 1663.05,-186.73"/>
</g>
<!-- statements/tokens/fetchAccessToken.ts -->
<g id="node29" class="node">
<title>statements/tokens/fetchAccessToken.ts</title>
<path fill="none" stroke="#c6c5fe" d="M1812.83,-739.72C1812.83,-739.72 1574.17,-739.72 1574.17,-739.72 1570.33,-739.72 1566.5,-735.89 1566.5,-732.06 1566.5,-732.06 1566.5,-724.39 1566.5,-724.39 1566.5,-720.56 1570.33,-716.72 1574.17,-716.72 1574.17,-716.72 1812.83,-716.72 1812.83,-716.72 1816.67,-716.72 1820.5,-720.56 1820.5,-724.39 1820.5,-724.39 1820.5,-732.06 1820.5,-732.06 1820.5,-735.89 1816.67,-739.72 1812.83,-739.72"/>
<text text-anchor="middle" x="1693.5" y="-724.52" font-family="Arial" font-size="14.00" fill="#c6c5fe">statements/tokens/fetchAccessToken.ts</text>
</g>
<!-- statements/tokens/index.ts&#45;&gt;statements/tokens/fetchAccessToken.ts -->
<g id="edge71" class="edge">
<title>statements/tokens/index.ts&#45;&gt;statements/tokens/fetchAccessToken.ts</title>
<path fill="none" stroke="#757575" d="M1412.91,-578.22C1444.56,-579.75 1478.67,-587.05 1504,-607.22 1541.28,-636.91 1502.93,-678.28 1540,-708.22 1545.18,-712.41 1550.8,-715.97 1556.72,-718.98"/>
<polygon fill="#757575" stroke="#757575" points="1555.7,-722.36 1566.26,-723.28 1558.58,-715.98 1555.7,-722.36"/>
</g>
<!-- statements/tokens/fetchCredentials.ts -->
<g id="node30" class="node">
<title>statements/tokens/fetchCredentials.ts</title>
<path fill="none" stroke="#c6c5fe" d="M1806.83,-698.72C1806.83,-698.72 1580.17,-698.72 1580.17,-698.72 1576.33,-698.72 1572.5,-694.89 1572.5,-691.06 1572.5,-691.06 1572.5,-683.39 1572.5,-683.39 1572.5,-679.56 1576.33,-675.72 1580.17,-675.72 1580.17,-675.72 1806.83,-675.72 1806.83,-675.72 1810.67,-675.72 1814.5,-679.56 1814.5,-683.39 1814.5,-683.39 1814.5,-691.06 1814.5,-691.06 1814.5,-694.89 1810.67,-698.72 1806.83,-698.72"/>
<text text-anchor="middle" x="1693.5" y="-683.52" font-family="Arial" font-size="14.00" fill="#c6c5fe">statements/tokens/fetchCredentials.ts</text>
</g>
<!-- statements/tokens/index.ts&#45;&gt;statements/tokens/fetchCredentials.ts -->
<g id="edge72" class="edge">
<title>statements/tokens/index.ts&#45;&gt;statements/tokens/fetchCredentials.ts</title>
<path fill="none" stroke="#757575" d="M1412.75,-581.11C1443.66,-583.12 1477.32,-589.99 1504,-607.22 1530.12,-624.1 1513.99,-650.17 1540,-667.22 1547.06,-671.85 1554.71,-675.65 1562.68,-678.74"/>
<polygon fill="#757575" stroke="#757575" points="1561.59,-682.06 1572.18,-682.05 1563.89,-675.45 1561.59,-682.06"/>
</g>
<!-- statements/tokens/fetchNonce.ts -->
<g id="node31" class="node">
<title>statements/tokens/fetchNonce.ts</title>
<path fill="none" stroke="#c6c5fe" d="M1792.33,-657.72C1792.33,-657.72 1594.67,-657.72 1594.67,-657.72 1590.83,-657.72 1587,-653.89 1587,-650.06 1587,-650.06 1587,-642.39 1587,-642.39 1587,-638.56 1590.83,-634.72 1594.67,-634.72 1594.67,-634.72 1792.33,-634.72 1792.33,-634.72 1796.17,-634.72 1800,-638.56 1800,-642.39 1800,-642.39 1800,-650.06 1800,-650.06 1800,-653.89 1796.17,-657.72 1792.33,-657.72"/>
<text text-anchor="middle" x="1693.5" y="-642.52" font-family="Arial" font-size="14.00" fill="#c6c5fe">statements/tokens/fetchNonce.ts</text>
</g>
<!-- statements/tokens/index.ts&#45;&gt;statements/tokens/fetchNonce.ts -->
<g id="edge73" class="edge">
<title>statements/tokens/index.ts&#45;&gt;statements/tokens/fetchNonce.ts</title>
<path fill="none" stroke="#757575" d="M1412.84,-590.04C1442.3,-593.02 1475.02,-598.22 1504,-607.22 1521.28,-612.59 1522.76,-620.74 1540,-626.22 1551.75,-629.96 1564.21,-633 1576.76,-635.47"/>
<polygon fill="#757575" stroke="#757575" points="1576.36,-638.96 1586.83,-637.34 1577.63,-632.07 1576.36,-638.96"/>
</g>
<!-- statements/tokens/generateDpop.ts -->
<g id="node32" class="node">
<title>statements/tokens/generateDpop.ts</title>
<path fill="none" stroke="#cfffac" d="M1800.83,-616.72C1800.83,-616.72 1586.17,-616.72 1586.17,-616.72 1582.33,-616.72 1578.5,-612.89 1578.5,-609.06 1578.5,-609.06 1578.5,-601.39 1578.5,-601.39 1578.5,-597.56 1582.33,-593.72 1586.17,-593.72 1586.17,-593.72 1800.83,-593.72 1800.83,-593.72 1804.67,-593.72 1808.5,-597.56 1808.5,-601.39 1808.5,-601.39 1808.5,-609.06 1808.5,-609.06 1808.5,-612.89 1804.67,-616.72 1800.83,-616.72"/>
<text text-anchor="middle" x="1693.5" y="-601.52" font-family="Arial" font-size="14.00" fill="#cfffac">statements/tokens/generateDpop.ts</text>
</g>
<!-- statements/tokens/index.ts&#45;&gt;statements/tokens/generateDpop.ts -->
<g id="edge74" class="edge">
<title>statements/tokens/index.ts&#45;&gt;statements/tokens/generateDpop.ts</title>
<path fill="none" stroke="#757575" d="M1412.56,-590.75C1459.13,-593.16 1517.19,-596.16 1568.34,-598.8"/>
<polygon fill="#757575" stroke="#757575" points="1568.3,-602.31 1578.47,-599.33 1568.66,-595.32 1568.3,-602.31"/>
</g>
<!-- statements/validations/validateCredentialOffer.ts -->
<g id="node33" class="node">
<title>statements/validations/validateCredentialOffer.ts</title>
<path fill="none" stroke="#c6c5fe" d="M1839.33,-413.72C1839.33,-413.72 1547.67,-413.72 1547.67,-413.72 1543.83,-413.72 1540,-409.89 1540,-406.06 1540,-406.06 1540,-398.39 1540,-398.39 1540,-394.56 1543.83,-390.72 1547.67,-390.72 1547.67,-390.72 1839.33,-390.72 1839.33,-390.72 1843.17,-390.72 1847,-394.56 1847,-398.39 1847,-398.39 1847,-406.06 1847,-406.06 1847,-409.89 1843.17,-413.72 1839.33,-413.72"/>
<text text-anchor="middle" x="1693.5" y="-398.52" font-family="Arial" font-size="14.00" fill="#c6c5fe">statements/validations/validateCredentialOffer.ts</text>
</g>
<!-- statements/validations/index.ts&#45;&gt;statements/validations/validateCredentialOffer.ts -->
<g id="edge75" class="edge">
<title>statements/validations/index.ts&#45;&gt;statements/validations/validateCredentialOffer.ts</title>
<path fill="none" stroke="#757575" d="M1424.94,-430.62C1470.87,-425.74 1525.7,-419.92 1573.74,-414.83"/>
<polygon fill="#757575" stroke="#757575" points="1574.3,-418.29 1583.88,-413.75 1573.56,-411.33 1574.3,-418.29"/>
</g>
<!-- statements/validations/validateGrants.ts -->
<g id="node34" class="node">
<title>statements/validations/validateGrants.ts</title>
<path fill="none" stroke="#c6c5fe" d="M1814.33,-575.72C1814.33,-575.72 1572.67,-575.72 1572.67,-575.72 1568.83,-575.72 1565,-571.89 1565,-568.06 1565,-568.06 1565,-560.39 1565,-560.39 1565,-556.56 1568.83,-552.72 1572.67,-552.72 1572.67,-552.72 1814.33,-552.72 1814.33,-552.72 1818.17,-552.72 1822,-556.56 1822,-560.39 1822,-560.39 1822,-568.06 1822,-568.06 1822,-571.89 1818.17,-575.72 1814.33,-575.72"/>
<text text-anchor="middle" x="1693.5" y="-560.52" font-family="Arial" font-size="14.00" fill="#c6c5fe">statements/validations/validateGrants.ts</text>
</g>
<!-- statements/validations/index.ts&#45;&gt;statements/validations/validateGrants.ts -->
<g id="edge76" class="edge">
<title>statements/validations/index.ts&#45;&gt;statements/validations/validateGrants.ts</title>
<path fill="none" stroke="#757575" d="M1343.74,-452.74C1380.11,-474.49 1463.42,-521.49 1540,-544.22 1548.18,-546.65 1556.7,-548.79 1565.34,-550.66"/>
<polygon fill="#757575" stroke="#757575" points="1564.64,-554.09 1575.14,-552.67 1566.05,-547.23 1564.64,-554.09"/>
</g>
<!-- statements/locations/fetchAuthorizationUrl.ts&#45;&gt;ports.ts -->
<g id="edge48" class="edge">
<title>statements/locations/fetchAuthorizationUrl.ts&#45;&gt;ports.ts</title>
<path fill="none" stroke="#757575" d="M1830.49,-757.62C1836.22,-755.2 1841.76,-752.42 1847,-749.22 1876.42,-731.29 1896.32,-695.28 1906.65,-672.25"/>
<polygon fill="#757575" stroke="#757575" points="1909.9,-673.56 1910.61,-662.99 1903.46,-670.81 1909.9,-673.56"/>
</g>
<!-- statements/locations/fetchAuthorizationUrl.ts&#45;&gt;resources.ts -->
<g id="edge49" class="edge">
<title>statements/locations/fetchAuthorizationUrl.ts&#45;&gt;resources.ts</title>
<path fill="none" stroke="#757575" d="M1798.2,-757.7C1814.6,-755.29 1831.31,-752.46 1847,-749.22 1893.16,-739.69 1904.15,-734.71 1949,-720.22 1962.22,-715.95 1976.52,-710.91 1989.33,-706.23"/>
<polygon fill="#757575" stroke="#757575" points="1990.61,-709.49 1998.78,-702.75 1988.19,-702.92 1990.61,-709.49"/>
</g>
<!-- statements/locations/fetchAuthorizationUrl.ts&#45;&gt;errors.ts -->
<g id="edge47" class="edge">
<title>statements/locations/fetchAuthorizationUrl.ts&#45;&gt;errors.ts</title>
<path fill="none" stroke="#757575" d="M1835.76,-758.04C1839.73,-755.44 1843.5,-752.51 1847,-749.22 1871.06,-726.64 1902.67,-497.24 1912.18,-424.34"/>
<polygon fill="#757575" stroke="#757575" points="1915.7,-424.4 1913.51,-414.04 1908.76,-423.51 1915.7,-424.4"/>
</g>
<!-- statements/resources/clientState.ts&#45;&gt;ports.ts -->
<g id="edge52" class="edge">
<title>statements/resources/clientState.ts&#45;&gt;ports.ts</title>
<path fill="none" stroke="#757575" d="M1807.08,-484.53C1821.43,-488.5 1835.2,-494.46 1847,-503.22 1888.62,-534.11 1905.5,-596.63 1911.73,-629.66"/>
<polygon fill="#757575" stroke="#757575" points="1908.3,-630.38 1913.46,-639.64 1915.2,-629.19 1908.3,-630.38"/>
</g>
<!-- statements/resources/clientState.ts&#45;&gt;resources.ts -->
<g id="edge53" class="edge">
<title>statements/resources/clientState.ts&#45;&gt;resources.ts</title>
<path fill="none" stroke="#757575" d="M1807.27,-490.46C1820.98,-493.57 1834.53,-497.72 1847,-503.22 1928.37,-539.15 1991.74,-630.1 2017.04,-670.89"/>
<polygon fill="#757575" stroke="#757575" points="2014.2,-672.95 2022.38,-679.67 2020.18,-669.31 2014.2,-672.95"/>
</g>
<!-- statements/resources/clientState.ts&#45;&gt;errors.ts -->
<g id="edge51" class="edge">
<title>statements/resources/clientState.ts&#45;&gt;errors.ts</title>
<path fill="none" stroke="#757575" d="M1803.15,-470.64C1818.24,-467.05 1833.27,-462.36 1847,-456.22 1865.92,-447.77 1884.13,-432.83 1896.94,-420.8"/>
<polygon fill="#757575" stroke="#757575" points="1899.44,-423.25 1904.17,-413.77 1894.56,-418.23 1899.44,-423.25"/>
</g>
<!-- statements/resources/fetchIssuerMetadata.ts&#45;&gt;ports.ts -->
<g id="edge55" class="edge">
<title>statements/resources/fetchIssuerMetadata.ts&#45;&gt;ports.ts</title>
<path fill="none" stroke="#757575" d="M1834.2,-372.77C1838.73,-375.52 1843.02,-378.66 1847,-382.22 1884.18,-415.5 1905.72,-571.11 1912.58,-629.24"/>
<polygon fill="#757575" stroke="#757575" points="1909.14,-629.97 1913.76,-639.5 1916.1,-629.17 1909.14,-629.97"/>
</g>
<!-- statements/resources/fetchIssuerMetadata.ts&#45;&gt;resources.ts -->
<g id="edge56" class="edge">
<title>statements/resources/fetchIssuerMetadata.ts&#45;&gt;resources.ts</title>
<path fill="none" stroke="#757575" d="M1745.37,-349.69C1801.86,-340.09 1892.54,-334.68 1949,-382.22 1993.68,-419.85 2019.03,-605.1 2026.58,-669.28"/>
<polygon fill="#757575" stroke="#757575" points="2023.13,-669.94 2027.75,-679.48 2030.09,-669.14 2023.13,-669.94"/>
</g>
<!-- statements/resources/fetchIssuerMetadata.ts&#45;&gt;errors.ts -->
<g id="edge54" class="edge">
<title>statements/resources/fetchIssuerMetadata.ts&#45;&gt;errors.ts</title>
<path fill="none" stroke="#757575" d="M1794.13,-372.76C1811.82,-375.43 1830.02,-378.58 1847,-382.22 1855.47,-384.04 1864.43,-386.37 1872.97,-388.8"/>
<polygon fill="#757575" stroke="#757575" points="1872.16,-392.21 1882.74,-391.66 1874.13,-385.49 1872.16,-392.21"/>
</g>
<!-- statements/resources/issuerClient.ts&#45;&gt;resources.ts -->
<g id="edge61" class="edge">
<title>statements/resources/issuerClient.ts&#45;&gt;resources.ts</title>
<path fill="none" stroke="#757575" d="M1811.14,-176.77C1823.83,-180.77 1836.09,-186.11 1847,-193.22 1915.79,-238.03 1916.52,-271.83 1949,-347.22 1998.7,-462.6 2020.09,-613.64 2026.65,-669.36"/>
<polygon fill="#757575" stroke="#757575" points="2023.19,-669.93 2027.8,-679.47 2030.15,-669.14 2023.19,-669.93"/>
</g>
<!-- statements/resources/issuerClient.ts&#45;&gt;errors.ts -->
<g id="edge60" class="edge">
<title>statements/resources/issuerClient.ts&#45;&gt;errors.ts</title>
<path fill="none" stroke="#757575" d="M1811.31,-173.31C1824.35,-177.85 1836.64,-184.27 1847,-193.22 1875.93,-218.22 1901.23,-332.14 1910.86,-380.46"/>
<polygon fill="#757575" stroke="#757575" points="1907.47,-381.34 1912.82,-390.48 1914.34,-380 1907.47,-381.34"/>
</g>
<!-- statements/tokens/fetchAccessToken.ts&#45;&gt;ports.ts -->
<g id="edge63" class="edge">
<title>statements/tokens/fetchAccessToken.ts&#45;&gt;ports.ts</title>
<path fill="none" stroke="#757575" d="M1820.89,-717.43C1829.89,-714.91 1838.69,-711.88 1847,-708.22 1866.62,-699.6 1885,-683.52 1897.69,-670.63"/>
<polygon fill="#757575" stroke="#757575" points="1900.48,-672.77 1904.82,-663.11 1895.4,-667.96 1900.48,-672.77"/>
</g>
<!-- statements/tokens/fetchAccessToken.ts&#45;&gt;resources.ts -->
<g id="edge64" class="edge">
<title>statements/tokens/fetchAccessToken.ts&#45;&gt;resources.ts</title>
<path fill="none" stroke="#757575" d="M1820.53,-717.13C1861.55,-713.17 1907.25,-708.4 1949,-703.22 1957.31,-702.19 1966.1,-700.99 1974.68,-699.75"/>
<polygon fill="#757575" stroke="#757575" points="1975.24,-703.21 1984.62,-698.29 1974.22,-696.28 1975.24,-703.21"/>
</g>
<!-- statements/tokens/fetchAccessToken.ts&#45;&gt;errors.ts -->
<g id="edge62" class="edge">
<title>statements/tokens/fetchAccessToken.ts&#45;&gt;errors.ts</title>
<path fill="none" stroke="#757575" d="M1820.54,-724.79C1830.21,-720.75 1839.22,-715.35 1847,-708.22 1889.32,-669.49 1908.06,-486.99 1913.35,-423.81"/>
<polygon fill="#757575" stroke="#757575" points="1916.84,-424.03 1914.16,-413.78 1909.87,-423.47 1916.84,-424.03"/>
</g>
<!-- statements/tokens/fetchCredentials.ts&#45;&gt;ports.ts -->
<g id="edge66" class="edge">
<title>statements/tokens/fetchCredentials.ts&#45;&gt;ports.ts</title>
<path fill="none" stroke="#757575" d="M1793.58,-675.7C1811.41,-673.21 1829.79,-670.37 1847,-667.22 1856.29,-665.53 1866.21,-663.38 1875.53,-661.22"/>
<polygon fill="#757575" stroke="#757575" points="1876.43,-664.6 1885.35,-658.89 1874.81,-657.79 1876.43,-664.6"/>
</g>
<!-- statements/tokens/fetchCredentials.ts&#45;&gt;resources.ts -->
<g id="edge67" class="edge">
<title>statements/tokens/fetchCredentials.ts&#45;&gt;resources.ts</title>
<path fill="none" stroke="#757575" d="M1814.79,-688.66C1869.58,-689.32 1931.7,-690.06 1974.87,-690.58"/>
<polygon fill="#757575" stroke="#757575" points="1974.84,-694.08 1984.88,-690.7 1974.92,-687.08 1974.84,-694.08"/>
</g>
<!-- statements/tokens/fetchCredentials.ts&#45;&gt;errors.ts -->
<g id="edge65" class="edge">
<title>statements/tokens/fetchCredentials.ts&#45;&gt;errors.ts</title>
<path fill="none" stroke="#757575" d="M1814.68,-685.64C1826.52,-681.49 1837.61,-675.55 1847,-667.22 1883.83,-634.59 1905.59,-481.2 1912.54,-423.89"/>
<polygon fill="#757575" stroke="#757575" points="1916.04,-424.12 1913.74,-413.78 1909.09,-423.3 1916.04,-424.12"/>
</g>
<!-- statements/tokens/fetchNonce.ts&#45;&gt;ports.ts -->
<g id="edge69" class="edge">
<title>statements/tokens/fetchNonce.ts&#45;&gt;ports.ts</title>
<path fill="none" stroke="#757575" d="M1800.23,-648.62C1826.89,-649.23 1853.91,-649.84 1875.03,-650.32"/>
<polygon fill="#757575" stroke="#757575" points="1875.12,-653.82 1885.2,-650.55 1875.28,-646.82 1875.12,-653.82"/>
</g>
<!-- statements/tokens/fetchNonce.ts&#45;&gt;resources.ts -->
<g id="edge70" class="edge">
<title>statements/tokens/fetchNonce.ts&#45;&gt;resources.ts</title>
<path fill="none" stroke="#757575" d="M1777.47,-634.71C1839.34,-627.37 1918.24,-620.97 1949,-631.22 1973.4,-639.36 1996.36,-658.18 2011.37,-672.59"/>
<polygon fill="#757575" stroke="#757575" points="2008.9,-675.07 2018.46,-679.64 2013.83,-670.11 2008.9,-675.07"/>
</g>
<!-- statements/tokens/fetchNonce.ts&#45;&gt;errors.ts -->
<g id="edge68" class="edge">
<title>statements/tokens/fetchNonce.ts&#45;&gt;errors.ts</title>
<path fill="none" stroke="#757575" d="M1800.39,-648.18C1817.41,-644.26 1833.76,-637.45 1847,-626.22 1908.16,-574.37 1915.44,-469.41 1915.56,-423.99"/>
<polygon fill="#757575" stroke="#757575" points="1919.06,-423.76 1915.47,-413.79 1912.06,-423.82 1919.06,-423.76"/>
</g>
<!-- statements/validations/validateCredentialOffer.ts&#45;&gt;errors.ts -->
<g id="edge77" class="edge">
<title>statements/validations/validateCredentialOffer.ts&#45;&gt;errors.ts</title>
<path fill="none" stroke="#757575" d="M1847.04,-402.22C1856.1,-402.22 1864.72,-402.22 1872.58,-402.22"/>
<polygon fill="#757575" stroke="#757575" points="1872.8,-405.72 1882.8,-402.22 1872.8,-398.72 1872.8,-405.72"/>
</g>
<!-- statements/validations/validateGrants.ts&#45;&gt;ports.ts -->
<g id="edge79" class="edge">
<title>statements/validations/validateGrants.ts&#45;&gt;ports.ts</title>
<path fill="none" stroke="#757575" d="M1822.01,-575.47C1830.66,-578.14 1839.07,-581.36 1847,-585.22 1868.76,-595.83 1887.97,-616.05 1900.37,-631.32"/>
<polygon fill="#757575" stroke="#757575" points="1897.94,-633.9 1906.85,-639.63 1903.46,-629.6 1897.94,-633.9"/>
</g>
<!-- statements/validations/validateGrants.ts&#45;&gt;resources.ts -->
<g id="edge80" class="edge">
<title>statements/validations/validateGrants.ts&#45;&gt;resources.ts</title>
<path fill="none" stroke="#757575" d="M1815.41,-575.74C1859.68,-583.86 1908.74,-597.68 1949,-621.22 1972.74,-635.1 1995.95,-656.55 2011.2,-672.04"/>
<polygon fill="#757575" stroke="#757575" points="2008.96,-674.75 2018.41,-679.53 2014,-669.9 2008.96,-674.75"/>
</g>
<!-- statements/validations/validateGrants.ts&#45;&gt;errors.ts -->
<g id="edge78" class="edge">
<title>statements/validations/validateGrants.ts&#45;&gt;errors.ts</title>
<path fill="none" stroke="#757575" d="M1822.31,-557.51C1831.09,-554.07 1839.43,-549.71 1847,-544.22 1887.19,-515.09 1904.58,-455.84 1911.29,-423.86"/>
<polygon fill="#757575" stroke="#757575" points="1914.78,-424.26 1913.24,-413.77 1907.9,-422.93 1914.78,-424.26"/>
</g>
</g>
</svg>
