<?xml version="1.0" encoding="UTF-8" standalone="no"?>
<!DOCTYPE svg PUBLIC "-//W3C//DTD SVG 1.1//EN"
 "http://www.w3.org/Graphics/SVG/1.1/DTD/svg11.dtd">
<!-- Generated by graphviz version 2.43.0 (0)
 -->
<!-- Title: G Pages: 1 -->
<svg width="2396pt" height="1578pt"
 viewBox="0.00 0.00 2396.20 1577.91" xmlns="http://www.w3.org/2000/svg" xmlns:xlink="http://www.w3.org/1999/xlink">
<g id="graph0" class="graph" transform="scale(1 1) rotate(0) translate(21.6 1556.31)">
<title>G</title>
<polygon fill="#111111" stroke="transparent" points="-21.6,21.6 -21.6,-1556.31 2374.6,-1556.31 2374.6,21.6 -21.6,21.6"/>
<!-- config.ts -->
<g id="node1" class="node">
<title>config.ts</title>
<path fill="none" stroke="#c6c5fe" d="M1393.83,-1299C1393.83,-1299 1342.17,-1299 1342.17,-1299 1338.33,-1299 1334.5,-1295.17 1334.5,-1291.33 1334.5,-1291.33 1334.5,-1283.67 1334.5,-1283.67 1334.5,-1279.83 1338.33,-1276 1342.17,-1276 1342.17,-1276 1393.83,-1276 1393.83,-1276 1397.67,-1276 1401.5,-1279.83 1401.5,-1283.67 1401.5,-1283.67 1401.5,-1291.33 1401.5,-1291.33 1401.5,-1295.17 1397.67,-1299 1393.83,-1299"/>
<text text-anchor="middle" x="1368" y="-1283.8" font-family="Arial" font-size="14.00" fill="#c6c5fe">config.ts</text>
</g>
<!-- resources.ts -->
<g id="node2" class="node">
<title>resources.ts</title>
<path fill="none" stroke="#cfffac" d="M2345.33,-964C2345.33,-964 2270.67,-964 2270.67,-964 2266.83,-964 2263,-960.17 2263,-956.33 2263,-956.33 2263,-948.67 2263,-948.67 2263,-944.83 2266.83,-941 2270.67,-941 2270.67,-941 2345.33,-941 2345.33,-941 2349.17,-941 2353,-944.83 2353,-948.67 2353,-948.67 2353,-956.33 2353,-956.33 2353,-960.17 2349.17,-964 2345.33,-964"/>
<text text-anchor="middle" x="2308" y="-948.8" font-family="Arial" font-size="14.00" fill="#cfffac">resources.ts</text>
</g>
<!-- config.ts&#45;&gt;resources.ts -->
<g id="edge1" class="edge">
<title>config.ts&#45;&gt;resources.ts</title>
<path fill="none" stroke="#757575" d="M1401.62,-1291.48C1542.47,-1307.96 2097.16,-1365.19 2227,-1261.5 2272.65,-1225.05 2297.37,-1039.04 2304.67,-974.55"/>
<polygon fill="#757575" stroke="#757575" points="2308.18,-974.63 2305.8,-964.31 2301.23,-973.86 2308.18,-974.63"/>
</g>
<!-- constants.ts -->
<g id="node3" class="node">
<title>constants.ts</title>
<path fill="none" stroke="#cfffac" d="M2344.83,-718C2344.83,-718 2271.17,-718 2271.17,-718 2267.33,-718 2263.5,-714.17 2263.5,-710.33 2263.5,-710.33 2263.5,-702.67 2263.5,-702.67 2263.5,-698.83 2267.33,-695 2271.17,-695 2271.17,-695 2344.83,-695 2344.83,-695 2348.67,-695 2352.5,-698.83 2352.5,-702.67 2352.5,-702.67 2352.5,-710.33 2352.5,-710.33 2352.5,-714.17 2348.67,-718 2344.83,-718"/>
<text text-anchor="middle" x="2308" y="-702.8" font-family="Arial" font-size="14.00" fill="#cfffac">constants.ts</text>
</g>
<!-- core.ts -->
<g id="node4" class="node">
<title>core.ts</title>
<path fill="none" stroke="#c6c5fe" d="M148.33,-1300C148.33,-1300 106.67,-1300 106.67,-1300 102.83,-1300 99,-1296.17 99,-1292.33 99,-1292.33 99,-1284.67 99,-1284.67 99,-1280.83 102.83,-1277 106.67,-1277 106.67,-1277 148.33,-1277 148.33,-1277 152.17,-1277 156,-1280.83 156,-1284.67 156,-1284.67 156,-1292.33 156,-1292.33 156,-1296.17 152.17,-1300 148.33,-1300"/>
<text text-anchor="middle" x="127.5" y="-1284.8" font-family="Arial" font-size="14.00" fill="#c6c5fe">core.ts</text>
</g>
<!-- core.ts&#45;&gt;config.ts -->
<g id="edge2" class="edge">
<title>core.ts&#45;&gt;config.ts</title>
<path fill="none" stroke="#757575" d="M156.1,-1288.48C316.44,-1288.35 1127.62,-1287.69 1324.1,-1287.53"/>
<polygon fill="#757575" stroke="#757575" points="1324.31,-1291.03 1334.31,-1287.53 1324.31,-1284.03 1324.31,-1291.03"/>
</g>
<!-- handlers/index.ts -->
<g id="node5" class="node">
<title>handlers/index.ts</title>
<path fill="none" stroke="#c6c5fe" d="M303.33,-1192C303.33,-1192 199.67,-1192 199.67,-1192 195.83,-1192 192,-1188.17 192,-1184.33 192,-1184.33 192,-1176.67 192,-1176.67 192,-1172.83 195.83,-1169 199.67,-1169 199.67,-1169 303.33,-1169 303.33,-1169 307.17,-1169 311,-1172.83 311,-1176.67 311,-1176.67 311,-1184.33 311,-1184.33 311,-1188.17 307.17,-1192 303.33,-1192"/>
<text text-anchor="middle" x="251.5" y="-1176.8" font-family="Arial" font-size="14.00" fill="#c6c5fe">handlers/index.ts</text>
</g>
<!-- core.ts&#45;&gt;handlers/index.ts -->
<g id="edge3" class="edge">
<title>core.ts&#45;&gt;handlers/index.ts</title>
<path fill="none" stroke="#757575" d="M141.56,-1276.94C162.63,-1258.28 204.34,-1221.36 229.59,-1199.01"/>
<polygon fill="#757575" stroke="#757575" points="232,-1201.55 237.17,-1192.3 227.36,-1196.31 232,-1201.55"/>
</g>
<!-- handlers/authorize.handler.ts -->
<g id="node7" class="node">
<title>handlers/authorize.handler.ts</title>
<path fill="none" stroke="#c6c5fe" d="M973.83,-1103C973.83,-1103 799.17,-1103 799.17,-1103 795.33,-1103 791.5,-1099.17 791.5,-1095.33 791.5,-1095.33 791.5,-1087.67 791.5,-1087.67 791.5,-1083.83 795.33,-1080 799.17,-1080 799.17,-1080 973.83,-1080 973.83,-1080 977.67,-1080 981.5,-1083.83 981.5,-1087.67 981.5,-1087.67 981.5,-1095.33 981.5,-1095.33 981.5,-1099.17 977.67,-1103 973.83,-1103"/>
<text text-anchor="middle" x="886.5" y="-1087.8" font-family="Arial" font-size="14.00" fill="#c6c5fe">handlers/authorize.handler.ts</text>
</g>
<!-- handlers/index.ts&#45;&gt;handlers/authorize.handler.ts -->
<g id="edge19" class="edge">
<title>handlers/index.ts&#45;&gt;handlers/authorize.handler.ts</title>
<path fill="none" stroke="#757575" d="M281.41,-1168.93C299.89,-1161.98 324.52,-1153.54 347,-1148.5 495.56,-1115.21 671.66,-1101.23 781,-1095.45"/>
<polygon fill="#757575" stroke="#757575" points="781.24,-1098.94 791.05,-1094.93 780.88,-1091.95 781.24,-1098.94"/>
</g>
<!-- handlers/credential.handler.ts -->
<g id="node10" class="node">
<title>handlers/credential.handler.ts</title>
<path fill="none" stroke="#c6c5fe" d="M975.33,-939C975.33,-939 797.67,-939 797.67,-939 793.83,-939 790,-935.17 790,-931.33 790,-931.33 790,-923.67 790,-923.67 790,-919.83 793.83,-916 797.67,-916 797.67,-916 975.33,-916 975.33,-916 979.17,-916 983,-919.83 983,-923.67 983,-923.67 983,-931.33 983,-931.33 983,-935.17 979.17,-939 975.33,-939"/>
<text text-anchor="middle" x="886.5" y="-923.8" font-family="Arial" font-size="14.00" fill="#c6c5fe">handlers/credential.handler.ts</text>
</g>
<!-- handlers/index.ts&#45;&gt;handlers/credential.handler.ts -->
<g id="edge20" class="edge">
<title>handlers/index.ts&#45;&gt;handlers/credential.handler.ts</title>
<path fill="none" stroke="#757575" d="M255.32,-1168.64C263.46,-1137.1 290.19,-1050.76 347,-1009.5 474.05,-917.24 662.82,-910.16 779.8,-916.58"/>
<polygon fill="#757575" stroke="#757575" points="779.66,-920.08 789.84,-917.17 780.07,-913.09 779.66,-920.08"/>
</g>
<!-- handlers/credentialOffer.handler.ts -->
<g id="node12" class="node">
<title>handlers/credentialOffer.handler.ts</title>
<path fill="none" stroke="#c6c5fe" d="M990.33,-1380C990.33,-1380 782.67,-1380 782.67,-1380 778.83,-1380 775,-1376.17 775,-1372.33 775,-1372.33 775,-1364.67 775,-1364.67 775,-1360.83 778.83,-1357 782.67,-1357 782.67,-1357 990.33,-1357 990.33,-1357 994.17,-1357 998,-1360.83 998,-1364.67 998,-1364.67 998,-1372.33 998,-1372.33 998,-1376.17 994.17,-1380 990.33,-1380"/>
<text text-anchor="middle" x="886.5" y="-1364.8" font-family="Arial" font-size="14.00" fill="#c6c5fe">handlers/credentialOffer.handler.ts</text>
</g>
<!-- handlers/index.ts&#45;&gt;handlers/credentialOffer.handler.ts -->
<g id="edge21" class="edge">
<title>handlers/index.ts&#45;&gt;handlers/credentialOffer.handler.ts</title>
<path fill="none" stroke="#757575" d="M270.29,-1192.1C288.8,-1203.73 318.95,-1221.45 347,-1232.5 504.75,-1294.63 699.83,-1335.57 806.55,-1355.12"/>
<polygon fill="#757575" stroke="#757575" points="806.13,-1358.6 816.6,-1356.95 807.39,-1351.71 806.13,-1358.6"/>
</g>
<!-- handlers/nonce.handler.ts -->
<g id="node14" class="node">
<title>handlers/nonce.handler.ts</title>
<path fill="none" stroke="#c6c5fe" d="M964.33,-1144C964.33,-1144 808.67,-1144 808.67,-1144 804.83,-1144 801,-1140.17 801,-1136.33 801,-1136.33 801,-1128.67 801,-1128.67 801,-1124.83 804.83,-1121 808.67,-1121 808.67,-1121 964.33,-1121 964.33,-1121 968.17,-1121 972,-1124.83 972,-1128.67 972,-1128.67 972,-1136.33 972,-1136.33 972,-1140.17 968.17,-1144 964.33,-1144"/>
<text text-anchor="middle" x="886.5" y="-1128.8" font-family="Arial" font-size="14.00" fill="#c6c5fe">handlers/nonce.handler.ts</text>
</g>
<!-- handlers/index.ts&#45;&gt;handlers/nonce.handler.ts -->
<g id="edge22" class="edge">
<title>handlers/index.ts&#45;&gt;handlers/nonce.handler.ts</title>
<path fill="none" stroke="#757575" d="M311.2,-1176.05C420.9,-1167.73 657.89,-1149.76 790.58,-1139.7"/>
<polygon fill="#757575" stroke="#757575" points="791.03,-1143.17 800.74,-1138.93 790.5,-1136.19 791.03,-1143.17"/>
</g>
<!-- handlers/oauthAuthorizationServer.handler.ts -->
<g id="node15" class="node">
<title>handlers/oauthAuthorizationServer.handler.ts</title>
<path fill="none" stroke="#c6c5fe" d="M625.33,-1224C625.33,-1224 354.67,-1224 354.67,-1224 350.83,-1224 347,-1220.17 347,-1216.33 347,-1216.33 347,-1208.67 347,-1208.67 347,-1204.83 350.83,-1201 354.67,-1201 354.67,-1201 625.33,-1201 625.33,-1201 629.17,-1201 633,-1204.83 633,-1208.67 633,-1208.67 633,-1216.33 633,-1216.33 633,-1220.17 629.17,-1224 625.33,-1224"/>
<text text-anchor="middle" x="490" y="-1208.8" font-family="Arial" font-size="14.00" fill="#c6c5fe">handlers/oauthAuthorizationServer.handler.ts</text>
</g>
<!-- handlers/index.ts&#45;&gt;handlers/oauthAuthorizationServer.handler.ts -->
<g id="edge23" class="edge">
<title>handlers/index.ts&#45;&gt;handlers/oauthAuthorizationServer.handler.ts</title>
<path fill="none" stroke="#757575" d="M311.26,-1188.45C336.12,-1191.81 365.72,-1195.82 393.56,-1199.59"/>
<polygon fill="#757575" stroke="#757575" points="393.35,-1203.09 403.73,-1200.96 394.28,-1196.15 393.35,-1203.09"/>
</g>
<!-- handlers/openidCredentialIssuer.handler.ts -->
<g id="node16" class="node">
<title>handlers/openidCredentialIssuer.handler.ts</title>
<path fill="none" stroke="#c6c5fe" d="M1014.83,-1438C1014.83,-1438 758.17,-1438 758.17,-1438 754.33,-1438 750.5,-1434.17 750.5,-1430.33 750.5,-1430.33 750.5,-1422.67 750.5,-1422.67 750.5,-1418.83 754.33,-1415 758.17,-1415 758.17,-1415 1014.83,-1415 1014.83,-1415 1018.67,-1415 1022.5,-1418.83 1022.5,-1422.67 1022.5,-1422.67 1022.5,-1430.33 1022.5,-1430.33 1022.5,-1434.17 1018.67,-1438 1014.83,-1438"/>
<text text-anchor="middle" x="886.5" y="-1422.8" font-family="Arial" font-size="14.00" fill="#c6c5fe">handlers/openidCredentialIssuer.handler.ts</text>
</g>
<!-- handlers/index.ts&#45;&gt;handlers/openidCredentialIssuer.handler.ts -->
<g id="edge24" class="edge">
<title>handlers/index.ts&#45;&gt;handlers/openidCredentialIssuer.handler.ts</title>
<path fill="none" stroke="#757575" d="M259.54,-1192.13C273.47,-1214.19 306.73,-1262.23 347,-1288.5 465.78,-1365.97 625.62,-1399.98 740.25,-1414.89"/>
<polygon fill="#757575" stroke="#757575" points="740.14,-1418.4 750.5,-1416.18 741.02,-1411.45 740.14,-1418.4"/>
</g>
<!-- handlers/pushedAuthorizationRequest.handler.ts -->
<g id="node17" class="node">
<title>handlers/pushedAuthorizationRequest.handler.ts</title>
<path fill="none" stroke="#c6c5fe" d="M1032.83,-62C1032.83,-62 740.17,-62 740.17,-62 736.33,-62 732.5,-58.17 732.5,-54.33 732.5,-54.33 732.5,-46.67 732.5,-46.67 732.5,-42.83 736.33,-39 740.17,-39 740.17,-39 1032.83,-39 1032.83,-39 1036.67,-39 1040.5,-42.83 1040.5,-46.67 1040.5,-46.67 1040.5,-54.33 1040.5,-54.33 1040.5,-58.17 1036.67,-62 1032.83,-62"/>
<text text-anchor="middle" x="886.5" y="-46.8" font-family="Arial" font-size="14.00" fill="#c6c5fe">handlers/pushedAuthorizationRequest.handler.ts</text>
</g>
<!-- handlers/index.ts&#45;&gt;handlers/pushedAuthorizationRequest.handler.ts -->
<g id="edge25" class="edge">
<title>handlers/index.ts&#45;&gt;handlers/pushedAuthorizationRequest.handler.ts</title>
<path fill="none" stroke="#757575" d="M252.7,-1168.72C255.05,-1069.92 285.23,-375.54 669,-76.5 684.71,-64.26 703.11,-55.95 722.42,-50.48"/>
<polygon fill="#757575" stroke="#757575" points="723.47,-53.82 732.28,-47.94 721.73,-47.04 723.47,-53.82"/>
</g>
<!-- handlers/token.handler.ts -->
<g id="node18" class="node">
<title>handlers/token.handler.ts</title>
<path fill="none" stroke="#c6c5fe" d="M565.83,-1042C565.83,-1042 414.17,-1042 414.17,-1042 410.33,-1042 406.5,-1038.17 406.5,-1034.33 406.5,-1034.33 406.5,-1026.67 406.5,-1026.67 406.5,-1022.83 410.33,-1019 414.17,-1019 414.17,-1019 565.83,-1019 565.83,-1019 569.67,-1019 573.5,-1022.83 573.5,-1026.67 573.5,-1026.67 573.5,-1034.33 573.5,-1034.33 573.5,-1038.17 569.67,-1042 565.83,-1042"/>
<text text-anchor="middle" x="490" y="-1026.8" font-family="Arial" font-size="14.00" fill="#c6c5fe">handlers/token.handler.ts</text>
</g>
<!-- handlers/index.ts&#45;&gt;handlers/token.handler.ts -->
<g id="edge26" class="edge">
<title>handlers/index.ts&#45;&gt;handlers/token.handler.ts</title>
<path fill="none" stroke="#757575" d="M261.84,-1168.86C277.63,-1149.83 311.37,-1111.84 347,-1088.5 375.7,-1069.7 411.47,-1055.14 439.93,-1045.31"/>
<polygon fill="#757575" stroke="#757575" points="441.3,-1048.53 449.66,-1042.03 439.07,-1041.9 441.3,-1048.53"/>
</g>
<!-- errors.ts -->
<g id="node6" class="node">
<title>errors.ts</title>
<path fill="none" stroke="#cfffac" d="M2333.33,-452C2333.33,-452 2282.67,-452 2282.67,-452 2278.83,-452 2275,-448.17 2275,-444.33 2275,-444.33 2275,-436.67 2275,-436.67 2275,-432.83 2278.83,-429 2282.67,-429 2282.67,-429 2333.33,-429 2333.33,-429 2337.17,-429 2341,-432.83 2341,-436.67 2341,-436.67 2341,-444.33 2341,-444.33 2341,-448.17 2337.17,-452 2333.33,-452"/>
<text text-anchor="middle" x="2308" y="-436.8" font-family="Arial" font-size="14.00" fill="#cfffac">errors.ts</text>
</g>
<!-- handlers/authorize.handler.ts&#45;&gt;config.ts -->
<g id="edge4" class="edge">
<title>handlers/authorize.handler.ts&#45;&gt;config.ts</title>
<path fill="none" stroke="#757575" d="M951.31,-1079.98C998.55,-1075.23 1061.77,-1077.28 1104,-1111.5 1145.94,-1145.48 1101.03,-1190.15 1140,-1227.5 1190.01,-1275.42 1273.63,-1286.16 1324.22,-1287.97"/>
<polygon fill="#757575" stroke="#757575" points="1324.4,-1291.47 1334.49,-1288.23 1324.58,-1284.47 1324.4,-1291.47"/>
</g>
<!-- handlers/authorize.handler.ts&#45;&gt;resources.ts -->
<g id="edge7" class="edge">
<title>handlers/authorize.handler.ts&#45;&gt;resources.ts</title>
<path fill="none" stroke="#757575" d="M981.76,-1086.38C1021.15,-1087.69 1066.41,-1093.86 1104,-1111.5 1124.48,-1121.11 1119.3,-1138.37 1140,-1147.5 1195.28,-1171.88 2177.71,-1215.44 2227,-1180.5 2295.12,-1132.21 2305.67,-1021.18 2307,-974.17"/>
<polygon fill="#757575" stroke="#757575" points="2310.5,-974.21 2307.16,-964.16 2303.5,-974.1 2310.5,-974.21"/>
</g>
<!-- handlers/authorize.handler.ts&#45;&gt;errors.ts -->
<g id="edge5" class="edge">
<title>handlers/authorize.handler.ts&#45;&gt;errors.ts</title>
<path fill="none" stroke="#757575" d="M936.58,-1103.01C986.33,-1111.45 1061.83,-1114.82 1104,-1070.5 1162.51,-1009.02 1078.59,-366.08 1140,-307.5 1183.7,-265.82 2174.43,-277.78 2227,-307.5 2269.38,-331.47 2291.79,-387.86 2301.31,-418.97"/>
<polygon fill="#757575" stroke="#757575" points="2298.01,-420.18 2304.15,-428.82 2304.74,-418.24 2298.01,-420.18"/>
</g>
<!-- handlers/schemas/authorizeHandlerConfig.schema.ts -->
<g id="node8" class="node">
<title>handlers/schemas/authorizeHandlerConfig.schema.ts</title>
<path fill="none" stroke="#cfffac" d="M1529.33,-1139C1529.33,-1139 1206.67,-1139 1206.67,-1139 1202.83,-1139 1199,-1135.17 1199,-1131.33 1199,-1131.33 1199,-1123.67 1199,-1123.67 1199,-1119.83 1202.83,-1116 1206.67,-1116 1206.67,-1116 1529.33,-1116 1529.33,-1116 1533.17,-1116 1537,-1119.83 1537,-1123.67 1537,-1123.67 1537,-1131.33 1537,-1131.33 1537,-1135.17 1533.17,-1139 1529.33,-1139"/>
<text text-anchor="middle" x="1368" y="-1123.8" font-family="Arial" font-size="14.00" fill="#cfffac">handlers/schemas/authorizeHandlerConfig.schema.ts</text>
</g>
<!-- handlers/authorize.handler.ts&#45;&gt;handlers/schemas/authorizeHandlerConfig.schema.ts -->
<g id="edge6" class="edge">
<title>handlers/authorize.handler.ts&#45;&gt;handlers/schemas/authorizeHandlerConfig.schema.ts</title>
<path fill="none" stroke="#757575" d="M981.66,-1098.57C1044.7,-1103.3 1129.35,-1109.66 1203.25,-1115.21"/>
<polygon fill="#757575" stroke="#757575" points="1203.37,-1118.72 1213.61,-1115.98 1203.9,-1111.74 1203.37,-1118.72"/>
</g>
<!-- statements/index.ts -->
<g id="node9" class="node">
<title>statements/index.ts</title>
<path fill="none" stroke="#c6c5fe" d="M1427.33,-982C1427.33,-982 1308.67,-982 1308.67,-982 1304.83,-982 1301,-978.17 1301,-974.33 1301,-974.33 1301,-966.67 1301,-966.67 1301,-962.83 1304.83,-959 1308.67,-959 1308.67,-959 1427.33,-959 1427.33,-959 1431.17,-959 1435,-962.83 1435,-966.67 1435,-966.67 1435,-974.33 1435,-974.33 1435,-978.17 1431.17,-982 1427.33,-982"/>
<text text-anchor="middle" x="1368" y="-966.8" font-family="Arial" font-size="14.00" fill="#c6c5fe">statements/index.ts</text>
</g>
<!-- handlers/authorize.handler.ts&#45;&gt;statements/index.ts -->
<g id="edge8" class="edge">
<title>handlers/authorize.handler.ts&#45;&gt;statements/index.ts</title>
<path fill="none" stroke="#757575" d="M981.63,-1087.84C1019.97,-1084.94 1064.47,-1079.76 1104,-1070.5 1189.61,-1050.45 1284.86,-1009.16 1333.86,-986.41"/>
<polygon fill="#757575" stroke="#757575" points="1335.46,-989.52 1343.03,-982.12 1332.49,-983.18 1335.46,-989.52"/>
</g>
<!-- statements/grants/index.ts -->
<g id="node28" class="node">
<title>statements/grants/index.ts</title>
<path fill="none" stroke="#c6c5fe" d="M1812.33,-1067C1812.33,-1067 1652.67,-1067 1652.67,-1067 1648.83,-1067 1645,-1063.17 1645,-1059.33 1645,-1059.33 1645,-1051.67 1645,-1051.67 1645,-1047.83 1648.83,-1044 1652.67,-1044 1652.67,-1044 1812.33,-1044 1812.33,-1044 1816.17,-1044 1820,-1047.83 1820,-1051.67 1820,-1051.67 1820,-1059.33 1820,-1059.33 1820,-1063.17 1816.17,-1067 1812.33,-1067"/>
<text text-anchor="middle" x="1732.5" y="-1051.8" font-family="Arial" font-size="14.00" fill="#c6c5fe">statements/grants/index.ts</text>
</g>
<!-- statements/index.ts&#45;&gt;statements/grants/index.ts -->
<g id="edge58" class="edge">
<title>statements/index.ts&#45;&gt;statements/grants/index.ts</title>
<path fill="none" stroke="#757575" d="M1435.18,-972.75C1481.06,-975.66 1543.17,-982.32 1596,-997.5 1613.01,-1002.39 1615.81,-1007.35 1632,-1014.5 1651.94,-1023.31 1674.37,-1032.6 1692.88,-1040.11"/>
<polygon fill="#757575" stroke="#757575" points="1691.58,-1043.36 1702.17,-1043.86 1694.2,-1036.87 1691.58,-1043.36"/>
</g>
<!-- statements/locations/index.ts -->
<g id="node29" class="node">
<title>statements/locations/index.ts</title>
<path fill="none" stroke="#c6c5fe" d="M1820.33,-841C1820.33,-841 1644.67,-841 1644.67,-841 1640.83,-841 1637,-837.17 1637,-833.33 1637,-833.33 1637,-825.67 1637,-825.67 1637,-821.83 1640.83,-818 1644.67,-818 1644.67,-818 1820.33,-818 1820.33,-818 1824.17,-818 1828,-821.83 1828,-825.67 1828,-825.67 1828,-833.33 1828,-833.33 1828,-837.17 1824.17,-841 1820.33,-841"/>
<text text-anchor="middle" x="1732.5" y="-825.8" font-family="Arial" font-size="14.00" fill="#c6c5fe">statements/locations/index.ts</text>
</g>
<!-- statements/index.ts&#45;&gt;statements/locations/index.ts -->
<g id="edge59" class="edge">
<title>statements/index.ts&#45;&gt;statements/locations/index.ts</title>
<path fill="none" stroke="#757575" d="M1398.66,-958.96C1463.75,-933.65 1619.07,-873.23 1692.18,-844.79"/>
<polygon fill="#757575" stroke="#757575" points="1693.88,-847.89 1701.93,-841 1691.34,-841.36 1693.88,-847.89"/>
</g>
<!-- statements/resources/index.ts -->
<g id="node30" class="node">
<title>statements/resources/index.ts</title>
<path fill="none" stroke="#c6c5fe" d="M1823.33,-1006C1823.33,-1006 1641.67,-1006 1641.67,-1006 1637.83,-1006 1634,-1002.17 1634,-998.33 1634,-998.33 1634,-990.67 1634,-990.67 1634,-986.83 1637.83,-983 1641.67,-983 1641.67,-983 1823.33,-983 1823.33,-983 1827.17,-983 1831,-986.83 1831,-990.67 1831,-990.67 1831,-998.33 1831,-998.33 1831,-1002.17 1827.17,-1006 1823.33,-1006"/>
<text text-anchor="middle" x="1732.5" y="-990.8" font-family="Arial" font-size="14.00" fill="#c6c5fe">statements/resources/index.ts</text>
</g>
<!-- statements/index.ts&#45;&gt;statements/resources/index.ts -->
<g id="edge60" class="edge">
<title>statements/index.ts&#45;&gt;statements/resources/index.ts</title>
<path fill="none" stroke="#757575" d="M1435.07,-974.87C1487.68,-978.36 1562.41,-983.31 1623.68,-987.36"/>
<polygon fill="#757575" stroke="#757575" points="1623.57,-990.86 1633.78,-988.03 1624.03,-983.88 1623.57,-990.86"/>
</g>
<!-- statements/tokens/index.ts -->
<g id="node31" class="node">
<title>statements/tokens/index.ts</title>
<path fill="none" stroke="#c6c5fe" d="M1813.33,-944C1813.33,-944 1651.67,-944 1651.67,-944 1647.83,-944 1644,-940.17 1644,-936.33 1644,-936.33 1644,-928.67 1644,-928.67 1644,-924.83 1647.83,-921 1651.67,-921 1651.67,-921 1813.33,-921 1813.33,-921 1817.17,-921 1821,-924.83 1821,-928.67 1821,-928.67 1821,-936.33 1821,-936.33 1821,-940.17 1817.17,-944 1813.33,-944"/>
<text text-anchor="middle" x="1732.5" y="-928.8" font-family="Arial" font-size="14.00" fill="#c6c5fe">statements/tokens/index.ts</text>
</g>
<!-- statements/index.ts&#45;&gt;statements/tokens/index.ts -->
<g id="edge61" class="edge">
<title>statements/index.ts&#45;&gt;statements/tokens/index.ts</title>
<path fill="none" stroke="#757575" d="M1435.07,-963.57C1490.6,-957.75 1570.77,-949.35 1633.74,-942.75"/>
<polygon fill="#757575" stroke="#757575" points="1634.11,-946.23 1643.69,-941.7 1633.38,-939.27 1634.11,-946.23"/>
</g>
<!-- statements/validations/index.ts -->
<g id="node32" class="node">
<title>statements/validations/index.ts</title>
<path fill="none" stroke="#c6c5fe" d="M1825.33,-575C1825.33,-575 1639.67,-575 1639.67,-575 1635.83,-575 1632,-571.17 1632,-567.33 1632,-567.33 1632,-559.67 1632,-559.67 1632,-555.83 1635.83,-552 1639.67,-552 1639.67,-552 1825.33,-552 1825.33,-552 1829.17,-552 1833,-555.83 1833,-559.67 1833,-559.67 1833,-567.33 1833,-567.33 1833,-571.17 1829.17,-575 1825.33,-575"/>
<text text-anchor="middle" x="1732.5" y="-559.8" font-family="Arial" font-size="14.00" fill="#c6c5fe">statements/validations/index.ts</text>
</g>
<!-- statements/index.ts&#45;&gt;statements/validations/index.ts -->
<g id="edge62" class="edge">
<title>statements/index.ts&#45;&gt;statements/validations/index.ts</title>
<path fill="none" stroke="#757575" d="M1379.46,-958.76C1430.1,-901.9 1650.04,-654.96 1714,-583.15"/>
<polygon fill="#757575" stroke="#757575" points="1716.96,-585.08 1721,-575.29 1711.73,-580.43 1716.96,-585.08"/>
</g>
<!-- handlers/credential.handler.ts&#45;&gt;config.ts -->
<g id="edge9" class="edge">
<title>handlers/credential.handler.ts&#45;&gt;config.ts</title>
<path fill="none" stroke="#757575" d="M938.59,-915.99C987.75,-908.2 1060.81,-905.83 1104,-947.5 1194.29,-1034.62 1057.26,-1133.18 1140,-1227.5 1186.02,-1279.96 1272.02,-1289.09 1323.93,-1289.38"/>
<polygon fill="#757575" stroke="#757575" points="1324.17,-1292.88 1334.15,-1289.33 1324.13,-1285.88 1324.17,-1292.88"/>
</g>
<!-- handlers/credential.handler.ts&#45;&gt;resources.ts -->
<g id="edge12" class="edge">
<title>handlers/credential.handler.ts&#45;&gt;resources.ts</title>
<path fill="none" stroke="#757575" d="M983.09,-920.79C1022.49,-921.87 1067.39,-928.31 1104,-947.5 1126.07,-959.07 1117.84,-979.1 1140,-990.5 1320.74,-1083.49 1418.77,-925.97 1596,-1025.5 1619.88,-1038.91 1607.63,-1063.02 1632,-1075.5 1690.84,-1105.64 2168.89,-1107.03 2227,-1075.5 2266.88,-1053.86 2290,-1002.79 2300.37,-973.71"/>
<polygon fill="#757575" stroke="#757575" points="2303.73,-974.69 2303.62,-964.09 2297.1,-972.45 2303.73,-974.69"/>
</g>
<!-- handlers/credential.handler.ts&#45;&gt;errors.ts -->
<g id="edge10" class="edge">
<title>handlers/credential.handler.ts&#45;&gt;errors.ts</title>
<path fill="none" stroke="#757575" d="M889.39,-915.76C904.17,-825.69 1004.04,-245.44 1140,-146.5 1248.27,-67.72 2186.78,-161.9 2227,-193.5 2298.19,-249.43 2306.92,-369.65 2307.37,-418.84"/>
<polygon fill="#757575" stroke="#757575" points="2303.87,-418.97 2307.35,-428.98 2310.87,-418.99 2303.87,-418.97"/>
</g>
<!-- handlers/credential.handler.ts&#45;&gt;statements/index.ts -->
<g id="edge13" class="edge">
<title>handlers/credential.handler.ts&#45;&gt;statements/index.ts</title>
<path fill="none" stroke="#757575" d="M983.09,-936.07C1073.45,-944.18 1207.25,-956.17 1290.67,-963.66"/>
<polygon fill="#757575" stroke="#757575" points="1290.57,-967.16 1300.84,-964.57 1291.19,-960.19 1290.57,-967.16"/>
</g>
<!-- handlers/schemas/credentialHandlerConfig.schema.ts -->
<g id="node11" class="node">
<title>handlers/schemas/credentialHandlerConfig.schema.ts</title>
<path fill="none" stroke="#cfffac" d="M1530.83,-179C1530.83,-179 1205.17,-179 1205.17,-179 1201.33,-179 1197.5,-175.17 1197.5,-171.33 1197.5,-171.33 1197.5,-163.67 1197.5,-163.67 1197.5,-159.83 1201.33,-156 1205.17,-156 1205.17,-156 1530.83,-156 1530.83,-156 1534.67,-156 1538.5,-159.83 1538.5,-163.67 1538.5,-163.67 1538.5,-171.33 1538.5,-171.33 1538.5,-175.17 1534.67,-179 1530.83,-179"/>
<text text-anchor="middle" x="1368" y="-163.8" font-family="Arial" font-size="14.00" fill="#cfffac">handlers/schemas/credentialHandlerConfig.schema.ts</text>
</g>
<!-- handlers/credential.handler.ts&#45;&gt;handlers/schemas/credentialHandlerConfig.schema.ts -->
<g id="edge11" class="edge">
<title>handlers/credential.handler.ts&#45;&gt;handlers/schemas/credentialHandlerConfig.schema.ts</title>
<path fill="none" stroke="#757575" d="M887.32,-915.8C886.83,-837.83 894.95,-390.35 1140,-193.5 1154.09,-182.18 1170.36,-174.07 1187.58,-168.38"/>
<polygon fill="#757575" stroke="#757575" points="1188.67,-171.7 1197.23,-165.46 1186.65,-165 1188.67,-171.7"/>
</g>
<!-- handlers/credentialOffer.handler.ts&#45;&gt;config.ts -->
<g id="edge14" class="edge">
<title>handlers/credentialOffer.handler.ts&#45;&gt;config.ts</title>
<path fill="none" stroke="#757575" d="M998.19,-1367.07C1033.11,-1363.53 1071.12,-1356.36 1104,-1342.5 1122.93,-1334.52 1121.04,-1321.43 1140,-1313.5 1200.39,-1288.25 1277.25,-1284.75 1324.25,-1285.45"/>
<polygon fill="#757575" stroke="#757575" points="1324.31,-1288.95 1334.38,-1285.67 1324.46,-1281.95 1324.31,-1288.95"/>
</g>
<!-- handlers/credentialOffer.handler.ts&#45;&gt;resources.ts -->
<g id="edge17" class="edge">
<title>handlers/credentialOffer.handler.ts&#45;&gt;resources.ts</title>
<path fill="none" stroke="#757575" d="M998.1,-1371C1302.2,-1376.82 2134.54,-1385.32 2227,-1306.5 2278.32,-1262.74 2299.75,-1044.61 2305.4,-974.35"/>
<polygon fill="#757575" stroke="#757575" points="2308.91,-974.28 2306.19,-964.04 2301.93,-973.74 2308.91,-974.28"/>
</g>
<!-- handlers/credentialOffer.handler.ts&#45;&gt;errors.ts -->
<g id="edge15" class="edge">
<title>handlers/credentialOffer.handler.ts&#45;&gt;errors.ts</title>
<path fill="none" stroke="#757575" d="M998.25,-1366.98C1187.19,-1363.24 1555.46,-1350.59 1596,-1308.5 1655.11,-1247.13 1590.55,-616.94 1632,-542.5 1684.72,-447.83 1744.4,-466.89 1833,-404.5 1849.14,-393.14 1850.22,-384.57 1869,-378.5 1944.7,-354.02 2151.73,-352.75 2227,-378.5 2251.78,-386.98 2274.82,-406.59 2289.75,-421.51"/>
<polygon fill="#757575" stroke="#757575" points="2287.32,-424.03 2296.78,-428.8 2292.35,-419.17 2287.32,-424.03"/>
</g>
<!-- handlers/credentialOffer.handler.ts&#45;&gt;statements/index.ts -->
<g id="edge18" class="edge">
<title>handlers/credentialOffer.handler.ts&#45;&gt;statements/index.ts</title>
<path fill="none" stroke="#757575" d="M919.94,-1356.86C967.51,-1338.13 1055.76,-1296.74 1104,-1232.5 1138.97,-1185.93 1104.54,-1152.7 1140,-1106.5 1187.17,-1045.05 1270.7,-1005.54 1322.21,-985.74"/>
<polygon fill="#757575" stroke="#757575" points="1323.62,-988.94 1331.75,-982.15 1321.16,-982.39 1323.62,-988.94"/>
</g>
<!-- handlers/schemas/credentialOfferHandlerConfig.schema.ts -->
<g id="node13" class="node">
<title>handlers/schemas/credentialOfferHandlerConfig.schema.ts</title>
<path fill="none" stroke="#cfffac" d="M1546.33,-1417C1546.33,-1417 1189.67,-1417 1189.67,-1417 1185.83,-1417 1182,-1413.17 1182,-1409.33 1182,-1409.33 1182,-1401.67 1182,-1401.67 1182,-1397.83 1185.83,-1394 1189.67,-1394 1189.67,-1394 1546.33,-1394 1546.33,-1394 1550.17,-1394 1554,-1397.83 1554,-1401.67 1554,-1401.67 1554,-1409.33 1554,-1409.33 1554,-1413.17 1550.17,-1417 1546.33,-1417"/>
<text text-anchor="middle" x="1368" y="-1401.8" font-family="Arial" font-size="14.00" fill="#cfffac">handlers/schemas/credentialOfferHandlerConfig.schema.ts</text>
</g>
<!-- handlers/credentialOffer.handler.ts&#45;&gt;handlers/schemas/credentialOfferHandlerConfig.schema.ts -->
<g id="edge16" class="edge">
<title>handlers/credentialOffer.handler.ts&#45;&gt;handlers/schemas/credentialOfferHandlerConfig.schema.ts</title>
<path fill="none" stroke="#757575" d="M998.11,-1377.04C1060.32,-1381.84 1139.07,-1387.91 1207.82,-1393.22"/>
<polygon fill="#757575" stroke="#757575" points="1207.65,-1396.71 1217.89,-1393.99 1208.18,-1389.73 1207.65,-1396.71"/>
</g>
<!-- handlers/nonce.handler.ts&#45;&gt;config.ts -->
<g id="edge27" class="edge">
<title>handlers/nonce.handler.ts&#45;&gt;config.ts</title>
<path fill="none" stroke="#757575" d="M972.17,-1122.65C1015.89,-1122.13 1067.56,-1129.21 1104,-1158.5 1141.8,-1188.88 1102.12,-1231.22 1140,-1261.5 1192.36,-1303.35 1274.5,-1301.28 1324.29,-1295.04"/>
<polygon fill="#757575" stroke="#757575" points="1324.97,-1298.48 1334.41,-1293.66 1324.03,-1291.54 1324.97,-1298.48"/>
</g>
<!-- handlers/nonce.handler.ts&#45;&gt;resources.ts -->
<g id="edge30" class="edge">
<title>handlers/nonce.handler.ts&#45;&gt;resources.ts</title>
<path fill="none" stroke="#757575" d="M951.94,-1120.99C998.28,-1116.33 1060.09,-1117.91 1104,-1148.5 1135.66,-1170.56 1107.55,-1206.63 1140,-1227.5 1235.27,-1288.78 2172,-1243.36 2227,-1201.5 2299.57,-1146.27 2307.51,-1024.43 2307.57,-974.5"/>
<polygon fill="#757575" stroke="#757575" points="2311.06,-974.17 2307.46,-964.2 2304.06,-974.24 2311.06,-974.17"/>
</g>
<!-- handlers/nonce.handler.ts&#45;&gt;errors.ts -->
<g id="edge28" class="edge">
<title>handlers/nonce.handler.ts&#45;&gt;errors.ts</title>
<path fill="none" stroke="#757575" d="M946.78,-1144.05C994.99,-1149.79 1061.72,-1148.91 1104,-1111.5 1159.24,-1062.62 1105.47,-1014.67 1140,-949.5 1289.26,-667.79 1364.29,-600.62 1632,-427.5 1725.59,-366.97 1759.08,-363.98 1869,-345.5 2025.91,-319.12 2082.74,-278.38 2227,-345.5 2259.84,-360.78 2284.03,-396.92 2296.78,-419.96"/>
<polygon fill="#757575" stroke="#757575" points="2293.76,-421.73 2301.54,-428.93 2299.95,-418.46 2293.76,-421.73"/>
</g>
<!-- handlers/nonce.handler.ts&#45;&gt;statements/index.ts -->
<g id="edge31" class="edge">
<title>handlers/nonce.handler.ts&#45;&gt;statements/index.ts</title>
<path fill="none" stroke="#757575" d="M972.01,-1132C1012.65,-1129.83 1061.63,-1124.35 1104,-1111.5 1198.35,-1082.89 1297.77,-1018.89 1342.58,-987.93"/>
<polygon fill="#757575" stroke="#757575" points="1344.59,-990.8 1350.79,-982.2 1340.59,-985.05 1344.59,-990.8"/>
</g>
<!-- handlers/schemas/nonceHandlerConfig.schema.ts -->
<g id="node19" class="node">
<title>handlers/schemas/nonceHandlerConfig.schema.ts</title>
<path fill="none" stroke="#cfffac" d="M1520.33,-1219C1520.33,-1219 1215.67,-1219 1215.67,-1219 1211.83,-1219 1208,-1215.17 1208,-1211.33 1208,-1211.33 1208,-1203.67 1208,-1203.67 1208,-1199.83 1211.83,-1196 1215.67,-1196 1215.67,-1196 1520.33,-1196 1520.33,-1196 1524.17,-1196 1528,-1199.83 1528,-1203.67 1528,-1203.67 1528,-1211.33 1528,-1211.33 1528,-1215.17 1524.17,-1219 1520.33,-1219"/>
<text text-anchor="middle" x="1368" y="-1203.8" font-family="Arial" font-size="14.00" fill="#cfffac">handlers/schemas/nonceHandlerConfig.schema.ts</text>
</g>
<!-- handlers/nonce.handler.ts&#45;&gt;handlers/schemas/nonceHandlerConfig.schema.ts -->
<g id="edge29" class="edge">
<title>handlers/nonce.handler.ts&#45;&gt;handlers/schemas/nonceHandlerConfig.schema.ts</title>
<path fill="none" stroke="#757575" d="M972.01,-1133.9C1012.87,-1136.76 1062.04,-1143.47 1104,-1158.5 1121.87,-1164.9 1122.11,-1175.15 1140,-1181.5 1158.39,-1188.03 1178.09,-1193.01 1197.92,-1196.8"/>
<polygon fill="#757575" stroke="#757575" points="1197.52,-1200.28 1207.98,-1198.62 1198.76,-1193.39 1197.52,-1200.28"/>
</g>
<!-- handlers/oauthAuthorizationServer.handler.ts&#45;&gt;config.ts -->
<g id="edge32" class="edge">
<title>handlers/oauthAuthorizationServer.handler.ts&#45;&gt;config.ts</title>
<path fill="none" stroke="#757575" d="M588.4,-1224.04C614.56,-1226.97 642.84,-1230 669,-1232.5 916.68,-1256.17 1214.51,-1277.15 1323.96,-1284.61"/>
<polygon fill="#757575" stroke="#757575" points="1324.04,-1288.12 1334.26,-1285.31 1324.52,-1281.14 1324.04,-1288.12"/>
</g>
<!-- handlers/schemas/oauthAuthorizationServerHandlerConfig.schema.ts -->
<g id="node20" class="node">
<title>handlers/schemas/oauthAuthorizationServerHandlerConfig.schema.ts</title>
<path fill="none" stroke="#cfffac" d="M1096.33,-1224C1096.33,-1224 676.67,-1224 676.67,-1224 672.83,-1224 669,-1220.17 669,-1216.33 669,-1216.33 669,-1208.67 669,-1208.67 669,-1204.83 672.83,-1201 676.67,-1201 676.67,-1201 1096.33,-1201 1096.33,-1201 1100.17,-1201 1104,-1204.83 1104,-1208.67 1104,-1208.67 1104,-1216.33 1104,-1216.33 1104,-1220.17 1100.17,-1224 1096.33,-1224"/>
<text text-anchor="middle" x="886.5" y="-1208.8" font-family="Arial" font-size="14.00" fill="#cfffac">handlers/schemas/oauthAuthorizationServerHandlerConfig.schema.ts</text>
</g>
<!-- handlers/oauthAuthorizationServer.handler.ts&#45;&gt;handlers/schemas/oauthAuthorizationServerHandlerConfig.schema.ts -->
<g id="edge33" class="edge">
<title>handlers/oauthAuthorizationServer.handler.ts&#45;&gt;handlers/schemas/oauthAuthorizationServerHandlerConfig.schema.ts</title>
<path fill="none" stroke="#757575" d="M633.14,-1212.5C641.56,-1212.5 650.11,-1212.5 658.75,-1212.5"/>
<polygon fill="#757575" stroke="#757575" points="658.91,-1216 668.91,-1212.5 658.91,-1209 658.91,-1216"/>
</g>
<!-- handlers/openidCredentialIssuer.handler.ts&#45;&gt;config.ts -->
<g id="edge34" class="edge">
<title>handlers/openidCredentialIssuer.handler.ts&#45;&gt;config.ts</title>
<path fill="none" stroke="#757575" d="M979.25,-1414.98C1018.12,-1409.04 1063.66,-1400.65 1104,-1389.5 1188.52,-1366.14 1283.48,-1325.56 1332.92,-1303.27"/>
<polygon fill="#757575" stroke="#757575" points="1334.52,-1306.39 1342.18,-1299.07 1331.63,-1300.01 1334.52,-1306.39"/>
</g>
<!-- handlers/openidCredentialIssuer.handler.ts&#45;&gt;resources.ts -->
<g id="edge36" class="edge">
<title>handlers/openidCredentialIssuer.handler.ts&#45;&gt;resources.ts</title>
<path fill="none" stroke="#757575" d="M942.36,-1438.03C993.29,-1448.1 1071.39,-1461.97 1140,-1467.5 1382.21,-1487.04 2054.07,-1519.21 2227,-1348.5 2281.01,-1295.19 2300.87,-1049.06 2305.73,-974.18"/>
<polygon fill="#757575" stroke="#757575" points="2309.23,-974.25 2306.36,-964.05 2302.24,-973.81 2309.23,-974.25"/>
</g>
<!-- handlers/schemas/openidCredentialIssuerHandlerConfig.schema.ts -->
<g id="node21" class="node">
<title>handlers/schemas/openidCredentialIssuerHandlerConfig.schema.ts</title>
<path fill="none" stroke="#cfffac" d="M1571.33,-1458C1571.33,-1458 1164.67,-1458 1164.67,-1458 1160.83,-1458 1157,-1454.17 1157,-1450.33 1157,-1450.33 1157,-1442.67 1157,-1442.67 1157,-1438.83 1160.83,-1435 1164.67,-1435 1164.67,-1435 1571.33,-1435 1571.33,-1435 1575.17,-1435 1579,-1438.83 1579,-1442.67 1579,-1442.67 1579,-1450.33 1579,-1450.33 1579,-1454.17 1575.17,-1458 1571.33,-1458"/>
<text text-anchor="middle" x="1368" y="-1442.8" font-family="Arial" font-size="14.00" fill="#cfffac">handlers/schemas/openidCredentialIssuerHandlerConfig.schema.ts</text>
</g>
<!-- handlers/openidCredentialIssuer.handler.ts&#45;&gt;handlers/schemas/openidCredentialIssuerHandlerConfig.schema.ts -->
<g id="edge35" class="edge">
<title>handlers/openidCredentialIssuer.handler.ts&#45;&gt;handlers/schemas/openidCredentialIssuerHandlerConfig.schema.ts</title>
<path fill="none" stroke="#757575" d="M1022.66,-1432.14C1061.25,-1433.75 1104.34,-1435.54 1146.62,-1437.31"/>
<polygon fill="#757575" stroke="#757575" points="1146.63,-1440.81 1156.77,-1437.73 1146.92,-1433.82 1146.63,-1440.81"/>
</g>
<!-- handlers/pushedAuthorizationRequest.handler.ts&#45;&gt;config.ts -->
<g id="edge37" class="edge">
<title>handlers/pushedAuthorizationRequest.handler.ts&#45;&gt;config.ts</title>
<path fill="none" stroke="#757575" d="M891.18,-62.43C914.27,-137.87 1040.43,-556.59 1104,-906.5 1116.83,-977.12 1093.1,-1173.16 1140,-1227.5 1185.72,-1280.48 1272.2,-1289.38 1324.22,-1289.5"/>
<polygon fill="#757575" stroke="#757575" points="1324.48,-1293 1334.45,-1289.41 1324.42,-1286 1324.48,-1293"/>
</g>
<!-- handlers/pushedAuthorizationRequest.handler.ts&#45;&gt;errors.ts -->
<g id="edge38" class="edge">
<title>handlers/pushedAuthorizationRequest.handler.ts&#45;&gt;errors.ts</title>
<path fill="none" stroke="#757575" d="M1040.8,-48.33C1382.82,-44.16 2181.84,-38.47 2227,-75.5 2280.92,-119.72 2300.7,-347.11 2305.65,-418.81"/>
<polygon fill="#757575" stroke="#757575" points="2302.17,-419.19 2306.32,-428.93 2309.15,-418.72 2302.17,-419.19"/>
</g>
<!-- handlers/pushedAuthorizationRequest.handler.ts&#45;&gt;statements/index.ts -->
<g id="edge40" class="edge">
<title>handlers/pushedAuthorizationRequest.handler.ts&#45;&gt;statements/index.ts</title>
<path fill="none" stroke="#757575" d="M893.56,-62.13C943.75,-158.43 1290.27,-823.28 1356.18,-949.75"/>
<polygon fill="#757575" stroke="#757575" points="1353.19,-951.57 1360.91,-958.82 1359.39,-948.33 1353.19,-951.57"/>
</g>
<!-- handlers/schemas/pushedAuthorizationRequestHandlerConfig.schema.ts -->
<g id="node22" class="node">
<title>handlers/schemas/pushedAuthorizationRequestHandlerConfig.schema.ts</title>
<path fill="none" stroke="#cfffac" d="M1588.33,-23C1588.33,-23 1147.67,-23 1147.67,-23 1143.83,-23 1140,-19.17 1140,-15.33 1140,-15.33 1140,-7.67 1140,-7.67 1140,-3.83 1143.83,0 1147.67,0 1147.67,0 1588.33,0 1588.33,0 1592.17,0 1596,-3.83 1596,-7.67 1596,-7.67 1596,-15.33 1596,-15.33 1596,-19.17 1592.17,-23 1588.33,-23"/>
<text text-anchor="middle" x="1368" y="-7.8" font-family="Arial" font-size="14.00" fill="#cfffac">handlers/schemas/pushedAuthorizationRequestHandlerConfig.schema.ts</text>
</g>
<!-- handlers/pushedAuthorizationRequest.handler.ts&#45;&gt;handlers/schemas/pushedAuthorizationRequestHandlerConfig.schema.ts -->
<g id="edge39" class="edge">
<title>handlers/pushedAuthorizationRequest.handler.ts&#45;&gt;handlers/schemas/pushedAuthorizationRequestHandlerConfig.schema.ts</title>
<path fill="none" stroke="#757575" d="M1029.1,-38.98C1087.58,-34.23 1155.49,-28.7 1215.02,-23.86"/>
<polygon fill="#757575" stroke="#757575" points="1215.58,-27.33 1225.26,-23.03 1215.01,-20.35 1215.58,-27.33"/>
</g>
<!-- handlers/token.handler.ts&#45;&gt;config.ts -->
<g id="edge41" class="edge">
<title>handlers/token.handler.ts&#45;&gt;config.ts</title>
<path fill="none" stroke="#757575" d="M503.11,-1042.2C530.2,-1067.55 598.84,-1127.28 669,-1152.5 760.33,-1185.34 1023.49,-1137.29 1104,-1191.5 1133.02,-1211.04 1111.22,-1241.6 1140,-1261.5 1194.83,-1299.41 1275.49,-1298.75 1324.44,-1293.83"/>
<polygon fill="#757575" stroke="#757575" points="1324.84,-1297.3 1334.39,-1292.72 1324.06,-1290.35 1324.84,-1297.3"/>
</g>
<!-- handlers/token.handler.ts&#45;&gt;errors.ts -->
<g id="edge42" class="edge">
<title>handlers/token.handler.ts&#45;&gt;errors.ts</title>
<path fill="none" stroke="#757575" d="M494.68,-1018.74C524.09,-927.03 730.5,-324.49 1140,-112.5 1247.29,-56.96 2132.96,-62.65 2227,-138.5 2271.51,-174.4 2296.97,-356.02 2304.56,-418.97"/>
<polygon fill="#757575" stroke="#757575" points="2301.1,-419.45 2305.74,-428.97 2308.05,-418.63 2301.1,-419.45"/>
</g>
<!-- handlers/schemas/tokenHandlerConfig.schema.ts -->
<g id="node23" class="node">
<title>handlers/schemas/tokenHandlerConfig.schema.ts</title>
<path fill="none" stroke="#cfffac" d="M1036.83,-1062C1036.83,-1062 736.17,-1062 736.17,-1062 732.33,-1062 728.5,-1058.17 728.5,-1054.33 728.5,-1054.33 728.5,-1046.67 728.5,-1046.67 728.5,-1042.83 732.33,-1039 736.17,-1039 736.17,-1039 1036.83,-1039 1036.83,-1039 1040.67,-1039 1044.5,-1042.83 1044.5,-1046.67 1044.5,-1046.67 1044.5,-1054.33 1044.5,-1054.33 1044.5,-1058.17 1040.67,-1062 1036.83,-1062"/>
<text text-anchor="middle" x="886.5" y="-1046.8" font-family="Arial" font-size="14.00" fill="#cfffac">handlers/schemas/tokenHandlerConfig.schema.ts</text>
</g>
<!-- handlers/token.handler.ts&#45;&gt;handlers/schemas/tokenHandlerConfig.schema.ts -->
<g id="edge43" class="edge">
<title>handlers/token.handler.ts&#45;&gt;handlers/schemas/tokenHandlerConfig.schema.ts</title>
<path fill="none" stroke="#757575" d="M573.7,-1034.69C615.66,-1036.82 668.2,-1039.48 718.12,-1042.01"/>
<polygon fill="#757575" stroke="#757575" points="718.24,-1045.52 728.4,-1042.54 718.59,-1038.53 718.24,-1045.52"/>
</g>
<!-- handlers/token/authorizationCode.ts -->
<g id="node24" class="node">
<title>handlers/token/authorizationCode.ts</title>
<path fill="none" stroke="#c6c5fe" d="M995.33,-1021C995.33,-1021 777.67,-1021 777.67,-1021 773.83,-1021 770,-1017.17 770,-1013.33 770,-1013.33 770,-1005.67 770,-1005.67 770,-1001.83 773.83,-998 777.67,-998 777.67,-998 995.33,-998 995.33,-998 999.17,-998 1003,-1001.83 1003,-1005.67 1003,-1005.67 1003,-1013.33 1003,-1013.33 1003,-1017.17 999.17,-1021 995.33,-1021"/>
<text text-anchor="middle" x="886.5" y="-1005.8" font-family="Arial" font-size="14.00" fill="#c6c5fe">handlers/token/authorizationCode.ts</text>
</g>
<!-- handlers/token.handler.ts&#45;&gt;handlers/token/authorizationCode.ts -->
<g id="edge44" class="edge">
<title>handlers/token.handler.ts&#45;&gt;handlers/token/authorizationCode.ts</title>
<path fill="none" stroke="#757575" d="M573.7,-1026.1C627.63,-1023.23 699.05,-1019.42 759.93,-1016.18"/>
<polygon fill="#757575" stroke="#757575" points="760.19,-1019.68 769.99,-1015.65 759.82,-1012.69 760.19,-1019.68"/>
</g>
<!-- handlers/token/clientCredentials.ts -->
<g id="node25" class="node">
<title>handlers/token/clientCredentials.ts</title>
<path fill="none" stroke="#c6c5fe" d="M990.33,-980C990.33,-980 782.67,-980 782.67,-980 778.83,-980 775,-976.17 775,-972.33 775,-972.33 775,-964.67 775,-964.67 775,-960.83 778.83,-957 782.67,-957 782.67,-957 990.33,-957 990.33,-957 994.17,-957 998,-960.83 998,-964.67 998,-964.67 998,-972.33 998,-972.33 998,-976.17 994.17,-980 990.33,-980"/>
<text text-anchor="middle" x="886.5" y="-964.8" font-family="Arial" font-size="14.00" fill="#c6c5fe">handlers/token/clientCredentials.ts</text>
</g>
<!-- handlers/token.handler.ts&#45;&gt;handlers/token/clientCredentials.ts -->
<g id="edge45" class="edge">
<title>handlers/token.handler.ts&#45;&gt;handlers/token/clientCredentials.ts</title>
<path fill="none" stroke="#757575" d="M532.75,-1018.91C568.61,-1009.37 621.84,-996.2 669,-988.5 699.93,-983.45 733.56,-979.57 764.9,-976.63"/>
<polygon fill="#757575" stroke="#757575" points="765.34,-980.11 774.98,-975.71 764.71,-973.14 765.34,-980.11"/>
</g>
<!-- handlers/token/authorizationCode.ts&#45;&gt;resources.ts -->
<g id="edge47" class="edge">
<title>handlers/token/authorizationCode.ts&#45;&gt;resources.ts</title>
<path fill="none" stroke="#757575" d="M1003.21,-1006.15C1036.89,-1008.85 1072.96,-1015.47 1104,-1029.5 1124.05,-1038.56 1119.95,-1054.42 1140,-1063.5 1325.42,-1147.51 1412.4,-1018.59 1596,-1106.5 1616.69,-1116.41 1610.92,-1134.44 1632,-1143.5 1728.78,-1185.09 1763.66,-1145.83 1869,-1146.5 2028.11,-1147.51 2094.77,-1235 2227,-1146.5 2285.66,-1107.24 2301.35,-1016.29 2305.51,-974.38"/>
<polygon fill="#757575" stroke="#757575" points="2309.02,-974.43 2306.39,-964.16 2302.05,-973.83 2309.02,-974.43"/>
</g>
<!-- handlers/token/authorizationCode.ts&#45;&gt;errors.ts -->
<g id="edge46" class="edge">
<title>handlers/token/authorizationCode.ts&#45;&gt;errors.ts</title>
<path fill="none" stroke="#757575" d="M937.01,-1021.06C986.75,-1029.43 1061.89,-1032.62 1104,-988.5 1159.23,-930.64 1082.04,-324.63 1140,-269.5 1183.76,-227.88 2176.05,-237.09 2227,-269.5 2279.35,-302.81 2298.02,-380.37 2304.2,-418.51"/>
<polygon fill="#757575" stroke="#757575" points="2300.76,-419.2 2305.68,-428.58 2307.69,-418.18 2300.76,-419.2"/>
</g>
<!-- handlers/token/authorizationCode.ts&#45;&gt;statements/index.ts -->
<g id="edge48" class="edge">
<title>handlers/token/authorizationCode.ts&#45;&gt;statements/index.ts</title>
<path fill="none" stroke="#757575" d="M1003.27,-1000.08C1092.52,-992.82 1213.4,-982.99 1290.8,-976.7"/>
<polygon fill="#757575" stroke="#757575" points="1291.28,-980.17 1300.96,-975.87 1290.71,-973.19 1291.28,-980.17"/>
</g>
<!-- handlers/token/clientCredentials.ts&#45;&gt;resources.ts -->
<g id="edge50" class="edge">
<title>handlers/token/clientCredentials.ts&#45;&gt;resources.ts</title>
<path fill="none" stroke="#757575" d="M998.01,-963.92C1033.28,-966.27 1071.56,-973 1104,-988.5 1124.7,-998.39 1119.36,-1015.48 1140,-1025.5 1323.32,-1114.5 1412.07,-985.75 1596,-1073.5 1616.42,-1083.24 1611.09,-1100.84 1632,-1109.5 1754.16,-1160.1 2114.26,-1178.58 2227,-1109.5 2275.7,-1079.66 2295.91,-1009.85 2303.29,-974.23"/>
<polygon fill="#757575" stroke="#757575" points="2306.74,-974.84 2305.19,-964.36 2299.86,-973.52 2306.74,-974.84"/>
</g>
<!-- handlers/token/clientCredentials.ts&#45;&gt;errors.ts -->
<g id="edge49" class="edge">
<title>handlers/token/clientCredentials.ts&#45;&gt;errors.ts</title>
<path fill="none" stroke="#757575" d="M937.01,-980.06C986.75,-988.43 1061.89,-991.61 1104,-947.5 1159,-889.88 1082.28,-286.39 1140,-231.5 1183.76,-189.88 2177.25,-197.27 2227,-231.5 2289.72,-274.65 2303.29,-374.19 2306.21,-418.51"/>
<polygon fill="#757575" stroke="#757575" points="2302.73,-418.96 2306.76,-428.76 2309.72,-418.59 2302.73,-418.96"/>
</g>
<!-- handlers/token/clientCredentials.ts&#45;&gt;statements/index.ts -->
<g id="edge51" class="edge">
<title>handlers/token/clientCredentials.ts&#45;&gt;statements/index.ts</title>
<path fill="none" stroke="#757575" d="M998.11,-968.96C1087.71,-969.34 1211.61,-969.85 1290.53,-970.18"/>
<polygon fill="#757575" stroke="#757575" points="1290.87,-973.68 1300.88,-970.22 1290.9,-966.68 1290.87,-973.68"/>
</g>
<!-- index.ts -->
<g id="node26" class="node">
<title>index.ts</title>
<path fill="none" stroke="#c6c5fe" d="M55.33,-1320C55.33,-1320 7.67,-1320 7.67,-1320 3.83,-1320 0,-1316.17 0,-1312.33 0,-1312.33 0,-1304.67 0,-1304.67 0,-1300.83 3.83,-1297 7.67,-1297 7.67,-1297 55.33,-1297 55.33,-1297 59.17,-1297 63,-1300.83 63,-1304.67 63,-1304.67 63,-1312.33 63,-1312.33 63,-1316.17 59.17,-1320 55.33,-1320"/>
<text text-anchor="middle" x="31.5" y="-1304.8" font-family="Arial" font-size="14.00" fill="#c6c5fe">index.ts</text>
</g>
<!-- index.ts&#45;&gt;config.ts -->
<g id="edge52" class="edge">
<title>index.ts&#45;&gt;config.ts</title>
<path fill="none" stroke="#757575" d="M63.11,-1313.09C105.21,-1318.99 183.42,-1328.5 250.5,-1328.5 250.5,-1328.5 250.5,-1328.5 491,-1328.5 811.61,-1328.5 1197.5,-1300.76 1324.34,-1290.91"/>
<polygon fill="#757575" stroke="#757575" points="1324.71,-1294.4 1334.41,-1290.13 1324.17,-1287.42 1324.71,-1294.4"/>
</g>
<!-- index.ts&#45;&gt;resources.ts -->
<g id="edge55" class="edge">
<title>index.ts&#45;&gt;resources.ts</title>
<path fill="none" stroke="#757575" d="M37.27,-1320.11C56.54,-1364.98 133.29,-1524.5 250.5,-1524.5 250.5,-1524.5 250.5,-1524.5 1733.5,-1524.5 1957.65,-1524.5 2071.57,-1582.01 2227,-1420.5 2289.7,-1355.34 2303.69,-1058.08 2306.41,-974.45"/>
<polygon fill="#757575" stroke="#757575" points="2309.91,-974.42 2306.71,-964.32 2302.91,-974.2 2309.91,-974.42"/>
</g>
<!-- index.ts&#45;&gt;core.ts -->
<g id="edge53" class="edge">
<title>index.ts&#45;&gt;core.ts</title>
<path fill="none" stroke="#757575" d="M63.02,-1302.01C71.34,-1300.24 80.45,-1298.3 89.11,-1296.46"/>
<polygon fill="#757575" stroke="#757575" points="89.94,-1299.86 98.99,-1294.35 88.48,-1293.01 89.94,-1299.86"/>
</g>
<!-- index.ts&#45;&gt;handlers/index.ts -->
<g id="edge54" class="edge">
<title>index.ts&#45;&gt;handlers/index.ts</title>
<path fill="none" stroke="#757575" d="M51.04,-1296.86C64.32,-1288.56 82.68,-1277.21 99,-1267.5 141.04,-1242.48 190.26,-1214.44 220.91,-1197.13"/>
<polygon fill="#757575" stroke="#757575" points="222.81,-1200.08 229.8,-1192.12 219.37,-1193.98 222.81,-1200.08"/>
</g>
<!-- statements/grants/generateIssuerGrants.ts -->
<g id="node27" class="node">
<title>statements/grants/generateIssuerGrants.ts</title>
<path fill="none" stroke="#c6c5fe" d="M2177.33,-1067C2177.33,-1067 1918.67,-1067 1918.67,-1067 1914.83,-1067 1911,-1063.17 1911,-1059.33 1911,-1059.33 1911,-1051.67 1911,-1051.67 1911,-1047.83 1914.83,-1044 1918.67,-1044 1918.67,-1044 2177.33,-1044 2177.33,-1044 2181.17,-1044 2185,-1047.83 2185,-1051.67 2185,-1051.67 2185,-1059.33 2185,-1059.33 2185,-1063.17 2181.17,-1067 2177.33,-1067"/>
<text text-anchor="middle" x="2048" y="-1051.8" font-family="Arial" font-size="14.00" fill="#c6c5fe">statements/grants/generateIssuerGrants.ts</text>
</g>
<!-- statements/grants/generateIssuerGrants.ts&#45;&gt;resources.ts -->
<g id="edge56" class="edge">
<title>statements/grants/generateIssuerGrants.ts&#45;&gt;resources.ts</title>
<path fill="none" stroke="#757575" d="M2185.43,-1049.17C2199.88,-1045.66 2214.02,-1040.89 2227,-1034.5 2255.5,-1020.47 2279.57,-992.03 2293.65,-972.62"/>
<polygon fill="#757575" stroke="#757575" points="2296.7,-974.37 2299.57,-964.17 2290.97,-970.36 2296.7,-974.37"/>
</g>
<!-- statements/grants/index.ts&#45;&gt;statements/grants/generateIssuerGrants.ts -->
<g id="edge57" class="edge">
<title>statements/grants/index.ts&#45;&gt;statements/grants/generateIssuerGrants.ts</title>
<path fill="none" stroke="#757575" d="M1820.41,-1055.5C1845.35,-1055.5 1873.24,-1055.5 1900.71,-1055.5"/>
<polygon fill="#757575" stroke="#757575" points="1900.81,-1059 1910.81,-1055.5 1900.81,-1052 1900.81,-1059"/>
</g>
<!-- statements/locations/authorizationCodeRedirection.ts -->
<g id="node33" class="node">
<title>statements/locations/authorizationCodeRedirection.ts</title>
<path fill="none" stroke="#c6c5fe" d="M2208.33,-903C2208.33,-903 1887.67,-903 1887.67,-903 1883.83,-903 1880,-899.17 1880,-895.33 1880,-895.33 1880,-887.67 1880,-887.67 1880,-883.83 1883.83,-880 1887.67,-880 1887.67,-880 2208.33,-880 2208.33,-880 2212.17,-880 2216,-883.83 2216,-887.67 2216,-887.67 2216,-895.33 2216,-895.33 2216,-899.17 2212.17,-903 2208.33,-903"/>
<text text-anchor="middle" x="2048" y="-887.8" font-family="Arial" font-size="14.00" fill="#c6c5fe">statements/locations/authorizationCodeRedirection.ts</text>
</g>
<!-- statements/locations/index.ts&#45;&gt;statements/locations/authorizationCodeRedirection.ts -->
<g id="edge68" class="edge">
<title>statements/locations/index.ts&#45;&gt;statements/locations/authorizationCodeRedirection.ts</title>
<path fill="none" stroke="#757575" d="M1765.94,-841.08C1793.13,-850.36 1833.15,-863.02 1869,-870.5 1883.74,-873.58 1899.27,-876.24 1914.77,-878.53"/>
<polygon fill="#757575" stroke="#757575" points="1914.54,-882.04 1924.93,-879.99 1915.53,-875.11 1914.54,-882.04"/>
</g>
<!-- statements/locations/generateAuthorizationRequestUri.ts -->
<g id="node34" class="node">
<title>statements/locations/generateAuthorizationRequestUri.ts</title>
<path fill="none" stroke="#c6c5fe" d="M2219.33,-780C2219.33,-780 1876.67,-780 1876.67,-780 1872.83,-780 1869,-776.17 1869,-772.33 1869,-772.33 1869,-764.67 1869,-764.67 1869,-760.83 1872.83,-757 1876.67,-757 1876.67,-757 2219.33,-757 2219.33,-757 2223.17,-757 2227,-760.83 2227,-764.67 2227,-764.67 2227,-772.33 2227,-772.33 2227,-776.17 2223.17,-780 2219.33,-780"/>
<text text-anchor="middle" x="2048" y="-764.8" font-family="Arial" font-size="14.00" fill="#c6c5fe">statements/locations/generateAuthorizationRequestUri.ts</text>
</g>
<!-- statements/locations/index.ts&#45;&gt;statements/locations/generateAuthorizationRequestUri.ts -->
<g id="edge69" class="edge">
<title>statements/locations/index.ts&#45;&gt;statements/locations/generateAuthorizationRequestUri.ts</title>
<path fill="none" stroke="#757575" d="M1765.65,-817.96C1792.84,-808.64 1833.01,-795.9 1869,-788.5 1881.99,-785.83 1895.59,-783.49 1909.24,-781.45"/>
<polygon fill="#757575" stroke="#757575" points="1909.78,-784.91 1919.18,-780.02 1908.79,-777.98 1909.78,-784.91"/>
</g>
<!-- statements/locations/generateCredentialOffer.ts -->
<g id="node35" class="node">
<title>statements/locations/generateCredentialOffer.ts</title>
<path fill="none" stroke="#c6c5fe" d="M2191.83,-739C2191.83,-739 1904.17,-739 1904.17,-739 1900.33,-739 1896.5,-735.17 1896.5,-731.33 1896.5,-731.33 1896.5,-723.67 1896.5,-723.67 1896.5,-719.83 1900.33,-716 1904.17,-716 1904.17,-716 2191.83,-716 2191.83,-716 2195.67,-716 2199.5,-719.83 2199.5,-723.67 2199.5,-723.67 2199.5,-731.33 2199.5,-731.33 2199.5,-735.17 2195.67,-739 2191.83,-739"/>
<text text-anchor="middle" x="2048" y="-723.8" font-family="Arial" font-size="14.00" fill="#c6c5fe">statements/locations/generateCredentialOffer.ts</text>
</g>
<!-- statements/locations/index.ts&#45;&gt;statements/locations/generateCredentialOffer.ts -->
<g id="edge70" class="edge">
<title>statements/locations/index.ts&#45;&gt;statements/locations/generateCredentialOffer.ts</title>
<path fill="none" stroke="#757575" d="M1747.87,-817.86C1771.53,-799.41 1820.84,-763.89 1869,-747.5 1875.53,-745.28 1882.26,-743.29 1889.11,-741.52"/>
<polygon fill="#757575" stroke="#757575" points="1890.33,-744.82 1899.23,-739.06 1888.68,-738.02 1890.33,-744.82"/>
</g>
<!-- statements/resources/issuerClient.ts -->
<g id="node36" class="node">
<title>statements/resources/issuerClient.ts</title>
<path fill="none" stroke="#c6c5fe" d="M2157.83,-1026C2157.83,-1026 1938.17,-1026 1938.17,-1026 1934.33,-1026 1930.5,-1022.17 1930.5,-1018.33 1930.5,-1018.33 1930.5,-1010.67 1930.5,-1010.67 1930.5,-1006.83 1934.33,-1003 1938.17,-1003 1938.17,-1003 2157.83,-1003 2157.83,-1003 2161.67,-1003 2165.5,-1006.83 2165.5,-1010.67 2165.5,-1010.67 2165.5,-1018.33 2165.5,-1018.33 2165.5,-1022.17 2161.67,-1026 2157.83,-1026"/>
<text text-anchor="middle" x="2048" y="-1010.8" font-family="Arial" font-size="14.00" fill="#c6c5fe">statements/resources/issuerClient.ts</text>
</g>
<!-- statements/resources/index.ts&#45;&gt;statements/resources/issuerClient.ts -->
<g id="edge71" class="edge">
<title>statements/resources/index.ts&#45;&gt;statements/resources/issuerClient.ts</title>
<path fill="none" stroke="#757575" d="M1831.4,-1000.75C1859.57,-1002.54 1890.7,-1004.53 1920.34,-1006.42"/>
<polygon fill="#757575" stroke="#757575" points="1920.13,-1009.91 1930.33,-1007.06 1920.57,-1002.93 1920.13,-1009.91"/>
</g>
<!-- statements/tokens/generateAccessToken.ts -->
<g id="node37" class="node">
<title>statements/tokens/generateAccessToken.ts</title>
<path fill="none" stroke="#c6c5fe" d="M2179.33,-944C2179.33,-944 1916.67,-944 1916.67,-944 1912.83,-944 1909,-940.17 1909,-936.33 1909,-936.33 1909,-928.67 1909,-928.67 1909,-924.83 1912.83,-921 1916.67,-921 1916.67,-921 2179.33,-921 2179.33,-921 2183.17,-921 2187,-924.83 2187,-928.67 2187,-928.67 2187,-936.33 2187,-936.33 2187,-940.17 2183.17,-944 2179.33,-944"/>
<text text-anchor="middle" x="2048" y="-928.8" font-family="Arial" font-size="14.00" fill="#c6c5fe">statements/tokens/generateAccessToken.ts</text>
</g>
<!-- statements/tokens/index.ts&#45;&gt;statements/tokens/generateAccessToken.ts -->
<g id="edge79" class="edge">
<title>statements/tokens/index.ts&#45;&gt;statements/tokens/generateAccessToken.ts</title>
<path fill="none" stroke="#757575" d="M1821.24,-932.5C1845.34,-932.5 1872.15,-932.5 1898.64,-932.5"/>
<polygon fill="#757575" stroke="#757575" points="1898.77,-936 1908.77,-932.5 1898.77,-929 1898.77,-936"/>
</g>
<!-- statements/tokens/generateAuthorizationCode.ts -->
<g id="node38" class="node">
<title>statements/tokens/generateAuthorizationCode.ts</title>
<path fill="none" stroke="#c6c5fe" d="M2194.83,-821C2194.83,-821 1901.17,-821 1901.17,-821 1897.33,-821 1893.5,-817.17 1893.5,-813.33 1893.5,-813.33 1893.5,-805.67 1893.5,-805.67 1893.5,-801.83 1897.33,-798 1901.17,-798 1901.17,-798 2194.83,-798 2194.83,-798 2198.67,-798 2202.5,-801.83 2202.5,-805.67 2202.5,-805.67 2202.5,-813.33 2202.5,-813.33 2202.5,-817.17 2198.67,-821 2194.83,-821"/>
<text text-anchor="middle" x="2048" y="-805.8" font-family="Arial" font-size="14.00" fill="#c6c5fe">statements/tokens/generateAuthorizationCode.ts</text>
</g>
<!-- statements/tokens/index.ts&#45;&gt;statements/tokens/generateAuthorizationCode.ts -->
<g id="edge80" class="edge">
<title>statements/tokens/index.ts&#45;&gt;statements/tokens/generateAuthorizationCode.ts</title>
<path fill="none" stroke="#757575" d="M1747.03,-920.71C1775.64,-896.04 1841.84,-840.38 1869,-829.5 1874.14,-827.44 1879.43,-825.57 1884.82,-823.87"/>
<polygon fill="#757575" stroke="#757575" points="1886.01,-827.17 1894.62,-821.01 1884.04,-820.46 1886.01,-827.17"/>
</g>
<!-- statements/tokens/generateCNonce.ts -->
<g id="node39" class="node">
<title>statements/tokens/generateCNonce.ts</title>
<path fill="none" stroke="#c6c5fe" d="M2163.83,-985C2163.83,-985 1932.17,-985 1932.17,-985 1928.33,-985 1924.5,-981.17 1924.5,-977.33 1924.5,-977.33 1924.5,-969.67 1924.5,-969.67 1924.5,-965.83 1928.33,-962 1932.17,-962 1932.17,-962 2163.83,-962 2163.83,-962 2167.67,-962 2171.5,-965.83 2171.5,-969.67 2171.5,-969.67 2171.5,-977.33 2171.5,-977.33 2171.5,-981.17 2167.67,-985 2163.83,-985"/>
<text text-anchor="middle" x="2048" y="-969.8" font-family="Arial" font-size="14.00" fill="#c6c5fe">statements/tokens/generateCNonce.ts</text>
</g>
<!-- statements/tokens/index.ts&#45;&gt;statements/tokens/generateCNonce.ts -->
<g id="edge81" class="edge">
<title>statements/tokens/index.ts&#45;&gt;statements/tokens/generateCNonce.ts</title>
<path fill="none" stroke="#757575" d="M1809.06,-944.05C1828.57,-946.92 1849.55,-949.92 1869,-952.5 1890.27,-955.32 1912.99,-958.15 1934.84,-960.77"/>
<polygon fill="#757575" stroke="#757575" points="1934.46,-964.25 1944.81,-961.96 1935.29,-957.3 1934.46,-964.25"/>
</g>
<!-- statements/tokens/generateCredentials.ts -->
<g id="node40" class="node">
<title>statements/tokens/generateCredentials.ts</title>
<path fill="none" stroke="#c6c5fe" d="M2173.33,-862C2173.33,-862 1922.67,-862 1922.67,-862 1918.83,-862 1915,-858.17 1915,-854.33 1915,-854.33 1915,-846.67 1915,-846.67 1915,-842.83 1918.83,-839 1922.67,-839 1922.67,-839 2173.33,-839 2173.33,-839 2177.17,-839 2181,-842.83 2181,-846.67 2181,-846.67 2181,-854.33 2181,-854.33 2181,-858.17 2177.17,-862 2173.33,-862"/>
<text text-anchor="middle" x="2048" y="-846.8" font-family="Arial" font-size="14.00" fill="#c6c5fe">statements/tokens/generateCredentials.ts</text>
</g>
<!-- statements/tokens/index.ts&#45;&gt;statements/tokens/generateCredentials.ts -->
<g id="edge82" class="edge">
<title>statements/tokens/index.ts&#45;&gt;statements/tokens/generateCredentials.ts</title>
<path fill="none" stroke="#757575" d="M1753.39,-920.95C1779.15,-906.57 1825.87,-882.46 1869,-870.5 1880.59,-867.29 1892.73,-864.59 1905.01,-862.32"/>
<polygon fill="#757575" stroke="#757575" points="1905.62,-865.77 1914.87,-860.6 1904.41,-858.87 1905.62,-865.77"/>
</g>
<!-- statements/validations/validateAccessToken.ts -->
<g id="node41" class="node">
<title>statements/validations/validateAccessToken.ts</title>
<path fill="none" stroke="#c6c5fe" d="M2187.83,-575C2187.83,-575 1908.17,-575 1908.17,-575 1904.33,-575 1900.5,-571.17 1900.5,-567.33 1900.5,-567.33 1900.5,-559.67 1900.5,-559.67 1900.5,-555.83 1904.33,-552 1908.17,-552 1908.17,-552 2187.83,-552 2187.83,-552 2191.67,-552 2195.5,-555.83 2195.5,-559.67 2195.5,-559.67 2195.5,-567.33 2195.5,-567.33 2195.5,-571.17 2191.67,-575 2187.83,-575"/>
<text text-anchor="middle" x="2048" y="-559.8" font-family="Arial" font-size="14.00" fill="#c6c5fe">statements/validations/validateAccessToken.ts</text>
</g>
<!-- statements/validations/index.ts&#45;&gt;statements/validations/validateAccessToken.ts -->
<g id="edge83" class="edge">
<title>statements/validations/index.ts&#45;&gt;statements/validations/validateAccessToken.ts</title>
<path fill="none" stroke="#757575" d="M1833.12,-563.5C1851.37,-563.5 1870.81,-563.5 1890.25,-563.5"/>
<polygon fill="#757575" stroke="#757575" points="1890.41,-567 1900.41,-563.5 1890.41,-560 1890.41,-567"/>
</g>
<!-- statements/validations/validateAuthorizationCode.ts -->
<g id="node42" class="node">
<title>statements/validations/validateAuthorizationCode.ts</title>
<path fill="none" stroke="#c6c5fe" d="M2203.33,-534C2203.33,-534 1892.67,-534 1892.67,-534 1888.83,-534 1885,-530.17 1885,-526.33 1885,-526.33 1885,-518.67 1885,-518.67 1885,-514.83 1888.83,-511 1892.67,-511 1892.67,-511 2203.33,-511 2203.33,-511 2207.17,-511 2211,-514.83 2211,-518.67 2211,-518.67 2211,-526.33 2211,-526.33 2211,-530.17 2207.17,-534 2203.33,-534"/>
<text text-anchor="middle" x="2048" y="-518.8" font-family="Arial" font-size="14.00" fill="#c6c5fe">statements/validations/validateAuthorizationCode.ts</text>
</g>
<!-- statements/validations/index.ts&#45;&gt;statements/validations/validateAuthorizationCode.ts -->
<g id="edge84" class="edge">
<title>statements/validations/index.ts&#45;&gt;statements/validations/validateAuthorizationCode.ts</title>
<path fill="none" stroke="#757575" d="M1804.1,-551.99C1824.97,-548.74 1847.88,-545.32 1869,-542.5 1887.9,-539.97 1907.95,-537.51 1927.53,-535.23"/>
<polygon fill="#757575" stroke="#757575" points="1928.18,-538.67 1937.71,-534.05 1927.38,-531.72 1928.18,-538.67"/>
</g>
<!-- statements/validations/validateClientCredentials.ts -->
<g id="node43" class="node">
<title>statements/validations/validateClientCredentials.ts</title>
<path fill="none" stroke="#c6c5fe" d="M2199.33,-698C2199.33,-698 1896.67,-698 1896.67,-698 1892.83,-698 1889,-694.17 1889,-690.33 1889,-690.33 1889,-682.67 1889,-682.67 1889,-678.83 1892.83,-675 1896.67,-675 1896.67,-675 2199.33,-675 2199.33,-675 2203.17,-675 2207,-678.83 2207,-682.67 2207,-682.67 2207,-690.33 2207,-690.33 2207,-694.17 2203.17,-698 2199.33,-698"/>
<text text-anchor="middle" x="2048" y="-682.8" font-family="Arial" font-size="14.00" fill="#c6c5fe">statements/validations/validateClientCredentials.ts</text>
</g>
<!-- statements/validations/index.ts&#45;&gt;statements/validations/validateClientCredentials.ts -->
<g id="edge85" class="edge">
<title>statements/validations/index.ts&#45;&gt;statements/validations/validateClientCredentials.ts</title>
<path fill="none" stroke="#757575" d="M1744.5,-575.15C1766.02,-597.12 1816.25,-644.35 1869,-665.5 1875.21,-667.99 1881.63,-670.21 1888.19,-672.19"/>
<polygon fill="#757575" stroke="#757575" points="1887.3,-675.57 1897.88,-674.91 1889.2,-668.84 1887.3,-675.57"/>
</g>
<!-- statements/validations/validateDpop.ts -->
<g id="node44" class="node">
<title>statements/validations/validateDpop.ts</title>
<path fill="none" stroke="#c6c5fe" d="M2164.33,-452C2164.33,-452 1931.67,-452 1931.67,-452 1927.83,-452 1924,-448.17 1924,-444.33 1924,-444.33 1924,-436.67 1924,-436.67 1924,-432.83 1927.83,-429 1931.67,-429 1931.67,-429 2164.33,-429 2164.33,-429 2168.17,-429 2172,-432.83 2172,-436.67 2172,-436.67 2172,-444.33 2172,-444.33 2172,-448.17 2168.17,-452 2164.33,-452"/>
<text text-anchor="middle" x="2048" y="-436.8" font-family="Arial" font-size="14.00" fill="#c6c5fe">statements/validations/validateDpop.ts</text>
</g>
<!-- statements/validations/index.ts&#45;&gt;statements/validations/validateDpop.ts -->
<g id="edge86" class="edge">
<title>statements/validations/index.ts&#45;&gt;statements/validations/validateDpop.ts</title>
<path fill="none" stroke="#757575" d="M1744.46,-551.71C1765.93,-529.48 1816.06,-481.7 1869,-460.5 1883.09,-454.86 1898.28,-450.64 1913.63,-447.51"/>
<polygon fill="#757575" stroke="#757575" points="1914.56,-450.89 1923.74,-445.6 1913.26,-444.02 1914.56,-450.89"/>
</g>
<!-- statements/validations/validateIssuerState.ts -->
<g id="node45" class="node">
<title>statements/validations/validateIssuerState.ts</title>
<path fill="none" stroke="#c6c5fe" d="M2182.33,-411C2182.33,-411 1913.67,-411 1913.67,-411 1909.83,-411 1906,-407.17 1906,-403.33 1906,-403.33 1906,-395.67 1906,-395.67 1906,-391.83 1909.83,-388 1913.67,-388 1913.67,-388 2182.33,-388 2182.33,-388 2186.17,-388 2190,-391.83 2190,-395.67 2190,-395.67 2190,-403.33 2190,-403.33 2190,-407.17 2186.17,-411 2182.33,-411"/>
<text text-anchor="middle" x="2048" y="-395.8" font-family="Arial" font-size="14.00" fill="#c6c5fe">statements/validations/validateIssuerState.ts</text>
</g>
<!-- statements/validations/index.ts&#45;&gt;statements/validations/validateIssuerState.ts -->
<g id="edge87" class="edge">
<title>statements/validations/index.ts&#45;&gt;statements/validations/validateIssuerState.ts</title>
<path fill="none" stroke="#757575" d="M1744.21,-551.9C1775.53,-518.04 1864.95,-421.53 1869,-419.5 1877.57,-415.21 1886.65,-411.67 1896,-408.75"/>
<polygon fill="#757575" stroke="#757575" points="1897.18,-412.06 1905.83,-405.93 1895.25,-405.33 1897.18,-412.06"/>
</g>
<!-- statements/validations/validateRequestUri.ts -->
<g id="node46" class="node">
<title>statements/validations/validateRequestUri.ts</title>
<path fill="none" stroke="#c6c5fe" d="M2181.83,-657C2181.83,-657 1914.17,-657 1914.17,-657 1910.33,-657 1906.5,-653.17 1906.5,-649.33 1906.5,-649.33 1906.5,-641.67 1906.5,-641.67 1906.5,-637.83 1910.33,-634 1914.17,-634 1914.17,-634 2181.83,-634 2181.83,-634 2185.67,-634 2189.5,-637.83 2189.5,-641.67 2189.5,-641.67 2189.5,-649.33 2189.5,-649.33 2189.5,-653.17 2185.67,-657 2181.83,-657"/>
<text text-anchor="middle" x="2048" y="-641.8" font-family="Arial" font-size="14.00" fill="#c6c5fe">statements/validations/validateRequestUri.ts</text>
</g>
<!-- statements/validations/index.ts&#45;&gt;statements/validations/validateRequestUri.ts -->
<g id="edge88" class="edge">
<title>statements/validations/index.ts&#45;&gt;statements/validations/validateRequestUri.ts</title>
<path fill="none" stroke="#757575" d="M1753.88,-575.07C1779.77,-589.19 1826.24,-612.65 1869,-624.5 1879.45,-627.39 1890.35,-629.89 1901.38,-632.04"/>
<polygon fill="#757575" stroke="#757575" points="1901.08,-635.54 1911.55,-633.92 1902.35,-628.66 1901.08,-635.54"/>
</g>
<!-- statements/validations/validateResourceOwner.ts -->
<g id="node47" class="node">
<title>statements/validations/validateResourceOwner.ts</title>
<path fill="none" stroke="#c6c5fe" d="M2196.83,-493C2196.83,-493 1899.17,-493 1899.17,-493 1895.33,-493 1891.5,-489.17 1891.5,-485.33 1891.5,-485.33 1891.5,-477.67 1891.5,-477.67 1891.5,-473.83 1895.33,-470 1899.17,-470 1899.17,-470 2196.83,-470 2196.83,-470 2200.67,-470 2204.5,-473.83 2204.5,-477.67 2204.5,-477.67 2204.5,-485.33 2204.5,-485.33 2204.5,-489.17 2200.67,-493 2196.83,-493"/>
<text text-anchor="middle" x="2048" y="-477.8" font-family="Arial" font-size="14.00" fill="#c6c5fe">statements/validations/validateResourceOwner.ts</text>
</g>
<!-- statements/validations/index.ts&#45;&gt;statements/validations/validateResourceOwner.ts -->
<g id="edge89" class="edge">
<title>statements/validations/index.ts&#45;&gt;statements/validations/validateResourceOwner.ts</title>
<path fill="none" stroke="#757575" d="M1753.39,-551.95C1779.15,-537.57 1825.87,-513.46 1869,-501.5 1878.01,-499 1887.35,-496.82 1896.83,-494.9"/>
<polygon fill="#757575" stroke="#757575" points="1897.59,-498.32 1906.76,-493 1896.28,-491.44 1897.59,-498.32"/>
</g>
<!-- statements/validations/validateScope.ts -->
<g id="node48" class="node">
<title>statements/validations/validateScope.ts</title>
<path fill="none" stroke="#c6c5fe" d="M2167.33,-616C2167.33,-616 1928.67,-616 1928.67,-616 1924.83,-616 1921,-612.17 1921,-608.33 1921,-608.33 1921,-600.67 1921,-600.67 1921,-596.83 1924.83,-593 1928.67,-593 1928.67,-593 2167.33,-593 2167.33,-593 2171.17,-593 2175,-596.83 2175,-600.67 2175,-600.67 2175,-608.33 2175,-608.33 2175,-612.17 2171.17,-616 2167.33,-616"/>
<text text-anchor="middle" x="2048" y="-600.8" font-family="Arial" font-size="14.00" fill="#c6c5fe">statements/validations/validateScope.ts</text>
</g>
<!-- statements/validations/index.ts&#45;&gt;statements/validations/validateScope.ts -->
<g id="edge90" class="edge">
<title>statements/validations/index.ts&#45;&gt;statements/validations/validateScope.ts</title>
<path fill="none" stroke="#757575" d="M1809.06,-575.05C1828.57,-577.92 1849.55,-580.92 1869,-583.5 1890.27,-586.32 1912.99,-589.15 1934.84,-591.77"/>
<polygon fill="#757575" stroke="#757575" points="1934.46,-595.25 1944.81,-592.96 1935.29,-588.3 1934.46,-595.25"/>
</g>
<!-- statements/locations/authorizationCodeRedirection.ts&#45;&gt;resources.ts -->
<g id="edge63" class="edge">
<title>statements/locations/authorizationCodeRedirection.ts&#45;&gt;resources.ts</title>
<path fill="none" stroke="#757575" d="M2192.73,-903.08C2204.43,-905.4 2215.98,-908.18 2227,-911.5 2245.69,-917.13 2265.2,-927.04 2280.28,-935.71"/>
<polygon fill="#757575" stroke="#757575" points="2278.66,-938.82 2289.05,-940.9 2282.23,-932.79 2278.66,-938.82"/>
</g>
<!-- statements/locations/generateAuthorizationRequestUri.ts&#45;&gt;resources.ts -->
<g id="edge65" class="edge">
<title>statements/locations/generateAuthorizationRequestUri.ts&#45;&gt;resources.ts</title>
<path fill="none" stroke="#757575" d="M2213.04,-780.06C2217.88,-782.56 2222.55,-785.36 2227,-788.5 2275.56,-822.76 2295.91,-894.87 2303.32,-930.97"/>
<polygon fill="#757575" stroke="#757575" points="2299.91,-931.76 2305.22,-940.93 2306.78,-930.45 2299.91,-931.76"/>
</g>
<!-- statements/locations/generateAuthorizationRequestUri.ts&#45;&gt;constants.ts -->
<g id="edge64" class="edge">
<title>statements/locations/generateAuthorizationRequestUri.ts&#45;&gt;constants.ts</title>
<path fill="none" stroke="#757575" d="M2187.99,-756.99C2201.31,-754.43 2214.5,-751.31 2227,-747.5 2245.67,-741.82 2265.19,-731.9 2280.27,-723.25"/>
<polygon fill="#757575" stroke="#757575" points="2282.21,-726.17 2289.04,-718.07 2278.65,-720.14 2282.21,-726.17"/>
</g>
<!-- statements/locations/generateCredentialOffer.ts&#45;&gt;resources.ts -->
<g id="edge67" class="edge">
<title>statements/locations/generateCredentialOffer.ts&#45;&gt;resources.ts</title>
<path fill="none" stroke="#757575" d="M2199.5,-732C2209.32,-735.97 2218.62,-741.06 2227,-747.5 2285.95,-792.81 2301.5,-887.7 2305.57,-930.6"/>
<polygon fill="#757575" stroke="#757575" points="2302.1,-931.11 2306.41,-940.79 2309.08,-930.53 2302.1,-931.11"/>
</g>
<!-- statements/locations/generateCredentialOffer.ts&#45;&gt;errors.ts -->
<g id="edge66" class="edge">
<title>statements/locations/generateCredentialOffer.ts&#45;&gt;errors.ts</title>
<path fill="none" stroke="#757575" d="M2199.7,-723.04C2209.54,-718.82 2218.78,-713.4 2227,-706.5 2301.86,-643.7 2308.33,-513.66 2307.78,-462.17"/>
<polygon fill="#757575" stroke="#757575" points="2311.28,-462.09 2307.57,-452.16 2304.28,-462.24 2311.28,-462.09"/>
</g>
<!-- statements/resources/issuerClient.ts&#45;&gt;resources.ts -->
<g id="edge72" class="edge">
<title>statements/resources/issuerClient.ts&#45;&gt;resources.ts</title>
<path fill="none" stroke="#757575" d="M2165.61,-1006.78C2186.33,-1003.71 2207.5,-999.44 2227,-993.5 2245.67,-987.82 2265.19,-977.9 2280.27,-969.25"/>
<polygon fill="#757575" stroke="#757575" points="2282.21,-972.17 2289.04,-964.07 2278.65,-966.14 2282.21,-972.17"/>
</g>
<!-- statements/tokens/generateAccessToken.ts&#45;&gt;resources.ts -->
<g id="edge73" class="edge">
<title>statements/tokens/generateAccessToken.ts&#45;&gt;resources.ts</title>
<path fill="none" stroke="#757575" d="M2187.06,-943.2C2210.32,-945.01 2233.18,-946.78 2252.6,-948.28"/>
<polygon fill="#757575" stroke="#757575" points="2252.49,-951.78 2262.73,-949.07 2253.03,-944.81 2252.49,-951.78"/>
</g>
<!-- statements/tokens/generateAuthorizationCode.ts&#45;&gt;resources.ts -->
<g id="edge75" class="edge">
<title>statements/tokens/generateAuthorizationCode.ts&#45;&gt;resources.ts</title>
<path fill="none" stroke="#757575" d="M2202.56,-817.61C2211.11,-820.84 2219.33,-824.76 2227,-829.5 2265.42,-853.21 2288.99,-903.05 2299.85,-931.47"/>
<polygon fill="#757575" stroke="#757575" points="2296.57,-932.69 2303.28,-940.88 2303.15,-930.29 2296.57,-932.69"/>
</g>
<!-- statements/tokens/generateAuthorizationCode.ts&#45;&gt;errors.ts -->
<g id="edge74" class="edge">
<title>statements/tokens/generateAuthorizationCode.ts&#45;&gt;errors.ts</title>
<path fill="none" stroke="#757575" d="M2202.74,-804.48C2211.51,-800.3 2219.7,-795.04 2227,-788.5 2251.86,-766.21 2291.53,-534.97 2303.48,-462.26"/>
<polygon fill="#757575" stroke="#757575" points="2306.94,-462.8 2305.1,-452.36 2300.03,-461.67 2306.94,-462.8"/>
</g>
<!-- statements/tokens/generateCNonce.ts&#45;&gt;resources.ts -->
<g id="edge76" class="edge">
<title>statements/tokens/generateCNonce.ts&#45;&gt;resources.ts</title>
<path fill="none" stroke="#757575" d="M2171.58,-963.52C2200,-961.21 2228.85,-958.86 2252.57,-956.93"/>
<polygon fill="#757575" stroke="#757575" points="2253.06,-960.4 2262.75,-956.1 2252.5,-953.42 2253.06,-960.4"/>
</g>
<!-- statements/tokens/generateCredentials.ts&#45;&gt;resources.ts -->
<g id="edge78" class="edge">
<title>statements/tokens/generateCredentials.ts&#45;&gt;resources.ts</title>
<path fill="none" stroke="#757575" d="M2181.21,-855.03C2197.12,-858.55 2212.75,-863.53 2227,-870.5 2255.53,-884.45 2279.6,-912.91 2293.67,-932.35"/>
<polygon fill="#757575" stroke="#757575" points="2290.98,-934.61 2299.58,-940.81 2296.72,-930.6 2290.98,-934.61"/>
</g>
<!-- statements/tokens/generateCredentials.ts&#45;&gt;errors.ts -->
<g id="edge77" class="edge">
<title>statements/tokens/generateCredentials.ts&#45;&gt;errors.ts</title>
<path fill="none" stroke="#757575" d="M2181.22,-853.78C2198.14,-849.05 2214.05,-841.39 2227,-829.5 2240.89,-816.75 2289.44,-541.85 2303.29,-462.04"/>
<polygon fill="#757575" stroke="#757575" points="2306.75,-462.57 2305,-452.12 2299.85,-461.38 2306.75,-462.57"/>
</g>
<!-- statements/validations/validateAccessToken.ts&#45;&gt;resources.ts -->
<g id="edge92" class="edge">
<title>statements/validations/validateAccessToken.ts&#45;&gt;resources.ts</title>
<path fill="none" stroke="#757575" d="M2195.61,-564.38C2207.08,-568.94 2217.77,-575.16 2227,-583.5 2233.62,-589.48 2286.88,-852.35 2302.63,-930.69"/>
<polygon fill="#757575" stroke="#757575" points="2299.27,-931.74 2304.67,-940.86 2306.13,-930.36 2299.27,-931.74"/>
</g>
<!-- statements/validations/validateAccessToken.ts&#45;&gt;errors.ts -->
<g id="edge91" class="edge">
<title>statements/validations/validateAccessToken.ts&#45;&gt;errors.ts</title>
<path fill="none" stroke="#757575" d="M2195.79,-555.78C2206.69,-552.34 2217.23,-547.98 2227,-542.5 2260.29,-523.81 2284.59,-485.11 2297.19,-461.12"/>
<polygon fill="#757575" stroke="#757575" points="2300.35,-462.63 2301.73,-452.13 2294.1,-459.48 2300.35,-462.63"/>
</g>
<!-- statements/validations/validateAuthorizationCode.ts&#45;&gt;resources.ts -->
<g id="edge94" class="edge">
<title>statements/validations/validateAuthorizationCode.ts&#45;&gt;resources.ts</title>
<path fill="none" stroke="#757575" d="M2211.07,-530.69C2216.74,-534.05 2222.09,-537.97 2227,-542.5 2227.23,-542.71 2286.21,-845.68 2302.74,-930.6"/>
<polygon fill="#757575" stroke="#757575" points="2299.35,-931.53 2304.7,-940.68 2306.22,-930.19 2299.35,-931.53"/>
</g>
<!-- statements/validations/validateAuthorizationCode.ts&#45;&gt;errors.ts -->
<g id="edge93" class="edge">
<title>statements/validations/validateAuthorizationCode.ts&#45;&gt;errors.ts</title>
<path fill="none" stroke="#757575" d="M2198.15,-510.98C2208.07,-508.36 2217.77,-505.23 2227,-501.5 2250.5,-491.99 2273.06,-473.66 2288.2,-459.57"/>
<polygon fill="#757575" stroke="#757575" points="2291.02,-461.71 2295.81,-452.25 2286.17,-456.66 2291.02,-461.71"/>
</g>
<!-- statements/validations/validateClientCredentials.ts&#45;&gt;resources.ts -->
<g id="edge96" class="edge">
<title>statements/validations/validateClientCredentials.ts&#45;&gt;resources.ts</title>
<path fill="none" stroke="#757575" d="M2207.11,-693.76C2214.17,-697.28 2220.85,-701.49 2227,-706.5 2296.74,-763.38 2306.32,-881.94 2307.19,-930.77"/>
<polygon fill="#757575" stroke="#757575" points="2303.69,-930.87 2307.26,-940.85 2310.69,-930.83 2303.69,-930.87"/>
</g>
<!-- statements/validations/validateClientCredentials.ts&#45;&gt;errors.ts -->
<g id="edge95" class="edge">
<title>statements/validations/validateClientCredentials.ts&#45;&gt;errors.ts</title>
<path fill="none" stroke="#757575" d="M2207.38,-677.91C2214.33,-674.45 2220.92,-670.35 2227,-665.5 2291.08,-614.39 2303.9,-508.03 2306.41,-462.24"/>
<polygon fill="#757575" stroke="#757575" points="2309.91,-462.36 2306.85,-452.21 2302.92,-462.05 2309.91,-462.36"/>
</g>
<!-- statements/validations/validateDpop.ts&#45;&gt;errors.ts -->
<g id="edge97" class="edge">
<title>statements/validations/validateDpop.ts&#45;&gt;errors.ts</title>
<path fill="none" stroke="#757575" d="M2172.33,-440.5C2205.7,-440.5 2239.57,-440.5 2264.99,-440.5"/>
<polygon fill="#757575" stroke="#757575" points="2265,-444 2275,-440.5 2265,-437 2265,-444"/>
</g>
<!-- statements/validations/validateIssuerState.ts&#45;&gt;errors.ts -->
<g id="edge98" class="edge">
<title>statements/validations/validateIssuerState.ts&#45;&gt;errors.ts</title>
<path fill="none" stroke="#757575" d="M2172.39,-411.02C2190.76,-413.41 2209.42,-416.22 2227,-419.5 2239.46,-421.82 2252.84,-425.04 2265.03,-428.26"/>
<polygon fill="#757575" stroke="#757575" points="2264.37,-431.71 2274.93,-430.95 2266.2,-424.95 2264.37,-431.71"/>
</g>
<!-- statements/validations/validateRequestUri.ts&#45;&gt;resources.ts -->
<g id="edge101" class="edge">
<title>statements/validations/validateRequestUri.ts&#45;&gt;resources.ts</title>
<path fill="none" stroke="#757575" d="M2189.84,-645.07C2203.39,-649.64 2216.11,-656.23 2227,-665.5 2268.24,-700.62 2295.55,-870.41 2304.12,-930.98"/>
<polygon fill="#757575" stroke="#757575" points="2300.66,-931.53 2305.5,-940.96 2307.6,-930.57 2300.66,-931.53"/>
</g>
<!-- statements/validations/validateRequestUri.ts&#45;&gt;constants.ts -->
<g id="edge99" class="edge">
<title>statements/validations/validateRequestUri.ts&#45;&gt;constants.ts</title>
<path fill="none" stroke="#757575" d="M2189.88,-656.52C2202.56,-658.95 2215.09,-661.91 2227,-665.5 2245.69,-671.13 2265.2,-681.04 2280.28,-689.71"/>
<polygon fill="#757575" stroke="#757575" points="2278.66,-692.82 2289.05,-694.9 2282.23,-686.79 2278.66,-692.82"/>
</g>
<!-- statements/validations/validateRequestUri.ts&#45;&gt;errors.ts -->
<g id="edge100" class="edge">
<title>statements/validations/validateRequestUri.ts&#45;&gt;errors.ts</title>
<path fill="none" stroke="#757575" d="M2189.53,-643.24C2202.97,-638.92 2215.76,-632.85 2227,-624.5 2280.41,-584.81 2298.66,-501.89 2304.48,-462.36"/>
<polygon fill="#757575" stroke="#757575" points="2307.95,-462.81 2305.81,-452.44 2301.01,-461.88 2307.95,-462.81"/>
</g>
<!-- statements/validations/validateResourceOwner.ts&#45;&gt;resources.ts -->
<g id="edge103" class="edge">
<title>statements/validations/validateResourceOwner.ts&#45;&gt;resources.ts</title>
<path fill="none" stroke="#757575" d="M2204.87,-485.89C2212.89,-490.03 2220.36,-495.17 2227,-501.5 2263.63,-536.46 2254.16,-676.64 2263,-726.5 2276.33,-801.69 2294.27,-890.52 2302.51,-930.75"/>
<polygon fill="#757575" stroke="#757575" points="2299.13,-931.67 2304.57,-940.76 2305.99,-930.26 2299.13,-931.67"/>
</g>
<!-- statements/validations/validateResourceOwner.ts&#45;&gt;errors.ts -->
<g id="edge102" class="edge">
<title>statements/validations/validateResourceOwner.ts&#45;&gt;errors.ts</title>
<path fill="none" stroke="#757575" d="M2165.18,-469.96C2185.84,-467.29 2207.11,-464.15 2227,-460.5 2239.43,-458.22 2252.8,-455.14 2264.99,-452.07"/>
<polygon fill="#757575" stroke="#757575" points="2266.09,-455.4 2274.9,-449.52 2264.34,-448.62 2266.09,-455.4"/>
</g>
<!-- statements/validations/validateScope.ts&#45;&gt;resources.ts -->
<g id="edge105" class="edge">
<title>statements/validations/validateScope.ts&#45;&gt;resources.ts</title>
<path fill="none" stroke="#757575" d="M2175.35,-599.5C2194.33,-603.9 2212.41,-611.66 2227,-624.5 2250.6,-645.27 2290.82,-861.56 2303.24,-931.1"/>
<polygon fill="#757575" stroke="#757575" points="2299.79,-931.71 2304.99,-940.94 2306.69,-930.49 2299.79,-931.71"/>
</g>
<!-- statements/validations/validateScope.ts&#45;&gt;errors.ts -->
<g id="edge104" class="edge">
<title>statements/validations/validateScope.ts&#45;&gt;errors.ts</title>
<path fill="none" stroke="#757575" d="M2175.41,-604.56C2193.75,-600.43 2211.61,-593.79 2227,-583.5 2270.14,-554.67 2292.42,-494.34 2301.66,-462.02"/>
<polygon fill="#757575" stroke="#757575" points="2305.08,-462.79 2304.31,-452.22 2298.32,-460.97 2305.08,-462.79"/>
</g>
</g>
</svg>
