<?xml version="1.0" encoding="UTF-8" standalone="no"?>
<!DOCTYPE svg PUBLIC "-//W3C//DTD SVG 1.1//EN"
 "http://www.w3.org/Graphics/SVG/1.1/DTD/svg11.dtd">
<!-- Generated by graphviz version 2.43.0 (0)
 -->
<!-- Title: G Pages: 1 -->
<svg width="2402pt" height="1575pt"
 viewBox="0.00 0.00 2402.20 1574.96" xmlns="http://www.w3.org/2000/svg" xmlns:xlink="http://www.w3.org/1999/xlink">
<g id="graph0" class="graph" transform="scale(1 1) rotate(0) translate(21.6 1553.36)">
<title>G</title>
<polygon fill="#111111" stroke="transparent" points="-21.6,21.6 -21.6,-1553.36 2380.6,-1553.36 2380.6,21.6 -21.6,21.6"/>
<!-- config.ts -->
<g id="node1" class="node">
<title>config.ts</title>
<path fill="none" stroke="#c6c5fe" d="M1393.83,-1298C1393.83,-1298 1342.17,-1298 1342.17,-1298 1338.33,-1298 1334.5,-1294.17 1334.5,-1290.33 1334.5,-1290.33 1334.5,-1282.67 1334.5,-1282.67 1334.5,-1278.83 1338.33,-1275 1342.17,-1275 1342.17,-1275 1393.83,-1275 1393.83,-1275 1397.67,-1275 1401.5,-1278.83 1401.5,-1282.67 1401.5,-1282.67 1401.5,-1290.33 1401.5,-1290.33 1401.5,-1294.17 1397.67,-1298 1393.83,-1298"/>
<text text-anchor="middle" x="1368" y="-1282.8" font-family="Arial" font-size="14.00" fill="#c6c5fe">config.ts</text>
</g>
<!-- resources.ts -->
<g id="node2" class="node">
<title>resources.ts</title>
<path fill="none" stroke="#cfffac" d="M2351.33,-961C2351.33,-961 2276.67,-961 2276.67,-961 2272.83,-961 2269,-957.17 2269,-953.33 2269,-953.33 2269,-945.67 2269,-945.67 2269,-941.83 2272.83,-938 2276.67,-938 2276.67,-938 2351.33,-938 2351.33,-938 2355.17,-938 2359,-941.83 2359,-945.67 2359,-945.67 2359,-953.33 2359,-953.33 2359,-957.17 2355.17,-961 2351.33,-961"/>
<text text-anchor="middle" x="2314" y="-945.8" font-family="Arial" font-size="14.00" fill="#cfffac">resources.ts</text>
</g>
<!-- config.ts&#45;&gt;resources.ts -->
<g id="edge1" class="edge">
<title>config.ts&#45;&gt;resources.ts</title>
<path fill="none" stroke="#757575" d="M1401.54,-1289.51C1550.98,-1303.01 2167.14,-1355.11 2233,-1302.5 2285.56,-1260.52 2306.16,-1041.89 2311.5,-971.42"/>
<polygon fill="#757575" stroke="#757575" points="2315.01,-971.31 2312.25,-961.08 2308.03,-970.8 2315.01,-971.31"/>
</g>
<!-- constants.ts -->
<g id="node3" class="node">
<title>constants.ts</title>
<path fill="none" stroke="#cfffac" d="M2350.83,-717C2350.83,-717 2277.17,-717 2277.17,-717 2273.33,-717 2269.5,-713.17 2269.5,-709.33 2269.5,-709.33 2269.5,-701.67 2269.5,-701.67 2269.5,-697.83 2273.33,-694 2277.17,-694 2277.17,-694 2350.83,-694 2350.83,-694 2354.67,-694 2358.5,-697.83 2358.5,-701.67 2358.5,-701.67 2358.5,-709.33 2358.5,-709.33 2358.5,-713.17 2354.67,-717 2350.83,-717"/>
<text text-anchor="middle" x="2314" y="-701.8" font-family="Arial" font-size="14.00" fill="#cfffac">constants.ts</text>
</g>
<!-- core.ts -->
<g id="node4" class="node">
<title>core.ts</title>
<path fill="none" stroke="#c6c5fe" d="M148.33,-1296C148.33,-1296 106.67,-1296 106.67,-1296 102.83,-1296 99,-1292.17 99,-1288.33 99,-1288.33 99,-1280.67 99,-1280.67 99,-1276.83 102.83,-1273 106.67,-1273 106.67,-1273 148.33,-1273 148.33,-1273 152.17,-1273 156,-1276.83 156,-1280.67 156,-1280.67 156,-1288.33 156,-1288.33 156,-1292.17 152.17,-1296 148.33,-1296"/>
<text text-anchor="middle" x="127.5" y="-1280.8" font-family="Arial" font-size="14.00" fill="#c6c5fe">core.ts</text>
</g>
<!-- core.ts&#45;&gt;config.ts -->
<g id="edge2" class="edge">
<title>core.ts&#45;&gt;config.ts</title>
<path fill="none" stroke="#757575" d="M156.1,-1284.54C316.44,-1284.8 1127.62,-1286.11 1324.1,-1286.43"/>
<polygon fill="#757575" stroke="#757575" points="1324.31,-1289.93 1334.31,-1286.45 1324.32,-1282.93 1324.31,-1289.93"/>
</g>
<!-- handlers/index.ts -->
<g id="node5" class="node">
<title>handlers/index.ts</title>
<path fill="none" stroke="#c6c5fe" d="M303.33,-1161C303.33,-1161 199.67,-1161 199.67,-1161 195.83,-1161 192,-1157.17 192,-1153.33 192,-1153.33 192,-1145.67 192,-1145.67 192,-1141.83 195.83,-1138 199.67,-1138 199.67,-1138 303.33,-1138 303.33,-1138 307.17,-1138 311,-1141.83 311,-1145.67 311,-1145.67 311,-1153.33 311,-1153.33 311,-1157.17 307.17,-1161 303.33,-1161"/>
<text text-anchor="middle" x="251.5" y="-1145.8" font-family="Arial" font-size="14.00" fill="#c6c5fe">handlers/index.ts</text>
</g>
<!-- core.ts&#45;&gt;handlers/index.ts -->
<g id="edge3" class="edge">
<title>core.ts&#45;&gt;handlers/index.ts</title>
<path fill="none" stroke="#757575" d="M138.9,-1272.99C159.78,-1249.89 206.97,-1197.66 232.8,-1169.09"/>
<polygon fill="#757575" stroke="#757575" points="235.67,-1171.13 239.78,-1161.37 230.48,-1166.44 235.67,-1171.13"/>
</g>
<!-- handlers/authorize.handler.ts -->
<g id="node7" class="node">
<title>handlers/authorize.handler.ts</title>
<path fill="none" stroke="#c6c5fe" d="M973.83,-1376C973.83,-1376 799.17,-1376 799.17,-1376 795.33,-1376 791.5,-1372.17 791.5,-1368.33 791.5,-1368.33 791.5,-1360.67 791.5,-1360.67 791.5,-1356.83 795.33,-1353 799.17,-1353 799.17,-1353 973.83,-1353 973.83,-1353 977.67,-1353 981.5,-1356.83 981.5,-1360.67 981.5,-1360.67 981.5,-1368.33 981.5,-1368.33 981.5,-1372.17 977.67,-1376 973.83,-1376"/>
<text text-anchor="middle" x="886.5" y="-1360.8" font-family="Arial" font-size="14.00" fill="#c6c5fe">handlers/authorize.handler.ts</text>
</g>
<!-- handlers/index.ts&#45;&gt;handlers/authorize.handler.ts -->
<g id="edge19" class="edge">
<title>handlers/index.ts&#45;&gt;handlers/authorize.handler.ts</title>
<path fill="none" stroke="#757575" d="M274.81,-1161.13C293.59,-1170.43 321.4,-1183.11 347,-1190.5 470.56,-1226.16 514.89,-1183.61 633,-1234.5 651.62,-1242.52 651.73,-1251.89 669,-1262.5 728.05,-1298.76 802.04,-1331.06 846.44,-1349.18"/>
<polygon fill="#757575" stroke="#757575" points="845.14,-1352.42 855.72,-1352.93 847.77,-1345.93 845.14,-1352.42"/>
</g>
<!-- handlers/credential.handler.ts -->
<g id="node10" class="node">
<title>handlers/credential.handler.ts</title>
<path fill="none" stroke="#c6c5fe" d="M975.33,-1099C975.33,-1099 797.67,-1099 797.67,-1099 793.83,-1099 790,-1095.17 790,-1091.33 790,-1091.33 790,-1083.67 790,-1083.67 790,-1079.83 793.83,-1076 797.67,-1076 797.67,-1076 975.33,-1076 975.33,-1076 979.17,-1076 983,-1079.83 983,-1083.67 983,-1083.67 983,-1091.33 983,-1091.33 983,-1095.17 979.17,-1099 975.33,-1099"/>
<text text-anchor="middle" x="886.5" y="-1083.8" font-family="Arial" font-size="14.00" fill="#c6c5fe">handlers/credential.handler.ts</text>
</g>
<!-- handlers/index.ts&#45;&gt;handlers/credential.handler.ts -->
<g id="edge20" class="edge">
<title>handlers/index.ts&#45;&gt;handlers/credential.handler.ts</title>
<path fill="none" stroke="#757575" d="M311.12,-1138.8C322.97,-1136.86 335.36,-1134.98 347,-1133.5 496.84,-1114.45 671.16,-1101.17 779.93,-1093.93"/>
<polygon fill="#757575" stroke="#757575" points="780.17,-1097.43 789.92,-1093.27 779.71,-1090.44 780.17,-1097.43"/>
</g>
<!-- handlers/credentialOffer.handler.ts -->
<g id="node12" class="node">
<title>handlers/credentialOffer.handler.ts</title>
<path fill="none" stroke="#c6c5fe" d="M990.33,-1140C990.33,-1140 782.67,-1140 782.67,-1140 778.83,-1140 775,-1136.17 775,-1132.33 775,-1132.33 775,-1124.67 775,-1124.67 775,-1120.83 778.83,-1117 782.67,-1117 782.67,-1117 990.33,-1117 990.33,-1117 994.17,-1117 998,-1120.83 998,-1124.67 998,-1124.67 998,-1132.33 998,-1132.33 998,-1136.17 994.17,-1140 990.33,-1140"/>
<text text-anchor="middle" x="886.5" y="-1124.8" font-family="Arial" font-size="14.00" fill="#c6c5fe">handlers/credentialOffer.handler.ts</text>
</g>
<!-- handlers/index.ts&#45;&gt;handlers/credentialOffer.handler.ts -->
<g id="edge21" class="edge">
<title>handlers/index.ts&#45;&gt;handlers/credentialOffer.handler.ts</title>
<path fill="none" stroke="#757575" d="M311.2,-1147.55C414.13,-1144.14 629.13,-1137.01 764.89,-1132.5"/>
<polygon fill="#757575" stroke="#757575" points="765.05,-1136 774.93,-1132.17 764.82,-1129 765.05,-1136"/>
</g>
<!-- handlers/nonce.handler.ts -->
<g id="node14" class="node">
<title>handlers/nonce.handler.ts</title>
<path fill="none" stroke="#c6c5fe" d="M964.33,-1017C964.33,-1017 808.67,-1017 808.67,-1017 804.83,-1017 801,-1013.17 801,-1009.33 801,-1009.33 801,-1001.67 801,-1001.67 801,-997.83 804.83,-994 808.67,-994 808.67,-994 964.33,-994 964.33,-994 968.17,-994 972,-997.83 972,-1001.67 972,-1001.67 972,-1009.33 972,-1009.33 972,-1013.17 968.17,-1017 964.33,-1017"/>
<text text-anchor="middle" x="886.5" y="-1001.8" font-family="Arial" font-size="14.00" fill="#c6c5fe">handlers/nonce.handler.ts</text>
</g>
<!-- handlers/index.ts&#45;&gt;handlers/nonce.handler.ts -->
<g id="edge22" class="edge">
<title>handlers/index.ts&#45;&gt;handlers/nonce.handler.ts</title>
<path fill="none" stroke="#757575" d="M259.55,-1137.72C273.26,-1116.03 305.84,-1070.18 347,-1050.5 490.02,-982.12 678.85,-984.4 790.7,-993.86"/>
<polygon fill="#757575" stroke="#757575" points="790.68,-997.37 800.95,-994.76 791.3,-990.4 790.68,-997.37"/>
</g>
<!-- handlers/oauthAuthorizationServer.handler.ts -->
<g id="node15" class="node">
<title>handlers/oauthAuthorizationServer.handler.ts</title>
<path fill="none" stroke="#c6c5fe" d="M625.33,-1182C625.33,-1182 354.67,-1182 354.67,-1182 350.83,-1182 347,-1178.17 347,-1174.33 347,-1174.33 347,-1166.67 347,-1166.67 347,-1162.83 350.83,-1159 354.67,-1159 354.67,-1159 625.33,-1159 625.33,-1159 629.17,-1159 633,-1162.83 633,-1166.67 633,-1166.67 633,-1174.33 633,-1174.33 633,-1178.17 629.17,-1182 625.33,-1182"/>
<text text-anchor="middle" x="490" y="-1166.8" font-family="Arial" font-size="14.00" fill="#c6c5fe">handlers/oauthAuthorizationServer.handler.ts</text>
</g>
<!-- handlers/index.ts&#45;&gt;handlers/oauthAuthorizationServer.handler.ts -->
<g id="edge23" class="edge">
<title>handlers/index.ts&#45;&gt;handlers/oauthAuthorizationServer.handler.ts</title>
<path fill="none" stroke="#757575" d="M311.26,-1154.72C323.04,-1155.76 335.88,-1156.9 349.09,-1158.08"/>
<polygon fill="#757575" stroke="#757575" points="348.98,-1161.58 359.25,-1158.98 349.6,-1154.61 348.98,-1161.58"/>
</g>
<!-- handlers/openidCredentialIssuer.handler.ts -->
<g id="node16" class="node">
<title>handlers/openidCredentialIssuer.handler.ts</title>
<path fill="none" stroke="#c6c5fe" d="M1014.83,-1437C1014.83,-1437 758.17,-1437 758.17,-1437 754.33,-1437 750.5,-1433.17 750.5,-1429.33 750.5,-1429.33 750.5,-1421.67 750.5,-1421.67 750.5,-1417.83 754.33,-1414 758.17,-1414 758.17,-1414 1014.83,-1414 1014.83,-1414 1018.67,-1414 1022.5,-1417.83 1022.5,-1421.67 1022.5,-1421.67 1022.5,-1429.33 1022.5,-1429.33 1022.5,-1433.17 1018.67,-1437 1014.83,-1437"/>
<text text-anchor="middle" x="886.5" y="-1421.8" font-family="Arial" font-size="14.00" fill="#c6c5fe">handlers/openidCredentialIssuer.handler.ts</text>
</g>
<!-- handlers/index.ts&#45;&gt;handlers/openidCredentialIssuer.handler.ts -->
<g id="edge24" class="edge">
<title>handlers/index.ts&#45;&gt;handlers/openidCredentialIssuer.handler.ts</title>
<path fill="none" stroke="#757575" d="M264.94,-1161.19C282.38,-1177.19 315.49,-1206.25 347,-1226.5 481.27,-1312.79 517.53,-1335.19 669,-1385.5 704.98,-1397.45 745.57,-1406.14 781.8,-1412.31"/>
<polygon fill="#757575" stroke="#757575" points="781.46,-1415.8 791.9,-1413.98 782.61,-1408.9 781.46,-1415.8"/>
</g>
<!-- handlers/pushedAuthorizationRequest.handler.ts -->
<g id="node17" class="node">
<title>handlers/pushedAuthorizationRequest.handler.ts</title>
<path fill="none" stroke="#c6c5fe" d="M1032.83,-1058C1032.83,-1058 740.17,-1058 740.17,-1058 736.33,-1058 732.5,-1054.17 732.5,-1050.33 732.5,-1050.33 732.5,-1042.67 732.5,-1042.67 732.5,-1038.83 736.33,-1035 740.17,-1035 740.17,-1035 1032.83,-1035 1032.83,-1035 1036.67,-1035 1040.5,-1038.83 1040.5,-1042.67 1040.5,-1042.67 1040.5,-1050.33 1040.5,-1050.33 1040.5,-1054.17 1036.67,-1058 1032.83,-1058"/>
<text text-anchor="middle" x="886.5" y="-1042.8" font-family="Arial" font-size="14.00" fill="#c6c5fe">handlers/pushedAuthorizationRequest.handler.ts</text>
</g>
<!-- handlers/index.ts&#45;&gt;handlers/pushedAuthorizationRequest.handler.ts -->
<g id="edge25" class="edge">
<title>handlers/index.ts&#45;&gt;handlers/pushedAuthorizationRequest.handler.ts</title>
<path fill="none" stroke="#757575" d="M270.5,-1137.85C288.92,-1126.55 318.78,-1109.89 347,-1101.5 469.51,-1065.06 613.83,-1051.81 722.22,-1047.4"/>
<polygon fill="#757575" stroke="#757575" points="722.41,-1050.9 732.26,-1047.02 722.14,-1043.91 722.41,-1050.9"/>
</g>
<!-- handlers/token.handler.ts -->
<g id="node18" class="node">
<title>handlers/token.handler.ts</title>
<path fill="none" stroke="#c6c5fe" d="M565.83,-801C565.83,-801 414.17,-801 414.17,-801 410.33,-801 406.5,-797.17 406.5,-793.33 406.5,-793.33 406.5,-785.67 406.5,-785.67 406.5,-781.83 410.33,-778 414.17,-778 414.17,-778 565.83,-778 565.83,-778 569.67,-778 573.5,-781.83 573.5,-785.67 573.5,-785.67 573.5,-793.33 573.5,-793.33 573.5,-797.17 569.67,-801 565.83,-801"/>
<text text-anchor="middle" x="490" y="-785.8" font-family="Arial" font-size="14.00" fill="#c6c5fe">handlers/token.handler.ts</text>
</g>
<!-- handlers/index.ts&#45;&gt;handlers/token.handler.ts -->
<g id="edge26" class="edge">
<title>handlers/index.ts&#45;&gt;handlers/token.handler.ts</title>
<path fill="none" stroke="#757575" d="M259.11,-1137.91C274.16,-1111.67 312.34,-1045.86 347,-992.5 391.5,-924.01 448.12,-845.42 474.39,-809.41"/>
<polygon fill="#757575" stroke="#757575" points="477.31,-811.34 480.39,-801.2 471.66,-807.21 477.31,-811.34"/>
</g>
<!-- errors.ts -->
<g id="node6" class="node">
<title>errors.ts</title>
<path fill="none" stroke="#cfffac" d="M2339.33,-431C2339.33,-431 2288.67,-431 2288.67,-431 2284.83,-431 2281,-427.17 2281,-423.33 2281,-423.33 2281,-415.67 2281,-415.67 2281,-411.83 2284.83,-408 2288.67,-408 2288.67,-408 2339.33,-408 2339.33,-408 2343.17,-408 2347,-411.83 2347,-415.67 2347,-415.67 2347,-423.33 2347,-423.33 2347,-427.17 2343.17,-431 2339.33,-431"/>
<text text-anchor="middle" x="2314" y="-415.8" font-family="Arial" font-size="14.00" fill="#cfffac">errors.ts</text>
</g>
<!-- handlers/authorize.handler.ts&#45;&gt;config.ts -->
<g id="edge4" class="edge">
<title>handlers/authorize.handler.ts&#45;&gt;config.ts</title>
<path fill="none" stroke="#757575" d="M981.66,-1363.48C1020.61,-1360.46 1065.57,-1353.52 1104,-1338.5 1122.38,-1331.32 1121.6,-1319.63 1140,-1312.5 1200.86,-1288.91 1277.27,-1284.9 1324.1,-1285.05"/>
<polygon fill="#757575" stroke="#757575" points="1324.16,-1288.55 1334.19,-1285.15 1324.23,-1281.55 1324.16,-1288.55"/>
</g>
<!-- handlers/authorize.handler.ts&#45;&gt;resources.ts -->
<g id="edge7" class="edge">
<title>handlers/authorize.handler.ts&#45;&gt;resources.ts</title>
<path fill="none" stroke="#757575" d="M981.56,-1368.5C1271.47,-1379.94 2137.53,-1407.08 2233,-1327.5 2288.51,-1281.23 2307.25,-1045.06 2311.79,-971.44"/>
<polygon fill="#757575" stroke="#757575" points="2315.31,-971.27 2312.4,-961.08 2308.32,-970.85 2315.31,-971.27"/>
</g>
<!-- handlers/authorize.handler.ts&#45;&gt;errors.ts -->
<g id="edge5" class="edge">
<title>handlers/authorize.handler.ts&#45;&gt;errors.ts</title>
<path fill="none" stroke="#757575" d="M981.53,-1363.7C1164.49,-1361.19 1554.15,-1350.77 1596,-1307.5 1655.24,-1246.26 1588.74,-614.91 1632,-541.5 1685.29,-451.07 1763.94,-496.54 1833,-417.5 1858.92,-387.83 1835.97,-357.97 1869,-336.5 1936.82,-292.42 2158.56,-304.86 2233,-336.5 2262.87,-349.2 2287,-379.11 2300.67,-399.34"/>
<polygon fill="#757575" stroke="#757575" points="2297.82,-401.37 2306.2,-407.85 2303.69,-397.56 2297.82,-401.37"/>
</g>
<!-- handlers/schemas/authorizeHandlerConfig.schema.ts -->
<g id="node8" class="node">
<title>handlers/schemas/authorizeHandlerConfig.schema.ts</title>
<path fill="none" stroke="#cfffac" d="M1529.33,-1416C1529.33,-1416 1206.67,-1416 1206.67,-1416 1202.83,-1416 1199,-1412.17 1199,-1408.33 1199,-1408.33 1199,-1400.67 1199,-1400.67 1199,-1396.83 1202.83,-1393 1206.67,-1393 1206.67,-1393 1529.33,-1393 1529.33,-1393 1533.17,-1393 1537,-1396.83 1537,-1400.67 1537,-1400.67 1537,-1408.33 1537,-1408.33 1537,-1412.17 1533.17,-1416 1529.33,-1416"/>
<text text-anchor="middle" x="1368" y="-1400.8" font-family="Arial" font-size="14.00" fill="#cfffac">handlers/schemas/authorizeHandlerConfig.schema.ts</text>
</g>
<!-- handlers/authorize.handler.ts&#45;&gt;handlers/schemas/authorizeHandlerConfig.schema.ts -->
<g id="edge6" class="edge">
<title>handlers/authorize.handler.ts&#45;&gt;handlers/schemas/authorizeHandlerConfig.schema.ts</title>
<path fill="none" stroke="#757575" d="M981.66,-1372.35C1049.14,-1377.98 1141.37,-1385.68 1218.68,-1392.13"/>
<polygon fill="#757575" stroke="#757575" points="1218.75,-1395.64 1229,-1392.99 1219.33,-1388.67 1218.75,-1395.64"/>
</g>
<!-- statements/index.ts -->
<g id="node9" class="node">
<title>statements/index.ts</title>
<path fill="none" stroke="#c6c5fe" d="M1427.33,-1058C1427.33,-1058 1308.67,-1058 1308.67,-1058 1304.83,-1058 1301,-1054.17 1301,-1050.33 1301,-1050.33 1301,-1042.67 1301,-1042.67 1301,-1038.83 1304.83,-1035 1308.67,-1035 1308.67,-1035 1427.33,-1035 1427.33,-1035 1431.17,-1035 1435,-1038.83 1435,-1042.67 1435,-1042.67 1435,-1050.33 1435,-1050.33 1435,-1054.17 1431.17,-1058 1427.33,-1058"/>
<text text-anchor="middle" x="1368" y="-1042.8" font-family="Arial" font-size="14.00" fill="#c6c5fe">statements/index.ts</text>
</g>
<!-- handlers/authorize.handler.ts&#45;&gt;statements/index.ts -->
<g id="edge8" class="edge">
<title>handlers/authorize.handler.ts&#45;&gt;statements/index.ts</title>
<path fill="none" stroke="#757575" d="M919.49,-1352.98C966.9,-1334.27 1055.42,-1292.77 1104,-1228.5 1138.35,-1183.06 1099.11,-1145.16 1140,-1105.5 1179.84,-1066.86 1241.61,-1052.64 1290.66,-1047.79"/>
<polygon fill="#757575" stroke="#757575" points="1291.26,-1051.25 1300.92,-1046.89 1290.65,-1044.28 1291.26,-1051.25"/>
</g>
<!-- statements/grants/index.ts -->
<g id="node28" class="node">
<title>statements/grants/index.ts</title>
<path fill="none" stroke="#c6c5fe" d="M1812.33,-1121C1812.33,-1121 1652.67,-1121 1652.67,-1121 1648.83,-1121 1645,-1117.17 1645,-1113.33 1645,-1113.33 1645,-1105.67 1645,-1105.67 1645,-1101.83 1648.83,-1098 1652.67,-1098 1652.67,-1098 1812.33,-1098 1812.33,-1098 1816.17,-1098 1820,-1101.83 1820,-1105.67 1820,-1105.67 1820,-1113.33 1820,-1113.33 1820,-1117.17 1816.17,-1121 1812.33,-1121"/>
<text text-anchor="middle" x="1732.5" y="-1105.8" font-family="Arial" font-size="14.00" fill="#c6c5fe">statements/grants/index.ts</text>
</g>
<!-- statements/index.ts&#45;&gt;statements/grants/index.ts -->
<g id="edge58" class="edge">
<title>statements/index.ts&#45;&gt;statements/grants/index.ts</title>
<path fill="none" stroke="#757575" d="M1435.46,-1051.42C1480.93,-1055.45 1542.44,-1062.18 1596,-1072.5 1626.15,-1078.31 1659.42,-1087.35 1685.45,-1095.05"/>
<polygon fill="#757575" stroke="#757575" points="1684.47,-1098.41 1695.05,-1097.92 1686.47,-1091.7 1684.47,-1098.41"/>
</g>
<!-- statements/locations/index.ts -->
<g id="node29" class="node">
<title>statements/locations/index.ts</title>
<path fill="none" stroke="#c6c5fe" d="M1820.33,-841C1820.33,-841 1644.67,-841 1644.67,-841 1640.83,-841 1637,-837.17 1637,-833.33 1637,-833.33 1637,-825.67 1637,-825.67 1637,-821.83 1640.83,-818 1644.67,-818 1644.67,-818 1820.33,-818 1820.33,-818 1824.17,-818 1828,-821.83 1828,-825.67 1828,-825.67 1828,-833.33 1828,-833.33 1828,-837.17 1824.17,-841 1820.33,-841"/>
<text text-anchor="middle" x="1732.5" y="-825.8" font-family="Arial" font-size="14.00" fill="#c6c5fe">statements/locations/index.ts</text>
</g>
<!-- statements/index.ts&#45;&gt;statements/locations/index.ts -->
<g id="edge59" class="edge">
<title>statements/index.ts&#45;&gt;statements/locations/index.ts</title>
<path fill="none" stroke="#757575" d="M1435.11,-1052.68C1482.97,-1054.03 1547.51,-1049.17 1596,-1020.5 1663.93,-980.34 1706.75,-891.28 1723.48,-850.55"/>
<polygon fill="#757575" stroke="#757575" points="1726.8,-851.67 1727.26,-841.08 1720.3,-849.08 1726.8,-851.67"/>
</g>
<!-- statements/resources/index.ts -->
<g id="node30" class="node">
<title>statements/resources/index.ts</title>
<path fill="none" stroke="#c6c5fe" d="M1823.33,-1184C1823.33,-1184 1641.67,-1184 1641.67,-1184 1637.83,-1184 1634,-1180.17 1634,-1176.33 1634,-1176.33 1634,-1168.67 1634,-1168.67 1634,-1164.83 1637.83,-1161 1641.67,-1161 1641.67,-1161 1823.33,-1161 1823.33,-1161 1827.17,-1161 1831,-1164.83 1831,-1168.67 1831,-1168.67 1831,-1176.33 1831,-1176.33 1831,-1180.17 1827.17,-1184 1823.33,-1184"/>
<text text-anchor="middle" x="1732.5" y="-1168.8" font-family="Arial" font-size="14.00" fill="#c6c5fe">statements/resources/index.ts</text>
</g>
<!-- statements/index.ts&#45;&gt;statements/resources/index.ts -->
<g id="edge60" class="edge">
<title>statements/index.ts&#45;&gt;statements/resources/index.ts</title>
<path fill="none" stroke="#757575" d="M1435.07,-1039.57C1483.22,-1037.79 1548.13,-1042.44 1596,-1072.5 1621.37,-1088.44 1609.23,-1110.02 1632,-1129.5 1645.99,-1141.47 1663.81,-1150.56 1680.49,-1157.24"/>
<polygon fill="#757575" stroke="#757575" points="1679.56,-1160.63 1690.15,-1160.89 1682.04,-1154.08 1679.56,-1160.63"/>
</g>
<!-- statements/tokens/index.ts -->
<g id="node31" class="node">
<title>statements/tokens/index.ts</title>
<path fill="none" stroke="#c6c5fe" d="M1813.33,-1058C1813.33,-1058 1651.67,-1058 1651.67,-1058 1647.83,-1058 1644,-1054.17 1644,-1050.33 1644,-1050.33 1644,-1042.67 1644,-1042.67 1644,-1038.83 1647.83,-1035 1651.67,-1035 1651.67,-1035 1813.33,-1035 1813.33,-1035 1817.17,-1035 1821,-1038.83 1821,-1042.67 1821,-1042.67 1821,-1050.33 1821,-1050.33 1821,-1054.17 1817.17,-1058 1813.33,-1058"/>
<text text-anchor="middle" x="1732.5" y="-1042.8" font-family="Arial" font-size="14.00" fill="#c6c5fe">statements/tokens/index.ts</text>
</g>
<!-- statements/index.ts&#45;&gt;statements/tokens/index.ts -->
<g id="edge61" class="edge">
<title>statements/index.ts&#45;&gt;statements/tokens/index.ts</title>
<path fill="none" stroke="#757575" d="M1435.07,-1046.5C1490.49,-1046.5 1570.44,-1046.5 1633.35,-1046.5"/>
<polygon fill="#757575" stroke="#757575" points="1633.69,-1050 1643.69,-1046.5 1633.69,-1043 1633.69,-1050"/>
</g>
<!-- statements/validations/index.ts -->
<g id="node32" class="node">
<title>statements/validations/index.ts</title>
<path fill="none" stroke="#c6c5fe" d="M1825.33,-574C1825.33,-574 1639.67,-574 1639.67,-574 1635.83,-574 1632,-570.17 1632,-566.33 1632,-566.33 1632,-558.67 1632,-558.67 1632,-554.83 1635.83,-551 1639.67,-551 1639.67,-551 1825.33,-551 1825.33,-551 1829.17,-551 1833,-554.83 1833,-558.67 1833,-558.67 1833,-566.33 1833,-566.33 1833,-570.17 1829.17,-574 1825.33,-574"/>
<text text-anchor="middle" x="1732.5" y="-558.8" font-family="Arial" font-size="14.00" fill="#c6c5fe">statements/validations/index.ts</text>
</g>
<!-- statements/index.ts&#45;&gt;statements/validations/index.ts -->
<g id="edge62" class="edge">
<title>statements/index.ts&#45;&gt;statements/validations/index.ts</title>
<path fill="none" stroke="#757575" d="M1432.84,-1058.03C1483.7,-1063.27 1553.23,-1061.01 1596,-1020.5 1665.38,-954.78 1605.93,-900.45 1632,-808.5 1656.38,-722.51 1700.95,-625.57 1721.11,-583.67"/>
<polygon fill="#757575" stroke="#757575" points="1724.36,-584.98 1725.57,-574.46 1718.06,-581.93 1724.36,-584.98"/>
</g>
<!-- handlers/credential.handler.ts&#45;&gt;config.ts -->
<g id="edge9" class="edge">
<title>handlers/credential.handler.ts&#45;&gt;config.ts</title>
<path fill="none" stroke="#757575" d="M950.4,-1076C997.77,-1071.07 1061.6,-1072.89 1104,-1107.5 1146.81,-1142.44 1100.24,-1188.12 1140,-1226.5 1189.83,-1274.6 1273.52,-1285.28 1324.16,-1287.03"/>
<polygon fill="#757575" stroke="#757575" points="1324.36,-1290.53 1334.44,-1287.27 1324.53,-1283.53 1324.36,-1290.53"/>
</g>
<!-- handlers/credential.handler.ts&#45;&gt;resources.ts -->
<g id="edge12" class="edge">
<title>handlers/credential.handler.ts&#45;&gt;resources.ts</title>
<path fill="none" stroke="#757575" d="M983.18,-1081.69C1022.38,-1082.95 1067.11,-1089.28 1104,-1107.5 1125.15,-1117.95 1118.81,-1136.13 1140,-1146.5 1322.68,-1235.95 1410.97,-1101.02 1596,-1185.5 1616.3,-1194.77 1611.34,-1212.06 1632,-1220.5 1729.51,-1260.33 1763.67,-1221.28 1869,-1221.5 2030.78,-1221.84 2103.47,-1318.42 2233,-1221.5 2274.01,-1190.82 2301.21,-1030.3 2309.95,-971.29"/>
<polygon fill="#757575" stroke="#757575" points="2313.44,-971.61 2311.41,-961.21 2306.51,-970.6 2313.44,-971.61"/>
</g>
<!-- handlers/credential.handler.ts&#45;&gt;errors.ts -->
<g id="edge10" class="edge">
<title>handlers/credential.handler.ts&#45;&gt;errors.ts</title>
<path fill="none" stroke="#757575" d="M983.25,-1097.95C1023.69,-1097.64 1069.35,-1090.58 1104,-1066.5 1134.03,-1045.63 1109.96,-1013.37 1140,-992.5 1223.61,-934.42 1525.15,-1021.61 1596,-948.5 1682.01,-859.74 1565.29,-497.54 1632,-393.5 1696.62,-292.72 1752.94,-294.84 1869,-265.5 1947.42,-245.68 2163.87,-223.51 2233,-265.5 2280.87,-294.57 2301.4,-362.62 2309.06,-397.71"/>
<polygon fill="#757575" stroke="#757575" points="2305.69,-398.75 2311.11,-407.86 2312.56,-397.36 2305.69,-398.75"/>
</g>
<!-- handlers/credential.handler.ts&#45;&gt;statements/index.ts -->
<g id="edge13" class="edge">
<title>handlers/credential.handler.ts&#45;&gt;statements/index.ts</title>
<path fill="none" stroke="#757575" d="M983.09,-1079.33C1073.45,-1071.6 1207.25,-1060.16 1290.67,-1053.03"/>
<polygon fill="#757575" stroke="#757575" points="1291.17,-1056.5 1300.84,-1052.16 1290.58,-1049.52 1291.17,-1056.5"/>
</g>
<!-- handlers/schemas/credentialHandlerConfig.schema.ts -->
<g id="node11" class="node">
<title>handlers/schemas/credentialHandlerConfig.schema.ts</title>
<path fill="none" stroke="#cfffac" d="M1530.83,-1138C1530.83,-1138 1205.17,-1138 1205.17,-1138 1201.33,-1138 1197.5,-1134.17 1197.5,-1130.33 1197.5,-1130.33 1197.5,-1122.67 1197.5,-1122.67 1197.5,-1118.83 1201.33,-1115 1205.17,-1115 1205.17,-1115 1530.83,-1115 1530.83,-1115 1534.67,-1115 1538.5,-1118.83 1538.5,-1122.67 1538.5,-1122.67 1538.5,-1130.33 1538.5,-1130.33 1538.5,-1134.17 1534.67,-1138 1530.83,-1138"/>
<text text-anchor="middle" x="1368" y="-1122.8" font-family="Arial" font-size="14.00" fill="#cfffac">handlers/schemas/credentialHandlerConfig.schema.ts</text>
</g>
<!-- handlers/credential.handler.ts&#45;&gt;handlers/schemas/credentialHandlerConfig.schema.ts -->
<g id="edge11" class="edge">
<title>handlers/credential.handler.ts&#45;&gt;handlers/schemas/credentialHandlerConfig.schema.ts</title>
<path fill="none" stroke="#757575" d="M983.09,-1095.28C1049.38,-1100.67 1139.04,-1107.96 1215.05,-1114.14"/>
<polygon fill="#757575" stroke="#757575" points="1214.95,-1117.64 1225.2,-1114.97 1215.52,-1110.67 1214.95,-1117.64"/>
</g>
<!-- handlers/credentialOffer.handler.ts&#45;&gt;config.ts -->
<g id="edge14" class="edge">
<title>handlers/credentialOffer.handler.ts&#45;&gt;config.ts</title>
<path fill="none" stroke="#757575" d="M998.23,-1119.15C1035.33,-1121.52 1074.67,-1130.71 1104,-1154.5 1142.64,-1185.84 1101.27,-1229.26 1140,-1260.5 1192.17,-1302.58 1274.38,-1300.44 1324.23,-1294.12"/>
<polygon fill="#757575" stroke="#757575" points="1324.93,-1297.55 1334.36,-1292.72 1323.97,-1290.62 1324.93,-1297.55"/>
</g>
<!-- handlers/credentialOffer.handler.ts&#45;&gt;resources.ts -->
<g id="edge17" class="edge">
<title>handlers/credentialOffer.handler.ts&#45;&gt;resources.ts</title>
<path fill="none" stroke="#757575" d="M950.6,-1116.96C997.16,-1112.03 1059.84,-1113.28 1104,-1144.5 1136.5,-1167.48 1107.15,-1204.03 1140,-1226.5 1206.92,-1272.26 1787.95,-1255.78 1869,-1257.5 2030.74,-1260.94 2105.03,-1356.48 2233,-1257.5 2279.07,-1221.87 2303.52,-1036.01 2310.71,-971.55"/>
<polygon fill="#757575" stroke="#757575" points="2314.22,-971.62 2311.82,-961.31 2307.26,-970.87 2314.22,-971.62"/>
</g>
<!-- handlers/credentialOffer.handler.ts&#45;&gt;errors.ts -->
<g id="edge15" class="edge">
<title>handlers/credentialOffer.handler.ts&#45;&gt;errors.ts</title>
<path fill="none" stroke="#757575" d="M998.02,-1139.23C1034.68,-1137.5 1073.8,-1129.38 1104,-1107.5 1136.23,-1084.15 1107.68,-1048.74 1140,-1025.5 1222.6,-966.1 1524.83,-1057.21 1596,-984.5 1678.11,-900.61 1568.55,-556.26 1632,-457.5 1686.93,-372 1755.04,-413.69 1833,-348.5 1852.65,-332.07 1845.92,-314.6 1869,-303.5 1941.91,-268.46 2161.38,-265.89 2233,-303.5 2271.03,-323.47 2294.52,-370.61 2305.53,-398.26"/>
<polygon fill="#757575" stroke="#757575" points="2302.33,-399.69 2309.15,-407.8 2308.88,-397.21 2302.33,-399.69"/>
</g>
<!-- handlers/credentialOffer.handler.ts&#45;&gt;statements/index.ts -->
<g id="edge18" class="edge">
<title>handlers/credentialOffer.handler.ts&#45;&gt;statements/index.ts</title>
<path fill="none" stroke="#757575" d="M998,-1120.6C1032.11,-1117.41 1069.71,-1113.11 1104,-1107.5 1178.09,-1095.37 1262.43,-1074.54 1315.18,-1060.64"/>
<polygon fill="#757575" stroke="#757575" points="1316.21,-1063.99 1324.98,-1058.05 1314.41,-1057.22 1316.21,-1063.99"/>
</g>
<!-- handlers/schemas/credentialOfferHandlerConfig.schema.ts -->
<g id="node13" class="node">
<title>handlers/schemas/credentialOfferHandlerConfig.schema.ts</title>
<path fill="none" stroke="#cfffac" d="M1546.33,-1218C1546.33,-1218 1189.67,-1218 1189.67,-1218 1185.83,-1218 1182,-1214.17 1182,-1210.33 1182,-1210.33 1182,-1202.67 1182,-1202.67 1182,-1198.83 1185.83,-1195 1189.67,-1195 1189.67,-1195 1546.33,-1195 1546.33,-1195 1550.17,-1195 1554,-1198.83 1554,-1202.67 1554,-1202.67 1554,-1210.33 1554,-1210.33 1554,-1214.17 1550.17,-1218 1546.33,-1218"/>
<text text-anchor="middle" x="1368" y="-1202.8" font-family="Arial" font-size="14.00" fill="#cfffac">handlers/schemas/credentialOfferHandlerConfig.schema.ts</text>
</g>
<!-- handlers/credentialOffer.handler.ts&#45;&gt;handlers/schemas/credentialOfferHandlerConfig.schema.ts -->
<g id="edge16" class="edge">
<title>handlers/credentialOffer.handler.ts&#45;&gt;handlers/schemas/credentialOfferHandlerConfig.schema.ts</title>
<path fill="none" stroke="#757575" d="M998.05,-1131C1032.86,-1134.6 1070.86,-1141.55 1104,-1154.5 1122.38,-1161.68 1121.6,-1173.37 1140,-1180.5 1152.5,-1185.34 1165.66,-1189.36 1179.08,-1192.69"/>
<polygon fill="#757575" stroke="#757575" points="1178.36,-1196.12 1188.89,-1194.99 1179.95,-1189.3 1178.36,-1196.12"/>
</g>
<!-- handlers/nonce.handler.ts&#45;&gt;config.ts -->
<g id="edge27" class="edge">
<title>handlers/nonce.handler.ts&#45;&gt;config.ts</title>
<path fill="none" stroke="#757575" d="M941.41,-993.97C990.18,-986.95 1060.77,-985.8 1104,-1025.5 1170.85,-1086.89 1078.48,-1159.78 1140,-1226.5 1187.3,-1277.81 1272.86,-1287.33 1324.35,-1288"/>
<polygon fill="#757575" stroke="#757575" points="1324.48,-1291.5 1334.49,-1288.02 1324.5,-1284.5 1324.48,-1291.5"/>
</g>
<!-- handlers/nonce.handler.ts&#45;&gt;resources.ts -->
<g id="edge30" class="edge">
<title>handlers/nonce.handler.ts&#45;&gt;resources.ts</title>
<path fill="none" stroke="#757575" d="M972.24,-999.03C1013.96,-999.31 1063.81,-1005.02 1104,-1025.5 1125.61,-1036.51 1118.36,-1055.57 1140,-1066.5 1230.78,-1112.36 1513.93,-1045.43 1596,-1105.5 1629.77,-1130.22 1597.21,-1169.25 1632,-1192.5 1687.52,-1229.61 2178.9,-1231.65 2233,-1192.5 2305.27,-1140.2 2313.38,-1020.38 2313.52,-971.19"/>
<polygon fill="#757575" stroke="#757575" points="2317.02,-971.01 2313.44,-961.04 2310.02,-971.07 2317.02,-971.01"/>
</g>
<!-- handlers/nonce.handler.ts&#45;&gt;errors.ts -->
<g id="edge28" class="edge">
<title>handlers/nonce.handler.ts&#45;&gt;errors.ts</title>
<path fill="none" stroke="#757575" d="M903.85,-993.87C941.16,-966.98 1034.73,-897.58 1104,-829.5 1363.83,-574.13 1306.02,-365.17 1632,-202.5 1707.87,-164.64 2207.84,-171.61 2233,-189.5 2301.58,-238.26 2311.88,-350.24 2313.07,-397.65"/>
<polygon fill="#757575" stroke="#757575" points="2309.57,-397.79 2313.2,-407.74 2316.57,-397.7 2309.57,-397.79"/>
</g>
<!-- handlers/nonce.handler.ts&#45;&gt;statements/index.ts -->
<g id="edge31" class="edge">
<title>handlers/nonce.handler.ts&#45;&gt;statements/index.ts</title>
<path fill="none" stroke="#757575" d="M972.12,-1012.74C1062.38,-1020.45 1204.04,-1032.57 1290.89,-1039.99"/>
<polygon fill="#757575" stroke="#757575" points="1290.68,-1043.49 1300.95,-1040.85 1291.28,-1036.51 1290.68,-1043.49"/>
</g>
<!-- handlers/schemas/nonceHandlerConfig.schema.ts -->
<g id="node19" class="node">
<title>handlers/schemas/nonceHandlerConfig.schema.ts</title>
<path fill="none" stroke="#cfffac" d="M1520.33,-860C1520.33,-860 1215.67,-860 1215.67,-860 1211.83,-860 1208,-856.17 1208,-852.33 1208,-852.33 1208,-844.67 1208,-844.67 1208,-840.83 1211.83,-837 1215.67,-837 1215.67,-837 1520.33,-837 1520.33,-837 1524.17,-837 1528,-840.83 1528,-844.67 1528,-844.67 1528,-852.33 1528,-852.33 1528,-856.17 1524.17,-860 1520.33,-860"/>
<text text-anchor="middle" x="1368" y="-844.8" font-family="Arial" font-size="14.00" fill="#cfffac">handlers/schemas/nonceHandlerConfig.schema.ts</text>
</g>
<!-- handlers/nonce.handler.ts&#45;&gt;handlers/schemas/nonceHandlerConfig.schema.ts -->
<g id="edge29" class="edge">
<title>handlers/nonce.handler.ts&#45;&gt;handlers/schemas/nonceHandlerConfig.schema.ts</title>
<path fill="none" stroke="#757575" d="M904.31,-993.97C943.55,-967.71 1045.06,-903.48 1140,-874.5 1158.5,-868.85 1178.19,-864.41 1197.94,-860.93"/>
<polygon fill="#757575" stroke="#757575" points="1198.67,-864.35 1207.95,-859.24 1197.51,-857.45 1198.67,-864.35"/>
</g>
<!-- handlers/oauthAuthorizationServer.handler.ts&#45;&gt;config.ts -->
<g id="edge32" class="edge">
<title>handlers/oauthAuthorizationServer.handler.ts&#45;&gt;config.ts</title>
<path fill="none" stroke="#757575" d="M592.49,-1182.04C606.5,-1185.64 620.39,-1190.35 633,-1196.5 652.24,-1205.89 649.32,-1220.07 669,-1228.5 699.22,-1241.45 1176.71,-1273.92 1324.05,-1283.68"/>
<polygon fill="#757575" stroke="#757575" points="1323.86,-1287.18 1334.07,-1284.35 1324.32,-1280.19 1323.86,-1287.18"/>
</g>
<!-- handlers/schemas/oauthAuthorizationServerHandlerConfig.schema.ts -->
<g id="node20" class="node">
<title>handlers/schemas/oauthAuthorizationServerHandlerConfig.schema.ts</title>
<path fill="none" stroke="#cfffac" d="M1096.33,-1220C1096.33,-1220 676.67,-1220 676.67,-1220 672.83,-1220 669,-1216.17 669,-1212.33 669,-1212.33 669,-1204.67 669,-1204.67 669,-1200.83 672.83,-1197 676.67,-1197 676.67,-1197 1096.33,-1197 1096.33,-1197 1100.17,-1197 1104,-1200.83 1104,-1204.67 1104,-1204.67 1104,-1212.33 1104,-1212.33 1104,-1216.17 1100.17,-1220 1096.33,-1220"/>
<text text-anchor="middle" x="886.5" y="-1204.8" font-family="Arial" font-size="14.00" fill="#cfffac">handlers/schemas/oauthAuthorizationServerHandlerConfig.schema.ts</text>
</g>
<!-- handlers/oauthAuthorizationServer.handler.ts&#45;&gt;handlers/schemas/oauthAuthorizationServerHandlerConfig.schema.ts -->
<g id="edge33" class="edge">
<title>handlers/oauthAuthorizationServer.handler.ts&#45;&gt;handlers/schemas/oauthAuthorizationServerHandlerConfig.schema.ts</title>
<path fill="none" stroke="#757575" d="M610.43,-1182C656.28,-1186.42 708.81,-1191.48 755.59,-1195.99"/>
<polygon fill="#757575" stroke="#757575" points="755.5,-1199.49 765.79,-1196.97 756.17,-1192.53 755.5,-1199.49"/>
</g>
<!-- handlers/openidCredentialIssuer.handler.ts&#45;&gt;config.ts -->
<g id="edge34" class="edge">
<title>handlers/openidCredentialIssuer.handler.ts&#45;&gt;config.ts</title>
<path fill="none" stroke="#757575" d="M968.73,-1414C1009.69,-1407.31 1059.9,-1397.77 1104,-1385.5 1187.5,-1362.27 1281.77,-1323.6 1331.64,-1302.11"/>
<polygon fill="#757575" stroke="#757575" points="1333.23,-1305.24 1341.01,-1298.05 1330.44,-1298.82 1333.23,-1305.24"/>
</g>
<!-- handlers/openidCredentialIssuer.handler.ts&#45;&gt;resources.ts -->
<g id="edge36" class="edge">
<title>handlers/openidCredentialIssuer.handler.ts&#45;&gt;resources.ts</title>
<path fill="none" stroke="#757575" d="M1022.64,-1429.15C1346.15,-1436.56 2144.87,-1446.45 2233,-1366.5 2292.32,-1312.68 2308.58,-1049.75 2312.14,-971.5"/>
<polygon fill="#757575" stroke="#757575" points="2315.64,-971.49 2312.57,-961.35 2308.65,-971.19 2315.64,-971.49"/>
</g>
<!-- handlers/schemas/openidCredentialIssuerHandlerConfig.schema.ts -->
<g id="node21" class="node">
<title>handlers/schemas/openidCredentialIssuerHandlerConfig.schema.ts</title>
<path fill="none" stroke="#cfffac" d="M1571.33,-1496C1571.33,-1496 1164.67,-1496 1164.67,-1496 1160.83,-1496 1157,-1492.17 1157,-1488.33 1157,-1488.33 1157,-1480.67 1157,-1480.67 1157,-1476.83 1160.83,-1473 1164.67,-1473 1164.67,-1473 1571.33,-1473 1571.33,-1473 1575.17,-1473 1579,-1476.83 1579,-1480.67 1579,-1480.67 1579,-1488.33 1579,-1488.33 1579,-1492.17 1575.17,-1496 1571.33,-1496"/>
<text text-anchor="middle" x="1368" y="-1480.8" font-family="Arial" font-size="14.00" fill="#cfffac">handlers/schemas/openidCredentialIssuerHandlerConfig.schema.ts</text>
</g>
<!-- handlers/openidCredentialIssuer.handler.ts&#45;&gt;handlers/schemas/openidCredentialIssuerHandlerConfig.schema.ts -->
<g id="edge35" class="edge">
<title>handlers/openidCredentialIssuer.handler.ts&#45;&gt;handlers/schemas/openidCredentialIssuerHandlerConfig.schema.ts</title>
<path fill="none" stroke="#757575" d="M973.07,-1437.03C1021.94,-1443.52 1084.38,-1451.68 1140,-1458.5 1176.8,-1463.01 1216.98,-1467.69 1253.18,-1471.82"/>
<polygon fill="#757575" stroke="#757575" points="1252.94,-1475.32 1263.28,-1472.97 1253.74,-1468.36 1252.94,-1475.32"/>
</g>
<!-- handlers/pushedAuthorizationRequest.handler.ts&#45;&gt;config.ts -->
<g id="edge37" class="edge">
<title>handlers/pushedAuthorizationRequest.handler.ts&#45;&gt;config.ts</title>
<path fill="none" stroke="#757575" d="M944.32,-1034.97C992.65,-1028.68 1060.9,-1028.63 1104,-1066.5 1158.76,-1114.61 1089.42,-1174.01 1140,-1226.5 1188.29,-1276.62 1273.14,-1286.57 1324.3,-1287.64"/>
<polygon fill="#757575" stroke="#757575" points="1324.34,-1291.15 1334.37,-1287.75 1324.41,-1284.15 1324.34,-1291.15"/>
</g>
<!-- handlers/pushedAuthorizationRequest.handler.ts&#45;&gt;errors.ts -->
<g id="edge38" class="edge">
<title>handlers/pushedAuthorizationRequest.handler.ts&#45;&gt;errors.ts</title>
<path fill="none" stroke="#757575" d="M954.37,-1058.01C1001.3,-1062.16 1062.79,-1059.22 1104,-1025.5 1146.44,-990.78 1097.37,-941.98 1140,-907.5 1219.08,-843.55 1525.06,-941.37 1596,-868.5 1691.5,-770.41 1537.69,-352.73 1632,-253.5 1697.15,-184.95 2195.81,-202.71 2233,-227.5 2291.21,-266.31 2307.13,-356.34 2311.44,-397.84"/>
<polygon fill="#757575" stroke="#757575" points="2307.96,-398.31 2312.35,-407.95 2314.93,-397.68 2307.96,-398.31"/>
</g>
<!-- handlers/pushedAuthorizationRequest.handler.ts&#45;&gt;statements/index.ts -->
<g id="edge40" class="edge">
<title>handlers/pushedAuthorizationRequest.handler.ts&#45;&gt;statements/index.ts</title>
<path fill="none" stroke="#757575" d="M1040.54,-1046.5C1123.96,-1046.5 1223.57,-1046.5 1290.64,-1046.5"/>
<polygon fill="#757575" stroke="#757575" points="1290.71,-1050 1300.71,-1046.5 1290.71,-1043 1290.71,-1050"/>
</g>
<!-- handlers/schemas/pushedAuthorizationRequestHandlerConfig.schema.ts -->
<g id="node22" class="node">
<title>handlers/schemas/pushedAuthorizationRequestHandlerConfig.schema.ts</title>
<path fill="none" stroke="#cfffac" d="M1588.33,-940C1588.33,-940 1147.67,-940 1147.67,-940 1143.83,-940 1140,-936.17 1140,-932.33 1140,-932.33 1140,-924.67 1140,-924.67 1140,-920.83 1143.83,-917 1147.67,-917 1147.67,-917 1588.33,-917 1588.33,-917 1592.17,-917 1596,-920.83 1596,-924.67 1596,-924.67 1596,-932.33 1596,-932.33 1596,-936.17 1592.17,-940 1588.33,-940"/>
<text text-anchor="middle" x="1368" y="-924.8" font-family="Arial" font-size="14.00" fill="#cfffac">handlers/schemas/pushedAuthorizationRequestHandlerConfig.schema.ts</text>
</g>
<!-- handlers/pushedAuthorizationRequest.handler.ts&#45;&gt;handlers/schemas/pushedAuthorizationRequestHandlerConfig.schema.ts -->
<g id="edge39" class="edge">
<title>handlers/pushedAuthorizationRequest.handler.ts&#45;&gt;handlers/schemas/pushedAuthorizationRequestHandlerConfig.schema.ts</title>
<path fill="none" stroke="#757575" d="M1040.71,-1050.95C1063.27,-1046.28 1085.21,-1038.33 1104,-1025.5 1133.22,-1005.55 1110.96,-974.7 1140,-954.5 1145.29,-950.82 1150.82,-947.5 1156.54,-944.52"/>
<polygon fill="#757575" stroke="#757575" points="1158.21,-947.6 1165.68,-940.09 1155.16,-941.3 1158.21,-947.6"/>
</g>
<!-- handlers/token.handler.ts&#45;&gt;config.ts -->
<g id="edge41" class="edge">
<title>handlers/token.handler.ts&#45;&gt;config.ts</title>
<path fill="none" stroke="#757575" d="M492.67,-801.14C500.74,-852.58 540.67,-1060.71 669,-1148.5 829.21,-1258.1 943.91,-1077.73 1104,-1187.5 1133.84,-1207.96 1110.42,-1239.68 1140,-1260.5 1194.51,-1298.87 1275.27,-1298.07 1324.33,-1292.99"/>
<polygon fill="#757575" stroke="#757575" points="1324.76,-1296.46 1334.3,-1291.85 1323.96,-1289.51 1324.76,-1296.46"/>
</g>
<!-- handlers/token.handler.ts&#45;&gt;errors.ts -->
<g id="edge42" class="edge">
<title>handlers/token.handler.ts&#45;&gt;errors.ts</title>
<path fill="none" stroke="#757575" d="M497.46,-777.8C540.67,-700.76 796.59,-263.92 1140,-83.5 1230.2,-36.11 1265.11,-51.5 1367,-51.5 1367,-51.5 1367,-51.5 1733.5,-51.5 1955.98,-51.5 2063,59.03 2233,-84.5 2281.59,-125.52 2304.66,-329.63 2311.08,-397.51"/>
<polygon fill="#757575" stroke="#757575" points="2307.63,-398.22 2312.03,-407.86 2314.6,-397.58 2307.63,-398.22"/>
</g>
<!-- handlers/schemas/tokenHandlerConfig.schema.ts -->
<g id="node23" class="node">
<title>handlers/schemas/tokenHandlerConfig.schema.ts</title>
<path fill="none" stroke="#cfffac" d="M1036.83,-23C1036.83,-23 736.17,-23 736.17,-23 732.33,-23 728.5,-19.17 728.5,-15.33 728.5,-15.33 728.5,-7.67 728.5,-7.67 728.5,-3.83 732.33,0 736.17,0 736.17,0 1036.83,0 1036.83,0 1040.67,0 1044.5,-3.83 1044.5,-7.67 1044.5,-7.67 1044.5,-15.33 1044.5,-15.33 1044.5,-19.17 1040.67,-23 1036.83,-23"/>
<text text-anchor="middle" x="886.5" y="-7.8" font-family="Arial" font-size="14.00" fill="#cfffac">handlers/schemas/tokenHandlerConfig.schema.ts</text>
</g>
<!-- handlers/token.handler.ts&#45;&gt;handlers/schemas/tokenHandlerConfig.schema.ts -->
<g id="edge43" class="edge">
<title>handlers/token.handler.ts&#45;&gt;handlers/schemas/tokenHandlerConfig.schema.ts</title>
<path fill="none" stroke="#757575" d="M491.97,-777.83C499.49,-690.74 551.17,-142.73 669,-37.5 683.31,-24.72 700.43,-15.99 718.7,-10.19"/>
<polygon fill="#757575" stroke="#757575" points="719.7,-13.54 728.35,-7.42 717.77,-6.82 719.7,-13.54"/>
</g>
<!-- handlers/token/authorizationCode.ts -->
<g id="node24" class="node">
<title>handlers/token/authorizationCode.ts</title>
<path fill="none" stroke="#c6c5fe" d="M995.33,-780C995.33,-780 777.67,-780 777.67,-780 773.83,-780 770,-776.17 770,-772.33 770,-772.33 770,-764.67 770,-764.67 770,-760.83 773.83,-757 777.67,-757 777.67,-757 995.33,-757 995.33,-757 999.17,-757 1003,-760.83 1003,-764.67 1003,-764.67 1003,-772.33 1003,-772.33 1003,-776.17 999.17,-780 995.33,-780"/>
<text text-anchor="middle" x="886.5" y="-764.8" font-family="Arial" font-size="14.00" fill="#c6c5fe">handlers/token/authorizationCode.ts</text>
</g>
<!-- handlers/token.handler.ts&#45;&gt;handlers/token/authorizationCode.ts -->
<g id="edge44" class="edge">
<title>handlers/token.handler.ts&#45;&gt;handlers/token/authorizationCode.ts</title>
<path fill="none" stroke="#757575" d="M573.7,-785.1C627.63,-782.23 699.05,-778.42 759.93,-775.18"/>
<polygon fill="#757575" stroke="#757575" points="760.19,-778.68 769.99,-774.65 759.82,-771.69 760.19,-778.68"/>
</g>
<!-- handlers/token/clientCredentials.ts -->
<g id="node25" class="node">
<title>handlers/token/clientCredentials.ts</title>
<path fill="none" stroke="#c6c5fe" d="M990.33,-821C990.33,-821 782.67,-821 782.67,-821 778.83,-821 775,-817.17 775,-813.33 775,-813.33 775,-805.67 775,-805.67 775,-801.83 778.83,-798 782.67,-798 782.67,-798 990.33,-798 990.33,-798 994.17,-798 998,-801.83 998,-805.67 998,-805.67 998,-813.33 998,-813.33 998,-817.17 994.17,-821 990.33,-821"/>
<text text-anchor="middle" x="886.5" y="-805.8" font-family="Arial" font-size="14.00" fill="#c6c5fe">handlers/token/clientCredentials.ts</text>
</g>
<!-- handlers/token.handler.ts&#45;&gt;handlers/token/clientCredentials.ts -->
<g id="edge45" class="edge">
<title>handlers/token.handler.ts&#45;&gt;handlers/token/clientCredentials.ts</title>
<path fill="none" stroke="#757575" d="M573.7,-793.69C629.03,-796.5 702.75,-800.24 764.62,-803.37"/>
<polygon fill="#757575" stroke="#757575" points="764.67,-806.88 774.84,-803.89 765.03,-799.89 764.67,-806.88"/>
</g>
<!-- handlers/token/authorizationCode.ts&#45;&gt;resources.ts -->
<g id="edge47" class="edge">
<title>handlers/token/authorizationCode.ts&#45;&gt;resources.ts</title>
<path fill="none" stroke="#757575" d="M933.95,-756.91C1052.98,-729.88 1375.1,-673.86 1596,-796.5 1620.9,-810.32 1608.71,-833.12 1632,-849.5 1720.96,-912.08 1761.8,-892.12 1869,-910.5 2008.29,-934.38 2174.81,-944.03 2258.82,-947.61"/>
<polygon fill="#757575" stroke="#757575" points="2258.76,-951.11 2268.89,-948.03 2259.05,-944.12 2258.76,-951.11"/>
</g>
<!-- handlers/token/authorizationCode.ts&#45;&gt;errors.ts -->
<g id="edge46" class="edge">
<title>handlers/token/authorizationCode.ts&#45;&gt;errors.ts</title>
<path fill="none" stroke="#757575" d="M887.59,-756.53C888.91,-681.44 906.87,-273.48 1140,-113.5 1190.07,-79.14 2184.94,-76.39 2233,-113.5 2278.82,-148.88 2303.43,-333.55 2310.69,-397.6"/>
<polygon fill="#757575" stroke="#757575" points="2307.23,-398.21 2311.81,-407.77 2314.19,-397.45 2307.23,-398.21"/>
</g>
<!-- handlers/token/authorizationCode.ts&#45;&gt;statements/index.ts -->
<g id="edge48" class="edge">
<title>handlers/token/authorizationCode.ts&#45;&gt;statements/index.ts</title>
<path fill="none" stroke="#757575" d="M944.32,-756.97C992.65,-750.68 1060.9,-750.63 1104,-788.5 1158.76,-836.61 1093.48,-892.39 1140,-948.5 1177.95,-994.27 1241.29,-1019.2 1291.43,-1032.44"/>
<polygon fill="#757575" stroke="#757575" points="1290.72,-1035.87 1301.28,-1034.94 1292.44,-1029.09 1290.72,-1035.87"/>
</g>
<!-- handlers/token/clientCredentials.ts&#45;&gt;resources.ts -->
<g id="edge50" class="edge">
<title>handlers/token/clientCredentials.ts&#45;&gt;resources.ts</title>
<path fill="none" stroke="#757575" d="M998.17,-805.33C1185.58,-799.3 1549.68,-792.37 1596,-827.5 1639.35,-860.38 1588.36,-912.02 1632,-944.5 1730.2,-1017.59 2115.09,-975.71 2258.63,-957.03"/>
<polygon fill="#757575" stroke="#757575" points="2259.49,-960.45 2268.95,-955.68 2258.58,-953.51 2259.49,-960.45"/>
</g>
<!-- handlers/token/clientCredentials.ts&#45;&gt;errors.ts -->
<g id="edge49" class="edge">
<title>handlers/token/clientCredentials.ts&#45;&gt;errors.ts</title>
<path fill="none" stroke="#757575" d="M936.95,-821.01C986.65,-829.33 1061.75,-832.48 1104,-788.5 1202.22,-686.25 1036.96,-248.89 1140,-151.5 1184.13,-109.79 2184.31,-115.22 2233,-151.5 2273.51,-181.68 2301.02,-339.87 2309.9,-398.02"/>
<polygon fill="#757575" stroke="#757575" points="2306.44,-398.59 2311.38,-407.96 2313.37,-397.55 2306.44,-398.59"/>
</g>
<!-- handlers/token/clientCredentials.ts&#45;&gt;statements/index.ts -->
<g id="edge51" class="edge">
<title>handlers/token/clientCredentials.ts&#45;&gt;statements/index.ts</title>
<path fill="none" stroke="#757575" d="M907.13,-821.15C949.15,-845.9 1051.24,-905.03 1140,-948.5 1205.01,-980.34 1282.87,-1012.75 1328.44,-1031.17"/>
<polygon fill="#757575" stroke="#757575" points="1327.35,-1034.5 1337.93,-1034.99 1329.96,-1028.01 1327.35,-1034.5"/>
</g>
<!-- index.ts -->
<g id="node26" class="node">
<title>index.ts</title>
<path fill="none" stroke="#c6c5fe" d="M55.33,-1316C55.33,-1316 7.67,-1316 7.67,-1316 3.83,-1316 0,-1312.17 0,-1308.33 0,-1308.33 0,-1300.67 0,-1300.67 0,-1296.83 3.83,-1293 7.67,-1293 7.67,-1293 55.33,-1293 55.33,-1293 59.17,-1293 63,-1296.83 63,-1300.67 63,-1300.67 63,-1308.33 63,-1308.33 63,-1312.17 59.17,-1316 55.33,-1316"/>
<text text-anchor="middle" x="31.5" y="-1300.8" font-family="Arial" font-size="14.00" fill="#c6c5fe">index.ts</text>
</g>
<!-- index.ts&#45;&gt;config.ts -->
<g id="edge52" class="edge">
<title>index.ts&#45;&gt;config.ts</title>
<path fill="none" stroke="#757575" d="M63.11,-1309.09C105.21,-1314.99 183.42,-1324.5 250.5,-1324.5 250.5,-1324.5 250.5,-1324.5 491,-1324.5 811.56,-1324.5 1197.48,-1298.79 1324.33,-1289.66"/>
<polygon fill="#757575" stroke="#757575" points="1324.69,-1293.15 1334.41,-1288.93 1324.18,-1286.17 1324.69,-1293.15"/>
</g>
<!-- index.ts&#45;&gt;resources.ts -->
<g id="edge55" class="edge">
<title>index.ts&#45;&gt;resources.ts</title>
<path fill="none" stroke="#757575" d="M37.07,-1316.02C55.89,-1361.29 131.94,-1524.5 250.5,-1524.5 250.5,-1524.5 250.5,-1524.5 1733.5,-1524.5 1961.31,-1524.5 2076.33,-1574.88 2233,-1409.5 2294.1,-1345.01 2309.22,-1053.73 2312.3,-971.3"/>
<polygon fill="#757575" stroke="#757575" points="2315.81,-971.21 2312.66,-961.1 2308.81,-970.97 2315.81,-971.21"/>
</g>
<!-- index.ts&#45;&gt;core.ts -->
<g id="edge53" class="edge">
<title>index.ts&#45;&gt;core.ts</title>
<path fill="none" stroke="#757575" d="M63.02,-1298.01C71.34,-1296.24 80.45,-1294.3 89.11,-1292.46"/>
<polygon fill="#757575" stroke="#757575" points="89.94,-1295.86 98.99,-1290.35 88.48,-1289.01 89.94,-1295.86"/>
</g>
<!-- index.ts&#45;&gt;handlers/index.ts -->
<g id="edge54" class="edge">
<title>index.ts&#45;&gt;handlers/index.ts</title>
<path fill="none" stroke="#757575" d="M48.89,-1292.85C86.85,-1265.85 181.03,-1198.89 225.93,-1166.97"/>
<polygon fill="#757575" stroke="#757575" points="228.1,-1169.72 234.22,-1161.07 224.04,-1164.02 228.1,-1169.72"/>
</g>
<!-- statements/grants/generateIssuerGrants.ts -->
<g id="node27" class="node">
<title>statements/grants/generateIssuerGrants.ts</title>
<path fill="none" stroke="#c6c5fe" d="M2180.33,-1143C2180.33,-1143 1921.67,-1143 1921.67,-1143 1917.83,-1143 1914,-1139.17 1914,-1135.33 1914,-1135.33 1914,-1127.67 1914,-1127.67 1914,-1123.83 1917.83,-1120 1921.67,-1120 1921.67,-1120 2180.33,-1120 2180.33,-1120 2184.17,-1120 2188,-1123.83 2188,-1127.67 2188,-1127.67 2188,-1135.33 2188,-1135.33 2188,-1139.17 2184.17,-1143 2180.33,-1143"/>
<text text-anchor="middle" x="2051" y="-1127.8" font-family="Arial" font-size="14.00" fill="#c6c5fe">statements/grants/generateIssuerGrants.ts</text>
</g>
<!-- statements/grants/generateIssuerGrants.ts&#45;&gt;resources.ts -->
<g id="edge56" class="edge">
<title>statements/grants/generateIssuerGrants.ts&#45;&gt;resources.ts</title>
<path fill="none" stroke="#757575" d="M2188.45,-1130.64C2204.38,-1126.32 2219.67,-1119.87 2233,-1110.5 2280.67,-1077 2301.36,-1006.74 2309.07,-971.15"/>
<polygon fill="#757575" stroke="#757575" points="2312.51,-971.79 2311.06,-961.3 2305.65,-970.4 2312.51,-971.79"/>
</g>
<!-- statements/grants/index.ts&#45;&gt;statements/grants/generateIssuerGrants.ts -->
<g id="edge57" class="edge">
<title>statements/grants/index.ts&#45;&gt;statements/grants/generateIssuerGrants.ts</title>
<path fill="none" stroke="#757575" d="M1820.4,-1115.54C1846.27,-1117.34 1875.35,-1119.36 1903.9,-1121.34"/>
<polygon fill="#757575" stroke="#757575" points="1903.75,-1124.84 1913.97,-1122.04 1904.24,-1117.86 1903.75,-1124.84"/>
</g>
<!-- statements/locations/authorizationCodeRedirection.ts -->
<g id="node33" class="node">
<title>statements/locations/authorizationCodeRedirection.ts</title>
<path fill="none" stroke="#c6c5fe" d="M2211.33,-902C2211.33,-902 1890.67,-902 1890.67,-902 1886.83,-902 1883,-898.17 1883,-894.33 1883,-894.33 1883,-886.67 1883,-886.67 1883,-882.83 1886.83,-879 1890.67,-879 1890.67,-879 2211.33,-879 2211.33,-879 2215.17,-879 2219,-882.83 2219,-886.67 2219,-886.67 2219,-894.33 2219,-894.33 2219,-898.17 2215.17,-902 2211.33,-902"/>
<text text-anchor="middle" x="2051" y="-886.8" font-family="Arial" font-size="14.00" fill="#c6c5fe">statements/locations/authorizationCodeRedirection.ts</text>
</g>
<!-- statements/locations/index.ts&#45;&gt;statements/locations/authorizationCodeRedirection.ts -->
<g id="edge68" class="edge">
<title>statements/locations/index.ts&#45;&gt;statements/locations/authorizationCodeRedirection.ts</title>
<path fill="none" stroke="#757575" d="M1766.79,-841.07C1793.97,-850.09 1833.55,-862.27 1869,-869.5 1884,-872.56 1899.8,-875.22 1915.56,-877.51"/>
<polygon fill="#757575" stroke="#757575" points="1915.51,-881.03 1925.9,-878.96 1916.48,-874.1 1915.51,-881.03"/>
</g>
<!-- statements/locations/generateAuthorizationRequestUri.ts -->
<g id="node34" class="node">
<title>statements/locations/generateAuthorizationRequestUri.ts</title>
<path fill="none" stroke="#c6c5fe" d="M2222.33,-779C2222.33,-779 1879.67,-779 1879.67,-779 1875.83,-779 1872,-775.17 1872,-771.33 1872,-771.33 1872,-763.67 1872,-763.67 1872,-759.83 1875.83,-756 1879.67,-756 1879.67,-756 2222.33,-756 2222.33,-756 2226.17,-756 2230,-759.83 2230,-763.67 2230,-763.67 2230,-771.33 2230,-771.33 2230,-775.17 2226.17,-779 2222.33,-779"/>
<text text-anchor="middle" x="2051" y="-763.8" font-family="Arial" font-size="14.00" fill="#c6c5fe">statements/locations/generateAuthorizationRequestUri.ts</text>
</g>
<!-- statements/locations/index.ts&#45;&gt;statements/locations/generateAuthorizationRequestUri.ts -->
<g id="edge69" class="edge">
<title>statements/locations/index.ts&#45;&gt;statements/locations/generateAuthorizationRequestUri.ts</title>
<path fill="none" stroke="#757575" d="M1764.81,-817.93C1791.99,-808.33 1832.59,-795.08 1869,-787.5 1881.7,-784.85 1894.98,-782.54 1908.33,-780.53"/>
<polygon fill="#757575" stroke="#757575" points="1909.15,-783.95 1918.54,-779.04 1908.14,-777.02 1909.15,-783.95"/>
</g>
<!-- statements/locations/generateCredentialOffer.ts -->
<g id="node35" class="node">
<title>statements/locations/generateCredentialOffer.ts</title>
<path fill="none" stroke="#c6c5fe" d="M2194.83,-738C2194.83,-738 1907.17,-738 1907.17,-738 1903.33,-738 1899.5,-734.17 1899.5,-730.33 1899.5,-730.33 1899.5,-722.67 1899.5,-722.67 1899.5,-718.83 1903.33,-715 1907.17,-715 1907.17,-715 2194.83,-715 2194.83,-715 2198.67,-715 2202.5,-718.83 2202.5,-722.67 2202.5,-722.67 2202.5,-730.33 2202.5,-730.33 2202.5,-734.17 2198.67,-738 2194.83,-738"/>
<text text-anchor="middle" x="2051" y="-722.8" font-family="Arial" font-size="14.00" fill="#c6c5fe">statements/locations/generateCredentialOffer.ts</text>
</g>
<!-- statements/locations/index.ts&#45;&gt;statements/locations/generateCredentialOffer.ts -->
<g id="edge70" class="edge">
<title>statements/locations/index.ts&#45;&gt;statements/locations/generateCredentialOffer.ts</title>
<path fill="none" stroke="#757575" d="M1747.84,-817.7C1771.45,-799.01 1820.72,-763.03 1869,-746.5 1875.53,-744.26 1882.27,-742.26 1889.12,-740.48"/>
<polygon fill="#757575" stroke="#757575" points="1890.35,-743.78 1899.24,-738.01 1888.69,-736.98 1890.35,-743.78"/>
</g>
<!-- statements/resources/issuerClient.ts -->
<g id="node36" class="node">
<title>statements/resources/issuerClient.ts</title>
<path fill="none" stroke="#c6c5fe" d="M2160.83,-1184C2160.83,-1184 1941.17,-1184 1941.17,-1184 1937.33,-1184 1933.5,-1180.17 1933.5,-1176.33 1933.5,-1176.33 1933.5,-1168.67 1933.5,-1168.67 1933.5,-1164.83 1937.33,-1161 1941.17,-1161 1941.17,-1161 2160.83,-1161 2160.83,-1161 2164.67,-1161 2168.5,-1164.83 2168.5,-1168.67 2168.5,-1168.67 2168.5,-1176.33 2168.5,-1176.33 2168.5,-1180.17 2164.67,-1184 2160.83,-1184"/>
<text text-anchor="middle" x="2051" y="-1168.8" font-family="Arial" font-size="14.00" fill="#c6c5fe">statements/resources/issuerClient.ts</text>
</g>
<!-- statements/resources/index.ts&#45;&gt;statements/resources/issuerClient.ts -->
<g id="edge71" class="edge">
<title>statements/resources/index.ts&#45;&gt;statements/resources/issuerClient.ts</title>
<path fill="none" stroke="#757575" d="M1831.04,-1172.5C1860.09,-1172.5 1892.35,-1172.5 1922.99,-1172.5"/>
<polygon fill="#757575" stroke="#757575" points="1923.31,-1176 1933.31,-1172.5 1923.31,-1169 1923.31,-1176"/>
</g>
<!-- statements/tokens/generateAccessToken.ts -->
<g id="node37" class="node">
<title>statements/tokens/generateAccessToken.ts</title>
<path fill="none" stroke="#c6c5fe" d="M2182.33,-1102C2182.33,-1102 1919.67,-1102 1919.67,-1102 1915.83,-1102 1912,-1098.17 1912,-1094.33 1912,-1094.33 1912,-1086.67 1912,-1086.67 1912,-1082.83 1915.83,-1079 1919.67,-1079 1919.67,-1079 2182.33,-1079 2182.33,-1079 2186.17,-1079 2190,-1082.83 2190,-1086.67 2190,-1086.67 2190,-1094.33 2190,-1094.33 2190,-1098.17 2186.17,-1102 2182.33,-1102"/>
<text text-anchor="middle" x="2051" y="-1086.8" font-family="Arial" font-size="14.00" fill="#c6c5fe">statements/tokens/generateAccessToken.ts</text>
</g>
<!-- statements/tokens/index.ts&#45;&gt;statements/tokens/generateAccessToken.ts -->
<g id="edge79" class="edge">
<title>statements/tokens/index.ts&#45;&gt;statements/tokens/generateAccessToken.ts</title>
<path fill="none" stroke="#757575" d="M1797.15,-1058.01C1819.79,-1061.92 1845.5,-1066.14 1869,-1069.5 1889.55,-1072.43 1911.45,-1075.24 1932.67,-1077.8"/>
<polygon fill="#757575" stroke="#757575" points="1932.34,-1081.28 1942.69,-1078.99 1933.17,-1074.33 1932.34,-1081.28"/>
</g>
<!-- statements/tokens/generateAuthorizationCode.ts -->
<g id="node38" class="node">
<title>statements/tokens/generateAuthorizationCode.ts</title>
<path fill="none" stroke="#c6c5fe" d="M2197.83,-861C2197.83,-861 1904.17,-861 1904.17,-861 1900.33,-861 1896.5,-857.17 1896.5,-853.33 1896.5,-853.33 1896.5,-845.67 1896.5,-845.67 1896.5,-841.83 1900.33,-838 1904.17,-838 1904.17,-838 2197.83,-838 2197.83,-838 2201.67,-838 2205.5,-841.83 2205.5,-845.67 2205.5,-845.67 2205.5,-853.33 2205.5,-853.33 2205.5,-857.17 2201.67,-861 2197.83,-861"/>
<text text-anchor="middle" x="2051" y="-845.8" font-family="Arial" font-size="14.00" fill="#c6c5fe">statements/tokens/generateAuthorizationCode.ts</text>
</g>
<!-- statements/tokens/index.ts&#45;&gt;statements/tokens/generateAuthorizationCode.ts -->
<g id="edge80" class="edge">
<title>statements/tokens/index.ts&#45;&gt;statements/tokens/generateAuthorizationCode.ts</title>
<path fill="none" stroke="#757575" d="M1738.4,-1034.81C1752.82,-1002.07 1798.56,-909.25 1869,-869.5 1874.6,-866.34 1880.46,-863.55 1886.49,-861.11"/>
<polygon fill="#757575" stroke="#757575" points="1887.95,-864.3 1896.1,-857.53 1885.51,-857.74 1887.95,-864.3"/>
</g>
<!-- statements/tokens/generateCNonce.ts -->
<g id="node39" class="node">
<title>statements/tokens/generateCNonce.ts</title>
<path fill="none" stroke="#c6c5fe" d="M2166.83,-1061C2166.83,-1061 1935.17,-1061 1935.17,-1061 1931.33,-1061 1927.5,-1057.17 1927.5,-1053.33 1927.5,-1053.33 1927.5,-1045.67 1927.5,-1045.67 1927.5,-1041.83 1931.33,-1038 1935.17,-1038 1935.17,-1038 2166.83,-1038 2166.83,-1038 2170.67,-1038 2174.5,-1041.83 2174.5,-1045.67 2174.5,-1045.67 2174.5,-1053.33 2174.5,-1053.33 2174.5,-1057.17 2170.67,-1061 2166.83,-1061"/>
<text text-anchor="middle" x="2051" y="-1045.8" font-family="Arial" font-size="14.00" fill="#c6c5fe">statements/tokens/generateCNonce.ts</text>
</g>
<!-- statements/tokens/index.ts&#45;&gt;statements/tokens/generateCNonce.ts -->
<g id="edge81" class="edge">
<title>statements/tokens/index.ts&#45;&gt;statements/tokens/generateCNonce.ts</title>
<path fill="none" stroke="#757575" d="M1821.24,-1047.33C1851,-1047.61 1884.94,-1047.94 1917.4,-1048.24"/>
<polygon fill="#757575" stroke="#757575" points="1917.39,-1051.74 1927.43,-1048.34 1917.46,-1044.74 1917.39,-1051.74"/>
</g>
<!-- statements/tokens/generateCredentials.ts -->
<g id="node40" class="node">
<title>statements/tokens/generateCredentials.ts</title>
<path fill="none" stroke="#c6c5fe" d="M2176.33,-1020C2176.33,-1020 1925.67,-1020 1925.67,-1020 1921.83,-1020 1918,-1016.17 1918,-1012.33 1918,-1012.33 1918,-1004.67 1918,-1004.67 1918,-1000.83 1921.83,-997 1925.67,-997 1925.67,-997 2176.33,-997 2176.33,-997 2180.17,-997 2184,-1000.83 2184,-1004.67 2184,-1004.67 2184,-1012.33 2184,-1012.33 2184,-1016.17 2180.17,-1020 2176.33,-1020"/>
<text text-anchor="middle" x="2051" y="-1004.8" font-family="Arial" font-size="14.00" fill="#c6c5fe">statements/tokens/generateCredentials.ts</text>
</g>
<!-- statements/tokens/index.ts&#45;&gt;statements/tokens/generateCredentials.ts -->
<g id="edge82" class="edge">
<title>statements/tokens/index.ts&#45;&gt;statements/tokens/generateCredentials.ts</title>
<path fill="none" stroke="#757575" d="M1818.03,-1034.98C1834.91,-1032.76 1852.51,-1030.51 1869,-1028.5 1889.46,-1026.01 1911.23,-1023.49 1932.32,-1021.12"/>
<polygon fill="#757575" stroke="#757575" points="1932.73,-1024.6 1942.28,-1020.01 1931.95,-1017.64 1932.73,-1024.6"/>
</g>
<!-- statements/validations/validateAccessToken.ts -->
<g id="node41" class="node">
<title>statements/validations/validateAccessToken.ts</title>
<path fill="none" stroke="#c6c5fe" d="M2190.83,-492C2190.83,-492 1911.17,-492 1911.17,-492 1907.33,-492 1903.5,-488.17 1903.5,-484.33 1903.5,-484.33 1903.5,-476.67 1903.5,-476.67 1903.5,-472.83 1907.33,-469 1911.17,-469 1911.17,-469 2190.83,-469 2190.83,-469 2194.67,-469 2198.5,-472.83 2198.5,-476.67 2198.5,-476.67 2198.5,-484.33 2198.5,-484.33 2198.5,-488.17 2194.67,-492 2190.83,-492"/>
<text text-anchor="middle" x="2051" y="-476.8" font-family="Arial" font-size="14.00" fill="#c6c5fe">statements/validations/validateAccessToken.ts</text>
</g>
<!-- statements/validations/index.ts&#45;&gt;statements/validations/validateAccessToken.ts -->
<g id="edge83" class="edge">
<title>statements/validations/index.ts&#45;&gt;statements/validations/validateAccessToken.ts</title>
<path fill="none" stroke="#757575" d="M1753.39,-550.93C1779.15,-536.54 1825.86,-512.42 1869,-500.5 1877.93,-498.03 1887.19,-495.87 1896.59,-493.97"/>
<polygon fill="#757575" stroke="#757575" points="1897.26,-497.4 1906.42,-492.08 1895.94,-490.53 1897.26,-497.4"/>
</g>
<!-- statements/validations/validateAuthorizationCode.ts -->
<g id="node42" class="node">
<title>statements/validations/validateAuthorizationCode.ts</title>
<path fill="none" stroke="#c6c5fe" d="M2206.33,-697C2206.33,-697 1895.67,-697 1895.67,-697 1891.83,-697 1888,-693.17 1888,-689.33 1888,-689.33 1888,-681.67 1888,-681.67 1888,-677.83 1891.83,-674 1895.67,-674 1895.67,-674 2206.33,-674 2206.33,-674 2210.17,-674 2214,-677.83 2214,-681.67 2214,-681.67 2214,-689.33 2214,-689.33 2214,-693.17 2210.17,-697 2206.33,-697"/>
<text text-anchor="middle" x="2051" y="-681.8" font-family="Arial" font-size="14.00" fill="#c6c5fe">statements/validations/validateAuthorizationCode.ts</text>
</g>
<!-- statements/validations/index.ts&#45;&gt;statements/validations/validateAuthorizationCode.ts -->
<g id="edge84" class="edge">
<title>statements/validations/index.ts&#45;&gt;statements/validations/validateAuthorizationCode.ts</title>
<path fill="none" stroke="#757575" d="M1744.49,-574.16C1766.01,-596.14 1816.23,-643.4 1869,-664.5 1875.22,-666.99 1881.64,-669.2 1888.2,-671.18"/>
<polygon fill="#757575" stroke="#757575" points="1887.32,-674.57 1897.89,-673.91 1889.22,-667.83 1887.32,-674.57"/>
</g>
<!-- statements/validations/validateClientCredentials.ts -->
<g id="node43" class="node">
<title>statements/validations/validateClientCredentials.ts</title>
<path fill="none" stroke="#c6c5fe" d="M2202.33,-615C2202.33,-615 1899.67,-615 1899.67,-615 1895.83,-615 1892,-611.17 1892,-607.33 1892,-607.33 1892,-599.67 1892,-599.67 1892,-595.83 1895.83,-592 1899.67,-592 1899.67,-592 2202.33,-592 2202.33,-592 2206.17,-592 2210,-595.83 2210,-599.67 2210,-599.67 2210,-607.33 2210,-607.33 2210,-611.17 2206.17,-615 2202.33,-615"/>
<text text-anchor="middle" x="2051" y="-599.8" font-family="Arial" font-size="14.00" fill="#c6c5fe">statements/validations/validateClientCredentials.ts</text>
</g>
<!-- statements/validations/index.ts&#45;&gt;statements/validations/validateClientCredentials.ts -->
<g id="edge85" class="edge">
<title>statements/validations/index.ts&#45;&gt;statements/validations/validateClientCredentials.ts</title>
<path fill="none" stroke="#757575" d="M1808.7,-574.02C1828.31,-576.91 1849.43,-579.92 1869,-582.5 1890.49,-585.33 1913.43,-588.15 1935.52,-590.76"/>
<polygon fill="#757575" stroke="#757575" points="1935.26,-594.26 1945.61,-591.95 1936.08,-587.3 1935.26,-594.26"/>
</g>
<!-- statements/validations/validateCredentialConfigurations.ts -->
<g id="node44" class="node">
<title>statements/validations/validateCredentialConfigurations.ts</title>
<path fill="none" stroke="#c6c5fe" d="M2225.33,-820C2225.33,-820 1876.67,-820 1876.67,-820 1872.83,-820 1869,-816.17 1869,-812.33 1869,-812.33 1869,-804.67 1869,-804.67 1869,-800.83 1872.83,-797 1876.67,-797 1876.67,-797 2225.33,-797 2225.33,-797 2229.17,-797 2233,-800.83 2233,-804.67 2233,-804.67 2233,-812.33 2233,-812.33 2233,-816.17 2229.17,-820 2225.33,-820"/>
<text text-anchor="middle" x="2051" y="-804.8" font-family="Arial" font-size="14.00" fill="#c6c5fe">statements/validations/validateCredentialConfigurations.ts</text>
</g>
<!-- statements/validations/index.ts&#45;&gt;statements/validations/validateCredentialConfigurations.ts -->
<g id="edge86" class="edge">
<title>statements/validations/index.ts&#45;&gt;statements/validations/validateCredentialConfigurations.ts</title>
<path fill="none" stroke="#757575" d="M1736.54,-574.15C1747.21,-612.37 1786.77,-734.54 1869,-787.5 1871.79,-789.3 1874.66,-790.98 1877.59,-792.56"/>
<polygon fill="#757575" stroke="#757575" points="1876.06,-795.71 1886.57,-796.99 1879.15,-789.43 1876.06,-795.71"/>
</g>
<!-- statements/validations/validateDpop.ts -->
<g id="node45" class="node">
<title>statements/validations/validateDpop.ts</title>
<path fill="none" stroke="#c6c5fe" d="M2167.33,-369C2167.33,-369 1934.67,-369 1934.67,-369 1930.83,-369 1927,-365.17 1927,-361.33 1927,-361.33 1927,-353.67 1927,-353.67 1927,-349.83 1930.83,-346 1934.67,-346 1934.67,-346 2167.33,-346 2167.33,-346 2171.17,-346 2175,-349.83 2175,-353.67 2175,-353.67 2175,-361.33 2175,-361.33 2175,-365.17 2171.17,-369 2167.33,-369"/>
<text text-anchor="middle" x="2051" y="-353.8" font-family="Arial" font-size="14.00" fill="#c6c5fe">statements/validations/validateDpop.ts</text>
</g>
<!-- statements/validations/index.ts&#45;&gt;statements/validations/validateDpop.ts -->
<g id="edge87" class="edge">
<title>statements/validations/index.ts&#45;&gt;statements/validations/validateDpop.ts</title>
<path fill="none" stroke="#757575" d="M1755.2,-550.89C1777.7,-537.82 1812.4,-514.54 1833,-485.5 1862.27,-444.23 1829.64,-409.3 1869,-377.5 1882.77,-366.37 1899.18,-359.16 1916.42,-354.67"/>
<polygon fill="#757575" stroke="#757575" points="1917.67,-357.98 1926.65,-352.34 1916.12,-351.15 1917.67,-357.98"/>
</g>
<!-- statements/validations/validateIssuerState.ts -->
<g id="node46" class="node">
<title>statements/validations/validateIssuerState.ts</title>
<path fill="none" stroke="#c6c5fe" d="M2185.33,-410C2185.33,-410 1916.67,-410 1916.67,-410 1912.83,-410 1909,-406.17 1909,-402.33 1909,-402.33 1909,-394.67 1909,-394.67 1909,-390.83 1912.83,-387 1916.67,-387 1916.67,-387 2185.33,-387 2185.33,-387 2189.17,-387 2193,-390.83 2193,-394.67 2193,-394.67 2193,-402.33 2193,-402.33 2193,-406.17 2189.17,-410 2185.33,-410"/>
<text text-anchor="middle" x="2051" y="-394.8" font-family="Arial" font-size="14.00" fill="#c6c5fe">statements/validations/validateIssuerState.ts</text>
</g>
<!-- statements/validations/index.ts&#45;&gt;statements/validations/validateIssuerState.ts -->
<g id="edge88" class="edge">
<title>statements/validations/index.ts&#45;&gt;statements/validations/validateIssuerState.ts</title>
<path fill="none" stroke="#757575" d="M1753.06,-550.9C1774.69,-537.33 1809.57,-513.17 1833,-485.5 1854.84,-459.7 1840.98,-437.42 1869,-418.5 1878.32,-412.21 1888.55,-407.27 1899.25,-403.45"/>
<polygon fill="#757575" stroke="#757575" points="1900.33,-406.78 1908.76,-400.37 1898.17,-400.12 1900.33,-406.78"/>
</g>
<!-- statements/validations/validateProofs.ts -->
<g id="node47" class="node">
<title>statements/validations/validateProofs.ts</title>
<path fill="none" stroke="#c6c5fe" d="M2170.33,-574C2170.33,-574 1931.67,-574 1931.67,-574 1927.83,-574 1924,-570.17 1924,-566.33 1924,-566.33 1924,-558.67 1924,-558.67 1924,-554.83 1927.83,-551 1931.67,-551 1931.67,-551 2170.33,-551 2170.33,-551 2174.17,-551 2178,-554.83 2178,-558.67 2178,-558.67 2178,-566.33 2178,-566.33 2178,-570.17 2174.17,-574 2170.33,-574"/>
<text text-anchor="middle" x="2051" y="-558.8" font-family="Arial" font-size="14.00" fill="#c6c5fe">statements/validations/validateProofs.ts</text>
</g>
<!-- statements/validations/index.ts&#45;&gt;statements/validations/validateProofs.ts -->
<g id="edge89" class="edge">
<title>statements/validations/index.ts&#45;&gt;statements/validations/validateProofs.ts</title>
<path fill="none" stroke="#757575" d="M1833.21,-562.5C1858.67,-562.5 1886.5,-562.5 1913.46,-562.5"/>
<polygon fill="#757575" stroke="#757575" points="1913.74,-566 1923.74,-562.5 1913.74,-559 1913.74,-566"/>
</g>
<!-- statements/validations/validateRequestUri.ts -->
<g id="node48" class="node">
<title>statements/validations/validateRequestUri.ts</title>
<path fill="none" stroke="#c6c5fe" d="M2184.83,-656C2184.83,-656 1917.17,-656 1917.17,-656 1913.33,-656 1909.5,-652.17 1909.5,-648.33 1909.5,-648.33 1909.5,-640.67 1909.5,-640.67 1909.5,-636.83 1913.33,-633 1917.17,-633 1917.17,-633 2184.83,-633 2184.83,-633 2188.67,-633 2192.5,-636.83 2192.5,-640.67 2192.5,-640.67 2192.5,-648.33 2192.5,-648.33 2192.5,-652.17 2188.67,-656 2184.83,-656"/>
<text text-anchor="middle" x="2051" y="-640.8" font-family="Arial" font-size="14.00" fill="#c6c5fe">statements/validations/validateRequestUri.ts</text>
</g>
<!-- statements/validations/index.ts&#45;&gt;statements/validations/validateRequestUri.ts -->
<g id="edge90" class="edge">
<title>statements/validations/index.ts&#45;&gt;statements/validations/validateRequestUri.ts</title>
<path fill="none" stroke="#757575" d="M1753.88,-574.08C1779.76,-588.22 1826.23,-611.7 1869,-623.5 1879.61,-626.43 1890.69,-628.95 1901.9,-631.12"/>
<polygon fill="#757575" stroke="#757575" points="1901.31,-634.57 1911.78,-632.94 1902.58,-627.68 1901.31,-634.57"/>
</g>
<!-- statements/validations/validateResourceOwner.ts -->
<g id="node49" class="node">
<title>statements/validations/validateResourceOwner.ts</title>
<path fill="none" stroke="#c6c5fe" d="M2199.83,-533C2199.83,-533 1902.17,-533 1902.17,-533 1898.33,-533 1894.5,-529.17 1894.5,-525.33 1894.5,-525.33 1894.5,-517.67 1894.5,-517.67 1894.5,-513.83 1898.33,-510 1902.17,-510 1902.17,-510 2199.83,-510 2199.83,-510 2203.67,-510 2207.5,-513.83 2207.5,-517.67 2207.5,-517.67 2207.5,-525.33 2207.5,-525.33 2207.5,-529.17 2203.67,-533 2199.83,-533"/>
<text text-anchor="middle" x="2051" y="-517.8" font-family="Arial" font-size="14.00" fill="#c6c5fe">statements/validations/validateResourceOwner.ts</text>
</g>
<!-- statements/validations/index.ts&#45;&gt;statements/validations/validateResourceOwner.ts -->
<g id="edge91" class="edge">
<title>statements/validations/index.ts&#45;&gt;statements/validations/validateResourceOwner.ts</title>
<path fill="none" stroke="#757575" d="M1804.09,-550.96C1824.97,-547.71 1847.88,-544.3 1869,-541.5 1888.3,-538.94 1908.8,-536.45 1928.79,-534.15"/>
<polygon fill="#757575" stroke="#757575" points="1929.33,-537.61 1938.87,-533 1928.54,-530.66 1929.33,-537.61"/>
</g>
<!-- statements/validations/validateScope.ts -->
<g id="node50" class="node">
<title>statements/validations/validateScope.ts</title>
<path fill="none" stroke="#c6c5fe" d="M2170.33,-451C2170.33,-451 1931.67,-451 1931.67,-451 1927.83,-451 1924,-447.17 1924,-443.33 1924,-443.33 1924,-435.67 1924,-435.67 1924,-431.83 1927.83,-428 1931.67,-428 1931.67,-428 2170.33,-428 2170.33,-428 2174.17,-428 2178,-431.83 2178,-435.67 2178,-435.67 2178,-443.33 2178,-443.33 2178,-447.17 2174.17,-451 2170.33,-451"/>
<text text-anchor="middle" x="2051" y="-435.8" font-family="Arial" font-size="14.00" fill="#c6c5fe">statements/validations/validateScope.ts</text>
</g>
<!-- statements/validations/index.ts&#45;&gt;statements/validations/validateScope.ts -->
<g id="edge92" class="edge">
<title>statements/validations/index.ts&#45;&gt;statements/validations/validateScope.ts</title>
<path fill="none" stroke="#757575" d="M1748.58,-550.87C1783.17,-524.21 1865.54,-460.88 1869,-459.5 1883.09,-453.87 1898.26,-449.65 1913.6,-446.51"/>
<polygon fill="#757575" stroke="#757575" points="1914.53,-449.9 1923.7,-444.59 1913.23,-443.02 1914.53,-449.9"/>
</g>
<!-- statements/locations/authorizationCodeRedirection.ts&#45;&gt;resources.ts -->
<g id="edge63" class="edge">
<title>statements/locations/authorizationCodeRedirection.ts&#45;&gt;resources.ts</title>
<path fill="none" stroke="#757575" d="M2163.45,-902.07C2186.66,-905.71 2210.8,-910.43 2233,-916.5 2248.9,-920.85 2265.86,-927.53 2280.05,-933.74"/>
<polygon fill="#757575" stroke="#757575" points="2278.83,-937.03 2289.39,-937.94 2281.7,-930.65 2278.83,-937.03"/>
</g>
<!-- statements/locations/generateAuthorizationRequestUri.ts&#45;&gt;resources.ts -->
<g id="edge65" class="edge">
<title>statements/locations/generateAuthorizationRequestUri.ts&#45;&gt;resources.ts</title>
<path fill="none" stroke="#757575" d="M2219.2,-779.18C2223.98,-781.65 2228.6,-784.42 2233,-787.5 2280.96,-821.1 2301.52,-891.85 2309.13,-927.69"/>
<polygon fill="#757575" stroke="#757575" points="2305.72,-928.49 2311.09,-937.62 2312.59,-927.13 2305.72,-928.49"/>
</g>
<!-- statements/locations/generateAuthorizationRequestUri.ts&#45;&gt;constants.ts -->
<g id="edge64" class="edge">
<title>statements/locations/generateAuthorizationRequestUri.ts&#45;&gt;constants.ts</title>
<path fill="none" stroke="#757575" d="M2194.3,-755.91C2207.51,-753.36 2220.59,-750.27 2233,-746.5 2251.68,-740.83 2271.19,-730.92 2286.28,-722.26"/>
<polygon fill="#757575" stroke="#757575" points="2288.22,-725.18 2295.05,-717.08 2284.66,-719.15 2288.22,-725.18"/>
</g>
<!-- statements/locations/generateCredentialOffer.ts&#45;&gt;resources.ts -->
<g id="edge67" class="edge">
<title>statements/locations/generateCredentialOffer.ts&#45;&gt;resources.ts</title>
<path fill="none" stroke="#757575" d="M2202.79,-729.94C2213.6,-734.07 2223.83,-739.49 2233,-746.5 2291.57,-791.27 2307.32,-885.29 2311.51,-927.8"/>
<polygon fill="#757575" stroke="#757575" points="2308.03,-928.23 2312.38,-937.89 2315.01,-927.63 2308.03,-928.23"/>
</g>
<!-- statements/locations/generateCredentialOffer.ts&#45;&gt;errors.ts -->
<g id="edge66" class="edge">
<title>statements/locations/generateCredentialOffer.ts&#45;&gt;errors.ts</title>
<path fill="none" stroke="#757575" d="M2202.77,-723.56C2213.72,-719.1 2223.98,-713.2 2233,-705.5 2273.97,-670.51 2301.36,-502.04 2310.04,-441.35"/>
<polygon fill="#757575" stroke="#757575" points="2313.53,-441.72 2311.44,-431.33 2306.59,-440.75 2313.53,-441.72"/>
</g>
<!-- statements/resources/issuerClient.ts&#45;&gt;resources.ts -->
<g id="edge72" class="edge">
<title>statements/resources/issuerClient.ts&#45;&gt;resources.ts</title>
<path fill="none" stroke="#757575" d="M2168.69,-1177.28C2191.78,-1173.42 2214.56,-1165.66 2233,-1151.5 2291.23,-1106.81 2307.16,-1013.33 2311.45,-971.07"/>
<polygon fill="#757575" stroke="#757575" points="2314.94,-971.31 2312.34,-961.04 2307.97,-970.69 2314.94,-971.31"/>
</g>
<!-- statements/tokens/generateAccessToken.ts&#45;&gt;resources.ts -->
<g id="edge73" class="edge">
<title>statements/tokens/generateAccessToken.ts&#45;&gt;resources.ts</title>
<path fill="none" stroke="#757575" d="M2190.18,-1087.26C2205.29,-1083.24 2219.91,-1077.51 2233,-1069.5 2270.5,-1046.55 2294.19,-998.64 2305.38,-970.8"/>
<polygon fill="#757575" stroke="#757575" points="2308.74,-971.79 2309.05,-961.2 2302.21,-969.29 2308.74,-971.79"/>
</g>
<!-- statements/tokens/generateAuthorizationCode.ts&#45;&gt;resources.ts -->
<g id="edge75" class="edge">
<title>statements/tokens/generateAuthorizationCode.ts&#45;&gt;resources.ts</title>
<path fill="none" stroke="#757575" d="M2205.67,-859C2215.12,-861.86 2224.31,-865.33 2233,-869.5 2261.12,-883.01 2285.15,-910.55 2299.33,-929.51"/>
<polygon fill="#757575" stroke="#757575" points="2296.61,-931.73 2305.31,-937.79 2302.29,-927.63 2296.61,-931.73"/>
</g>
<!-- statements/tokens/generateAuthorizationCode.ts&#45;&gt;errors.ts -->
<g id="edge74" class="edge">
<title>statements/tokens/generateAuthorizationCode.ts&#45;&gt;errors.ts</title>
<path fill="none" stroke="#757575" d="M2205.61,-846.38C2215.58,-841.88 2224.87,-836.02 2233,-828.5 2247.57,-815.02 2295.93,-524.2 2309.46,-441.35"/>
<polygon fill="#757575" stroke="#757575" points="2312.94,-441.72 2311.1,-431.29 2306.03,-440.6 2312.94,-441.72"/>
</g>
<!-- statements/tokens/generateCNonce.ts&#45;&gt;resources.ts -->
<g id="edge76" class="edge">
<title>statements/tokens/generateCNonce.ts&#45;&gt;resources.ts</title>
<path fill="none" stroke="#757575" d="M2174.87,-1046.39C2194.94,-1042.77 2215.03,-1037.12 2233,-1028.5 2260.96,-1015.09 2285.02,-987.91 2299.26,-969.2"/>
<polygon fill="#757575" stroke="#757575" points="2302.15,-971.17 2305.26,-961.05 2296.51,-967.03 2302.15,-971.17"/>
</g>
<!-- statements/tokens/generateCredentials.ts&#45;&gt;resources.ts -->
<g id="edge78" class="edge">
<title>statements/tokens/generateCredentials.ts&#45;&gt;resources.ts</title>
<path fill="none" stroke="#757575" d="M2163.45,-996.93C2186.66,-993.29 2210.8,-988.57 2233,-982.5 2248.9,-978.15 2265.86,-971.47 2280.05,-965.26"/>
<polygon fill="#757575" stroke="#757575" points="2281.7,-968.35 2289.39,-961.06 2278.83,-961.97 2281.7,-968.35"/>
</g>
<!-- statements/tokens/generateCredentials.ts&#45;&gt;errors.ts -->
<g id="edge77" class="edge">
<title>statements/tokens/generateCredentials.ts&#45;&gt;errors.ts</title>
<path fill="none" stroke="#757575" d="M2096.12,-996.92C2138.29,-983.44 2200.16,-956.87 2233,-910.5 2291.79,-827.5 2252.67,-784.89 2269,-684.5 2283.7,-594.11 2301.74,-486.48 2309.34,-441.23"/>
<polygon fill="#757575" stroke="#757575" points="2312.84,-441.56 2311.04,-431.12 2305.93,-440.4 2312.84,-441.56"/>
</g>
<!-- statements/validations/validateAccessToken.ts&#45;&gt;resources.ts -->
<g id="edge94" class="edge">
<title>statements/validations/validateAccessToken.ts&#45;&gt;resources.ts</title>
<path fill="none" stroke="#757575" d="M2198.51,-479.36C2211.24,-484.18 2223.04,-491.01 2233,-500.5 2269.66,-535.42 2260.12,-675.65 2269,-725.5 2282.28,-800.04 2300.24,-888.07 2308.5,-927.95"/>
<polygon fill="#757575" stroke="#757575" points="2305.1,-928.79 2310.56,-937.87 2311.96,-927.36 2305.1,-928.79"/>
</g>
<!-- statements/validations/validateAccessToken.ts&#45;&gt;errors.ts -->
<g id="edge93" class="edge">
<title>statements/validations/validateAccessToken.ts&#45;&gt;errors.ts</title>
<path fill="none" stroke="#757575" d="M2193.29,-468.96C2206.84,-466.41 2220.27,-463.29 2233,-459.5 2251.36,-454.03 2270.61,-444.54 2285.62,-436.18"/>
<polygon fill="#757575" stroke="#757575" points="2287.44,-439.17 2294.38,-431.16 2283.96,-433.09 2287.44,-439.17"/>
</g>
<!-- statements/validations/validateAuthorizationCode.ts&#45;&gt;resources.ts -->
<g id="edge96" class="edge">
<title>statements/validations/validateAuthorizationCode.ts&#45;&gt;resources.ts</title>
<path fill="none" stroke="#757575" d="M2214.01,-693.22C2220.73,-696.66 2227.11,-700.72 2233,-705.5 2302.35,-761.81 2312.15,-879.47 2313.13,-927.93"/>
<polygon fill="#757575" stroke="#757575" points="2309.63,-927.97 2313.23,-937.94 2316.63,-927.9 2309.63,-927.97"/>
</g>
<!-- statements/validations/validateAuthorizationCode.ts&#45;&gt;errors.ts -->
<g id="edge95" class="edge">
<title>statements/validations/validateAuthorizationCode.ts&#45;&gt;errors.ts</title>
<path fill="none" stroke="#757575" d="M2214.04,-676.86C2220.76,-673.39 2227.12,-669.31 2233,-664.5 2302.42,-607.75 2312.18,-489.72 2313.14,-441.13"/>
<polygon fill="#757575" stroke="#757575" points="2316.64,-441.13 2313.23,-431.09 2309.64,-441.06 2316.64,-441.13"/>
</g>
<!-- statements/validations/validateClientCredentials.ts&#45;&gt;resources.ts -->
<g id="edge98" class="edge">
<title>statements/validations/validateClientCredentials.ts&#45;&gt;resources.ts</title>
<path fill="none" stroke="#757575" d="M2210.3,-608.53C2218.45,-612.52 2226.11,-617.45 2233,-623.5 2256.44,-644.07 2296.61,-858.15 2309.15,-927.76"/>
<polygon fill="#757575" stroke="#757575" points="2305.71,-928.42 2310.92,-937.64 2312.6,-927.18 2305.71,-928.42"/>
</g>
<!-- statements/validations/validateClientCredentials.ts&#45;&gt;errors.ts -->
<g id="edge97" class="edge">
<title>statements/validations/validateClientCredentials.ts&#45;&gt;errors.ts</title>
<path fill="none" stroke="#757575" d="M2210.2,-595.17C2218.23,-591.7 2225.89,-587.52 2233,-582.5 2281.07,-548.55 2301.57,-477.43 2309.15,-441.41"/>
<polygon fill="#757575" stroke="#757575" points="2312.62,-441.92 2311.11,-431.44 2305.75,-440.58 2312.62,-441.92"/>
</g>
<!-- statements/validations/validateCredentialConfigurations.ts&#45;&gt;resources.ts -->
<g id="edge99" class="edge">
<title>statements/validations/validateCredentialConfigurations.ts&#45;&gt;resources.ts</title>
<path fill="none" stroke="#757575" d="M2216.98,-820.13C2222.51,-822.59 2227.87,-825.37 2233,-828.5 2270.73,-851.55 2294.34,-899.89 2305.45,-928"/>
<polygon fill="#757575" stroke="#757575" points="2302.29,-929.56 2309.09,-937.68 2308.84,-927.09 2302.29,-929.56"/>
</g>
<!-- statements/validations/validateDpop.ts&#45;&gt;errors.ts -->
<g id="edge100" class="edge">
<title>statements/validations/validateDpop.ts&#45;&gt;errors.ts</title>
<path fill="none" stroke="#757575" d="M2175.45,-364.89C2194.95,-367.84 2214.71,-371.91 2233,-377.5 2252.01,-383.31 2271.8,-393.66 2286.94,-402.63"/>
<polygon fill="#757575" stroke="#757575" points="2285.36,-405.76 2295.72,-407.98 2289,-399.79 2285.36,-405.76"/>
</g>
<!-- statements/validations/validateIssuerState.ts&#45;&gt;errors.ts -->
<g id="edge101" class="edge">
<title>statements/validations/validateIssuerState.ts&#45;&gt;errors.ts</title>
<path fill="none" stroke="#757575" d="M2193.19,-409.86C2221.48,-412.14 2249.09,-414.36 2270.66,-416.09"/>
<polygon fill="#757575" stroke="#757575" points="2270.49,-419.59 2280.74,-416.9 2271.05,-412.61 2270.49,-419.59"/>
</g>
<!-- statements/validations/validateProofs.ts&#45;&gt;resources.ts -->
<g id="edge103" class="edge">
<title>statements/validations/validateProofs.ts&#45;&gt;resources.ts</title>
<path fill="none" stroke="#757575" d="M2178.42,-556.32C2198.54,-560.69 2217.73,-568.75 2233,-582.5 2239.6,-588.44 2292.87,-849.89 2308.63,-927.81"/>
<polygon fill="#757575" stroke="#757575" points="2305.26,-928.81 2310.67,-937.92 2312.12,-927.43 2305.26,-928.81"/>
</g>
<!-- statements/validations/validateProofs.ts&#45;&gt;errors.ts -->
<g id="edge102" class="edge">
<title>statements/validations/validateProofs.ts&#45;&gt;errors.ts</title>
<path fill="none" stroke="#757575" d="M2178.01,-562.25C2197.4,-558.24 2216.44,-551.72 2233,-541.5 2271.03,-518.03 2294.64,-468.95 2305.64,-440.72"/>
<polygon fill="#757575" stroke="#757575" points="2309.05,-441.61 2309.25,-431.01 2302.49,-439.17 2309.05,-441.61"/>
</g>
<!-- statements/validations/validateRequestUri.ts&#45;&gt;resources.ts -->
<g id="edge106" class="edge">
<title>statements/validations/validateRequestUri.ts&#45;&gt;resources.ts</title>
<path fill="none" stroke="#757575" d="M2192.93,-643.07C2207.55,-647.7 2221.31,-654.58 2233,-664.5 2273.95,-699.24 2301.36,-867.2 2310.04,-927.71"/>
<polygon fill="#757575" stroke="#757575" points="2306.59,-928.29 2311.44,-937.71 2313.52,-927.32 2306.59,-928.29"/>
</g>
<!-- statements/validations/validateRequestUri.ts&#45;&gt;constants.ts -->
<g id="edge104" class="edge">
<title>statements/validations/validateRequestUri.ts&#45;&gt;constants.ts</title>
<path fill="none" stroke="#757575" d="M2192.84,-654.96C2206.55,-657.5 2220.13,-660.63 2233,-664.5 2251.69,-670.11 2271.21,-680.03 2286.29,-688.7"/>
<polygon fill="#757575" stroke="#757575" points="2284.67,-691.81 2295.06,-693.89 2288.23,-685.78 2284.67,-691.81"/>
</g>
<!-- statements/validations/validateRequestUri.ts&#45;&gt;errors.ts -->
<g id="edge105" class="edge">
<title>statements/validations/validateRequestUri.ts&#45;&gt;errors.ts</title>
<path fill="none" stroke="#757575" d="M2192.93,-643.65C2207.38,-639.16 2221.1,-632.67 2233,-623.5 2291.65,-578.33 2307.36,-483.94 2311.52,-441.27"/>
<polygon fill="#757575" stroke="#757575" points="2315.03,-441.41 2312.39,-431.15 2308.05,-440.81 2315.03,-441.41"/>
</g>
<!-- statements/validations/validateResourceOwner.ts&#45;&gt;resources.ts -->
<g id="edge108" class="edge">
<title>statements/validations/validateResourceOwner.ts&#45;&gt;resources.ts</title>
<path fill="none" stroke="#757575" d="M2207.7,-524.71C2216.88,-529.03 2225.44,-534.54 2233,-541.5 2294.32,-597.92 2252.97,-643.73 2269,-725.5 2283.57,-799.8 2300.89,-887.95 2308.75,-927.9"/>
<polygon fill="#757575" stroke="#757575" points="2305.34,-928.7 2310.71,-937.84 2312.21,-927.35 2305.34,-928.7"/>
</g>
<!-- statements/validations/validateResourceOwner.ts&#45;&gt;errors.ts -->
<g id="edge107" class="edge">
<title>statements/validations/validateResourceOwner.ts&#45;&gt;errors.ts</title>
<path fill="none" stroke="#757575" d="M2207.57,-510.58C2216.35,-507.78 2224.9,-504.45 2233,-500.5 2261.37,-486.67 2285.48,-458.57 2299.6,-439.39"/>
<polygon fill="#757575" stroke="#757575" points="2302.6,-441.22 2305.54,-431.04 2296.89,-437.16 2302.6,-441.22"/>
</g>
<!-- statements/validations/validateScope.ts&#45;&gt;resources.ts -->
<g id="edge110" class="edge">
<title>statements/validations/validateScope.ts&#45;&gt;resources.ts</title>
<path fill="none" stroke="#757575" d="M2178.43,-432.12C2198.8,-436.54 2218.07,-444.93 2233,-459.5 2275.69,-501.16 2259.25,-666.65 2269,-725.5 2281.38,-800.19 2299.79,-888.15 2308.33,-927.98"/>
<polygon fill="#757575" stroke="#757575" points="2304.94,-928.85 2310.46,-937.88 2311.78,-927.37 2304.94,-928.85"/>
</g>
<!-- statements/validations/validateScope.ts&#45;&gt;errors.ts -->
<g id="edge109" class="edge">
<title>statements/validations/validateScope.ts&#45;&gt;errors.ts</title>
<path fill="none" stroke="#757575" d="M2178.3,-429.82C2211.69,-427.26 2245.45,-424.68 2270.82,-422.73"/>
<polygon fill="#757575" stroke="#757575" points="2271.1,-426.22 2280.81,-421.97 2270.57,-419.24 2271.1,-426.22"/>
</g>
</g>
</svg>
