<?xml version="1.0" encoding="UTF-8" standalone="no"?>
<!DOCTYPE svg PUBLIC "-//W3C//DTD SVG 1.1//EN"
 "http://www.w3.org/Graphics/SVG/1.1/DTD/svg11.dtd">
<!-- Generated by graphviz version 2.43.0 (0)
 -->
<!-- Title: G Pages: 1 -->
<svg width="1953pt" height="373pt"
 viewBox="0.00 0.00 1953.20 372.86" xmlns="http://www.w3.org/2000/svg" xmlns:xlink="http://www.w3.org/1999/xlink">
<g id="graph0" class="graph" transform="scale(1 1) rotate(0) translate(21.6 351.26)">
<title>G</title>
<polygon fill="#111111" stroke="transparent" points="-21.6,21.6 -21.6,-351.26 1931.6,-351.26 1931.6,21.6 -21.6,21.6"/>
<!-- config.ts -->
<g id="node1" class="node">
<title>config.ts</title>
<path fill="none" stroke="#cfffac" d="M754.33,-222C754.33,-222 702.67,-222 702.67,-222 698.83,-222 695,-218.17 695,-214.33 695,-214.33 695,-206.67 695,-206.67 695,-202.83 698.83,-199 702.67,-199 702.67,-199 754.33,-199 754.33,-199 758.17,-199 762,-202.83 762,-206.67 762,-206.67 762,-214.33 762,-214.33 762,-218.17 758.17,-222 754.33,-222"/>
<text text-anchor="middle" x="728.5" y="-206.8" font-family="Arial" font-size="14.00" fill="#cfffac">config.ts</text>
</g>
<!-- core.ts -->
<g id="node2" class="node">
<title>core.ts</title>
<path fill="none" stroke="#c6c5fe" d="M148.33,-182C148.33,-182 106.67,-182 106.67,-182 102.83,-182 99,-178.17 99,-174.33 99,-174.33 99,-166.67 99,-166.67 99,-162.83 102.83,-159 106.67,-159 106.67,-159 148.33,-159 148.33,-159 152.17,-159 156,-162.83 156,-166.67 156,-166.67 156,-174.33 156,-174.33 156,-178.17 152.17,-182 148.33,-182"/>
<text text-anchor="middle" x="127.5" y="-166.8" font-family="Arial" font-size="14.00" fill="#c6c5fe">core.ts</text>
</g>
<!-- core.ts&#45;&gt;config.ts -->
<g id="edge1" class="edge">
<title>core.ts&#45;&gt;config.ts</title>
<path fill="none" stroke="#757575" d="M156.11,-172.25C221,-176.37 388.27,-187.05 528,-196.5 582.02,-200.15 644.24,-204.55 684.64,-207.43"/>
<polygon fill="#757575" stroke="#757575" points="684.45,-210.92 694.67,-208.15 684.95,-203.94 684.45,-210.92"/>
</g>
<!-- handlers/index.ts -->
<g id="node3" class="node">
<title>handlers/index.ts</title>
<path fill="none" stroke="#c6c5fe" d="M303.33,-142C303.33,-142 199.67,-142 199.67,-142 195.83,-142 192,-138.17 192,-134.33 192,-134.33 192,-126.67 192,-126.67 192,-122.83 195.83,-119 199.67,-119 199.67,-119 303.33,-119 303.33,-119 307.17,-119 311,-122.83 311,-126.67 311,-126.67 311,-134.33 311,-134.33 311,-138.17 307.17,-142 303.33,-142"/>
<text text-anchor="middle" x="251.5" y="-126.8" font-family="Arial" font-size="14.00" fill="#c6c5fe">handlers/index.ts</text>
</g>
<!-- core.ts&#45;&gt;handlers/index.ts -->
<g id="edge2" class="edge">
<title>core.ts&#45;&gt;handlers/index.ts</title>
<path fill="none" stroke="#757575" d="M156.18,-161.42C170.76,-156.64 188.99,-150.67 205.54,-145.24"/>
<polygon fill="#757575" stroke="#757575" points="206.63,-148.57 215.04,-142.13 204.45,-141.92 206.63,-148.57"/>
</g>
<!-- handlers/location.handler.ts -->
<g id="node5" class="node">
<title>handlers/location.handler.ts</title>
<path fill="none" stroke="#c6c5fe" d="M520.33,-141C520.33,-141 354.67,-141 354.67,-141 350.83,-141 347,-137.17 347,-133.33 347,-133.33 347,-125.67 347,-125.67 347,-121.83 350.83,-118 354.67,-118 354.67,-118 520.33,-118 520.33,-118 524.17,-118 528,-121.83 528,-125.67 528,-125.67 528,-133.33 528,-133.33 528,-137.17 524.17,-141 520.33,-141"/>
<text text-anchor="middle" x="437.5" y="-125.8" font-family="Arial" font-size="14.00" fill="#c6c5fe">handlers/location.handler.ts</text>
</g>
<!-- handlers/index.ts&#45;&gt;handlers/location.handler.ts -->
<g id="edge3" class="edge">
<title>handlers/index.ts&#45;&gt;handlers/location.handler.ts</title>
<path fill="none" stroke="#757575" d="M311.22,-130.18C319.39,-130.14 327.96,-130.09 336.62,-130.04"/>
<polygon fill="#757575" stroke="#757575" points="336.83,-133.54 346.81,-129.99 336.79,-126.54 336.83,-133.54"/>
</g>
<!-- errors.ts -->
<g id="node4" class="node">
<title>errors.ts</title>
<path fill="none" stroke="#cfffac" d="M1890.33,-161C1890.33,-161 1839.67,-161 1839.67,-161 1835.83,-161 1832,-157.17 1832,-153.33 1832,-153.33 1832,-145.67 1832,-145.67 1832,-141.83 1835.83,-138 1839.67,-138 1839.67,-138 1890.33,-138 1890.33,-138 1894.17,-138 1898,-141.83 1898,-145.67 1898,-145.67 1898,-153.33 1898,-153.33 1898,-157.17 1894.17,-161 1890.33,-161"/>
<text text-anchor="middle" x="1865" y="-145.8" font-family="Arial" font-size="14.00" fill="#cfffac">errors.ts</text>
</g>
<!-- handlers/location.handler.ts&#45;&gt;config.ts -->
<g id="edge4" class="edge">
<title>handlers/location.handler.ts&#45;&gt;config.ts</title>
<path fill="none" stroke="#757575" d="M488.36,-141.02C501.72,-145.18 515.81,-150.6 528,-157.5 546.63,-168.04 544.52,-180.63 564,-189.5 602.36,-206.96 650.69,-211.28 684.83,-211.8"/>
<polygon fill="#757575" stroke="#757575" points="684.92,-215.3 694.94,-211.85 684.96,-208.3 684.92,-215.3"/>
</g>
<!-- handlers/location/credentialOffer.ts -->
<g id="node6" class="node">
<title>handlers/location/credentialOffer.ts</title>
<path fill="none" stroke="#c6c5fe" d="M833.33,-181C833.33,-181 623.67,-181 623.67,-181 619.83,-181 616,-177.17 616,-173.33 616,-173.33 616,-165.67 616,-165.67 616,-161.83 619.83,-158 623.67,-158 623.67,-158 833.33,-158 833.33,-158 837.17,-158 841,-161.83 841,-165.67 841,-165.67 841,-173.33 841,-173.33 841,-177.17 837.17,-181 833.33,-181"/>
<text text-anchor="middle" x="728.5" y="-165.8" font-family="Arial" font-size="14.00" fill="#c6c5fe">handlers/location/credentialOffer.ts</text>
</g>
<!-- handlers/location.handler.ts&#45;&gt;handlers/location/credentialOffer.ts -->
<g id="edge5" class="edge">
<title>handlers/location.handler.ts&#45;&gt;handlers/location/credentialOffer.ts</title>
<path fill="none" stroke="#757575" d="M521.7,-141.02C556.91,-145.89 598.08,-151.59 634.31,-156.6"/>
<polygon fill="#757575" stroke="#757575" points="634,-160.09 644.38,-158 634.96,-153.16 634,-160.09"/>
</g>
<!-- handlers/location/presentationRequest.ts -->
<g id="node7" class="node">
<title>handlers/location/presentationRequest.ts</title>
<path fill="none" stroke="#c6c5fe" d="M1182.83,-61C1182.83,-61 937.17,-61 937.17,-61 933.33,-61 929.5,-57.17 929.5,-53.33 929.5,-53.33 929.5,-45.67 929.5,-45.67 929.5,-41.83 933.33,-38 937.17,-38 937.17,-38 1182.83,-38 1182.83,-38 1186.67,-38 1190.5,-41.83 1190.5,-45.67 1190.5,-45.67 1190.5,-53.33 1190.5,-53.33 1190.5,-57.17 1186.67,-61 1182.83,-61"/>
<text text-anchor="middle" x="1060" y="-45.8" font-family="Arial" font-size="14.00" fill="#c6c5fe">handlers/location/presentationRequest.ts</text>
</g>
<!-- handlers/location.handler.ts&#45;&gt;handlers/location/presentationRequest.ts -->
<g id="edge6" class="edge">
<title>handlers/location.handler.ts&#45;&gt;handlers/location/presentationRequest.ts</title>
<path fill="none" stroke="#757575" d="M459.04,-117.96C483.27,-104.99 525.2,-84.56 564,-75.5 681.58,-48.04 818.96,-42.87 919.13,-43.81"/>
<polygon fill="#757575" stroke="#757575" points="919.27,-47.31 929.31,-43.93 919.35,-40.31 919.27,-47.31"/>
</g>
<!-- handlers/location/presentationSuccess.ts -->
<g id="node8" class="node">
<title>handlers/location/presentationSuccess.ts</title>
<path fill="none" stroke="#c6c5fe" d="M1183.33,-141C1183.33,-141 936.67,-141 936.67,-141 932.83,-141 929,-137.17 929,-133.33 929,-133.33 929,-125.67 929,-125.67 929,-121.83 932.83,-118 936.67,-118 936.67,-118 1183.33,-118 1183.33,-118 1187.17,-118 1191,-121.83 1191,-125.67 1191,-125.67 1191,-133.33 1191,-133.33 1191,-137.17 1187.17,-141 1183.33,-141"/>
<text text-anchor="middle" x="1060" y="-125.8" font-family="Arial" font-size="14.00" fill="#c6c5fe">handlers/location/presentationSuccess.ts</text>
</g>
<!-- handlers/location.handler.ts&#45;&gt;handlers/location/presentationSuccess.ts -->
<g id="edge7" class="edge">
<title>handlers/location.handler.ts&#45;&gt;handlers/location/presentationSuccess.ts</title>
<path fill="none" stroke="#757575" d="M528.06,-129.5C630.3,-129.5 798.82,-129.5 918.57,-129.5"/>
<polygon fill="#757575" stroke="#757575" points="918.91,-133 928.91,-129.5 918.91,-126 918.91,-133"/>
</g>
<!-- handlers/location/protocolError.ts -->
<g id="node9" class="node">
<title>handlers/location/protocolError.ts</title>
<path fill="none" stroke="#c6c5fe" d="M1433.33,-102C1433.33,-102 1234.67,-102 1234.67,-102 1230.83,-102 1227,-98.17 1227,-94.33 1227,-94.33 1227,-86.67 1227,-86.67 1227,-82.83 1230.83,-79 1234.67,-79 1234.67,-79 1433.33,-79 1433.33,-79 1437.17,-79 1441,-82.83 1441,-86.67 1441,-86.67 1441,-94.33 1441,-94.33 1441,-98.17 1437.17,-102 1433.33,-102"/>
<text text-anchor="middle" x="1334" y="-86.8" font-family="Arial" font-size="14.00" fill="#c6c5fe">handlers/location/protocolError.ts</text>
</g>
<!-- handlers/location.handler.ts&#45;&gt;handlers/location/protocolError.ts -->
<g id="edge8" class="edge">
<title>handlers/location.handler.ts&#45;&gt;handlers/location/protocolError.ts</title>
<path fill="none" stroke="#757575" d="M528.36,-125.58C691.42,-118.47 1035.83,-103.46 1216.61,-95.57"/>
<polygon fill="#757575" stroke="#757575" points="1216.85,-99.07 1226.68,-95.14 1216.54,-92.07 1216.85,-99.07"/>
</g>
<!-- handlers/schemas/locationHandlerConfig.schema.ts -->
<g id="node10" class="node">
<title>handlers/schemas/locationHandlerConfig.schema.ts</title>
<path fill="none" stroke="#cfffac" d="M885.33,-23C885.33,-23 571.67,-23 571.67,-23 567.83,-23 564,-19.17 564,-15.33 564,-15.33 564,-7.67 564,-7.67 564,-3.83 567.83,0 571.67,0 571.67,0 885.33,0 885.33,0 889.17,0 893,-3.83 893,-7.67 893,-7.67 893,-15.33 893,-15.33 893,-19.17 889.17,-23 885.33,-23"/>
<text text-anchor="middle" x="728.5" y="-7.8" font-family="Arial" font-size="14.00" fill="#cfffac">handlers/schemas/locationHandlerConfig.schema.ts</text>
</g>
<!-- handlers/location.handler.ts&#45;&gt;handlers/schemas/locationHandlerConfig.schema.ts -->
<g id="edge9" class="edge">
<title>handlers/location.handler.ts&#45;&gt;handlers/schemas/locationHandlerConfig.schema.ts</title>
<path fill="none" stroke="#757575" d="M450.11,-117.93C470.93,-97.93 516.88,-57.15 564,-37.5 575.73,-32.61 588.29,-28.63 601.04,-25.39"/>
<polygon fill="#757575" stroke="#757575" points="601.9,-28.79 610.81,-23.06 600.28,-21.98 601.9,-28.79"/>
</g>
<!-- handlers/location/credentialOffer.ts&#45;&gt;errors.ts -->
<g id="edge10" class="edge">
<title>handlers/location/credentialOffer.ts&#45;&gt;errors.ts</title>
<path fill="none" stroke="#757575" d="M841.14,-169.68C1033.66,-169.59 1440.5,-167.67 1784,-154.5 1796.15,-154.03 1809.33,-153.3 1821.42,-152.54"/>
<polygon fill="#757575" stroke="#757575" points="1821.96,-156.02 1831.71,-151.87 1821.5,-149.03 1821.96,-156.02"/>
</g>
<!-- resources.ts -->
<g id="node11" class="node">
<title>resources.ts</title>
<path fill="none" stroke="#cfffac" d="M1902.33,-281C1902.33,-281 1827.67,-281 1827.67,-281 1823.83,-281 1820,-277.17 1820,-273.33 1820,-273.33 1820,-265.67 1820,-265.67 1820,-261.83 1823.83,-258 1827.67,-258 1827.67,-258 1902.33,-258 1902.33,-258 1906.17,-258 1910,-261.83 1910,-265.67 1910,-265.67 1910,-273.33 1910,-273.33 1910,-277.17 1906.17,-281 1902.33,-281"/>
<text text-anchor="middle" x="1865" y="-265.8" font-family="Arial" font-size="14.00" fill="#cfffac">resources.ts</text>
</g>
<!-- handlers/location/credentialOffer.ts&#45;&gt;resources.ts -->
<g id="edge11" class="edge">
<title>handlers/location/credentialOffer.ts&#45;&gt;resources.ts</title>
<path fill="none" stroke="#757575" d="M841,-172.11C859.08,-175.6 877.07,-181.09 893,-189.5 914.44,-200.83 907.62,-219.05 929,-230.5 1227.19,-390.25 1658.84,-315.94 1809.6,-282.63"/>
<polygon fill="#757575" stroke="#757575" points="1810.55,-286 1819.54,-280.4 1809.02,-279.17 1810.55,-286"/>
</g>
<!-- statements/index.ts -->
<g id="node12" class="node">
<title>statements/index.ts</title>
<path fill="none" stroke="#c6c5fe" d="M1119.33,-221C1119.33,-221 1000.67,-221 1000.67,-221 996.83,-221 993,-217.17 993,-213.33 993,-213.33 993,-205.67 993,-205.67 993,-201.83 996.83,-198 1000.67,-198 1000.67,-198 1119.33,-198 1119.33,-198 1123.17,-198 1127,-201.83 1127,-205.67 1127,-205.67 1127,-213.33 1127,-213.33 1127,-217.17 1123.17,-221 1119.33,-221"/>
<text text-anchor="middle" x="1060" y="-205.8" font-family="Arial" font-size="14.00" fill="#c6c5fe">statements/index.ts</text>
</g>
<!-- handlers/location/credentialOffer.ts&#45;&gt;statements/index.ts -->
<g id="edge12" class="edge">
<title>handlers/location/credentialOffer.ts&#45;&gt;statements/index.ts</title>
<path fill="none" stroke="#757575" d="M824.36,-181.02C874.67,-187.12 935.64,-194.52 982.82,-200.25"/>
<polygon fill="#757575" stroke="#757575" points="982.62,-203.75 992.97,-201.48 983.47,-196.8 982.62,-203.75"/>
</g>
<!-- handlers/location/presentationRequest.ts&#45;&gt;errors.ts -->
<g id="edge13" class="edge">
<title>handlers/location/presentationRequest.ts&#45;&gt;errors.ts</title>
<path fill="none" stroke="#757575" d="M1135.98,-37.97C1270.89,-20.44 1561.27,2.48 1784,-83.5 1809.32,-93.27 1832.56,-114.42 1847.39,-130.15"/>
<polygon fill="#757575" stroke="#757575" points="1845.02,-132.76 1854.34,-137.8 1850.2,-128.05 1845.02,-132.76"/>
</g>
<!-- handlers/location/presentationSuccess.ts&#45;&gt;errors.ts -->
<g id="edge14" class="edge">
<title>handlers/location/presentationSuccess.ts&#45;&gt;errors.ts</title>
<path fill="none" stroke="#757575" d="M1191.36,-132.75C1376.13,-137.35 1704.71,-145.53 1821.42,-148.44"/>
<polygon fill="#757575" stroke="#757575" points="1821.64,-151.95 1831.72,-148.7 1821.81,-144.95 1821.64,-151.95"/>
</g>
<!-- handlers/location/protocolError.ts&#45;&gt;errors.ts -->
<g id="edge15" class="edge">
<title>handlers/location/protocolError.ts&#45;&gt;errors.ts</title>
<path fill="none" stroke="#757575" d="M1441.18,-86.79C1533.05,-85.91 1668.87,-90.2 1784,-116.5 1800.42,-120.25 1817.81,-127.05 1832.16,-133.5"/>
<polygon fill="#757575" stroke="#757575" points="1831.02,-136.83 1841.56,-137.87 1833.97,-130.48 1831.02,-136.83"/>
</g>
<!-- statements/resources/index.ts -->
<g id="node14" class="node">
<title>statements/resources/index.ts</title>
<path fill="none" stroke="#c6c5fe" d="M1424.83,-261C1424.83,-261 1243.17,-261 1243.17,-261 1239.33,-261 1235.5,-257.17 1235.5,-253.33 1235.5,-253.33 1235.5,-245.67 1235.5,-245.67 1235.5,-241.83 1239.33,-238 1243.17,-238 1243.17,-238 1424.83,-238 1424.83,-238 1428.67,-238 1432.5,-241.83 1432.5,-245.67 1432.5,-245.67 1432.5,-253.33 1432.5,-253.33 1432.5,-257.17 1428.67,-261 1424.83,-261"/>
<text text-anchor="middle" x="1334" y="-245.8" font-family="Arial" font-size="14.00" fill="#c6c5fe">statements/resources/index.ts</text>
</g>
<!-- statements/index.ts&#45;&gt;statements/resources/index.ts -->
<g id="edge18" class="edge">
<title>statements/index.ts&#45;&gt;statements/resources/index.ts</title>
<path fill="none" stroke="#757575" d="M1127.19,-219.23C1162.41,-224.41 1206.21,-230.85 1244.33,-236.46"/>
<polygon fill="#757575" stroke="#757575" points="1244,-239.95 1254.4,-237.94 1245.02,-233.02 1244,-239.95"/>
</g>
<!-- statements/validations/index.ts -->
<g id="node15" class="node">
<title>statements/validations/index.ts</title>
<path fill="none" stroke="#c6c5fe" d="M1426.83,-220C1426.83,-220 1241.17,-220 1241.17,-220 1237.33,-220 1233.5,-216.17 1233.5,-212.33 1233.5,-212.33 1233.5,-204.67 1233.5,-204.67 1233.5,-200.83 1237.33,-197 1241.17,-197 1241.17,-197 1426.83,-197 1426.83,-197 1430.67,-197 1434.5,-200.83 1434.5,-204.67 1434.5,-204.67 1434.5,-212.33 1434.5,-212.33 1434.5,-216.17 1430.67,-220 1426.83,-220"/>
<text text-anchor="middle" x="1334" y="-204.8" font-family="Arial" font-size="14.00" fill="#c6c5fe">statements/validations/index.ts</text>
</g>
<!-- statements/index.ts&#45;&gt;statements/validations/index.ts -->
<g id="edge19" class="edge">
<title>statements/index.ts&#45;&gt;statements/validations/index.ts</title>
<path fill="none" stroke="#757575" d="M1127.19,-209.26C1156.12,-209.15 1190.83,-209.02 1223.43,-208.9"/>
<polygon fill="#757575" stroke="#757575" points="1223.49,-212.4 1233.48,-208.87 1223.46,-205.4 1223.49,-212.4"/>
</g>
<!-- index.ts -->
<g id="node13" class="node">
<title>index.ts</title>
<path fill="none" stroke="#c6c5fe" d="M55.33,-202C55.33,-202 7.67,-202 7.67,-202 3.83,-202 0,-198.17 0,-194.33 0,-194.33 0,-186.67 0,-186.67 0,-182.83 3.83,-179 7.67,-179 7.67,-179 55.33,-179 55.33,-179 59.17,-179 63,-182.83 63,-186.67 63,-186.67 63,-194.33 63,-194.33 63,-198.17 59.17,-202 55.33,-202"/>
<text text-anchor="middle" x="31.5" y="-186.8" font-family="Arial" font-size="14.00" fill="#c6c5fe">index.ts</text>
</g>
<!-- index.ts&#45;&gt;config.ts -->
<g id="edge16" class="edge">
<title>index.ts&#45;&gt;config.ts</title>
<path fill="none" stroke="#757575" d="M63.26,-191.39C174.41,-194.58 555.47,-205.55 684.43,-209.26"/>
<polygon fill="#757575" stroke="#757575" points="684.61,-212.77 694.7,-209.56 684.81,-205.77 684.61,-212.77"/>
</g>
<!-- index.ts&#45;&gt;core.ts -->
<g id="edge17" class="edge">
<title>index.ts&#45;&gt;core.ts</title>
<path fill="none" stroke="#757575" d="M63.02,-184.01C71.34,-182.24 80.45,-180.3 89.11,-178.46"/>
<polygon fill="#757575" stroke="#757575" points="89.94,-181.86 98.99,-176.35 88.48,-175.01 89.94,-181.86"/>
</g>
<!-- statements/resources/fetchIssuerMetadata.ts -->
<g id="node16" class="node">
<title>statements/resources/fetchIssuerMetadata.ts</title>
<path fill="none" stroke="#c6c5fe" d="M1766.33,-261C1766.33,-261 1494.67,-261 1494.67,-261 1490.83,-261 1487,-257.17 1487,-253.33 1487,-253.33 1487,-245.67 1487,-245.67 1487,-241.83 1490.83,-238 1494.67,-238 1494.67,-238 1766.33,-238 1766.33,-238 1770.17,-238 1774,-241.83 1774,-245.67 1774,-245.67 1774,-253.33 1774,-253.33 1774,-257.17 1770.17,-261 1766.33,-261"/>
<text text-anchor="middle" x="1630.5" y="-245.8" font-family="Arial" font-size="14.00" fill="#c6c5fe">statements/resources/fetchIssuerMetadata.ts</text>
</g>
<!-- statements/resources/index.ts&#45;&gt;statements/resources/fetchIssuerMetadata.ts -->
<g id="edge22" class="edge">
<title>statements/resources/index.ts&#45;&gt;statements/resources/fetchIssuerMetadata.ts</title>
<path fill="none" stroke="#757575" d="M1432.66,-249.5C1446.8,-249.5 1461.64,-249.5 1476.56,-249.5"/>
<polygon fill="#757575" stroke="#757575" points="1476.89,-253 1486.89,-249.5 1476.89,-246 1476.89,-253"/>
</g>
<!-- statements/validations/validateCredentialOffer.ts -->
<g id="node17" class="node">
<title>statements/validations/validateCredentialOffer.ts</title>
<path fill="none" stroke="#c6c5fe" d="M1776.33,-220C1776.33,-220 1484.67,-220 1484.67,-220 1480.83,-220 1477,-216.17 1477,-212.33 1477,-212.33 1477,-204.67 1477,-204.67 1477,-200.83 1480.83,-197 1484.67,-197 1484.67,-197 1776.33,-197 1776.33,-197 1780.17,-197 1784,-200.83 1784,-204.67 1784,-204.67 1784,-212.33 1784,-212.33 1784,-216.17 1780.17,-220 1776.33,-220"/>
<text text-anchor="middle" x="1630.5" y="-204.8" font-family="Arial" font-size="14.00" fill="#c6c5fe">statements/validations/validateCredentialOffer.ts</text>
</g>
<!-- statements/validations/index.ts&#45;&gt;statements/validations/validateCredentialOffer.ts -->
<g id="edge23" class="edge">
<title>statements/validations/index.ts&#45;&gt;statements/validations/validateCredentialOffer.ts</title>
<path fill="none" stroke="#757575" d="M1434.7,-208.5C1445.12,-208.5 1455.88,-208.5 1466.77,-208.5"/>
<polygon fill="#757575" stroke="#757575" points="1466.78,-212 1476.78,-208.5 1466.78,-205 1466.78,-212"/>
</g>
<!-- statements/resources/fetchIssuerMetadata.ts&#45;&gt;errors.ts -->
<g id="edge20" class="edge">
<title>statements/resources/fetchIssuerMetadata.ts&#45;&gt;errors.ts</title>
<path fill="none" stroke="#757575" d="M1763.36,-237.9C1770.48,-235.53 1777.41,-232.75 1784,-229.5 1811.99,-215.71 1836.04,-188.23 1850.27,-169.36"/>
<polygon fill="#757575" stroke="#757575" points="1853.21,-171.28 1856.27,-161.13 1847.55,-167.15 1853.21,-171.28"/>
</g>
<!-- statements/resources/fetchIssuerMetadata.ts&#45;&gt;resources.ts -->
<g id="edge21" class="edge">
<title>statements/resources/fetchIssuerMetadata.ts&#45;&gt;resources.ts</title>
<path fill="none" stroke="#757575" d="M1765.4,-261.02C1781,-262.36 1796.18,-263.67 1809.75,-264.83"/>
<polygon fill="#757575" stroke="#757575" points="1809.54,-268.33 1819.8,-265.7 1810.14,-261.35 1809.54,-268.33"/>
</g>
<!-- statements/validations/validateCredentialOffer.ts&#45;&gt;errors.ts -->
<g id="edge24" class="edge">
<title>statements/validations/validateCredentialOffer.ts&#45;&gt;errors.ts</title>
<path fill="none" stroke="#757575" d="M1719.35,-196.95C1740.71,-193.21 1763.35,-188.44 1784,-182.5 1799.72,-177.98 1816.54,-171.33 1830.68,-165.19"/>
<polygon fill="#757575" stroke="#757575" points="1832.28,-168.31 1839.99,-161.05 1829.43,-161.91 1832.28,-168.31"/>
</g>
</g>
</svg>
