<?xml version="1.0" encoding="UTF-8" standalone="no"?>
<!DOCTYPE svg PUBLIC "-//W3C//DTD SVG 1.1//EN"
 "http://www.w3.org/Graphics/SVG/1.1/DTD/svg11.dtd">
<!-- Generated by graphviz version 2.43.0 (0)
 -->
<!-- Title: G Pages: 1 -->
<svg width="2132pt" height="1559pt"
 viewBox="0.00 0.00 2132.20 1558.91" xmlns="http://www.w3.org/2000/svg" xmlns:xlink="http://www.w3.org/1999/xlink">
<g id="graph0" class="graph" transform="scale(1 1) rotate(0) translate(21.6 1537.31)">
<title>G</title>
<polygon fill="#111111" stroke="transparent" points="-21.6,21.6 -21.6,-1537.31 2110.6,-1537.31 2110.6,21.6 -21.6,21.6"/>
<!-- config.ts -->
<g id="node1" class="node">
<title>config.ts</title>
<path fill="none" stroke="#c6c5fe" d="M1008.33,-348.65C1008.33,-348.65 956.67,-348.65 956.67,-348.65 952.83,-348.65 949,-344.81 949,-340.98 949,-340.98 949,-333.31 949,-333.31 949,-329.48 952.83,-325.65 956.67,-325.65 956.67,-325.65 1008.33,-325.65 1008.33,-325.65 1012.17,-325.65 1016,-329.48 1016,-333.31 1016,-333.31 1016,-340.98 1016,-340.98 1016,-344.81 1012.17,-348.65 1008.33,-348.65"/>
<text text-anchor="middle" x="982.5" y="-333.45" font-family="Arial" font-size="14.00" fill="#c6c5fe">config.ts</text>
</g>
<!-- resources.ts -->
<g id="node2" class="node">
<title>resources.ts</title>
<path fill="none" stroke="#cfffac" d="M2081.33,-531.65C2081.33,-531.65 2006.67,-531.65 2006.67,-531.65 2002.83,-531.65 1999,-527.81 1999,-523.98 1999,-523.98 1999,-516.31 1999,-516.31 1999,-512.48 2002.83,-508.65 2006.67,-508.65 2006.67,-508.65 2081.33,-508.65 2081.33,-508.65 2085.17,-508.65 2089,-512.48 2089,-516.31 2089,-516.31 2089,-523.98 2089,-523.98 2089,-527.81 2085.17,-531.65 2081.33,-531.65"/>
<text text-anchor="middle" x="2044" y="-516.45" font-family="Arial" font-size="14.00" fill="#cfffac">resources.ts</text>
</g>
<!-- config.ts&#45;&gt;resources.ts -->
<g id="edge1" class="edge">
<title>config.ts&#45;&gt;resources.ts</title>
<path fill="none" stroke="#757575" d="M993.61,-325.56C1013.02,-304.29 1057.98,-259.68 1107,-243.15 1197.12,-212.75 1886.99,-185.98 1963,-243.15 2004.72,-274.52 2031.56,-438.62 2040.07,-498.37"/>
<polygon fill="#757575" stroke="#757575" points="2036.65,-499.13 2041.49,-508.55 2043.58,-498.17 2036.65,-499.13"/>
</g>
<!-- constants.ts -->
<g id="node3" class="node">
<title>constants.ts</title>
<path fill="none" stroke="#cfffac" d="M2080.83,-755.65C2080.83,-755.65 2007.17,-755.65 2007.17,-755.65 2003.33,-755.65 1999.5,-751.81 1999.5,-747.98 1999.5,-747.98 1999.5,-740.31 1999.5,-740.31 1999.5,-736.48 2003.33,-732.65 2007.17,-732.65 2007.17,-732.65 2080.83,-732.65 2080.83,-732.65 2084.67,-732.65 2088.5,-736.48 2088.5,-740.31 2088.5,-740.31 2088.5,-747.98 2088.5,-747.98 2088.5,-751.81 2084.67,-755.65 2080.83,-755.65"/>
<text text-anchor="middle" x="2044" y="-740.45" font-family="Arial" font-size="14.00" fill="#cfffac">constants.ts</text>
</g>
<!-- core.ts -->
<g id="node4" class="node">
<title>core.ts</title>
<path fill="none" stroke="#c6c5fe" d="M148.33,-388.65C148.33,-388.65 106.67,-388.65 106.67,-388.65 102.83,-388.65 99,-384.81 99,-380.98 99,-380.98 99,-373.31 99,-373.31 99,-369.48 102.83,-365.65 106.67,-365.65 106.67,-365.65 148.33,-365.65 148.33,-365.65 152.17,-365.65 156,-369.48 156,-373.31 156,-373.31 156,-380.98 156,-380.98 156,-384.81 152.17,-388.65 148.33,-388.65"/>
<text text-anchor="middle" x="127.5" y="-373.45" font-family="Arial" font-size="14.00" fill="#c6c5fe">core.ts</text>
</g>
<!-- core.ts&#45;&gt;config.ts -->
<g id="edge2" class="edge">
<title>core.ts&#45;&gt;config.ts</title>
<path fill="none" stroke="#757575" d="M156.46,-371.68C223.85,-358.81 400.66,-326.9 550,-316.15 686.54,-306.32 721.6,-304.63 858,-316.15 885.09,-318.43 915.17,-323.49 938.86,-328.07"/>
<polygon fill="#757575" stroke="#757575" points="938.44,-331.56 948.93,-330.07 939.8,-324.69 938.44,-331.56"/>
</g>
<!-- crypto.ts -->
<g id="node5" class="node">
<title>crypto.ts</title>
<path fill="none" stroke="#cfffac" d="M2070.33,-1102.65C2070.33,-1102.65 2017.67,-1102.65 2017.67,-1102.65 2013.83,-1102.65 2010,-1098.81 2010,-1094.98 2010,-1094.98 2010,-1087.31 2010,-1087.31 2010,-1083.48 2013.83,-1079.65 2017.67,-1079.65 2017.67,-1079.65 2070.33,-1079.65 2070.33,-1079.65 2074.17,-1079.65 2078,-1083.48 2078,-1087.31 2078,-1087.31 2078,-1094.98 2078,-1094.98 2078,-1098.81 2074.17,-1102.65 2070.33,-1102.65"/>
<text text-anchor="middle" x="2044" y="-1087.45" font-family="Arial" font-size="14.00" fill="#cfffac">crypto.ts</text>
</g>
<!-- core.ts&#45;&gt;crypto.ts -->
<g id="edge3" class="edge">
<title>core.ts&#45;&gt;crypto.ts</title>
<path fill="none" stroke="#757575" d="M129.12,-388.94C135.55,-506.31 195.08,-1460.15 429.5,-1460.15 429.5,-1460.15 429.5,-1460.15 1336,-1460.15 1615.08,-1460.15 1748.7,-1604.92 1963,-1426.15 2011.83,-1385.41 2034.74,-1181.12 2041.1,-1113.16"/>
<polygon fill="#757575" stroke="#757575" points="2044.62,-1113.07 2042.04,-1102.8 2037.65,-1112.44 2044.62,-1113.07"/>
</g>
<!-- handlers/index.ts -->
<g id="node6" class="node">
<title>handlers/index.ts</title>
<path fill="none" stroke="#c6c5fe" d="M303.33,-490.65C303.33,-490.65 199.67,-490.65 199.67,-490.65 195.83,-490.65 192,-486.81 192,-482.98 192,-482.98 192,-475.31 192,-475.31 192,-471.48 195.83,-467.65 199.67,-467.65 199.67,-467.65 303.33,-467.65 303.33,-467.65 307.17,-467.65 311,-471.48 311,-475.31 311,-475.31 311,-482.98 311,-482.98 311,-486.81 307.17,-490.65 303.33,-490.65"/>
<text text-anchor="middle" x="251.5" y="-475.45" font-family="Arial" font-size="14.00" fill="#c6c5fe">handlers/index.ts</text>
</g>
<!-- core.ts&#45;&gt;handlers/index.ts -->
<g id="edge4" class="edge">
<title>core.ts&#45;&gt;handlers/index.ts</title>
<path fill="none" stroke="#757575" d="M142.49,-388.85C163.64,-406.52 203.9,-440.19 228.84,-461.04"/>
<polygon fill="#757575" stroke="#757575" points="226.75,-463.85 236.67,-467.58 231.24,-458.48 226.75,-463.85"/>
</g>
<!-- handlers/authorize.handler.ts -->
<g id="node8" class="node">
<title>handlers/authorize.handler.ts</title>
<path fill="none" stroke="#c6c5fe" d="M791.33,-551.65C791.33,-551.65 616.67,-551.65 616.67,-551.65 612.83,-551.65 609,-547.81 609,-543.98 609,-543.98 609,-536.31 609,-536.31 609,-532.48 612.83,-528.65 616.67,-528.65 616.67,-528.65 791.33,-528.65 791.33,-528.65 795.17,-528.65 799,-532.48 799,-536.31 799,-536.31 799,-543.98 799,-543.98 799,-547.81 795.17,-551.65 791.33,-551.65"/>
<text text-anchor="middle" x="704" y="-536.45" font-family="Arial" font-size="14.00" fill="#c6c5fe">handlers/authorize.handler.ts</text>
</g>
<!-- handlers/index.ts&#45;&gt;handlers/authorize.handler.ts -->
<g id="edge19" class="edge">
<title>handlers/index.ts&#45;&gt;handlers/authorize.handler.ts</title>
<path fill="none" stroke="#757575" d="M296.98,-490.66C312.7,-494.42 330.56,-498.34 347,-501.15 431.12,-515.49 527.37,-525.67 598.56,-532.02"/>
<polygon fill="#757575" stroke="#757575" points="598.61,-535.54 608.88,-532.93 599.23,-528.56 598.61,-535.54"/>
</g>
<!-- handlers/credential.handler.ts -->
<g id="node11" class="node">
<title>handlers/credential.handler.ts</title>
<path fill="none" stroke="#c6c5fe" d="M792.83,-631.65C792.83,-631.65 615.17,-631.65 615.17,-631.65 611.33,-631.65 607.5,-627.81 607.5,-623.98 607.5,-623.98 607.5,-616.31 607.5,-616.31 607.5,-612.48 611.33,-608.65 615.17,-608.65 615.17,-608.65 792.83,-608.65 792.83,-608.65 796.67,-608.65 800.5,-612.48 800.5,-616.31 800.5,-616.31 800.5,-623.98 800.5,-623.98 800.5,-627.81 796.67,-631.65 792.83,-631.65"/>
<text text-anchor="middle" x="704" y="-616.45" font-family="Arial" font-size="14.00" fill="#c6c5fe">handlers/credential.handler.ts</text>
</g>
<!-- handlers/index.ts&#45;&gt;handlers/credential.handler.ts -->
<g id="edge20" class="edge">
<title>handlers/index.ts&#45;&gt;handlers/credential.handler.ts</title>
<path fill="none" stroke="#757575" d="M272.21,-490.73C290.94,-501.36 320.16,-516.96 347,-527.15 443.68,-563.84 560.45,-591.32 633.23,-606.56"/>
<polygon fill="#757575" stroke="#757575" points="632.7,-610.02 643.21,-608.63 634.13,-603.17 632.7,-610.02"/>
</g>
<!-- handlers/credentialOffer.handler.ts -->
<g id="node12" class="node">
<title>handlers/credentialOffer.handler.ts</title>
<path fill="none" stroke="#c6c5fe" d="M807.83,-510.65C807.83,-510.65 600.17,-510.65 600.17,-510.65 596.33,-510.65 592.5,-506.81 592.5,-502.98 592.5,-502.98 592.5,-495.31 592.5,-495.31 592.5,-491.48 596.33,-487.65 600.17,-487.65 600.17,-487.65 807.83,-487.65 807.83,-487.65 811.67,-487.65 815.5,-491.48 815.5,-495.31 815.5,-495.31 815.5,-502.98 815.5,-502.98 815.5,-506.81 811.67,-510.65 807.83,-510.65"/>
<text text-anchor="middle" x="704" y="-495.45" font-family="Arial" font-size="14.00" fill="#c6c5fe">handlers/credentialOffer.handler.ts</text>
</g>
<!-- handlers/index.ts&#45;&gt;handlers/credentialOffer.handler.ts -->
<g id="edge21" class="edge">
<title>handlers/index.ts&#45;&gt;handlers/credentialOffer.handler.ts</title>
<path fill="none" stroke="#757575" d="M311.4,-481.76C379.83,-484.8 494.56,-489.89 582.19,-493.78"/>
<polygon fill="#757575" stroke="#757575" points="582.05,-497.28 592.2,-494.23 582.37,-490.29 582.05,-497.28"/>
</g>
<!-- handlers/nonce.handler.ts -->
<g id="node13" class="node">
<title>handlers/nonce.handler.ts</title>
<path fill="none" stroke="#c6c5fe" d="M781.83,-469.65C781.83,-469.65 626.17,-469.65 626.17,-469.65 622.33,-469.65 618.5,-465.81 618.5,-461.98 618.5,-461.98 618.5,-454.31 618.5,-454.31 618.5,-450.48 622.33,-446.65 626.17,-446.65 626.17,-446.65 781.83,-446.65 781.83,-446.65 785.67,-446.65 789.5,-450.48 789.5,-454.31 789.5,-454.31 789.5,-461.98 789.5,-461.98 789.5,-465.81 785.67,-469.65 781.83,-469.65"/>
<text text-anchor="middle" x="704" y="-454.45" font-family="Arial" font-size="14.00" fill="#c6c5fe">handlers/nonce.handler.ts</text>
</g>
<!-- handlers/index.ts&#45;&gt;handlers/nonce.handler.ts -->
<g id="edge22" class="edge">
<title>handlers/index.ts&#45;&gt;handlers/nonce.handler.ts</title>
<path fill="none" stroke="#757575" d="M311.4,-476.4C386.84,-472.89 518.53,-466.75 608.17,-462.57"/>
<polygon fill="#757575" stroke="#757575" points="608.52,-466.06 618.34,-462.09 608.19,-459.06 608.52,-466.06"/>
</g>
<!-- handlers/oauthAuthorizationServer.handler.ts -->
<g id="node14" class="node">
<title>handlers/oauthAuthorizationServer.handler.ts</title>
<path fill="none" stroke="#c6c5fe" d="M839.33,-348.65C839.33,-348.65 568.67,-348.65 568.67,-348.65 564.83,-348.65 561,-344.81 561,-340.98 561,-340.98 561,-333.31 561,-333.31 561,-329.48 564.83,-325.65 568.67,-325.65 568.67,-325.65 839.33,-325.65 839.33,-325.65 843.17,-325.65 847,-329.48 847,-333.31 847,-333.31 847,-340.98 847,-340.98 847,-344.81 843.17,-348.65 839.33,-348.65"/>
<text text-anchor="middle" x="704" y="-333.45" font-family="Arial" font-size="14.00" fill="#c6c5fe">handlers/oauthAuthorizationServer.handler.ts</text>
</g>
<!-- handlers/index.ts&#45;&gt;handlers/oauthAuthorizationServer.handler.ts -->
<g id="edge23" class="edge">
<title>handlers/index.ts&#45;&gt;handlers/oauthAuthorizationServer.handler.ts</title>
<path fill="none" stroke="#757575" d="M264.91,-467.44C282.05,-451.88 314.55,-424.59 347,-409.15 412.67,-377.9 491.42,-360.19 558.14,-350.17"/>
<polygon fill="#757575" stroke="#757575" points="558.93,-353.59 568.32,-348.68 557.92,-346.66 558.93,-353.59"/>
</g>
<!-- handlers/openidCredentialIssuer.handler.ts -->
<g id="node15" class="node">
<title>handlers/openidCredentialIssuer.handler.ts</title>
<path fill="none" stroke="#c6c5fe" d="M832.33,-389.65C832.33,-389.65 575.67,-389.65 575.67,-389.65 571.83,-389.65 568,-385.81 568,-381.98 568,-381.98 568,-374.31 568,-374.31 568,-370.48 571.83,-366.65 575.67,-366.65 575.67,-366.65 832.33,-366.65 832.33,-366.65 836.17,-366.65 840,-370.48 840,-374.31 840,-374.31 840,-381.98 840,-381.98 840,-385.81 836.17,-389.65 832.33,-389.65"/>
<text text-anchor="middle" x="704" y="-374.45" font-family="Arial" font-size="14.00" fill="#c6c5fe">handlers/openidCredentialIssuer.handler.ts</text>
</g>
<!-- handlers/index.ts&#45;&gt;handlers/openidCredentialIssuer.handler.ts -->
<g id="edge24" class="edge">
<title>handlers/index.ts&#45;&gt;handlers/openidCredentialIssuer.handler.ts</title>
<path fill="none" stroke="#757575" d="M294.14,-467.55C351.45,-451.84 458.01,-423.53 550,-404.15 571.95,-399.52 595.8,-395.16 618,-391.37"/>
<polygon fill="#757575" stroke="#757575" points="618.79,-394.79 628.07,-389.67 617.63,-387.88 618.79,-394.79"/>
</g>
<!-- handlers/pushedAuthorizationRequest.handler.ts -->
<g id="node16" class="node">
<title>handlers/pushedAuthorizationRequest.handler.ts</title>
<path fill="none" stroke="#c6c5fe" d="M850.33,-672.65C850.33,-672.65 557.67,-672.65 557.67,-672.65 553.83,-672.65 550,-668.81 550,-664.98 550,-664.98 550,-657.31 550,-657.31 550,-653.48 553.83,-649.65 557.67,-649.65 557.67,-649.65 850.33,-649.65 850.33,-649.65 854.17,-649.65 858,-653.48 858,-657.31 858,-657.31 858,-664.98 858,-664.98 858,-668.81 854.17,-672.65 850.33,-672.65"/>
<text text-anchor="middle" x="704" y="-657.45" font-family="Arial" font-size="14.00" fill="#c6c5fe">handlers/pushedAuthorizationRequest.handler.ts</text>
</g>
<!-- handlers/index.ts&#45;&gt;handlers/pushedAuthorizationRequest.handler.ts -->
<g id="edge25" class="edge">
<title>handlers/index.ts&#45;&gt;handlers/pushedAuthorizationRequest.handler.ts</title>
<path fill="none" stroke="#757575" d="M262.11,-490.7C278.03,-509.17 311.64,-545.48 347,-567.15 428.88,-617.31 456.72,-618.34 550,-641.15 560.36,-643.68 571.2,-645.91 582.12,-647.87"/>
<polygon fill="#757575" stroke="#757575" points="581.7,-651.35 592.15,-649.59 582.89,-644.45 581.7,-651.35"/>
</g>
<!-- handlers/token.handler.ts -->
<g id="node17" class="node">
<title>handlers/token.handler.ts</title>
<path fill="none" stroke="#c6c5fe" d="M506.33,-707.65C506.33,-707.65 354.67,-707.65 354.67,-707.65 350.83,-707.65 347,-703.81 347,-699.98 347,-699.98 347,-692.31 347,-692.31 347,-688.48 350.83,-684.65 354.67,-684.65 354.67,-684.65 506.33,-684.65 506.33,-684.65 510.17,-684.65 514,-688.48 514,-692.31 514,-692.31 514,-699.98 514,-699.98 514,-703.81 510.17,-707.65 506.33,-707.65"/>
<text text-anchor="middle" x="430.5" y="-692.45" font-family="Arial" font-size="14.00" fill="#c6c5fe">handlers/token.handler.ts</text>
</g>
<!-- handlers/index.ts&#45;&gt;handlers/token.handler.ts -->
<g id="edge26" class="edge">
<title>handlers/index.ts&#45;&gt;handlers/token.handler.ts</title>
<path fill="none" stroke="#757575" d="M255.39,-490.82C263.9,-522.82 291.76,-612.87 347,-663.15 355.04,-670.46 364.9,-676.25 374.97,-680.8"/>
<polygon fill="#757575" stroke="#757575" points="373.65,-684.04 384.23,-684.63 376.33,-677.57 373.65,-684.04"/>
</g>
<!-- errors.ts -->
<g id="node7" class="node">
<title>errors.ts</title>
<path fill="none" stroke="#cfffac" d="M2069.33,-1041.65C2069.33,-1041.65 2018.67,-1041.65 2018.67,-1041.65 2014.83,-1041.65 2011,-1037.81 2011,-1033.98 2011,-1033.98 2011,-1026.31 2011,-1026.31 2011,-1022.48 2014.83,-1018.65 2018.67,-1018.65 2018.67,-1018.65 2069.33,-1018.65 2069.33,-1018.65 2073.17,-1018.65 2077,-1022.48 2077,-1026.31 2077,-1026.31 2077,-1033.98 2077,-1033.98 2077,-1037.81 2073.17,-1041.65 2069.33,-1041.65"/>
<text text-anchor="middle" x="2044" y="-1026.45" font-family="Arial" font-size="14.00" fill="#cfffac">errors.ts</text>
</g>
<!-- handlers/authorize.handler.ts&#45;&gt;config.ts -->
<g id="edge5" class="edge">
<title>handlers/authorize.handler.ts&#45;&gt;config.ts</title>
<path fill="none" stroke="#757575" d="M799.36,-543.74C820.61,-540.32 841.67,-533.06 858,-519.15 899.74,-483.59 862.24,-445.85 894,-401.15 908.24,-381.11 930.73,-364.85 949.34,-353.74"/>
<polygon fill="#757575" stroke="#757575" points="951.18,-356.72 958.11,-348.71 947.7,-350.65 951.18,-356.72"/>
</g>
<!-- handlers/authorize.handler.ts&#45;&gt;resources.ts -->
<g id="edge8" class="edge">
<title>handlers/authorize.handler.ts&#45;&gt;resources.ts</title>
<path fill="none" stroke="#757575" d="M799.34,-537.85C819.55,-534.49 840.17,-528.73 858,-519.15 879.36,-507.66 874.75,-492.89 894,-478.15 963.59,-424.85 1009.63,-453.73 1071,-391.15 1097.45,-364.17 1075.13,-334.43 1107,-314.15 1187.24,-263.08 1884.51,-260.43 1963,-314.15 2025.04,-356.61 2038.97,-454.75 2042.1,-498.46"/>
<polygon fill="#757575" stroke="#757575" points="2038.61,-498.79 2042.69,-508.57 2045.6,-498.38 2038.61,-498.79"/>
</g>
<!-- handlers/authorize.handler.ts&#45;&gt;errors.ts -->
<g id="edge6" class="edge">
<title>handlers/authorize.handler.ts&#45;&gt;errors.ts</title>
<path fill="none" stroke="#757575" d="M781.04,-551.65C809.74,-559.98 839.81,-574.36 858,-599.15 932.7,-700.93 801.94,-1079.75 894,-1166.15 937.3,-1206.79 1914.13,-1199.89 1963,-1166.15 2000.16,-1140.49 1973.82,-1108.63 1999,-1071.15 2004.56,-1062.87 2012.09,-1055.07 2019.35,-1048.53"/>
<polygon fill="#757575" stroke="#757575" points="2021.69,-1051.14 2027.02,-1041.98 2017.14,-1045.82 2021.69,-1051.14"/>
</g>
<!-- handlers/schemas/index.ts -->
<g id="node9" class="node">
<title>handlers/schemas/index.ts</title>
<path fill="none" stroke="#c6c5fe" d="M1063.33,-510.65C1063.33,-510.65 901.67,-510.65 901.67,-510.65 897.83,-510.65 894,-506.81 894,-502.98 894,-502.98 894,-495.31 894,-495.31 894,-491.48 897.83,-487.65 901.67,-487.65 901.67,-487.65 1063.33,-487.65 1063.33,-487.65 1067.17,-487.65 1071,-491.48 1071,-495.31 1071,-495.31 1071,-502.98 1071,-502.98 1071,-506.81 1067.17,-510.65 1063.33,-510.65"/>
<text text-anchor="middle" x="982.5" y="-495.45" font-family="Arial" font-size="14.00" fill="#c6c5fe">handlers/schemas/index.ts</text>
</g>
<!-- handlers/authorize.handler.ts&#45;&gt;handlers/schemas/index.ts -->
<g id="edge7" class="edge">
<title>handlers/authorize.handler.ts&#45;&gt;handlers/schemas/index.ts</title>
<path fill="none" stroke="#757575" d="M791.63,-528.63C813.32,-525.64 836.52,-522.36 858,-519.15 872.31,-517.01 887.54,-514.63 902.24,-512.27"/>
<polygon fill="#757575" stroke="#757575" points="902.99,-515.7 912.31,-510.65 901.88,-508.79 902.99,-515.7"/>
</g>
<!-- statements/index.ts -->
<g id="node10" class="node">
<title>statements/index.ts</title>
<path fill="none" stroke="#c6c5fe" d="M1041.83,-715.65C1041.83,-715.65 923.17,-715.65 923.17,-715.65 919.33,-715.65 915.5,-711.81 915.5,-707.98 915.5,-707.98 915.5,-700.31 915.5,-700.31 915.5,-696.48 919.33,-692.65 923.17,-692.65 923.17,-692.65 1041.83,-692.65 1041.83,-692.65 1045.67,-692.65 1049.5,-696.48 1049.5,-700.31 1049.5,-700.31 1049.5,-707.98 1049.5,-707.98 1049.5,-711.81 1045.67,-715.65 1041.83,-715.65"/>
<text text-anchor="middle" x="982.5" y="-700.45" font-family="Arial" font-size="14.00" fill="#c6c5fe">statements/index.ts</text>
</g>
<!-- handlers/authorize.handler.ts&#45;&gt;statements/index.ts -->
<g id="edge9" class="edge">
<title>handlers/authorize.handler.ts&#45;&gt;statements/index.ts</title>
<path fill="none" stroke="#757575" d="M764.59,-551.72C795.61,-560.34 832.31,-574.94 858,-599.15 886.08,-625.61 864.89,-652.82 894,-678.15 898.52,-682.08 903.61,-685.42 909.01,-688.25"/>
<polygon fill="#757575" stroke="#757575" points="907.79,-691.54 918.33,-692.56 910.72,-685.19 907.79,-691.54"/>
</g>
<!-- handlers/schemas/authorizeHandlerConfig.schema.ts -->
<g id="node18" class="node">
<title>handlers/schemas/authorizeHandlerConfig.schema.ts</title>
<path fill="none" stroke="#cfffac" d="M1496.33,-387.65C1496.33,-387.65 1173.67,-387.65 1173.67,-387.65 1169.83,-387.65 1166,-383.81 1166,-379.98 1166,-379.98 1166,-372.31 1166,-372.31 1166,-368.48 1169.83,-364.65 1173.67,-364.65 1173.67,-364.65 1496.33,-364.65 1496.33,-364.65 1500.17,-364.65 1504,-368.48 1504,-372.31 1504,-372.31 1504,-379.98 1504,-379.98 1504,-383.81 1500.17,-387.65 1496.33,-387.65"/>
<text text-anchor="middle" x="1335" y="-372.45" font-family="Arial" font-size="14.00" fill="#cfffac">handlers/schemas/authorizeHandlerConfig.schema.ts</text>
</g>
<!-- handlers/schemas/index.ts&#45;&gt;handlers/schemas/authorizeHandlerConfig.schema.ts -->
<g id="edge42" class="edge">
<title>handlers/schemas/index.ts&#45;&gt;handlers/schemas/authorizeHandlerConfig.schema.ts</title>
<path fill="none" stroke="#757575" d="M998.61,-487.56C1016.25,-473.91 1046.18,-450.41 1071,-429.15 1087.48,-415.03 1087.14,-404.9 1107,-396.15 1122.44,-389.35 1139.03,-384.26 1155.96,-380.5"/>
<polygon fill="#757575" stroke="#757575" points="1156.87,-383.88 1165.96,-378.44 1155.46,-377.03 1156.87,-383.88"/>
</g>
<!-- handlers/schemas/credentialHandlerConfig.schema.ts -->
<g id="node19" class="node">
<title>handlers/schemas/credentialHandlerConfig.schema.ts</title>
<path fill="none" stroke="#cfffac" d="M1497.83,-346.65C1497.83,-346.65 1172.17,-346.65 1172.17,-346.65 1168.33,-346.65 1164.5,-342.81 1164.5,-338.98 1164.5,-338.98 1164.5,-331.31 1164.5,-331.31 1164.5,-327.48 1168.33,-323.65 1172.17,-323.65 1172.17,-323.65 1497.83,-323.65 1497.83,-323.65 1501.67,-323.65 1505.5,-327.48 1505.5,-331.31 1505.5,-331.31 1505.5,-338.98 1505.5,-338.98 1505.5,-342.81 1501.67,-346.65 1497.83,-346.65"/>
<text text-anchor="middle" x="1335" y="-331.45" font-family="Arial" font-size="14.00" fill="#cfffac">handlers/schemas/credentialHandlerConfig.schema.ts</text>
</g>
<!-- handlers/schemas/index.ts&#45;&gt;handlers/schemas/credentialHandlerConfig.schema.ts -->
<g id="edge43" class="edge">
<title>handlers/schemas/index.ts&#45;&gt;handlers/schemas/credentialHandlerConfig.schema.ts</title>
<path fill="none" stroke="#757575" d="M1002.63,-487.49C1021.88,-474.99 1051.44,-453.61 1071,-429.15 1093.84,-400.58 1076.87,-375.89 1107,-355.15 1145.85,-328.4 1197.74,-322.23 1242.1,-323.27"/>
<polygon fill="#757575" stroke="#757575" points="1242.21,-326.77 1252.33,-323.64 1242.46,-319.78 1242.21,-326.77"/>
</g>
<!-- handlers/schemas/credentialOfferHandlerConfig.schema.ts -->
<g id="node20" class="node">
<title>handlers/schemas/credentialOfferHandlerConfig.schema.ts</title>
<path fill="none" stroke="#cfffac" d="M1513.33,-633.65C1513.33,-633.65 1156.67,-633.65 1156.67,-633.65 1152.83,-633.65 1149,-629.81 1149,-625.98 1149,-625.98 1149,-618.31 1149,-618.31 1149,-614.48 1152.83,-610.65 1156.67,-610.65 1156.67,-610.65 1513.33,-610.65 1513.33,-610.65 1517.17,-610.65 1521,-614.48 1521,-618.31 1521,-618.31 1521,-625.98 1521,-625.98 1521,-629.81 1517.17,-633.65 1513.33,-633.65"/>
<text text-anchor="middle" x="1335" y="-618.45" font-family="Arial" font-size="14.00" fill="#cfffac">handlers/schemas/credentialOfferHandlerConfig.schema.ts</text>
</g>
<!-- handlers/schemas/index.ts&#45;&gt;handlers/schemas/credentialOfferHandlerConfig.schema.ts -->
<g id="edge44" class="edge">
<title>handlers/schemas/index.ts&#45;&gt;handlers/schemas/credentialOfferHandlerConfig.schema.ts</title>
<path fill="none" stroke="#757575" d="M993.24,-510.92C1012.39,-533.1 1057.39,-580.68 1107,-601.15 1117.33,-605.41 1128.14,-608.99 1139.2,-611.98"/>
<polygon fill="#757575" stroke="#757575" points="1138.43,-615.39 1148.98,-614.46 1140.15,-608.61 1138.43,-615.39"/>
</g>
<!-- handlers/schemas/nonceHandlerConfig.schema.ts -->
<g id="node21" class="node">
<title>handlers/schemas/nonceHandlerConfig.schema.ts</title>
<path fill="none" stroke="#cfffac" d="M1487.33,-592.65C1487.33,-592.65 1182.67,-592.65 1182.67,-592.65 1178.83,-592.65 1175,-588.81 1175,-584.98 1175,-584.98 1175,-577.31 1175,-577.31 1175,-573.48 1178.83,-569.65 1182.67,-569.65 1182.67,-569.65 1487.33,-569.65 1487.33,-569.65 1491.17,-569.65 1495,-573.48 1495,-577.31 1495,-577.31 1495,-584.98 1495,-584.98 1495,-588.81 1491.17,-592.65 1487.33,-592.65"/>
<text text-anchor="middle" x="1335" y="-577.45" font-family="Arial" font-size="14.00" fill="#cfffac">handlers/schemas/nonceHandlerConfig.schema.ts</text>
</g>
<!-- handlers/schemas/index.ts&#45;&gt;handlers/schemas/nonceHandlerConfig.schema.ts -->
<g id="edge45" class="edge">
<title>handlers/schemas/index.ts&#45;&gt;handlers/schemas/nonceHandlerConfig.schema.ts</title>
<path fill="none" stroke="#757575" d="M1001.47,-510.68C1024.79,-524.99 1067.19,-548.89 1107,-560.15 1125.49,-565.37 1145.13,-569.37 1164.82,-572.42"/>
<polygon fill="#757575" stroke="#757575" points="1164.4,-575.9 1174.8,-573.89 1165.41,-568.97 1164.4,-575.9"/>
</g>
<!-- handlers/schemas/oauthAuthorizationServerHandlerConfig.schema.ts -->
<g id="node22" class="node">
<title>handlers/schemas/oauthAuthorizationServerHandlerConfig.schema.ts</title>
<path fill="none" stroke="#cfffac" d="M1544.83,-551.65C1544.83,-551.65 1125.17,-551.65 1125.17,-551.65 1121.33,-551.65 1117.5,-547.81 1117.5,-543.98 1117.5,-543.98 1117.5,-536.31 1117.5,-536.31 1117.5,-532.48 1121.33,-528.65 1125.17,-528.65 1125.17,-528.65 1544.83,-528.65 1544.83,-528.65 1548.67,-528.65 1552.5,-532.48 1552.5,-536.31 1552.5,-536.31 1552.5,-543.98 1552.5,-543.98 1552.5,-547.81 1548.67,-551.65 1544.83,-551.65"/>
<text text-anchor="middle" x="1335" y="-536.45" font-family="Arial" font-size="14.00" fill="#cfffac">handlers/schemas/oauthAuthorizationServerHandlerConfig.schema.ts</text>
</g>
<!-- handlers/schemas/index.ts&#45;&gt;handlers/schemas/oauthAuthorizationServerHandlerConfig.schema.ts -->
<g id="edge46" class="edge">
<title>handlers/schemas/index.ts&#45;&gt;handlers/schemas/oauthAuthorizationServerHandlerConfig.schema.ts</title>
<path fill="none" stroke="#757575" d="M1049.4,-510.67C1067.99,-513.69 1088.25,-516.76 1107,-519.15 1131.61,-522.27 1157.78,-525.13 1183.26,-527.66"/>
<polygon fill="#757575" stroke="#757575" points="1183.08,-531.16 1193.37,-528.65 1183.76,-524.19 1183.08,-531.16"/>
</g>
<!-- handlers/schemas/openidCredentialIssuerHandlerConfig.schema.ts -->
<g id="node23" class="node">
<title>handlers/schemas/openidCredentialIssuerHandlerConfig.schema.ts</title>
<path fill="none" stroke="#cfffac" d="M1538.33,-510.65C1538.33,-510.65 1131.67,-510.65 1131.67,-510.65 1127.83,-510.65 1124,-506.81 1124,-502.98 1124,-502.98 1124,-495.31 1124,-495.31 1124,-491.48 1127.83,-487.65 1131.67,-487.65 1131.67,-487.65 1538.33,-487.65 1538.33,-487.65 1542.17,-487.65 1546,-491.48 1546,-495.31 1546,-495.31 1546,-502.98 1546,-502.98 1546,-506.81 1542.17,-510.65 1538.33,-510.65"/>
<text text-anchor="middle" x="1335" y="-495.45" font-family="Arial" font-size="14.00" fill="#cfffac">handlers/schemas/openidCredentialIssuerHandlerConfig.schema.ts</text>
</g>
<!-- handlers/schemas/index.ts&#45;&gt;handlers/schemas/openidCredentialIssuerHandlerConfig.schema.ts -->
<g id="edge47" class="edge">
<title>handlers/schemas/index.ts&#45;&gt;handlers/schemas/openidCredentialIssuerHandlerConfig.schema.ts</title>
<path fill="none" stroke="#757575" d="M1071.04,-499.15C1084.47,-499.15 1098.82,-499.15 1113.63,-499.15"/>
<polygon fill="#757575" stroke="#757575" points="1113.96,-502.65 1123.96,-499.15 1113.96,-495.65 1113.96,-502.65"/>
</g>
<!-- handlers/schemas/pushedAuthorizationRequestHandlerConfig.schema.ts -->
<g id="node24" class="node">
<title>handlers/schemas/pushedAuthorizationRequestHandlerConfig.schema.ts</title>
<path fill="none" stroke="#cfffac" d="M1555.33,-469.65C1555.33,-469.65 1114.67,-469.65 1114.67,-469.65 1110.83,-469.65 1107,-465.81 1107,-461.98 1107,-461.98 1107,-454.31 1107,-454.31 1107,-450.48 1110.83,-446.65 1114.67,-446.65 1114.67,-446.65 1555.33,-446.65 1555.33,-446.65 1559.17,-446.65 1563,-450.48 1563,-454.31 1563,-454.31 1563,-461.98 1563,-461.98 1563,-465.81 1559.17,-469.65 1555.33,-469.65"/>
<text text-anchor="middle" x="1335" y="-454.45" font-family="Arial" font-size="14.00" fill="#cfffac">handlers/schemas/pushedAuthorizationRequestHandlerConfig.schema.ts</text>
</g>
<!-- handlers/schemas/index.ts&#45;&gt;handlers/schemas/pushedAuthorizationRequestHandlerConfig.schema.ts -->
<g id="edge48" class="edge">
<title>handlers/schemas/index.ts&#45;&gt;handlers/schemas/pushedAuthorizationRequestHandlerConfig.schema.ts</title>
<path fill="none" stroke="#757575" d="M1045.23,-487.65C1064.92,-484.25 1086.83,-480.75 1107,-478.15 1128.62,-475.36 1151.45,-472.85 1173.96,-470.62"/>
<polygon fill="#757575" stroke="#757575" points="1174.32,-474.1 1183.93,-469.65 1173.64,-467.13 1174.32,-474.1"/>
</g>
<!-- handlers/schemas/tokenHandlerConfig.schema.ts -->
<g id="node25" class="node">
<title>handlers/schemas/tokenHandlerConfig.schema.ts</title>
<path fill="none" stroke="#cfffac" d="M1485.33,-428.65C1485.33,-428.65 1184.67,-428.65 1184.67,-428.65 1180.83,-428.65 1177,-424.81 1177,-420.98 1177,-420.98 1177,-413.31 1177,-413.31 1177,-409.48 1180.83,-405.65 1184.67,-405.65 1184.67,-405.65 1485.33,-405.65 1485.33,-405.65 1489.17,-405.65 1493,-409.48 1493,-413.31 1493,-413.31 1493,-420.98 1493,-420.98 1493,-424.81 1489.17,-428.65 1485.33,-428.65"/>
<text text-anchor="middle" x="1335" y="-413.45" font-family="Arial" font-size="14.00" fill="#cfffac">handlers/schemas/tokenHandlerConfig.schema.ts</text>
</g>
<!-- handlers/schemas/index.ts&#45;&gt;handlers/schemas/tokenHandlerConfig.schema.ts -->
<g id="edge49" class="edge">
<title>handlers/schemas/index.ts&#45;&gt;handlers/schemas/tokenHandlerConfig.schema.ts</title>
<path fill="none" stroke="#757575" d="M1001.44,-487.4C1024.71,-472.81 1067.07,-448.48 1107,-437.15 1126.13,-431.72 1146.51,-427.65 1166.89,-424.61"/>
<polygon fill="#757575" stroke="#757575" points="1167.48,-428.07 1176.9,-423.21 1166.51,-421.13 1167.48,-428.07"/>
</g>
<!-- statements/grants/index.ts -->
<g id="node30" class="node">
<title>statements/grants/index.ts</title>
<path fill="none" stroke="#c6c5fe" d="M1414.83,-674.65C1414.83,-674.65 1255.17,-674.65 1255.17,-674.65 1251.33,-674.65 1247.5,-670.81 1247.5,-666.98 1247.5,-666.98 1247.5,-659.31 1247.5,-659.31 1247.5,-655.48 1251.33,-651.65 1255.17,-651.65 1255.17,-651.65 1414.83,-651.65 1414.83,-651.65 1418.67,-651.65 1422.5,-655.48 1422.5,-659.31 1422.5,-659.31 1422.5,-666.98 1422.5,-666.98 1422.5,-670.81 1418.67,-674.65 1414.83,-674.65"/>
<text text-anchor="middle" x="1335" y="-659.45" font-family="Arial" font-size="14.00" fill="#c6c5fe">statements/grants/index.ts</text>
</g>
<!-- statements/index.ts&#45;&gt;statements/grants/index.ts -->
<g id="edge67" class="edge">
<title>statements/index.ts&#45;&gt;statements/grants/index.ts</title>
<path fill="none" stroke="#757575" d="M1049.4,-692.62C1067.99,-689.6 1088.25,-686.53 1107,-684.15 1149.62,-678.73 1196.91,-674.13 1237.25,-670.63"/>
<polygon fill="#757575" stroke="#757575" points="1237.68,-674.11 1247.34,-669.77 1237.08,-667.13 1237.68,-674.11"/>
</g>
<!-- statements/locations/index.ts -->
<g id="node31" class="node">
<title>statements/locations/index.ts</title>
<path fill="none" stroke="#c6c5fe" d="M1422.83,-756.65C1422.83,-756.65 1247.17,-756.65 1247.17,-756.65 1243.33,-756.65 1239.5,-752.81 1239.5,-748.98 1239.5,-748.98 1239.5,-741.31 1239.5,-741.31 1239.5,-737.48 1243.33,-733.65 1247.17,-733.65 1247.17,-733.65 1422.83,-733.65 1422.83,-733.65 1426.67,-733.65 1430.5,-737.48 1430.5,-741.31 1430.5,-741.31 1430.5,-748.98 1430.5,-748.98 1430.5,-752.81 1426.67,-756.65 1422.83,-756.65"/>
<text text-anchor="middle" x="1335" y="-741.45" font-family="Arial" font-size="14.00" fill="#c6c5fe">statements/locations/index.ts</text>
</g>
<!-- statements/index.ts&#45;&gt;statements/locations/index.ts -->
<g id="edge68" class="edge">
<title>statements/index.ts&#45;&gt;statements/locations/index.ts</title>
<path fill="none" stroke="#757575" d="M1045.23,-715.65C1064.92,-719.05 1086.83,-722.55 1107,-725.15 1146.8,-730.28 1190.7,-734.48 1229.2,-737.69"/>
<polygon fill="#757575" stroke="#757575" points="1229.13,-741.19 1239.39,-738.52 1229.71,-734.22 1229.13,-741.19"/>
</g>
<!-- statements/resources/index.ts -->
<g id="node32" class="node">
<title>statements/resources/index.ts</title>
<path fill="none" stroke="#c6c5fe" d="M1425.83,-715.65C1425.83,-715.65 1244.17,-715.65 1244.17,-715.65 1240.33,-715.65 1236.5,-711.81 1236.5,-707.98 1236.5,-707.98 1236.5,-700.31 1236.5,-700.31 1236.5,-696.48 1240.33,-692.65 1244.17,-692.65 1244.17,-692.65 1425.83,-692.65 1425.83,-692.65 1429.67,-692.65 1433.5,-696.48 1433.5,-700.31 1433.5,-700.31 1433.5,-707.98 1433.5,-707.98 1433.5,-711.81 1429.67,-715.65 1425.83,-715.65"/>
<text text-anchor="middle" x="1335" y="-700.45" font-family="Arial" font-size="14.00" fill="#c6c5fe">statements/resources/index.ts</text>
</g>
<!-- statements/index.ts&#45;&gt;statements/resources/index.ts -->
<g id="edge69" class="edge">
<title>statements/index.ts&#45;&gt;statements/resources/index.ts</title>
<path fill="none" stroke="#757575" d="M1049.84,-704.15C1099.55,-704.15 1168.62,-704.15 1226.22,-704.15"/>
<polygon fill="#757575" stroke="#757575" points="1226.46,-707.65 1236.46,-704.15 1226.46,-700.65 1226.46,-707.65"/>
</g>
<!-- statements/tokens/index.ts -->
<g id="node33" class="node">
<title>statements/tokens/index.ts</title>
<path fill="none" stroke="#c6c5fe" d="M1415.83,-797.65C1415.83,-797.65 1254.17,-797.65 1254.17,-797.65 1250.33,-797.65 1246.5,-793.81 1246.5,-789.98 1246.5,-789.98 1246.5,-782.31 1246.5,-782.31 1246.5,-778.48 1250.33,-774.65 1254.17,-774.65 1254.17,-774.65 1415.83,-774.65 1415.83,-774.65 1419.67,-774.65 1423.5,-778.48 1423.5,-782.31 1423.5,-782.31 1423.5,-789.98 1423.5,-789.98 1423.5,-793.81 1419.67,-797.65 1415.83,-797.65"/>
<text text-anchor="middle" x="1335" y="-782.45" font-family="Arial" font-size="14.00" fill="#c6c5fe">statements/tokens/index.ts</text>
</g>
<!-- statements/index.ts&#45;&gt;statements/tokens/index.ts -->
<g id="edge70" class="edge">
<title>statements/index.ts&#45;&gt;statements/tokens/index.ts</title>
<path fill="none" stroke="#757575" d="M1001.44,-715.9C1024.71,-730.48 1067.07,-754.81 1107,-766.15 1148.4,-777.9 1195.6,-783.27 1236.2,-785.57"/>
<polygon fill="#757575" stroke="#757575" points="1236.21,-789.08 1246.38,-786.09 1236.57,-782.08 1236.21,-789.08"/>
</g>
<!-- statements/validations/index.ts -->
<g id="node34" class="node">
<title>statements/validations/index.ts</title>
<path fill="none" stroke="#c6c5fe" d="M1427.83,-938.65C1427.83,-938.65 1242.17,-938.65 1242.17,-938.65 1238.33,-938.65 1234.5,-934.81 1234.5,-930.98 1234.5,-930.98 1234.5,-923.31 1234.5,-923.31 1234.5,-919.48 1238.33,-915.65 1242.17,-915.65 1242.17,-915.65 1427.83,-915.65 1427.83,-915.65 1431.67,-915.65 1435.5,-919.48 1435.5,-923.31 1435.5,-923.31 1435.5,-930.98 1435.5,-930.98 1435.5,-934.81 1431.67,-938.65 1427.83,-938.65"/>
<text text-anchor="middle" x="1335" y="-923.45" font-family="Arial" font-size="14.00" fill="#c6c5fe">statements/validations/index.ts</text>
</g>
<!-- statements/index.ts&#45;&gt;statements/validations/index.ts -->
<g id="edge71" class="edge">
<title>statements/index.ts&#45;&gt;statements/validations/index.ts</title>
<path fill="none" stroke="#757575" d="M989.49,-715.96C1004.85,-745.06 1048.61,-820.7 1107,-860.15 1147.36,-887.41 1199.01,-903.79 1242.85,-913.52"/>
<polygon fill="#757575" stroke="#757575" points="1242.14,-916.95 1252.65,-915.62 1243.6,-910.1 1242.14,-916.95"/>
</g>
<!-- handlers/credential.handler.ts&#45;&gt;config.ts -->
<g id="edge10" class="edge">
<title>handlers/credential.handler.ts&#45;&gt;config.ts</title>
<path fill="none" stroke="#757575" d="M763.61,-608.61C794.9,-599.86 832.18,-584.96 858,-560.15 886.7,-532.57 875.46,-513.37 894,-478.15 917.41,-433.68 949.54,-384.35 967.64,-357.42"/>
<polygon fill="#757575" stroke="#757575" points="970.72,-359.13 973.42,-348.88 964.92,-355.2 970.72,-359.13"/>
</g>
<!-- handlers/credential.handler.ts&#45;&gt;errors.ts -->
<g id="edge11" class="edge">
<title>handlers/credential.handler.ts&#45;&gt;errors.ts</title>
<path fill="none" stroke="#757575" d="M800.61,-613.81C822.21,-617.2 843.12,-625.15 858,-641.15 943.37,-732.95 802.57,-1118.37 894,-1204.15 937.31,-1244.78 1915.84,-1240.24 1963,-1204.15 2011.63,-1166.93 1967.38,-1123.59 1999,-1071.15 2004.15,-1062.61 2011.57,-1054.74 2018.86,-1048.22"/>
<polygon fill="#757575" stroke="#757575" points="2021.2,-1050.83 2026.61,-1041.72 2016.7,-1045.47 2021.2,-1050.83"/>
</g>
<!-- handlers/credential.handler.ts&#45;&gt;handlers/schemas/index.ts -->
<g id="edge12" class="edge">
<title>handlers/credential.handler.ts&#45;&gt;handlers/schemas/index.ts</title>
<path fill="none" stroke="#757575" d="M800.55,-611.28C820.07,-607.45 840.1,-601.97 858,-594.15 900.13,-575.74 940.75,-539.9 963.3,-517.89"/>
<polygon fill="#757575" stroke="#757575" points="965.88,-520.26 970.5,-510.73 960.94,-515.3 965.88,-520.26"/>
</g>
<!-- handlers/credential.handler.ts&#45;&gt;statements/index.ts -->
<g id="edge13" class="edge">
<title>handlers/credential.handler.ts&#45;&gt;statements/index.ts</title>
<path fill="none" stroke="#757575" d="M800.59,-623.4C820.31,-626.75 840.41,-632.26 858,-641.15 878.48,-651.49 874.37,-666.27 894,-678.15 901.21,-682.51 909.2,-686.18 917.34,-689.26"/>
<polygon fill="#757575" stroke="#757575" points="916.33,-692.61 926.92,-692.61 918.64,-686.01 916.33,-692.61"/>
</g>
<!-- handlers/credentialOffer.handler.ts&#45;&gt;config.ts -->
<g id="edge14" class="edge">
<title>handlers/credentialOffer.handler.ts&#45;&gt;config.ts</title>
<path fill="none" stroke="#757575" d="M815.52,-499.23C831.03,-495.09 845.82,-488.45 858,-478.15 898.9,-443.57 855.86,-400.74 894,-363.15 905.85,-351.47 922.7,-344.99 938.45,-341.42"/>
<polygon fill="#757575" stroke="#757575" points="939.43,-344.8 948.59,-339.47 938.1,-337.93 939.43,-344.8"/>
</g>
<!-- handlers/credentialOffer.handler.ts&#45;&gt;resources.ts -->
<g id="edge17" class="edge">
<title>handlers/credentialOffer.handler.ts&#45;&gt;resources.ts</title>
<path fill="none" stroke="#757575" d="M815.51,-498.05C830.85,-494.03 845.58,-487.73 858,-478.15 891.12,-452.58 861.57,-417.59 894,-391.15 956.08,-340.52 1008.82,-407.65 1071,-357.15 1103.17,-331.03 1072.5,-294.1 1107,-271.15 1146.59,-244.8 1924.59,-244.11 1963,-272.15 2036.54,-325.84 2043.9,-448.41 2043.68,-498.36"/>
<polygon fill="#757575" stroke="#757575" points="2040.18,-498.33 2043.52,-508.38 2047.18,-498.44 2040.18,-498.33"/>
</g>
<!-- handlers/credentialOffer.handler.ts&#45;&gt;errors.ts -->
<g id="edge15" class="edge">
<title>handlers/credentialOffer.handler.ts&#45;&gt;errors.ts</title>
<path fill="none" stroke="#757575" d="M815.54,-496.61C831.34,-500.79 846.2,-507.84 858,-519.15 925.12,-583.44 852.09,-642.19 894,-725.15 955.79,-847.48 992.66,-872.58 1107,-948.15 1301.9,-1076.95 1369.15,-1091.36 1599,-1133.15 1678.58,-1147.62 1892.9,-1173.51 1963,-1133.15 1990.61,-1117.25 1979.13,-1096.06 1999,-1071.15 2005.41,-1063.11 2013.39,-1055.2 2020.79,-1048.5"/>
<polygon fill="#757575" stroke="#757575" points="2023.27,-1050.98 2028.49,-1041.75 2018.66,-1045.71 2023.27,-1050.98"/>
</g>
<!-- handlers/credentialOffer.handler.ts&#45;&gt;handlers/schemas/index.ts -->
<g id="edge16" class="edge">
<title>handlers/credentialOffer.handler.ts&#45;&gt;handlers/schemas/index.ts</title>
<path fill="none" stroke="#757575" d="M815.87,-499.15C838.18,-499.15 861.48,-499.15 883.32,-499.15"/>
<polygon fill="#757575" stroke="#757575" points="883.57,-502.65 893.57,-499.15 883.57,-495.65 883.57,-502.65"/>
</g>
<!-- handlers/credentialOffer.handler.ts&#45;&gt;statements/index.ts -->
<g id="edge18" class="edge">
<title>handlers/credentialOffer.handler.ts&#45;&gt;statements/index.ts</title>
<path fill="none" stroke="#757575" d="M815.84,-497.33C831.4,-501.47 846.12,-508.32 858,-519.15 911.55,-567.95 844.49,-625.25 894,-678.15 897.63,-682.02 901.81,-685.33 906.33,-688.15"/>
<polygon fill="#757575" stroke="#757575" points="904.93,-691.37 915.4,-693 908.23,-685.2 904.93,-691.37"/>
</g>
<!-- handlers/nonce.handler.ts&#45;&gt;config.ts -->
<g id="edge27" class="edge">
<title>handlers/nonce.handler.ts&#45;&gt;config.ts</title>
<path fill="none" stroke="#757575" d="M789.83,-457.53C813.66,-453.87 838.39,-446.42 858,-432.15 885.97,-411.79 867.31,-385.15 894,-363.15 906.64,-352.73 923.34,-346.48 938.75,-342.74"/>
<polygon fill="#757575" stroke="#757575" points="939.6,-346.14 948.64,-340.63 938.13,-339.3 939.6,-346.14"/>
</g>
<!-- handlers/nonce.handler.ts&#45;&gt;resources.ts -->
<g id="edge30" class="edge">
<title>handlers/nonce.handler.ts&#45;&gt;resources.ts</title>
<path fill="none" stroke="#757575" d="M763.61,-446.61C794.9,-437.86 832.18,-422.96 858,-398.15 886.7,-370.57 866.76,-345.16 894,-316.15 966.93,-238.47 1003.47,-231.3 1107,-206.15 1199.42,-183.69 1887.9,-147.78 1963,-206.15 2009.93,-242.62 2033.89,-432.82 2040.83,-498.12"/>
<polygon fill="#757575" stroke="#757575" points="2037.39,-498.88 2041.89,-508.47 2044.35,-498.16 2037.39,-498.88"/>
</g>
<!-- handlers/nonce.handler.ts&#45;&gt;errors.ts -->
<g id="edge28" class="edge">
<title>handlers/nonce.handler.ts&#45;&gt;errors.ts</title>
<path fill="none" stroke="#757575" d="M789.72,-458.39C812.9,-461.29 837.32,-467.11 858,-478.15 879.4,-489.56 877.11,-501.75 894,-519.15 968.91,-596.32 1014.55,-592.61 1071,-684.15 1100.9,-732.63 1063.06,-770.91 1107,-807.15 1180.7,-867.93 1882.94,-835.04 1963,-887.15 2006.48,-915.45 2028.61,-976.01 2037.75,-1008.49"/>
<polygon fill="#757575" stroke="#757575" points="2034.41,-1009.58 2040.36,-1018.35 2041.18,-1007.78 2034.41,-1009.58"/>
</g>
<!-- handlers/nonce.handler.ts&#45;&gt;handlers/schemas/index.ts -->
<g id="edge29" class="edge">
<title>handlers/nonce.handler.ts&#45;&gt;handlers/schemas/index.ts</title>
<path fill="none" stroke="#757575" d="M789.66,-468.62C811.91,-471.54 835.88,-474.82 858,-478.15 873.76,-480.52 890.62,-483.25 906.66,-485.95"/>
<polygon fill="#757575" stroke="#757575" points="906.08,-489.4 916.52,-487.62 907.24,-482.5 906.08,-489.4"/>
</g>
<!-- handlers/nonce.handler.ts&#45;&gt;statements/index.ts -->
<g id="edge31" class="edge">
<title>handlers/nonce.handler.ts&#45;&gt;statements/index.ts</title>
<path fill="none" stroke="#757575" d="M789.76,-451.2C814.57,-453.54 839.87,-460.87 858,-478.15 923.38,-540.46 833.77,-610.85 894,-678.15 897.54,-682.1 901.66,-685.47 906.13,-688.34"/>
<polygon fill="#757575" stroke="#757575" points="904.68,-691.53 915.13,-693.24 908.03,-685.38 904.68,-691.53"/>
</g>
<!-- handlers/oauthAuthorizationServer.handler.ts&#45;&gt;config.ts -->
<g id="edge32" class="edge">
<title>handlers/oauthAuthorizationServer.handler.ts&#45;&gt;config.ts</title>
<path fill="none" stroke="#757575" d="M847.3,-337.15C880.65,-337.15 913.68,-337.15 938.62,-337.15"/>
<polygon fill="#757575" stroke="#757575" points="938.8,-340.65 948.8,-337.15 938.8,-333.65 938.8,-340.65"/>
</g>
<!-- handlers/oauthAuthorizationServer.handler.ts&#45;&gt;resources.ts -->
<g id="edge34" class="edge">
<title>handlers/oauthAuthorizationServer.handler.ts&#45;&gt;resources.ts</title>
<path fill="none" stroke="#757575" d="M713.23,-325.6C737.01,-293.23 809.53,-201.28 894,-160.15 1000.84,-108.12 1870.99,-50.94 1963,-126.15 2021.47,-173.94 2038.25,-422.45 2042.05,-498.2"/>
<polygon fill="#757575" stroke="#757575" points="2038.56,-498.63 2042.53,-508.45 2045.55,-498.3 2038.56,-498.63"/>
</g>
<!-- handlers/oauthAuthorizationServer.handler.ts&#45;&gt;handlers/schemas/index.ts -->
<g id="edge33" class="edge">
<title>handlers/oauthAuthorizationServer.handler.ts&#45;&gt;handlers/schemas/index.ts</title>
<path fill="none" stroke="#757575" d="M839.11,-348.74C845.64,-351.13 851.98,-353.92 858,-357.15 910.96,-385.57 951.58,-446.47 970.25,-478.5"/>
<polygon fill="#757575" stroke="#757575" points="967.35,-480.47 975.33,-487.44 973.43,-477.02 967.35,-480.47"/>
</g>
<!-- handlers/openidCredentialIssuer.handler.ts&#45;&gt;config.ts -->
<g id="edge35" class="edge">
<title>handlers/openidCredentialIssuer.handler.ts&#45;&gt;config.ts</title>
<path fill="none" stroke="#757575" d="M791.63,-366.63C813.32,-363.64 836.52,-360.36 858,-357.15 884.85,-353.13 914.93,-348.27 938.67,-344.34"/>
<polygon fill="#757575" stroke="#757575" points="939.48,-347.76 948.77,-342.67 938.33,-340.85 939.48,-347.76"/>
</g>
<!-- handlers/openidCredentialIssuer.handler.ts&#45;&gt;resources.ts -->
<g id="edge37" class="edge">
<title>handlers/openidCredentialIssuer.handler.ts&#45;&gt;resources.ts</title>
<path fill="none" stroke="#757575" d="M840.33,-369.41C846.66,-366.04 852.61,-361.98 858,-357.15 907.4,-312.77 845.71,-257.73 894,-212.15 980.44,-130.56 1870.03,-97.08 1963,-171.15 2014.93,-212.52 2035.9,-427.83 2041.42,-498.01"/>
<polygon fill="#757575" stroke="#757575" points="2037.95,-498.62 2042.2,-508.33 2044.93,-498.09 2037.95,-498.62"/>
</g>
<!-- handlers/openidCredentialIssuer.handler.ts&#45;&gt;handlers/schemas/index.ts -->
<g id="edge36" class="edge">
<title>handlers/openidCredentialIssuer.handler.ts&#45;&gt;handlers/schemas/index.ts</title>
<path fill="none" stroke="#757575" d="M737.61,-389.68C768.84,-400.97 817.13,-419.06 858,-437.15 890.29,-451.44 926.28,-469.79 951.04,-482.81"/>
<polygon fill="#757575" stroke="#757575" points="949.47,-485.94 959.94,-487.52 952.74,-479.75 949.47,-485.94"/>
</g>
<!-- handlers/pushedAuthorizationRequest.handler.ts&#45;&gt;config.ts -->
<g id="edge38" class="edge">
<title>handlers/pushedAuthorizationRequest.handler.ts&#45;&gt;config.ts</title>
<path fill="none" stroke="#757575" d="M847.29,-649.44C851.06,-646.98 854.64,-644.22 858,-641.15 912.7,-591.03 866.04,-546.87 894,-478.15 912.92,-431.63 946.64,-383.1 966.23,-356.85"/>
<polygon fill="#757575" stroke="#757575" points="969.05,-358.93 972.3,-348.84 963.47,-354.7 969.05,-358.93"/>
</g>
<!-- handlers/pushedAuthorizationRequest.handler.ts&#45;&gt;errors.ts -->
<g id="edge39" class="edge">
<title>handlers/pushedAuthorizationRequest.handler.ts&#45;&gt;errors.ts</title>
<path fill="none" stroke="#757575" d="M847.31,-672.69C851.13,-675.47 854.71,-678.61 858,-682.15 942.94,-773.45 803.04,-1156.85 894,-1242.15 937.32,-1282.77 1916.88,-1279.57 1963,-1242.15 2023.31,-1193.21 1960.81,-1138.77 1999,-1071.15 2003.83,-1062.6 2011.04,-1054.8 2018.24,-1048.36"/>
<polygon fill="#757575" stroke="#757575" points="2020.51,-1051.02 2025.93,-1041.92 2016.01,-1045.65 2020.51,-1051.02"/>
</g>
<!-- handlers/pushedAuthorizationRequest.handler.ts&#45;&gt;handlers/schemas/index.ts -->
<g id="edge40" class="edge">
<title>handlers/pushedAuthorizationRequest.handler.ts&#45;&gt;handlers/schemas/index.ts</title>
<path fill="none" stroke="#757575" d="M839.11,-649.56C845.64,-647.16 851.98,-644.38 858,-641.15 910.96,-612.73 951.58,-551.82 970.25,-519.8"/>
<polygon fill="#757575" stroke="#757575" points="973.43,-521.28 975.33,-510.85 967.35,-517.82 973.43,-521.28"/>
</g>
<!-- handlers/pushedAuthorizationRequest.handler.ts&#45;&gt;statements/index.ts -->
<g id="edge41" class="edge">
<title>handlers/pushedAuthorizationRequest.handler.ts&#45;&gt;statements/index.ts</title>
<path fill="none" stroke="#757575" d="M793.28,-672.65C814.5,-675.59 837.08,-678.85 858,-682.15 874.81,-684.8 892.87,-687.88 909.85,-690.88"/>
<polygon fill="#757575" stroke="#757575" points="909.24,-694.33 919.7,-692.64 910.47,-687.44 909.24,-694.33"/>
</g>
<!-- handlers/token.handler.ts&#45;&gt;config.ts -->
<g id="edge50" class="edge">
<title>handlers/token.handler.ts&#45;&gt;config.ts</title>
<path fill="none" stroke="#757575" d="M432.89,-684.37C438.51,-642.61 463.54,-500.7 550,-437.15 661.18,-355.43 733.67,-457.99 858,-398.15 878.11,-388.47 874.75,-374.43 894,-363.15 907.66,-355.14 923.99,-349.42 938.83,-345.43"/>
<polygon fill="#757575" stroke="#757575" points="939.95,-348.75 948.81,-342.93 938.25,-341.96 939.95,-348.75"/>
</g>
<!-- handlers/token.handler.ts&#45;&gt;errors.ts -->
<g id="edge51" class="edge">
<title>handlers/token.handler.ts&#45;&gt;errors.ts</title>
<path fill="none" stroke="#757575" d="M434.01,-707.84C454.8,-801.23 607.13,-1422.15 981.5,-1422.15 981.5,-1422.15 981.5,-1422.15 1336,-1422.15 1405.72,-1422.15 1911.97,-1445.65 1963,-1398.15 2016.51,-1348.33 1966.21,-1136.49 1999,-1071.15 2003.4,-1062.38 2010.5,-1054.52 2017.73,-1048.08"/>
<polygon fill="#757575" stroke="#757575" points="2020,-1050.75 2025.5,-1041.69 2015.55,-1045.34 2020,-1050.75"/>
</g>
<!-- handlers/token.handler.ts&#45;&gt;handlers/schemas/index.ts -->
<g id="edge52" class="edge">
<title>handlers/token.handler.ts&#45;&gt;handlers/schemas/index.ts</title>
<path fill="none" stroke="#757575" d="M441.52,-684.44C460.35,-663.33 503.35,-619.2 550,-599.15 676.77,-544.66 725.87,-599.92 858,-560.15 892.92,-549.64 930.07,-530 954.39,-515.84"/>
<polygon fill="#757575" stroke="#757575" points="956.23,-518.82 963.06,-510.71 952.67,-512.79 956.23,-518.82"/>
</g>
<!-- handlers/token/authorizationCode.ts -->
<g id="node26" class="node">
<title>handlers/token/authorizationCode.ts</title>
<path fill="none" stroke="#c6c5fe" d="M812.83,-754.65C812.83,-754.65 595.17,-754.65 595.17,-754.65 591.33,-754.65 587.5,-750.81 587.5,-746.98 587.5,-746.98 587.5,-739.31 587.5,-739.31 587.5,-735.48 591.33,-731.65 595.17,-731.65 595.17,-731.65 812.83,-731.65 812.83,-731.65 816.67,-731.65 820.5,-735.48 820.5,-739.31 820.5,-739.31 820.5,-746.98 820.5,-746.98 820.5,-750.81 816.67,-754.65 812.83,-754.65"/>
<text text-anchor="middle" x="704" y="-739.45" font-family="Arial" font-size="14.00" fill="#c6c5fe">handlers/token/authorizationCode.ts</text>
</g>
<!-- handlers/token.handler.ts&#45;&gt;handlers/token/authorizationCode.ts -->
<g id="edge53" class="edge">
<title>handlers/token.handler.ts&#45;&gt;handlers/token/authorizationCode.ts</title>
<path fill="none" stroke="#757575" d="M477.44,-707.67C499.32,-712.89 525.91,-718.84 550,-723.15 564.14,-725.68 579.07,-728.02 593.84,-730.15"/>
<polygon fill="#757575" stroke="#757575" points="593.63,-733.66 604.03,-731.59 594.61,-726.73 593.63,-733.66"/>
</g>
<!-- handlers/token/clientCredentials.ts -->
<g id="node27" class="node">
<title>handlers/token/clientCredentials.ts</title>
<path fill="none" stroke="#c6c5fe" d="M807.83,-713.65C807.83,-713.65 600.17,-713.65 600.17,-713.65 596.33,-713.65 592.5,-709.81 592.5,-705.98 592.5,-705.98 592.5,-698.31 592.5,-698.31 592.5,-694.48 596.33,-690.65 600.17,-690.65 600.17,-690.65 807.83,-690.65 807.83,-690.65 811.67,-690.65 815.5,-694.48 815.5,-698.31 815.5,-698.31 815.5,-705.98 815.5,-705.98 815.5,-709.81 811.67,-713.65 807.83,-713.65"/>
<text text-anchor="middle" x="704" y="-698.45" font-family="Arial" font-size="14.00" fill="#c6c5fe">handlers/token/clientCredentials.ts</text>
</g>
<!-- handlers/token.handler.ts&#45;&gt;handlers/token/clientCredentials.ts -->
<g id="edge54" class="edge">
<title>handlers/token.handler.ts&#45;&gt;handlers/token/clientCredentials.ts</title>
<path fill="none" stroke="#757575" d="M514.06,-697.97C535.54,-698.45 559.12,-698.97 582.12,-699.48"/>
<polygon fill="#757575" stroke="#757575" points="582.21,-702.98 592.29,-699.7 582.37,-695.98 582.21,-702.98"/>
</g>
<!-- handlers/token/authorizationCode.ts&#45;&gt;config.ts -->
<g id="edge55" class="edge">
<title>handlers/token/authorizationCode.ts&#45;&gt;config.ts</title>
<path fill="none" stroke="#757575" d="M820.81,-744.51C834.69,-740.18 847.59,-733.39 858,-723.15 936.44,-645.95 856.19,-581.51 894,-478.15 911.25,-430.99 945.57,-382.68 965.72,-356.66"/>
<polygon fill="#757575" stroke="#757575" points="968.54,-358.74 971.97,-348.72 963.03,-354.41 968.54,-358.74"/>
</g>
<!-- handlers/token/authorizationCode.ts&#45;&gt;errors.ts -->
<g id="edge56" class="edge">
<title>handlers/token/authorizationCode.ts&#45;&gt;errors.ts</title>
<path fill="none" stroke="#757575" d="M704.56,-754.71C702.65,-822.41 702.64,-1169.66 894,-1318.15 987.93,-1391.03 1873.97,-1443.94 1963,-1365.15 2012.29,-1321.52 1969.12,-1129.79 1999,-1071.15 2003.46,-1062.4 2010.57,-1054.55 2017.79,-1048.12"/>
<polygon fill="#757575" stroke="#757575" points="2020.07,-1050.78 2025.55,-1041.72 2015.61,-1045.38 2020.07,-1050.78"/>
</g>
<!-- handlers/token/authorizationCode.ts&#45;&gt;statements/index.ts -->
<g id="edge57" class="edge">
<title>handlers/token/authorizationCode.ts&#45;&gt;statements/index.ts</title>
<path fill="none" stroke="#757575" d="M795.66,-731.64C816.17,-728.94 837.84,-726.01 858,-723.15 873.24,-720.98 889.52,-718.55 905.09,-716.18"/>
<polygon fill="#757575" stroke="#757575" points="905.85,-719.6 915.2,-714.63 904.79,-712.68 905.85,-719.6"/>
</g>
<!-- handlers/token/clientCredentials.ts&#45;&gt;config.ts -->
<g id="edge58" class="edge">
<title>handlers/token/clientCredentials.ts&#45;&gt;config.ts</title>
<path fill="none" stroke="#757575" d="M815.52,-704.67C831.32,-700.49 846.19,-693.44 858,-682.15 924.54,-618.52 861.13,-564.15 894,-478.15 911.93,-431.24 946,-382.85 965.93,-356.73"/>
<polygon fill="#757575" stroke="#757575" points="968.74,-358.81 972.1,-348.77 963.21,-354.53 968.74,-358.81"/>
</g>
<!-- handlers/token/clientCredentials.ts&#45;&gt;errors.ts -->
<g id="edge59" class="edge">
<title>handlers/token/clientCredentials.ts&#45;&gt;errors.ts</title>
<path fill="none" stroke="#757575" d="M815.53,-698.98C831.62,-703.35 846.58,-710.88 858,-723.15 942.5,-813.95 803.51,-1195.32 894,-1280.15 937.33,-1320.76 1917.58,-1318.41 1963,-1280.15 2035.08,-1219.42 1954.17,-1154.06 1999,-1071.15 2003.67,-1062.51 2010.84,-1054.69 2018.05,-1048.25"/>
<polygon fill="#757575" stroke="#757575" points="2020.32,-1050.92 2025.77,-1041.83 2015.84,-1045.53 2020.32,-1050.92"/>
</g>
<!-- handlers/token/clientCredentials.ts&#45;&gt;statements/index.ts -->
<g id="edge60" class="edge">
<title>handlers/token/clientCredentials.ts&#45;&gt;statements/index.ts</title>
<path fill="none" stroke="#757575" d="M815.87,-702.95C845.71,-703.16 877.33,-703.39 904.85,-703.59"/>
<polygon fill="#757575" stroke="#757575" points="905.16,-707.09 915.18,-703.67 905.21,-700.1 905.16,-707.09"/>
</g>
<!-- index.ts -->
<g id="node28" class="node">
<title>index.ts</title>
<path fill="none" stroke="#c6c5fe" d="M55.33,-290.65C55.33,-290.65 7.67,-290.65 7.67,-290.65 3.83,-290.65 0,-286.81 0,-282.98 0,-282.98 0,-275.31 0,-275.31 0,-271.48 3.83,-267.65 7.67,-267.65 7.67,-267.65 55.33,-267.65 55.33,-267.65 59.17,-267.65 63,-271.48 63,-275.31 63,-275.31 63,-282.98 63,-282.98 63,-286.81 59.17,-290.65 55.33,-290.65"/>
<text text-anchor="middle" x="31.5" y="-275.45" font-family="Arial" font-size="14.00" fill="#c6c5fe">index.ts</text>
</g>
<!-- index.ts&#45;&gt;config.ts -->
<g id="edge61" class="edge">
<title>index.ts&#45;&gt;config.ts</title>
<path fill="none" stroke="#757575" d="M63.11,-274.56C105.21,-268.65 183.42,-259.15 250.5,-259.15 250.5,-259.15 250.5,-259.15 431.5,-259.15 622.11,-259.15 670.58,-269.44 858,-304.15 885.3,-309.2 915.42,-317.2 939.08,-324.06"/>
<polygon fill="#757575" stroke="#757575" points="938.21,-327.45 948.8,-326.91 940.19,-320.73 938.21,-327.45"/>
</g>
<!-- index.ts&#45;&gt;resources.ts -->
<g id="edge64" class="edge">
<title>index.ts&#45;&gt;resources.ts</title>
<path fill="none" stroke="#757575" d="M37.46,-267.45C57.19,-223 134.62,-67.15 250.5,-67.15 250.5,-67.15 250.5,-67.15 1336,-67.15 1614.79,-67.15 1751.46,95.45 1963,-86.15 2026.44,-140.61 2039.86,-417.69 2042.43,-498.19"/>
<polygon fill="#757575" stroke="#757575" points="2038.95,-498.7 2042.74,-508.59 2045.94,-498.49 2038.95,-498.7"/>
</g>
<!-- index.ts&#45;&gt;core.ts -->
<g id="edge62" class="edge">
<title>index.ts&#45;&gt;core.ts</title>
<path fill="none" stroke="#757575" d="M43.65,-290.77C59.62,-307.42 89.19,-338.25 108.34,-358.22"/>
<polygon fill="#757575" stroke="#757575" points="105.91,-360.74 115.36,-365.54 110.97,-355.9 105.91,-360.74"/>
</g>
<!-- index.ts&#45;&gt;handlers/index.ts -->
<g id="edge63" class="edge">
<title>index.ts&#45;&gt;handlers/index.ts</title>
<path fill="none" stroke="#757575" d="M36.59,-290.93C45.05,-313.89 66.47,-365.17 99,-397.15 130.25,-427.87 175.37,-450.29 208.23,-463.84"/>
<polygon fill="#757575" stroke="#757575" points="207,-467.12 217.58,-467.6 209.61,-460.62 207,-467.12"/>
</g>
<!-- statements/grants/generateIssuerGrants.ts -->
<g id="node29" class="node">
<title>statements/grants/generateIssuerGrants.ts</title>
<path fill="none" stroke="#c6c5fe" d="M1910.33,-346.65C1910.33,-346.65 1651.67,-346.65 1651.67,-346.65 1647.83,-346.65 1644,-342.81 1644,-338.98 1644,-338.98 1644,-331.31 1644,-331.31 1644,-327.48 1647.83,-323.65 1651.67,-323.65 1651.67,-323.65 1910.33,-323.65 1910.33,-323.65 1914.17,-323.65 1918,-327.48 1918,-331.31 1918,-331.31 1918,-338.98 1918,-338.98 1918,-342.81 1914.17,-346.65 1910.33,-346.65"/>
<text text-anchor="middle" x="1781" y="-331.45" font-family="Arial" font-size="14.00" fill="#c6c5fe">statements/grants/generateIssuerGrants.ts</text>
</g>
<!-- statements/grants/generateIssuerGrants.ts&#45;&gt;resources.ts -->
<g id="edge65" class="edge">
<title>statements/grants/generateIssuerGrants.ts&#45;&gt;resources.ts</title>
<path fill="none" stroke="#757575" d="M1918.04,-334.95C1934.13,-339.21 1949.57,-345.67 1963,-355.15 2011.79,-389.59 2032.03,-462.15 2039.37,-498.48"/>
<polygon fill="#757575" stroke="#757575" points="2035.96,-499.32 2041.25,-508.5 2042.84,-498.03 2035.96,-499.32"/>
</g>
<!-- statements/grants/index.ts&#45;&gt;statements/grants/generateIssuerGrants.ts -->
<g id="edge66" class="edge">
<title>statements/grants/index.ts&#45;&gt;statements/grants/generateIssuerGrants.ts</title>
<path fill="none" stroke="#757575" d="M1384.78,-674.7C1436.27,-683.72 1516.29,-688.18 1563,-643.15 1655.86,-553.61 1507.14,-445.71 1599,-355.15 1609.05,-345.23 1621.11,-338.17 1634.16,-333.27"/>
<polygon fill="#757575" stroke="#757575" points="1635.43,-336.53 1643.83,-330.07 1633.23,-329.89 1635.43,-336.53"/>
</g>
<!-- statements/locations/authorizationCodeRedirection.ts -->
<g id="node35" class="node">
<title>statements/locations/authorizationCodeRedirection.ts</title>
<path fill="none" stroke="#c6c5fe" d="M1941.33,-428.65C1941.33,-428.65 1620.67,-428.65 1620.67,-428.65 1616.83,-428.65 1613,-424.81 1613,-420.98 1613,-420.98 1613,-413.31 1613,-413.31 1613,-409.48 1616.83,-405.65 1620.67,-405.65 1620.67,-405.65 1941.33,-405.65 1941.33,-405.65 1945.17,-405.65 1949,-409.48 1949,-413.31 1949,-413.31 1949,-420.98 1949,-420.98 1949,-424.81 1945.17,-428.65 1941.33,-428.65"/>
<text text-anchor="middle" x="1781" y="-413.45" font-family="Arial" font-size="14.00" fill="#c6c5fe">statements/locations/authorizationCodeRedirection.ts</text>
</g>
<!-- statements/locations/index.ts&#45;&gt;statements/locations/authorizationCodeRedirection.ts -->
<g id="edge77" class="edge">
<title>statements/locations/index.ts&#45;&gt;statements/locations/authorizationCodeRedirection.ts</title>
<path fill="none" stroke="#757575" d="M1384.78,-756.7C1436.27,-765.72 1516.29,-770.18 1563,-725.15 1655.86,-635.61 1507.14,-527.71 1599,-437.15 1600.74,-435.43 1602.54,-433.81 1604.39,-432.26"/>
<polygon fill="#757575" stroke="#757575" points="1606.89,-434.76 1612.84,-425.99 1602.72,-429.14 1606.89,-434.76"/>
</g>
<!-- statements/locations/generateAuthorizationRequestUri.ts -->
<g id="node36" class="node">
<title>statements/locations/generateAuthorizationRequestUri.ts</title>
<path fill="none" stroke="#c6c5fe" d="M1952.33,-469.65C1952.33,-469.65 1609.67,-469.65 1609.67,-469.65 1605.83,-469.65 1602,-465.81 1602,-461.98 1602,-461.98 1602,-454.31 1602,-454.31 1602,-450.48 1605.83,-446.65 1609.67,-446.65 1609.67,-446.65 1952.33,-446.65 1952.33,-446.65 1956.17,-446.65 1960,-450.48 1960,-454.31 1960,-454.31 1960,-461.98 1960,-461.98 1960,-465.81 1956.17,-469.65 1952.33,-469.65"/>
<text text-anchor="middle" x="1781" y="-454.45" font-family="Arial" font-size="14.00" fill="#c6c5fe">statements/locations/generateAuthorizationRequestUri.ts</text>
</g>
<!-- statements/locations/index.ts&#45;&gt;statements/locations/generateAuthorizationRequestUri.ts -->
<g id="edge78" class="edge">
<title>statements/locations/index.ts&#45;&gt;statements/locations/generateAuthorizationRequestUri.ts</title>
<path fill="none" stroke="#757575" d="M1385.55,-756.68C1436.91,-765.43 1516.12,-769.43 1563,-725.15 1643.64,-648.96 1519.21,-555.22 1599,-478.15 1599.7,-477.47 1600.4,-476.81 1601.12,-476.17"/>
<polygon fill="#757575" stroke="#757575" points="1603.51,-478.73 1609.1,-469.73 1599.12,-473.28 1603.51,-478.73"/>
</g>
<!-- statements/locations/generateCredentialOffer.ts -->
<g id="node37" class="node">
<title>statements/locations/generateCredentialOffer.ts</title>
<path fill="none" stroke="#c6c5fe" d="M1924.83,-592.65C1924.83,-592.65 1637.17,-592.65 1637.17,-592.65 1633.33,-592.65 1629.5,-588.81 1629.5,-584.98 1629.5,-584.98 1629.5,-577.31 1629.5,-577.31 1629.5,-573.48 1633.33,-569.65 1637.17,-569.65 1637.17,-569.65 1924.83,-569.65 1924.83,-569.65 1928.67,-569.65 1932.5,-573.48 1932.5,-577.31 1932.5,-577.31 1932.5,-584.98 1932.5,-584.98 1932.5,-588.81 1928.67,-592.65 1924.83,-592.65"/>
<text text-anchor="middle" x="1781" y="-577.45" font-family="Arial" font-size="14.00" fill="#c6c5fe">statements/locations/generateCredentialOffer.ts</text>
</g>
<!-- statements/locations/index.ts&#45;&gt;statements/locations/generateCredentialOffer.ts -->
<g id="edge79" class="edge">
<title>statements/locations/index.ts&#45;&gt;statements/locations/generateCredentialOffer.ts</title>
<path fill="none" stroke="#757575" d="M1393.96,-756.71C1444.29,-763.22 1516.24,-763.59 1563,-725.15 1607.33,-688.7 1555.08,-638.08 1599,-601.15 1605.38,-595.78 1612.37,-591.31 1619.77,-587.6"/>
<polygon fill="#757575" stroke="#757575" points="1621.65,-590.59 1629.34,-583.31 1618.79,-584.21 1621.65,-590.59"/>
</g>
<!-- statements/resources/issuerClient.ts -->
<g id="node38" class="node">
<title>statements/resources/issuerClient.ts</title>
<path fill="none" stroke="#c6c5fe" d="M1890.83,-387.65C1890.83,-387.65 1671.17,-387.65 1671.17,-387.65 1667.33,-387.65 1663.5,-383.81 1663.5,-379.98 1663.5,-379.98 1663.5,-372.31 1663.5,-372.31 1663.5,-368.48 1667.33,-364.65 1671.17,-364.65 1671.17,-364.65 1890.83,-364.65 1890.83,-364.65 1894.67,-364.65 1898.5,-368.48 1898.5,-372.31 1898.5,-372.31 1898.5,-379.98 1898.5,-379.98 1898.5,-383.81 1894.67,-387.65 1890.83,-387.65"/>
<text text-anchor="middle" x="1781" y="-372.45" font-family="Arial" font-size="14.00" fill="#c6c5fe">statements/resources/issuerClient.ts</text>
</g>
<!-- statements/resources/index.ts&#45;&gt;statements/resources/issuerClient.ts -->
<g id="edge80" class="edge">
<title>statements/resources/index.ts&#45;&gt;statements/resources/issuerClient.ts</title>
<path fill="none" stroke="#757575" d="M1384.78,-715.7C1436.27,-724.72 1516.29,-729.18 1563,-684.15 1655.86,-594.61 1507.14,-486.71 1599,-396.15 1613.8,-381.56 1632.94,-373.14 1653.21,-368.69"/>
<polygon fill="#757575" stroke="#757575" points="1654.05,-372.09 1663.23,-366.81 1652.76,-365.21 1654.05,-372.09"/>
</g>
<!-- statements/tokens/generateAccessToken.ts -->
<g id="node39" class="node">
<title>statements/tokens/generateAccessToken.ts</title>
<path fill="none" stroke="#c6c5fe" d="M1912.33,-551.65C1912.33,-551.65 1649.67,-551.65 1649.67,-551.65 1645.83,-551.65 1642,-547.81 1642,-543.98 1642,-543.98 1642,-536.31 1642,-536.31 1642,-532.48 1645.83,-528.65 1649.67,-528.65 1649.67,-528.65 1912.33,-528.65 1912.33,-528.65 1916.17,-528.65 1920,-532.48 1920,-536.31 1920,-536.31 1920,-543.98 1920,-543.98 1920,-547.81 1916.17,-551.65 1912.33,-551.65"/>
<text text-anchor="middle" x="1781" y="-536.45" font-family="Arial" font-size="14.00" fill="#c6c5fe">statements/tokens/generateAccessToken.ts</text>
</g>
<!-- statements/tokens/index.ts&#45;&gt;statements/tokens/generateAccessToken.ts -->
<g id="edge88" class="edge">
<title>statements/tokens/index.ts&#45;&gt;statements/tokens/generateAccessToken.ts</title>
<path fill="none" stroke="#757575" d="M1386.72,-797.65C1437.91,-806.01 1515.94,-809.36 1563,-766.15 1631.46,-703.28 1531.24,-623.77 1599,-560.15 1608.64,-551.09 1619.97,-544.47 1632.17,-539.71"/>
<polygon fill="#757575" stroke="#757575" points="1633.35,-543.01 1641.65,-536.43 1631.06,-536.39 1633.35,-543.01"/>
</g>
<!-- statements/tokens/generateAuthorizationCode.ts -->
<g id="node40" class="node">
<title>statements/tokens/generateAuthorizationCode.ts</title>
<path fill="none" stroke="#c6c5fe" d="M1927.83,-674.65C1927.83,-674.65 1634.17,-674.65 1634.17,-674.65 1630.33,-674.65 1626.5,-670.81 1626.5,-666.98 1626.5,-666.98 1626.5,-659.31 1626.5,-659.31 1626.5,-655.48 1630.33,-651.65 1634.17,-651.65 1634.17,-651.65 1927.83,-651.65 1927.83,-651.65 1931.67,-651.65 1935.5,-655.48 1935.5,-659.31 1935.5,-659.31 1935.5,-666.98 1935.5,-666.98 1935.5,-670.81 1931.67,-674.65 1927.83,-674.65"/>
<text text-anchor="middle" x="1781" y="-659.45" font-family="Arial" font-size="14.00" fill="#c6c5fe">statements/tokens/generateAuthorizationCode.ts</text>
</g>
<!-- statements/tokens/index.ts&#45;&gt;statements/tokens/generateAuthorizationCode.ts -->
<g id="edge89" class="edge">
<title>statements/tokens/index.ts&#45;&gt;statements/tokens/generateAuthorizationCode.ts</title>
<path fill="none" stroke="#757575" d="M1408.74,-797.67C1456.83,-801.27 1518.89,-797.81 1563,-766.15 1595.34,-742.94 1566.99,-707.8 1599,-684.15 1604.64,-679.98 1610.66,-676.38 1616.96,-673.27"/>
<polygon fill="#757575" stroke="#757575" points="1618.66,-676.34 1626.36,-669.07 1615.8,-669.95 1618.66,-676.34"/>
</g>
<!-- statements/tokens/generateCNonce.ts -->
<g id="node41" class="node">
<title>statements/tokens/generateCNonce.ts</title>
<path fill="none" stroke="#c6c5fe" d="M1896.83,-510.65C1896.83,-510.65 1665.17,-510.65 1665.17,-510.65 1661.33,-510.65 1657.5,-506.81 1657.5,-502.98 1657.5,-502.98 1657.5,-495.31 1657.5,-495.31 1657.5,-491.48 1661.33,-487.65 1665.17,-487.65 1665.17,-487.65 1896.83,-487.65 1896.83,-487.65 1900.67,-487.65 1904.5,-491.48 1904.5,-495.31 1904.5,-495.31 1904.5,-502.98 1904.5,-502.98 1904.5,-506.81 1900.67,-510.65 1896.83,-510.65"/>
<text text-anchor="middle" x="1781" y="-495.45" font-family="Arial" font-size="14.00" fill="#c6c5fe">statements/tokens/generateCNonce.ts</text>
</g>
<!-- statements/tokens/index.ts&#45;&gt;statements/tokens/generateCNonce.ts -->
<g id="edge90" class="edge">
<title>statements/tokens/index.ts&#45;&gt;statements/tokens/generateCNonce.ts</title>
<path fill="none" stroke="#757575" d="M1385.55,-797.68C1436.91,-806.43 1516.12,-810.43 1563,-766.15 1643.64,-689.96 1519.21,-596.22 1599,-519.15 1612.49,-506.11 1629.45,-498.05 1647.55,-493.35"/>
<polygon fill="#757575" stroke="#757575" points="1648.42,-496.74 1657.41,-491.13 1646.88,-489.91 1648.42,-496.74"/>
</g>
<!-- statements/tokens/generateCredentials.ts -->
<g id="node42" class="node">
<title>statements/tokens/generateCredentials.ts</title>
<path fill="none" stroke="#c6c5fe" d="M1906.33,-715.65C1906.33,-715.65 1655.67,-715.65 1655.67,-715.65 1651.83,-715.65 1648,-711.81 1648,-707.98 1648,-707.98 1648,-700.31 1648,-700.31 1648,-696.48 1651.83,-692.65 1655.67,-692.65 1655.67,-692.65 1906.33,-692.65 1906.33,-692.65 1910.17,-692.65 1914,-696.48 1914,-700.31 1914,-700.31 1914,-707.98 1914,-707.98 1914,-711.81 1910.17,-715.65 1906.33,-715.65"/>
<text text-anchor="middle" x="1781" y="-700.45" font-family="Arial" font-size="14.00" fill="#c6c5fe">statements/tokens/generateCredentials.ts</text>
</g>
<!-- statements/tokens/index.ts&#45;&gt;statements/tokens/generateCredentials.ts -->
<g id="edge91" class="edge">
<title>statements/tokens/index.ts&#45;&gt;statements/tokens/generateCredentials.ts</title>
<path fill="none" stroke="#757575" d="M1423.72,-793.38C1467.69,-793.39 1520.48,-787.7 1563,-766.15 1584.63,-755.19 1577.52,-736.41 1599,-725.15 1611.06,-718.82 1624.19,-714.03 1637.67,-710.44"/>
<polygon fill="#757575" stroke="#757575" points="1638.66,-713.8 1647.55,-708.03 1637,-707 1638.66,-713.8"/>
</g>
<!-- statements/validations/validateAccessToken.ts -->
<g id="node43" class="node">
<title>statements/validations/validateAccessToken.ts</title>
<path fill="none" stroke="#c6c5fe" d="M1920.83,-959.65C1920.83,-959.65 1641.17,-959.65 1641.17,-959.65 1637.33,-959.65 1633.5,-955.81 1633.5,-951.98 1633.5,-951.98 1633.5,-944.31 1633.5,-944.31 1633.5,-940.48 1637.33,-936.65 1641.17,-936.65 1641.17,-936.65 1920.83,-936.65 1920.83,-936.65 1924.67,-936.65 1928.5,-940.48 1928.5,-944.31 1928.5,-944.31 1928.5,-951.98 1928.5,-951.98 1928.5,-955.81 1924.67,-959.65 1920.83,-959.65"/>
<text text-anchor="middle" x="1781" y="-944.45" font-family="Arial" font-size="14.00" fill="#c6c5fe">statements/validations/validateAccessToken.ts</text>
</g>
<!-- statements/validations/index.ts&#45;&gt;statements/validations/validateAccessToken.ts -->
<g id="edge92" class="edge">
<title>statements/validations/index.ts&#45;&gt;statements/validations/validateAccessToken.ts</title>
<path fill="none" stroke="#757575" d="M1435.64,-931.86C1490.86,-934.47 1560.77,-937.78 1623.15,-940.73"/>
<polygon fill="#757575" stroke="#757575" points="1623.34,-944.24 1633.49,-941.22 1623.67,-937.25 1623.34,-944.24"/>
</g>
<!-- statements/validations/validateAuthorizationCode.ts -->
<g id="node44" class="node">
<title>statements/validations/validateAuthorizationCode.ts</title>
<path fill="none" stroke="#c6c5fe" d="M1936.33,-1123.65C1936.33,-1123.65 1625.67,-1123.65 1625.67,-1123.65 1621.83,-1123.65 1618,-1119.81 1618,-1115.98 1618,-1115.98 1618,-1108.31 1618,-1108.31 1618,-1104.48 1621.83,-1100.65 1625.67,-1100.65 1625.67,-1100.65 1936.33,-1100.65 1936.33,-1100.65 1940.17,-1100.65 1944,-1104.48 1944,-1108.31 1944,-1108.31 1944,-1115.98 1944,-1115.98 1944,-1119.81 1940.17,-1123.65 1936.33,-1123.65"/>
<text text-anchor="middle" x="1781" y="-1108.45" font-family="Arial" font-size="14.00" fill="#c6c5fe">statements/validations/validateAuthorizationCode.ts</text>
</g>
<!-- statements/validations/index.ts&#45;&gt;statements/validations/validateAuthorizationCode.ts -->
<g id="edge93" class="edge">
<title>statements/validations/index.ts&#45;&gt;statements/validations/validateAuthorizationCode.ts</title>
<path fill="none" stroke="#757575" d="M1349.37,-938.71C1386.19,-969.8 1493.38,-1055.36 1599,-1092.15 1605.32,-1094.35 1611.83,-1096.32 1618.46,-1098.09"/>
<polygon fill="#757575" stroke="#757575" points="1617.69,-1101.51 1628.24,-1100.54 1619.39,-1094.72 1617.69,-1101.51"/>
</g>
<!-- statements/validations/validateClientCredentials.ts -->
<g id="node45" class="node">
<title>statements/validations/validateClientCredentials.ts</title>
<path fill="none" stroke="#c6c5fe" d="M1932.33,-756.65C1932.33,-756.65 1629.67,-756.65 1629.67,-756.65 1625.83,-756.65 1622,-752.81 1622,-748.98 1622,-748.98 1622,-741.31 1622,-741.31 1622,-737.48 1625.83,-733.65 1629.67,-733.65 1629.67,-733.65 1932.33,-733.65 1932.33,-733.65 1936.17,-733.65 1940,-737.48 1940,-741.31 1940,-741.31 1940,-748.98 1940,-748.98 1940,-752.81 1936.17,-756.65 1932.33,-756.65"/>
<text text-anchor="middle" x="1781" y="-741.45" font-family="Arial" font-size="14.00" fill="#c6c5fe">statements/validations/validateClientCredentials.ts</text>
</g>
<!-- statements/validations/index.ts&#45;&gt;statements/validations/validateClientCredentials.ts -->
<g id="edge94" class="edge">
<title>statements/validations/index.ts&#45;&gt;statements/validations/validateClientCredentials.ts</title>
<path fill="none" stroke="#757575" d="M1365.6,-915.62C1410.97,-897.08 1499.15,-857.56 1563,-807.15 1582.03,-792.12 1577.52,-777.41 1599,-766.15 1603.33,-763.88 1607.79,-761.81 1612.35,-759.92"/>
<polygon fill="#757575" stroke="#757575" points="1613.77,-763.13 1621.86,-756.29 1611.27,-756.59 1613.77,-763.13"/>
</g>
<!-- statements/validations/validateCodeVerifier.ts -->
<g id="node46" class="node">
<title>statements/validations/validateCodeVerifier.ts</title>
<path fill="none" stroke="#c6c5fe" d="M1917.83,-1000.65C1917.83,-1000.65 1644.17,-1000.65 1644.17,-1000.65 1640.33,-1000.65 1636.5,-996.81 1636.5,-992.98 1636.5,-992.98 1636.5,-985.31 1636.5,-985.31 1636.5,-981.48 1640.33,-977.65 1644.17,-977.65 1644.17,-977.65 1917.83,-977.65 1917.83,-977.65 1921.67,-977.65 1925.5,-981.48 1925.5,-985.31 1925.5,-985.31 1925.5,-992.98 1925.5,-992.98 1925.5,-996.81 1921.67,-1000.65 1917.83,-1000.65"/>
<text text-anchor="middle" x="1781" y="-985.45" font-family="Arial" font-size="14.00" fill="#c6c5fe">statements/validations/validateCodeVerifier.ts</text>
</g>
<!-- statements/validations/index.ts&#45;&gt;statements/validations/validateCodeVerifier.ts -->
<g id="edge95" class="edge">
<title>statements/validations/index.ts&#45;&gt;statements/validations/validateCodeVerifier.ts</title>
<path fill="none" stroke="#757575" d="M1402.34,-938.65C1455.44,-947.64 1531.87,-960.08 1599,-969.15 1618.03,-971.72 1638.22,-974.19 1657.94,-976.47"/>
<polygon fill="#757575" stroke="#757575" points="1657.56,-979.95 1667.9,-977.61 1658.36,-973 1657.56,-979.95"/>
</g>
<!-- statements/validations/validateCredentialConfigurations.ts -->
<g id="node47" class="node">
<title>statements/validations/validateCredentialConfigurations.ts</title>
<path fill="none" stroke="#c6c5fe" d="M1955.33,-633.65C1955.33,-633.65 1606.67,-633.65 1606.67,-633.65 1602.83,-633.65 1599,-629.81 1599,-625.98 1599,-625.98 1599,-618.31 1599,-618.31 1599,-614.48 1602.83,-610.65 1606.67,-610.65 1606.67,-610.65 1955.33,-610.65 1955.33,-610.65 1959.17,-610.65 1963,-614.48 1963,-618.31 1963,-618.31 1963,-625.98 1963,-625.98 1963,-629.81 1959.17,-633.65 1955.33,-633.65"/>
<text text-anchor="middle" x="1781" y="-618.45" font-family="Arial" font-size="14.00" fill="#c6c5fe">statements/validations/validateCredentialConfigurations.ts</text>
</g>
<!-- statements/validations/index.ts&#45;&gt;statements/validations/validateCredentialConfigurations.ts -->
<g id="edge96" class="edge">
<title>statements/validations/index.ts&#45;&gt;statements/validations/validateCredentialConfigurations.ts</title>
<path fill="none" stroke="#757575" d="M1381.49,-915.63C1433.57,-900 1517.52,-866.93 1563,-807.15 1608.18,-747.75 1543.65,-693.2 1599,-643.15 1600.33,-641.94 1601.69,-640.78 1603.08,-639.66"/>
<polygon fill="#757575" stroke="#757575" points="1605.27,-642.4 1611.32,-633.7 1601.17,-636.73 1605.27,-642.4"/>
</g>
<!-- statements/validations/validateDpop.ts -->
<g id="node48" class="node">
<title>statements/validations/validateDpop.ts</title>
<path fill="none" stroke="#c6c5fe" d="M1897.33,-1041.65C1897.33,-1041.65 1664.67,-1041.65 1664.67,-1041.65 1660.83,-1041.65 1657,-1037.81 1657,-1033.98 1657,-1033.98 1657,-1026.31 1657,-1026.31 1657,-1022.48 1660.83,-1018.65 1664.67,-1018.65 1664.67,-1018.65 1897.33,-1018.65 1897.33,-1018.65 1901.17,-1018.65 1905,-1022.48 1905,-1026.31 1905,-1026.31 1905,-1033.98 1905,-1033.98 1905,-1037.81 1901.17,-1041.65 1897.33,-1041.65"/>
<text text-anchor="middle" x="1781" y="-1026.45" font-family="Arial" font-size="14.00" fill="#c6c5fe">statements/validations/validateDpop.ts</text>
</g>
<!-- statements/validations/index.ts&#45;&gt;statements/validations/validateDpop.ts -->
<g id="edge97" class="edge">
<title>statements/validations/index.ts&#45;&gt;statements/validations/validateDpop.ts</title>
<path fill="none" stroke="#757575" d="M1365.86,-938.69C1414.11,-956.85 1512.56,-991.92 1599,-1010.15 1614.37,-1013.39 1630.59,-1016.13 1646.76,-1018.43"/>
<polygon fill="#757575" stroke="#757575" points="1646.42,-1021.92 1656.81,-1019.81 1647.38,-1014.98 1646.42,-1021.92"/>
</g>
<!-- statements/validations/validateIssuerState.ts -->
<g id="node49" class="node">
<title>statements/validations/validateIssuerState.ts</title>
<path fill="none" stroke="#c6c5fe" d="M1915.33,-1355.65C1915.33,-1355.65 1646.67,-1355.65 1646.67,-1355.65 1642.83,-1355.65 1639,-1351.81 1639,-1347.98 1639,-1347.98 1639,-1340.31 1639,-1340.31 1639,-1336.48 1642.83,-1332.65 1646.67,-1332.65 1646.67,-1332.65 1915.33,-1332.65 1915.33,-1332.65 1919.17,-1332.65 1923,-1336.48 1923,-1340.31 1923,-1340.31 1923,-1347.98 1923,-1347.98 1923,-1351.81 1919.17,-1355.65 1915.33,-1355.65"/>
<text text-anchor="middle" x="1781" y="-1340.45" font-family="Arial" font-size="14.00" fill="#c6c5fe">statements/validations/validateIssuerState.ts</text>
</g>
<!-- statements/validations/index.ts&#45;&gt;statements/validations/validateIssuerState.ts -->
<g id="edge98" class="edge">
<title>statements/validations/index.ts&#45;&gt;statements/validations/validateIssuerState.ts</title>
<path fill="none" stroke="#757575" d="M1348.34,-938.74C1409.82,-996.48 1683.22,-1253.25 1759.93,-1325.3"/>
<polygon fill="#757575" stroke="#757575" points="1757.83,-1328.12 1767.51,-1332.42 1762.62,-1323.02 1757.83,-1328.12"/>
</g>
<!-- statements/validations/validateProofs.ts -->
<g id="node50" class="node">
<title>statements/validations/validateProofs.ts</title>
<path fill="none" stroke="#c6c5fe" d="M1900.33,-1082.65C1900.33,-1082.65 1661.67,-1082.65 1661.67,-1082.65 1657.83,-1082.65 1654,-1078.81 1654,-1074.98 1654,-1074.98 1654,-1067.31 1654,-1067.31 1654,-1063.48 1657.83,-1059.65 1661.67,-1059.65 1661.67,-1059.65 1900.33,-1059.65 1900.33,-1059.65 1904.17,-1059.65 1908,-1063.48 1908,-1067.31 1908,-1067.31 1908,-1074.98 1908,-1074.98 1908,-1078.81 1904.17,-1082.65 1900.33,-1082.65"/>
<text text-anchor="middle" x="1781" y="-1067.45" font-family="Arial" font-size="14.00" fill="#c6c5fe">statements/validations/validateProofs.ts</text>
</g>
<!-- statements/validations/index.ts&#45;&gt;statements/validations/validateProofs.ts -->
<g id="edge99" class="edge">
<title>statements/validations/index.ts&#45;&gt;statements/validations/validateProofs.ts</title>
<path fill="none" stroke="#757575" d="M1354.93,-938.79C1397.03,-964.06 1502.33,-1023.84 1599,-1051.15 1613.35,-1055.2 1628.56,-1058.44 1643.82,-1061.03"/>
<polygon fill="#757575" stroke="#757575" points="1643.42,-1064.51 1653.85,-1062.63 1644.53,-1057.6 1643.42,-1064.51"/>
</g>
<!-- statements/validations/validateRequestUri.ts -->
<g id="node51" class="node">
<title>statements/validations/validateRequestUri.ts</title>
<path fill="none" stroke="#c6c5fe" d="M1914.83,-918.65C1914.83,-918.65 1647.17,-918.65 1647.17,-918.65 1643.33,-918.65 1639.5,-914.81 1639.5,-910.98 1639.5,-910.98 1639.5,-903.31 1639.5,-903.31 1639.5,-899.48 1643.33,-895.65 1647.17,-895.65 1647.17,-895.65 1914.83,-895.65 1914.83,-895.65 1918.67,-895.65 1922.5,-899.48 1922.5,-903.31 1922.5,-903.31 1922.5,-910.98 1922.5,-910.98 1922.5,-914.81 1918.67,-918.65 1914.83,-918.65"/>
<text text-anchor="middle" x="1781" y="-903.45" font-family="Arial" font-size="14.00" fill="#c6c5fe">statements/validations/validateRequestUri.ts</text>
</g>
<!-- statements/validations/index.ts&#45;&gt;statements/validations/validateRequestUri.ts -->
<g id="edge100" class="edge">
<title>statements/validations/index.ts&#45;&gt;statements/validations/validateRequestUri.ts</title>
<path fill="none" stroke="#757575" d="M1435.64,-922.66C1492.67,-920.09 1565.38,-916.81 1629.27,-913.94"/>
<polygon fill="#757575" stroke="#757575" points="1629.61,-917.43 1639.44,-913.48 1629.29,-910.43 1629.61,-917.43"/>
</g>
<!-- statements/validations/validateResourceOwner.ts -->
<g id="node52" class="node">
<title>statements/validations/validateResourceOwner.ts</title>
<path fill="none" stroke="#c6c5fe" d="M1929.83,-797.65C1929.83,-797.65 1632.17,-797.65 1632.17,-797.65 1628.33,-797.65 1624.5,-793.81 1624.5,-789.98 1624.5,-789.98 1624.5,-782.31 1624.5,-782.31 1624.5,-778.48 1628.33,-774.65 1632.17,-774.65 1632.17,-774.65 1929.83,-774.65 1929.83,-774.65 1933.67,-774.65 1937.5,-778.48 1937.5,-782.31 1937.5,-782.31 1937.5,-789.98 1937.5,-789.98 1937.5,-793.81 1933.67,-797.65 1929.83,-797.65"/>
<text text-anchor="middle" x="1781" y="-782.45" font-family="Arial" font-size="14.00" fill="#c6c5fe">statements/validations/validateResourceOwner.ts</text>
</g>
<!-- statements/validations/index.ts&#45;&gt;statements/validations/validateResourceOwner.ts -->
<g id="edge101" class="edge">
<title>statements/validations/index.ts&#45;&gt;statements/validations/validateResourceOwner.ts</title>
<path fill="none" stroke="#757575" d="M1355.64,-915.57C1398.3,-891.02 1503.28,-833.82 1599,-807.15 1609.38,-804.25 1620.21,-801.76 1631.17,-799.61"/>
<polygon fill="#757575" stroke="#757575" points="1632.08,-803 1641.27,-797.73 1630.8,-796.12 1632.08,-803"/>
</g>
<!-- statements/validations/validateScope.ts -->
<g id="node53" class="node">
<title>statements/validations/validateScope.ts</title>
<path fill="none" stroke="#c6c5fe" d="M1900.33,-838.65C1900.33,-838.65 1661.67,-838.65 1661.67,-838.65 1657.83,-838.65 1654,-834.81 1654,-830.98 1654,-830.98 1654,-823.31 1654,-823.31 1654,-819.48 1657.83,-815.65 1661.67,-815.65 1661.67,-815.65 1900.33,-815.65 1900.33,-815.65 1904.17,-815.65 1908,-819.48 1908,-823.31 1908,-823.31 1908,-830.98 1908,-830.98 1908,-834.81 1904.17,-838.65 1900.33,-838.65"/>
<text text-anchor="middle" x="1781" y="-823.45" font-family="Arial" font-size="14.00" fill="#c6c5fe">statements/validations/validateScope.ts</text>
</g>
<!-- statements/validations/index.ts&#45;&gt;statements/validations/validateScope.ts -->
<g id="edge102" class="edge">
<title>statements/validations/index.ts&#45;&gt;statements/validations/validateScope.ts</title>
<path fill="none" stroke="#757575" d="M1387.37,-915.58C1469.68,-897.04 1630.81,-860.75 1718.9,-840.91"/>
<polygon fill="#757575" stroke="#757575" points="1719.77,-844.3 1728.75,-838.69 1718.23,-837.47 1719.77,-844.3"/>
</g>
<!-- statements/locations/authorizationCodeRedirection.ts&#45;&gt;resources.ts -->
<g id="edge72" class="edge">
<title>statements/locations/authorizationCodeRedirection.ts&#45;&gt;resources.ts</title>
<path fill="none" stroke="#757575" d="M1942.66,-428.72C1949.66,-431.15 1956.47,-433.94 1963,-437.15 1991.97,-451.39 2016.19,-480.63 2030.15,-500.32"/>
<polygon fill="#757575" stroke="#757575" points="2027.28,-502.33 2035.82,-508.61 2033.06,-498.38 2027.28,-502.33"/>
</g>
<!-- statements/locations/generateAuthorizationRequestUri.ts&#45;&gt;resources.ts -->
<g id="edge74" class="edge">
<title>statements/locations/generateAuthorizationRequestUri.ts&#45;&gt;resources.ts</title>
<path fill="none" stroke="#757575" d="M1929.15,-469.7C1940.71,-472.03 1952.12,-474.82 1963,-478.15 1982.01,-483.96 2001.8,-494.31 2016.94,-503.28"/>
<polygon fill="#757575" stroke="#757575" points="2015.36,-506.41 2025.72,-508.63 2019,-500.43 2015.36,-506.41"/>
</g>
<!-- statements/locations/generateAuthorizationRequestUri.ts&#45;&gt;constants.ts -->
<g id="edge73" class="edge">
<title>statements/locations/generateAuthorizationRequestUri.ts&#45;&gt;constants.ts</title>
<path fill="none" stroke="#757575" d="M1951.52,-469.88C1955.52,-472.37 1959.36,-475.11 1963,-478.15 2001.39,-510.11 2030.04,-664.57 2039.57,-722.31"/>
<polygon fill="#757575" stroke="#757575" points="2036.17,-723.19 2041.22,-732.5 2043.08,-722.07 2036.17,-723.19"/>
</g>
<!-- statements/locations/generateCredentialOffer.ts&#45;&gt;resources.ts -->
<g id="edge76" class="edge">
<title>statements/locations/generateCredentialOffer.ts&#45;&gt;resources.ts</title>
<path fill="none" stroke="#757575" d="M1923.29,-569.61C1936.84,-567.06 1950.27,-563.94 1963,-560.15 1981.36,-554.68 2000.61,-545.19 2015.62,-536.82"/>
<polygon fill="#757575" stroke="#757575" points="2017.44,-539.82 2024.38,-531.81 2013.96,-533.74 2017.44,-539.82"/>
</g>
<!-- statements/locations/generateCredentialOffer.ts&#45;&gt;errors.ts -->
<g id="edge75" class="edge">
<title>statements/locations/generateCredentialOffer.ts&#45;&gt;errors.ts</title>
<path fill="none" stroke="#757575" d="M1932.63,-581.99C1943.75,-586.62 1954.08,-592.87 1963,-601.15 1970.66,-608.26 2024.63,-922.3 2039.32,-1008.47"/>
<polygon fill="#757575" stroke="#757575" points="2035.89,-1009.18 2041.01,-1018.45 2042.79,-1008 2035.89,-1009.18"/>
</g>
<!-- statements/resources/issuerClient.ts&#45;&gt;resources.ts -->
<g id="edge81" class="edge">
<title>statements/resources/issuerClient.ts&#45;&gt;resources.ts</title>
<path fill="none" stroke="#757575" d="M1898.57,-373.81C1921.17,-377.45 1943.78,-384.26 1963,-396.15 2001.62,-420.03 2025.11,-470.28 2035.91,-498.94"/>
<polygon fill="#757575" stroke="#757575" points="2032.64,-500.2 2039.32,-508.43 2039.23,-497.84 2032.64,-500.2"/>
</g>
<!-- statements/tokens/generateAccessToken.ts&#45;&gt;resources.ts -->
<g id="edge82" class="edge">
<title>statements/tokens/generateAccessToken.ts&#45;&gt;resources.ts</title>
<path fill="none" stroke="#757575" d="M1920.14,-529.56C1944.51,-527.69 1968.52,-525.85 1988.76,-524.3"/>
<polygon fill="#757575" stroke="#757575" points="1989.28,-527.77 1998.98,-523.52 1988.74,-520.79 1989.28,-527.77"/>
</g>
<!-- statements/tokens/generateAuthorizationCode.ts&#45;&gt;resources.ts -->
<g id="edge84" class="edge">
<title>statements/tokens/generateAuthorizationCode.ts&#45;&gt;resources.ts</title>
<path fill="none" stroke="#757575" d="M1935.89,-656.03C1945.39,-652.61 1954.52,-648.37 1963,-643.15 2001.44,-619.47 2025,-569.62 2035.86,-541.19"/>
<polygon fill="#757575" stroke="#757575" points="2039.15,-542.36 2039.29,-531.77 2032.58,-539.97 2039.15,-542.36"/>
</g>
<!-- statements/tokens/generateAuthorizationCode.ts&#45;&gt;errors.ts -->
<g id="edge83" class="edge">
<title>statements/tokens/generateAuthorizationCode.ts&#45;&gt;errors.ts</title>
<path fill="none" stroke="#757575" d="M1935.75,-666.77C1945.63,-671.18 1954.86,-676.87 1963,-684.15 1987.7,-706.23 2027.34,-935.26 2039.4,-1008.06"/>
<polygon fill="#757575" stroke="#757575" points="2036.02,-1009.05 2041.09,-1018.35 2042.92,-1007.91 2036.02,-1009.05"/>
</g>
<!-- statements/tokens/generateCNonce.ts&#45;&gt;resources.ts -->
<g id="edge85" class="edge">
<title>statements/tokens/generateCNonce.ts&#45;&gt;resources.ts</title>
<path fill="none" stroke="#757575" d="M1904.86,-509.03C1934.24,-511.4 1964.15,-513.8 1988.58,-515.77"/>
<polygon fill="#757575" stroke="#757575" points="1988.45,-519.27 1998.7,-516.58 1989.01,-512.29 1988.45,-519.27"/>
</g>
<!-- statements/tokens/generateCredentials.ts&#45;&gt;resources.ts -->
<g id="edge87" class="edge">
<title>statements/tokens/generateCredentials.ts&#45;&gt;resources.ts</title>
<path fill="none" stroke="#757575" d="M1914.3,-705.26C1931.72,-701.03 1948.52,-694.34 1963,-684.15 2011.59,-649.93 2031.93,-577.8 2039.32,-541.69"/>
<polygon fill="#757575" stroke="#757575" points="2042.79,-542.2 2041.22,-531.72 2035.91,-540.89 2042.79,-542.2"/>
</g>
<!-- statements/tokens/generateCredentials.ts&#45;&gt;errors.ts -->
<g id="edge86" class="edge">
<title>statements/tokens/generateCredentials.ts&#45;&gt;errors.ts</title>
<path fill="none" stroke="#757575" d="M1914.01,-700.7C1931.99,-705.33 1949.02,-713.02 1963,-725.15 2006.58,-762.98 2032.64,-945.38 2040.48,-1008.55"/>
<polygon fill="#757575" stroke="#757575" points="2037.02,-1009.08 2041.69,-1018.59 2043.97,-1008.24 2037.02,-1009.08"/>
</g>
<!-- statements/validations/validateAccessToken.ts&#45;&gt;resources.ts -->
<g id="edge105" class="edge">
<title>statements/validations/validateAccessToken.ts&#45;&gt;resources.ts</title>
<path fill="none" stroke="#757575" d="M1928.8,-948.96C1941.39,-944.18 1953.08,-937.44 1963,-928.15 1996.59,-896.66 1990.15,-769.32 1999,-724.15 2012.07,-657.49 2029.59,-579.04 2038.04,-541.83"/>
<polygon fill="#757575" stroke="#757575" points="2041.46,-542.6 2040.26,-532.07 2034.63,-541.04 2041.46,-542.6"/>
</g>
<!-- statements/validations/validateAccessToken.ts&#45;&gt;crypto.ts -->
<g id="edge103" class="edge">
<title>statements/validations/validateAccessToken.ts&#45;&gt;crypto.ts</title>
<path fill="none" stroke="#757575" d="M1928.94,-951.55C1941.12,-955.8 1952.7,-961.53 1963,-969.15 1995.01,-992.8 1975.77,-1018.83 1999,-1051.15 2004.63,-1058.98 2012.01,-1066.42 2019.12,-1072.72"/>
<polygon fill="#757575" stroke="#757575" points="2017.31,-1075.77 2027.21,-1079.53 2021.82,-1070.42 2017.31,-1075.77"/>
</g>
<!-- statements/validations/validateAccessToken.ts&#45;&gt;errors.ts -->
<g id="edge104" class="edge">
<title>statements/validations/validateAccessToken.ts&#45;&gt;errors.ts</title>
<path fill="none" stroke="#757575" d="M1928.92,-958.34C1940.65,-961.22 1952.15,-964.77 1963,-969.15 1986.51,-978.63 2009.07,-996.97 2024.21,-1011.07"/>
<polygon fill="#757575" stroke="#757575" points="2022.18,-1013.97 2031.81,-1018.38 2027.03,-1008.93 2022.18,-1013.97"/>
</g>
<!-- statements/validations/validateAuthorizationCode.ts&#45;&gt;resources.ts -->
<g id="edge108" class="edge">
<title>statements/validations/validateAuthorizationCode.ts&#45;&gt;resources.ts</title>
<path fill="none" stroke="#757575" d="M1849.84,-1123.66C1888.25,-1126.05 1934.23,-1121.28 1963,-1092.15 2020.74,-1033.68 1986.32,-805.33 1999,-724.15 2009.49,-657.03 2028.21,-578.8 2037.49,-541.74"/>
<polygon fill="#757575" stroke="#757575" points="2040.89,-542.57 2039.94,-532.01 2034.1,-540.85 2040.89,-542.57"/>
</g>
<!-- statements/validations/validateAuthorizationCode.ts&#45;&gt;crypto.ts -->
<g id="edge106" class="edge">
<title>statements/validations/validateAuthorizationCode.ts&#45;&gt;crypto.ts</title>
<path fill="none" stroke="#757575" d="M1925.1,-1100.63C1952.32,-1098.44 1978.8,-1096.31 1999.75,-1094.63"/>
<polygon fill="#757575" stroke="#757575" points="2000.18,-1098.1 2009.87,-1093.81 1999.62,-1091.13 2000.18,-1098.1"/>
</g>
<!-- statements/validations/validateAuthorizationCode.ts&#45;&gt;errors.ts -->
<g id="edge107" class="edge">
<title>statements/validations/validateAuthorizationCode.ts&#45;&gt;errors.ts</title>
<path fill="none" stroke="#757575" d="M1937.92,-1100.59C1946.53,-1098.2 1954.94,-1095.41 1963,-1092.15 1986.99,-1082.43 2009.87,-1063.37 2024.96,-1048.93"/>
<polygon fill="#757575" stroke="#757575" points="2027.45,-1051.39 2032.11,-1041.88 2022.53,-1046.41 2027.45,-1051.39"/>
</g>
<!-- statements/validations/validateClientCredentials.ts&#45;&gt;resources.ts -->
<g id="edge110" class="edge">
<title>statements/validations/validateClientCredentials.ts&#45;&gt;resources.ts</title>
<path fill="none" stroke="#757575" d="M1940.26,-738.63C1948.32,-734.98 1955.98,-730.54 1963,-725.15 2021.99,-679.89 2037.52,-584.97 2041.58,-542.05"/>
<polygon fill="#757575" stroke="#757575" points="2045.09,-542.12 2042.42,-531.86 2038.11,-541.54 2045.09,-542.12"/>
</g>
<!-- statements/validations/validateClientCredentials.ts&#45;&gt;errors.ts -->
<g id="edge109" class="edge">
<title>statements/validations/validateClientCredentials.ts&#45;&gt;errors.ts</title>
<path fill="none" stroke="#757575" d="M1940.38,-751.73C1948.46,-755.61 1956.08,-760.37 1963,-766.15 2037.31,-828.24 2044.14,-956.95 2043.73,-1008.3"/>
<polygon fill="#757575" stroke="#757575" points="2040.23,-1008.5 2043.54,-1018.56 2047.23,-1008.63 2040.23,-1008.5"/>
</g>
<!-- statements/validations/validateCodeVerifier.ts&#45;&gt;errors.ts -->
<g id="edge111" class="edge">
<title>statements/validations/validateCodeVerifier.ts&#45;&gt;errors.ts</title>
<path fill="none" stroke="#757575" d="M1900.62,-1000.68C1921.48,-1003.34 1942.93,-1006.49 1963,-1010.15 1975.43,-1012.41 1988.81,-1015.49 2000.99,-1018.56"/>
<polygon fill="#757575" stroke="#757575" points="2000.34,-1022.01 2010.9,-1021.11 2002.09,-1015.23 2000.34,-1022.01"/>
</g>
<!-- statements/validations/validateCredentialConfigurations.ts&#45;&gt;resources.ts -->
<g id="edge112" class="edge">
<title>statements/validations/validateCredentialConfigurations.ts&#45;&gt;resources.ts</title>
<path fill="none" stroke="#757575" d="M1939.41,-610.63C1947.55,-607.96 1955.46,-604.82 1963,-601.15 1991.37,-587.32 2015.48,-559.22 2029.6,-540.04"/>
<polygon fill="#757575" stroke="#757575" points="2032.6,-541.86 2035.54,-531.69 2026.89,-537.81 2032.6,-541.86"/>
</g>
<!-- statements/validations/validateDpop.ts&#45;&gt;errors.ts -->
<g id="edge113" class="edge">
<title>statements/validations/validateDpop.ts&#45;&gt;errors.ts</title>
<path fill="none" stroke="#757575" d="M1905.24,-1030.15C1939.58,-1030.15 1974.59,-1030.15 2000.72,-1030.15"/>
<polygon fill="#757575" stroke="#757575" points="2000.99,-1033.65 2010.99,-1030.15 2000.99,-1026.65 2000.99,-1033.65"/>
</g>
<!-- statements/validations/validateIssuerState.ts&#45;&gt;crypto.ts -->
<g id="edge114" class="edge">
<title>statements/validations/validateIssuerState.ts&#45;&gt;crypto.ts</title>
<path fill="none" stroke="#757575" d="M1923.42,-1339.54C1937.78,-1334.63 1951.34,-1327.71 1963,-1318.15 2026.85,-1265.73 2039.79,-1158.89 2042.38,-1112.95"/>
<polygon fill="#757575" stroke="#757575" points="2045.88,-1113.04 2042.83,-1102.89 2038.88,-1112.72 2045.88,-1113.04"/>
</g>
<!-- statements/validations/validateIssuerState.ts&#45;&gt;errors.ts -->
<g id="edge115" class="edge">
<title>statements/validations/validateIssuerState.ts&#45;&gt;errors.ts</title>
<path fill="none" stroke="#757575" d="M1923.16,-1342.52C1938.01,-1337.18 1951.76,-1329.36 1963,-1318.15 2041.53,-1239.78 1947.51,-1169.41 1999,-1071.15 2003.56,-1062.45 2010.7,-1054.62 2017.91,-1048.18"/>
<polygon fill="#757575" stroke="#757575" points="2020.18,-1050.84 2025.65,-1041.77 2015.72,-1045.45 2020.18,-1050.84"/>
</g>
<!-- statements/validations/validateProofs.ts&#45;&gt;resources.ts -->
<g id="edge118" class="edge">
<title>statements/validations/validateProofs.ts&#45;&gt;resources.ts</title>
<path fill="none" stroke="#757575" d="M1908.27,-1078.94C1928.78,-1074.51 1948.14,-1066.02 1963,-1051.15 2014.68,-999.44 1987.28,-796.31 1999,-724.15 2009.89,-657.1 2028.43,-578.83 2037.57,-541.75"/>
<polygon fill="#757575" stroke="#757575" points="2040.98,-542.57 2039.99,-532.02 2034.18,-540.88 2040.98,-542.57"/>
</g>
<!-- statements/validations/validateProofs.ts&#45;&gt;crypto.ts -->
<g id="edge116" class="edge">
<title>statements/validations/validateProofs.ts&#45;&gt;crypto.ts</title>
<path fill="none" stroke="#757575" d="M1908.3,-1080.82C1941.2,-1083.35 1974.46,-1085.89 1999.7,-1087.83"/>
<polygon fill="#757575" stroke="#757575" points="1999.76,-1091.34 2010,-1088.62 2000.3,-1084.36 1999.76,-1091.34"/>
</g>
<!-- statements/validations/validateProofs.ts&#45;&gt;errors.ts -->
<g id="edge117" class="edge">
<title>statements/validations/validateProofs.ts&#45;&gt;errors.ts</title>
<path fill="none" stroke="#757575" d="M1907.96,-1059.64C1926.48,-1057.25 1945.28,-1054.43 1963,-1051.15 1975.46,-1048.84 1988.85,-1045.62 2001.03,-1042.4"/>
<polygon fill="#757575" stroke="#757575" points="2002.2,-1045.71 2010.94,-1039.71 2000.37,-1038.95 2002.2,-1045.71"/>
</g>
<!-- statements/validations/validateRequestUri.ts&#45;&gt;resources.ts -->
<g id="edge122" class="edge">
<title>statements/validations/validateRequestUri.ts&#45;&gt;resources.ts</title>
<path fill="none" stroke="#757575" d="M1874.82,-895.62C1906.69,-887.26 1940.08,-872.87 1963,-848.15 1973.71,-836.59 2022.86,-613.1 2038.32,-541.8"/>
<polygon fill="#757575" stroke="#757575" points="2041.81,-542.24 2040.51,-531.72 2034.97,-540.76 2041.81,-542.24"/>
</g>
<!-- statements/validations/validateRequestUri.ts&#45;&gt;constants.ts -->
<g id="edge119" class="edge">
<title>statements/validations/validateRequestUri.ts&#45;&gt;constants.ts</title>
<path fill="none" stroke="#757575" d="M1848.31,-895.55C1884.61,-886.85 1928.99,-872.18 1963,-848.15 1994.26,-826.06 2018.94,-788.18 2032.22,-764.74"/>
<polygon fill="#757575" stroke="#757575" points="2035.46,-766.12 2037.2,-755.66 2029.32,-762.75 2035.46,-766.12"/>
</g>
<!-- statements/validations/validateRequestUri.ts&#45;&gt;crypto.ts -->
<g id="edge120" class="edge">
<title>statements/validations/validateRequestUri.ts&#45;&gt;crypto.ts</title>
<path fill="none" stroke="#757575" d="M1922.86,-906.67C1937.49,-911.36 1951.27,-918.25 1963,-928.15 2006.54,-964.88 1968.8,-1002.85 1999,-1051.15 2004.04,-1059.2 2011.13,-1066.63 2018.16,-1072.85"/>
<polygon fill="#757575" stroke="#757575" points="2016.32,-1075.87 2026.25,-1079.55 2020.79,-1070.48 2016.32,-1075.87"/>
</g>
<!-- statements/validations/validateRequestUri.ts&#45;&gt;errors.ts -->
<g id="edge121" class="edge">
<title>statements/validations/validateRequestUri.ts&#45;&gt;errors.ts</title>
<path fill="none" stroke="#757575" d="M1922.88,-912.25C1936.93,-916.03 1950.58,-921.19 1963,-928.15 1996.31,-946.8 2020.6,-985.52 2033.2,-1009.52"/>
<polygon fill="#757575" stroke="#757575" points="2030.11,-1011.16 2037.73,-1018.51 2036.36,-1008.01 2030.11,-1011.16"/>
</g>
<!-- statements/validations/validateResourceOwner.ts&#45;&gt;resources.ts -->
<g id="edge124" class="edge">
<title>statements/validations/validateResourceOwner.ts&#45;&gt;resources.ts</title>
<path fill="none" stroke="#757575" d="M1937.63,-781.49C1946.71,-777.48 1955.28,-772.43 1963,-766.15 1998.76,-737.04 2028.63,-596.34 2039.04,-541.81"/>
<polygon fill="#757575" stroke="#757575" points="2042.51,-542.3 2040.92,-531.83 2035.63,-541.01 2042.51,-542.3"/>
</g>
<!-- statements/validations/validateResourceOwner.ts&#45;&gt;errors.ts -->
<g id="edge123" class="edge">
<title>statements/validations/validateResourceOwner.ts&#45;&gt;errors.ts</title>
<path fill="none" stroke="#757575" d="M1937.88,-792.17C1946.84,-796.12 1955.32,-801.05 1963,-807.15 2026.56,-857.6 2039.67,-962.72 2042.34,-1008.29"/>
<polygon fill="#757575" stroke="#757575" points="2038.85,-1008.7 2042.81,-1018.53 2045.84,-1008.38 2038.85,-1008.7"/>
</g>
<!-- statements/validations/validateScope.ts&#45;&gt;resources.ts -->
<g id="edge126" class="edge">
<title>statements/validations/validateScope.ts&#45;&gt;resources.ts</title>
<path fill="none" stroke="#757575" d="M1908.24,-832.49C1928.27,-828.18 1947.46,-820.35 1963,-807.15 1983.82,-789.45 2024.76,-605.48 2038.43,-541.74"/>
<polygon fill="#757575" stroke="#757575" points="2041.86,-542.45 2040.52,-531.94 2035.02,-540.99 2041.86,-542.45"/>
</g>
<!-- statements/validations/validateScope.ts&#45;&gt;errors.ts -->
<g id="edge125" class="edge">
<title>statements/validations/validateScope.ts&#45;&gt;errors.ts</title>
<path fill="none" stroke="#757575" d="M1908.25,-828.71C1927.93,-833.45 1947.01,-841.13 1963,-853.15 2014.03,-891.5 2033.34,-969.92 2039.93,-1008.18"/>
<polygon fill="#757575" stroke="#757575" points="2036.51,-1008.93 2041.53,-1018.26 2043.42,-1007.83 2036.51,-1008.93"/>
</g>
</g>
</svg>
