<?xml version="1.0" encoding="UTF-8" standalone="no"?>
<!DOCTYPE svg PUBLIC "-//W3C//DTD SVG 1.1//EN"
 "http://www.w3.org/Graphics/SVG/1.1/DTD/svg11.dtd">
<!-- Generated by graphviz version 2.43.0 (0)
 -->
<!-- Title: G Pages: 1 -->
<svg width="2776pt" height="1547pt"
 viewBox="0.00 0.00 2776.20 1546.95" xmlns="http://www.w3.org/2000/svg" xmlns:xlink="http://www.w3.org/1999/xlink">
<g id="graph0" class="graph" transform="scale(1 1) rotate(0) translate(21.6 1525.35)">
<title>G</title>
<polygon fill="#111111" stroke="transparent" points="-21.6,21.6 -21.6,-1525.35 2754.6,-1525.35 2754.6,21.6 -21.6,21.6"/>
<!-- config.ts -->
<g id="node1" class="node">
<title>config.ts</title>
<path fill="none" stroke="#c6c5fe" d="M977.33,-1236.72C977.33,-1236.72 925.67,-1236.72 925.67,-1236.72 921.83,-1236.72 918,-1232.89 918,-1229.06 918,-1229.06 918,-1221.39 918,-1221.39 918,-1217.56 921.83,-1213.72 925.67,-1213.72 925.67,-1213.72 977.33,-1213.72 977.33,-1213.72 981.17,-1213.72 985,-1217.56 985,-1221.39 985,-1221.39 985,-1229.06 985,-1229.06 985,-1232.89 981.17,-1236.72 977.33,-1236.72"/>
<text text-anchor="middle" x="951.5" y="-1221.52" font-family="Arial" font-size="14.00" fill="#c6c5fe">config.ts</text>
</g>
<!-- ports.ts -->
<g id="node2" class="node">
<title>ports.ts</title>
<path fill="none" stroke="#c6c5fe" d="M2514.83,-1004.72C2514.83,-1004.72 2469.17,-1004.72 2469.17,-1004.72 2465.33,-1004.72 2461.5,-1000.89 2461.5,-997.06 2461.5,-997.06 2461.5,-989.39 2461.5,-989.39 2461.5,-985.56 2465.33,-981.72 2469.17,-981.72 2469.17,-981.72 2514.83,-981.72 2514.83,-981.72 2518.67,-981.72 2522.5,-985.56 2522.5,-989.39 2522.5,-989.39 2522.5,-997.06 2522.5,-997.06 2522.5,-1000.89 2518.67,-1004.72 2514.83,-1004.72"/>
<text text-anchor="middle" x="2492" y="-989.52" font-family="Arial" font-size="14.00" fill="#c6c5fe">ports.ts</text>
</g>
<!-- config.ts&#45;&gt;ports.ts -->
<g id="edge1" class="edge">
<title>config.ts&#45;&gt;ports.ts</title>
<path fill="none" stroke="#757575" d="M985.04,-1226.81C1081.55,-1231.38 1374.69,-1244.22 1618,-1244.22 1618,-1244.22 1618,-1244.22 1898.5,-1244.22 2095.35,-1244.22 2170.16,-1323.01 2341,-1225.22 2424.4,-1177.49 2469.13,-1062.37 2484.64,-1014.58"/>
<polygon fill="#757575" stroke="#757575" points="2488.01,-1015.54 2487.66,-1004.95 2481.33,-1013.45 2488.01,-1015.54"/>
</g>
<!-- resources.ts -->
<g id="node3" class="node">
<title>resources.ts</title>
<path fill="none" stroke="#cfffac" d="M2725.33,-1004.72C2725.33,-1004.72 2650.67,-1004.72 2650.67,-1004.72 2646.83,-1004.72 2643,-1000.89 2643,-997.06 2643,-997.06 2643,-989.39 2643,-989.39 2643,-985.56 2646.83,-981.72 2650.67,-981.72 2650.67,-981.72 2725.33,-981.72 2725.33,-981.72 2729.17,-981.72 2733,-985.56 2733,-989.39 2733,-989.39 2733,-997.06 2733,-997.06 2733,-1000.89 2729.17,-1004.72 2725.33,-1004.72"/>
<text text-anchor="middle" x="2688" y="-989.52" font-family="Arial" font-size="14.00" fill="#cfffac">resources.ts</text>
</g>
<!-- config.ts&#45;&gt;resources.ts -->
<g id="edge2" class="edge">
<title>config.ts&#45;&gt;resources.ts</title>
<path fill="none" stroke="#757575" d="M978.2,-1236.84C1065.76,-1275.33 1361.23,-1396.22 1618,-1396.22 1618,-1396.22 1618,-1396.22 2188.5,-1396.22 2281.65,-1396.22 2536.36,-1432.95 2607,-1372.22 2661.94,-1325 2681.07,-1088.77 2685.75,-1015.16"/>
<polygon fill="#757575" stroke="#757575" points="2689.27,-1014.99 2686.38,-1004.8 2682.28,-1014.57 2689.27,-1014.99"/>
</g>
<!-- ports.ts&#45;&gt;resources.ts -->
<g id="edge60" class="edge">
<title>ports.ts&#45;&gt;resources.ts</title>
<path fill="none" stroke="#757575" d="M2522.89,-993.22C2552.01,-993.22 2596.95,-993.22 2632.45,-993.22"/>
<polygon fill="#757575" stroke="#757575" points="2632.66,-996.72 2642.66,-993.22 2632.66,-989.72 2632.66,-996.72"/>
</g>
<!-- core.ts -->
<g id="node4" class="node">
<title>core.ts</title>
<path fill="none" stroke="#c6c5fe" d="M148.33,-1042.72C148.33,-1042.72 106.67,-1042.72 106.67,-1042.72 102.83,-1042.72 99,-1038.89 99,-1035.06 99,-1035.06 99,-1027.39 99,-1027.39 99,-1023.56 102.83,-1019.72 106.67,-1019.72 106.67,-1019.72 148.33,-1019.72 148.33,-1019.72 152.17,-1019.72 156,-1023.56 156,-1027.39 156,-1027.39 156,-1035.06 156,-1035.06 156,-1038.89 152.17,-1042.72 148.33,-1042.72"/>
<text text-anchor="middle" x="127.5" y="-1027.52" font-family="Arial" font-size="14.00" fill="#c6c5fe">core.ts</text>
</g>
<!-- core.ts&#45;&gt;config.ts -->
<g id="edge3" class="edge">
<title>core.ts&#45;&gt;config.ts</title>
<path fill="none" stroke="#757575" d="M156.08,-1039.54C224.65,-1060.04 408.48,-1113.95 564,-1150.22 679.95,-1177.27 710.12,-1178.53 827,-1201.22 853.9,-1206.45 884.09,-1212.31 907.88,-1216.94"/>
<polygon fill="#757575" stroke="#757575" points="907.51,-1220.43 918,-1218.9 908.85,-1213.56 907.51,-1220.43"/>
</g>
<!-- handlers/index.ts -->
<g id="node5" class="node">
<title>handlers/index.ts</title>
<path fill="none" stroke="#c6c5fe" d="M303.33,-1002.72C303.33,-1002.72 199.67,-1002.72 199.67,-1002.72 195.83,-1002.72 192,-998.89 192,-995.06 192,-995.06 192,-987.39 192,-987.39 192,-983.56 195.83,-979.72 199.67,-979.72 199.67,-979.72 303.33,-979.72 303.33,-979.72 307.17,-979.72 311,-983.56 311,-987.39 311,-987.39 311,-995.06 311,-995.06 311,-998.89 307.17,-1002.72 303.33,-1002.72"/>
<text text-anchor="middle" x="251.5" y="-987.52" font-family="Arial" font-size="14.00" fill="#c6c5fe">handlers/index.ts</text>
</g>
<!-- core.ts&#45;&gt;handlers/index.ts -->
<g id="edge4" class="edge">
<title>core.ts&#45;&gt;handlers/index.ts</title>
<path fill="none" stroke="#757575" d="M156.18,-1022.15C170.76,-1017.37 188.99,-1011.39 205.54,-1005.97"/>
<polygon fill="#757575" stroke="#757575" points="206.63,-1009.29 215.04,-1002.85 204.45,-1002.64 206.63,-1009.29"/>
</g>
<!-- handlers/authorization.handler.ts -->
<g id="node7" class="node">
<title>handlers/authorization.handler.ts</title>
<path fill="none" stroke="#c6c5fe" d="M793.83,-1022.72C793.83,-1022.72 597.17,-1022.72 597.17,-1022.72 593.33,-1022.72 589.5,-1018.89 589.5,-1015.06 589.5,-1015.06 589.5,-1007.39 589.5,-1007.39 589.5,-1003.56 593.33,-999.72 597.17,-999.72 597.17,-999.72 793.83,-999.72 793.83,-999.72 797.67,-999.72 801.5,-1003.56 801.5,-1007.39 801.5,-1007.39 801.5,-1015.06 801.5,-1015.06 801.5,-1018.89 797.67,-1022.72 793.83,-1022.72"/>
<text text-anchor="middle" x="695.5" y="-1007.52" font-family="Arial" font-size="14.00" fill="#c6c5fe">handlers/authorization.handler.ts</text>
</g>
<!-- handlers/index.ts&#45;&gt;handlers/authorization.handler.ts -->
<g id="edge20" class="edge">
<title>handlers/index.ts&#45;&gt;handlers/authorization.handler.ts</title>
<path fill="none" stroke="#757575" d="M311.19,-993.88C379.3,-996.96 493.23,-1002.12 579.23,-1006.01"/>
<polygon fill="#757575" stroke="#757575" points="579.16,-1009.51 589.31,-1006.46 579.48,-1002.52 579.16,-1009.51"/>
</g>
<!-- handlers/credential.handler.ts -->
<g id="node10" class="node">
<title>handlers/credential.handler.ts</title>
<path fill="none" stroke="#c6c5fe" d="M784.33,-961.72C784.33,-961.72 606.67,-961.72 606.67,-961.72 602.83,-961.72 599,-957.89 599,-954.06 599,-954.06 599,-946.39 599,-946.39 599,-942.56 602.83,-938.72 606.67,-938.72 606.67,-938.72 784.33,-938.72 784.33,-938.72 788.17,-938.72 792,-942.56 792,-946.39 792,-946.39 792,-954.06 792,-954.06 792,-957.89 788.17,-961.72 784.33,-961.72"/>
<text text-anchor="middle" x="695.5" y="-946.52" font-family="Arial" font-size="14.00" fill="#c6c5fe">handlers/credential.handler.ts</text>
</g>
<!-- handlers/index.ts&#45;&gt;handlers/credential.handler.ts -->
<g id="edge21" class="edge">
<title>handlers/index.ts&#45;&gt;handlers/credential.handler.ts</title>
<path fill="none" stroke="#757575" d="M311.19,-985.78C381.78,-979.23 501.61,-968.12 588.53,-960.05"/>
<polygon fill="#757575" stroke="#757575" points="589.06,-963.52 598.69,-959.11 588.41,-956.55 589.06,-963.52"/>
</g>
<!-- handlers/generatePresentation.handler.ts -->
<g id="node11" class="node">
<title>handlers/generatePresentation.handler.ts</title>
<path fill="none" stroke="#c6c5fe" d="M819.33,-849.72C819.33,-849.72 571.67,-849.72 571.67,-849.72 567.83,-849.72 564,-845.89 564,-842.06 564,-842.06 564,-834.39 564,-834.39 564,-830.56 567.83,-826.72 571.67,-826.72 571.67,-826.72 819.33,-826.72 819.33,-826.72 823.17,-826.72 827,-830.56 827,-834.39 827,-834.39 827,-842.06 827,-842.06 827,-845.89 823.17,-849.72 819.33,-849.72"/>
<text text-anchor="middle" x="695.5" y="-834.52" font-family="Arial" font-size="14.00" fill="#c6c5fe">handlers/generatePresentation.handler.ts</text>
</g>
<!-- handlers/index.ts&#45;&gt;handlers/generatePresentation.handler.ts -->
<g id="edge22" class="edge">
<title>handlers/index.ts&#45;&gt;handlers/generatePresentation.handler.ts</title>
<path fill="none" stroke="#757575" d="M286.08,-979.6C365.33,-952.17 563.86,-883.45 651.63,-853.06"/>
<polygon fill="#757575" stroke="#757575" points="652.96,-856.31 661.27,-849.73 650.67,-849.69 652.96,-856.31"/>
</g>
<!-- handlers/location.handler.ts -->
<g id="node12" class="node">
<title>handlers/location.handler.ts</title>
<path fill="none" stroke="#c6c5fe" d="M520.33,-445.72C520.33,-445.72 354.67,-445.72 354.67,-445.72 350.83,-445.72 347,-441.89 347,-438.06 347,-438.06 347,-430.39 347,-430.39 347,-426.56 350.83,-422.72 354.67,-422.72 354.67,-422.72 520.33,-422.72 520.33,-422.72 524.17,-422.72 528,-426.56 528,-430.39 528,-430.39 528,-438.06 528,-438.06 528,-441.89 524.17,-445.72 520.33,-445.72"/>
<text text-anchor="middle" x="437.5" y="-430.52" font-family="Arial" font-size="14.00" fill="#c6c5fe">handlers/location.handler.ts</text>
</g>
<!-- handlers/index.ts&#45;&gt;handlers/location.handler.ts -->
<g id="edge23" class="edge">
<title>handlers/index.ts&#45;&gt;handlers/location.handler.ts</title>
<path fill="none" stroke="#757575" d="M256.34,-979.59C279.38,-909.86 399.16,-547.27 429.51,-455.4"/>
<polygon fill="#757575" stroke="#757575" points="432.86,-456.39 432.68,-445.79 426.22,-454.19 432.86,-456.39"/>
</g>
<!-- handlers/sendPresentation.handler.ts -->
<g id="node13" class="node">
<title>handlers/sendPresentation.handler.ts</title>
<path fill="none" stroke="#c6c5fe" d="M807.33,-1101.72C807.33,-1101.72 583.67,-1101.72 583.67,-1101.72 579.83,-1101.72 576,-1097.89 576,-1094.06 576,-1094.06 576,-1086.39 576,-1086.39 576,-1082.56 579.83,-1078.72 583.67,-1078.72 583.67,-1078.72 807.33,-1078.72 807.33,-1078.72 811.17,-1078.72 815,-1082.56 815,-1086.39 815,-1086.39 815,-1094.06 815,-1094.06 815,-1097.89 811.17,-1101.72 807.33,-1101.72"/>
<text text-anchor="middle" x="695.5" y="-1086.52" font-family="Arial" font-size="14.00" fill="#c6c5fe">handlers/sendPresentation.handler.ts</text>
</g>
<!-- handlers/index.ts&#45;&gt;handlers/sendPresentation.handler.ts -->
<g id="edge24" class="edge">
<title>handlers/index.ts&#45;&gt;handlers/sendPresentation.handler.ts</title>
<path fill="none" stroke="#757575" d="M301.52,-1002.74C316.15,-1006.15 332.22,-1009.87 347,-1013.22 446.5,-1035.83 562.22,-1061.31 631.84,-1076.55"/>
<polygon fill="#757575" stroke="#757575" points="631.25,-1080.01 641.77,-1078.72 632.75,-1073.17 631.25,-1080.01"/>
</g>
<!-- errors.ts -->
<g id="node6" class="node">
<title>errors.ts</title>
<path fill="none" stroke="#cfffac" d="M2517.33,-597.72C2517.33,-597.72 2466.67,-597.72 2466.67,-597.72 2462.83,-597.72 2459,-593.89 2459,-590.06 2459,-590.06 2459,-582.39 2459,-582.39 2459,-578.56 2462.83,-574.72 2466.67,-574.72 2466.67,-574.72 2517.33,-574.72 2517.33,-574.72 2521.17,-574.72 2525,-578.56 2525,-582.39 2525,-582.39 2525,-590.06 2525,-590.06 2525,-593.89 2521.17,-597.72 2517.33,-597.72"/>
<text text-anchor="middle" x="2492" y="-582.52" font-family="Arial" font-size="14.00" fill="#cfffac">errors.ts</text>
</g>
<!-- handlers/authorization.handler.ts&#45;&gt;config.ts -->
<g id="edge5" class="edge">
<title>handlers/authorization.handler.ts&#45;&gt;config.ts</title>
<path fill="none" stroke="#757575" d="M743.38,-1022.82C770.88,-1031.75 804.53,-1046.65 827,-1070.22 857.01,-1101.71 836.4,-1126.81 863,-1161.22 878.13,-1180.8 900.8,-1197.15 919.28,-1208.43"/>
<polygon fill="#757575" stroke="#757575" points="917.56,-1211.48 927.96,-1213.54 921.12,-1205.45 917.56,-1211.48"/>
</g>
<!-- handlers/authorization.handler.ts&#45;&gt;resources.ts -->
<g id="edge8" class="edge">
<title>handlers/authorization.handler.ts&#45;&gt;resources.ts</title>
<path fill="none" stroke="#757575" d="M724.3,-1022.78C847.37,-1073.19 1356.56,-1274.06 1797,-1334.22 1886.17,-1346.4 2536.47,-1390.13 2607,-1334.22 2657.9,-1293.88 2679.56,-1083.45 2685.33,-1014.86"/>
<polygon fill="#757575" stroke="#757575" points="2688.83,-1015.03 2686.15,-1004.78 2681.85,-1014.46 2688.83,-1015.03"/>
</g>
<!-- handlers/authorization.handler.ts&#45;&gt;errors.ts -->
<g id="edge6" class="edge">
<title>handlers/authorization.handler.ts&#45;&gt;errors.ts</title>
<path fill="none" stroke="#757575" d="M747.78,-1022.77C898.63,-1055.45 1336.89,-1140.61 1441,-1052.22 1516.19,-988.38 1411.75,-907.2 1477,-833.22 1647.8,-639.6 1781.33,-721.33 2034,-668.22 2168.6,-639.93 2206.28,-656.92 2341,-629.22 2378.07,-621.6 2419.35,-609.49 2449.21,-600.06"/>
<polygon fill="#757575" stroke="#757575" points="2450.41,-603.35 2458.88,-596.98 2448.29,-596.69 2450.41,-603.35"/>
</g>
<!-- handlers/schemas/index.ts -->
<g id="node8" class="node">
<title>handlers/schemas/index.ts</title>
<path fill="none" stroke="#c6c5fe" d="M1032.33,-960.72C1032.33,-960.72 870.67,-960.72 870.67,-960.72 866.83,-960.72 863,-956.89 863,-953.06 863,-953.06 863,-945.39 863,-945.39 863,-941.56 866.83,-937.72 870.67,-937.72 870.67,-937.72 1032.33,-937.72 1032.33,-937.72 1036.17,-937.72 1040,-941.56 1040,-945.39 1040,-945.39 1040,-953.06 1040,-953.06 1040,-956.89 1036.17,-960.72 1032.33,-960.72"/>
<text text-anchor="middle" x="951.5" y="-945.52" font-family="Arial" font-size="14.00" fill="#c6c5fe">handlers/schemas/index.ts</text>
</g>
<!-- handlers/authorization.handler.ts&#45;&gt;handlers/schemas/index.ts -->
<g id="edge7" class="edge">
<title>handlers/authorization.handler.ts&#45;&gt;handlers/schemas/index.ts</title>
<path fill="none" stroke="#757575" d="M743.68,-999.71C785.96,-989.39 848.09,-974.22 893.21,-963.21"/>
<polygon fill="#757575" stroke="#757575" points="894.26,-966.56 903.14,-960.78 892.6,-959.76 894.26,-966.56"/>
</g>
<!-- statements/index.ts -->
<g id="node9" class="node">
<title>statements/index.ts</title>
<path fill="none" stroke="#c6c5fe" d="M1010.83,-724.72C1010.83,-724.72 892.17,-724.72 892.17,-724.72 888.33,-724.72 884.5,-720.89 884.5,-717.06 884.5,-717.06 884.5,-709.39 884.5,-709.39 884.5,-705.56 888.33,-701.72 892.17,-701.72 892.17,-701.72 1010.83,-701.72 1010.83,-701.72 1014.67,-701.72 1018.5,-705.56 1018.5,-709.39 1018.5,-709.39 1018.5,-717.06 1018.5,-717.06 1018.5,-720.89 1014.67,-724.72 1010.83,-724.72"/>
<text text-anchor="middle" x="951.5" y="-709.52" font-family="Arial" font-size="14.00" fill="#c6c5fe">statements/index.ts</text>
</g>
<!-- handlers/authorization.handler.ts&#45;&gt;statements/index.ts -->
<g id="edge9" class="edge">
<title>handlers/authorization.handler.ts&#45;&gt;statements/index.ts</title>
<path fill="none" stroke="#757575" d="M771.26,-999.63C791.07,-993.71 811.29,-984.75 827,-971.22 865.89,-937.74 922.48,-790.16 942.84,-734.53"/>
<polygon fill="#757575" stroke="#757575" points="946.19,-735.58 946.32,-724.98 939.61,-733.18 946.19,-735.58"/>
</g>
<!-- handlers/schemas/authorizationHandlerConfig.schema.ts -->
<g id="node19" class="node">
<title>handlers/schemas/authorizationHandlerConfig.schema.ts</title>
<path fill="none" stroke="#cfffac" d="M1430.83,-1042.72C1430.83,-1042.72 1086.17,-1042.72 1086.17,-1042.72 1082.33,-1042.72 1078.5,-1038.89 1078.5,-1035.06 1078.5,-1035.06 1078.5,-1027.39 1078.5,-1027.39 1078.5,-1023.56 1082.33,-1019.72 1086.17,-1019.72 1086.17,-1019.72 1430.83,-1019.72 1430.83,-1019.72 1434.67,-1019.72 1438.5,-1023.56 1438.5,-1027.39 1438.5,-1027.39 1438.5,-1035.06 1438.5,-1035.06 1438.5,-1038.89 1434.67,-1042.72 1430.83,-1042.72"/>
<text text-anchor="middle" x="1258.5" y="-1027.52" font-family="Arial" font-size="14.00" fill="#cfffac">handlers/schemas/authorizationHandlerConfig.schema.ts</text>
</g>
<!-- handlers/schemas/index.ts&#45;&gt;handlers/schemas/authorizationHandlerConfig.schema.ts -->
<g id="edge44" class="edge">
<title>handlers/schemas/index.ts&#45;&gt;handlers/schemas/authorizationHandlerConfig.schema.ts</title>
<path fill="none" stroke="#757575" d="M970.48,-960.84C993.79,-975.28 1036.2,-999.46 1076,-1011.22 1084.08,-1013.61 1092.45,-1015.72 1100.95,-1017.59"/>
<polygon fill="#757575" stroke="#757575" points="1100.47,-1021.06 1110.97,-1019.66 1101.89,-1014.21 1100.47,-1021.06"/>
</g>
<!-- handlers/schemas/credentialHandlerConfig.schema.ts -->
<g id="node20" class="node">
<title>handlers/schemas/credentialHandlerConfig.schema.ts</title>
<path fill="none" stroke="#cfffac" d="M1421.33,-1001.72C1421.33,-1001.72 1095.67,-1001.72 1095.67,-1001.72 1091.83,-1001.72 1088,-997.89 1088,-994.06 1088,-994.06 1088,-986.39 1088,-986.39 1088,-982.56 1091.83,-978.72 1095.67,-978.72 1095.67,-978.72 1421.33,-978.72 1421.33,-978.72 1425.17,-978.72 1429,-982.56 1429,-986.39 1429,-986.39 1429,-994.06 1429,-994.06 1429,-997.89 1425.17,-1001.72 1421.33,-1001.72"/>
<text text-anchor="middle" x="1258.5" y="-986.52" font-family="Arial" font-size="14.00" fill="#cfffac">handlers/schemas/credentialHandlerConfig.schema.ts</text>
</g>
<!-- handlers/schemas/index.ts&#45;&gt;handlers/schemas/credentialHandlerConfig.schema.ts -->
<g id="edge45" class="edge">
<title>handlers/schemas/index.ts&#45;&gt;handlers/schemas/credentialHandlerConfig.schema.ts</title>
<path fill="none" stroke="#757575" d="M1015.85,-960.73C1035.13,-964.03 1056.4,-967.48 1076,-970.22 1094.58,-972.83 1114.27,-975.29 1133.56,-977.55"/>
<polygon fill="#757575" stroke="#757575" points="1133.27,-981.04 1143.61,-978.71 1134.08,-974.09 1133.27,-981.04"/>
</g>
<!-- handlers/schemas/generatePresentationConfig.schema.ts -->
<g id="node21" class="node">
<title>handlers/schemas/generatePresentationConfig.schema.ts</title>
<path fill="none" stroke="#cfffac" d="M1433.33,-960.72C1433.33,-960.72 1083.67,-960.72 1083.67,-960.72 1079.83,-960.72 1076,-956.89 1076,-953.06 1076,-953.06 1076,-945.39 1076,-945.39 1076,-941.56 1079.83,-937.72 1083.67,-937.72 1083.67,-937.72 1433.33,-937.72 1433.33,-937.72 1437.17,-937.72 1441,-941.56 1441,-945.39 1441,-945.39 1441,-953.06 1441,-953.06 1441,-956.89 1437.17,-960.72 1433.33,-960.72"/>
<text text-anchor="middle" x="1258.5" y="-945.52" font-family="Arial" font-size="14.00" fill="#cfffac">handlers/schemas/generatePresentationConfig.schema.ts</text>
</g>
<!-- handlers/schemas/index.ts&#45;&gt;handlers/schemas/generatePresentationConfig.schema.ts -->
<g id="edge46" class="edge">
<title>handlers/schemas/index.ts&#45;&gt;handlers/schemas/generatePresentationConfig.schema.ts</title>
<path fill="none" stroke="#757575" d="M1040.31,-949.22C1048.47,-949.22 1056.93,-949.22 1065.57,-949.22"/>
<polygon fill="#757575" stroke="#757575" points="1065.79,-952.72 1075.79,-949.22 1065.79,-945.72 1065.79,-952.72"/>
</g>
<!-- handlers/schemas/locationHandlerConfig.schema.ts -->
<g id="node22" class="node">
<title>handlers/schemas/locationHandlerConfig.schema.ts</title>
<path fill="none" stroke="#cfffac" d="M1415.33,-919.72C1415.33,-919.72 1101.67,-919.72 1101.67,-919.72 1097.83,-919.72 1094,-915.89 1094,-912.06 1094,-912.06 1094,-904.39 1094,-904.39 1094,-900.56 1097.83,-896.72 1101.67,-896.72 1101.67,-896.72 1415.33,-896.72 1415.33,-896.72 1419.17,-896.72 1423,-900.56 1423,-904.39 1423,-904.39 1423,-912.06 1423,-912.06 1423,-915.89 1419.17,-919.72 1415.33,-919.72"/>
<text text-anchor="middle" x="1258.5" y="-904.52" font-family="Arial" font-size="14.00" fill="#cfffac">handlers/schemas/locationHandlerConfig.schema.ts</text>
</g>
<!-- handlers/schemas/index.ts&#45;&gt;handlers/schemas/locationHandlerConfig.schema.ts -->
<g id="edge47" class="edge">
<title>handlers/schemas/index.ts&#45;&gt;handlers/schemas/locationHandlerConfig.schema.ts</title>
<path fill="none" stroke="#757575" d="M1020.04,-937.72C1038.19,-934.78 1057.82,-931.75 1076,-929.22 1096.89,-926.33 1119.16,-923.52 1140.7,-920.95"/>
<polygon fill="#757575" stroke="#757575" points="1141.35,-924.39 1150.87,-919.74 1140.53,-917.44 1141.35,-924.39"/>
</g>
<!-- handlers/schemas/sendPresentationConfig.schema.ts -->
<g id="node23" class="node">
<title>handlers/schemas/sendPresentationConfig.schema.ts</title>
<path fill="none" stroke="#cfffac" d="M1421.33,-878.72C1421.33,-878.72 1095.67,-878.72 1095.67,-878.72 1091.83,-878.72 1088,-874.89 1088,-871.06 1088,-871.06 1088,-863.39 1088,-863.39 1088,-859.56 1091.83,-855.72 1095.67,-855.72 1095.67,-855.72 1421.33,-855.72 1421.33,-855.72 1425.17,-855.72 1429,-859.56 1429,-863.39 1429,-863.39 1429,-871.06 1429,-871.06 1429,-874.89 1425.17,-878.72 1421.33,-878.72"/>
<text text-anchor="middle" x="1258.5" y="-863.52" font-family="Arial" font-size="14.00" fill="#cfffac">handlers/schemas/sendPresentationConfig.schema.ts</text>
</g>
<!-- handlers/schemas/index.ts&#45;&gt;handlers/schemas/sendPresentationConfig.schema.ts -->
<g id="edge48" class="edge">
<title>handlers/schemas/index.ts&#45;&gt;handlers/schemas/sendPresentationConfig.schema.ts</title>
<path fill="none" stroke="#757575" d="M970.92,-937.59C994.36,-923.4 1036.55,-899.87 1076,-888.22 1085.68,-885.37 1095.76,-882.89 1105.99,-880.76"/>
<polygon fill="#757575" stroke="#757575" points="1106.71,-884.18 1115.84,-878.81 1105.35,-877.32 1106.71,-884.18"/>
</g>
<!-- statements/locations/index.ts -->
<g id="node25" class="node">
<title>statements/locations/index.ts</title>
<path fill="none" stroke="#c6c5fe" d="M1346.33,-570.72C1346.33,-570.72 1170.67,-570.72 1170.67,-570.72 1166.83,-570.72 1163,-566.89 1163,-563.06 1163,-563.06 1163,-555.39 1163,-555.39 1163,-551.56 1166.83,-547.72 1170.67,-547.72 1170.67,-547.72 1346.33,-547.72 1346.33,-547.72 1350.17,-547.72 1354,-551.56 1354,-555.39 1354,-555.39 1354,-563.06 1354,-563.06 1354,-566.89 1350.17,-570.72 1346.33,-570.72"/>
<text text-anchor="middle" x="1258.5" y="-555.52" font-family="Arial" font-size="14.00" fill="#c6c5fe">statements/locations/index.ts</text>
</g>
<!-- statements/index.ts&#45;&gt;statements/locations/index.ts -->
<g id="edge61" class="edge">
<title>statements/index.ts&#45;&gt;statements/locations/index.ts</title>
<path fill="none" stroke="#757575" d="M959.75,-701.57C976.57,-675.65 1021.02,-613.35 1076,-585.22 1099.5,-573.21 1126.81,-566.25 1153,-562.33"/>
<polygon fill="#757575" stroke="#757575" points="1153.54,-565.79 1162.98,-560.97 1152.6,-558.85 1153.54,-565.79"/>
</g>
<!-- statements/resources/index.ts -->
<g id="node26" class="node">
<title>statements/resources/index.ts</title>
<path fill="none" stroke="#c6c5fe" d="M1988.33,-1092.72C1988.33,-1092.72 1806.67,-1092.72 1806.67,-1092.72 1802.83,-1092.72 1799,-1088.89 1799,-1085.06 1799,-1085.06 1799,-1077.39 1799,-1077.39 1799,-1073.56 1802.83,-1069.72 1806.67,-1069.72 1806.67,-1069.72 1988.33,-1069.72 1988.33,-1069.72 1992.17,-1069.72 1996,-1073.56 1996,-1077.39 1996,-1077.39 1996,-1085.06 1996,-1085.06 1996,-1088.89 1992.17,-1092.72 1988.33,-1092.72"/>
<text text-anchor="middle" x="1897.5" y="-1077.52" font-family="Arial" font-size="14.00" fill="#c6c5fe">statements/resources/index.ts</text>
</g>
<!-- statements/index.ts&#45;&gt;statements/resources/index.ts -->
<g id="edge62" class="edge">
<title>statements/index.ts&#45;&gt;statements/resources/index.ts</title>
<path fill="none" stroke="#757575" d="M1018.57,-713.04C1193.04,-714.04 1659.64,-726.81 1761,-833.22 1829.94,-905.6 1729.75,-981.27 1797,-1055.22 1800.19,-1058.74 1803.8,-1061.8 1807.69,-1064.47"/>
<polygon fill="#757575" stroke="#757575" points="1806.24,-1067.67 1816.64,-1069.71 1809.78,-1061.63 1806.24,-1067.67"/>
</g>
<!-- statements/responses/index.ts -->
<g id="node27" class="node">
<title>statements/responses/index.ts</title>
<path fill="none" stroke="#c6c5fe" d="M1711.33,-865.72C1711.33,-865.72 1526.67,-865.72 1526.67,-865.72 1522.83,-865.72 1519,-861.89 1519,-858.06 1519,-858.06 1519,-850.39 1519,-850.39 1519,-846.56 1522.83,-842.72 1526.67,-842.72 1526.67,-842.72 1711.33,-842.72 1711.33,-842.72 1715.17,-842.72 1719,-846.56 1719,-850.39 1719,-850.39 1719,-858.06 1719,-858.06 1719,-861.89 1715.17,-865.72 1711.33,-865.72"/>
<text text-anchor="middle" x="1619" y="-850.52" font-family="Arial" font-size="14.00" fill="#c6c5fe">statements/responses/index.ts</text>
</g>
<!-- statements/index.ts&#45;&gt;statements/responses/index.ts -->
<g id="edge63" class="edge">
<title>statements/index.ts&#45;&gt;statements/responses/index.ts</title>
<path fill="none" stroke="#757575" d="M975.06,-724.9C999.34,-736.94 1039.4,-755.31 1076,-765.22 1233.92,-808.02 1280,-784.06 1441,-813.22 1482.39,-820.72 1528.68,-831.53 1563.54,-840.17"/>
<polygon fill="#757575" stroke="#757575" points="1562.96,-843.63 1573.51,-842.66 1564.66,-836.84 1562.96,-843.63"/>
</g>
<!-- statements/tokens/index.ts -->
<g id="node28" class="node">
<title>statements/tokens/index.ts</title>
<path fill="none" stroke="#c6c5fe" d="M1978.33,-818.72C1978.33,-818.72 1816.67,-818.72 1816.67,-818.72 1812.83,-818.72 1809,-814.89 1809,-811.06 1809,-811.06 1809,-803.39 1809,-803.39 1809,-799.56 1812.83,-795.72 1816.67,-795.72 1816.67,-795.72 1978.33,-795.72 1978.33,-795.72 1982.17,-795.72 1986,-799.56 1986,-803.39 1986,-803.39 1986,-811.06 1986,-811.06 1986,-814.89 1982.17,-818.72 1978.33,-818.72"/>
<text text-anchor="middle" x="1897.5" y="-803.52" font-family="Arial" font-size="14.00" fill="#c6c5fe">statements/tokens/index.ts</text>
</g>
<!-- statements/index.ts&#45;&gt;statements/tokens/index.ts -->
<g id="edge64" class="edge">
<title>statements/index.ts&#45;&gt;statements/tokens/index.ts</title>
<path fill="none" stroke="#757575" d="M1018.6,-705.44C1158.35,-691.09 1493.01,-667.87 1761,-737.22 1802.27,-747.91 1845.23,-772.84 1871.43,-789.88"/>
<polygon fill="#757575" stroke="#757575" points="1869.69,-792.93 1879.96,-795.54 1873.56,-787.09 1869.69,-792.93"/>
</g>
<!-- statements/validations/index.ts -->
<g id="node29" class="node">
<title>statements/validations/index.ts</title>
<path fill="none" stroke="#c6c5fe" d="M1990.33,-577.72C1990.33,-577.72 1804.67,-577.72 1804.67,-577.72 1800.83,-577.72 1797,-573.89 1797,-570.06 1797,-570.06 1797,-562.39 1797,-562.39 1797,-558.56 1800.83,-554.72 1804.67,-554.72 1804.67,-554.72 1990.33,-554.72 1990.33,-554.72 1994.17,-554.72 1998,-558.56 1998,-562.39 1998,-562.39 1998,-570.06 1998,-570.06 1998,-573.89 1994.17,-577.72 1990.33,-577.72"/>
<text text-anchor="middle" x="1897.5" y="-562.52" font-family="Arial" font-size="14.00" fill="#c6c5fe">statements/validations/index.ts</text>
</g>
<!-- statements/index.ts&#45;&gt;statements/validations/index.ts -->
<g id="edge65" class="edge">
<title>statements/index.ts&#45;&gt;statements/validations/index.ts</title>
<path fill="none" stroke="#757575" d="M1001.94,-701.71C1024.47,-696.65 1051.52,-690.82 1076,-686.22 1330.93,-638.38 1633.43,-598.44 1790.28,-578.98"/>
<polygon fill="#757575" stroke="#757575" points="1790.9,-582.43 1800.39,-577.73 1790.04,-575.48 1790.9,-582.43"/>
</g>
<!-- handlers/credential.handler.ts&#45;&gt;config.ts -->
<g id="edge10" class="edge">
<title>handlers/credential.handler.ts&#45;&gt;config.ts</title>
<path fill="none" stroke="#757575" d="M767.21,-961.73C788.17,-967.81 810.03,-977.08 827,-991.22 845.27,-1006.45 914.81,-1150.2 940.71,-1204.55"/>
<polygon fill="#757575" stroke="#757575" points="937.56,-1206.07 945.01,-1213.6 943.88,-1203.07 937.56,-1206.07"/>
</g>
<!-- handlers/credential.handler.ts&#45;&gt;resources.ts -->
<g id="edge13" class="edge">
<title>handlers/credential.handler.ts&#45;&gt;resources.ts</title>
<path fill="none" stroke="#757575" d="M739.42,-961.76C895.35,-1003.67 1423.59,-1145.73 1441,-1151.22 1585.26,-1196.76 1629.19,-1192.99 1761,-1267.22 1778.9,-1277.31 1777.62,-1289.39 1797,-1296.22 1881.88,-1326.16 2535.7,-1351.14 2607,-1296.22 2652.44,-1261.23 2677.3,-1078.35 2684.65,-1014.92"/>
<polygon fill="#757575" stroke="#757575" points="2688.15,-1015.17 2685.79,-1004.84 2681.19,-1014.39 2688.15,-1015.17"/>
</g>
<!-- handlers/credential.handler.ts&#45;&gt;errors.ts -->
<g id="edge11" class="edge">
<title>handlers/credential.handler.ts&#45;&gt;errors.ts</title>
<path fill="none" stroke="#757575" d="M725.72,-938.61C827.53,-898.62 1176.77,-765.48 1477,-699.22 1720.59,-645.47 1786.05,-657.51 2034,-630.22 2186.41,-613.45 2367.81,-597.04 2448.57,-589.92"/>
<polygon fill="#757575" stroke="#757575" points="2449.18,-593.38 2458.83,-589.02 2448.57,-586.41 2449.18,-593.38"/>
</g>
<!-- handlers/credential.handler.ts&#45;&gt;handlers/schemas/index.ts -->
<g id="edge12" class="edge">
<title>handlers/credential.handler.ts&#45;&gt;handlers/schemas/index.ts</title>
<path fill="none" stroke="#757575" d="M792.16,-949.85C811.92,-949.77 832.76,-949.69 852.6,-949.61"/>
<polygon fill="#757575" stroke="#757575" points="852.89,-953.11 862.87,-949.57 852.86,-946.11 852.89,-953.11"/>
</g>
<!-- handlers/credential.handler.ts&#45;&gt;statements/index.ts -->
<g id="edge14" class="edge">
<title>handlers/credential.handler.ts&#45;&gt;statements/index.ts</title>
<path fill="none" stroke="#757575" d="M716.24,-938.71C742.86,-922.7 791.06,-891.96 827,-859.22 871.26,-818.91 914.45,-762.94 936.11,-733.38"/>
<polygon fill="#757575" stroke="#757575" points="939.08,-735.25 942.12,-725.1 933.42,-731.14 939.08,-735.25"/>
</g>
<!-- handlers/generatePresentation.handler.ts&#45;&gt;config.ts -->
<g id="edge15" class="edge">
<title>handlers/generatePresentation.handler.ts&#45;&gt;config.ts</title>
<path fill="none" stroke="#757575" d="M720.54,-849.82C749.35,-864.8 797.41,-893.37 827,-930.22 897.45,-1017.95 933.75,-1151.62 945.82,-1203.55"/>
<polygon fill="#757575" stroke="#757575" points="942.48,-1204.62 948.09,-1213.6 949.3,-1203.08 942.48,-1204.62"/>
</g>
<!-- handlers/generatePresentation.handler.ts&#45;&gt;resources.ts -->
<g id="edge18" class="edge">
<title>handlers/generatePresentation.handler.ts&#45;&gt;resources.ts</title>
<path fill="none" stroke="#757575" d="M827.21,-828.99C1010.26,-817.89 1332.73,-805.55 1441,-847.22 1465.61,-856.7 1773.77,-1148.74 1797,-1161.22 1893.1,-1212.89 1925.84,-1210.88 2034,-1225.22 2287.01,-1258.78 2405.5,-1343.87 2607,-1187.22 2662.59,-1144.01 2679.84,-1055.46 2684.96,-1014.67"/>
<polygon fill="#757575" stroke="#757575" points="2688.44,-1015.06 2686.08,-1004.73 2681.48,-1014.27 2688.44,-1015.06"/>
</g>
<!-- handlers/generatePresentation.handler.ts&#45;&gt;errors.ts -->
<g id="edge16" class="edge">
<title>handlers/generatePresentation.handler.ts&#45;&gt;errors.ts</title>
<path fill="none" stroke="#757575" d="M706.15,-826.72C745.9,-780.26 903.1,-605.73 1076,-538.22 1175.85,-499.24 1926.99,-430.57 2034,-424.22 2170.21,-416.15 2215.97,-369.6 2341,-424.22 2408.06,-453.53 2458.53,-529.24 2479.85,-565.83"/>
<polygon fill="#757575" stroke="#757575" points="2476.88,-567.68 2484.86,-574.64 2482.96,-564.22 2476.88,-567.68"/>
</g>
<!-- handlers/generatePresentation.handler.ts&#45;&gt;handlers/schemas/index.ts -->
<g id="edge17" class="edge">
<title>handlers/generatePresentation.handler.ts&#45;&gt;handlers/schemas/index.ts</title>
<path fill="none" stroke="#757575" d="M749.03,-849.75C773.28,-855.92 802.14,-864.48 827,-875.22 863.21,-890.88 901.72,-915.36 925.92,-931.83"/>
<polygon fill="#757575" stroke="#757575" points="924.24,-934.93 934.47,-937.72 928.22,-929.16 924.24,-934.93"/>
</g>
<!-- handlers/generatePresentation.handler.ts&#45;&gt;statements/index.ts -->
<g id="edge19" class="edge">
<title>handlers/generatePresentation.handler.ts&#45;&gt;statements/index.ts</title>
<path fill="none" stroke="#757575" d="M719.94,-826.69C765.49,-804.27 866.05,-754.79 918,-729.22"/>
<polygon fill="#757575" stroke="#757575" points="919.69,-732.29 927.12,-724.73 916.6,-726.01 919.69,-732.29"/>
</g>
<!-- handlers/location.handler.ts&#45;&gt;config.ts -->
<g id="edge25" class="edge">
<title>handlers/location.handler.ts&#45;&gt;config.ts</title>
<path fill="none" stroke="#757575" d="M438.93,-445.9C442.17,-527.48 465.41,-1011.82 564,-1111.22 647.84,-1195.76 722.24,-1105.63 827,-1162.22 847.19,-1173.13 843.37,-1187.35 863,-1199.22 876.55,-1207.42 892.86,-1213.18 907.7,-1217.16"/>
<polygon fill="#757575" stroke="#757575" points="907.15,-1220.62 917.69,-1219.63 908.83,-1213.83 907.15,-1220.62"/>
</g>
<!-- handlers/location.handler.ts&#45;&gt;errors.ts -->
<g id="edge26" class="edge">
<title>handlers/location.handler.ts&#45;&gt;errors.ts</title>
<path fill="none" stroke="#757575" d="M440.59,-422.55C448.44,-382.44 480.1,-249.36 564,-189.22 705.13,-88.07 776.86,-132.22 950.5,-132.22 950.5,-132.22 950.5,-132.22 1620,-132.22 1780.3,-132.22 2211.81,-59.33 2341,-154.22 2478.57,-255.28 2490.86,-491.29 2491.28,-564.31"/>
<polygon fill="#757575" stroke="#757575" points="2487.78,-564.57 2491.26,-574.58 2494.78,-564.58 2487.78,-564.57"/>
</g>
<!-- handlers/location.handler.ts&#45;&gt;handlers/schemas/index.ts -->
<g id="edge32" class="edge">
<title>handlers/location.handler.ts&#45;&gt;handlers/schemas/index.ts</title>
<path fill="none" stroke="#757575" d="M438.05,-445.82C436.55,-501.1 437.8,-740.18 564,-859.22 586.61,-880.55 769.34,-916.52 875.25,-935.9"/>
<polygon fill="#757575" stroke="#757575" points="874.79,-939.37 885.26,-937.72 876.05,-932.49 874.79,-939.37"/>
</g>
<!-- handlers/location/authorizationCode.ts -->
<g id="node14" class="node">
<title>handlers/location/authorizationCode.ts</title>
<path fill="none" stroke="#c6c5fe" d="M810.83,-445.72C810.83,-445.72 580.17,-445.72 580.17,-445.72 576.33,-445.72 572.5,-441.89 572.5,-438.06 572.5,-438.06 572.5,-430.39 572.5,-430.39 572.5,-426.56 576.33,-422.72 580.17,-422.72 580.17,-422.72 810.83,-422.72 810.83,-422.72 814.67,-422.72 818.5,-426.56 818.5,-430.39 818.5,-430.39 818.5,-438.06 818.5,-438.06 818.5,-441.89 814.67,-445.72 810.83,-445.72"/>
<text text-anchor="middle" x="695.5" y="-430.52" font-family="Arial" font-size="14.00" fill="#c6c5fe">handlers/location/authorizationCode.ts</text>
</g>
<!-- handlers/location.handler.ts&#45;&gt;handlers/location/authorizationCode.ts -->
<g id="edge27" class="edge">
<title>handlers/location.handler.ts&#45;&gt;handlers/location/authorizationCode.ts</title>
<path fill="none" stroke="#757575" d="M528.04,-434.22C539.08,-434.22 550.54,-434.22 562.05,-434.22"/>
<polygon fill="#757575" stroke="#757575" points="562.16,-437.72 572.16,-434.22 562.16,-430.72 562.16,-437.72"/>
</g>
<!-- handlers/location/credentialOffer.ts -->
<g id="node15" class="node">
<title>handlers/location/credentialOffer.ts</title>
<path fill="none" stroke="#c6c5fe" d="M800.33,-486.72C800.33,-486.72 590.67,-486.72 590.67,-486.72 586.83,-486.72 583,-482.89 583,-479.06 583,-479.06 583,-471.39 583,-471.39 583,-467.56 586.83,-463.72 590.67,-463.72 590.67,-463.72 800.33,-463.72 800.33,-463.72 804.17,-463.72 808,-467.56 808,-471.39 808,-471.39 808,-479.06 808,-479.06 808,-482.89 804.17,-486.72 800.33,-486.72"/>
<text text-anchor="middle" x="695.5" y="-471.52" font-family="Arial" font-size="14.00" fill="#c6c5fe">handlers/location/credentialOffer.ts</text>
</g>
<!-- handlers/location.handler.ts&#45;&gt;handlers/location/credentialOffer.ts -->
<g id="edge28" class="edge">
<title>handlers/location.handler.ts&#45;&gt;handlers/location/credentialOffer.ts</title>
<path fill="none" stroke="#757575" d="M510.49,-445.75C542.26,-450.84 579.75,-456.85 612.58,-462.1"/>
<polygon fill="#757575" stroke="#757575" points="612.18,-465.58 622.61,-463.71 613.29,-458.67 612.18,-465.58"/>
</g>
<!-- handlers/location/presentationRequest.ts -->
<g id="node16" class="node">
<title>handlers/location/presentationRequest.ts</title>
<path fill="none" stroke="#c6c5fe" d="M818.33,-371.72C818.33,-371.72 572.67,-371.72 572.67,-371.72 568.83,-371.72 565,-367.89 565,-364.06 565,-364.06 565,-356.39 565,-356.39 565,-352.56 568.83,-348.72 572.67,-348.72 572.67,-348.72 818.33,-348.72 818.33,-348.72 822.17,-348.72 826,-352.56 826,-356.39 826,-356.39 826,-364.06 826,-364.06 826,-367.89 822.17,-371.72 818.33,-371.72"/>
<text text-anchor="middle" x="695.5" y="-356.52" font-family="Arial" font-size="14.00" fill="#c6c5fe">handlers/location/presentationRequest.ts</text>
</g>
<!-- handlers/location.handler.ts&#45;&gt;handlers/location/presentationRequest.ts -->
<g id="edge29" class="edge">
<title>handlers/location.handler.ts&#45;&gt;handlers/location/presentationRequest.ts</title>
<path fill="none" stroke="#757575" d="M478.5,-422.66C523.36,-409.69 596.18,-388.65 644.69,-374.62"/>
<polygon fill="#757575" stroke="#757575" points="645.72,-377.97 654.36,-371.83 643.78,-371.24 645.72,-377.97"/>
</g>
<!-- handlers/location/presentationSuccess.ts -->
<g id="node17" class="node">
<title>handlers/location/presentationSuccess.ts</title>
<path fill="none" stroke="#c6c5fe" d="M1742.33,-224.72C1742.33,-224.72 1495.67,-224.72 1495.67,-224.72 1491.83,-224.72 1488,-220.89 1488,-217.06 1488,-217.06 1488,-209.39 1488,-209.39 1488,-205.56 1491.83,-201.72 1495.67,-201.72 1495.67,-201.72 1742.33,-201.72 1742.33,-201.72 1746.17,-201.72 1750,-205.56 1750,-209.39 1750,-209.39 1750,-217.06 1750,-217.06 1750,-220.89 1746.17,-224.72 1742.33,-224.72"/>
<text text-anchor="middle" x="1619" y="-209.52" font-family="Arial" font-size="14.00" fill="#c6c5fe">handlers/location/presentationSuccess.ts</text>
</g>
<!-- handlers/location.handler.ts&#45;&gt;handlers/location/presentationSuccess.ts -->
<g id="edge30" class="edge">
<title>handlers/location.handler.ts&#45;&gt;handlers/location/presentationSuccess.ts</title>
<path fill="none" stroke="#757575" d="M449.65,-422.48C470.12,-401.76 516,-359.01 564,-339.22 871.83,-212.35 1270.12,-201.8 1477.87,-206.57"/>
<polygon fill="#757575" stroke="#757575" points="1477.84,-210.08 1487.92,-206.82 1478.01,-203.08 1477.84,-210.08"/>
</g>
<!-- handlers/location/protocolError.ts -->
<g id="node18" class="node">
<title>handlers/location/protocolError.ts</title>
<path fill="none" stroke="#c6c5fe" d="M1718.33,-183.72C1718.33,-183.72 1519.67,-183.72 1519.67,-183.72 1515.83,-183.72 1512,-179.89 1512,-176.06 1512,-176.06 1512,-168.39 1512,-168.39 1512,-164.56 1515.83,-160.72 1519.67,-160.72 1519.67,-160.72 1718.33,-160.72 1718.33,-160.72 1722.17,-160.72 1726,-164.56 1726,-168.39 1726,-168.39 1726,-176.06 1726,-176.06 1726,-179.89 1722.17,-183.72 1718.33,-183.72"/>
<text text-anchor="middle" x="1619" y="-168.52" font-family="Arial" font-size="14.00" fill="#c6c5fe">handlers/location/protocolError.ts</text>
</g>
<!-- handlers/location.handler.ts&#45;&gt;handlers/location/protocolError.ts -->
<g id="edge31" class="edge">
<title>handlers/location.handler.ts&#45;&gt;handlers/location/protocolError.ts</title>
<path fill="none" stroke="#757575" d="M442.78,-422.57C455.46,-389.9 496.22,-297.27 564,-257.22 719.92,-165.11 1261.52,-164.49 1501.73,-169.05"/>
<polygon fill="#757575" stroke="#757575" points="1501.82,-172.55 1511.89,-169.25 1501.96,-165.56 1501.82,-172.55"/>
</g>
<!-- handlers/sendPresentation.handler.ts&#45;&gt;config.ts -->
<g id="edge49" class="edge">
<title>handlers/sendPresentation.handler.ts&#45;&gt;config.ts</title>
<path fill="none" stroke="#757575" d="M791.18,-1101.82C804.13,-1106.4 816.55,-1112.67 827,-1121.22 856.55,-1145.4 834.14,-1174.23 863,-1199.22 875.48,-1210.03 892.3,-1216.35 907.85,-1220.04"/>
<polygon fill="#757575" stroke="#757575" points="907.33,-1223.51 917.83,-1222.11 908.75,-1216.65 907.33,-1223.51"/>
</g>
<!-- handlers/sendPresentation.handler.ts&#45;&gt;resources.ts -->
<g id="edge52" class="edge">
<title>handlers/sendPresentation.handler.ts&#45;&gt;resources.ts</title>
<path fill="none" stroke="#757575" d="M706.15,-1102.07C756.59,-1162.55 997.58,-1434.22 1257.5,-1434.22 1257.5,-1434.22 1257.5,-1434.22 2188.5,-1434.22 2281.75,-1434.22 2537.26,-1465.14 2607,-1403.22 2665.93,-1350.91 2682.46,-1091.97 2686.11,-1014.9"/>
<polygon fill="#757575" stroke="#757575" points="2689.61,-1015.04 2686.56,-1004.9 2682.61,-1014.73 2689.61,-1015.04"/>
</g>
<!-- handlers/sendPresentation.handler.ts&#45;&gt;errors.ts -->
<g id="edge50" class="edge">
<title>handlers/sendPresentation.handler.ts&#45;&gt;errors.ts</title>
<path fill="none" stroke="#757575" d="M786.41,-1101.75C927.76,-1117.17 1209.7,-1137.01 1441,-1085.22 1707.23,-1025.62 1820.65,-1034.54 1998,-827.22 2035.86,-782.97 1989.75,-739.09 2034,-701.22 2086.23,-656.53 2275.3,-683.45 2341,-663.22 2386.94,-649.08 2435.67,-621.39 2464.7,-603.36"/>
<polygon fill="#757575" stroke="#757575" points="2466.81,-606.17 2473.41,-597.88 2463.08,-600.25 2466.81,-606.17"/>
</g>
<!-- handlers/sendPresentation.handler.ts&#45;&gt;handlers/schemas/index.ts -->
<g id="edge51" class="edge">
<title>handlers/sendPresentation.handler.ts&#45;&gt;handlers/schemas/index.ts</title>
<path fill="none" stroke="#757575" d="M726.49,-1078.63C753.41,-1067.82 793.69,-1050.64 827,-1032.22 863.24,-1012.19 902.53,-984.7 926.83,-966.95"/>
<polygon fill="#757575" stroke="#757575" points="929.09,-969.63 935.07,-960.88 924.94,-963.99 929.09,-969.63"/>
</g>
<!-- handlers/sendPresentation.handler.ts&#45;&gt;statements/index.ts -->
<g id="edge53" class="edge">
<title>handlers/sendPresentation.handler.ts&#45;&gt;statements/index.ts</title>
<path fill="none" stroke="#757575" d="M745.94,-1078.63C773.13,-1069.95 805.58,-1055.47 827,-1032.22 859.86,-996.56 845.89,-974.6 863,-929.22 890.14,-857.25 925.23,-773.04 941.49,-734.47"/>
<polygon fill="#757575" stroke="#757575" points="944.89,-735.43 945.56,-724.85 938.44,-732.7 944.89,-735.43"/>
</g>
<!-- handlers/location/authorizationCode.ts&#45;&gt;resources.ts -->
<g id="edge34" class="edge">
<title>handlers/location/authorizationCode.ts&#45;&gt;resources.ts</title>
<path fill="none" stroke="#757575" d="M747.28,-422.64C1021.73,-361.31 2325.87,-86.85 2607,-342.22 2654.83,-385.67 2680.73,-863.79 2685.99,-971.68"/>
<polygon fill="#757575" stroke="#757575" points="2682.5,-971.89 2686.47,-981.71 2689.49,-971.55 2682.5,-971.89"/>
</g>
<!-- handlers/location/authorizationCode.ts&#45;&gt;errors.ts -->
<g id="edge33" class="edge">
<title>handlers/location/authorizationCode.ts&#45;&gt;errors.ts</title>
<path fill="none" stroke="#757575" d="M818.83,-440.19C1000.18,-447.43 1330.81,-453.97 1441,-412.22 1460.48,-404.85 1457.56,-389.7 1477,-382.22 1708.24,-293.3 1786.3,-365.11 2034,-360.22 2170.42,-357.53 2220.77,-295.72 2341,-360.22 2342.35,-360.95 2440.95,-510.32 2477.53,-565.8"/>
<polygon fill="#757575" stroke="#757575" points="2474.8,-568.01 2483.23,-574.44 2480.65,-564.16 2474.8,-568.01"/>
</g>
<!-- handlers/location/authorizationCode.ts&#45;&gt;statements/index.ts -->
<g id="edge35" class="edge">
<title>handlers/location/authorizationCode.ts&#45;&gt;statements/index.ts</title>
<path fill="none" stroke="#757575" d="M813.2,-445.8C818.05,-448.22 822.68,-451.01 827,-454.22 907.84,-514.28 938.02,-641.01 947.14,-691.65"/>
<polygon fill="#757575" stroke="#757575" points="943.69,-692.24 948.82,-701.51 950.59,-691.07 943.69,-692.24"/>
</g>
<!-- handlers/location/credentialOffer.ts&#45;&gt;errors.ts -->
<g id="edge36" class="edge">
<title>handlers/location/credentialOffer.ts&#45;&gt;errors.ts</title>
<path fill="none" stroke="#757575" d="M808.21,-478.14C986.16,-481.66 1325.67,-483.49 1441,-450.22 1458.8,-445.09 1459.29,-434.66 1477,-429.22 1714.19,-356.35 1786.01,-399.67 2034,-391.22 2170.37,-386.58 2218.59,-330.95 2341,-391.22 2416.05,-428.18 2464.06,-522.72 2482.48,-565.11"/>
<polygon fill="#757575" stroke="#757575" points="2479.32,-566.62 2486.43,-574.47 2485.76,-563.89 2479.32,-566.62"/>
</g>
<!-- handlers/location/credentialOffer.ts&#45;&gt;statements/index.ts -->
<g id="edge37" class="edge">
<title>handlers/location/credentialOffer.ts&#45;&gt;statements/index.ts</title>
<path fill="none" stroke="#757575" d="M709.1,-487.03C750.15,-525.5 880.35,-647.5 930.52,-694.51"/>
<polygon fill="#757575" stroke="#757575" points="928.44,-697.35 938.13,-701.63 933.22,-692.24 928.44,-697.35"/>
</g>
<!-- handlers/location/presentationRequest.ts&#45;&gt;ports.ts -->
<g id="edge39" class="edge">
<title>handlers/location/presentationRequest.ts&#45;&gt;ports.ts</title>
<path fill="none" stroke="#757575" d="M760.42,-371.75C893.56,-395.65 1210.44,-452 1477,-495.22 1540.01,-505.44 1716.91,-492.06 1761,-538.22 1814.09,-593.81 1750.9,-820.73 1797,-882.22 1865.27,-973.29 1922.68,-955.55 2034,-979.22 2185.4,-1011.42 2371.3,-1002.69 2451.31,-996.7"/>
<polygon fill="#757575" stroke="#757575" points="2451.73,-1000.18 2461.43,-995.92 2451.19,-993.2 2451.73,-1000.18"/>
</g>
<!-- handlers/location/presentationRequest.ts&#45;&gt;resources.ts -->
<g id="edge40" class="edge">
<title>handlers/location/presentationRequest.ts&#45;&gt;resources.ts</title>
<path fill="none" stroke="#757575" d="M722,-348.53C875.8,-279.55 1694.82,65.44 2341,-102.22 2471.95,-136.2 2532.28,-137.44 2607,-250.22 2688.32,-372.96 2688.33,-862.1 2687.28,-971.46"/>
<polygon fill="#757575" stroke="#757575" points="2683.78,-971.57 2687.17,-981.61 2690.78,-971.65 2683.78,-971.57"/>
</g>
<!-- handlers/location/presentationRequest.ts&#45;&gt;errors.ts -->
<g id="edge38" class="edge">
<title>handlers/location/presentationRequest.ts&#45;&gt;errors.ts</title>
<path fill="none" stroke="#757575" d="M823.26,-348.71C836.67,-347.75 850.11,-346.89 863,-346.22 1027.02,-337.73 2198.71,-245.2 2341,-327.22 2432.62,-380.04 2473.37,-512.58 2486.22,-564.69"/>
<polygon fill="#757575" stroke="#757575" points="2482.85,-565.61 2488.55,-574.54 2489.66,-564 2482.85,-565.61"/>
</g>
<!-- handlers/location/presentationRequest.ts&#45;&gt;statements/index.ts -->
<g id="edge41" class="edge">
<title>handlers/location/presentationRequest.ts&#45;&gt;statements/index.ts</title>
<path fill="none" stroke="#757575" d="M750.57,-371.78C776.48,-379.69 806.29,-392.61 827,-413.22 908.62,-494.46 938.64,-637.29 947.42,-691.52"/>
<polygon fill="#757575" stroke="#757575" points="944.01,-692.34 948.99,-701.69 950.93,-691.27 944.01,-692.34"/>
</g>
<!-- handlers/location/presentationSuccess.ts&#45;&gt;errors.ts -->
<g id="edge42" class="edge">
<title>handlers/location/presentationSuccess.ts&#45;&gt;errors.ts</title>
<path fill="none" stroke="#757575" d="M1750.18,-209.8C1931.48,-207.5 2248.22,-213.24 2341,-277.22 2442.71,-347.36 2478.04,-506.37 2487.81,-564.46"/>
<polygon fill="#757575" stroke="#757575" points="2484.41,-565.35 2489.44,-574.67 2491.32,-564.25 2484.41,-565.35"/>
</g>
<!-- handlers/location/protocolError.ts&#45;&gt;errors.ts -->
<g id="edge43" class="edge">
<title>handlers/location/protocolError.ts&#45;&gt;errors.ts</title>
<path fill="none" stroke="#757575" d="M1726.02,-164.61C1902.21,-154.13 2245.38,-143.61 2341,-212.22 2461.36,-298.59 2485.23,-497.96 2489.89,-564.31"/>
<polygon fill="#757575" stroke="#757575" points="2486.41,-564.67 2490.52,-574.44 2493.39,-564.24 2486.41,-564.67"/>
</g>
<!-- index.ts -->
<g id="node24" class="node">
<title>index.ts</title>
<path fill="none" stroke="#c6c5fe" d="M55.33,-1022.72C55.33,-1022.72 7.67,-1022.72 7.67,-1022.72 3.83,-1022.72 0,-1018.89 0,-1015.06 0,-1015.06 0,-1007.39 0,-1007.39 0,-1003.56 3.83,-999.72 7.67,-999.72 7.67,-999.72 55.33,-999.72 55.33,-999.72 59.17,-999.72 63,-1003.56 63,-1007.39 63,-1007.39 63,-1015.06 63,-1015.06 63,-1018.89 59.17,-1022.72 55.33,-1022.72"/>
<text text-anchor="middle" x="31.5" y="-1007.52" font-family="Arial" font-size="14.00" fill="#c6c5fe">index.ts</text>
</g>
<!-- index.ts&#45;&gt;config.ts -->
<g id="edge54" class="edge">
<title>index.ts&#45;&gt;config.ts</title>
<path fill="none" stroke="#757575" d="M37.73,-1022.78C58.15,-1065.93 136.98,-1215.22 250.5,-1215.22 250.5,-1215.22 250.5,-1215.22 438.5,-1215.22 612.57,-1215.22 819.86,-1221.07 907.74,-1223.83"/>
<polygon fill="#757575" stroke="#757575" points="907.75,-1227.33 917.86,-1224.14 907.97,-1220.33 907.75,-1227.33"/>
</g>
<!-- index.ts&#45;&gt;ports.ts -->
<g id="edge58" class="edge">
<title>index.ts&#45;&gt;ports.ts</title>
<path fill="none" stroke="#757575" d="M32.67,-999.63C34.52,-893.48 54.95,-94.22 250.5,-94.22 250.5,-94.22 250.5,-94.22 438.5,-94.22 1052.7,-94.22 1368.99,-22.38 1761,-495.22 1855.73,-609.48 1700.72,-714.27 1797,-827.22 1857.08,-897.71 1924.99,-825.24 1998,-882.22 2023.73,-902.3 2006.71,-928.33 2034,-946.22 2038.36,-949.08 2340.92,-978.67 2451.28,-989.38"/>
<polygon fill="#757575" stroke="#757575" points="2451.05,-992.88 2461.34,-990.36 2451.73,-985.91 2451.05,-992.88"/>
</g>
<!-- index.ts&#45;&gt;resources.ts -->
<g id="edge59" class="edge">
<title>index.ts&#45;&gt;resources.ts</title>
<path fill="none" stroke="#757575" d="M32.48,-1023.08C33,-1095.24 45.55,-1472.22 250.5,-1472.22 250.5,-1472.22 250.5,-1472.22 2188.5,-1472.22 2375.19,-1472.22 2469.01,-1561.96 2607,-1436.22 2670.17,-1378.66 2683.8,-1096.11 2686.42,-1015.02"/>
<polygon fill="#757575" stroke="#757575" points="2689.92,-1015.06 2686.73,-1004.96 2682.93,-1014.85 2689.92,-1015.06"/>
</g>
<!-- index.ts&#45;&gt;core.ts -->
<g id="edge55" class="edge">
<title>index.ts&#45;&gt;core.ts</title>
<path fill="none" stroke="#757575" d="M63.02,-1017.72C71.34,-1019.49 80.45,-1021.43 89.11,-1023.27"/>
<polygon fill="#757575" stroke="#757575" points="88.48,-1026.71 98.99,-1025.37 89.94,-1019.87 88.48,-1026.71"/>
</g>
<!-- index.ts&#45;&gt;handlers/index.ts -->
<g id="edge57" class="edge">
<title>index.ts&#45;&gt;handlers/index.ts</title>
<path fill="none" stroke="#757575" d="M63.27,-1008.4C93.83,-1005.6 141.72,-1001.2 181.41,-997.56"/>
<polygon fill="#757575" stroke="#757575" points="181.94,-1001.03 191.57,-996.63 181.3,-994.06 181.94,-1001.03"/>
</g>
<!-- index.ts&#45;&gt;errors.ts -->
<g id="edge56" class="edge">
<title>index.ts&#45;&gt;errors.ts</title>
<path fill="none" stroke="#757575" d="M32.88,-999.58C36.08,-903.74 59.4,-246.66 99,-169.22 137.25,-94.44 166.5,-56.22 250.5,-56.22 250.5,-56.22 250.5,-56.22 1620,-56.22 1941.1,-56.22 2088.72,96.41 2341,-102.22 2417.31,-162.31 2473.58,-478.86 2487.6,-564.72"/>
<polygon fill="#757575" stroke="#757575" points="2484.16,-565.33 2489.2,-574.64 2491.07,-564.21 2484.16,-565.33"/>
</g>
<!-- statements/locations/fetchAuthorizationUrl.ts -->
<g id="node30" class="node">
<title>statements/locations/fetchAuthorizationUrl.ts</title>
<path fill="none" stroke="#c6c5fe" d="M1753.33,-570.72C1753.33,-570.72 1484.67,-570.72 1484.67,-570.72 1480.83,-570.72 1477,-566.89 1477,-563.06 1477,-563.06 1477,-555.39 1477,-555.39 1477,-551.56 1480.83,-547.72 1484.67,-547.72 1484.67,-547.72 1753.33,-547.72 1753.33,-547.72 1757.17,-547.72 1761,-551.56 1761,-555.39 1761,-555.39 1761,-563.06 1761,-563.06 1761,-566.89 1757.17,-570.72 1753.33,-570.72"/>
<text text-anchor="middle" x="1619" y="-555.52" font-family="Arial" font-size="14.00" fill="#c6c5fe">statements/locations/fetchAuthorizationUrl.ts</text>
</g>
<!-- statements/locations/index.ts&#45;&gt;statements/locations/fetchAuthorizationUrl.ts -->
<g id="edge70" class="edge">
<title>statements/locations/index.ts&#45;&gt;statements/locations/fetchAuthorizationUrl.ts</title>
<path fill="none" stroke="#757575" d="M1354.16,-559.22C1388.63,-559.22 1428.51,-559.22 1466.66,-559.22"/>
<polygon fill="#757575" stroke="#757575" points="1466.85,-562.72 1476.85,-559.22 1466.84,-555.72 1466.85,-562.72"/>
</g>
<!-- statements/resources/clientState.ts -->
<g id="node31" class="node">
<title>statements/resources/clientState.ts</title>
<path fill="none" stroke="#c6c5fe" d="M2293.33,-1092.72C2293.33,-1092.72 2081.67,-1092.72 2081.67,-1092.72 2077.83,-1092.72 2074,-1088.89 2074,-1085.06 2074,-1085.06 2074,-1077.39 2074,-1077.39 2074,-1073.56 2077.83,-1069.72 2081.67,-1069.72 2081.67,-1069.72 2293.33,-1069.72 2293.33,-1069.72 2297.17,-1069.72 2301,-1073.56 2301,-1077.39 2301,-1077.39 2301,-1085.06 2301,-1085.06 2301,-1088.89 2297.17,-1092.72 2293.33,-1092.72"/>
<text text-anchor="middle" x="2187.5" y="-1077.52" font-family="Arial" font-size="14.00" fill="#c6c5fe">statements/resources/clientState.ts</text>
</g>
<!-- statements/resources/index.ts&#45;&gt;statements/resources/clientState.ts -->
<g id="edge77" class="edge">
<title>statements/resources/index.ts&#45;&gt;statements/resources/clientState.ts</title>
<path fill="none" stroke="#757575" d="M1996,-1081.22C2017.82,-1081.22 2041.24,-1081.22 2063.93,-1081.22"/>
<polygon fill="#757575" stroke="#757575" points="2063.95,-1084.72 2073.95,-1081.22 2063.95,-1077.72 2063.95,-1084.72"/>
</g>
<!-- statements/resources/fetchIssuerMetadata.ts -->
<g id="node32" class="node">
<title>statements/resources/fetchIssuerMetadata.ts</title>
<path fill="none" stroke="#c6c5fe" d="M2323.33,-1174.72C2323.33,-1174.72 2051.67,-1174.72 2051.67,-1174.72 2047.83,-1174.72 2044,-1170.89 2044,-1167.06 2044,-1167.06 2044,-1159.39 2044,-1159.39 2044,-1155.56 2047.83,-1151.72 2051.67,-1151.72 2051.67,-1151.72 2323.33,-1151.72 2323.33,-1151.72 2327.17,-1151.72 2331,-1155.56 2331,-1159.39 2331,-1159.39 2331,-1167.06 2331,-1167.06 2331,-1170.89 2327.17,-1174.72 2323.33,-1174.72"/>
<text text-anchor="middle" x="2187.5" y="-1159.52" font-family="Arial" font-size="14.00" fill="#c6c5fe">statements/resources/fetchIssuerMetadata.ts</text>
</g>
<!-- statements/resources/index.ts&#45;&gt;statements/resources/fetchIssuerMetadata.ts -->
<g id="edge78" class="edge">
<title>statements/resources/index.ts&#45;&gt;statements/resources/fetchIssuerMetadata.ts</title>
<path fill="none" stroke="#757575" d="M1918.88,-1092.9C1944.77,-1107.17 1991.23,-1130.94 2034,-1143.22 2042.58,-1145.69 2051.51,-1147.85 2060.56,-1149.75"/>
<polygon fill="#757575" stroke="#757575" points="2059.94,-1153.19 2070.43,-1151.7 2061.3,-1146.32 2059.94,-1153.19"/>
</g>
<!-- statements/resources/issuerClient.ts -->
<g id="node33" class="node">
<title>statements/resources/issuerClient.ts</title>
<path fill="none" stroke="#c6c5fe" d="M2297.33,-1133.72C2297.33,-1133.72 2077.67,-1133.72 2077.67,-1133.72 2073.83,-1133.72 2070,-1129.89 2070,-1126.06 2070,-1126.06 2070,-1118.39 2070,-1118.39 2070,-1114.56 2073.83,-1110.72 2077.67,-1110.72 2077.67,-1110.72 2297.33,-1110.72 2297.33,-1110.72 2301.17,-1110.72 2305,-1114.56 2305,-1118.39 2305,-1118.39 2305,-1126.06 2305,-1126.06 2305,-1129.89 2301.17,-1133.72 2297.33,-1133.72"/>
<text text-anchor="middle" x="2187.5" y="-1118.52" font-family="Arial" font-size="14.00" fill="#c6c5fe">statements/resources/issuerClient.ts</text>
</g>
<!-- statements/resources/index.ts&#45;&gt;statements/resources/issuerClient.ts -->
<g id="edge79" class="edge">
<title>statements/resources/index.ts&#45;&gt;statements/resources/issuerClient.ts</title>
<path fill="none" stroke="#757575" d="M1970.88,-1092.76C1991.28,-1095.93 2013.5,-1099.29 2034,-1102.22 2050.68,-1104.61 2068.41,-1107.04 2085.65,-1109.34"/>
<polygon fill="#757575" stroke="#757575" points="2085.36,-1112.83 2095.73,-1110.67 2086.28,-1105.89 2085.36,-1112.83"/>
</g>
<!-- statements/responses/presentationResponse.ts -->
<g id="node34" class="node">
<title>statements/responses/presentationResponse.ts</title>
<path fill="none" stroke="#c6c5fe" d="M2330.83,-1215.72C2330.83,-1215.72 2044.17,-1215.72 2044.17,-1215.72 2040.33,-1215.72 2036.5,-1211.89 2036.5,-1208.06 2036.5,-1208.06 2036.5,-1200.39 2036.5,-1200.39 2036.5,-1196.56 2040.33,-1192.72 2044.17,-1192.72 2044.17,-1192.72 2330.83,-1192.72 2330.83,-1192.72 2334.67,-1192.72 2338.5,-1196.56 2338.5,-1200.39 2338.5,-1200.39 2338.5,-1208.06 2338.5,-1208.06 2338.5,-1211.89 2334.67,-1215.72 2330.83,-1215.72"/>
<text text-anchor="middle" x="2187.5" y="-1200.52" font-family="Arial" font-size="14.00" fill="#c6c5fe">statements/responses/presentationResponse.ts</text>
</g>
<!-- statements/responses/index.ts&#45;&gt;statements/responses/presentationResponse.ts -->
<g id="edge82" class="edge">
<title>statements/responses/index.ts&#45;&gt;statements/responses/presentationResponse.ts</title>
<path fill="none" stroke="#757575" d="M1634.92,-865.89C1663.26,-888.77 1725.24,-942.37 1761,-1000.22 1786.28,-1041.12 1762.9,-1068.34 1797,-1102.22 1857.15,-1162 1947.75,-1188.03 2026.45,-1198.87"/>
<polygon fill="#757575" stroke="#757575" points="2026.11,-1202.36 2036.48,-1200.18 2027.01,-1195.41 2026.11,-1202.36"/>
</g>
<!-- statements/tokens/fetchAccessToken.ts -->
<g id="node35" class="node">
<title>statements/tokens/fetchAccessToken.ts</title>
<path fill="none" stroke="#c6c5fe" d="M2306.83,-936.72C2306.83,-936.72 2068.17,-936.72 2068.17,-936.72 2064.33,-936.72 2060.5,-932.89 2060.5,-929.06 2060.5,-929.06 2060.5,-921.39 2060.5,-921.39 2060.5,-917.56 2064.33,-913.72 2068.17,-913.72 2068.17,-913.72 2306.83,-913.72 2306.83,-913.72 2310.67,-913.72 2314.5,-917.56 2314.5,-921.39 2314.5,-921.39 2314.5,-929.06 2314.5,-929.06 2314.5,-932.89 2310.67,-936.72 2306.83,-936.72"/>
<text text-anchor="middle" x="2187.5" y="-921.52" font-family="Arial" font-size="14.00" fill="#c6c5fe">statements/tokens/fetchAccessToken.ts</text>
</g>
<!-- statements/tokens/index.ts&#45;&gt;statements/tokens/fetchAccessToken.ts -->
<g id="edge99" class="edge">
<title>statements/tokens/index.ts&#45;&gt;statements/tokens/fetchAccessToken.ts</title>
<path fill="none" stroke="#757575" d="M1933.73,-818.74C1954.01,-826.56 1979.13,-838.37 1998,-854.22 2019.24,-872.07 2010.25,-890.88 2034,-905.22 2039.4,-908.49 2045.1,-911.31 2051,-913.76"/>
<polygon fill="#757575" stroke="#757575" points="2049.84,-917.07 2060.43,-917.31 2052.3,-910.51 2049.84,-917.07"/>
</g>
<!-- statements/tokens/fetchCredentials.ts -->
<g id="node36" class="node">
<title>statements/tokens/fetchCredentials.ts</title>
<path fill="none" stroke="#c6c5fe" d="M2300.83,-895.72C2300.83,-895.72 2074.17,-895.72 2074.17,-895.72 2070.33,-895.72 2066.5,-891.89 2066.5,-888.06 2066.5,-888.06 2066.5,-880.39 2066.5,-880.39 2066.5,-876.56 2070.33,-872.72 2074.17,-872.72 2074.17,-872.72 2300.83,-872.72 2300.83,-872.72 2304.67,-872.72 2308.5,-876.56 2308.5,-880.39 2308.5,-880.39 2308.5,-888.06 2308.5,-888.06 2308.5,-891.89 2304.67,-895.72 2300.83,-895.72"/>
<text text-anchor="middle" x="2187.5" y="-880.52" font-family="Arial" font-size="14.00" fill="#c6c5fe">statements/tokens/fetchCredentials.ts</text>
</g>
<!-- statements/tokens/index.ts&#45;&gt;statements/tokens/fetchCredentials.ts -->
<g id="edge100" class="edge">
<title>statements/tokens/index.ts&#45;&gt;statements/tokens/fetchCredentials.ts</title>
<path fill="none" stroke="#757575" d="M1920.85,-818.83C1947.19,-831.98 1992.61,-853.02 2034,-864.22 2043.18,-866.71 2052.76,-868.89 2062.45,-870.8"/>
<polygon fill="#757575" stroke="#757575" points="2062.1,-874.3 2072.58,-872.7 2063.39,-867.42 2062.1,-874.3"/>
</g>
<!-- statements/tokens/fetchNonce.ts -->
<g id="node37" class="node">
<title>statements/tokens/fetchNonce.ts</title>
<path fill="none" stroke="#c6c5fe" d="M2286.33,-854.72C2286.33,-854.72 2088.67,-854.72 2088.67,-854.72 2084.83,-854.72 2081,-850.89 2081,-847.06 2081,-847.06 2081,-839.39 2081,-839.39 2081,-835.56 2084.83,-831.72 2088.67,-831.72 2088.67,-831.72 2286.33,-831.72 2286.33,-831.72 2290.17,-831.72 2294,-835.56 2294,-839.39 2294,-839.39 2294,-847.06 2294,-847.06 2294,-850.89 2290.17,-854.72 2286.33,-854.72"/>
<text text-anchor="middle" x="2187.5" y="-839.52" font-family="Arial" font-size="14.00" fill="#c6c5fe">statements/tokens/fetchNonce.ts</text>
</g>
<!-- statements/tokens/index.ts&#45;&gt;statements/tokens/fetchNonce.ts -->
<g id="edge101" class="edge">
<title>statements/tokens/index.ts&#45;&gt;statements/tokens/fetchNonce.ts</title>
<path fill="none" stroke="#757575" d="M1986.08,-818.17C2016.99,-822.04 2052.02,-826.41 2084.06,-830.42"/>
<polygon fill="#757575" stroke="#757575" points="2083.98,-833.94 2094.34,-831.7 2084.85,-826.99 2083.98,-833.94"/>
</g>
<!-- statements/tokens/generateDpop.ts -->
<g id="node38" class="node">
<title>statements/tokens/generateDpop.ts</title>
<path fill="none" stroke="#c6c5fe" d="M2599.33,-776.72C2599.33,-776.72 2384.67,-776.72 2384.67,-776.72 2380.83,-776.72 2377,-772.89 2377,-769.06 2377,-769.06 2377,-761.39 2377,-761.39 2377,-757.56 2380.83,-753.72 2384.67,-753.72 2384.67,-753.72 2599.33,-753.72 2599.33,-753.72 2603.17,-753.72 2607,-757.56 2607,-761.39 2607,-761.39 2607,-769.06 2607,-769.06 2607,-772.89 2603.17,-776.72 2599.33,-776.72"/>
<text text-anchor="middle" x="2492" y="-761.52" font-family="Arial" font-size="14.00" fill="#c6c5fe">statements/tokens/generateDpop.ts</text>
</g>
<!-- statements/tokens/index.ts&#45;&gt;statements/tokens/generateDpop.ts -->
<g id="edge102" class="edge">
<title>statements/tokens/index.ts&#45;&gt;statements/tokens/generateDpop.ts</title>
<path fill="none" stroke="#757575" d="M1948.73,-795.67C1974.14,-790.31 2005.56,-784.43 2034,-781.22 2145.97,-768.6 2274.25,-765.05 2366.34,-764.4"/>
<polygon fill="#757575" stroke="#757575" points="2366.57,-767.9 2376.55,-764.34 2366.53,-760.9 2366.57,-767.9"/>
</g>
<!-- statements/tokens/generateVpToken.ts -->
<g id="node39" class="node">
<title>statements/tokens/generateVpToken.ts</title>
<path fill="none" stroke="#c6c5fe" d="M2305.33,-813.72C2305.33,-813.72 2069.67,-813.72 2069.67,-813.72 2065.83,-813.72 2062,-809.89 2062,-806.06 2062,-806.06 2062,-798.39 2062,-798.39 2062,-794.56 2065.83,-790.72 2069.67,-790.72 2069.67,-790.72 2305.33,-790.72 2305.33,-790.72 2309.17,-790.72 2313,-794.56 2313,-798.39 2313,-798.39 2313,-806.06 2313,-806.06 2313,-809.89 2309.17,-813.72 2305.33,-813.72"/>
<text text-anchor="middle" x="2187.5" y="-798.52" font-family="Arial" font-size="14.00" fill="#c6c5fe">statements/tokens/generateVpToken.ts</text>
</g>
<!-- statements/tokens/index.ts&#45;&gt;statements/tokens/generateVpToken.ts -->
<g id="edge103" class="edge">
<title>statements/tokens/index.ts&#45;&gt;statements/tokens/generateVpToken.ts</title>
<path fill="none" stroke="#757575" d="M1986.08,-805.7C2006.82,-805.34 2029.41,-804.95 2051.71,-804.56"/>
<polygon fill="#757575" stroke="#757575" points="2051.99,-808.06 2061.92,-804.39 2051.86,-801.06 2051.99,-808.06"/>
</g>
<!-- statements/validations/validateClientMetadata.ts -->
<g id="node40" class="node">
<title>statements/validations/validateClientMetadata.ts</title>
<path fill="none" stroke="#c6c5fe" d="M2333.33,-456.72C2333.33,-456.72 2041.67,-456.72 2041.67,-456.72 2037.83,-456.72 2034,-452.89 2034,-449.06 2034,-449.06 2034,-441.39 2034,-441.39 2034,-437.56 2037.83,-433.72 2041.67,-433.72 2041.67,-433.72 2333.33,-433.72 2333.33,-433.72 2337.17,-433.72 2341,-437.56 2341,-441.39 2341,-441.39 2341,-449.06 2341,-449.06 2341,-452.89 2337.17,-456.72 2333.33,-456.72"/>
<text text-anchor="middle" x="2187.5" y="-441.52" font-family="Arial" font-size="14.00" fill="#c6c5fe">statements/validations/validateClientMetadata.ts</text>
</g>
<!-- statements/validations/index.ts&#45;&gt;statements/validations/validateClientMetadata.ts -->
<g id="edge104" class="edge">
<title>statements/validations/index.ts&#45;&gt;statements/validations/validateClientMetadata.ts</title>
<path fill="none" stroke="#757575" d="M1922.78,-554.58C1949.75,-541.77 1994.67,-520.81 2034,-504.22 2071.41,-488.45 2114.62,-471.88 2145.47,-460.34"/>
<polygon fill="#757575" stroke="#757575" points="2146.88,-463.54 2155.03,-456.77 2144.44,-456.99 2146.88,-463.54"/>
</g>
<!-- statements/validations/validateCredentialOffer.ts -->
<g id="node41" class="node">
<title>statements/validations/validateCredentialOffer.ts</title>
<path fill="none" stroke="#c6c5fe" d="M2333.33,-577.72C2333.33,-577.72 2041.67,-577.72 2041.67,-577.72 2037.83,-577.72 2034,-573.89 2034,-570.06 2034,-570.06 2034,-562.39 2034,-562.39 2034,-558.56 2037.83,-554.72 2041.67,-554.72 2041.67,-554.72 2333.33,-554.72 2333.33,-554.72 2337.17,-554.72 2341,-558.56 2341,-562.39 2341,-562.39 2341,-570.06 2341,-570.06 2341,-573.89 2337.17,-577.72 2333.33,-577.72"/>
<text text-anchor="middle" x="2187.5" y="-562.52" font-family="Arial" font-size="14.00" fill="#c6c5fe">statements/validations/validateCredentialOffer.ts</text>
</g>
<!-- statements/validations/index.ts&#45;&gt;statements/validations/validateCredentialOffer.ts -->
<g id="edge105" class="edge">
<title>statements/validations/index.ts&#45;&gt;statements/validations/validateCredentialOffer.ts</title>
<path fill="none" stroke="#757575" d="M1998.02,-566.22C2006.37,-566.22 2014.95,-566.22 2023.62,-566.22"/>
<polygon fill="#757575" stroke="#757575" points="2023.83,-569.72 2033.83,-566.22 2023.83,-562.72 2023.83,-569.72"/>
</g>
<!-- statements/validations/validateDcqlQuery.ts -->
<g id="node42" class="node">
<title>statements/validations/validateDcqlQuery.ts</title>
<path fill="none" stroke="#c6c5fe" d="M2319.33,-536.72C2319.33,-536.72 2055.67,-536.72 2055.67,-536.72 2051.83,-536.72 2048,-532.89 2048,-529.06 2048,-529.06 2048,-521.39 2048,-521.39 2048,-517.56 2051.83,-513.72 2055.67,-513.72 2055.67,-513.72 2319.33,-513.72 2319.33,-513.72 2323.17,-513.72 2327,-517.56 2327,-521.39 2327,-521.39 2327,-529.06 2327,-529.06 2327,-532.89 2323.17,-536.72 2319.33,-536.72"/>
<text text-anchor="middle" x="2187.5" y="-521.52" font-family="Arial" font-size="14.00" fill="#c6c5fe">statements/validations/validateDcqlQuery.ts</text>
</g>
<!-- statements/validations/index.ts&#45;&gt;statements/validations/validateDcqlQuery.ts -->
<g id="edge106" class="edge">
<title>statements/validations/index.ts&#45;&gt;statements/validations/validateDcqlQuery.ts</title>
<path fill="none" stroke="#757575" d="M1970.88,-554.69C1991.28,-551.52 2013.5,-548.16 2034,-545.22 2050.68,-542.84 2068.41,-540.41 2085.65,-538.11"/>
<polygon fill="#757575" stroke="#757575" points="2086.28,-541.56 2095.73,-536.77 2085.36,-534.62 2086.28,-541.56"/>
</g>
<!-- statements/validations/validateGrants.ts -->
<g id="node43" class="node">
<title>statements/validations/validateGrants.ts</title>
<path fill="none" stroke="#c6c5fe" d="M2308.33,-733.72C2308.33,-733.72 2066.67,-733.72 2066.67,-733.72 2062.83,-733.72 2059,-729.89 2059,-726.06 2059,-726.06 2059,-718.39 2059,-718.39 2059,-714.56 2062.83,-710.72 2066.67,-710.72 2066.67,-710.72 2308.33,-710.72 2308.33,-710.72 2312.17,-710.72 2316,-714.56 2316,-718.39 2316,-718.39 2316,-726.06 2316,-726.06 2316,-729.89 2312.17,-733.72 2308.33,-733.72"/>
<text text-anchor="middle" x="2187.5" y="-718.52" font-family="Arial" font-size="14.00" fill="#c6c5fe">statements/validations/validateGrants.ts</text>
</g>
<!-- statements/validations/index.ts&#45;&gt;statements/validations/validateGrants.ts -->
<g id="edge107" class="edge">
<title>statements/validations/index.ts&#45;&gt;statements/validations/validateGrants.ts</title>
<path fill="none" stroke="#757575" d="M1920.15,-577.95C1970.83,-605.4 2097.32,-673.92 2155.87,-705.63"/>
<polygon fill="#757575" stroke="#757575" points="2154.53,-708.89 2164.99,-710.58 2157.87,-702.74 2154.53,-708.89"/>
</g>
<!-- statements/locations/fetchAuthorizationUrl.ts&#45;&gt;ports.ts -->
<g id="edge67" class="edge">
<title>statements/locations/fetchAuthorizationUrl.ts&#45;&gt;ports.ts</title>
<path fill="none" stroke="#757575" d="M1632.77,-570.75C1661.18,-597.21 1729.54,-665.63 1761,-738.22 1803.37,-835.98 1722.6,-898.97 1797,-975.22 1881.67,-1062.01 2220.31,-1028.85 2341,-1017.22 2357.22,-1015.66 2360.94,-1012.98 2377,-1010.22 2401.69,-1005.99 2429.49,-1001.83 2451.46,-998.68"/>
<polygon fill="#757575" stroke="#757575" points="2452.01,-1002.14 2461.42,-997.27 2451.03,-995.21 2452.01,-1002.14"/>
</g>
<!-- statements/locations/fetchAuthorizationUrl.ts&#45;&gt;resources.ts -->
<g id="edge68" class="edge">
<title>statements/locations/fetchAuthorizationUrl.ts&#45;&gt;resources.ts</title>
<path fill="none" stroke="#757575" d="M1639.6,-547.63C1752.08,-482.76 2320.37,-177.31 2607,-451.22 2683.41,-524.24 2687.44,-878.93 2687.18,-971.23"/>
<polygon fill="#757575" stroke="#757575" points="2683.68,-971.35 2687.13,-981.37 2690.68,-971.39 2683.68,-971.35"/>
</g>
<!-- statements/locations/fetchAuthorizationUrl.ts&#45;&gt;errors.ts -->
<g id="edge66" class="edge">
<title>statements/locations/fetchAuthorizationUrl.ts&#45;&gt;errors.ts</title>
<path fill="none" stroke="#757575" d="M1658.3,-547.69C1767.18,-516.72 2087.02,-438.41 2341,-504.22 2358.72,-508.82 2360.96,-515.41 2377,-524.22 2405.28,-539.77 2437.61,-557.33 2460.6,-569.79"/>
<polygon fill="#757575" stroke="#757575" points="2459.08,-572.94 2469.54,-574.63 2462.41,-566.79 2459.08,-572.94"/>
</g>
<!-- statements/locations/fetchAuthorizationUrl.ts&#45;&gt;statements/resources/index.ts -->
<g id="edge69" class="edge">
<title>statements/locations/fetchAuthorizationUrl.ts&#45;&gt;statements/resources/index.ts</title>
<path fill="none" stroke="#757575" d="M1633.41,-570.98C1662.47,-597.37 1731.08,-664.7 1761,-737.22 1788.13,-802.97 1750.43,-1001.48 1797,-1055.22 1799.89,-1058.56 1803.16,-1061.5 1806.69,-1064.08"/>
<polygon fill="#757575" stroke="#757575" points="1805.05,-1067.18 1815.39,-1069.48 1808.74,-1061.23 1805.05,-1067.18"/>
</g>
<!-- statements/resources/clientState.ts&#45;&gt;ports.ts -->
<g id="edge72" class="edge">
<title>statements/resources/clientState.ts&#45;&gt;ports.ts</title>
<path fill="none" stroke="#757575" d="M2278.47,-1069.71C2299.24,-1066.01 2321.08,-1061.25 2341,-1055.22 2357.76,-1050.16 2360.88,-1046.06 2377,-1039.22 2401.82,-1028.71 2429.9,-1017.37 2451.98,-1008.58"/>
<polygon fill="#757575" stroke="#757575" points="2453.36,-1011.8 2461.36,-1004.86 2450.77,-1005.29 2453.36,-1011.8"/>
</g>
<!-- statements/resources/clientState.ts&#45;&gt;resources.ts -->
<g id="edge73" class="edge">
<title>statements/resources/clientState.ts&#45;&gt;resources.ts</title>
<path fill="none" stroke="#757575" d="M2276.33,-1069.72C2361.33,-1057.98 2493.6,-1038.13 2607,-1014.22 2616.49,-1012.22 2626.54,-1009.82 2636.2,-1007.36"/>
<polygon fill="#757575" stroke="#757575" points="2637.28,-1010.69 2646.07,-1004.79 2635.52,-1003.92 2637.28,-1010.69"/>
</g>
<!-- statements/resources/clientState.ts&#45;&gt;errors.ts -->
<g id="edge71" class="edge">
<title>statements/resources/clientState.ts&#45;&gt;errors.ts</title>
<path fill="none" stroke="#757575" d="M2208.71,-1069.66C2242.19,-1049.34 2308.65,-1003.89 2341,-946.22 2385.62,-866.69 2341.43,-828.19 2377,-744.22 2400.66,-688.38 2447.1,-633.25 2472.8,-605.24"/>
<polygon fill="#757575" stroke="#757575" points="2475.51,-607.46 2479.77,-597.76 2470.39,-602.69 2475.51,-607.46"/>
</g>
<!-- statements/resources/fetchIssuerMetadata.ts&#45;&gt;ports.ts -->
<g id="edge75" class="edge">
<title>statements/resources/fetchIssuerMetadata.ts&#45;&gt;ports.ts</title>
<path fill="none" stroke="#757575" d="M2320.36,-1151.63C2327.48,-1149.25 2334.41,-1146.47 2341,-1143.22 2402.9,-1112.72 2454.55,-1046.5 2477.79,-1013.2"/>
<polygon fill="#757575" stroke="#757575" points="2480.82,-1014.97 2483.58,-1004.74 2475.04,-1011.02 2480.82,-1014.97"/>
</g>
<!-- statements/resources/fetchIssuerMetadata.ts&#45;&gt;resources.ts -->
<g id="edge76" class="edge">
<title>statements/resources/fetchIssuerMetadata.ts&#45;&gt;resources.ts</title>
<path fill="none" stroke="#757575" d="M2331.08,-1163.47C2416.43,-1157.76 2524.08,-1139.81 2607,-1090.22 2638.15,-1071.6 2662.58,-1036.26 2675.88,-1013.76"/>
<polygon fill="#757575" stroke="#757575" points="2678.97,-1015.42 2680.89,-1005 2672.89,-1011.95 2678.97,-1015.42"/>
</g>
<!-- statements/resources/fetchIssuerMetadata.ts&#45;&gt;errors.ts -->
<g id="edge74" class="edge">
<title>statements/resources/fetchIssuerMetadata.ts&#45;&gt;errors.ts</title>
<path fill="none" stroke="#757575" d="M2331.17,-1151.81C2334.66,-1149.25 2337.95,-1146.4 2341,-1143.22 2402.67,-1079.01 2345.85,-827.62 2377,-744.22 2398.12,-687.7 2445.16,-633.23 2471.74,-605.4"/>
<polygon fill="#757575" stroke="#757575" points="2474.51,-607.57 2478.97,-597.96 2469.49,-602.69 2474.51,-607.57"/>
</g>
<!-- statements/resources/issuerClient.ts&#45;&gt;resources.ts -->
<g id="edge81" class="edge">
<title>statements/resources/issuerClient.ts&#45;&gt;resources.ts</title>
<path fill="none" stroke="#757575" d="M2305.27,-1115.7C2391.5,-1107.57 2510.21,-1089.29 2607,-1048.22 2628.73,-1039 2650.63,-1023.41 2666.01,-1011.17"/>
<polygon fill="#757575" stroke="#757575" points="2668.3,-1013.82 2673.84,-1004.79 2663.88,-1008.4 2668.3,-1013.82"/>
</g>
<!-- statements/resources/issuerClient.ts&#45;&gt;errors.ts -->
<g id="edge80" class="edge">
<title>statements/resources/issuerClient.ts&#45;&gt;errors.ts</title>
<path fill="none" stroke="#757575" d="M2305.13,-1123.73C2318.6,-1119.32 2331.05,-1112.48 2341,-1102.22 2396.68,-1044.84 2348.64,-818.98 2377,-744.22 2398.4,-687.81 2445.33,-633.3 2471.82,-605.43"/>
<polygon fill="#757575" stroke="#757575" points="2474.59,-607.6 2479.02,-597.98 2469.56,-602.74 2474.59,-607.6"/>
</g>
<!-- statements/responses/presentationResponse.ts&#45;&gt;ports.ts -->
<g id="edge84" class="edge">
<title>statements/responses/presentationResponse.ts&#45;&gt;ports.ts</title>
<path fill="none" stroke="#757575" d="M2323.13,-1192.68C2329.32,-1190.26 2335.32,-1187.46 2341,-1184.22 2412.27,-1143.63 2461.83,-1054.46 2481.53,-1013.96"/>
<polygon fill="#757575" stroke="#757575" points="2484.77,-1015.31 2485.89,-1004.77 2478.44,-1012.31 2484.77,-1015.31"/>
</g>
<!-- statements/responses/presentationResponse.ts&#45;&gt;resources.ts -->
<g id="edge85" class="edge">
<title>statements/responses/presentationResponse.ts&#45;&gt;resources.ts</title>
<path fill="none" stroke="#757575" d="M2338.74,-1212.24C2424.46,-1209.54 2529.87,-1193.17 2607,-1138.22 2649.71,-1107.8 2672.17,-1047.13 2681.55,-1014.75"/>
<polygon fill="#757575" stroke="#757575" points="2684.97,-1015.51 2684.25,-1004.94 2678.22,-1013.66 2684.97,-1015.51"/>
</g>
<!-- statements/responses/presentationResponse.ts&#45;&gt;errors.ts -->
<g id="edge83" class="edge">
<title>statements/responses/presentationResponse.ts&#45;&gt;errors.ts</title>
<path fill="none" stroke="#757575" d="M2331.52,-1192.61C2334.88,-1190.1 2338.05,-1187.32 2341,-1184.22 2408.66,-1113.18 2343.05,-836.27 2377,-744.22 2397.88,-687.61 2445.02,-633.18 2471.68,-605.37"/>
<polygon fill="#757575" stroke="#757575" points="2474.45,-607.54 2478.93,-597.94 2469.44,-602.66 2474.45,-607.54"/>
</g>
<!-- statements/tokens/fetchAccessToken.ts&#45;&gt;ports.ts -->
<g id="edge87" class="edge">
<title>statements/tokens/fetchAccessToken.ts&#45;&gt;ports.ts</title>
<path fill="none" stroke="#757575" d="M2265.6,-936.77C2289.84,-940.82 2316.63,-945.75 2341,-951.22 2378.93,-959.74 2421.56,-971.94 2451.65,-980.99"/>
<polygon fill="#757575" stroke="#757575" points="2450.76,-984.38 2461.35,-983.94 2452.8,-977.68 2450.76,-984.38"/>
</g>
<!-- statements/tokens/fetchAccessToken.ts&#45;&gt;resources.ts -->
<g id="edge88" class="edge">
<title>statements/tokens/fetchAccessToken.ts&#45;&gt;resources.ts</title>
<path fill="none" stroke="#757575" d="M2314.57,-935.35C2397.97,-943.11 2509.5,-955.52 2607,-973.22 2616.21,-974.9 2625.93,-977.02 2635.3,-979.25"/>
<polygon fill="#757575" stroke="#757575" points="2634.74,-982.72 2645.29,-981.7 2636.41,-975.92 2634.74,-982.72"/>
</g>
<!-- statements/tokens/fetchAccessToken.ts&#45;&gt;errors.ts -->
<g id="edge86" class="edge">
<title>statements/tokens/fetchAccessToken.ts&#45;&gt;errors.ts</title>
<path fill="none" stroke="#757575" d="M2314.53,-921.78C2324.2,-917.74 2333.22,-912.34 2341,-905.22 2395.12,-855.75 2346.93,-811.1 2377,-744.22 2401.87,-688.91 2447.82,-633.57 2473.13,-605.38"/>
<polygon fill="#757575" stroke="#757575" points="2475.84,-607.6 2479.98,-597.85 2470.66,-602.89 2475.84,-607.6"/>
</g>
<!-- statements/tokens/fetchCredentials.ts&#45;&gt;ports.ts -->
<g id="edge90" class="edge">
<title>statements/tokens/fetchCredentials.ts&#45;&gt;ports.ts</title>
<path fill="none" stroke="#757575" d="M2306.58,-895.74C2318.36,-898.3 2330.02,-901.42 2341,-905.22 2389.34,-921.98 2439.42,-955.12 2467.74,-975.6"/>
<polygon fill="#757575" stroke="#757575" points="2465.68,-978.43 2475.81,-981.52 2469.82,-972.78 2465.68,-978.43"/>
</g>
<!-- statements/tokens/fetchCredentials.ts&#45;&gt;resources.ts -->
<g id="edge91" class="edge">
<title>statements/tokens/fetchCredentials.ts&#45;&gt;resources.ts</title>
<path fill="none" stroke="#757575" d="M2308.57,-884.23C2394.32,-887.83 2511,-900.17 2607,-937.22 2629.42,-945.88 2651.54,-962.12 2666.82,-974.89"/>
<polygon fill="#757575" stroke="#757575" points="2664.7,-977.68 2674.56,-981.56 2669.27,-972.38 2664.7,-977.68"/>
</g>
<!-- statements/tokens/fetchCredentials.ts&#45;&gt;errors.ts -->
<g id="edge89" class="edge">
<title>statements/tokens/fetchCredentials.ts&#45;&gt;errors.ts</title>
<path fill="none" stroke="#757575" d="M2308.73,-882.13C2320.49,-878.05 2331.54,-872.27 2341,-864.22 2383.41,-828.15 2352.37,-794.16 2377,-744.22 2403.83,-689.83 2449,-634.12 2473.66,-605.63"/>
<polygon fill="#757575" stroke="#757575" points="2476.37,-607.84 2480.32,-598.01 2471.1,-603.23 2476.37,-607.84"/>
</g>
<!-- statements/tokens/fetchNonce.ts&#45;&gt;ports.ts -->
<g id="edge93" class="edge">
<title>statements/tokens/fetchNonce.ts&#45;&gt;ports.ts</title>
<path fill="none" stroke="#757575" d="M2294.09,-849.71C2310.24,-852.98 2326.38,-857.63 2341,-864.22 2398,-889.92 2449.78,-944.3 2474.94,-973.57"/>
<polygon fill="#757575" stroke="#757575" points="2472.47,-976.07 2481.6,-981.46 2477.82,-971.56 2472.47,-976.07"/>
</g>
<!-- statements/tokens/fetchNonce.ts&#45;&gt;resources.ts -->
<g id="edge94" class="edge">
<title>statements/tokens/fetchNonce.ts&#45;&gt;resources.ts</title>
<path fill="none" stroke="#757575" d="M2284.42,-831.72C2373.79,-825.66 2507.8,-828.87 2607,-885.22 2641.93,-905.07 2666.06,-947.06 2678.12,-972.44"/>
<polygon fill="#757575" stroke="#757575" points="2674.95,-973.93 2682.28,-981.58 2681.32,-971.03 2674.95,-973.93"/>
</g>
<!-- statements/tokens/fetchNonce.ts&#45;&gt;errors.ts -->
<g id="edge92" class="edge">
<title>statements/tokens/fetchNonce.ts&#45;&gt;errors.ts</title>
<path fill="none" stroke="#757575" d="M2294.37,-842.6C2311.11,-838.71 2327.36,-832.33 2341,-822.22 2371.68,-799.5 2357.74,-777.19 2377,-744.22 2407.62,-691.82 2451.32,-635.25 2474.72,-606.11"/>
<polygon fill="#757575" stroke="#757575" points="2477.73,-607.95 2481.3,-597.97 2472.29,-603.55 2477.73,-607.95"/>
</g>
<!-- statements/tokens/generateDpop.ts&#45;&gt;resources.ts -->
<g id="edge95" class="edge">
<title>statements/tokens/generateDpop.ts&#45;&gt;resources.ts</title>
<path fill="none" stroke="#757575" d="M2580.99,-776.74C2590.44,-780.6 2599.38,-785.64 2607,-792.22 2661.94,-839.67 2679.52,-930.05 2684.84,-971.48"/>
<polygon fill="#757575" stroke="#757575" points="2681.38,-972.05 2686.01,-981.58 2688.34,-971.24 2681.38,-972.05"/>
</g>
<!-- statements/tokens/generateVpToken.ts&#45;&gt;ports.ts -->
<g id="edge97" class="edge">
<title>statements/tokens/generateVpToken.ts&#45;&gt;ports.ts</title>
<path fill="none" stroke="#757575" d="M2313.23,-810.87C2322.9,-813.84 2332.29,-817.57 2341,-822.22 2407.51,-857.75 2458.25,-935.41 2479.75,-972.59"/>
<polygon fill="#757575" stroke="#757575" points="2476.83,-974.54 2484.8,-981.53 2482.93,-971.1 2476.83,-974.54"/>
</g>
<!-- statements/tokens/generateVpToken.ts&#45;&gt;resources.ts -->
<g id="edge98" class="edge">
<title>statements/tokens/generateVpToken.ts&#45;&gt;resources.ts</title>
<path fill="none" stroke="#757575" d="M2313.22,-795.74C2418.93,-792.68 2560.53,-795.07 2607,-826.22 2657.09,-859.81 2676.73,-933.85 2683.65,-971.02"/>
<polygon fill="#757575" stroke="#757575" points="2680.27,-972.02 2685.4,-981.29 2687.17,-970.84 2680.27,-972.02"/>
</g>
<!-- statements/tokens/generateVpToken.ts&#45;&gt;errors.ts -->
<g id="edge96" class="edge">
<title>statements/tokens/generateVpToken.ts&#45;&gt;errors.ts</title>
<path fill="none" stroke="#757575" d="M2231.65,-790.7C2263.57,-780.93 2307.19,-764.86 2341,-742.22 2398.93,-703.44 2451.69,-638.92 2476.34,-606.35"/>
<polygon fill="#757575" stroke="#757575" points="2479.35,-608.17 2482.52,-598.06 2473.74,-603.98 2479.35,-608.17"/>
</g>
<!-- statements/validations/validateClientMetadata.ts&#45;&gt;resources.ts -->
<g id="edge109" class="edge">
<title>statements/validations/validateClientMetadata.ts&#45;&gt;resources.ts</title>
<path fill="none" stroke="#757575" d="M2341.25,-448.94C2432.05,-459.67 2541.88,-489.14 2607,-565.22 2660.41,-627.62 2680.79,-892.5 2685.73,-971.13"/>
<polygon fill="#757575" stroke="#757575" points="2682.25,-971.56 2686.35,-981.33 2689.24,-971.14 2682.25,-971.56"/>
</g>
<!-- statements/validations/validateClientMetadata.ts&#45;&gt;errors.ts -->
<g id="edge108" class="edge">
<title>statements/validations/validateClientMetadata.ts&#45;&gt;errors.ts</title>
<path fill="none" stroke="#757575" d="M2309.52,-456.8C2320.6,-460.51 2331.29,-465.23 2341,-471.22 2364,-485.42 2356.88,-502.18 2377,-520.22 2400.3,-541.12 2431.26,-558.53 2455.04,-570.22"/>
<polygon fill="#757575" stroke="#757575" points="2453.56,-573.39 2464.09,-574.56 2456.59,-567.08 2453.56,-573.39"/>
</g>
<!-- statements/validations/validateCredentialOffer.ts&#45;&gt;errors.ts -->
<g id="edge110" class="edge">
<title>statements/validations/validateCredentialOffer.ts&#45;&gt;errors.ts</title>
<path fill="none" stroke="#757575" d="M2341.08,-576.31C2380.83,-578.94 2420.47,-581.56 2448.99,-583.45"/>
<polygon fill="#757575" stroke="#757575" points="2448.77,-586.94 2458.98,-584.11 2449.23,-579.95 2448.77,-586.94"/>
</g>
<!-- statements/validations/validateDcqlQuery.ts&#45;&gt;errors.ts -->
<g id="edge111" class="edge">
<title>statements/validations/validateDcqlQuery.ts&#45;&gt;errors.ts</title>
<path fill="none" stroke="#757575" d="M2291.36,-536.76C2308.01,-539.19 2325.03,-542.01 2341,-545.22 2377.98,-552.67 2419.27,-564.2 2449.15,-573.14"/>
<polygon fill="#757575" stroke="#757575" points="2448.24,-576.52 2458.83,-576.06 2450.27,-569.82 2448.24,-576.52"/>
</g>
<!-- statements/validations/validateGrants.ts&#45;&gt;ports.ts -->
<g id="edge113" class="edge">
<title>statements/validations/validateGrants.ts&#45;&gt;ports.ts</title>
<path fill="none" stroke="#757575" d="M2239.31,-733.82C2270.92,-742.88 2311.11,-757.93 2341,-781.22 2410.48,-835.38 2461.28,-930.37 2481.44,-972.31"/>
<polygon fill="#757575" stroke="#757575" points="2478.37,-973.99 2485.8,-981.55 2484.7,-971.01 2478.37,-973.99"/>
</g>
<!-- statements/validations/validateGrants.ts&#45;&gt;resources.ts -->
<g id="edge114" class="edge">
<title>statements/validations/validateGrants.ts&#45;&gt;resources.ts</title>
<path fill="none" stroke="#757575" d="M2316.07,-713.54C2422.26,-709.04 2562.94,-710.29 2607,-744.22 2679.26,-799.87 2687.38,-921.48 2687.52,-971.29"/>
<polygon fill="#757575" stroke="#757575" points="2684.02,-971.52 2687.44,-981.55 2691.02,-971.58 2684.02,-971.52"/>
</g>
<!-- statements/validations/validateGrants.ts&#45;&gt;errors.ts -->
<g id="edge112" class="edge">
<title>statements/validations/validateGrants.ts&#45;&gt;errors.ts</title>
<path fill="none" stroke="#757575" d="M2294.51,-710.71C2310.44,-707.12 2326.41,-702.41 2341,-696.22 2393.55,-673.96 2445.02,-630.02 2471.87,-604.93"/>
<polygon fill="#757575" stroke="#757575" points="2474.54,-607.22 2479.38,-597.8 2469.72,-602.15 2474.54,-607.22"/>
</g>
</g>
</svg>
