<?xml version="1.0" encoding="UTF-8" standalone="no"?>
<!DOCTYPE svg PUBLIC "-//W3C//DTD SVG 1.1//EN"
 "http://www.w3.org/Graphics/SVG/1.1/DTD/svg11.dtd">
<!-- Generated by graphviz version 2.43.0 (0)
 -->
<!-- Title: G Pages: 1 -->
<svg width="1964pt" height="383pt"
 viewBox="0.00 0.00 1964.20 383.49" xmlns="http://www.w3.org/2000/svg" xmlns:xlink="http://www.w3.org/1999/xlink">
<g id="graph0" class="graph" transform="scale(1 1) rotate(0) translate(21.6 361.89)">
<title>G</title>
<polygon fill="#111111" stroke="transparent" points="-21.6,21.6 -21.6,-361.89 1942.6,-361.89 1942.6,21.6 -21.6,21.6"/>
<!-- config.ts -->
<g id="node1" class="node">
<title>config.ts</title>
<path fill="none" stroke="#cfffac" d="M702.33,-224C702.33,-224 650.67,-224 650.67,-224 646.83,-224 643,-220.17 643,-216.33 643,-216.33 643,-208.67 643,-208.67 643,-204.83 646.83,-201 650.67,-201 650.67,-201 702.33,-201 702.33,-201 706.17,-201 710,-204.83 710,-208.67 710,-208.67 710,-216.33 710,-216.33 710,-220.17 706.17,-224 702.33,-224"/>
<text text-anchor="middle" x="676.5" y="-208.8" font-family="Arial" font-size="14.00" fill="#cfffac">config.ts</text>
</g>
<!-- core.ts -->
<g id="node2" class="node">
<title>core.ts</title>
<path fill="none" stroke="#c6c5fe" d="M148.33,-184C148.33,-184 106.67,-184 106.67,-184 102.83,-184 99,-180.17 99,-176.33 99,-176.33 99,-168.67 99,-168.67 99,-164.83 102.83,-161 106.67,-161 106.67,-161 148.33,-161 148.33,-161 152.17,-161 156,-164.83 156,-168.67 156,-168.67 156,-176.33 156,-176.33 156,-180.17 152.17,-184 148.33,-184"/>
<text text-anchor="middle" x="127.5" y="-168.8" font-family="Arial" font-size="14.00" fill="#c6c5fe">core.ts</text>
</g>
<!-- core.ts&#45;&gt;config.ts -->
<g id="edge1" class="edge">
<title>core.ts&#45;&gt;config.ts</title>
<path fill="none" stroke="#757575" d="M156.13,-174.02C221.05,-177.64 388.39,-187.33 528,-198.5 563.17,-201.31 602.99,-205.13 632.39,-208.07"/>
<polygon fill="#757575" stroke="#757575" points="632.42,-211.59 642.72,-209.11 633.12,-204.62 632.42,-211.59"/>
</g>
<!-- handlers/index.ts -->
<g id="node3" class="node">
<title>handlers/index.ts</title>
<path fill="none" stroke="#c6c5fe" d="M303.33,-144C303.33,-144 199.67,-144 199.67,-144 195.83,-144 192,-140.17 192,-136.33 192,-136.33 192,-128.67 192,-128.67 192,-124.83 195.83,-121 199.67,-121 199.67,-121 303.33,-121 303.33,-121 307.17,-121 311,-124.83 311,-128.67 311,-128.67 311,-136.33 311,-136.33 311,-140.17 307.17,-144 303.33,-144"/>
<text text-anchor="middle" x="251.5" y="-128.8" font-family="Arial" font-size="14.00" fill="#c6c5fe">handlers/index.ts</text>
</g>
<!-- core.ts&#45;&gt;handlers/index.ts -->
<g id="edge2" class="edge">
<title>core.ts&#45;&gt;handlers/index.ts</title>
<path fill="none" stroke="#757575" d="M156.18,-163.42C170.76,-158.64 188.99,-152.67 205.54,-147.24"/>
<polygon fill="#757575" stroke="#757575" points="206.63,-150.57 215.04,-144.13 204.45,-143.92 206.63,-150.57"/>
</g>
<!-- handlers/location.handler.ts -->
<g id="node5" class="node">
<title>handlers/location.handler.ts</title>
<path fill="none" stroke="#c6c5fe" d="M520.33,-143C520.33,-143 354.67,-143 354.67,-143 350.83,-143 347,-139.17 347,-135.33 347,-135.33 347,-127.67 347,-127.67 347,-123.83 350.83,-120 354.67,-120 354.67,-120 520.33,-120 520.33,-120 524.17,-120 528,-123.83 528,-127.67 528,-127.67 528,-135.33 528,-135.33 528,-139.17 524.17,-143 520.33,-143"/>
<text text-anchor="middle" x="437.5" y="-127.8" font-family="Arial" font-size="14.00" fill="#c6c5fe">handlers/location.handler.ts</text>
</g>
<!-- handlers/index.ts&#45;&gt;handlers/location.handler.ts -->
<g id="edge3" class="edge">
<title>handlers/index.ts&#45;&gt;handlers/location.handler.ts</title>
<path fill="none" stroke="#757575" d="M311.22,-132.18C319.39,-132.14 327.96,-132.09 336.62,-132.04"/>
<polygon fill="#757575" stroke="#757575" points="336.83,-135.54 346.81,-131.99 336.79,-128.54 336.83,-135.54"/>
</g>
<!-- errors.ts -->
<g id="node4" class="node">
<title>errors.ts</title>
<path fill="none" stroke="#cfffac" d="M1901.33,-164C1901.33,-164 1850.67,-164 1850.67,-164 1846.83,-164 1843,-160.17 1843,-156.33 1843,-156.33 1843,-148.67 1843,-148.67 1843,-144.83 1846.83,-141 1850.67,-141 1850.67,-141 1901.33,-141 1901.33,-141 1905.17,-141 1909,-144.83 1909,-148.67 1909,-148.67 1909,-156.33 1909,-156.33 1909,-160.17 1905.17,-164 1901.33,-164"/>
<text text-anchor="middle" x="1876" y="-148.8" font-family="Arial" font-size="14.00" fill="#cfffac">errors.ts</text>
</g>
<!-- handlers/location.handler.ts&#45;&gt;config.ts -->
<g id="edge4" class="edge">
<title>handlers/location.handler.ts&#45;&gt;config.ts</title>
<path fill="none" stroke="#757575" d="M488.36,-143.02C501.72,-147.18 515.81,-152.6 528,-159.5 546.63,-170.04 544.78,-182.07 564,-191.5 585.27,-201.94 611.18,-207.21 632.66,-209.86"/>
<polygon fill="#757575" stroke="#757575" points="632.5,-213.36 642.81,-210.96 633.25,-206.4 632.5,-213.36"/>
</g>
<!-- handlers/location/credentialOffer.ts -->
<g id="node6" class="node">
<title>handlers/location/credentialOffer.ts</title>
<path fill="none" stroke="#c6c5fe" d="M781.33,-183C781.33,-183 571.67,-183 571.67,-183 567.83,-183 564,-179.17 564,-175.33 564,-175.33 564,-167.67 564,-167.67 564,-163.83 567.83,-160 571.67,-160 571.67,-160 781.33,-160 781.33,-160 785.17,-160 789,-163.83 789,-167.67 789,-167.67 789,-175.33 789,-175.33 789,-179.17 785.17,-183 781.33,-183"/>
<text text-anchor="middle" x="676.5" y="-167.8" font-family="Arial" font-size="14.00" fill="#c6c5fe">handlers/location/credentialOffer.ts</text>
</g>
<!-- handlers/location.handler.ts&#45;&gt;handlers/location/credentialOffer.ts -->
<g id="edge5" class="edge">
<title>handlers/location.handler.ts&#45;&gt;handlers/location/credentialOffer.ts</title>
<path fill="none" stroke="#757575" d="M506.73,-143.02C534.99,-147.79 567.93,-153.34 597.17,-158.28"/>
<polygon fill="#757575" stroke="#757575" points="596.9,-161.78 607.34,-160 598.06,-154.88 596.9,-161.78"/>
</g>
<!-- handlers/location/presentationRequest.ts -->
<g id="node7" class="node">
<title>handlers/location/presentationRequest.ts</title>
<path fill="none" stroke="#c6c5fe" d="M1112.33,-64C1112.33,-64 866.67,-64 866.67,-64 862.83,-64 859,-60.17 859,-56.33 859,-56.33 859,-48.67 859,-48.67 859,-44.83 862.83,-41 866.67,-41 866.67,-41 1112.33,-41 1112.33,-41 1116.17,-41 1120,-44.83 1120,-48.67 1120,-48.67 1120,-56.33 1120,-56.33 1120,-60.17 1116.17,-64 1112.33,-64"/>
<text text-anchor="middle" x="989.5" y="-48.8" font-family="Arial" font-size="14.00" fill="#c6c5fe">handlers/location/presentationRequest.ts</text>
</g>
<!-- handlers/location.handler.ts&#45;&gt;handlers/location/presentationRequest.ts -->
<g id="edge6" class="edge">
<title>handlers/location.handler.ts&#45;&gt;handlers/location/presentationRequest.ts</title>
<path fill="none" stroke="#757575" d="M459.95,-119.78C484.35,-107.09 525.78,-87.47 564,-78.5 657.25,-56.63 765,-50.25 848.61,-49.27"/>
<polygon fill="#757575" stroke="#757575" points="848.72,-52.77 858.68,-49.18 848.65,-45.77 848.72,-52.77"/>
</g>
<!-- handlers/location/presentationSuccess.ts -->
<g id="node8" class="node">
<title>handlers/location/presentationSuccess.ts</title>
<path fill="none" stroke="#c6c5fe" d="M1444.33,-143C1444.33,-143 1197.67,-143 1197.67,-143 1193.83,-143 1190,-139.17 1190,-135.33 1190,-135.33 1190,-127.67 1190,-127.67 1190,-123.83 1193.83,-120 1197.67,-120 1197.67,-120 1444.33,-120 1444.33,-120 1448.17,-120 1452,-123.83 1452,-127.67 1452,-127.67 1452,-135.33 1452,-135.33 1452,-139.17 1448.17,-143 1444.33,-143"/>
<text text-anchor="middle" x="1321" y="-127.8" font-family="Arial" font-size="14.00" fill="#c6c5fe">handlers/location/presentationSuccess.ts</text>
</g>
<!-- handlers/location.handler.ts&#45;&gt;handlers/location/presentationSuccess.ts -->
<g id="edge7" class="edge">
<title>handlers/location.handler.ts&#45;&gt;handlers/location/presentationSuccess.ts</title>
<path fill="none" stroke="#757575" d="M528.28,-131.5C681.94,-131.5 996.43,-131.5 1179.42,-131.5"/>
<polygon fill="#757575" stroke="#757575" points="1179.65,-135 1189.65,-131.5 1179.65,-128 1179.65,-135"/>
</g>
<!-- handlers/location/protocolError.ts -->
<g id="node9" class="node">
<title>handlers/location/protocolError.ts</title>
<path fill="none" stroke="#c6c5fe" d="M1740.83,-105C1740.83,-105 1542.17,-105 1542.17,-105 1538.33,-105 1534.5,-101.17 1534.5,-97.33 1534.5,-97.33 1534.5,-89.67 1534.5,-89.67 1534.5,-85.83 1538.33,-82 1542.17,-82 1542.17,-82 1740.83,-82 1740.83,-82 1744.67,-82 1748.5,-85.83 1748.5,-89.67 1748.5,-89.67 1748.5,-97.33 1748.5,-97.33 1748.5,-101.17 1744.67,-105 1740.83,-105"/>
<text text-anchor="middle" x="1641.5" y="-89.8" font-family="Arial" font-size="14.00" fill="#c6c5fe">handlers/location/protocolError.ts</text>
</g>
<!-- handlers/location.handler.ts&#45;&gt;handlers/location/protocolError.ts -->
<g id="edge8" class="edge">
<title>handlers/location.handler.ts&#45;&gt;handlers/location/protocolError.ts</title>
<path fill="none" stroke="#757575" d="M528.31,-128.63C540.31,-128.25 552.45,-127.87 564,-127.5 913.48,-116.41 1326.79,-103.38 1524.21,-97.16"/>
<polygon fill="#757575" stroke="#757575" points="1524.42,-100.66 1534.31,-96.84 1524.2,-93.66 1524.42,-100.66"/>
</g>
<!-- handlers/schemas/index.ts -->
<g id="node10" class="node">
<title>handlers/schemas/index.ts</title>
<path fill="none" stroke="#c6c5fe" d="M757.33,-24C757.33,-24 595.67,-24 595.67,-24 591.83,-24 588,-20.17 588,-16.33 588,-16.33 588,-8.67 588,-8.67 588,-4.83 591.83,-1 595.67,-1 595.67,-1 757.33,-1 757.33,-1 761.17,-1 765,-4.83 765,-8.67 765,-8.67 765,-16.33 765,-16.33 765,-20.17 761.17,-24 757.33,-24"/>
<text text-anchor="middle" x="676.5" y="-8.8" font-family="Arial" font-size="14.00" fill="#c6c5fe">handlers/schemas/index.ts</text>
</g>
<!-- handlers/location.handler.ts&#45;&gt;handlers/schemas/index.ts -->
<g id="edge9" class="edge">
<title>handlers/location.handler.ts&#45;&gt;handlers/schemas/index.ts</title>
<path fill="none" stroke="#757575" d="M450.95,-119.69C472.34,-100.07 518.19,-60.79 564,-39.5 575.12,-34.33 587.33,-30.09 599.48,-26.63"/>
<polygon fill="#757575" stroke="#757575" points="600.43,-29.99 609.18,-24.01 598.61,-23.23 600.43,-29.99"/>
</g>
<!-- handlers/location/credentialOffer.ts&#45;&gt;errors.ts -->
<g id="edge10" class="edge">
<title>handlers/location/credentialOffer.ts&#45;&gt;errors.ts</title>
<path fill="none" stroke="#757575" d="M789.37,-171.94C990.63,-172.33 1427.09,-171.29 1795,-157.5 1807.15,-157.04 1820.33,-156.32 1832.42,-155.56"/>
<polygon fill="#757575" stroke="#757575" points="1832.96,-159.03 1842.71,-154.89 1832.5,-152.04 1832.96,-159.03"/>
</g>
<!-- resources.ts -->
<g id="node11" class="node">
<title>resources.ts</title>
<path fill="none" stroke="#cfffac" d="M1913.33,-284C1913.33,-284 1838.67,-284 1838.67,-284 1834.83,-284 1831,-280.17 1831,-276.33 1831,-276.33 1831,-268.67 1831,-268.67 1831,-264.83 1834.83,-261 1838.67,-261 1838.67,-261 1913.33,-261 1913.33,-261 1917.17,-261 1921,-264.83 1921,-268.67 1921,-268.67 1921,-276.33 1921,-276.33 1921,-280.17 1917.17,-284 1913.33,-284"/>
<text text-anchor="middle" x="1876" y="-268.8" font-family="Arial" font-size="14.00" fill="#cfffac">resources.ts</text>
</g>
<!-- handlers/location/credentialOffer.ts&#45;&gt;resources.ts -->
<g id="edge11" class="edge">
<title>handlers/location/credentialOffer.ts&#45;&gt;resources.ts</title>
<path fill="none" stroke="#757575" d="M770.2,-183.02C776.75,-185.37 783.09,-188.16 789,-191.5 810.12,-203.42 803.5,-221.28 825,-232.5 1166.22,-410.6 1658.23,-322.29 1820.69,-285.74"/>
<polygon fill="#757575" stroke="#757575" points="1821.93,-289.05 1830.91,-283.41 1820.38,-282.22 1821.93,-289.05"/>
</g>
<!-- statements/index.ts -->
<g id="node12" class="node">
<title>statements/index.ts</title>
<path fill="none" stroke="#c6c5fe" d="M1048.83,-223C1048.83,-223 930.17,-223 930.17,-223 926.33,-223 922.5,-219.17 922.5,-215.33 922.5,-215.33 922.5,-207.67 922.5,-207.67 922.5,-203.83 926.33,-200 930.17,-200 930.17,-200 1048.83,-200 1048.83,-200 1052.67,-200 1056.5,-203.83 1056.5,-207.67 1056.5,-207.67 1056.5,-215.33 1056.5,-215.33 1056.5,-219.17 1052.67,-223 1048.83,-223"/>
<text text-anchor="middle" x="989.5" y="-207.8" font-family="Arial" font-size="14.00" fill="#c6c5fe">statements/index.ts</text>
</g>
<!-- handlers/location/credentialOffer.ts&#45;&gt;statements/index.ts -->
<g id="edge12" class="edge">
<title>handlers/location/credentialOffer.ts&#45;&gt;statements/index.ts</title>
<path fill="none" stroke="#757575" d="M767.04,-183.02C812.98,-188.93 868.36,-196.05 912.25,-201.69"/>
<polygon fill="#757575" stroke="#757575" points="911.92,-205.18 922.29,-202.98 912.81,-198.24 911.92,-205.18"/>
</g>
<!-- handlers/location/presentationRequest.ts&#45;&gt;errors.ts -->
<g id="edge13" class="edge">
<title>handlers/location/presentationRequest.ts&#45;&gt;errors.ts</title>
<path fill="none" stroke="#757575" d="M1120.38,-44.18C1316.4,-33.56 1677.43,-22.08 1795,-72.5 1823.83,-84.86 1847.82,-112.94 1861.8,-132.31"/>
<polygon fill="#757575" stroke="#757575" points="1859.08,-134.54 1867.66,-140.76 1864.83,-130.55 1859.08,-134.54"/>
</g>
<!-- handlers/location/presentationSuccess.ts&#45;&gt;errors.ts -->
<g id="edge14" class="edge">
<title>handlers/location/presentationSuccess.ts&#45;&gt;errors.ts</title>
<path fill="none" stroke="#757575" d="M1452,-136.44C1574.99,-141.11 1752.35,-147.84 1832.65,-150.89"/>
<polygon fill="#757575" stroke="#757575" points="1832.74,-154.4 1842.87,-151.28 1833.01,-147.4 1832.74,-154.4"/>
</g>
<!-- handlers/location/protocolError.ts&#45;&gt;errors.ts -->
<g id="edge15" class="edge">
<title>handlers/location/protocolError.ts&#45;&gt;errors.ts</title>
<path fill="none" stroke="#757575" d="M1730.35,-105.05C1751.71,-108.79 1774.35,-113.56 1795,-119.5 1810.72,-124.02 1827.54,-130.67 1841.68,-136.81"/>
<polygon fill="#757575" stroke="#757575" points="1840.43,-140.09 1850.99,-140.95 1843.28,-133.69 1840.43,-140.09"/>
</g>
<!-- handlers/schemas/locationHandlerConfig.schema.ts -->
<g id="node13" class="node">
<title>handlers/schemas/locationHandlerConfig.schema.ts</title>
<path fill="none" stroke="#cfffac" d="M1146.33,-23C1146.33,-23 832.67,-23 832.67,-23 828.83,-23 825,-19.17 825,-15.33 825,-15.33 825,-7.67 825,-7.67 825,-3.83 828.83,0 832.67,0 832.67,0 1146.33,0 1146.33,0 1150.17,0 1154,-3.83 1154,-7.67 1154,-7.67 1154,-15.33 1154,-15.33 1154,-19.17 1150.17,-23 1146.33,-23"/>
<text text-anchor="middle" x="989.5" y="-7.8" font-family="Arial" font-size="14.00" fill="#cfffac">handlers/schemas/locationHandlerConfig.schema.ts</text>
</g>
<!-- handlers/schemas/index.ts&#45;&gt;handlers/schemas/locationHandlerConfig.schema.ts -->
<g id="edge16" class="edge">
<title>handlers/schemas/index.ts&#45;&gt;handlers/schemas/locationHandlerConfig.schema.ts</title>
<path fill="none" stroke="#757575" d="M765.37,-12.22C780.99,-12.17 797.73,-12.11 814.78,-12.06"/>
<polygon fill="#757575" stroke="#757575" points="814.85,-15.56 824.84,-12.03 814.83,-8.56 814.85,-15.56"/>
</g>
<!-- statements/resources/index.ts -->
<g id="node15" class="node">
<title>statements/resources/index.ts</title>
<path fill="none" stroke="#c6c5fe" d="M1411.83,-264C1411.83,-264 1230.17,-264 1230.17,-264 1226.33,-264 1222.5,-260.17 1222.5,-256.33 1222.5,-256.33 1222.5,-248.67 1222.5,-248.67 1222.5,-244.83 1226.33,-241 1230.17,-241 1230.17,-241 1411.83,-241 1411.83,-241 1415.67,-241 1419.5,-244.83 1419.5,-248.67 1419.5,-248.67 1419.5,-256.33 1419.5,-256.33 1419.5,-260.17 1415.67,-264 1411.83,-264"/>
<text text-anchor="middle" x="1321" y="-248.8" font-family="Arial" font-size="14.00" fill="#c6c5fe">statements/resources/index.ts</text>
</g>
<!-- statements/index.ts&#45;&gt;statements/resources/index.ts -->
<g id="edge19" class="edge">
<title>statements/index.ts&#45;&gt;statements/resources/index.ts</title>
<path fill="none" stroke="#757575" d="M1056.78,-219.75C1102.77,-225.47 1164.94,-233.21 1217.3,-239.72"/>
<polygon fill="#757575" stroke="#757575" points="1216.94,-243.2 1227.3,-240.97 1217.81,-236.26 1216.94,-243.2"/>
</g>
<!-- statements/validations/index.ts -->
<g id="node16" class="node">
<title>statements/validations/index.ts</title>
<path fill="none" stroke="#c6c5fe" d="M1413.83,-223C1413.83,-223 1228.17,-223 1228.17,-223 1224.33,-223 1220.5,-219.17 1220.5,-215.33 1220.5,-215.33 1220.5,-207.67 1220.5,-207.67 1220.5,-203.83 1224.33,-200 1228.17,-200 1228.17,-200 1413.83,-200 1413.83,-200 1417.67,-200 1421.5,-203.83 1421.5,-207.67 1421.5,-207.67 1421.5,-215.33 1421.5,-215.33 1421.5,-219.17 1417.67,-223 1413.83,-223"/>
<text text-anchor="middle" x="1321" y="-207.8" font-family="Arial" font-size="14.00" fill="#c6c5fe">statements/validations/index.ts</text>
</g>
<!-- statements/index.ts&#45;&gt;statements/validations/index.ts -->
<g id="edge20" class="edge">
<title>statements/index.ts&#45;&gt;statements/validations/index.ts</title>
<path fill="none" stroke="#757575" d="M1056.78,-211.5C1100.74,-211.5 1159.47,-211.5 1210.3,-211.5"/>
<polygon fill="#757575" stroke="#757575" points="1210.35,-215 1220.35,-211.5 1210.35,-208 1210.35,-215"/>
</g>
<!-- index.ts -->
<g id="node14" class="node">
<title>index.ts</title>
<path fill="none" stroke="#c6c5fe" d="M55.33,-204C55.33,-204 7.67,-204 7.67,-204 3.83,-204 0,-200.17 0,-196.33 0,-196.33 0,-188.67 0,-188.67 0,-184.83 3.83,-181 7.67,-181 7.67,-181 55.33,-181 55.33,-181 59.17,-181 63,-184.83 63,-188.67 63,-188.67 63,-196.33 63,-196.33 63,-200.17 59.17,-204 55.33,-204"/>
<text text-anchor="middle" x="31.5" y="-188.8" font-family="Arial" font-size="14.00" fill="#c6c5fe">index.ts</text>
</g>
<!-- index.ts&#45;&gt;config.ts -->
<g id="edge17" class="edge">
<title>index.ts&#45;&gt;config.ts</title>
<path fill="none" stroke="#757575" d="M63.08,-193.45C167.72,-196.71 511.67,-207.4 632.82,-211.17"/>
<polygon fill="#757575" stroke="#757575" points="632.73,-214.67 642.83,-211.48 632.94,-207.67 632.73,-214.67"/>
</g>
<!-- index.ts&#45;&gt;core.ts -->
<g id="edge18" class="edge">
<title>index.ts&#45;&gt;core.ts</title>
<path fill="none" stroke="#757575" d="M63.02,-186.01C71.34,-184.24 80.45,-182.3 89.11,-180.46"/>
<polygon fill="#757575" stroke="#757575" points="89.94,-183.86 98.99,-178.35 88.48,-177.01 89.94,-183.86"/>
</g>
<!-- statements/resources/fetchIssuerMetadata.ts -->
<g id="node17" class="node">
<title>statements/resources/fetchIssuerMetadata.ts</title>
<path fill="none" stroke="#c6c5fe" d="M1777.33,-264C1777.33,-264 1505.67,-264 1505.67,-264 1501.83,-264 1498,-260.17 1498,-256.33 1498,-256.33 1498,-248.67 1498,-248.67 1498,-244.83 1501.83,-241 1505.67,-241 1505.67,-241 1777.33,-241 1777.33,-241 1781.17,-241 1785,-244.83 1785,-248.67 1785,-248.67 1785,-256.33 1785,-256.33 1785,-260.17 1781.17,-264 1777.33,-264"/>
<text text-anchor="middle" x="1641.5" y="-248.8" font-family="Arial" font-size="14.00" fill="#c6c5fe">statements/resources/fetchIssuerMetadata.ts</text>
</g>
<!-- statements/resources/index.ts&#45;&gt;statements/resources/fetchIssuerMetadata.ts -->
<g id="edge23" class="edge">
<title>statements/resources/index.ts&#45;&gt;statements/resources/fetchIssuerMetadata.ts</title>
<path fill="none" stroke="#757575" d="M1419.73,-252.5C1441.23,-252.5 1464.5,-252.5 1487.6,-252.5"/>
<polygon fill="#757575" stroke="#757575" points="1487.83,-256 1497.83,-252.5 1487.83,-249 1487.83,-256"/>
</g>
<!-- statements/validations/validateCredentialOffer.ts -->
<g id="node18" class="node">
<title>statements/validations/validateCredentialOffer.ts</title>
<path fill="none" stroke="#c6c5fe" d="M1787.33,-223C1787.33,-223 1495.67,-223 1495.67,-223 1491.83,-223 1488,-219.17 1488,-215.33 1488,-215.33 1488,-207.67 1488,-207.67 1488,-203.83 1491.83,-200 1495.67,-200 1495.67,-200 1787.33,-200 1787.33,-200 1791.17,-200 1795,-203.83 1795,-207.67 1795,-207.67 1795,-215.33 1795,-215.33 1795,-219.17 1791.17,-223 1787.33,-223"/>
<text text-anchor="middle" x="1641.5" y="-207.8" font-family="Arial" font-size="14.00" fill="#c6c5fe">statements/validations/validateCredentialOffer.ts</text>
</g>
<!-- statements/validations/index.ts&#45;&gt;statements/validations/validateCredentialOffer.ts -->
<g id="edge24" class="edge">
<title>statements/validations/index.ts&#45;&gt;statements/validations/validateCredentialOffer.ts</title>
<path fill="none" stroke="#757575" d="M1421.9,-211.5C1439.69,-211.5 1458.62,-211.5 1477.63,-211.5"/>
<polygon fill="#757575" stroke="#757575" points="1477.87,-215 1487.87,-211.5 1477.87,-208 1477.87,-215"/>
</g>
<!-- statements/resources/fetchIssuerMetadata.ts&#45;&gt;errors.ts -->
<g id="edge21" class="edge">
<title>statements/resources/fetchIssuerMetadata.ts&#45;&gt;errors.ts</title>
<path fill="none" stroke="#757575" d="M1774.36,-240.9C1781.48,-238.53 1788.41,-235.75 1795,-232.5 1822.99,-218.71 1847.04,-191.23 1861.27,-172.36"/>
<polygon fill="#757575" stroke="#757575" points="1864.21,-174.28 1867.27,-164.13 1858.55,-170.15 1864.21,-174.28"/>
</g>
<!-- statements/resources/fetchIssuerMetadata.ts&#45;&gt;resources.ts -->
<g id="edge22" class="edge">
<title>statements/resources/fetchIssuerMetadata.ts&#45;&gt;resources.ts</title>
<path fill="none" stroke="#757575" d="M1776.4,-264.02C1792,-265.36 1807.18,-266.67 1820.75,-267.83"/>
<polygon fill="#757575" stroke="#757575" points="1820.54,-271.33 1830.8,-268.7 1821.14,-264.35 1820.54,-271.33"/>
</g>
<!-- statements/validations/validateCredentialOffer.ts&#45;&gt;errors.ts -->
<g id="edge25" class="edge">
<title>statements/validations/validateCredentialOffer.ts&#45;&gt;errors.ts</title>
<path fill="none" stroke="#757575" d="M1730.35,-199.95C1751.71,-196.21 1774.35,-191.44 1795,-185.5 1810.72,-180.98 1827.54,-174.33 1841.68,-168.19"/>
<polygon fill="#757575" stroke="#757575" points="1843.28,-171.31 1850.99,-164.05 1840.43,-164.91 1843.28,-171.31"/>
</g>
</g>
</svg>
