<?xml version="1.0" encoding="UTF-8" standalone="no"?>
<!DOCTYPE svg PUBLIC "-//W3C//DTD SVG 1.1//EN"
 "http://www.w3.org/Graphics/SVG/1.1/DTD/svg11.dtd">
<!-- Generated by graphviz version 2.43.0 (0)
 -->
<!-- Title: G Pages: 1 -->
<svg width="2402pt" height="1531pt"
 viewBox="0.00 0.00 2402.20 1530.73" xmlns="http://www.w3.org/2000/svg" xmlns:xlink="http://www.w3.org/1999/xlink">
<g id="graph0" class="graph" transform="scale(1 1) rotate(0) translate(21.6 1509.13)">
<title>G</title>
<polygon fill="#111111" stroke="transparent" points="-21.6,21.6 -21.6,-1509.13 2380.6,-1509.13 2380.6,21.6 -21.6,21.6"/>
<!-- config.ts -->
<g id="node1" class="node">
<title>config.ts</title>
<path fill="none" stroke="#c6c5fe" d="M1393.83,-1164C1393.83,-1164 1342.17,-1164 1342.17,-1164 1338.33,-1164 1334.5,-1160.16 1334.5,-1156.33 1334.5,-1156.33 1334.5,-1148.66 1334.5,-1148.66 1334.5,-1144.83 1338.33,-1141 1342.17,-1141 1342.17,-1141 1393.83,-1141 1393.83,-1141 1397.67,-1141 1401.5,-1144.83 1401.5,-1148.66 1401.5,-1148.66 1401.5,-1156.33 1401.5,-1156.33 1401.5,-1160.16 1397.67,-1164 1393.83,-1164"/>
<text text-anchor="middle" x="1368" y="-1148.8" font-family="Arial" font-size="14.00" fill="#c6c5fe">config.ts</text>
</g>
<!-- resources.ts -->
<g id="node2" class="node">
<title>resources.ts</title>
<path fill="none" stroke="#cfffac" d="M2351.33,-925C2351.33,-925 2276.67,-925 2276.67,-925 2272.83,-925 2269,-921.16 2269,-917.33 2269,-917.33 2269,-909.66 2269,-909.66 2269,-905.83 2272.83,-902 2276.67,-902 2276.67,-902 2351.33,-902 2351.33,-902 2355.17,-902 2359,-905.83 2359,-909.66 2359,-909.66 2359,-917.33 2359,-917.33 2359,-921.16 2355.17,-925 2351.33,-925"/>
<text text-anchor="middle" x="2314" y="-909.8" font-family="Arial" font-size="14.00" fill="#cfffac">resources.ts</text>
</g>
<!-- config.ts&#45;&gt;resources.ts -->
<g id="edge1" class="edge">
<title>config.ts&#45;&gt;resources.ts</title>
<path fill="none" stroke="#757575" d="M1401.78,-1154.79C1445.99,-1158.06 1527.11,-1164.64 1596,-1173.5 1736.75,-1191.58 2122.42,-1307.43 2233,-1218.5 2291.15,-1171.73 2249.87,-1126.63 2269,-1054.5 2280.38,-1011.61 2296.48,-962.28 2305.72,-934.81"/>
<polygon fill="#757575" stroke="#757575" points="2309.11,-935.69 2309.01,-925.1 2302.48,-933.44 2309.11,-935.69"/>
</g>
<!-- constants.ts -->
<g id="node3" class="node">
<title>constants.ts</title>
<path fill="none" stroke="#cfffac" d="M2350.83,-1087C2350.83,-1087 2277.17,-1087 2277.17,-1087 2273.33,-1087 2269.5,-1083.16 2269.5,-1079.33 2269.5,-1079.33 2269.5,-1071.66 2269.5,-1071.66 2269.5,-1067.83 2273.33,-1064 2277.17,-1064 2277.17,-1064 2350.83,-1064 2350.83,-1064 2354.67,-1064 2358.5,-1067.83 2358.5,-1071.66 2358.5,-1071.66 2358.5,-1079.33 2358.5,-1079.33 2358.5,-1083.16 2354.67,-1087 2350.83,-1087"/>
<text text-anchor="middle" x="2314" y="-1071.8" font-family="Arial" font-size="14.00" fill="#cfffac">constants.ts</text>
</g>
<!-- core.ts -->
<g id="node4" class="node">
<title>core.ts</title>
<path fill="none" stroke="#c6c5fe" d="M148.33,-1157C148.33,-1157 106.67,-1157 106.67,-1157 102.83,-1157 99,-1153.16 99,-1149.33 99,-1149.33 99,-1141.66 99,-1141.66 99,-1137.83 102.83,-1134 106.67,-1134 106.67,-1134 148.33,-1134 148.33,-1134 152.17,-1134 156,-1137.83 156,-1141.66 156,-1141.66 156,-1149.33 156,-1149.33 156,-1153.16 152.17,-1157 148.33,-1157"/>
<text text-anchor="middle" x="127.5" y="-1141.8" font-family="Arial" font-size="14.00" fill="#c6c5fe">core.ts</text>
</g>
<!-- core.ts&#45;&gt;config.ts -->
<g id="edge2" class="edge">
<title>core.ts&#45;&gt;config.ts</title>
<path fill="none" stroke="#757575" d="M156.06,-1144.18C271.63,-1138.88 728.67,-1119.96 1104,-1133.5 1181.68,-1136.3 1272.02,-1143.74 1324.05,-1148.44"/>
<polygon fill="#757575" stroke="#757575" points="1323.96,-1151.94 1334.24,-1149.37 1324.6,-1144.97 1323.96,-1151.94"/>
</g>
<!-- handlers/index.ts -->
<g id="node5" class="node">
<title>handlers/index.ts</title>
<path fill="none" stroke="#c6c5fe" d="M303.33,-1117C303.33,-1117 199.67,-1117 199.67,-1117 195.83,-1117 192,-1113.16 192,-1109.33 192,-1109.33 192,-1101.66 192,-1101.66 192,-1097.83 195.83,-1094 199.67,-1094 199.67,-1094 303.33,-1094 303.33,-1094 307.17,-1094 311,-1097.83 311,-1101.66 311,-1101.66 311,-1109.33 311,-1109.33 311,-1113.16 307.17,-1117 303.33,-1117"/>
<text text-anchor="middle" x="251.5" y="-1101.8" font-family="Arial" font-size="14.00" fill="#c6c5fe">handlers/index.ts</text>
</g>
<!-- core.ts&#45;&gt;handlers/index.ts -->
<g id="edge3" class="edge">
<title>core.ts&#45;&gt;handlers/index.ts</title>
<path fill="none" stroke="#757575" d="M156.18,-1136.42C170.76,-1131.64 188.99,-1125.66 205.54,-1120.24"/>
<polygon fill="#757575" stroke="#757575" points="206.63,-1123.56 215.04,-1117.12 204.45,-1116.91 206.63,-1123.56"/>
</g>
<!-- handlers/authorize.handler.ts -->
<g id="node7" class="node">
<title>handlers/authorize.handler.ts</title>
<path fill="none" stroke="#c6c5fe" d="M973.83,-968C973.83,-968 799.17,-968 799.17,-968 795.33,-968 791.5,-964.16 791.5,-960.33 791.5,-960.33 791.5,-952.66 791.5,-952.66 791.5,-948.83 795.33,-945 799.17,-945 799.17,-945 973.83,-945 973.83,-945 977.67,-945 981.5,-948.83 981.5,-952.66 981.5,-952.66 981.5,-960.33 981.5,-960.33 981.5,-964.16 977.67,-968 973.83,-968"/>
<text text-anchor="middle" x="886.5" y="-952.8" font-family="Arial" font-size="14.00" fill="#c6c5fe">handlers/authorize.handler.ts</text>
</g>
<!-- handlers/index.ts&#45;&gt;handlers/authorize.handler.ts -->
<g id="edge19" class="edge">
<title>handlers/index.ts&#45;&gt;handlers/authorize.handler.ts</title>
<path fill="none" stroke="#757575" d="M265.17,-1093.77C282.36,-1078.55 314.63,-1052.31 347,-1038.5 489.11,-977.83 669.2,-961.2 780.88,-957.11"/>
<polygon fill="#757575" stroke="#757575" points="781.26,-960.6 791.14,-956.76 781.02,-953.6 781.26,-960.6"/>
</g>
<!-- handlers/credential.handler.ts -->
<g id="node10" class="node">
<title>handlers/credential.handler.ts</title>
<path fill="none" stroke="#c6c5fe" d="M975.33,-872C975.33,-872 797.67,-872 797.67,-872 793.83,-872 790,-868.16 790,-864.33 790,-864.33 790,-856.66 790,-856.66 790,-852.83 793.83,-849 797.67,-849 797.67,-849 975.33,-849 975.33,-849 979.17,-849 983,-852.83 983,-856.66 983,-856.66 983,-864.33 983,-864.33 983,-868.16 979.17,-872 975.33,-872"/>
<text text-anchor="middle" x="886.5" y="-856.8" font-family="Arial" font-size="14.00" fill="#c6c5fe">handlers/credential.handler.ts</text>
</g>
<!-- handlers/index.ts&#45;&gt;handlers/credential.handler.ts -->
<g id="edge20" class="edge">
<title>handlers/index.ts&#45;&gt;handlers/credential.handler.ts</title>
<path fill="none" stroke="#757575" d="M256.75,-1093.8C267.33,-1066.46 297.61,-998.2 347,-965.5 478.16,-878.66 664.19,-860.16 779.72,-857.97"/>
<polygon fill="#757575" stroke="#757575" points="780.03,-861.47 789.98,-857.82 779.93,-854.47 780.03,-861.47"/>
</g>
<!-- handlers/credentialOffer.handler.ts -->
<g id="node12" class="node">
<title>handlers/credentialOffer.handler.ts</title>
<path fill="none" stroke="#c6c5fe" d="M990.33,-1353C990.33,-1353 782.67,-1353 782.67,-1353 778.83,-1353 775,-1349.16 775,-1345.33 775,-1345.33 775,-1337.66 775,-1337.66 775,-1333.83 778.83,-1330 782.67,-1330 782.67,-1330 990.33,-1330 990.33,-1330 994.17,-1330 998,-1333.83 998,-1337.66 998,-1337.66 998,-1345.33 998,-1345.33 998,-1349.16 994.17,-1353 990.33,-1353"/>
<text text-anchor="middle" x="886.5" y="-1337.8" font-family="Arial" font-size="14.00" fill="#c6c5fe">handlers/credentialOffer.handler.ts</text>
</g>
<!-- handlers/index.ts&#45;&gt;handlers/credentialOffer.handler.ts -->
<g id="edge21" class="edge">
<title>handlers/index.ts&#45;&gt;handlers/credentialOffer.handler.ts</title>
<path fill="none" stroke="#757575" d="M255,-1117.26C262.49,-1149.36 287.99,-1238.68 347,-1278.5 483.89,-1370.88 686.09,-1366.22 799.78,-1354.15"/>
<polygon fill="#757575" stroke="#757575" points="800.27,-1357.61 809.82,-1353.04 799.5,-1350.66 800.27,-1357.61"/>
</g>
<!-- handlers/nonce.handler.ts -->
<g id="node14" class="node">
<title>handlers/nonce.handler.ts</title>
<path fill="none" stroke="#c6c5fe" d="M964.33,-1245C964.33,-1245 808.67,-1245 808.67,-1245 804.83,-1245 801,-1241.16 801,-1237.33 801,-1237.33 801,-1229.66 801,-1229.66 801,-1225.83 804.83,-1222 808.67,-1222 808.67,-1222 964.33,-1222 964.33,-1222 968.17,-1222 972,-1225.83 972,-1229.66 972,-1229.66 972,-1237.33 972,-1237.33 972,-1241.16 968.17,-1245 964.33,-1245"/>
<text text-anchor="middle" x="886.5" y="-1229.8" font-family="Arial" font-size="14.00" fill="#c6c5fe">handlers/nonce.handler.ts</text>
</g>
<!-- handlers/index.ts&#45;&gt;handlers/nonce.handler.ts -->
<g id="edge22" class="edge">
<title>handlers/index.ts&#45;&gt;handlers/nonce.handler.ts</title>
<path fill="none" stroke="#757575" d="M259.57,-1117.14C273.31,-1138.57 305.93,-1183.76 347,-1202.5 423.5,-1237.39 657.64,-1238.58 790.62,-1236.19"/>
<polygon fill="#757575" stroke="#757575" points="790.87,-1239.68 800.81,-1235.99 790.74,-1232.68 790.87,-1239.68"/>
</g>
<!-- handlers/oauthAuthorizationServer.handler.ts -->
<g id="node15" class="node">
<title>handlers/oauthAuthorizationServer.handler.ts</title>
<path fill="none" stroke="#c6c5fe" d="M625.33,-1193C625.33,-1193 354.67,-1193 354.67,-1193 350.83,-1193 347,-1189.16 347,-1185.33 347,-1185.33 347,-1177.66 347,-1177.66 347,-1173.83 350.83,-1170 354.67,-1170 354.67,-1170 625.33,-1170 625.33,-1170 629.17,-1170 633,-1173.83 633,-1177.66 633,-1177.66 633,-1185.33 633,-1185.33 633,-1189.16 629.17,-1193 625.33,-1193"/>
<text text-anchor="middle" x="490" y="-1177.8" font-family="Arial" font-size="14.00" fill="#c6c5fe">handlers/oauthAuthorizationServer.handler.ts</text>
</g>
<!-- handlers/index.ts&#45;&gt;handlers/oauthAuthorizationServer.handler.ts -->
<g id="edge23" class="edge">
<title>handlers/index.ts&#45;&gt;handlers/oauthAuthorizationServer.handler.ts</title>
<path fill="none" stroke="#757575" d="M288.42,-1117.04C329.95,-1130.39 398.39,-1152.38 443.58,-1166.9"/>
<polygon fill="#757575" stroke="#757575" points="442.54,-1170.24 453.13,-1169.97 444.68,-1163.58 442.54,-1170.24"/>
</g>
<!-- handlers/openidCredentialIssuer.handler.ts -->
<g id="node16" class="node">
<title>handlers/openidCredentialIssuer.handler.ts</title>
<path fill="none" stroke="#c6c5fe" d="M1014.83,-1286C1014.83,-1286 758.17,-1286 758.17,-1286 754.33,-1286 750.5,-1282.16 750.5,-1278.33 750.5,-1278.33 750.5,-1270.66 750.5,-1270.66 750.5,-1266.83 754.33,-1263 758.17,-1263 758.17,-1263 1014.83,-1263 1014.83,-1263 1018.67,-1263 1022.5,-1266.83 1022.5,-1270.66 1022.5,-1270.66 1022.5,-1278.33 1022.5,-1278.33 1022.5,-1282.16 1018.67,-1286 1014.83,-1286"/>
<text text-anchor="middle" x="886.5" y="-1270.8" font-family="Arial" font-size="14.00" fill="#c6c5fe">handlers/openidCredentialIssuer.handler.ts</text>
</g>
<!-- handlers/index.ts&#45;&gt;handlers/openidCredentialIssuer.handler.ts -->
<g id="edge24" class="edge">
<title>handlers/index.ts&#45;&gt;handlers/openidCredentialIssuer.handler.ts</title>
<path fill="none" stroke="#757575" d="M257.18,-1117.25C268.27,-1143.36 298.88,-1205.93 347,-1232.5 494.07,-1313.7 699.03,-1301.81 808.82,-1287.36"/>
<polygon fill="#757575" stroke="#757575" points="809.39,-1290.82 818.82,-1286.01 808.44,-1283.88 809.39,-1290.82"/>
</g>
<!-- handlers/pushedAuthorizationRequest.handler.ts -->
<g id="node17" class="node">
<title>handlers/pushedAuthorizationRequest.handler.ts</title>
<path fill="none" stroke="#c6c5fe" d="M1032.83,-1009C1032.83,-1009 740.17,-1009 740.17,-1009 736.33,-1009 732.5,-1005.16 732.5,-1001.33 732.5,-1001.33 732.5,-993.66 732.5,-993.66 732.5,-989.83 736.33,-986 740.17,-986 740.17,-986 1032.83,-986 1032.83,-986 1036.67,-986 1040.5,-989.83 1040.5,-993.66 1040.5,-993.66 1040.5,-1001.33 1040.5,-1001.33 1040.5,-1005.16 1036.67,-1009 1032.83,-1009"/>
<text text-anchor="middle" x="886.5" y="-993.8" font-family="Arial" font-size="14.00" fill="#c6c5fe">handlers/pushedAuthorizationRequest.handler.ts</text>
</g>
<!-- handlers/index.ts&#45;&gt;handlers/pushedAuthorizationRequest.handler.ts -->
<g id="edge25" class="edge">
<title>handlers/index.ts&#45;&gt;handlers/pushedAuthorizationRequest.handler.ts</title>
<path fill="none" stroke="#757575" d="M311.2,-1095.48C425.79,-1075.93 679.26,-1032.68 807.68,-1010.77"/>
<polygon fill="#757575" stroke="#757575" points="808.56,-1014.17 817.83,-1009.04 807.39,-1007.27 808.56,-1014.17"/>
</g>
<!-- handlers/token.handler.ts -->
<g id="node18" class="node">
<title>handlers/token.handler.ts</title>
<path fill="none" stroke="#c6c5fe" d="M565.83,-791C565.83,-791 414.17,-791 414.17,-791 410.33,-791 406.5,-787.16 406.5,-783.33 406.5,-783.33 406.5,-775.66 406.5,-775.66 406.5,-771.83 410.33,-768 414.17,-768 414.17,-768 565.83,-768 565.83,-768 569.67,-768 573.5,-771.83 573.5,-775.66 573.5,-775.66 573.5,-783.33 573.5,-783.33 573.5,-787.16 569.67,-791 565.83,-791"/>
<text text-anchor="middle" x="490" y="-775.8" font-family="Arial" font-size="14.00" fill="#c6c5fe">handlers/token.handler.ts</text>
</g>
<!-- handlers/index.ts&#45;&gt;handlers/token.handler.ts -->
<g id="edge26" class="edge">
<title>handlers/index.ts&#45;&gt;handlers/token.handler.ts</title>
<path fill="none" stroke="#757575" d="M254,-1093.87C259.49,-1055.52 281.73,-931.17 347,-856.5 372.56,-827.25 412.03,-807.11 442.88,-794.78"/>
<polygon fill="#757575" stroke="#757575" points="444.49,-797.92 452.56,-791.06 441.97,-791.38 444.49,-797.92"/>
</g>
<!-- errors.ts -->
<g id="node6" class="node">
<title>errors.ts</title>
<path fill="none" stroke="#cfffac" d="M2339.33,-399C2339.33,-399 2288.67,-399 2288.67,-399 2284.83,-399 2281,-395.16 2281,-391.33 2281,-391.33 2281,-383.66 2281,-383.66 2281,-379.83 2284.83,-376 2288.67,-376 2288.67,-376 2339.33,-376 2339.33,-376 2343.17,-376 2347,-379.83 2347,-383.66 2347,-383.66 2347,-391.33 2347,-391.33 2347,-395.16 2343.17,-399 2339.33,-399"/>
<text text-anchor="middle" x="2314" y="-383.8" font-family="Arial" font-size="14.00" fill="#cfffac">errors.ts</text>
</g>
<!-- handlers/authorize.handler.ts&#45;&gt;config.ts -->
<g id="edge4" class="edge">
<title>handlers/authorize.handler.ts&#45;&gt;config.ts</title>
<path fill="none" stroke="#757575" d="M944.75,-944.96C993.02,-938.77 1060.93,-938.87 1104,-976.5 1157.59,-1023.31 1086.31,-1085.79 1140,-1132.5 1190.68,-1176.59 1274,-1170.99 1324.36,-1162.22"/>
<polygon fill="#757575" stroke="#757575" points="1325.09,-1165.64 1334.28,-1160.37 1323.81,-1158.76 1325.09,-1165.64"/>
</g>
<!-- handlers/authorize.handler.ts&#45;&gt;resources.ts -->
<g id="edge7" class="edge">
<title>handlers/authorize.handler.ts&#45;&gt;resources.ts</title>
<path fill="none" stroke="#757575" d="M981.64,-945.45C1022.49,-945.36 1068.91,-952.09 1104,-976.5 1134.35,-997.61 1109.57,-1030.49 1140,-1051.5 1223.69,-1109.28 1507.06,-1041.17 1596,-1090.5 1619.32,-1103.43 1608.15,-1126.57 1632,-1138.5 1691.73,-1168.36 2178.44,-1177 2233,-1138.5 2241.73,-1132.33 2288.32,-990.05 2306.1,-934.99"/>
<polygon fill="#757575" stroke="#757575" points="2309.52,-935.79 2309.25,-925.2 2302.85,-933.65 2309.52,-935.79"/>
</g>
<!-- handlers/authorize.handler.ts&#45;&gt;errors.ts -->
<g id="edge5" class="edge">
<title>handlers/authorize.handler.ts&#45;&gt;errors.ts</title>
<path fill="none" stroke="#757575" d="M928.81,-944.93C978.62,-931.24 1065,-908.31 1140,-892.5 1240.56,-871.3 1527.21,-891.85 1596,-815.5 1680.81,-721.37 1545.26,-338.85 1632,-246.5 1700.48,-173.58 2202.81,-197.29 2233,-216.5 2285.35,-249.8 2304.02,-327.36 2310.2,-365.51"/>
<polygon fill="#757575" stroke="#757575" points="2306.76,-366.19 2311.68,-375.57 2313.69,-365.17 2306.76,-366.19"/>
</g>
<!-- handlers/schemas/authorizeHandlerConfig.schema.ts -->
<g id="node8" class="node">
<title>handlers/schemas/authorizeHandlerConfig.schema.ts</title>
<path fill="none" stroke="#cfffac" d="M1529.33,-925C1529.33,-925 1206.67,-925 1206.67,-925 1202.83,-925 1199,-921.16 1199,-917.33 1199,-917.33 1199,-909.66 1199,-909.66 1199,-905.83 1202.83,-902 1206.67,-902 1206.67,-902 1529.33,-902 1529.33,-902 1533.17,-902 1537,-905.83 1537,-909.66 1537,-909.66 1537,-917.33 1537,-917.33 1537,-921.16 1533.17,-925 1529.33,-925"/>
<text text-anchor="middle" x="1368" y="-909.8" font-family="Arial" font-size="14.00" fill="#cfffac">handlers/schemas/authorizeHandlerConfig.schema.ts</text>
</g>
<!-- handlers/authorize.handler.ts&#45;&gt;handlers/schemas/authorizeHandlerConfig.schema.ts -->
<g id="edge6" class="edge">
<title>handlers/authorize.handler.ts&#45;&gt;handlers/schemas/authorizeHandlerConfig.schema.ts</title>
<path fill="none" stroke="#757575" d="M981.66,-948.05C1052.02,-941.74 1149.3,-933.02 1228.51,-925.91"/>
<polygon fill="#757575" stroke="#757575" points="1228.93,-929.39 1238.57,-925.01 1228.3,-922.42 1228.93,-929.39"/>
</g>
<!-- statements/index.ts -->
<g id="node9" class="node">
<title>statements/index.ts</title>
<path fill="none" stroke="#c6c5fe" d="M1427.33,-1043C1427.33,-1043 1308.67,-1043 1308.67,-1043 1304.83,-1043 1301,-1039.16 1301,-1035.33 1301,-1035.33 1301,-1027.66 1301,-1027.66 1301,-1023.83 1304.83,-1020 1308.67,-1020 1308.67,-1020 1427.33,-1020 1427.33,-1020 1431.17,-1020 1435,-1023.83 1435,-1027.66 1435,-1027.66 1435,-1035.33 1435,-1035.33 1435,-1039.16 1431.17,-1043 1427.33,-1043"/>
<text text-anchor="middle" x="1368" y="-1027.8" font-family="Arial" font-size="14.00" fill="#c6c5fe">statements/index.ts</text>
</g>
<!-- handlers/authorize.handler.ts&#45;&gt;statements/index.ts -->
<g id="edge8" class="edge">
<title>handlers/authorize.handler.ts&#45;&gt;statements/index.ts</title>
<path fill="none" stroke="#757575" d="M981.56,-962.84C1019.68,-966.02 1064.06,-970.49 1104,-976.5 1175.51,-987.24 1256.84,-1005.14 1309.89,-1017.59"/>
<polygon fill="#757575" stroke="#757575" points="1309.25,-1021.03 1319.78,-1019.92 1310.85,-1014.22 1309.25,-1021.03"/>
</g>
<!-- statements/grants/index.ts -->
<g id="node28" class="node">
<title>statements/grants/index.ts</title>
<path fill="none" stroke="#c6c5fe" d="M1812.33,-1045C1812.33,-1045 1652.67,-1045 1652.67,-1045 1648.83,-1045 1645,-1041.16 1645,-1037.33 1645,-1037.33 1645,-1029.66 1645,-1029.66 1645,-1025.83 1648.83,-1022 1652.67,-1022 1652.67,-1022 1812.33,-1022 1812.33,-1022 1816.17,-1022 1820,-1025.83 1820,-1029.66 1820,-1029.66 1820,-1037.33 1820,-1037.33 1820,-1041.16 1816.17,-1045 1812.33,-1045"/>
<text text-anchor="middle" x="1732.5" y="-1029.8" font-family="Arial" font-size="14.00" fill="#c6c5fe">statements/grants/index.ts</text>
</g>
<!-- statements/index.ts&#45;&gt;statements/grants/index.ts -->
<g id="edge58" class="edge">
<title>statements/index.ts&#45;&gt;statements/grants/index.ts</title>
<path fill="none" stroke="#757575" d="M1435.07,-1031.86C1490.78,-1032.17 1571.28,-1032.61 1634.34,-1032.96"/>
<polygon fill="#757575" stroke="#757575" points="1634.68,-1036.46 1644.7,-1033.02 1634.72,-1029.46 1634.68,-1036.46"/>
</g>
<!-- statements/locations/index.ts -->
<g id="node29" class="node">
<title>statements/locations/index.ts</title>
<path fill="none" stroke="#c6c5fe" d="M1820.33,-1088C1820.33,-1088 1644.67,-1088 1644.67,-1088 1640.83,-1088 1637,-1084.16 1637,-1080.33 1637,-1080.33 1637,-1072.66 1637,-1072.66 1637,-1068.83 1640.83,-1065 1644.67,-1065 1644.67,-1065 1820.33,-1065 1820.33,-1065 1824.17,-1065 1828,-1068.83 1828,-1072.66 1828,-1072.66 1828,-1080.33 1828,-1080.33 1828,-1084.16 1824.17,-1088 1820.33,-1088"/>
<text text-anchor="middle" x="1732.5" y="-1072.8" font-family="Arial" font-size="14.00" fill="#c6c5fe">statements/locations/index.ts</text>
</g>
<!-- statements/index.ts&#45;&gt;statements/locations/index.ts -->
<g id="edge59" class="edge">
<title>statements/index.ts&#45;&gt;statements/locations/index.ts</title>
<path fill="none" stroke="#757575" d="M1435.11,-1038.62C1480.42,-1043.62 1541.89,-1050.6 1596,-1057.5 1610.79,-1059.38 1626.47,-1061.48 1641.71,-1063.58"/>
<polygon fill="#757575" stroke="#757575" points="1641.27,-1067.05 1651.66,-1064.96 1642.23,-1060.12 1641.27,-1067.05"/>
</g>
<!-- statements/resources/index.ts -->
<g id="node30" class="node">
<title>statements/resources/index.ts</title>
<path fill="none" stroke="#c6c5fe" d="M1823.33,-1129C1823.33,-1129 1641.67,-1129 1641.67,-1129 1637.83,-1129 1634,-1125.16 1634,-1121.33 1634,-1121.33 1634,-1113.66 1634,-1113.66 1634,-1109.83 1637.83,-1106 1641.67,-1106 1641.67,-1106 1823.33,-1106 1823.33,-1106 1827.17,-1106 1831,-1109.83 1831,-1113.66 1831,-1113.66 1831,-1121.33 1831,-1121.33 1831,-1125.16 1827.17,-1129 1823.33,-1129"/>
<text text-anchor="middle" x="1732.5" y="-1113.8" font-family="Arial" font-size="14.00" fill="#c6c5fe">statements/resources/index.ts</text>
</g>
<!-- statements/index.ts&#45;&gt;statements/resources/index.ts -->
<g id="edge60" class="edge">
<title>statements/index.ts&#45;&gt;statements/resources/index.ts</title>
<path fill="none" stroke="#757575" d="M1435.08,-1027.2C1482.33,-1026.86 1546.13,-1032.18 1596,-1057.5 1617.03,-1068.17 1611.49,-1084.84 1632,-1096.5 1635.76,-1098.63 1639.7,-1100.55 1643.77,-1102.27"/>
<polygon fill="#757575" stroke="#757575" points="1642.85,-1105.67 1653.45,-1105.95 1645.34,-1099.12 1642.85,-1105.67"/>
</g>
<!-- statements/tokens/index.ts -->
<g id="node31" class="node">
<title>statements/tokens/index.ts</title>
<path fill="none" stroke="#c6c5fe" d="M1813.33,-965C1813.33,-965 1651.67,-965 1651.67,-965 1647.83,-965 1644,-961.16 1644,-957.33 1644,-957.33 1644,-949.66 1644,-949.66 1644,-945.83 1647.83,-942 1651.67,-942 1651.67,-942 1813.33,-942 1813.33,-942 1817.17,-942 1821,-945.83 1821,-949.66 1821,-949.66 1821,-957.33 1821,-957.33 1821,-961.16 1817.17,-965 1813.33,-965"/>
<text text-anchor="middle" x="1732.5" y="-949.8" font-family="Arial" font-size="14.00" fill="#c6c5fe">statements/tokens/index.ts</text>
</g>
<!-- statements/index.ts&#45;&gt;statements/tokens/index.ts -->
<g id="edge61" class="edge">
<title>statements/index.ts&#45;&gt;statements/tokens/index.ts</title>
<path fill="none" stroke="#757575" d="M1435.34,-1028.32C1481.02,-1025.06 1542.83,-1018.52 1596,-1005.5 1631.75,-996.74 1670.81,-981.05 1697.77,-969.18"/>
<polygon fill="#757575" stroke="#757575" points="1699.42,-972.28 1707.13,-965.01 1696.57,-965.89 1699.42,-972.28"/>
</g>
<!-- statements/validations/index.ts -->
<g id="node32" class="node">
<title>statements/validations/index.ts</title>
<path fill="none" stroke="#c6c5fe" d="M1825.33,-542C1825.33,-542 1639.67,-542 1639.67,-542 1635.83,-542 1632,-538.16 1632,-534.33 1632,-534.33 1632,-526.66 1632,-526.66 1632,-522.83 1635.83,-519 1639.67,-519 1639.67,-519 1825.33,-519 1825.33,-519 1829.17,-519 1833,-522.83 1833,-526.66 1833,-526.66 1833,-534.33 1833,-534.33 1833,-538.16 1829.17,-542 1825.33,-542"/>
<text text-anchor="middle" x="1732.5" y="-526.8" font-family="Arial" font-size="14.00" fill="#c6c5fe">statements/validations/index.ts</text>
</g>
<!-- statements/index.ts&#45;&gt;statements/validations/index.ts -->
<g id="edge62" class="edge">
<title>statements/index.ts&#45;&gt;statements/validations/index.ts</title>
<path fill="none" stroke="#757575" d="M1435.02,-1042.03C1484.91,-1046.11 1552.06,-1042.77 1596,-1005.5 1632.25,-974.74 1707.37,-640.86 1726.82,-552.07"/>
<polygon fill="#757575" stroke="#757575" points="1730.24,-552.8 1728.96,-542.28 1723.4,-551.31 1730.24,-552.8"/>
</g>
<!-- handlers/credential.handler.ts&#45;&gt;config.ts -->
<g id="edge9" class="edge">
<title>handlers/credential.handler.ts&#45;&gt;config.ts</title>
<path fill="none" stroke="#757575" d="M983.14,-871.64C1026.08,-881.55 1073.76,-900.25 1104,-935.5 1161.95,-1003.05 1074.21,-1072.55 1140,-1132.5 1189.79,-1177.87 1273.77,-1171.73 1324.43,-1162.53"/>
<polygon fill="#757575" stroke="#757575" points="1325.25,-1165.94 1334.4,-1160.6 1323.92,-1159.07 1325.25,-1165.94"/>
</g>
<!-- handlers/credential.handler.ts&#45;&gt;resources.ts -->
<g id="edge12" class="edge">
<title>handlers/credential.handler.ts&#45;&gt;resources.ts</title>
<path fill="none" stroke="#757575" d="M983.28,-864.34C1125.02,-870 1399,-880.85 1632,-889.5 1865.01,-898.14 2142.9,-907.7 2258.44,-911.64"/>
<polygon fill="#757575" stroke="#757575" points="2258.67,-915.15 2268.78,-911.99 2258.9,-908.16 2258.67,-915.15"/>
</g>
<!-- handlers/credential.handler.ts&#45;&gt;errors.ts -->
<g id="edge10" class="edge">
<title>handlers/credential.handler.ts&#45;&gt;errors.ts</title>
<path fill="none" stroke="#757575" d="M983.25,-856.87C1022.9,-851.81 1067.94,-841.19 1104,-819.5 1125.95,-806.29 1123.85,-794.37 1140,-774.5 1356.63,-507.94 1321.28,-324.91 1632,-178.5 1692.41,-150.03 2177.98,-140.65 2233,-178.5 2295.72,-221.64 2309.29,-321.18 2312.21,-365.51"/>
<polygon fill="#757575" stroke="#757575" points="2308.73,-365.96 2312.76,-375.76 2315.72,-365.58 2308.73,-365.96"/>
</g>
<!-- handlers/credential.handler.ts&#45;&gt;statements/index.ts -->
<g id="edge13" class="edge">
<title>handlers/credential.handler.ts&#45;&gt;statements/index.ts</title>
<path fill="none" stroke="#757575" d="M921.31,-872.02C963.97,-886.59 1039.54,-912.57 1104,-935.5 1182.95,-963.58 1274.83,-997.37 1326.43,-1016.45"/>
<polygon fill="#757575" stroke="#757575" points="1325.29,-1019.76 1335.89,-1019.95 1327.72,-1013.2 1325.29,-1019.76"/>
</g>
<!-- handlers/schemas/credentialHandlerConfig.schema.ts -->
<g id="node11" class="node">
<title>handlers/schemas/credentialHandlerConfig.schema.ts</title>
<path fill="none" stroke="#cfffac" d="M1530.83,-807C1530.83,-807 1205.17,-807 1205.17,-807 1201.33,-807 1197.5,-803.16 1197.5,-799.33 1197.5,-799.33 1197.5,-791.66 1197.5,-791.66 1197.5,-787.83 1201.33,-784 1205.17,-784 1205.17,-784 1530.83,-784 1530.83,-784 1534.67,-784 1538.5,-787.83 1538.5,-791.66 1538.5,-791.66 1538.5,-799.33 1538.5,-799.33 1538.5,-803.16 1534.67,-807 1530.83,-807"/>
<text text-anchor="middle" x="1368" y="-791.8" font-family="Arial" font-size="14.00" fill="#cfffac">handlers/schemas/credentialHandlerConfig.schema.ts</text>
</g>
<!-- handlers/credential.handler.ts&#45;&gt;handlers/schemas/credentialHandlerConfig.schema.ts -->
<g id="edge11" class="edge">
<title>handlers/credential.handler.ts&#45;&gt;handlers/schemas/credentialHandlerConfig.schema.ts</title>
<path fill="none" stroke="#757575" d="M957.33,-848.96C1007.96,-840.77 1078.12,-829.81 1140,-821.5 1175.24,-816.76 1213.64,-812.15 1248.66,-808.16"/>
<polygon fill="#757575" stroke="#757575" points="1249.39,-811.6 1258.93,-807 1248.6,-804.65 1249.39,-811.6"/>
</g>
<!-- handlers/credentialOffer.handler.ts&#45;&gt;config.ts -->
<g id="edge14" class="edge">
<title>handlers/credentialOffer.handler.ts&#45;&gt;config.ts</title>
<path fill="none" stroke="#757575" d="M998.16,-1340.31C1035.81,-1334.57 1075.51,-1321.85 1104,-1295.5 1145.5,-1257.1 1096.33,-1209.4 1140,-1173.5 1191.66,-1131.03 1274.03,-1135.47 1324.05,-1143.4"/>
<polygon fill="#757575" stroke="#757575" points="1323.77,-1146.91 1334.21,-1145.13 1324.94,-1140 1323.77,-1146.91"/>
</g>
<!-- handlers/credentialOffer.handler.ts&#45;&gt;resources.ts -->
<g id="edge17" class="edge">
<title>handlers/credentialOffer.handler.ts&#45;&gt;resources.ts</title>
<path fill="none" stroke="#757575" d="M987.19,-1353.03C1033.58,-1357.86 1089.53,-1362.95 1140,-1365.5 1382.77,-1377.75 2059.49,-1492.73 2233,-1322.5 2275.89,-1280.41 2256,-1113.16 2269,-1054.5 2278.6,-1011.17 2295.32,-962 2305.15,-934.68"/>
<polygon fill="#757575" stroke="#757575" points="2308.54,-935.61 2308.67,-925.01 2301.96,-933.21 2308.54,-935.61"/>
</g>
<!-- handlers/credentialOffer.handler.ts&#45;&gt;errors.ts -->
<g id="edge15" class="edge">
<title>handlers/credentialOffer.handler.ts&#45;&gt;errors.ts</title>
<path fill="none" stroke="#757575" d="M998.02,-1351.14C1176.29,-1364.02 1515.55,-1376.6 1596,-1294.5 1657.11,-1232.13 1585.49,-583.39 1632,-509.5 1686.02,-423.67 1763.13,-475 1833,-401.5 1858.75,-374.41 1837.42,-345.48 1869,-325.5 1937.35,-282.24 2156.47,-299.31 2233,-325.5 2257.78,-333.97 2280.82,-353.59 2295.75,-368.51"/>
<polygon fill="#757575" stroke="#757575" points="2293.32,-371.03 2302.78,-375.79 2298.35,-366.17 2293.32,-371.03"/>
</g>
<!-- handlers/credentialOffer.handler.ts&#45;&gt;statements/index.ts -->
<g id="edge18" class="edge">
<title>handlers/credentialOffer.handler.ts&#45;&gt;statements/index.ts</title>
<path fill="none" stroke="#757575" d="M998.17,-1342.28C1036.49,-1336.86 1076.65,-1323.84 1104,-1295.5 1168.24,-1228.93 1077.27,-1158.48 1140,-1090.5 1178.04,-1049.27 1240.87,-1035.33 1290.8,-1031.24"/>
<polygon fill="#757575" stroke="#757575" points="1291.19,-1034.72 1300.92,-1030.53 1290.7,-1027.74 1291.19,-1034.72"/>
</g>
<!-- handlers/schemas/credentialOfferHandlerConfig.schema.ts -->
<g id="node13" class="node">
<title>handlers/schemas/credentialOfferHandlerConfig.schema.ts</title>
<path fill="none" stroke="#cfffac" d="M1546.33,-1441C1546.33,-1441 1189.67,-1441 1189.67,-1441 1185.83,-1441 1182,-1437.16 1182,-1433.33 1182,-1433.33 1182,-1425.66 1182,-1425.66 1182,-1421.83 1185.83,-1418 1189.67,-1418 1189.67,-1418 1546.33,-1418 1546.33,-1418 1550.17,-1418 1554,-1421.83 1554,-1425.66 1554,-1425.66 1554,-1433.33 1554,-1433.33 1554,-1437.16 1550.17,-1441 1546.33,-1441"/>
<text text-anchor="middle" x="1368" y="-1425.8" font-family="Arial" font-size="14.00" fill="#cfffac">handlers/schemas/credentialOfferHandlerConfig.schema.ts</text>
</g>
<!-- handlers/credentialOffer.handler.ts&#45;&gt;handlers/schemas/credentialOfferHandlerConfig.schema.ts -->
<g id="edge16" class="edge">
<title>handlers/credentialOffer.handler.ts&#45;&gt;handlers/schemas/credentialOfferHandlerConfig.schema.ts</title>
<path fill="none" stroke="#757575" d="M927.83,-1353.08C977.4,-1366.92 1064.25,-1389.91 1140,-1403.5 1169.38,-1408.76 1201.1,-1413.18 1231.24,-1416.79"/>
<polygon fill="#757575" stroke="#757575" points="1231.06,-1420.29 1241.4,-1417.99 1231.88,-1413.34 1231.06,-1420.29"/>
</g>
<!-- handlers/nonce.handler.ts&#45;&gt;config.ts -->
<g id="edge27" class="edge">
<title>handlers/nonce.handler.ts&#45;&gt;config.ts</title>
<path fill="none" stroke="#757575" d="M972.1,-1235.55C1013.56,-1233.57 1063.21,-1226.61 1104,-1207.5 1123.93,-1198.16 1119.95,-1182.56 1140,-1173.5 1199.68,-1146.52 1277.06,-1145.64 1324.32,-1148.4"/>
<polygon fill="#757575" stroke="#757575" points="1324.29,-1151.9 1334.5,-1149.07 1324.75,-1144.92 1324.29,-1151.9"/>
</g>
<!-- handlers/nonce.handler.ts&#45;&gt;resources.ts -->
<g id="edge30" class="edge">
<title>handlers/nonce.handler.ts&#45;&gt;resources.ts</title>
<path fill="none" stroke="#757575" d="M972.23,-1235.91C1263.73,-1244.02 2208.7,-1268.7 2233,-1248.5 2300.43,-1192.43 2247.9,-1139.61 2269,-1054.5 2279.68,-1011.43 2296.02,-962.16 2305.49,-934.76"/>
<polygon fill="#757575" stroke="#757575" points="2308.89,-935.66 2308.87,-925.06 2302.28,-933.35 2308.89,-935.66"/>
</g>
<!-- handlers/nonce.handler.ts&#45;&gt;errors.ts -->
<g id="edge28" class="edge">
<title>handlers/nonce.handler.ts&#45;&gt;errors.ts</title>
<path fill="none" stroke="#757575" d="M972.11,-1230.82C1017.19,-1224.91 1070.17,-1210.06 1104,-1174.5 1155.43,-1120.43 1084,-1059.82 1140,-1010.5 1216.34,-943.24 1524.82,-1042.19 1596,-969.5 1677.66,-886.1 1570.2,-544.51 1632,-445.5 1686.61,-358 1751.6,-392.84 1833,-329.5 1851.11,-315.41 1847.86,-301.42 1869,-292.5 1943.52,-261.03 2159.66,-258.38 2233,-292.5 2265.84,-307.78 2290.03,-343.91 2302.78,-366.95"/>
<polygon fill="#757575" stroke="#757575" points="2299.76,-368.73 2307.54,-375.93 2305.95,-365.45 2299.76,-368.73"/>
</g>
<!-- handlers/nonce.handler.ts&#45;&gt;statements/index.ts -->
<g id="edge31" class="edge">
<title>handlers/nonce.handler.ts&#45;&gt;statements/index.ts</title>
<path fill="none" stroke="#757575" d="M972.02,-1227.86C1015.83,-1220.98 1067.63,-1206.14 1104,-1174.5 1134.64,-1147.84 1109.2,-1116.97 1140,-1090.5 1181.73,-1054.62 1242.66,-1040.18 1290.89,-1034.54"/>
<polygon fill="#757575" stroke="#757575" points="1291.4,-1038.01 1300.97,-1033.47 1290.66,-1031.05 1291.4,-1038.01"/>
</g>
<!-- handlers/schemas/nonceHandlerConfig.schema.ts -->
<g id="node19" class="node">
<title>handlers/schemas/nonceHandlerConfig.schema.ts</title>
<path fill="none" stroke="#cfffac" d="M1520.33,-1205C1520.33,-1205 1215.67,-1205 1215.67,-1205 1211.83,-1205 1208,-1201.16 1208,-1197.33 1208,-1197.33 1208,-1189.66 1208,-1189.66 1208,-1185.83 1211.83,-1182 1215.67,-1182 1215.67,-1182 1520.33,-1182 1520.33,-1182 1524.17,-1182 1528,-1185.83 1528,-1189.66 1528,-1189.66 1528,-1197.33 1528,-1197.33 1528,-1201.16 1524.17,-1205 1520.33,-1205"/>
<text text-anchor="middle" x="1368" y="-1189.8" font-family="Arial" font-size="14.00" fill="#cfffac">handlers/schemas/nonceHandlerConfig.schema.ts</text>
</g>
<!-- handlers/nonce.handler.ts&#45;&gt;handlers/schemas/nonceHandlerConfig.schema.ts -->
<g id="edge29" class="edge">
<title>handlers/nonce.handler.ts&#45;&gt;handlers/schemas/nonceHandlerConfig.schema.ts</title>
<path fill="none" stroke="#757575" d="M972.12,-1226.44C1040.19,-1220.76 1137.49,-1212.64 1218.47,-1205.89"/>
<polygon fill="#757575" stroke="#757575" points="1219.1,-1209.35 1228.77,-1205.03 1218.51,-1202.37 1219.1,-1209.35"/>
</g>
<!-- handlers/oauthAuthorizationServer.handler.ts&#45;&gt;config.ts -->
<g id="edge32" class="edge">
<title>handlers/oauthAuthorizationServer.handler.ts&#45;&gt;config.ts</title>
<path fill="none" stroke="#757575" d="M633.22,-1182.77C757.52,-1183.19 942.81,-1182.15 1104,-1174.5 1181.71,-1170.81 1272.04,-1162.33 1324.06,-1157.04"/>
<polygon fill="#757575" stroke="#757575" points="1324.66,-1160.5 1334.25,-1156 1323.94,-1153.54 1324.66,-1160.5"/>
</g>
<!-- handlers/schemas/oauthAuthorizationServerHandlerConfig.schema.ts -->
<g id="node20" class="node">
<title>handlers/schemas/oauthAuthorizationServerHandlerConfig.schema.ts</title>
<path fill="none" stroke="#cfffac" d="M1096.33,-1165C1096.33,-1165 676.67,-1165 676.67,-1165 672.83,-1165 669,-1161.16 669,-1157.33 669,-1157.33 669,-1149.66 669,-1149.66 669,-1145.83 672.83,-1142 676.67,-1142 676.67,-1142 1096.33,-1142 1096.33,-1142 1100.17,-1142 1104,-1145.83 1104,-1149.66 1104,-1149.66 1104,-1157.33 1104,-1157.33 1104,-1161.16 1100.17,-1165 1096.33,-1165"/>
<text text-anchor="middle" x="886.5" y="-1149.8" font-family="Arial" font-size="14.00" fill="#cfffac">handlers/schemas/oauthAuthorizationServerHandlerConfig.schema.ts</text>
</g>
<!-- handlers/oauthAuthorizationServer.handler.ts&#45;&gt;handlers/schemas/oauthAuthorizationServerHandlerConfig.schema.ts -->
<g id="edge33" class="edge">
<title>handlers/oauthAuthorizationServer.handler.ts&#45;&gt;handlers/schemas/oauthAuthorizationServerHandlerConfig.schema.ts</title>
<path fill="none" stroke="#757575" d="M633.14,-1171.41C659.09,-1169.57 686.41,-1167.63 713.12,-1165.73"/>
<polygon fill="#757575" stroke="#757575" points="713.59,-1169.21 723.32,-1165.01 713.1,-1162.22 713.59,-1169.21"/>
</g>
<!-- handlers/openidCredentialIssuer.handler.ts&#45;&gt;config.ts -->
<g id="edge34" class="edge">
<title>handlers/openidCredentialIssuer.handler.ts&#45;&gt;config.ts</title>
<path fill="none" stroke="#757575" d="M1022.67,-1283.65C1051.58,-1279.94 1080.46,-1271.38 1104,-1254.5 1136.01,-1231.53 1107.99,-1196.46 1140,-1173.5 1194.04,-1134.72 1274.95,-1137.8 1324.16,-1144.5"/>
<polygon fill="#757575" stroke="#757575" points="1323.76,-1147.98 1334.16,-1145.97 1324.78,-1141.05 1323.76,-1147.98"/>
</g>
<!-- handlers/openidCredentialIssuer.handler.ts&#45;&gt;resources.ts -->
<g id="edge36" class="edge">
<title>handlers/openidCredentialIssuer.handler.ts&#45;&gt;resources.ts</title>
<path fill="none" stroke="#757575" d="M961.05,-1286.01C1214.12,-1323.85 2043.72,-1432.73 2233,-1265.5 2268.65,-1234 2257.89,-1100.75 2269,-1054.5 2279.36,-1011.35 2295.82,-962.11 2305.4,-934.73"/>
<polygon fill="#757575" stroke="#757575" points="2308.79,-935.64 2308.82,-925.05 2302.19,-933.31 2308.79,-935.64"/>
</g>
<!-- handlers/schemas/openidCredentialIssuerHandlerConfig.schema.ts -->
<g id="node21" class="node">
<title>handlers/schemas/openidCredentialIssuerHandlerConfig.schema.ts</title>
<path fill="none" stroke="#cfffac" d="M1571.33,-1285C1571.33,-1285 1164.67,-1285 1164.67,-1285 1160.83,-1285 1157,-1281.16 1157,-1277.33 1157,-1277.33 1157,-1269.66 1157,-1269.66 1157,-1265.83 1160.83,-1262 1164.67,-1262 1164.67,-1262 1571.33,-1262 1571.33,-1262 1575.17,-1262 1579,-1265.83 1579,-1269.66 1579,-1269.66 1579,-1277.33 1579,-1277.33 1579,-1281.16 1575.17,-1285 1571.33,-1285"/>
<text text-anchor="middle" x="1368" y="-1269.8" font-family="Arial" font-size="14.00" fill="#cfffac">handlers/schemas/openidCredentialIssuerHandlerConfig.schema.ts</text>
</g>
<!-- handlers/openidCredentialIssuer.handler.ts&#45;&gt;handlers/schemas/openidCredentialIssuerHandlerConfig.schema.ts -->
<g id="edge35" class="edge">
<title>handlers/openidCredentialIssuer.handler.ts&#45;&gt;handlers/schemas/openidCredentialIssuerHandlerConfig.schema.ts</title>
<path fill="none" stroke="#757575" d="M1022.66,-1274.21C1061.25,-1274.13 1104.34,-1274.04 1146.62,-1273.96"/>
<polygon fill="#757575" stroke="#757575" points="1146.78,-1277.46 1156.77,-1273.93 1146.76,-1270.46 1146.78,-1277.46"/>
</g>
<!-- handlers/pushedAuthorizationRequest.handler.ts&#45;&gt;config.ts -->
<g id="edge37" class="edge">
<title>handlers/pushedAuthorizationRequest.handler.ts&#45;&gt;config.ts</title>
<path fill="none" stroke="#757575" d="M1040.76,-994.06C1063.77,-999.45 1085.83,-1008.63 1104,-1023.5 1143.49,-1055.8 1100.01,-1100.82 1140,-1132.5 1192.41,-1174 1274.53,-1169.43 1324.31,-1161.52"/>
<polygon fill="#757575" stroke="#757575" points="1325.15,-1164.93 1334.42,-1159.8 1323.97,-1158.03 1325.15,-1164.93"/>
</g>
<!-- handlers/pushedAuthorizationRequest.handler.ts&#45;&gt;errors.ts -->
<g id="edge38" class="edge">
<title>handlers/pushedAuthorizationRequest.handler.ts&#45;&gt;errors.ts</title>
<path fill="none" stroke="#757575" d="M1027.54,-985.98C1232.62,-968.96 1591.08,-938.55 1596,-933.5 1684.08,-843.04 1561.09,-470.96 1632,-366.5 1708.3,-254.09 2114.74,-187.63 2233,-254.5 2275.38,-278.46 2297.79,-334.86 2307.31,-365.96"/>
<polygon fill="#757575" stroke="#757575" points="2304.01,-367.18 2310.15,-375.82 2310.74,-365.24 2304.01,-367.18"/>
</g>
<!-- handlers/pushedAuthorizationRequest.handler.ts&#45;&gt;statements/index.ts -->
<g id="edge40" class="edge">
<title>handlers/pushedAuthorizationRequest.handler.ts&#45;&gt;statements/index.ts</title>
<path fill="none" stroke="#757575" d="M1040.54,-1008.35C1123.96,-1014.26 1223.57,-1021.33 1290.64,-1026.08"/>
<polygon fill="#757575" stroke="#757575" points="1290.48,-1029.58 1300.71,-1026.79 1290.98,-1022.6 1290.48,-1029.58"/>
</g>
<!-- handlers/schemas/pushedAuthorizationRequestHandlerConfig.schema.ts -->
<g id="node22" class="node">
<title>handlers/schemas/pushedAuthorizationRequestHandlerConfig.schema.ts</title>
<path fill="none" stroke="#cfffac" d="M1588.33,-1123C1588.33,-1123 1147.67,-1123 1147.67,-1123 1143.83,-1123 1140,-1119.16 1140,-1115.33 1140,-1115.33 1140,-1107.66 1140,-1107.66 1140,-1103.83 1143.83,-1100 1147.67,-1100 1147.67,-1100 1588.33,-1100 1588.33,-1100 1592.17,-1100 1596,-1103.83 1596,-1107.66 1596,-1107.66 1596,-1115.33 1596,-1115.33 1596,-1119.16 1592.17,-1123 1588.33,-1123"/>
<text text-anchor="middle" x="1368" y="-1107.8" font-family="Arial" font-size="14.00" fill="#cfffac">handlers/schemas/pushedAuthorizationRequestHandlerConfig.schema.ts</text>
</g>
<!-- handlers/pushedAuthorizationRequest.handler.ts&#45;&gt;handlers/schemas/pushedAuthorizationRequestHandlerConfig.schema.ts -->
<g id="edge39" class="edge">
<title>handlers/pushedAuthorizationRequest.handler.ts&#45;&gt;handlers/schemas/pushedAuthorizationRequestHandlerConfig.schema.ts</title>
<path fill="none" stroke="#757575" d="M1040.53,-997.92C1063.05,-1002.94 1085.03,-1011.01 1104,-1023.5 1130.62,-1041.01 1113.34,-1068.05 1140,-1085.5 1145.8,-1089.29 1151.86,-1092.69 1158.13,-1095.72"/>
<polygon fill="#757575" stroke="#757575" points="1156.89,-1099.01 1167.45,-1099.92 1159.77,-1092.62 1156.89,-1099.01"/>
</g>
<!-- handlers/token.handler.ts&#45;&gt;config.ts -->
<g id="edge41" class="edge">
<title>handlers/token.handler.ts&#45;&gt;config.ts</title>
<path fill="none" stroke="#757575" d="M495.57,-791.09C511.96,-830.91 571.99,-962.63 669,-1017.5 838.14,-1113.16 943.75,-951.59 1104,-1061.5 1133.18,-1081.51 1110.69,-1112.67 1140,-1132.5 1195.07,-1169.74 1275.66,-1166.71 1324.53,-1160.23"/>
<polygon fill="#757575" stroke="#757575" points="1325.05,-1163.69 1334.46,-1158.8 1324.06,-1156.76 1325.05,-1163.69"/>
</g>
<!-- handlers/token.handler.ts&#45;&gt;errors.ts -->
<g id="edge42" class="edge">
<title>handlers/token.handler.ts&#45;&gt;errors.ts</title>
<path fill="none" stroke="#757575" d="M497.47,-767.81C540.74,-690.89 796.98,-254.66 1140,-73.5 1230.15,-25.88 1265.05,-40.5 1367,-40.5 1367,-40.5 1367,-40.5 1733.5,-40.5 1955.98,-40.5 2061.93,68.75 2233,-73.5 2278.7,-111.5 2303.46,-300.71 2310.72,-365.61"/>
<polygon fill="#757575" stroke="#757575" points="2307.27,-366.33 2311.83,-375.89 2314.23,-365.57 2307.27,-366.33"/>
</g>
<!-- handlers/schemas/tokenHandlerConfig.schema.ts -->
<g id="node23" class="node">
<title>handlers/schemas/tokenHandlerConfig.schema.ts</title>
<path fill="none" stroke="#cfffac" d="M1036.83,-811C1036.83,-811 736.17,-811 736.17,-811 732.33,-811 728.5,-807.16 728.5,-803.33 728.5,-803.33 728.5,-795.66 728.5,-795.66 728.5,-791.83 732.33,-788 736.17,-788 736.17,-788 1036.83,-788 1036.83,-788 1040.67,-788 1044.5,-791.83 1044.5,-795.66 1044.5,-795.66 1044.5,-803.33 1044.5,-803.33 1044.5,-807.16 1040.67,-811 1036.83,-811"/>
<text text-anchor="middle" x="886.5" y="-795.8" font-family="Arial" font-size="14.00" fill="#cfffac">handlers/schemas/tokenHandlerConfig.schema.ts</text>
</g>
<!-- handlers/token.handler.ts&#45;&gt;handlers/schemas/tokenHandlerConfig.schema.ts -->
<g id="edge43" class="edge">
<title>handlers/token.handler.ts&#45;&gt;handlers/schemas/tokenHandlerConfig.schema.ts</title>
<path fill="none" stroke="#757575" d="M573.7,-783.69C615.66,-785.82 668.2,-788.48 718.12,-791.01"/>
<polygon fill="#757575" stroke="#757575" points="718.24,-794.52 728.4,-791.53 718.59,-787.53 718.24,-794.52"/>
</g>
<!-- handlers/token/authorizationCode.ts -->
<g id="node24" class="node">
<title>handlers/token/authorizationCode.ts</title>
<path fill="none" stroke="#c6c5fe" d="M995.33,-770C995.33,-770 777.67,-770 777.67,-770 773.83,-770 770,-766.16 770,-762.33 770,-762.33 770,-754.66 770,-754.66 770,-750.83 773.83,-747 777.67,-747 777.67,-747 995.33,-747 995.33,-747 999.17,-747 1003,-750.83 1003,-754.66 1003,-754.66 1003,-762.33 1003,-762.33 1003,-766.16 999.17,-770 995.33,-770"/>
<text text-anchor="middle" x="886.5" y="-754.8" font-family="Arial" font-size="14.00" fill="#c6c5fe">handlers/token/authorizationCode.ts</text>
</g>
<!-- handlers/token.handler.ts&#45;&gt;handlers/token/authorizationCode.ts -->
<g id="edge44" class="edge">
<title>handlers/token.handler.ts&#45;&gt;handlers/token/authorizationCode.ts</title>
<path fill="none" stroke="#757575" d="M573.7,-775.09C627.63,-772.22 699.05,-768.42 759.93,-765.18"/>
<polygon fill="#757575" stroke="#757575" points="760.19,-768.67 769.99,-764.64 759.82,-761.68 760.19,-768.67"/>
</g>
<!-- handlers/token/clientCredentials.ts -->
<g id="node25" class="node">
<title>handlers/token/clientCredentials.ts</title>
<path fill="none" stroke="#c6c5fe" d="M990.33,-729C990.33,-729 782.67,-729 782.67,-729 778.83,-729 775,-725.16 775,-721.33 775,-721.33 775,-713.66 775,-713.66 775,-709.83 778.83,-706 782.67,-706 782.67,-706 990.33,-706 990.33,-706 994.17,-706 998,-709.83 998,-713.66 998,-713.66 998,-721.33 998,-721.33 998,-725.16 994.17,-729 990.33,-729"/>
<text text-anchor="middle" x="886.5" y="-713.8" font-family="Arial" font-size="14.00" fill="#c6c5fe">handlers/token/clientCredentials.ts</text>
</g>
<!-- handlers/token.handler.ts&#45;&gt;handlers/token/clientCredentials.ts -->
<g id="edge45" class="edge">
<title>handlers/token.handler.ts&#45;&gt;handlers/token/clientCredentials.ts</title>
<path fill="none" stroke="#757575" d="M532.75,-767.9C568.61,-758.36 621.84,-745.2 669,-737.5 699.93,-732.44 733.56,-728.57 764.9,-725.63"/>
<polygon fill="#757575" stroke="#757575" points="765.34,-729.1 774.98,-724.71 764.71,-722.13 765.34,-729.1"/>
</g>
<!-- handlers/token/authorizationCode.ts&#45;&gt;resources.ts -->
<g id="edge47" class="edge">
<title>handlers/token/authorizationCode.ts&#45;&gt;resources.ts</title>
<path fill="none" stroke="#757575" d="M997.92,-746.98C1138.84,-735.44 1389.15,-725.65 1596,-774.5 1613.22,-778.56 1615.35,-785.52 1632,-791.5 1734.27,-828.2 1762.15,-831.75 1869,-851.5 2029.19,-881.1 2072.6,-866.07 2233,-894.5 2241.39,-895.98 2250.21,-897.81 2258.81,-899.73"/>
<polygon fill="#757575" stroke="#757575" points="2258.23,-903.19 2268.76,-902.02 2259.8,-896.37 2258.23,-903.19"/>
</g>
<!-- handlers/token/authorizationCode.ts&#45;&gt;errors.ts -->
<g id="edge46" class="edge">
<title>handlers/token/authorizationCode.ts&#45;&gt;errors.ts</title>
<path fill="none" stroke="#757575" d="M937.38,-770.05C987.05,-778.29 1061.8,-781.26 1104,-737.5 1196.25,-641.82 1043.23,-231.6 1140,-140.5 1184.21,-98.87 2183.89,-104.78 2233,-140.5 2306.22,-193.75 2313.79,-315.48 2313.66,-365.46"/>
<polygon fill="#757575" stroke="#757575" points="2310.15,-365.72 2313.51,-375.77 2317.15,-365.82 2310.15,-365.72"/>
</g>
<!-- handlers/token/authorizationCode.ts&#45;&gt;statements/index.ts -->
<g id="edge48" class="edge">
<title>handlers/token/authorizationCode.ts&#45;&gt;statements/index.ts</title>
<path fill="none" stroke="#757575" d="M944.73,-746.98C993,-740.8 1060.91,-740.9 1104,-778.5 1157.29,-824.99 1094.67,-879.21 1140,-933.5 1178.24,-979.29 1241.87,-1004.25 1292.04,-1017.49"/>
<polygon fill="#757575" stroke="#757575" points="1291.33,-1020.92 1301.89,-1019.99 1293.05,-1014.14 1291.33,-1020.92"/>
</g>
<!-- handlers/token/clientCredentials.ts&#45;&gt;resources.ts -->
<g id="edge50" class="edge">
<title>handlers/token/clientCredentials.ts&#45;&gt;resources.ts</title>
<path fill="none" stroke="#757575" d="M998.2,-712.93C1138.1,-708.82 1386.01,-707.04 1596,-734.5 1703.42,-748.54 1734.56,-746.26 1833,-791.5 1850.93,-799.74 1850.52,-810.56 1869,-817.5 2021.11,-874.63 2081.88,-791.8 2233,-851.5 2257.22,-861.06 2280.2,-880.32 2295.27,-894.85"/>
<polygon fill="#757575" stroke="#757575" points="2292.83,-897.37 2302.39,-901.94 2297.77,-892.41 2292.83,-897.37"/>
</g>
<!-- handlers/token/clientCredentials.ts&#45;&gt;errors.ts -->
<g id="edge49" class="edge">
<title>handlers/token/clientCredentials.ts&#45;&gt;errors.ts</title>
<path fill="none" stroke="#757575" d="M887.9,-705.76C891.04,-633.89 918.07,-251.29 1140,-102.5 1190.44,-68.68 2184.61,-65.82 2233,-102.5 2275.89,-135.01 2302.15,-305.12 2310.28,-365.89"/>
<polygon fill="#757575" stroke="#757575" points="2306.83,-366.44 2311.59,-375.91 2313.77,-365.54 2306.83,-366.44"/>
</g>
<!-- handlers/token/clientCredentials.ts&#45;&gt;statements/index.ts -->
<g id="edge51" class="edge">
<title>handlers/token/clientCredentials.ts&#45;&gt;statements/index.ts</title>
<path fill="none" stroke="#757575" d="M941.84,-705.94C990.56,-699.01 1060.82,-698.02 1104,-737.5 1169.37,-797.26 1084.83,-864.21 1140,-933.5 1177.04,-980.01 1240.45,-1004.88 1290.86,-1017.91"/>
<polygon fill="#757575" stroke="#757575" points="1290.2,-1021.35 1300.75,-1020.36 1291.89,-1014.56 1290.2,-1021.35"/>
</g>
<!-- index.ts -->
<g id="node26" class="node">
<title>index.ts</title>
<path fill="none" stroke="#c6c5fe" d="M55.33,-1137C55.33,-1137 7.67,-1137 7.67,-1137 3.83,-1137 0,-1133.16 0,-1129.33 0,-1129.33 0,-1121.66 0,-1121.66 0,-1117.83 3.83,-1114 7.67,-1114 7.67,-1114 55.33,-1114 55.33,-1114 59.17,-1114 63,-1117.83 63,-1121.66 63,-1121.66 63,-1129.33 63,-1129.33 63,-1133.16 59.17,-1137 55.33,-1137"/>
<text text-anchor="middle" x="31.5" y="-1121.8" font-family="Arial" font-size="14.00" fill="#c6c5fe">index.ts</text>
</g>
<!-- index.ts&#45;&gt;config.ts -->
<g id="edge52" class="edge">
<title>index.ts&#45;&gt;config.ts</title>
<path fill="none" stroke="#757575" d="M63.23,-1115.13C95.02,-1105 146.33,-1090.27 192,-1084.5 244.47,-1077.86 258.13,-1083.16 311,-1084.5 663.78,-1093.39 754.3,-1077.16 1104,-1124.5 1120.24,-1126.69 1123.8,-1129.99 1140,-1132.5 1203.66,-1142.33 1278.17,-1147.75 1323.97,-1150.38"/>
<polygon fill="#757575" stroke="#757575" points="1323.95,-1153.89 1334.13,-1150.95 1324.34,-1146.9 1323.95,-1153.89"/>
</g>
<!-- index.ts&#45;&gt;resources.ts -->
<g id="edge55" class="edge">
<title>index.ts&#45;&gt;resources.ts</title>
<path fill="none" stroke="#757575" d="M34.02,-1137.34C42.52,-1197.83 89.65,-1469.5 250.5,-1469.5 250.5,-1469.5 250.5,-1469.5 1733.5,-1469.5 1958.92,-1469.5 2078.85,-1545.97 2233,-1381.5 2282.99,-1328.16 2254.04,-1126.05 2269,-1054.5 2278.03,-1011.28 2294.81,-962.43 2304.84,-935.06"/>
<polygon fill="#757575" stroke="#757575" points="2308.24,-935.95 2308.44,-925.36 2301.68,-933.52 2308.24,-935.95"/>
</g>
<!-- index.ts&#45;&gt;core.ts -->
<g id="edge53" class="edge">
<title>index.ts&#45;&gt;core.ts</title>
<path fill="none" stroke="#757575" d="M63.02,-1131.99C71.34,-1133.76 80.45,-1135.7 89.11,-1137.54"/>
<polygon fill="#757575" stroke="#757575" points="88.48,-1140.98 98.99,-1139.64 89.94,-1134.14 88.48,-1140.98"/>
</g>
<!-- index.ts&#45;&gt;handlers/index.ts -->
<g id="edge54" class="edge">
<title>index.ts&#45;&gt;handlers/index.ts</title>
<path fill="none" stroke="#757575" d="M63.27,-1122.67C93.83,-1119.87 141.72,-1115.48 181.41,-1111.83"/>
<polygon fill="#757575" stroke="#757575" points="181.94,-1115.3 191.57,-1110.9 181.3,-1108.33 181.94,-1115.3"/>
</g>
<!-- statements/grants/generateIssuerGrants.ts -->
<g id="node27" class="node">
<title>statements/grants/generateIssuerGrants.ts</title>
<path fill="none" stroke="#c6c5fe" d="M2180.33,-1047C2180.33,-1047 1921.67,-1047 1921.67,-1047 1917.83,-1047 1914,-1043.16 1914,-1039.33 1914,-1039.33 1914,-1031.66 1914,-1031.66 1914,-1027.83 1917.83,-1024 1921.67,-1024 1921.67,-1024 2180.33,-1024 2180.33,-1024 2184.17,-1024 2188,-1027.83 2188,-1031.66 2188,-1031.66 2188,-1039.33 2188,-1039.33 2188,-1043.16 2184.17,-1047 2180.33,-1047"/>
<text text-anchor="middle" x="2051" y="-1031.8" font-family="Arial" font-size="14.00" fill="#c6c5fe">statements/grants/generateIssuerGrants.ts</text>
</g>
<!-- statements/grants/generateIssuerGrants.ts&#45;&gt;resources.ts -->
<g id="edge56" class="edge">
<title>statements/grants/generateIssuerGrants.ts&#45;&gt;resources.ts</title>
<path fill="none" stroke="#757575" d="M2188.14,-1031.54C2203.86,-1027.68 2219.18,-1022.19 2233,-1014.5 2266.15,-996.03 2290.49,-957.69 2303.15,-933.92"/>
<polygon fill="#757575" stroke="#757575" points="2306.26,-935.52 2307.7,-925.02 2300.03,-932.33 2306.26,-935.52"/>
</g>
<!-- statements/grants/index.ts&#45;&gt;statements/grants/generateIssuerGrants.ts -->
<g id="edge57" class="edge">
<title>statements/grants/index.ts&#45;&gt;statements/grants/generateIssuerGrants.ts</title>
<path fill="none" stroke="#757575" d="M1820.4,-1034.04C1846.27,-1034.21 1875.35,-1034.39 1903.9,-1034.57"/>
<polygon fill="#757575" stroke="#757575" points="1903.95,-1038.07 1913.97,-1034.64 1903.99,-1031.07 1903.95,-1038.07"/>
</g>
<!-- statements/locations/authorizationCodeRedirection.ts -->
<g id="node33" class="node">
<title>statements/locations/authorizationCodeRedirection.ts</title>
<path fill="none" stroke="#c6c5fe" d="M2211.33,-1088C2211.33,-1088 1890.67,-1088 1890.67,-1088 1886.83,-1088 1883,-1084.16 1883,-1080.33 1883,-1080.33 1883,-1072.66 1883,-1072.66 1883,-1068.83 1886.83,-1065 1890.67,-1065 1890.67,-1065 2211.33,-1065 2211.33,-1065 2215.17,-1065 2219,-1068.83 2219,-1072.66 2219,-1072.66 2219,-1080.33 2219,-1080.33 2219,-1084.16 2215.17,-1088 2211.33,-1088"/>
<text text-anchor="middle" x="2051" y="-1072.8" font-family="Arial" font-size="14.00" fill="#c6c5fe">statements/locations/authorizationCodeRedirection.ts</text>
</g>
<!-- statements/locations/index.ts&#45;&gt;statements/locations/authorizationCodeRedirection.ts -->
<g id="edge68" class="edge">
<title>statements/locations/index.ts&#45;&gt;statements/locations/authorizationCodeRedirection.ts</title>
<path fill="none" stroke="#757575" d="M1828.03,-1076.5C1842.3,-1076.5 1857.4,-1076.5 1872.74,-1076.5"/>
<polygon fill="#757575" stroke="#757575" points="1872.85,-1080 1882.85,-1076.5 1872.85,-1073 1872.85,-1080"/>
</g>
<!-- statements/locations/generateAuthorizationRequestUri.ts -->
<g id="node34" class="node">
<title>statements/locations/generateAuthorizationRequestUri.ts</title>
<path fill="none" stroke="#c6c5fe" d="M2222.33,-1209C2222.33,-1209 1879.67,-1209 1879.67,-1209 1875.83,-1209 1872,-1205.16 1872,-1201.33 1872,-1201.33 1872,-1193.66 1872,-1193.66 1872,-1189.83 1875.83,-1186 1879.67,-1186 1879.67,-1186 2222.33,-1186 2222.33,-1186 2226.17,-1186 2230,-1189.83 2230,-1193.66 2230,-1193.66 2230,-1201.33 2230,-1201.33 2230,-1205.16 2226.17,-1209 2222.33,-1209"/>
<text text-anchor="middle" x="2051" y="-1193.8" font-family="Arial" font-size="14.00" fill="#c6c5fe">statements/locations/generateAuthorizationRequestUri.ts</text>
</g>
<!-- statements/locations/index.ts&#45;&gt;statements/locations/generateAuthorizationRequestUri.ts -->
<g id="edge69" class="edge">
<title>statements/locations/index.ts&#45;&gt;statements/locations/generateAuthorizationRequestUri.ts</title>
<path fill="none" stroke="#757575" d="M1814.76,-1088.03C1821.13,-1090.36 1827.3,-1093.15 1833,-1096.5 1854.21,-1108.93 1848.55,-1124.85 1869,-1138.5 1901.4,-1160.12 1942.33,-1174.34 1977.07,-1183.39"/>
<polygon fill="#757575" stroke="#757575" points="1976.62,-1186.89 1987.17,-1185.92 1978.32,-1180.1 1976.62,-1186.89"/>
</g>
<!-- statements/locations/generateCredentialOffer.ts -->
<g id="node35" class="node">
<title>statements/locations/generateCredentialOffer.ts</title>
<path fill="none" stroke="#c6c5fe" d="M2194.83,-727C2194.83,-727 1907.17,-727 1907.17,-727 1903.33,-727 1899.5,-723.16 1899.5,-719.33 1899.5,-719.33 1899.5,-711.66 1899.5,-711.66 1899.5,-707.83 1903.33,-704 1907.17,-704 1907.17,-704 2194.83,-704 2194.83,-704 2198.67,-704 2202.5,-707.83 2202.5,-711.66 2202.5,-711.66 2202.5,-719.33 2202.5,-719.33 2202.5,-723.16 2198.67,-727 2194.83,-727"/>
<text text-anchor="middle" x="2051" y="-711.8" font-family="Arial" font-size="14.00" fill="#c6c5fe">statements/locations/generateCredentialOffer.ts</text>
</g>
<!-- statements/locations/index.ts&#45;&gt;statements/locations/generateCredentialOffer.ts -->
<g id="edge70" class="edge">
<title>statements/locations/index.ts&#45;&gt;statements/locations/generateCredentialOffer.ts</title>
<path fill="none" stroke="#757575" d="M1819.15,-1064.76C1824.29,-1061.7 1828.99,-1057.99 1833,-1053.5 1927.66,-947.33 1768.29,-835.94 1869,-735.5 1875.27,-729.24 1882.35,-724.11 1889.96,-719.94"/>
<polygon fill="#757575" stroke="#757575" points="1891.68,-723 1899.14,-715.48 1888.62,-716.7 1891.68,-723"/>
</g>
<!-- statements/resources/issuerClient.ts -->
<g id="node36" class="node">
<title>statements/resources/issuerClient.ts</title>
<path fill="none" stroke="#c6c5fe" d="M2160.83,-1129C2160.83,-1129 1941.17,-1129 1941.17,-1129 1937.33,-1129 1933.5,-1125.16 1933.5,-1121.33 1933.5,-1121.33 1933.5,-1113.66 1933.5,-1113.66 1933.5,-1109.83 1937.33,-1106 1941.17,-1106 1941.17,-1106 2160.83,-1106 2160.83,-1106 2164.67,-1106 2168.5,-1109.83 2168.5,-1113.66 2168.5,-1113.66 2168.5,-1121.33 2168.5,-1121.33 2168.5,-1125.16 2164.67,-1129 2160.83,-1129"/>
<text text-anchor="middle" x="2051" y="-1113.8" font-family="Arial" font-size="14.00" fill="#c6c5fe">statements/resources/issuerClient.ts</text>
</g>
<!-- statements/resources/index.ts&#45;&gt;statements/resources/issuerClient.ts -->
<g id="edge71" class="edge">
<title>statements/resources/index.ts&#45;&gt;statements/resources/issuerClient.ts</title>
<path fill="none" stroke="#757575" d="M1831.04,-1117.5C1860.09,-1117.5 1892.35,-1117.5 1922.99,-1117.5"/>
<polygon fill="#757575" stroke="#757575" points="1923.31,-1121 1933.31,-1117.5 1923.31,-1114 1923.31,-1121"/>
</g>
<!-- statements/tokens/generateAccessToken.ts -->
<g id="node37" class="node">
<title>statements/tokens/generateAccessToken.ts</title>
<path fill="none" stroke="#c6c5fe" d="M2182.33,-965C2182.33,-965 1919.67,-965 1919.67,-965 1915.83,-965 1912,-961.16 1912,-957.33 1912,-957.33 1912,-949.66 1912,-949.66 1912,-945.83 1915.83,-942 1919.67,-942 1919.67,-942 2182.33,-942 2182.33,-942 2186.17,-942 2190,-945.83 2190,-949.66 2190,-949.66 2190,-957.33 2190,-957.33 2190,-961.16 2186.17,-965 2182.33,-965"/>
<text text-anchor="middle" x="2051" y="-949.8" font-family="Arial" font-size="14.00" fill="#c6c5fe">statements/tokens/generateAccessToken.ts</text>
</g>
<!-- statements/tokens/index.ts&#45;&gt;statements/tokens/generateAccessToken.ts -->
<g id="edge79" class="edge">
<title>statements/tokens/index.ts&#45;&gt;statements/tokens/generateAccessToken.ts</title>
<path fill="none" stroke="#757575" d="M1821.24,-953.5C1846.25,-953.5 1874.22,-953.5 1901.77,-953.5"/>
<polygon fill="#757575" stroke="#757575" points="1901.9,-957 1911.9,-953.5 1901.9,-950 1901.9,-957"/>
</g>
<!-- statements/tokens/generateAuthorizationCode.ts -->
<g id="node38" class="node">
<title>statements/tokens/generateAuthorizationCode.ts</title>
<path fill="none" stroke="#c6c5fe" d="M2197.83,-645C2197.83,-645 1904.17,-645 1904.17,-645 1900.33,-645 1896.5,-641.16 1896.5,-637.33 1896.5,-637.33 1896.5,-629.66 1896.5,-629.66 1896.5,-625.83 1900.33,-622 1904.17,-622 1904.17,-622 2197.83,-622 2197.83,-622 2201.67,-622 2205.5,-625.83 2205.5,-629.66 2205.5,-629.66 2205.5,-637.33 2205.5,-637.33 2205.5,-641.16 2201.67,-645 2197.83,-645"/>
<text text-anchor="middle" x="2051" y="-629.8" font-family="Arial" font-size="14.00" fill="#c6c5fe">statements/tokens/generateAuthorizationCode.ts</text>
</g>
<!-- statements/tokens/index.ts&#45;&gt;statements/tokens/generateAuthorizationCode.ts -->
<g id="edge80" class="edge">
<title>statements/tokens/index.ts&#45;&gt;statements/tokens/generateAuthorizationCode.ts</title>
<path fill="none" stroke="#757575" d="M1734.75,-941.75C1740.32,-895.84 1767.28,-727.4 1869,-653.5 1874.67,-649.38 1880.72,-645.82 1887.03,-642.76"/>
<polygon fill="#757575" stroke="#757575" points="1888.71,-645.85 1896.46,-638.62 1885.9,-639.44 1888.71,-645.85"/>
</g>
<!-- statements/tokens/generateCNonce.ts -->
<g id="node39" class="node">
<title>statements/tokens/generateCNonce.ts</title>
<path fill="none" stroke="#c6c5fe" d="M2166.83,-1006C2166.83,-1006 1935.17,-1006 1935.17,-1006 1931.33,-1006 1927.5,-1002.16 1927.5,-998.33 1927.5,-998.33 1927.5,-990.66 1927.5,-990.66 1927.5,-986.83 1931.33,-983 1935.17,-983 1935.17,-983 2166.83,-983 2166.83,-983 2170.67,-983 2174.5,-986.83 2174.5,-990.66 2174.5,-990.66 2174.5,-998.33 2174.5,-998.33 2174.5,-1002.16 2170.67,-1006 2166.83,-1006"/>
<text text-anchor="middle" x="2051" y="-990.8" font-family="Arial" font-size="14.00" fill="#c6c5fe">statements/tokens/generateCNonce.ts</text>
</g>
<!-- statements/tokens/index.ts&#45;&gt;statements/tokens/generateCNonce.ts -->
<g id="edge81" class="edge">
<title>statements/tokens/index.ts&#45;&gt;statements/tokens/generateCNonce.ts</title>
<path fill="none" stroke="#757575" d="M1808.7,-965.02C1828.31,-967.91 1849.43,-970.92 1869,-973.5 1890.49,-976.33 1913.43,-979.15 1935.52,-981.76"/>
<polygon fill="#757575" stroke="#757575" points="1935.26,-985.25 1945.61,-982.94 1936.08,-978.3 1935.26,-985.25"/>
</g>
<!-- statements/tokens/generateCredentials.ts -->
<g id="node40" class="node">
<title>statements/tokens/generateCredentials.ts</title>
<path fill="none" stroke="#c6c5fe" d="M2176.33,-686C2176.33,-686 1925.67,-686 1925.67,-686 1921.83,-686 1918,-682.16 1918,-678.33 1918,-678.33 1918,-670.66 1918,-670.66 1918,-666.83 1921.83,-663 1925.67,-663 1925.67,-663 2176.33,-663 2176.33,-663 2180.17,-663 2184,-666.83 2184,-670.66 2184,-670.66 2184,-678.33 2184,-678.33 2184,-682.16 2180.17,-686 2176.33,-686"/>
<text text-anchor="middle" x="2051" y="-670.8" font-family="Arial" font-size="14.00" fill="#c6c5fe">statements/tokens/generateCredentials.ts</text>
</g>
<!-- statements/tokens/index.ts&#45;&gt;statements/tokens/generateCredentials.ts -->
<g id="edge82" class="edge">
<title>statements/tokens/index.ts&#45;&gt;statements/tokens/generateCredentials.ts</title>
<path fill="none" stroke="#757575" d="M1735.59,-941.91C1743.78,-900.18 1777.87,-756.77 1869,-694.5 1880.88,-686.38 1894.25,-680.52 1908.21,-676.36"/>
<polygon fill="#757575" stroke="#757575" points="1909.21,-679.72 1917.96,-673.75 1907.4,-672.96 1909.21,-679.72"/>
</g>
<!-- statements/validations/validateAccessToken.ts -->
<g id="node41" class="node">
<title>statements/validations/validateAccessToken.ts</title>
<path fill="none" stroke="#c6c5fe" d="M2190.83,-440C2190.83,-440 1911.17,-440 1911.17,-440 1907.33,-440 1903.5,-436.16 1903.5,-432.33 1903.5,-432.33 1903.5,-424.66 1903.5,-424.66 1903.5,-420.83 1907.33,-417 1911.17,-417 1911.17,-417 2190.83,-417 2190.83,-417 2194.67,-417 2198.5,-420.83 2198.5,-424.66 2198.5,-424.66 2198.5,-432.33 2198.5,-432.33 2198.5,-436.16 2194.67,-440 2190.83,-440"/>
<text text-anchor="middle" x="2051" y="-424.8" font-family="Arial" font-size="14.00" fill="#c6c5fe">statements/validations/validateAccessToken.ts</text>
</g>
<!-- statements/validations/index.ts&#45;&gt;statements/validations/validateAccessToken.ts -->
<g id="edge83" class="edge">
<title>statements/validations/index.ts&#45;&gt;statements/validations/validateAccessToken.ts</title>
<path fill="none" stroke="#757575" d="M1755.17,-518.79C1775.54,-507.62 1806.75,-490.09 1833,-473.5 1849.47,-463.09 1850.76,-455.33 1869,-448.5 1876.87,-445.55 1885.06,-442.99 1893.42,-440.79"/>
<polygon fill="#757575" stroke="#757575" points="1894.43,-444.14 1903.3,-438.35 1892.75,-437.35 1894.43,-444.14"/>
</g>
<!-- statements/validations/validateAuthorizationCode.ts -->
<g id="node42" class="node">
<title>statements/validations/validateAuthorizationCode.ts</title>
<path fill="none" stroke="#c6c5fe" d="M2206.33,-481C2206.33,-481 1895.67,-481 1895.67,-481 1891.83,-481 1888,-477.16 1888,-473.33 1888,-473.33 1888,-465.66 1888,-465.66 1888,-461.83 1891.83,-458 1895.67,-458 1895.67,-458 2206.33,-458 2206.33,-458 2210.17,-458 2214,-461.83 2214,-465.66 2214,-465.66 2214,-473.33 2214,-473.33 2214,-477.16 2210.17,-481 2206.33,-481"/>
<text text-anchor="middle" x="2051" y="-465.8" font-family="Arial" font-size="14.00" fill="#c6c5fe">statements/validations/validateAuthorizationCode.ts</text>
</g>
<!-- statements/validations/index.ts&#45;&gt;statements/validations/validateAuthorizationCode.ts -->
<g id="edge84" class="edge">
<title>statements/validations/index.ts&#45;&gt;statements/validations/validateAuthorizationCode.ts</title>
<path fill="none" stroke="#757575" d="M1765.65,-518.94C1792.84,-509.61 1833,-496.87 1869,-489.5 1882.08,-486.82 1895.78,-484.48 1909.53,-482.44"/>
<polygon fill="#757575" stroke="#757575" points="1910.14,-485.89 1919.54,-481.01 1909.14,-478.96 1910.14,-485.89"/>
</g>
<!-- statements/validations/validateClientCredentials.ts -->
<g id="node43" class="node">
<title>statements/validations/validateClientCredentials.ts</title>
<path fill="none" stroke="#c6c5fe" d="M2202.33,-604C2202.33,-604 1899.67,-604 1899.67,-604 1895.83,-604 1892,-600.16 1892,-596.33 1892,-596.33 1892,-588.66 1892,-588.66 1892,-584.83 1895.83,-581 1899.67,-581 1899.67,-581 2202.33,-581 2202.33,-581 2206.17,-581 2210,-584.83 2210,-588.66 2210,-588.66 2210,-596.33 2210,-596.33 2210,-600.16 2206.17,-604 2202.33,-604"/>
<text text-anchor="middle" x="2051" y="-588.8" font-family="Arial" font-size="14.00" fill="#c6c5fe">statements/validations/validateClientCredentials.ts</text>
</g>
<!-- statements/validations/index.ts&#45;&gt;statements/validations/validateClientCredentials.ts -->
<g id="edge85" class="edge">
<title>statements/validations/index.ts&#45;&gt;statements/validations/validateClientCredentials.ts</title>
<path fill="none" stroke="#757575" d="M1765.66,-542C1792.86,-551.3 1833.02,-564.03 1869,-571.5 1883.74,-574.55 1899.25,-577.2 1914.74,-579.48"/>
<polygon fill="#757575" stroke="#757575" points="1914.51,-582.99 1924.9,-580.93 1915.5,-576.06 1914.51,-582.99"/>
</g>
<!-- statements/validations/validateCredentialConfigurations.ts -->
<g id="node44" class="node">
<title>statements/validations/validateCredentialConfigurations.ts</title>
<path fill="none" stroke="#c6c5fe" d="M2225.33,-809C2225.33,-809 1876.67,-809 1876.67,-809 1872.83,-809 1869,-805.16 1869,-801.33 1869,-801.33 1869,-793.66 1869,-793.66 1869,-789.83 1872.83,-786 1876.67,-786 1876.67,-786 2225.33,-786 2225.33,-786 2229.17,-786 2233,-789.83 2233,-793.66 2233,-793.66 2233,-801.33 2233,-801.33 2233,-805.16 2229.17,-809 2225.33,-809"/>
<text text-anchor="middle" x="2051" y="-793.8" font-family="Arial" font-size="14.00" fill="#c6c5fe">statements/validations/validateCredentialConfigurations.ts</text>
</g>
<!-- statements/validations/index.ts&#45;&gt;statements/validations/validateCredentialConfigurations.ts -->
<g id="edge86" class="edge">
<title>statements/validations/index.ts&#45;&gt;statements/validations/validateCredentialConfigurations.ts</title>
<path fill="none" stroke="#757575" d="M1735.92,-542.05C1745.05,-582.39 1781.37,-717.64 1869,-776.5 1871.46,-778.15 1873.99,-779.71 1876.57,-781.18"/>
<polygon fill="#757575" stroke="#757575" points="1875.05,-784.34 1885.53,-785.85 1878.28,-778.13 1875.05,-784.34"/>
</g>
<!-- statements/validations/validateDpop.ts -->
<g id="node45" class="node">
<title>statements/validations/validateDpop.ts</title>
<path fill="none" stroke="#c6c5fe" d="M2167.33,-399C2167.33,-399 1934.67,-399 1934.67,-399 1930.83,-399 1927,-395.16 1927,-391.33 1927,-391.33 1927,-383.66 1927,-383.66 1927,-379.83 1930.83,-376 1934.67,-376 1934.67,-376 2167.33,-376 2167.33,-376 2171.17,-376 2175,-379.83 2175,-383.66 2175,-383.66 2175,-391.33 2175,-391.33 2175,-395.16 2171.17,-399 2167.33,-399"/>
<text text-anchor="middle" x="2051" y="-383.8" font-family="Arial" font-size="14.00" fill="#c6c5fe">statements/validations/validateDpop.ts</text>
</g>
<!-- statements/validations/index.ts&#45;&gt;statements/validations/validateDpop.ts -->
<g id="edge87" class="edge">
<title>statements/validations/index.ts&#45;&gt;statements/validations/validateDpop.ts</title>
<path fill="none" stroke="#757575" d="M1762.9,-518.87C1784.37,-509.24 1813.08,-493.83 1833,-473.5 1856.38,-449.62 1841.25,-426.11 1869,-407.5 1883.27,-397.93 1899.63,-391.52 1916.56,-387.36"/>
<polygon fill="#757575" stroke="#757575" points="1917.56,-390.73 1926.58,-385.17 1916.06,-383.89 1917.56,-390.73"/>
</g>
<!-- statements/validations/validateIssuerState.ts -->
<g id="node46" class="node">
<title>statements/validations/validateIssuerState.ts</title>
<path fill="none" stroke="#c6c5fe" d="M2185.33,-358C2185.33,-358 1916.67,-358 1916.67,-358 1912.83,-358 1909,-354.16 1909,-350.33 1909,-350.33 1909,-342.66 1909,-342.66 1909,-338.83 1912.83,-335 1916.67,-335 1916.67,-335 2185.33,-335 2185.33,-335 2189.17,-335 2193,-338.83 2193,-342.66 2193,-342.66 2193,-350.33 2193,-350.33 2193,-354.16 2189.17,-358 2185.33,-358"/>
<text text-anchor="middle" x="2051" y="-342.8" font-family="Arial" font-size="14.00" fill="#c6c5fe">statements/validations/validateIssuerState.ts</text>
</g>
<!-- statements/validations/index.ts&#45;&gt;statements/validations/validateIssuerState.ts -->
<g id="edge88" class="edge">
<title>statements/validations/index.ts&#45;&gt;statements/validations/validateIssuerState.ts</title>
<path fill="none" stroke="#757575" d="M1766.32,-518.86C1788.01,-509.63 1815.56,-494.73 1833,-473.5 1864.84,-434.72 1829.93,-397.97 1869,-366.5 1878.04,-359.21 1888.22,-353.6 1899.02,-349.34"/>
<polygon fill="#757575" stroke="#757575" points="1900.39,-352.57 1908.65,-345.94 1898.06,-345.97 1900.39,-352.57"/>
</g>
<!-- statements/validations/validateRequestUri.ts -->
<g id="node47" class="node">
<title>statements/validations/validateRequestUri.ts</title>
<path fill="none" stroke="#c6c5fe" d="M2184.83,-768C2184.83,-768 1917.17,-768 1917.17,-768 1913.33,-768 1909.5,-764.16 1909.5,-760.33 1909.5,-760.33 1909.5,-752.66 1909.5,-752.66 1909.5,-748.83 1913.33,-745 1917.17,-745 1917.17,-745 2184.83,-745 2184.83,-745 2188.67,-745 2192.5,-748.83 2192.5,-752.66 2192.5,-752.66 2192.5,-760.33 2192.5,-760.33 2192.5,-764.16 2188.67,-768 2184.83,-768"/>
<text text-anchor="middle" x="2051" y="-752.8" font-family="Arial" font-size="14.00" fill="#c6c5fe">statements/validations/validateRequestUri.ts</text>
</g>
<!-- statements/validations/index.ts&#45;&gt;statements/validations/validateRequestUri.ts -->
<g id="edge89" class="edge">
<title>statements/validations/index.ts&#45;&gt;statements/validations/validateRequestUri.ts</title>
<path fill="none" stroke="#757575" d="M1737.3,-542.38C1749.59,-578.63 1791.95,-688.14 1869,-735.5 1878.59,-741.39 1889.01,-746.05 1899.84,-749.71"/>
<polygon fill="#757575" stroke="#757575" points="1898.87,-753.07 1909.46,-752.67 1900.93,-746.38 1898.87,-753.07"/>
</g>
<!-- statements/validations/validateResourceOwner.ts -->
<g id="node48" class="node">
<title>statements/validations/validateResourceOwner.ts</title>
<path fill="none" stroke="#c6c5fe" d="M2199.83,-563C2199.83,-563 1902.17,-563 1902.17,-563 1898.33,-563 1894.5,-559.16 1894.5,-555.33 1894.5,-555.33 1894.5,-547.66 1894.5,-547.66 1894.5,-543.83 1898.33,-540 1902.17,-540 1902.17,-540 2199.83,-540 2199.83,-540 2203.67,-540 2207.5,-543.83 2207.5,-547.66 2207.5,-547.66 2207.5,-555.33 2207.5,-555.33 2207.5,-559.16 2203.67,-563 2199.83,-563"/>
<text text-anchor="middle" x="2051" y="-547.8" font-family="Arial" font-size="14.00" fill="#c6c5fe">statements/validations/validateResourceOwner.ts</text>
</g>
<!-- statements/validations/index.ts&#45;&gt;statements/validations/validateResourceOwner.ts -->
<g id="edge90" class="edge">
<title>statements/validations/index.ts&#45;&gt;statements/validations/validateResourceOwner.ts</title>
<path fill="none" stroke="#757575" d="M1833.21,-537.11C1849.49,-538.19 1866.74,-539.34 1884.11,-540.49"/>
<polygon fill="#757575" stroke="#757575" points="1884.13,-544 1894.34,-541.17 1884.59,-537.01 1884.13,-544"/>
</g>
<!-- statements/validations/validateScope.ts -->
<g id="node49" class="node">
<title>statements/validations/validateScope.ts</title>
<path fill="none" stroke="#c6c5fe" d="M2170.33,-522C2170.33,-522 1931.67,-522 1931.67,-522 1927.83,-522 1924,-518.16 1924,-514.33 1924,-514.33 1924,-506.66 1924,-506.66 1924,-502.83 1927.83,-499 1931.67,-499 1931.67,-499 2170.33,-499 2170.33,-499 2174.17,-499 2178,-502.83 2178,-506.66 2178,-506.66 2178,-514.33 2178,-514.33 2178,-518.16 2174.17,-522 2170.33,-522"/>
<text text-anchor="middle" x="2051" y="-506.8" font-family="Arial" font-size="14.00" fill="#c6c5fe">statements/validations/validateScope.ts</text>
</g>
<!-- statements/validations/index.ts&#45;&gt;statements/validations/validateScope.ts -->
<g id="edge91" class="edge">
<title>statements/validations/index.ts&#45;&gt;statements/validations/validateScope.ts</title>
<path fill="none" stroke="#757575" d="M1833.21,-524.19C1858.67,-522.59 1886.5,-520.83 1913.46,-519.12"/>
<polygon fill="#757575" stroke="#757575" points="1913.98,-522.6 1923.74,-518.47 1913.54,-515.61 1913.98,-522.6"/>
</g>
<!-- statements/locations/authorizationCodeRedirection.ts&#45;&gt;resources.ts -->
<g id="edge63" class="edge">
<title>statements/locations/authorizationCodeRedirection.ts&#45;&gt;resources.ts</title>
<path fill="none" stroke="#757575" d="M2215.99,-1064.99C2221.9,-1062.23 2227.6,-1059.09 2233,-1055.5 2275.98,-1026.93 2298.32,-966.99 2307.62,-934.88"/>
<polygon fill="#757575" stroke="#757575" points="2311.02,-935.72 2310.28,-925.15 2304.27,-933.87 2311.02,-935.72"/>
</g>
<!-- statements/locations/generateAuthorizationRequestUri.ts&#45;&gt;resources.ts -->
<g id="edge65" class="edge">
<title>statements/locations/generateAuthorizationRequestUri.ts&#45;&gt;resources.ts</title>
<path fill="none" stroke="#757575" d="M2211.32,-1185.89C2219.07,-1181.92 2226.37,-1177.17 2233,-1171.5 2274.35,-1136.14 2252.9,-1106.46 2269,-1054.5 2282.13,-1012.11 2297.61,-962.61 2306.27,-934.97"/>
<polygon fill="#757575" stroke="#757575" points="2309.68,-935.78 2309.33,-925.19 2303,-933.69 2309.68,-935.78"/>
</g>
<!-- statements/locations/generateAuthorizationRequestUri.ts&#45;&gt;constants.ts -->
<g id="edge64" class="edge">
<title>statements/locations/generateAuthorizationRequestUri.ts&#45;&gt;constants.ts</title>
<path fill="none" stroke="#757575" d="M2198.84,-1185.99C2210.77,-1182.21 2222.33,-1177.46 2233,-1171.5 2264.66,-1153.82 2289.07,-1118.31 2302.21,-1095.78"/>
<polygon fill="#757575" stroke="#757575" points="2305.29,-1097.44 2307.14,-1087.01 2299.19,-1094.01 2305.29,-1097.44"/>
</g>
<!-- statements/locations/generateCredentialOffer.ts&#45;&gt;resources.ts -->
<g id="edge67" class="edge">
<title>statements/locations/generateCredentialOffer.ts&#45;&gt;resources.ts</title>
<path fill="none" stroke="#757575" d="M2202.88,-719.58C2213.61,-723.59 2223.8,-728.8 2233,-735.5 2285.11,-773.42 2303.95,-853.27 2310.19,-891.79"/>
<polygon fill="#757575" stroke="#757575" points="2306.76,-892.53 2311.69,-901.91 2313.69,-891.51 2306.76,-892.53"/>
</g>
<!-- statements/locations/generateCredentialOffer.ts&#45;&gt;errors.ts -->
<g id="edge66" class="edge">
<title>statements/locations/generateCredentialOffer.ts&#45;&gt;errors.ts</title>
<path fill="none" stroke="#757575" d="M2202.92,-712.73C2213.83,-708.23 2224.05,-702.28 2233,-694.5 2276.82,-656.4 2302.72,-472.81 2310.5,-409.23"/>
<polygon fill="#757575" stroke="#757575" points="2314,-409.47 2311.71,-399.13 2307.05,-408.65 2314,-409.47"/>
</g>
<!-- statements/resources/issuerClient.ts&#45;&gt;resources.ts -->
<g id="edge72" class="edge">
<title>statements/resources/issuerClient.ts&#45;&gt;resources.ts</title>
<path fill="none" stroke="#757575" d="M2168.78,-1121.7C2191.74,-1117.84 2214.44,-1110.23 2233,-1096.5 2260.49,-1076.15 2293.11,-978.53 2306.63,-934.78"/>
<polygon fill="#757575" stroke="#757575" points="2310.01,-935.72 2309.58,-925.13 2303.31,-933.68 2310.01,-935.72"/>
</g>
<!-- statements/tokens/generateAccessToken.ts&#45;&gt;resources.ts -->
<g id="edge73" class="edge">
<title>statements/tokens/generateAccessToken.ts&#45;&gt;resources.ts</title>
<path fill="none" stroke="#757575" d="M2135.89,-941.99C2166.48,-937.65 2201.34,-932.54 2233,-927.5 2241.31,-926.17 2250.09,-924.71 2258.67,-923.23"/>
<polygon fill="#757575" stroke="#757575" points="2259.35,-926.67 2268.61,-921.51 2258.16,-919.77 2259.35,-926.67"/>
</g>
<!-- statements/tokens/generateAuthorizationCode.ts&#45;&gt;resources.ts -->
<g id="edge75" class="edge">
<title>statements/tokens/generateAuthorizationCode.ts&#45;&gt;resources.ts</title>
<path fill="none" stroke="#757575" d="M2205.59,-637.07C2215.44,-641.26 2224.72,-646.64 2233,-653.5 2306.41,-714.23 2313.8,-840.71 2313.64,-891.59"/>
<polygon fill="#757575" stroke="#757575" points="2310.13,-891.73 2313.49,-901.78 2317.13,-891.83 2310.13,-891.73"/>
</g>
<!-- statements/tokens/generateAuthorizationCode.ts&#45;&gt;errors.ts -->
<g id="edge74" class="edge">
<title>statements/tokens/generateAuthorizationCode.ts&#45;&gt;errors.ts</title>
<path fill="none" stroke="#757575" d="M2205.72,-628.44C2215.49,-624.33 2224.71,-619.1 2233,-612.5 2297.12,-561.45 2309.92,-455.06 2312.42,-409.25"/>
<polygon fill="#757575" stroke="#757575" points="2315.92,-409.36 2312.85,-399.22 2308.92,-409.06 2315.92,-409.36"/>
</g>
<!-- statements/tokens/generateCNonce.ts&#45;&gt;resources.ts -->
<g id="edge76" class="edge">
<title>statements/tokens/generateCNonce.ts&#45;&gt;resources.ts</title>
<path fill="none" stroke="#757575" d="M2174.91,-989.11C2194.77,-985.74 2214.78,-980.76 2233,-973.5 2256.4,-964.16 2278.98,-946.13 2294.15,-932.26"/>
<polygon fill="#757575" stroke="#757575" points="2296.9,-934.47 2301.77,-925.06 2292.1,-929.38 2296.9,-934.47"/>
</g>
<!-- statements/tokens/generateCredentials.ts&#45;&gt;resources.ts -->
<g id="edge78" class="edge">
<title>statements/tokens/generateCredentials.ts&#45;&gt;resources.ts</title>
<path fill="none" stroke="#757575" d="M2184.38,-671.8C2201.99,-676.21 2218.82,-683.37 2233,-694.5 2295.68,-743.68 2309.27,-846.68 2312.2,-891.68"/>
<polygon fill="#757575" stroke="#757575" points="2308.71,-892 2312.74,-901.8 2315.7,-891.63 2308.71,-892"/>
</g>
<!-- statements/tokens/generateCredentials.ts&#45;&gt;errors.ts -->
<g id="edge77" class="edge">
<title>statements/tokens/generateCredentials.ts&#45;&gt;errors.ts</title>
<path fill="none" stroke="#757575" d="M2184.09,-677.38C2201.95,-672.79 2218.93,-665.27 2233,-653.5 2307.92,-590.76 2314.36,-460.69 2313.79,-409.18"/>
<polygon fill="#757575" stroke="#757575" points="2317.29,-409.09 2313.57,-399.17 2310.29,-409.24 2317.29,-409.09"/>
</g>
<!-- statements/validations/validateAccessToken.ts&#45;&gt;resources.ts -->
<g id="edge93" class="edge">
<title>statements/validations/validateAccessToken.ts&#45;&gt;resources.ts</title>
<path fill="none" stroke="#757575" d="M2198.84,-427.64C2211.42,-432.42 2223.1,-439.18 2233,-448.5 2298.43,-510.1 2310.47,-807.69 2312.57,-891.49"/>
<polygon fill="#757575" stroke="#757575" points="2309.08,-891.73 2312.81,-901.65 2316.08,-891.57 2309.08,-891.73"/>
</g>
<!-- statements/validations/validateAccessToken.ts&#45;&gt;errors.ts -->
<g id="edge92" class="edge">
<title>statements/validations/validateAccessToken.ts&#45;&gt;errors.ts</title>
<path fill="none" stroke="#757575" d="M2170.62,-416.96C2191.48,-414.3 2212.93,-411.15 2233,-407.5 2245.43,-405.23 2258.81,-402.15 2270.99,-399.08"/>
<polygon fill="#757575" stroke="#757575" points="2272.09,-402.41 2280.9,-396.53 2270.34,-395.64 2272.09,-402.41"/>
</g>
<!-- statements/validations/validateAuthorizationCode.ts&#45;&gt;resources.ts -->
<g id="edge95" class="edge">
<title>statements/validations/validateAuthorizationCode.ts&#45;&gt;resources.ts</title>
<path fill="none" stroke="#757575" d="M2214.4,-476.07C2221.07,-479.79 2227.32,-484.23 2233,-489.5 2292.84,-544.93 2308.76,-812.92 2312.18,-891.68"/>
<polygon fill="#757575" stroke="#757575" points="2308.7,-892.03 2312.6,-901.88 2315.69,-891.75 2308.7,-892.03"/>
</g>
<!-- statements/validations/validateAuthorizationCode.ts&#45;&gt;errors.ts -->
<g id="edge94" class="edge">
<title>statements/validations/validateAuthorizationCode.ts&#45;&gt;errors.ts</title>
<path fill="none" stroke="#757575" d="M2204.13,-457.97C2214.05,-455.35 2223.76,-452.22 2233,-448.5 2256.51,-439.01 2279.07,-420.68 2294.21,-406.57"/>
<polygon fill="#757575" stroke="#757575" points="2297.03,-408.71 2301.81,-399.26 2292.18,-403.67 2297.03,-408.71"/>
</g>
<!-- statements/validations/validateClientCredentials.ts&#45;&gt;resources.ts -->
<g id="edge97" class="edge">
<title>statements/validations/validateClientCredentials.ts&#45;&gt;resources.ts</title>
<path fill="none" stroke="#757575" d="M2210.17,-597.68C2218.35,-601.63 2226.05,-606.52 2233,-612.5 2276.11,-649.59 2302.39,-828.98 2310.39,-891.75"/>
<polygon fill="#757575" stroke="#757575" points="2306.92,-892.25 2311.63,-901.74 2313.87,-891.38 2306.92,-892.25"/>
</g>
<!-- statements/validations/validateClientCredentials.ts&#45;&gt;errors.ts -->
<g id="edge96" class="edge">
<title>statements/validations/validateClientCredentials.ts&#45;&gt;errors.ts</title>
<path fill="none" stroke="#757575" d="M2210.05,-584.75C2218.16,-581.14 2225.89,-576.77 2233,-571.5 2286.45,-531.86 2304.68,-448.91 2310.49,-409.37"/>
<polygon fill="#757575" stroke="#757575" points="2313.96,-409.82 2311.81,-399.44 2307.02,-408.89 2313.96,-409.82"/>
</g>
<!-- statements/validations/validateCredentialConfigurations.ts&#45;&gt;resources.ts -->
<g id="edge98" class="edge">
<title>statements/validations/validateCredentialConfigurations.ts&#45;&gt;resources.ts</title>
<path fill="none" stroke="#757575" d="M2197.71,-809.09C2210.01,-812.83 2221.96,-817.56 2233,-823.5 2263.15,-839.71 2287.47,-872.01 2301.07,-893.18"/>
<polygon fill="#757575" stroke="#757575" points="2298.15,-895.11 2306.39,-901.76 2304.1,-891.42 2298.15,-895.11"/>
</g>
<!-- statements/validations/validateDpop.ts&#45;&gt;errors.ts -->
<g id="edge99" class="edge">
<title>statements/validations/validateDpop.ts&#45;&gt;errors.ts</title>
<path fill="none" stroke="#757575" d="M2175.24,-387.5C2209.58,-387.5 2244.59,-387.5 2270.72,-387.5"/>
<polygon fill="#757575" stroke="#757575" points="2270.99,-391 2280.99,-387.5 2270.99,-384 2270.99,-391"/>
</g>
<!-- statements/validations/validateIssuerState.ts&#45;&gt;errors.ts -->
<g id="edge100" class="edge">
<title>statements/validations/validateIssuerState.ts&#45;&gt;errors.ts</title>
<path fill="none" stroke="#757575" d="M2177.96,-358.01C2196.48,-360.4 2215.28,-363.21 2233,-366.5 2245.46,-368.81 2258.85,-372.02 2271.03,-375.24"/>
<polygon fill="#757575" stroke="#757575" points="2270.37,-378.69 2280.94,-377.93 2272.2,-371.93 2270.37,-378.69"/>
</g>
<!-- statements/validations/validateRequestUri.ts&#45;&gt;resources.ts -->
<g id="edge103" class="edge">
<title>statements/validations/validateRequestUri.ts&#45;&gt;resources.ts</title>
<path fill="none" stroke="#757575" d="M2192.95,-758.8C2207.15,-762.85 2220.8,-768.57 2233,-776.5 2274.73,-803.61 2297.41,-860.7 2307.14,-891.94"/>
<polygon fill="#757575" stroke="#757575" points="2303.87,-893.22 2310.05,-901.83 2310.58,-891.24 2303.87,-893.22"/>
</g>
<!-- statements/validations/validateRequestUri.ts&#45;&gt;constants.ts -->
<g id="edge101" class="edge">
<title>statements/validations/validateRequestUri.ts&#45;&gt;constants.ts</title>
<path fill="none" stroke="#757575" d="M2192.51,-754.22C2207.38,-758.95 2221.31,-766.09 2233,-776.5 2286.45,-824.11 2250.39,-864.37 2269,-933.5 2280.61,-976.62 2296.63,-1026.32 2305.79,-1054.01"/>
<polygon fill="#757575" stroke="#757575" points="2302.57,-1055.42 2309.05,-1063.8 2309.21,-1053.21 2302.57,-1055.42"/>
</g>
<!-- statements/validations/validateRequestUri.ts&#45;&gt;errors.ts -->
<g id="edge102" class="edge">
<title>statements/validations/validateRequestUri.ts&#45;&gt;errors.ts</title>
<path fill="none" stroke="#757575" d="M2192.54,-757.94C2207.41,-753.13 2221.33,-745.94 2233,-735.5 2282.33,-691.33 2305.04,-478.58 2311.2,-409.33"/>
<polygon fill="#757575" stroke="#757575" points="2314.71,-409.42 2312.08,-399.15 2307.73,-408.81 2314.71,-409.42"/>
</g>
<!-- statements/validations/validateResourceOwner.ts&#45;&gt;resources.ts -->
<g id="edge105" class="edge">
<title>statements/validations/validateResourceOwner.ts&#45;&gt;resources.ts</title>
<path fill="none" stroke="#757575" d="M2207.84,-555.22C2216.93,-559.44 2225.43,-564.78 2233,-571.5 2281.62,-614.61 2304.73,-822.99 2311.11,-891.57"/>
<polygon fill="#757575" stroke="#757575" points="2307.64,-892.02 2312.02,-901.67 2314.61,-891.39 2307.64,-892.02"/>
</g>
<!-- statements/validations/validateResourceOwner.ts&#45;&gt;errors.ts -->
<g id="edge104" class="edge">
<title>statements/validations/validateResourceOwner.ts&#45;&gt;errors.ts</title>
<path fill="none" stroke="#757575" d="M2207.66,-543.6C2216.57,-540.08 2225.1,-535.76 2233,-530.5 2276.17,-501.71 2298.43,-441.36 2307.67,-409.03"/>
<polygon fill="#757575" stroke="#757575" points="2311.09,-409.79 2310.31,-399.23 2304.33,-407.97 2311.09,-409.79"/>
</g>
<!-- statements/validations/validateScope.ts&#45;&gt;resources.ts -->
<g id="edge107" class="edge">
<title>statements/validations/validateScope.ts&#45;&gt;resources.ts</title>
<path fill="none" stroke="#757575" d="M2178.05,-504.11C2198.34,-508.46 2217.67,-516.57 2233,-530.5 2287.17,-579.71 2306.83,-817.41 2311.69,-891.44"/>
<polygon fill="#757575" stroke="#757575" points="2308.23,-892.1 2312.35,-901.86 2315.21,-891.66 2308.23,-892.1"/>
</g>
<!-- statements/validations/validateScope.ts&#45;&gt;errors.ts -->
<g id="edge106" class="edge">
<title>statements/validations/validateScope.ts&#45;&gt;errors.ts</title>
<path fill="none" stroke="#757575" d="M2178.24,-508.82C2197.39,-504.95 2216.3,-498.85 2233,-489.5 2266.31,-470.84 2290.6,-432.12 2303.2,-408.12"/>
<polygon fill="#757575" stroke="#757575" points="2306.36,-409.64 2307.73,-399.13 2300.11,-406.48 2306.36,-409.64"/>
</g>
</g>
</svg>
