<?xml version="1.0" encoding="UTF-8" standalone="no"?>
<!DOCTYPE svg PUBLIC "-//W3C//DTD SVG 1.1//EN"
 "http://www.w3.org/Graphics/SVG/1.1/DTD/svg11.dtd">
<!-- Generated by graphviz version 2.43.0 (0)
 -->
<!-- Title: G Pages: 1 -->
<svg width="2754pt" height="1167pt"
 viewBox="0.00 0.00 2754.20 1167.03" xmlns="http://www.w3.org/2000/svg" xmlns:xlink="http://www.w3.org/1999/xlink">
<g id="graph0" class="graph" transform="scale(1 1) rotate(0) translate(21.6 1145.43)">
<title>G</title>
<polygon fill="#111111" stroke="transparent" points="-21.6,21.6 -21.6,-1145.43 2732.6,-1145.43 2732.6,21.6 -21.6,21.6"/>
<!-- config.ts -->
<g id="node1" class="node">
<title>config.ts</title>
<path fill="none" stroke="#c6c5fe" d="M960.33,-383.33C960.33,-383.33 908.67,-383.33 908.67,-383.33 904.83,-383.33 901,-379.49 901,-375.66 901,-375.66 901,-367.99 901,-367.99 901,-364.16 904.83,-360.33 908.67,-360.33 908.67,-360.33 960.33,-360.33 960.33,-360.33 964.17,-360.33 968,-364.16 968,-367.99 968,-367.99 968,-375.66 968,-375.66 968,-379.49 964.17,-383.33 960.33,-383.33"/>
<text text-anchor="middle" x="934.5" y="-368.13" font-family="Arial" font-size="14.00" fill="#c6c5fe">config.ts</text>
</g>
<!-- ports.ts -->
<g id="node2" class="node">
<title>ports.ts</title>
<path fill="none" stroke="#c6c5fe" d="M2492.83,-428.33C2492.83,-428.33 2447.17,-428.33 2447.17,-428.33 2443.33,-428.33 2439.5,-424.49 2439.5,-420.66 2439.5,-420.66 2439.5,-412.99 2439.5,-412.99 2439.5,-409.16 2443.33,-405.33 2447.17,-405.33 2447.17,-405.33 2492.83,-405.33 2492.83,-405.33 2496.67,-405.33 2500.5,-409.16 2500.5,-412.99 2500.5,-412.99 2500.5,-420.66 2500.5,-420.66 2500.5,-424.49 2496.67,-428.33 2492.83,-428.33"/>
<text text-anchor="middle" x="2470" y="-413.13" font-family="Arial" font-size="14.00" fill="#c6c5fe">ports.ts</text>
</g>
<!-- config.ts&#45;&gt;ports.ts -->
<g id="edge1" class="edge">
<title>config.ts&#45;&gt;ports.ts</title>
<path fill="none" stroke="#757575" d="M968.1,-371.26C1046.12,-369.72 1249.69,-364.5 1419,-349.83 1818.92,-315.16 1946.32,-124.65 2319,-273.83 2381.59,-298.88 2432.92,-363.87 2455.94,-396.91"/>
<polygon fill="#757575" stroke="#757575" points="2453.14,-399.03 2461.67,-405.32 2458.93,-395.09 2453.14,-399.03"/>
</g>
<!-- resources.ts -->
<g id="node3" class="node">
<title>resources.ts</title>
<path fill="none" stroke="#cfffac" d="M2703.33,-428.33C2703.33,-428.33 2628.67,-428.33 2628.67,-428.33 2624.83,-428.33 2621,-424.49 2621,-420.66 2621,-420.66 2621,-412.99 2621,-412.99 2621,-409.16 2624.83,-405.33 2628.67,-405.33 2628.67,-405.33 2703.33,-405.33 2703.33,-405.33 2707.17,-405.33 2711,-409.16 2711,-412.99 2711,-412.99 2711,-420.66 2711,-420.66 2711,-424.49 2707.17,-428.33 2703.33,-428.33"/>
<text text-anchor="middle" x="2666" y="-413.13" font-family="Arial" font-size="14.00" fill="#cfffac">resources.ts</text>
</g>
<!-- config.ts&#45;&gt;resources.ts -->
<g id="edge2" class="edge">
<title>config.ts&#45;&gt;resources.ts</title>
<path fill="none" stroke="#757575" d="M968.15,-365.25C992.98,-360.44 1028.03,-354.04 1059,-349.83 1138.62,-338.99 1345.81,-348.99 1419,-315.83 1439.05,-306.74 1435.84,-292.65 1455,-281.83 1678.74,-155.46 1757.4,-161.59 2012,-126.83 2138.16,-109.6 2483.69,-49.68 2585,-126.83 2628.52,-159.96 2654.38,-333.02 2662.34,-394.84"/>
<polygon fill="#757575" stroke="#757575" points="2658.91,-395.55 2663.62,-405.04 2665.85,-394.68 2658.91,-395.55"/>
</g>
<!-- ports.ts&#45;&gt;resources.ts -->
<g id="edge43" class="edge">
<title>ports.ts&#45;&gt;resources.ts</title>
<path fill="none" stroke="#757575" d="M2500.89,-416.83C2530.01,-416.83 2574.95,-416.83 2610.45,-416.83"/>
<polygon fill="#757575" stroke="#757575" points="2610.66,-420.33 2620.66,-416.83 2610.66,-413.33 2610.66,-420.33"/>
</g>
<!-- core.ts -->
<g id="node4" class="node">
<title>core.ts</title>
<path fill="none" stroke="#c6c5fe" d="M148.33,-349.33C148.33,-349.33 106.67,-349.33 106.67,-349.33 102.83,-349.33 99,-345.49 99,-341.66 99,-341.66 99,-333.99 99,-333.99 99,-330.16 102.83,-326.33 106.67,-326.33 106.67,-326.33 148.33,-326.33 148.33,-326.33 152.17,-326.33 156,-330.16 156,-333.99 156,-333.99 156,-341.66 156,-341.66 156,-345.49 152.17,-349.33 148.33,-349.33"/>
<text text-anchor="middle" x="127.5" y="-334.13" font-family="Arial" font-size="14.00" fill="#c6c5fe">core.ts</text>
</g>
<!-- core.ts&#45;&gt;config.ts -->
<g id="edge3" class="edge">
<title>core.ts&#45;&gt;config.ts</title>
<path fill="none" stroke="#757575" d="M156.1,-338.62C248.6,-341.32 556.07,-350.76 810,-363.83 836.82,-365.21 866.9,-367.15 890.65,-368.77"/>
<polygon fill="#757575" stroke="#757575" points="890.53,-372.27 900.75,-369.47 891.02,-365.29 890.53,-372.27"/>
</g>
<!-- handlers/index.ts -->
<g id="node5" class="node">
<title>handlers/index.ts</title>
<path fill="none" stroke="#c6c5fe" d="M303.33,-476.33C303.33,-476.33 199.67,-476.33 199.67,-476.33 195.83,-476.33 192,-472.49 192,-468.66 192,-468.66 192,-460.99 192,-460.99 192,-457.16 195.83,-453.33 199.67,-453.33 199.67,-453.33 303.33,-453.33 303.33,-453.33 307.17,-453.33 311,-457.16 311,-460.99 311,-460.99 311,-468.66 311,-468.66 311,-472.49 307.17,-476.33 303.33,-476.33"/>
<text text-anchor="middle" x="251.5" y="-461.13" font-family="Arial" font-size="14.00" fill="#c6c5fe">handlers/index.ts</text>
</g>
<!-- core.ts&#45;&gt;handlers/index.ts -->
<g id="edge4" class="edge">
<title>core.ts&#45;&gt;handlers/index.ts</title>
<path fill="none" stroke="#757575" d="M139.76,-349.55C160.91,-371.57 206.76,-419.29 232.33,-445.91"/>
<polygon fill="#757575" stroke="#757575" points="229.82,-448.35 239.27,-453.13 234.86,-443.5 229.82,-448.35"/>
</g>
<!-- handlers/authorization.handler.ts -->
<g id="node7" class="node">
<title>handlers/authorization.handler.ts</title>
<path fill="none" stroke="#c6c5fe" d="M785.33,-505.33C785.33,-505.33 588.67,-505.33 588.67,-505.33 584.83,-505.33 581,-501.49 581,-497.66 581,-497.66 581,-489.99 581,-489.99 581,-486.16 584.83,-482.33 588.67,-482.33 588.67,-482.33 785.33,-482.33 785.33,-482.33 789.17,-482.33 793,-486.16 793,-489.99 793,-489.99 793,-497.66 793,-497.66 793,-501.49 789.17,-505.33 785.33,-505.33"/>
<text text-anchor="middle" x="687" y="-490.13" font-family="Arial" font-size="14.00" fill="#c6c5fe">handlers/authorization.handler.ts</text>
</g>
<!-- handlers/index.ts&#45;&gt;handlers/authorization.handler.ts -->
<g id="edge15" class="edge">
<title>handlers/index.ts&#45;&gt;handlers/authorization.handler.ts</title>
<path fill="none" stroke="#757575" d="M311.41,-468.77C377.82,-473.21 487.39,-480.54 570.91,-486.13"/>
<polygon fill="#757575" stroke="#757575" points="570.75,-489.62 580.97,-486.8 571.22,-482.64 570.75,-489.62"/>
</g>
<!-- handlers/credential.handler.ts -->
<g id="node10" class="node">
<title>handlers/credential.handler.ts</title>
<path fill="none" stroke="#c6c5fe" d="M775.83,-310.33C775.83,-310.33 598.17,-310.33 598.17,-310.33 594.33,-310.33 590.5,-306.49 590.5,-302.66 590.5,-302.66 590.5,-294.99 590.5,-294.99 590.5,-291.16 594.33,-287.33 598.17,-287.33 598.17,-287.33 775.83,-287.33 775.83,-287.33 779.67,-287.33 783.5,-291.16 783.5,-294.99 783.5,-294.99 783.5,-302.66 783.5,-302.66 783.5,-306.49 779.67,-310.33 775.83,-310.33"/>
<text text-anchor="middle" x="687" y="-295.13" font-family="Arial" font-size="14.00" fill="#c6c5fe">handlers/credential.handler.ts</text>
</g>
<!-- handlers/index.ts&#45;&gt;handlers/credential.handler.ts -->
<g id="edge16" class="edge">
<title>handlers/index.ts&#45;&gt;handlers/credential.handler.ts</title>
<path fill="none" stroke="#757575" d="M282.64,-453.28C359.09,-424.01 560.56,-346.86 646.38,-314"/>
<polygon fill="#757575" stroke="#757575" points="647.69,-317.24 655.77,-310.4 645.18,-310.71 647.69,-317.24"/>
</g>
<!-- handlers/location.handler.ts -->
<g id="node11" class="node">
<title>handlers/location.handler.ts</title>
<path fill="none" stroke="#c6c5fe" d="M520.33,-717.33C520.33,-717.33 354.67,-717.33 354.67,-717.33 350.83,-717.33 347,-713.49 347,-709.66 347,-709.66 347,-701.99 347,-701.99 347,-698.16 350.83,-694.33 354.67,-694.33 354.67,-694.33 520.33,-694.33 520.33,-694.33 524.17,-694.33 528,-698.16 528,-701.99 528,-701.99 528,-709.66 528,-709.66 528,-713.49 524.17,-717.33 520.33,-717.33"/>
<text text-anchor="middle" x="437.5" y="-702.13" font-family="Arial" font-size="14.00" fill="#c6c5fe">handlers/location.handler.ts</text>
</g>
<!-- handlers/index.ts&#45;&gt;handlers/location.handler.ts -->
<g id="edge17" class="edge">
<title>handlers/index.ts&#45;&gt;handlers/location.handler.ts</title>
<path fill="none" stroke="#757575" d="M261.37,-476.45C290.7,-514.86 384.74,-638.03 421.54,-686.23"/>
<polygon fill="#757575" stroke="#757575" points="418.86,-688.49 427.71,-694.32 424.43,-684.25 418.86,-688.49"/>
</g>
<!-- errors.ts -->
<g id="node6" class="node">
<title>errors.ts</title>
<path fill="none" stroke="#cfffac" d="M2495.33,-688.33C2495.33,-688.33 2444.67,-688.33 2444.67,-688.33 2440.83,-688.33 2437,-684.49 2437,-680.66 2437,-680.66 2437,-672.99 2437,-672.99 2437,-669.16 2440.83,-665.33 2444.67,-665.33 2444.67,-665.33 2495.33,-665.33 2495.33,-665.33 2499.17,-665.33 2503,-669.16 2503,-672.99 2503,-672.99 2503,-680.66 2503,-680.66 2503,-684.49 2499.17,-688.33 2495.33,-688.33"/>
<text text-anchor="middle" x="2470" y="-673.13" font-family="Arial" font-size="14.00" fill="#cfffac">errors.ts</text>
</g>
<!-- handlers/authorization.handler.ts&#45;&gt;config.ts -->
<g id="edge5" class="edge">
<title>handlers/authorization.handler.ts&#45;&gt;config.ts</title>
<path fill="none" stroke="#757575" d="M783.62,-482.26C793.08,-478.59 802.09,-473.88 810,-467.83 837.79,-446.57 819.07,-420.16 846,-397.83 858.61,-387.37 875.3,-381.12 890.72,-377.38"/>
<polygon fill="#757575" stroke="#757575" points="891.57,-380.78 900.62,-375.27 890.11,-373.93 891.57,-380.78"/>
</g>
<!-- handlers/authorization.handler.ts&#45;&gt;resources.ts -->
<g id="edge8" class="edge">
<title>handlers/authorization.handler.ts&#45;&gt;resources.ts</title>
<path fill="none" stroke="#757575" d="M746.23,-482.25C985.08,-434.84 1883.11,-257.41 2012,-243.83 2163.65,-227.85 2202.52,-237.6 2355,-235.83 2457.22,-234.63 2499.34,-180.04 2585,-235.83 2640.26,-271.82 2657.63,-355.6 2662.86,-395.27"/>
<polygon fill="#757575" stroke="#757575" points="2659.39,-395.69 2664.04,-405.21 2666.34,-394.87 2659.39,-395.69"/>
</g>
<!-- handlers/authorization.handler.ts&#45;&gt;errors.ts -->
<g id="edge6" class="edge">
<title>handlers/authorization.handler.ts&#45;&gt;errors.ts</title>
<path fill="none" stroke="#757575" d="M763.91,-505.36C940.74,-531.85 1394.04,-597.53 1775,-633.83 2021.27,-657.29 2317.97,-670.74 2426.56,-675.18"/>
<polygon fill="#757575" stroke="#757575" points="2426.64,-678.68 2436.77,-675.59 2426.92,-671.69 2426.64,-678.68"/>
</g>
<!-- handlers/schemas/index.ts -->
<g id="node8" class="node">
<title>handlers/schemas/index.ts</title>
<path fill="none" stroke="#c6c5fe" d="M1015.33,-308.33C1015.33,-308.33 853.67,-308.33 853.67,-308.33 849.83,-308.33 846,-304.49 846,-300.66 846,-300.66 846,-292.99 846,-292.99 846,-289.16 849.83,-285.33 853.67,-285.33 853.67,-285.33 1015.33,-285.33 1015.33,-285.33 1019.17,-285.33 1023,-289.16 1023,-292.99 1023,-292.99 1023,-300.66 1023,-300.66 1023,-304.49 1019.17,-308.33 1015.33,-308.33"/>
<text text-anchor="middle" x="934.5" y="-293.13" font-family="Arial" font-size="14.00" fill="#c6c5fe">handlers/schemas/index.ts</text>
</g>
<!-- handlers/authorization.handler.ts&#45;&gt;handlers/schemas/index.ts -->
<g id="edge7" class="edge">
<title>handlers/authorization.handler.ts&#45;&gt;handlers/schemas/index.ts</title>
<path fill="none" stroke="#757575" d="M723.75,-482.27C750.44,-472.09 786.25,-454.93 810,-429.83 836.52,-401.79 820.48,-379.76 846,-350.83 859.95,-335.01 879.65,-322.29 896.83,-313.18"/>
<polygon fill="#757575" stroke="#757575" points="898.73,-316.14 906.07,-308.49 895.57,-309.9 898.73,-316.14"/>
</g>
<!-- statements/index.ts -->
<g id="node9" class="node">
<title>statements/index.ts</title>
<path fill="none" stroke="#c6c5fe" d="M993.83,-688.33C993.83,-688.33 875.17,-688.33 875.17,-688.33 871.33,-688.33 867.5,-684.49 867.5,-680.66 867.5,-680.66 867.5,-672.99 867.5,-672.99 867.5,-669.16 871.33,-665.33 875.17,-665.33 875.17,-665.33 993.83,-665.33 993.83,-665.33 997.67,-665.33 1001.5,-669.16 1001.5,-672.99 1001.5,-672.99 1001.5,-680.66 1001.5,-680.66 1001.5,-684.49 997.67,-688.33 993.83,-688.33"/>
<text text-anchor="middle" x="934.5" y="-673.13" font-family="Arial" font-size="14.00" fill="#c6c5fe">statements/index.ts</text>
</g>
<!-- handlers/authorization.handler.ts&#45;&gt;statements/index.ts -->
<g id="edge9" class="edge">
<title>handlers/authorization.handler.ts&#45;&gt;statements/index.ts</title>
<path fill="none" stroke="#757575" d="M699.51,-505.49C724.58,-530.5 786.64,-590.28 846,-630.83 862.47,-642.07 882.01,-652.59 898.45,-660.71"/>
<polygon fill="#757575" stroke="#757575" points="897.2,-664 907.72,-665.21 900.25,-657.7 897.2,-664"/>
</g>
<!-- handlers/schemas/authorizationHandlerConfig.schema.ts -->
<g id="node17" class="node">
<title>handlers/schemas/authorizationHandlerConfig.schema.ts</title>
<path fill="none" stroke="#cfffac" d="M1411.33,-266.33C1411.33,-266.33 1066.67,-266.33 1066.67,-266.33 1062.83,-266.33 1059,-262.49 1059,-258.66 1059,-258.66 1059,-250.99 1059,-250.99 1059,-247.16 1062.83,-243.33 1066.67,-243.33 1066.67,-243.33 1411.33,-243.33 1411.33,-243.33 1415.17,-243.33 1419,-247.16 1419,-250.99 1419,-250.99 1419,-258.66 1419,-258.66 1419,-262.49 1415.17,-266.33 1411.33,-266.33"/>
<text text-anchor="middle" x="1239" y="-251.13" font-family="Arial" font-size="14.00" fill="#cfffac">handlers/schemas/authorizationHandlerConfig.schema.ts</text>
</g>
<!-- handlers/schemas/index.ts&#45;&gt;handlers/schemas/authorizationHandlerConfig.schema.ts -->
<g id="edge35" class="edge">
<title>handlers/schemas/index.ts&#45;&gt;handlers/schemas/authorizationHandlerConfig.schema.ts</title>
<path fill="none" stroke="#757575" d="M995.68,-285.3C1015.77,-281.66 1038.31,-277.82 1059,-274.83 1076.97,-272.22 1096,-269.77 1114.68,-267.54"/>
<polygon fill="#757575" stroke="#757575" points="1115.18,-271 1124.71,-266.36 1114.36,-264.05 1115.18,-271"/>
</g>
<!-- handlers/schemas/credentialHandlerConfig.schema.ts -->
<g id="node18" class="node">
<title>handlers/schemas/credentialHandlerConfig.schema.ts</title>
<path fill="none" stroke="#cfffac" d="M1401.83,-225.33C1401.83,-225.33 1076.17,-225.33 1076.17,-225.33 1072.33,-225.33 1068.5,-221.49 1068.5,-217.66 1068.5,-217.66 1068.5,-209.99 1068.5,-209.99 1068.5,-206.16 1072.33,-202.33 1076.17,-202.33 1076.17,-202.33 1401.83,-202.33 1401.83,-202.33 1405.67,-202.33 1409.5,-206.16 1409.5,-209.99 1409.5,-209.99 1409.5,-217.66 1409.5,-217.66 1409.5,-221.49 1405.67,-225.33 1401.83,-225.33"/>
<text text-anchor="middle" x="1239" y="-210.13" font-family="Arial" font-size="14.00" fill="#cfffac">handlers/schemas/credentialHandlerConfig.schema.ts</text>
</g>
<!-- handlers/schemas/index.ts&#45;&gt;handlers/schemas/credentialHandlerConfig.schema.ts -->
<g id="edge36" class="edge">
<title>handlers/schemas/index.ts&#45;&gt;handlers/schemas/credentialHandlerConfig.schema.ts</title>
<path fill="none" stroke="#757575" d="M953.05,-285.28C976.25,-270.64 1018.89,-245.86 1059,-233.83 1066.97,-231.44 1075.21,-229.33 1083.58,-227.47"/>
<polygon fill="#757575" stroke="#757575" points="1084.4,-230.87 1093.47,-225.39 1082.96,-224.02 1084.4,-230.87"/>
</g>
<!-- handlers/schemas/locationHandlerConfig.schema.ts -->
<g id="node19" class="node">
<title>handlers/schemas/locationHandlerConfig.schema.ts</title>
<path fill="none" stroke="#cfffac" d="M1395.83,-307.33C1395.83,-307.33 1082.17,-307.33 1082.17,-307.33 1078.33,-307.33 1074.5,-303.49 1074.5,-299.66 1074.5,-299.66 1074.5,-291.99 1074.5,-291.99 1074.5,-288.16 1078.33,-284.33 1082.17,-284.33 1082.17,-284.33 1395.83,-284.33 1395.83,-284.33 1399.67,-284.33 1403.5,-288.16 1403.5,-291.99 1403.5,-291.99 1403.5,-299.66 1403.5,-299.66 1403.5,-303.49 1399.67,-307.33 1395.83,-307.33"/>
<text text-anchor="middle" x="1239" y="-292.13" font-family="Arial" font-size="14.00" fill="#cfffac">handlers/schemas/locationHandlerConfig.schema.ts</text>
</g>
<!-- handlers/schemas/index.ts&#45;&gt;handlers/schemas/locationHandlerConfig.schema.ts -->
<g id="edge37" class="edge">
<title>handlers/schemas/index.ts&#45;&gt;handlers/schemas/locationHandlerConfig.schema.ts</title>
<path fill="none" stroke="#757575" d="M1023.4,-296.53C1036.39,-296.49 1050.13,-296.45 1064.14,-296.4"/>
<polygon fill="#757575" stroke="#757575" points="1064.39,-299.9 1074.38,-296.37 1064.37,-292.9 1064.39,-299.9"/>
</g>
<!-- statements/locations/index.ts -->
<g id="node21" class="node">
<title>statements/locations/index.ts</title>
<path fill="none" stroke="#c6c5fe" d="M1326.83,-707.33C1326.83,-707.33 1151.17,-707.33 1151.17,-707.33 1147.33,-707.33 1143.5,-703.49 1143.5,-699.66 1143.5,-699.66 1143.5,-691.99 1143.5,-691.99 1143.5,-688.16 1147.33,-684.33 1151.17,-684.33 1151.17,-684.33 1326.83,-684.33 1326.83,-684.33 1330.67,-684.33 1334.5,-688.16 1334.5,-691.99 1334.5,-691.99 1334.5,-699.66 1334.5,-699.66 1334.5,-703.49 1330.67,-707.33 1326.83,-707.33"/>
<text text-anchor="middle" x="1239" y="-692.13" font-family="Arial" font-size="14.00" fill="#c6c5fe">statements/locations/index.ts</text>
</g>
<!-- statements/index.ts&#45;&gt;statements/locations/index.ts -->
<g id="edge44" class="edge">
<title>statements/index.ts&#45;&gt;statements/locations/index.ts</title>
<path fill="none" stroke="#757575" d="M1001.51,-680.97C1040.06,-683.39 1089.57,-686.5 1133.32,-689.25"/>
<polygon fill="#757575" stroke="#757575" points="1133.23,-692.75 1143.43,-689.89 1133.67,-685.77 1133.23,-692.75"/>
</g>
<!-- statements/resources/index.ts -->
<g id="node22" class="node">
<title>statements/resources/index.ts</title>
<path fill="none" stroke="#c6c5fe" d="M1966.33,-591.33C1966.33,-591.33 1784.67,-591.33 1784.67,-591.33 1780.83,-591.33 1777,-587.49 1777,-583.66 1777,-583.66 1777,-575.99 1777,-575.99 1777,-572.16 1780.83,-568.33 1784.67,-568.33 1784.67,-568.33 1966.33,-568.33 1966.33,-568.33 1970.17,-568.33 1974,-572.16 1974,-575.99 1974,-575.99 1974,-583.66 1974,-583.66 1974,-587.49 1970.17,-591.33 1966.33,-591.33"/>
<text text-anchor="middle" x="1875.5" y="-576.13" font-family="Arial" font-size="14.00" fill="#c6c5fe">statements/resources/index.ts</text>
</g>
<!-- statements/index.ts&#45;&gt;statements/resources/index.ts -->
<g id="edge45" class="edge">
<title>statements/index.ts&#45;&gt;statements/resources/index.ts</title>
<path fill="none" stroke="#757575" d="M1001.53,-670C1161.45,-653.48 1570.78,-611.2 1766.76,-590.95"/>
<polygon fill="#757575" stroke="#757575" points="1767.2,-594.43 1776.79,-589.92 1766.48,-587.47 1767.2,-594.43"/>
</g>
<!-- statements/tokens/index.ts -->
<g id="node23" class="node">
<title>statements/tokens/index.ts</title>
<path fill="none" stroke="#c6c5fe" d="M1956.33,-347.33C1956.33,-347.33 1794.67,-347.33 1794.67,-347.33 1790.83,-347.33 1787,-343.49 1787,-339.66 1787,-339.66 1787,-331.99 1787,-331.99 1787,-328.16 1790.83,-324.33 1794.67,-324.33 1794.67,-324.33 1956.33,-324.33 1956.33,-324.33 1960.17,-324.33 1964,-328.16 1964,-331.99 1964,-331.99 1964,-339.66 1964,-339.66 1964,-343.49 1960.17,-347.33 1956.33,-347.33"/>
<text text-anchor="middle" x="1875.5" y="-332.13" font-family="Arial" font-size="14.00" fill="#c6c5fe">statements/tokens/index.ts</text>
</g>
<!-- statements/index.ts&#45;&gt;statements/tokens/index.ts -->
<g id="edge46" class="edge">
<title>statements/index.ts&#45;&gt;statements/tokens/index.ts</title>
<path fill="none" stroke="#757575" d="M960.75,-665.3C985.5,-654.22 1024.44,-637.35 1059,-624.83 1356.13,-517.14 1450.14,-545.07 1739,-416.83 1779.73,-398.74 1823.39,-370.95 1849.82,-353.08"/>
<polygon fill="#757575" stroke="#757575" points="1851.82,-355.96 1858.1,-347.43 1847.87,-350.18 1851.82,-355.96"/>
</g>
<!-- statements/validations/index.ts -->
<g id="node24" class="node">
<title>statements/validations/index.ts</title>
<path fill="none" stroke="#c6c5fe" d="M1968.33,-747.33C1968.33,-747.33 1782.67,-747.33 1782.67,-747.33 1778.83,-747.33 1775,-743.49 1775,-739.66 1775,-739.66 1775,-731.99 1775,-731.99 1775,-728.16 1778.83,-724.33 1782.67,-724.33 1782.67,-724.33 1968.33,-724.33 1968.33,-724.33 1972.17,-724.33 1976,-728.16 1976,-731.99 1976,-731.99 1976,-739.66 1976,-739.66 1976,-743.49 1972.17,-747.33 1968.33,-747.33"/>
<text text-anchor="middle" x="1875.5" y="-732.13" font-family="Arial" font-size="14.00" fill="#c6c5fe">statements/validations/index.ts</text>
</g>
<!-- statements/index.ts&#45;&gt;statements/validations/index.ts -->
<g id="edge47" class="edge">
<title>statements/index.ts&#45;&gt;statements/validations/index.ts</title>
<path fill="none" stroke="#757575" d="M964.38,-688.49C989.05,-697.84 1025.73,-710.28 1059,-715.83 1308.64,-757.44 1607.13,-750.7 1764.63,-742.84"/>
<polygon fill="#757575" stroke="#757575" points="1764.99,-746.33 1774.79,-742.32 1764.63,-739.34 1764.99,-746.33"/>
</g>
<!-- handlers/credential.handler.ts&#45;&gt;config.ts -->
<g id="edge10" class="edge">
<title>handlers/credential.handler.ts&#45;&gt;config.ts</title>
<path fill="none" stroke="#757575" d="M747.99,-310.37C767.88,-314.66 790.03,-319.93 810,-325.83 839.51,-334.54 872.09,-346.79 896.38,-356.46"/>
<polygon fill="#757575" stroke="#757575" points="895.33,-359.81 905.92,-360.29 897.94,-353.32 895.33,-359.81"/>
</g>
<!-- handlers/credential.handler.ts&#45;&gt;resources.ts -->
<g id="edge13" class="edge">
<title>handlers/credential.handler.ts&#45;&gt;resources.ts</title>
<path fill="none" stroke="#757575" d="M698.02,-287.02C721.04,-260.81 780.81,-197.94 846,-170.83 933.91,-134.25 964.13,-155.98 1059,-147.83 1397.15,-118.76 2318.38,125.18 2585,-84.83 2634.53,-123.84 2656.98,-327.2 2663.16,-394.89"/>
<polygon fill="#757575" stroke="#757575" points="2659.7,-395.56 2664.07,-405.21 2666.68,-394.95 2659.7,-395.56"/>
</g>
<!-- handlers/credential.handler.ts&#45;&gt;errors.ts -->
<g id="edge11" class="edge">
<title>handlers/credential.handler.ts&#45;&gt;errors.ts</title>
<path fill="none" stroke="#757575" d="M710.16,-287.17C802.04,-240.54 1160.35,-75.43 1419,-192.83 1637.84,-292.15 1560.94,-490.58 1775,-599.83 1829.07,-627.42 2258.85,-641.66 2319,-649.83 2355.59,-654.79 2396.86,-662.37 2426.84,-668.23"/>
<polygon fill="#757575" stroke="#757575" points="2426.45,-671.72 2436.94,-670.23 2427.81,-664.85 2426.45,-671.72"/>
</g>
<!-- handlers/credential.handler.ts&#45;&gt;handlers/schemas/index.ts -->
<g id="edge12" class="edge">
<title>handlers/credential.handler.ts&#45;&gt;handlers/schemas/index.ts</title>
<path fill="none" stroke="#757575" d="M783.62,-298.05C800.73,-297.91 818.57,-297.76 835.74,-297.62"/>
<polygon fill="#757575" stroke="#757575" points="835.79,-301.12 845.76,-297.54 835.73,-294.12 835.79,-301.12"/>
</g>
<!-- handlers/credential.handler.ts&#45;&gt;statements/index.ts -->
<g id="edge14" class="edge">
<title>handlers/credential.handler.ts&#45;&gt;statements/index.ts</title>
<path fill="none" stroke="#757575" d="M696.56,-310.45C716.86,-338.16 769.29,-410.4 810,-472.83 852.98,-538.72 900.2,-619.19 921.68,-656.29"/>
<polygon fill="#757575" stroke="#757575" points="918.77,-658.25 926.8,-665.15 924.83,-654.74 918.77,-658.25"/>
</g>
<!-- handlers/location.handler.ts&#45;&gt;config.ts -->
<g id="edge18" class="edge">
<title>handlers/location.handler.ts&#45;&gt;config.ts</title>
<path fill="none" stroke="#757575" d="M440.96,-694.26C449.82,-655.68 483.88,-530.61 564,-472.83 654.02,-407.89 710.05,-478.09 810,-429.83 829.28,-420.52 827.29,-408.23 846,-397.83 859.84,-390.13 876.21,-384.47 891.02,-380.45"/>
<polygon fill="#757575" stroke="#757575" points="892.15,-383.77 900.98,-377.91 890.43,-376.99 892.15,-383.77"/>
</g>
<!-- handlers/location.handler.ts&#45;&gt;errors.ts -->
<g id="edge19" class="edge">
<title>handlers/location.handler.ts&#45;&gt;errors.ts</title>
<path fill="none" stroke="#757575" d="M443.32,-717.61C457.1,-749.84 499.88,-840.27 564,-887.83 702.47,-990.52 761.11,-1005.83 933.5,-1005.83 933.5,-1005.83 933.5,-1005.83 1240,-1005.83 1480.36,-1005.83 2120.96,-1067.02 2319,-930.83 2404.31,-872.16 2448.43,-747.75 2463.21,-698.01"/>
<polygon fill="#757575" stroke="#757575" points="2466.59,-698.91 2465.99,-688.33 2459.87,-696.97 2466.59,-698.91"/>
</g>
<!-- handlers/location.handler.ts&#45;&gt;handlers/schemas/index.ts -->
<g id="edge25" class="edge">
<title>handlers/location.handler.ts&#45;&gt;handlers/schemas/index.ts</title>
<path fill="none" stroke="#757575" d="M440.45,-694.24C448.09,-652.39 479.82,-507.43 564,-429.83 610.99,-386.51 787.31,-335.31 878.35,-311"/>
<polygon fill="#757575" stroke="#757575" points="879.44,-314.33 888.21,-308.38 877.65,-307.57 879.44,-314.33"/>
</g>
<!-- handlers/location/authorizationCode.ts -->
<g id="node12" class="node">
<title>handlers/location/authorizationCode.ts</title>
<path fill="none" stroke="#c6c5fe" d="M802.33,-807.33C802.33,-807.33 571.67,-807.33 571.67,-807.33 567.83,-807.33 564,-803.49 564,-799.66 564,-799.66 564,-791.99 564,-791.99 564,-788.16 567.83,-784.33 571.67,-784.33 571.67,-784.33 802.33,-784.33 802.33,-784.33 806.17,-784.33 810,-788.16 810,-791.99 810,-791.99 810,-799.66 810,-799.66 810,-803.49 806.17,-807.33 802.33,-807.33"/>
<text text-anchor="middle" x="687" y="-792.13" font-family="Arial" font-size="14.00" fill="#c6c5fe">handlers/location/authorizationCode.ts</text>
</g>
<!-- handlers/location.handler.ts&#45;&gt;handlers/location/authorizationCode.ts -->
<g id="edge20" class="edge">
<title>handlers/location.handler.ts&#45;&gt;handlers/location/authorizationCode.ts</title>
<path fill="none" stroke="#757575" d="M470.35,-717.41C514.81,-733.57 595.53,-762.93 644.6,-780.77"/>
<polygon fill="#757575" stroke="#757575" points="643.68,-784.16 654.27,-784.29 646.07,-777.58 643.68,-784.16"/>
</g>
<!-- handlers/location/credentialOffer.ts -->
<g id="node13" class="node">
<title>handlers/location/credentialOffer.ts</title>
<path fill="none" stroke="#c6c5fe" d="M791.83,-717.33C791.83,-717.33 582.17,-717.33 582.17,-717.33 578.33,-717.33 574.5,-713.49 574.5,-709.66 574.5,-709.66 574.5,-701.99 574.5,-701.99 574.5,-698.16 578.33,-694.33 582.17,-694.33 582.17,-694.33 791.83,-694.33 791.83,-694.33 795.67,-694.33 799.5,-698.16 799.5,-701.99 799.5,-701.99 799.5,-709.66 799.5,-709.66 799.5,-713.49 795.67,-717.33 791.83,-717.33"/>
<text text-anchor="middle" x="687" y="-702.13" font-family="Arial" font-size="14.00" fill="#c6c5fe">handlers/location/credentialOffer.ts</text>
</g>
<!-- handlers/location.handler.ts&#45;&gt;handlers/location/credentialOffer.ts -->
<g id="edge21" class="edge">
<title>handlers/location.handler.ts&#45;&gt;handlers/location/credentialOffer.ts</title>
<path fill="none" stroke="#757575" d="M528.2,-705.83C539.88,-705.83 551.99,-705.83 564.07,-705.83"/>
<polygon fill="#757575" stroke="#757575" points="564.21,-709.33 574.21,-705.83 564.21,-702.33 564.21,-709.33"/>
</g>
<!-- handlers/location/presentationRequest.ts -->
<g id="node14" class="node">
<title>handlers/location/presentationRequest.ts</title>
<path fill="none" stroke="#c6c5fe" d="M2288.33,-468.33C2288.33,-468.33 2042.67,-468.33 2042.67,-468.33 2038.83,-468.33 2035,-464.49 2035,-460.66 2035,-460.66 2035,-452.99 2035,-452.99 2035,-449.16 2038.83,-445.33 2042.67,-445.33 2042.67,-445.33 2288.33,-445.33 2288.33,-445.33 2292.17,-445.33 2296,-449.16 2296,-452.99 2296,-452.99 2296,-460.66 2296,-460.66 2296,-464.49 2292.17,-468.33 2288.33,-468.33"/>
<text text-anchor="middle" x="2165.5" y="-453.13" font-family="Arial" font-size="14.00" fill="#c6c5fe">handlers/location/presentationRequest.ts</text>
</g>
<!-- handlers/location.handler.ts&#45;&gt;handlers/location/presentationRequest.ts -->
<g id="edge22" class="edge">
<title>handlers/location.handler.ts&#45;&gt;handlers/location/presentationRequest.ts</title>
<path fill="none" stroke="#757575" d="M457.97,-694.08C522.91,-656.07 738.96,-538.83 933.5,-538.83 933.5,-538.83 933.5,-538.83 1598,-538.83 1784.05,-538.83 1827.76,-502.7 2012,-476.83 2028.91,-474.45 2046.89,-472.01 2064.34,-469.7"/>
<polygon fill="#757575" stroke="#757575" points="2065.1,-473.13 2074.55,-468.34 2064.18,-466.19 2065.1,-473.13"/>
</g>
<!-- handlers/location/presentationSuccess.ts -->
<g id="node15" class="node">
<title>handlers/location/presentationSuccess.ts</title>
<path fill="none" stroke="#c6c5fe" d="M1720.33,-977.33C1720.33,-977.33 1473.67,-977.33 1473.67,-977.33 1469.83,-977.33 1466,-973.49 1466,-969.66 1466,-969.66 1466,-961.99 1466,-961.99 1466,-958.16 1469.83,-954.33 1473.67,-954.33 1473.67,-954.33 1720.33,-954.33 1720.33,-954.33 1724.17,-954.33 1728,-958.16 1728,-961.99 1728,-961.99 1728,-969.66 1728,-969.66 1728,-973.49 1724.17,-977.33 1720.33,-977.33"/>
<text text-anchor="middle" x="1597" y="-962.13" font-family="Arial" font-size="14.00" fill="#c6c5fe">handlers/location/presentationSuccess.ts</text>
</g>
<!-- handlers/location.handler.ts&#45;&gt;handlers/location/presentationSuccess.ts -->
<g id="edge23" class="edge">
<title>handlers/location.handler.ts&#45;&gt;handlers/location/presentationSuccess.ts</title>
<path fill="none" stroke="#757575" d="M449.31,-717.41C469.94,-739.01 517.08,-785.95 564,-815.83 679.49,-889.36 712.52,-909.35 846,-939.83 1054.13,-987.34 1303.1,-984.68 1455.35,-976.61"/>
<polygon fill="#757575" stroke="#757575" points="1455.9,-980.09 1465.69,-976.05 1455.52,-973.1 1455.9,-980.09"/>
</g>
<!-- handlers/location/protocolError.ts -->
<g id="node16" class="node">
<title>handlers/location/protocolError.ts</title>
<path fill="none" stroke="#c6c5fe" d="M1696.33,-1057.33C1696.33,-1057.33 1497.67,-1057.33 1497.67,-1057.33 1493.83,-1057.33 1490,-1053.49 1490,-1049.66 1490,-1049.66 1490,-1041.99 1490,-1041.99 1490,-1038.16 1493.83,-1034.33 1497.67,-1034.33 1497.67,-1034.33 1696.33,-1034.33 1696.33,-1034.33 1700.17,-1034.33 1704,-1038.16 1704,-1041.99 1704,-1041.99 1704,-1049.66 1704,-1049.66 1704,-1053.49 1700.17,-1057.33 1696.33,-1057.33"/>
<text text-anchor="middle" x="1597" y="-1042.13" font-family="Arial" font-size="14.00" fill="#c6c5fe">handlers/location/protocolError.ts</text>
</g>
<!-- handlers/location.handler.ts&#45;&gt;handlers/location/protocolError.ts -->
<g id="edge24" class="edge">
<title>handlers/location.handler.ts&#45;&gt;handlers/location/protocolError.ts</title>
<path fill="none" stroke="#757575" d="M438.91,-717.35C441.28,-764.74 457.26,-945.56 564,-1019.83 637.54,-1070.99 1225.79,-1058.09 1479.84,-1049.99"/>
<polygon fill="#757575" stroke="#757575" points="1479.96,-1053.49 1489.84,-1049.67 1479.73,-1046.49 1479.96,-1053.49"/>
</g>
<!-- handlers/location/authorizationCode.ts&#45;&gt;resources.ts -->
<g id="edge27" class="edge">
<title>handlers/location/authorizationCode.ts&#45;&gt;resources.ts</title>
<path fill="none" stroke="#757575" d="M797.48,-807.34C801.76,-808.68 805.94,-810.17 810,-811.83 828.52,-819.37 827.39,-831.49 846,-838.83 934.58,-873.75 963.97,-855.87 1059,-861.83 1397.55,-883.05 2344.58,-1063.13 2585,-823.83 2640.22,-768.86 2659.25,-516.02 2663.81,-439.09"/>
<polygon fill="#757575" stroke="#757575" points="2667.33,-438.87 2664.4,-428.69 2660.34,-438.47 2667.33,-438.87"/>
</g>
<!-- handlers/location/authorizationCode.ts&#45;&gt;errors.ts -->
<g id="edge26" class="edge">
<title>handlers/location/authorizationCode.ts&#45;&gt;errors.ts</title>
<path fill="none" stroke="#757575" d="M784.75,-807.34C930.46,-824.51 1193.94,-854.83 1238,-854.83 1238,-854.83 1238,-854.83 1876.5,-854.83 2073.48,-854.83 2139.61,-911.2 2319,-829.83 2382.79,-800.89 2433.89,-731.75 2456.46,-697.2"/>
<polygon fill="#757575" stroke="#757575" points="2459.62,-698.74 2462.06,-688.43 2453.72,-694.98 2459.62,-698.74"/>
</g>
<!-- handlers/location/authorizationCode.ts&#45;&gt;statements/index.ts -->
<g id="edge28" class="edge">
<title>handlers/location/authorizationCode.ts&#45;&gt;statements/index.ts</title>
<path fill="none" stroke="#757575" d="M711.99,-784.2C756.08,-762.83 850.08,-717.26 900.28,-692.93"/>
<polygon fill="#757575" stroke="#757575" points="901.94,-696.01 909.42,-688.5 898.89,-689.71 901.94,-696.01"/>
</g>
<!-- handlers/location/credentialOffer.ts&#45;&gt;errors.ts -->
<g id="edge29" class="edge">
<title>handlers/location/credentialOffer.ts&#45;&gt;errors.ts</title>
<path fill="none" stroke="#757575" d="M721.32,-717.39C806.31,-745.82 1038.55,-816.83 1238,-816.83 1238,-816.83 1238,-816.83 1876.5,-816.83 2073.37,-816.83 2134.75,-866.17 2319,-796.83 2375.53,-775.55 2427.16,-724.31 2452.52,-696.16"/>
<polygon fill="#757575" stroke="#757575" points="2455.24,-698.36 2459.24,-688.55 2450,-693.72 2455.24,-698.36"/>
</g>
<!-- handlers/location/credentialOffer.ts&#45;&gt;statements/index.ts -->
<g id="edge30" class="edge">
<title>handlers/location/credentialOffer.ts&#45;&gt;statements/index.ts</title>
<path fill="none" stroke="#757575" d="M785.38,-694.32C809.18,-691.51 834.31,-688.54 856.98,-685.86"/>
<polygon fill="#757575" stroke="#757575" points="857.68,-689.31 867.2,-684.66 856.86,-682.35 857.68,-689.31"/>
</g>
<!-- handlers/location/presentationRequest.ts&#45;&gt;ports.ts -->
<g id="edge32" class="edge">
<title>handlers/location/presentationRequest.ts&#45;&gt;ports.ts</title>
<path fill="none" stroke="#757575" d="M2253.59,-445.31C2311.44,-437.66 2384.66,-427.98 2429.11,-422.1"/>
<polygon fill="#757575" stroke="#757575" points="2429.76,-425.54 2439.22,-420.76 2428.85,-418.6 2429.76,-425.54"/>
</g>
<!-- handlers/location/presentationRequest.ts&#45;&gt;errors.ts -->
<g id="edge31" class="edge">
<title>handlers/location/presentationRequest.ts&#45;&gt;errors.ts</title>
<path fill="none" stroke="#757575" d="M2296.27,-466.34C2304.2,-469.19 2311.85,-472.65 2319,-476.83 2392.39,-519.71 2441.28,-614.04 2460.2,-655.99"/>
<polygon fill="#757575" stroke="#757575" points="2457.04,-657.5 2464.27,-665.25 2463.45,-654.68 2457.04,-657.5"/>
</g>
<!-- handlers/location/presentationSuccess.ts&#45;&gt;errors.ts -->
<g id="edge33" class="edge">
<title>handlers/location/presentationSuccess.ts&#45;&gt;errors.ts</title>
<path fill="none" stroke="#757575" d="M1728.07,-976.67C1880.06,-983.23 2134.25,-974.77 2319,-868.83 2390.38,-827.89 2439.89,-738.32 2459.55,-697.65"/>
<polygon fill="#757575" stroke="#757575" points="2462.8,-698.96 2463.9,-688.42 2456.47,-695.97 2462.8,-698.96"/>
</g>
<!-- handlers/location/protocolError.ts&#45;&gt;errors.ts -->
<g id="edge34" class="edge">
<title>handlers/location/protocolError.ts&#45;&gt;errors.ts</title>
<path fill="none" stroke="#757575" d="M1704.03,-1055.57C1879.81,-1069.55 2221.83,-1086.89 2319,-1020.83 2432.11,-943.92 2460.58,-761.81 2467.16,-698.76"/>
<polygon fill="#757575" stroke="#757575" points="2470.68,-698.72 2468.15,-688.43 2463.72,-698.05 2470.68,-698.72"/>
</g>
<!-- index.ts -->
<g id="node20" class="node">
<title>index.ts</title>
<path fill="none" stroke="#c6c5fe" d="M55.33,-389.33C55.33,-389.33 7.67,-389.33 7.67,-389.33 3.83,-389.33 0,-385.49 0,-381.66 0,-381.66 0,-373.99 0,-373.99 0,-370.16 3.83,-366.33 7.67,-366.33 7.67,-366.33 55.33,-366.33 55.33,-366.33 59.17,-366.33 63,-370.16 63,-373.99 63,-373.99 63,-381.66 63,-381.66 63,-385.49 59.17,-389.33 55.33,-389.33"/>
<text text-anchor="middle" x="31.5" y="-374.13" font-family="Arial" font-size="14.00" fill="#c6c5fe">index.ts</text>
</g>
<!-- index.ts&#45;&gt;config.ts -->
<g id="edge38" class="edge">
<title>index.ts&#45;&gt;config.ts</title>
<path fill="none" stroke="#757575" d="M63.19,-377.83C105.39,-377.83 183.7,-377.83 250.5,-377.83 250.5,-377.83 250.5,-377.83 438.5,-377.83 605.77,-377.83 804.82,-374.36 890.64,-372.69"/>
<polygon fill="#757575" stroke="#757575" points="890.85,-376.19 900.78,-372.5 890.71,-369.19 890.85,-376.19"/>
</g>
<!-- index.ts&#45;&gt;ports.ts -->
<g id="edge41" class="edge">
<title>index.ts&#45;&gt;ports.ts</title>
<path fill="none" stroke="#757575" d="M35.31,-366.15C48.81,-313.16 112.19,-97.83 250.5,-97.83 250.5,-97.83 250.5,-97.83 688,-97.83 819.63,-97.83 2312.65,-209.83 2319,-213.83 2346.28,-231.02 2336.76,-250.23 2355,-276.83 2386.04,-322.07 2427.93,-370.9 2451.32,-397.26"/>
<polygon fill="#757575" stroke="#757575" points="2448.96,-399.86 2458.23,-404.99 2454.18,-395.2 2448.96,-399.86"/>
</g>
<!-- index.ts&#45;&gt;resources.ts -->
<g id="edge42" class="edge">
<title>index.ts&#45;&gt;resources.ts</title>
<path fill="none" stroke="#757575" d="M32.21,-389.37C31.06,-448.09 29.92,-718.95 99,-924.83 134.36,-1030.21 139.34,-1123.83 250.5,-1123.83 250.5,-1123.83 250.5,-1123.83 2166.5,-1123.83 2380.04,-1123.83 2474.12,-1070.32 2585,-887.83 2632.15,-810.23 2657.16,-520.87 2663.42,-438.71"/>
<polygon fill="#757575" stroke="#757575" points="2666.91,-438.96 2664.16,-428.73 2659.93,-438.44 2666.91,-438.96"/>
</g>
<!-- index.ts&#45;&gt;core.ts -->
<g id="edge39" class="edge">
<title>index.ts&#45;&gt;core.ts</title>
<path fill="none" stroke="#757575" d="M59.69,-366.26C69.14,-362.23 79.9,-357.66 89.98,-353.37"/>
<polygon fill="#757575" stroke="#757575" points="91.54,-356.51 99.37,-349.37 88.8,-350.06 91.54,-356.51"/>
</g>
<!-- index.ts&#45;&gt;errors.ts -->
<g id="edge40" class="edge">
<title>index.ts&#45;&gt;errors.ts</title>
<path fill="none" stroke="#757575" d="M33.45,-389.52C41.28,-481.58 98.42,-1085.83 250.5,-1085.83 250.5,-1085.83 250.5,-1085.83 1876.5,-1085.83 1975.03,-1085.83 2239.35,-1115.83 2319,-1057.83 2440.95,-969.01 2463.79,-765.61 2468.04,-698.65"/>
<polygon fill="#757575" stroke="#757575" points="2471.55,-698.62 2468.61,-688.44 2464.56,-698.23 2471.55,-698.62"/>
</g>
<!-- statements/locations/fetchAuthorizationUrl.ts -->
<g id="node25" class="node">
<title>statements/locations/fetchAuthorizationUrl.ts</title>
<path fill="none" stroke="#c6c5fe" d="M1731.33,-707.33C1731.33,-707.33 1462.67,-707.33 1462.67,-707.33 1458.83,-707.33 1455,-703.49 1455,-699.66 1455,-699.66 1455,-691.99 1455,-691.99 1455,-688.16 1458.83,-684.33 1462.67,-684.33 1462.67,-684.33 1731.33,-684.33 1731.33,-684.33 1735.17,-684.33 1739,-688.16 1739,-691.99 1739,-691.99 1739,-699.66 1739,-699.66 1739,-703.49 1735.17,-707.33 1731.33,-707.33"/>
<text text-anchor="middle" x="1597" y="-692.13" font-family="Arial" font-size="14.00" fill="#c6c5fe">statements/locations/fetchAuthorizationUrl.ts</text>
</g>
<!-- statements/locations/index.ts&#45;&gt;statements/locations/fetchAuthorizationUrl.ts -->
<g id="edge52" class="edge">
<title>statements/locations/index.ts&#45;&gt;statements/locations/fetchAuthorizationUrl.ts</title>
<path fill="none" stroke="#757575" d="M1334.93,-695.83C1368.54,-695.83 1407.24,-695.83 1444.37,-695.83"/>
<polygon fill="#757575" stroke="#757575" points="1444.8,-699.33 1454.8,-695.83 1444.8,-692.33 1444.8,-699.33"/>
</g>
<!-- statements/resources/clientState.ts -->
<g id="node26" class="node">
<title>statements/resources/clientState.ts</title>
<path fill="none" stroke="#c6c5fe" d="M2271.33,-550.33C2271.33,-550.33 2059.67,-550.33 2059.67,-550.33 2055.83,-550.33 2052,-546.49 2052,-542.66 2052,-542.66 2052,-534.99 2052,-534.99 2052,-531.16 2055.83,-527.33 2059.67,-527.33 2059.67,-527.33 2271.33,-527.33 2271.33,-527.33 2275.17,-527.33 2279,-531.16 2279,-534.99 2279,-534.99 2279,-542.66 2279,-542.66 2279,-546.49 2275.17,-550.33 2271.33,-550.33"/>
<text text-anchor="middle" x="2165.5" y="-535.13" font-family="Arial" font-size="14.00" fill="#c6c5fe">statements/resources/clientState.ts</text>
</g>
<!-- statements/resources/index.ts&#45;&gt;statements/resources/clientState.ts -->
<g id="edge59" class="edge">
<title>statements/resources/index.ts&#45;&gt;statements/resources/clientState.ts</title>
<path fill="none" stroke="#757575" d="M1948.88,-568.29C1969.28,-565.12 1991.5,-561.76 2012,-558.83 2028.68,-556.44 2046.41,-554.01 2063.65,-551.71"/>
<polygon fill="#757575" stroke="#757575" points="2064.28,-555.16 2073.73,-550.38 2063.36,-548.22 2064.28,-555.16"/>
</g>
<!-- statements/resources/fetchIssuerMetadata.ts -->
<g id="node27" class="node">
<title>statements/resources/fetchIssuerMetadata.ts</title>
<path fill="none" stroke="#c6c5fe" d="M2301.33,-509.33C2301.33,-509.33 2029.67,-509.33 2029.67,-509.33 2025.83,-509.33 2022,-505.49 2022,-501.66 2022,-501.66 2022,-493.99 2022,-493.99 2022,-490.16 2025.83,-486.33 2029.67,-486.33 2029.67,-486.33 2301.33,-486.33 2301.33,-486.33 2305.17,-486.33 2309,-490.16 2309,-493.99 2309,-493.99 2309,-501.66 2309,-501.66 2309,-505.49 2305.17,-509.33 2301.33,-509.33"/>
<text text-anchor="middle" x="2165.5" y="-494.13" font-family="Arial" font-size="14.00" fill="#c6c5fe">statements/resources/fetchIssuerMetadata.ts</text>
</g>
<!-- statements/resources/index.ts&#45;&gt;statements/resources/fetchIssuerMetadata.ts -->
<g id="edge60" class="edge">
<title>statements/resources/index.ts&#45;&gt;statements/resources/fetchIssuerMetadata.ts</title>
<path fill="none" stroke="#757575" d="M1938.16,-568.31C1951.15,-564.48 1964.42,-559.43 1976,-552.83 1995.39,-541.77 1991.91,-527.55 2012,-517.83 2015.79,-515.99 2019.68,-514.31 2023.66,-512.77"/>
<polygon fill="#757575" stroke="#757575" points="2024.84,-516.06 2033.09,-509.41 2022.49,-509.47 2024.84,-516.06"/>
</g>
<!-- statements/resources/issuerClient.ts -->
<g id="node28" class="node">
<title>statements/resources/issuerClient.ts</title>
<path fill="none" stroke="#c6c5fe" d="M2275.33,-591.33C2275.33,-591.33 2055.67,-591.33 2055.67,-591.33 2051.83,-591.33 2048,-587.49 2048,-583.66 2048,-583.66 2048,-575.99 2048,-575.99 2048,-572.16 2051.83,-568.33 2055.67,-568.33 2055.67,-568.33 2275.33,-568.33 2275.33,-568.33 2279.17,-568.33 2283,-572.16 2283,-575.99 2283,-575.99 2283,-583.66 2283,-583.66 2283,-587.49 2279.17,-591.33 2275.33,-591.33"/>
<text text-anchor="middle" x="2165.5" y="-576.13" font-family="Arial" font-size="14.00" fill="#c6c5fe">statements/resources/issuerClient.ts</text>
</g>
<!-- statements/resources/index.ts&#45;&gt;statements/resources/issuerClient.ts -->
<g id="edge61" class="edge">
<title>statements/resources/index.ts&#45;&gt;statements/resources/issuerClient.ts</title>
<path fill="none" stroke="#757575" d="M1974,-579.83C1994.5,-579.83 2016.41,-579.83 2037.8,-579.83"/>
<polygon fill="#757575" stroke="#757575" points="2037.91,-583.33 2047.91,-579.83 2037.91,-576.33 2037.91,-583.33"/>
</g>
<!-- statements/tokens/fetchAccessToken.ts -->
<g id="node29" class="node">
<title>statements/tokens/fetchAccessToken.ts</title>
<path fill="none" stroke="#c6c5fe" d="M2284.83,-347.33C2284.83,-347.33 2046.17,-347.33 2046.17,-347.33 2042.33,-347.33 2038.5,-343.49 2038.5,-339.66 2038.5,-339.66 2038.5,-331.99 2038.5,-331.99 2038.5,-328.16 2042.33,-324.33 2046.17,-324.33 2046.17,-324.33 2284.83,-324.33 2284.83,-324.33 2288.67,-324.33 2292.5,-328.16 2292.5,-331.99 2292.5,-331.99 2292.5,-339.66 2292.5,-339.66 2292.5,-343.49 2288.67,-347.33 2284.83,-347.33"/>
<text text-anchor="middle" x="2165.5" y="-332.13" font-family="Arial" font-size="14.00" fill="#c6c5fe">statements/tokens/fetchAccessToken.ts</text>
</g>
<!-- statements/tokens/index.ts&#45;&gt;statements/tokens/fetchAccessToken.ts -->
<g id="edge74" class="edge">
<title>statements/tokens/index.ts&#45;&gt;statements/tokens/fetchAccessToken.ts</title>
<path fill="none" stroke="#757575" d="M1964.08,-335.83C1984.39,-335.83 2006.47,-335.83 2028.32,-335.83"/>
<polygon fill="#757575" stroke="#757575" points="2028.33,-339.33 2038.33,-335.83 2028.33,-332.33 2028.33,-339.33"/>
</g>
<!-- statements/tokens/fetchCredentials.ts -->
<g id="node30" class="node">
<title>statements/tokens/fetchCredentials.ts</title>
<path fill="none" stroke="#c6c5fe" d="M2278.83,-306.33C2278.83,-306.33 2052.17,-306.33 2052.17,-306.33 2048.33,-306.33 2044.5,-302.49 2044.5,-298.66 2044.5,-298.66 2044.5,-290.99 2044.5,-290.99 2044.5,-287.16 2048.33,-283.33 2052.17,-283.33 2052.17,-283.33 2278.83,-283.33 2278.83,-283.33 2282.67,-283.33 2286.5,-287.16 2286.5,-290.99 2286.5,-290.99 2286.5,-298.66 2286.5,-298.66 2286.5,-302.49 2282.67,-306.33 2278.83,-306.33"/>
<text text-anchor="middle" x="2165.5" y="-291.13" font-family="Arial" font-size="14.00" fill="#c6c5fe">statements/tokens/fetchCredentials.ts</text>
</g>
<!-- statements/tokens/index.ts&#45;&gt;statements/tokens/fetchCredentials.ts -->
<g id="edge75" class="edge">
<title>statements/tokens/index.ts&#45;&gt;statements/tokens/fetchCredentials.ts</title>
<path fill="none" stroke="#757575" d="M1948.88,-324.29C1969.28,-321.12 1991.5,-317.76 2012,-314.83 2028.68,-312.44 2046.41,-310.01 2063.65,-307.71"/>
<polygon fill="#757575" stroke="#757575" points="2064.28,-311.16 2073.73,-306.38 2063.36,-304.22 2064.28,-311.16"/>
</g>
<!-- statements/tokens/fetchNonce.ts -->
<g id="node31" class="node">
<title>statements/tokens/fetchNonce.ts</title>
<path fill="none" stroke="#c6c5fe" d="M2264.33,-388.33C2264.33,-388.33 2066.67,-388.33 2066.67,-388.33 2062.83,-388.33 2059,-384.49 2059,-380.66 2059,-380.66 2059,-372.99 2059,-372.99 2059,-369.16 2062.83,-365.33 2066.67,-365.33 2066.67,-365.33 2264.33,-365.33 2264.33,-365.33 2268.17,-365.33 2272,-369.16 2272,-372.99 2272,-372.99 2272,-380.66 2272,-380.66 2272,-384.49 2268.17,-388.33 2264.33,-388.33"/>
<text text-anchor="middle" x="2165.5" y="-373.13" font-family="Arial" font-size="14.00" fill="#c6c5fe">statements/tokens/fetchNonce.ts</text>
</g>
<!-- statements/tokens/index.ts&#45;&gt;statements/tokens/fetchNonce.ts -->
<g id="edge76" class="edge">
<title>statements/tokens/index.ts&#45;&gt;statements/tokens/fetchNonce.ts</title>
<path fill="none" stroke="#757575" d="M1953.87,-347.38C1972.87,-350.18 1993.17,-353.14 2012,-355.83 2030.7,-358.49 2050.7,-361.29 2069.85,-363.94"/>
<polygon fill="#757575" stroke="#757575" points="2069.4,-367.41 2079.78,-365.31 2070.36,-360.47 2069.4,-367.41"/>
</g>
<!-- statements/tokens/generateDpop.ts -->
<g id="node32" class="node">
<title>statements/tokens/generateDpop.ts</title>
<path fill="none" stroke="#c6c5fe" d="M2577.33,-268.33C2577.33,-268.33 2362.67,-268.33 2362.67,-268.33 2358.83,-268.33 2355,-264.49 2355,-260.66 2355,-260.66 2355,-252.99 2355,-252.99 2355,-249.16 2358.83,-245.33 2362.67,-245.33 2362.67,-245.33 2577.33,-245.33 2577.33,-245.33 2581.17,-245.33 2585,-249.16 2585,-252.99 2585,-252.99 2585,-260.66 2585,-260.66 2585,-264.49 2581.17,-268.33 2577.33,-268.33"/>
<text text-anchor="middle" x="2470" y="-253.13" font-family="Arial" font-size="14.00" fill="#c6c5fe">statements/tokens/generateDpop.ts</text>
</g>
<!-- statements/tokens/index.ts&#45;&gt;statements/tokens/generateDpop.ts -->
<g id="edge77" class="edge">
<title>statements/tokens/index.ts&#45;&gt;statements/tokens/generateDpop.ts</title>
<path fill="none" stroke="#757575" d="M1895.38,-324.27C1920.81,-309.42 1967.95,-284.29 2012,-273.83 2122.31,-247.63 2251.75,-245.37 2344.65,-248.49"/>
<polygon fill="#757575" stroke="#757575" points="2344.54,-251.99 2354.66,-248.85 2344.79,-244.99 2344.54,-251.99"/>
</g>
<!-- statements/validations/validateCredentialOffer.ts -->
<g id="node33" class="node">
<title>statements/validations/validateCredentialOffer.ts</title>
<path fill="none" stroke="#c6c5fe" d="M2311.33,-747.33C2311.33,-747.33 2019.67,-747.33 2019.67,-747.33 2015.83,-747.33 2012,-743.49 2012,-739.66 2012,-739.66 2012,-731.99 2012,-731.99 2012,-728.16 2015.83,-724.33 2019.67,-724.33 2019.67,-724.33 2311.33,-724.33 2311.33,-724.33 2315.17,-724.33 2319,-728.16 2319,-731.99 2319,-731.99 2319,-739.66 2319,-739.66 2319,-743.49 2315.17,-747.33 2311.33,-747.33"/>
<text text-anchor="middle" x="2165.5" y="-732.13" font-family="Arial" font-size="14.00" fill="#c6c5fe">statements/validations/validateCredentialOffer.ts</text>
</g>
<!-- statements/validations/index.ts&#45;&gt;statements/validations/validateCredentialOffer.ts -->
<g id="edge78" class="edge">
<title>statements/validations/index.ts&#45;&gt;statements/validations/validateCredentialOffer.ts</title>
<path fill="none" stroke="#757575" d="M1976.02,-735.83C1984.37,-735.83 1992.95,-735.83 2001.62,-735.83"/>
<polygon fill="#757575" stroke="#757575" points="2001.83,-739.33 2011.83,-735.83 2001.83,-732.33 2001.83,-739.33"/>
</g>
<!-- statements/validations/validateGrants.ts -->
<g id="node34" class="node">
<title>statements/validations/validateGrants.ts</title>
<path fill="none" stroke="#c6c5fe" d="M2286.33,-788.33C2286.33,-788.33 2044.67,-788.33 2044.67,-788.33 2040.83,-788.33 2037,-784.49 2037,-780.66 2037,-780.66 2037,-772.99 2037,-772.99 2037,-769.16 2040.83,-765.33 2044.67,-765.33 2044.67,-765.33 2286.33,-765.33 2286.33,-765.33 2290.17,-765.33 2294,-769.16 2294,-772.99 2294,-772.99 2294,-780.66 2294,-780.66 2294,-784.49 2290.17,-788.33 2286.33,-788.33"/>
<text text-anchor="middle" x="2165.5" y="-773.13" font-family="Arial" font-size="14.00" fill="#c6c5fe">statements/validations/validateGrants.ts</text>
</g>
<!-- statements/validations/index.ts&#45;&gt;statements/validations/validateGrants.ts -->
<g id="edge79" class="edge">
<title>statements/validations/index.ts&#45;&gt;statements/validations/validateGrants.ts</title>
<path fill="none" stroke="#757575" d="M1953.87,-747.38C1972.87,-750.18 1993.17,-753.14 2012,-755.83 2030.7,-758.49 2050.7,-761.29 2069.85,-763.94"/>
<polygon fill="#757575" stroke="#757575" points="2069.4,-767.41 2079.78,-765.31 2070.36,-760.47 2069.4,-767.41"/>
</g>
<!-- statements/locations/fetchAuthorizationUrl.ts&#45;&gt;ports.ts -->
<g id="edge49" class="edge">
<title>statements/locations/fetchAuthorizationUrl.ts&#45;&gt;ports.ts</title>
<path fill="none" stroke="#757575" d="M1614.93,-684.21C1641.85,-665.56 1695.79,-627.4 1739,-591.83 1755.76,-578.03 1757.21,-571.27 1775,-558.83 1872.25,-490.81 1897.32,-466.35 2012,-435.83 2161.82,-395.95 2348.92,-405.84 2429.3,-412.79"/>
<polygon fill="#757575" stroke="#757575" points="2429.2,-416.29 2439.47,-413.7 2429.82,-409.32 2429.2,-416.29"/>
</g>
<!-- statements/locations/fetchAuthorizationUrl.ts&#45;&gt;resources.ts -->
<g id="edge50" class="edge">
<title>statements/locations/fetchAuthorizationUrl.ts&#45;&gt;resources.ts</title>
<path fill="none" stroke="#757575" d="M1620.54,-707.34C1739.31,-766.23 2297.96,-1020.89 2585,-754.83 2632.03,-711.23 2656.14,-506.76 2662.94,-438.83"/>
<polygon fill="#757575" stroke="#757575" points="2666.47,-438.76 2663.95,-428.47 2659.5,-438.08 2666.47,-438.76"/>
</g>
<!-- statements/locations/fetchAuthorizationUrl.ts&#45;&gt;errors.ts -->
<g id="edge48" class="edge">
<title>statements/locations/fetchAuthorizationUrl.ts&#45;&gt;errors.ts</title>
<path fill="none" stroke="#757575" d="M1739.39,-692.74C1941.85,-688.32 2303.5,-680.44 2426.61,-677.75"/>
<polygon fill="#757575" stroke="#757575" points="2426.84,-681.25 2436.76,-677.53 2426.69,-674.25 2426.84,-681.25"/>
</g>
<!-- statements/locations/fetchAuthorizationUrl.ts&#45;&gt;statements/resources/index.ts -->
<g id="edge51" class="edge">
<title>statements/locations/fetchAuthorizationUrl.ts&#45;&gt;statements/resources/index.ts</title>
<path fill="none" stroke="#757575" d="M1625.52,-684.28C1675.49,-663.31 1781.17,-618.98 1837.43,-595.38"/>
<polygon fill="#757575" stroke="#757575" points="1838.81,-598.59 1846.68,-591.5 1836.1,-592.14 1838.81,-598.59"/>
</g>
<!-- statements/resources/clientState.ts&#45;&gt;ports.ts -->
<g id="edge54" class="edge">
<title>statements/resources/clientState.ts&#45;&gt;ports.ts</title>
<path fill="none" stroke="#757575" d="M2279.16,-529.26C2292.82,-526.37 2306.39,-522.64 2319,-517.83 2370.03,-498.34 2420.99,-458.68 2448.4,-435.28"/>
<polygon fill="#757575" stroke="#757575" points="2450.86,-437.77 2456.12,-428.58 2446.27,-432.49 2450.86,-437.77"/>
</g>
<!-- statements/resources/clientState.ts&#45;&gt;resources.ts -->
<g id="edge55" class="edge">
<title>statements/resources/clientState.ts&#45;&gt;resources.ts</title>
<path fill="none" stroke="#757575" d="M2279.32,-533.52C2365.65,-526.35 2486.26,-509.47 2585,-469.83 2606.2,-461.31 2627.63,-446.72 2642.97,-435"/>
<polygon fill="#757575" stroke="#757575" points="2645.55,-437.42 2651.25,-428.5 2641.23,-431.92 2645.55,-437.42"/>
</g>
<!-- statements/resources/clientState.ts&#45;&gt;errors.ts -->
<g id="edge53" class="edge">
<title>statements/resources/clientState.ts&#45;&gt;errors.ts</title>
<path fill="none" stroke="#757575" d="M2279.11,-546.59C2292.85,-549.57 2306.45,-553.54 2319,-558.83 2374.03,-581.99 2425.92,-631.02 2451.81,-658.01"/>
<polygon fill="#757575" stroke="#757575" points="2449.29,-660.44 2458.7,-665.32 2454.39,-655.64 2449.29,-660.44"/>
</g>
<!-- statements/resources/fetchIssuerMetadata.ts&#45;&gt;ports.ts -->
<g id="edge57" class="edge">
<title>statements/resources/fetchIssuerMetadata.ts&#45;&gt;ports.ts</title>
<path fill="none" stroke="#757575" d="M2274.63,-486.27C2289.65,-483.7 2304.79,-480.59 2319,-476.83 2330.36,-473.82 2391.11,-449.04 2431.73,-432.28"/>
<polygon fill="#757575" stroke="#757575" points="2433.17,-435.47 2441.08,-428.42 2430.5,-429.01 2433.17,-435.47"/>
</g>
<!-- statements/resources/fetchIssuerMetadata.ts&#45;&gt;resources.ts -->
<g id="edge58" class="edge">
<title>statements/resources/fetchIssuerMetadata.ts&#45;&gt;resources.ts</title>
<path fill="none" stroke="#757575" d="M2265.93,-486.31C2351.04,-475.75 2476.64,-458.47 2585,-436.83 2593.77,-435.07 2603.03,-432.99 2612.01,-430.83"/>
<polygon fill="#757575" stroke="#757575" points="2613.11,-434.16 2621.99,-428.38 2611.45,-427.36 2613.11,-434.16"/>
</g>
<!-- statements/resources/fetchIssuerMetadata.ts&#45;&gt;errors.ts -->
<g id="edge56" class="edge">
<title>statements/resources/fetchIssuerMetadata.ts&#45;&gt;errors.ts</title>
<path fill="none" stroke="#757575" d="M2298.86,-509.33C2305.82,-511.73 2312.58,-514.54 2319,-517.83 2382.63,-550.34 2433.81,-621.05 2456.43,-656.17"/>
<polygon fill="#757575" stroke="#757575" points="2453.74,-658.48 2462.04,-665.07 2459.67,-654.74 2453.74,-658.48"/>
</g>
<!-- statements/resources/issuerClient.ts&#45;&gt;resources.ts -->
<g id="edge63" class="edge">
<title>statements/resources/issuerClient.ts&#45;&gt;resources.ts</title>
<path fill="none" stroke="#757575" d="M2283.07,-582.59C2371.39,-579.76 2492.85,-564.94 2585,-511.83 2615.92,-494 2640.3,-459.52 2653.67,-437.36"/>
<polygon fill="#757575" stroke="#757575" points="2656.86,-438.84 2658.87,-428.43 2650.81,-435.31 2656.86,-438.84"/>
</g>
<!-- statements/resources/issuerClient.ts&#45;&gt;errors.ts -->
<g id="edge62" class="edge">
<title>statements/resources/issuerClient.ts&#45;&gt;errors.ts</title>
<path fill="none" stroke="#757575" d="M2258.59,-591.35C2278.75,-595.03 2299.79,-599.77 2319,-605.83 2362.89,-619.66 2410.4,-643.87 2439.93,-660.12"/>
<polygon fill="#757575" stroke="#757575" points="2438.42,-663.29 2448.86,-665.1 2441.82,-657.17 2438.42,-663.29"/>
</g>
<!-- statements/tokens/fetchAccessToken.ts&#45;&gt;ports.ts -->
<g id="edge65" class="edge">
<title>statements/tokens/fetchAccessToken.ts&#45;&gt;ports.ts</title>
<path fill="none" stroke="#757575" d="M2279.56,-347.35C2292.96,-349.69 2306.35,-352.48 2319,-355.83 2361.06,-366.94 2407.08,-386.91 2436.91,-400.96"/>
<polygon fill="#757575" stroke="#757575" points="2435.46,-404.15 2446,-405.3 2438.48,-397.83 2435.46,-404.15"/>
</g>
<!-- statements/tokens/fetchAccessToken.ts&#45;&gt;resources.ts -->
<g id="edge66" class="edge">
<title>statements/tokens/fetchAccessToken.ts&#45;&gt;resources.ts</title>
<path fill="none" stroke="#757575" d="M2292.59,-334.2C2376.98,-336.27 2489.63,-345.17 2585,-373.83 2604.38,-379.65 2624.44,-390.44 2639.62,-399.76"/>
<polygon fill="#757575" stroke="#757575" points="2638.08,-402.92 2648.4,-405.31 2641.82,-397.01 2638.08,-402.92"/>
</g>
<!-- statements/tokens/fetchAccessToken.ts&#45;&gt;errors.ts -->
<g id="edge64" class="edge">
<title>statements/tokens/fetchAccessToken.ts&#45;&gt;errors.ts</title>
<path fill="none" stroke="#757575" d="M2292.61,-341.57C2302.03,-345.17 2310.98,-349.83 2319,-355.83 2350.56,-379.4 2338.55,-401.03 2355,-436.83 2392.37,-518.14 2438.57,-614.04 2458.76,-655.72"/>
<polygon fill="#757575" stroke="#757575" points="2455.69,-657.42 2463.2,-664.89 2461.99,-654.36 2455.69,-657.42"/>
</g>
<!-- statements/tokens/fetchCredentials.ts&#45;&gt;ports.ts -->
<g id="edge68" class="edge">
<title>statements/tokens/fetchCredentials.ts&#45;&gt;ports.ts</title>
<path fill="none" stroke="#757575" d="M2286.87,-305.21C2297.9,-307.77 2308.77,-310.93 2319,-314.83 2370.48,-334.42 2421.63,-374.86 2448.88,-398.5"/>
<polygon fill="#757575" stroke="#757575" points="2446.72,-401.27 2456.54,-405.26 2451.35,-396.02 2446.72,-401.27"/>
</g>
<!-- statements/tokens/fetchCredentials.ts&#45;&gt;resources.ts -->
<g id="edge69" class="edge">
<title>statements/tokens/fetchCredentials.ts&#45;&gt;resources.ts</title>
<path fill="none" stroke="#757575" d="M2286.93,-284.39C2373.91,-281.87 2491.95,-289.07 2585,-333.83 2614.09,-347.82 2638.28,-377.13 2652.2,-396.9"/>
<polygon fill="#757575" stroke="#757575" points="2649.34,-398.91 2657.85,-405.22 2655.13,-394.98 2649.34,-398.91"/>
</g>
<!-- statements/tokens/fetchCredentials.ts&#45;&gt;errors.ts -->
<g id="edge67" class="edge">
<title>statements/tokens/fetchCredentials.ts&#45;&gt;errors.ts</title>
<path fill="none" stroke="#757575" d="M2286.77,-296.88C2298.52,-300.96 2309.56,-306.76 2319,-314.83 2361.98,-351.55 2334.81,-384.02 2355,-436.83 2386.96,-520.41 2435.95,-615.14 2457.8,-656.12"/>
<polygon fill="#757575" stroke="#757575" points="2454.82,-657.97 2462.63,-665.13 2460.99,-654.66 2454.82,-657.97"/>
</g>
<!-- statements/tokens/fetchNonce.ts&#45;&gt;ports.ts -->
<g id="edge71" class="edge">
<title>statements/tokens/fetchNonce.ts&#45;&gt;ports.ts</title>
<path fill="none" stroke="#757575" d="M2253.59,-388.34C2311.44,-395.99 2384.66,-405.67 2429.11,-411.55"/>
<polygon fill="#757575" stroke="#757575" points="2428.85,-415.05 2439.22,-412.89 2429.76,-408.11 2428.85,-415.05"/>
</g>
<!-- statements/tokens/fetchNonce.ts&#45;&gt;resources.ts -->
<g id="edge72" class="edge">
<title>statements/tokens/fetchNonce.ts&#45;&gt;resources.ts</title>
<path fill="none" stroke="#757575" d="M2272.02,-375.48C2357,-375.86 2479.3,-379.74 2585,-395.83 2595.65,-397.45 2606.93,-399.92 2617.55,-402.61"/>
<polygon fill="#757575" stroke="#757575" points="2616.93,-406.07 2627.5,-405.23 2618.72,-399.3 2616.93,-406.07"/>
</g>
<!-- statements/tokens/fetchNonce.ts&#45;&gt;errors.ts -->
<g id="edge70" class="edge">
<title>statements/tokens/fetchNonce.ts&#45;&gt;errors.ts</title>
<path fill="none" stroke="#757575" d="M2219.94,-388.43C2251.39,-397.33 2290.47,-412.2 2319,-435.83 2394.54,-498.37 2443.28,-609.31 2461.24,-655.6"/>
<polygon fill="#757575" stroke="#757575" points="2458.05,-657.08 2464.87,-665.19 2464.6,-654.6 2458.05,-657.08"/>
</g>
<!-- statements/tokens/generateDpop.ts&#45;&gt;resources.ts -->
<g id="edge73" class="edge">
<title>statements/tokens/generateDpop.ts&#45;&gt;resources.ts</title>
<path fill="none" stroke="#757575" d="M2556.83,-268.33C2566.87,-271.95 2576.54,-276.68 2585,-282.83 2624.21,-311.32 2647.69,-365.43 2658.27,-395.44"/>
<polygon fill="#757575" stroke="#757575" points="2654.97,-396.61 2661.48,-404.97 2661.61,-394.37 2654.97,-396.61"/>
</g>
<!-- statements/validations/validateCredentialOffer.ts&#45;&gt;errors.ts -->
<g id="edge80" class="edge">
<title>statements/validations/validateCredentialOffer.ts&#45;&gt;errors.ts</title>
<path fill="none" stroke="#757575" d="M2238.39,-724.29C2263.89,-720.01 2292.77,-714.94 2319,-709.83 2355.52,-702.7 2396.8,-693.54 2426.79,-686.67"/>
<polygon fill="#757575" stroke="#757575" points="2427.94,-690 2436.91,-684.35 2426.38,-683.18 2427.94,-690"/>
</g>
<!-- statements/validations/validateGrants.ts&#45;&gt;ports.ts -->
<g id="edge82" class="edge">
<title>statements/validations/validateGrants.ts&#45;&gt;ports.ts</title>
<path fill="none" stroke="#757575" d="M2294.24,-770.38C2303.14,-766.65 2311.53,-761.88 2319,-755.83 2355.7,-726.08 2336.81,-699.42 2355,-655.83 2389.35,-573.52 2437.11,-478.7 2458.22,-437.61"/>
<polygon fill="#757575" stroke="#757575" points="2461.41,-439.06 2462.88,-428.57 2455.19,-435.86 2461.41,-439.06"/>
</g>
<!-- statements/validations/validateGrants.ts&#45;&gt;resources.ts -->
<g id="edge83" class="edge">
<title>statements/validations/validateGrants.ts&#45;&gt;resources.ts</title>
<path fill="none" stroke="#757575" d="M2294.12,-786.21C2386.43,-785.81 2507.99,-769.34 2585,-696.83 2659.75,-626.43 2666.25,-491.5 2665.74,-438.74"/>
<polygon fill="#757575" stroke="#757575" points="2669.23,-438.44 2665.54,-428.51 2662.24,-438.57 2669.23,-438.44"/>
</g>
<!-- statements/validations/validateGrants.ts&#45;&gt;errors.ts -->
<g id="edge81" class="edge">
<title>statements/validations/validateGrants.ts&#45;&gt;errors.ts</title>
<path fill="none" stroke="#757575" d="M2293.42,-765.3C2302.25,-762.7 2310.87,-759.57 2319,-755.83 2338.44,-746.87 2336.85,-735.18 2355,-723.83 2377.45,-709.79 2404.82,-698.34 2427.12,-690.26"/>
<polygon fill="#757575" stroke="#757575" points="2428.38,-693.52 2436.65,-686.9 2426.05,-686.92 2428.38,-693.52"/>
</g>
</g>
</svg>
