<?xml version="1.0" encoding="UTF-8" standalone="no"?>
<!DOCTYPE svg PUBLIC "-//W3C//DTD SVG 1.1//EN"
 "http://www.w3.org/Graphics/SVG/1.1/DTD/svg11.dtd">
<!-- Generated by graphviz version 2.43.0 (0)
 -->
<!-- Title: G Pages: 1 -->
<svg width="2132pt" height="1619pt"
 viewBox="0.00 0.00 2132.20 1619.30" xmlns="http://www.w3.org/2000/svg" xmlns:xlink="http://www.w3.org/1999/xlink">
<g id="graph0" class="graph" transform="scale(1 1) rotate(0) translate(21.6 1597.7)">
<title>G</title>
<polygon fill="#111111" stroke="transparent" points="-21.6,21.6 -21.6,-1597.7 2110.6,-1597.7 2110.6,21.6 -21.6,21.6"/>
<!-- config.ts -->
<g id="node1" class="node">
<title>config.ts</title>
<path fill="none" stroke="#cfffac" d="M1008.33,-386.62C1008.33,-386.62 956.67,-386.62 956.67,-386.62 952.83,-386.62 949,-382.78 949,-378.95 949,-378.95 949,-371.28 949,-371.28 949,-367.45 952.83,-363.62 956.67,-363.62 956.67,-363.62 1008.33,-363.62 1008.33,-363.62 1012.17,-363.62 1016,-367.45 1016,-371.28 1016,-371.28 1016,-378.95 1016,-378.95 1016,-382.78 1012.17,-386.62 1008.33,-386.62"/>
<text text-anchor="middle" x="982.5" y="-371.42" font-family="Arial" font-size="14.00" fill="#cfffac">config.ts</text>
</g>
<!-- constants.ts -->
<g id="node2" class="node">
<title>constants.ts</title>
<path fill="none" stroke="#cfffac" d="M2080.83,-892.62C2080.83,-892.62 2007.17,-892.62 2007.17,-892.62 2003.33,-892.62 1999.5,-888.78 1999.5,-884.95 1999.5,-884.95 1999.5,-877.28 1999.5,-877.28 1999.5,-873.45 2003.33,-869.62 2007.17,-869.62 2007.17,-869.62 2080.83,-869.62 2080.83,-869.62 2084.67,-869.62 2088.5,-873.45 2088.5,-877.28 2088.5,-877.28 2088.5,-884.95 2088.5,-884.95 2088.5,-888.78 2084.67,-892.62 2080.83,-892.62"/>
<text text-anchor="middle" x="2044" y="-877.42" font-family="Arial" font-size="14.00" fill="#cfffac">constants.ts</text>
</g>
<!-- core.ts -->
<g id="node3" class="node">
<title>core.ts</title>
<path fill="none" stroke="#c6c5fe" d="M148.33,-346.62C148.33,-346.62 106.67,-346.62 106.67,-346.62 102.83,-346.62 99,-342.78 99,-338.95 99,-338.95 99,-331.28 99,-331.28 99,-327.45 102.83,-323.62 106.67,-323.62 106.67,-323.62 148.33,-323.62 148.33,-323.62 152.17,-323.62 156,-327.45 156,-331.28 156,-331.28 156,-338.95 156,-338.95 156,-342.78 152.17,-346.62 148.33,-346.62"/>
<text text-anchor="middle" x="127.5" y="-331.42" font-family="Arial" font-size="14.00" fill="#c6c5fe">core.ts</text>
</g>
<!-- core.ts&#45;&gt;config.ts -->
<g id="edge1" class="edge">
<title>core.ts&#45;&gt;config.ts</title>
<path fill="none" stroke="#757575" d="M156.03,-335.33C252.58,-336.25 584.7,-340.79 858,-361.12 884.9,-363.12 914.97,-366.5 938.71,-369.44"/>
<polygon fill="#757575" stroke="#757575" points="938.44,-372.94 948.8,-370.71 939.32,-365.99 938.44,-372.94"/>
</g>
<!-- crypto.ts -->
<g id="node4" class="node">
<title>crypto.ts</title>
<path fill="none" stroke="#cfffac" d="M2070.33,-565.62C2070.33,-565.62 2017.67,-565.62 2017.67,-565.62 2013.83,-565.62 2010,-561.78 2010,-557.95 2010,-557.95 2010,-550.28 2010,-550.28 2010,-546.45 2013.83,-542.62 2017.67,-542.62 2017.67,-542.62 2070.33,-542.62 2070.33,-542.62 2074.17,-542.62 2078,-546.45 2078,-550.28 2078,-550.28 2078,-557.95 2078,-557.95 2078,-561.78 2074.17,-565.62 2070.33,-565.62"/>
<text text-anchor="middle" x="2044" y="-550.42" font-family="Arial" font-size="14.00" fill="#cfffac">crypto.ts</text>
</g>
<!-- core.ts&#45;&gt;crypto.ts -->
<g id="edge2" class="edge">
<title>core.ts&#45;&gt;crypto.ts</title>
<path fill="none" stroke="#757575" d="M139.26,-323.43C175.86,-285.02 300.47,-165.12 429.5,-165.12 429.5,-165.12 429.5,-165.12 705,-165.12 1264.22,-165.12 1530.69,164.62 1963,-190.12 2016.77,-234.24 2036.65,-460.99 2041.64,-532.49"/>
<polygon fill="#757575" stroke="#757575" points="2038.15,-532.84 2042.31,-542.58 2045.14,-532.37 2038.15,-532.84"/>
</g>
<!-- handlers/index.ts -->
<g id="node5" class="node">
<title>handlers/index.ts</title>
<path fill="none" stroke="#c6c5fe" d="M303.33,-633.62C303.33,-633.62 199.67,-633.62 199.67,-633.62 195.83,-633.62 192,-629.78 192,-625.95 192,-625.95 192,-618.28 192,-618.28 192,-614.45 195.83,-610.62 199.67,-610.62 199.67,-610.62 303.33,-610.62 303.33,-610.62 307.17,-610.62 311,-614.45 311,-618.28 311,-618.28 311,-625.95 311,-625.95 311,-629.78 307.17,-633.62 303.33,-633.62"/>
<text text-anchor="middle" x="251.5" y="-618.42" font-family="Arial" font-size="14.00" fill="#c6c5fe">handlers/index.ts</text>
</g>
<!-- core.ts&#45;&gt;handlers/index.ts -->
<g id="edge3" class="edge">
<title>core.ts&#45;&gt;handlers/index.ts</title>
<path fill="none" stroke="#757575" d="M133.43,-346.72C151.94,-390.26 217.4,-544.26 241.51,-600.96"/>
<polygon fill="#757575" stroke="#757575" points="238.37,-602.53 245.5,-610.36 244.81,-599.79 238.37,-602.53"/>
</g>
<!-- handlers/authorize.handler.ts -->
<g id="node7" class="node">
<title>handlers/authorize.handler.ts</title>
<path fill="none" stroke="#c6c5fe" d="M791.33,-743.62C791.33,-743.62 616.67,-743.62 616.67,-743.62 612.83,-743.62 609,-739.78 609,-735.95 609,-735.95 609,-728.28 609,-728.28 609,-724.45 612.83,-720.62 616.67,-720.62 616.67,-720.62 791.33,-720.62 791.33,-720.62 795.17,-720.62 799,-724.45 799,-728.28 799,-728.28 799,-735.95 799,-735.95 799,-739.78 795.17,-743.62 791.33,-743.62"/>
<text text-anchor="middle" x="704" y="-728.42" font-family="Arial" font-size="14.00" fill="#c6c5fe">handlers/authorize.handler.ts</text>
</g>
<!-- handlers/index.ts&#45;&gt;handlers/authorize.handler.ts -->
<g id="edge18" class="edge">
<title>handlers/index.ts&#45;&gt;handlers/authorize.handler.ts</title>
<path fill="none" stroke="#757575" d="M271.31,-633.8C289.88,-644.8 319.41,-660.94 347,-670.12 429.44,-697.54 526.86,-713.44 598.94,-722.26"/>
<polygon fill="#757575" stroke="#757575" points="598.59,-725.74 608.93,-723.45 599.42,-718.79 598.59,-725.74"/>
</g>
<!-- handlers/credential.handler.ts -->
<g id="node11" class="node">
<title>handlers/credential.handler.ts</title>
<path fill="none" stroke="#c6c5fe" d="M792.83,-612.62C792.83,-612.62 615.17,-612.62 615.17,-612.62 611.33,-612.62 607.5,-608.78 607.5,-604.95 607.5,-604.95 607.5,-597.28 607.5,-597.28 607.5,-593.45 611.33,-589.62 615.17,-589.62 615.17,-589.62 792.83,-589.62 792.83,-589.62 796.67,-589.62 800.5,-593.45 800.5,-597.28 800.5,-597.28 800.5,-604.95 800.5,-604.95 800.5,-608.78 796.67,-612.62 792.83,-612.62"/>
<text text-anchor="middle" x="704" y="-597.42" font-family="Arial" font-size="14.00" fill="#c6c5fe">handlers/credential.handler.ts</text>
</g>
<!-- handlers/index.ts&#45;&gt;handlers/credential.handler.ts -->
<g id="edge19" class="edge">
<title>handlers/index.ts&#45;&gt;handlers/credential.handler.ts</title>
<path fill="none" stroke="#757575" d="M311.4,-619.37C383.85,-615.99 508.19,-610.2 597.34,-606.04"/>
<polygon fill="#757575" stroke="#757575" points="597.66,-609.53 607.48,-605.57 597.33,-602.54 597.66,-609.53"/>
</g>
<!-- handlers/credentialOffer.handler.ts -->
<g id="node12" class="node">
<title>handlers/credentialOffer.handler.ts</title>
<path fill="none" stroke="#c6c5fe" d="M807.83,-653.62C807.83,-653.62 600.17,-653.62 600.17,-653.62 596.33,-653.62 592.5,-649.78 592.5,-645.95 592.5,-645.95 592.5,-638.28 592.5,-638.28 592.5,-634.45 596.33,-630.62 600.17,-630.62 600.17,-630.62 807.83,-630.62 807.83,-630.62 811.67,-630.62 815.5,-634.45 815.5,-638.28 815.5,-638.28 815.5,-645.95 815.5,-645.95 815.5,-649.78 811.67,-653.62 807.83,-653.62"/>
<text text-anchor="middle" x="704" y="-638.42" font-family="Arial" font-size="14.00" fill="#c6c5fe">handlers/credentialOffer.handler.ts</text>
</g>
<!-- handlers/index.ts&#45;&gt;handlers/credentialOffer.handler.ts -->
<g id="edge20" class="edge">
<title>handlers/index.ts&#45;&gt;handlers/credentialOffer.handler.ts</title>
<path fill="none" stroke="#757575" d="M311.4,-624.73C379.83,-627.77 494.56,-632.86 582.19,-636.75"/>
<polygon fill="#757575" stroke="#757575" points="582.05,-640.25 592.2,-637.2 582.37,-633.26 582.05,-640.25"/>
</g>
<!-- handlers/nonce.handler.ts -->
<g id="node13" class="node">
<title>handlers/nonce.handler.ts</title>
<path fill="none" stroke="#c6c5fe" d="M781.83,-694.62C781.83,-694.62 626.17,-694.62 626.17,-694.62 622.33,-694.62 618.5,-690.78 618.5,-686.95 618.5,-686.95 618.5,-679.28 618.5,-679.28 618.5,-675.45 622.33,-671.62 626.17,-671.62 626.17,-671.62 781.83,-671.62 781.83,-671.62 785.67,-671.62 789.5,-675.45 789.5,-679.28 789.5,-679.28 789.5,-686.95 789.5,-686.95 789.5,-690.78 785.67,-694.62 781.83,-694.62"/>
<text text-anchor="middle" x="704" y="-679.42" font-family="Arial" font-size="14.00" fill="#c6c5fe">handlers/nonce.handler.ts</text>
</g>
<!-- handlers/index.ts&#45;&gt;handlers/nonce.handler.ts -->
<g id="edge21" class="edge">
<title>handlers/index.ts&#45;&gt;handlers/nonce.handler.ts</title>
<path fill="none" stroke="#757575" d="M296.98,-633.63C312.7,-637.39 330.56,-641.31 347,-644.12 434.92,-659.11 536.08,-669.55 608.05,-675.82"/>
<polygon fill="#757575" stroke="#757575" points="608.18,-679.35 618.45,-676.72 608.79,-672.37 608.18,-679.35"/>
</g>
<!-- handlers/oauthAuthorizationServer.handler.ts -->
<g id="node14" class="node">
<title>handlers/oauthAuthorizationServer.handler.ts</title>
<path fill="none" stroke="#c6c5fe" d="M839.33,-910.62C839.33,-910.62 568.67,-910.62 568.67,-910.62 564.83,-910.62 561,-906.78 561,-902.95 561,-902.95 561,-895.28 561,-895.28 561,-891.45 564.83,-887.62 568.67,-887.62 568.67,-887.62 839.33,-887.62 839.33,-887.62 843.17,-887.62 847,-891.45 847,-895.28 847,-895.28 847,-902.95 847,-902.95 847,-906.78 843.17,-910.62 839.33,-910.62"/>
<text text-anchor="middle" x="704" y="-895.42" font-family="Arial" font-size="14.00" fill="#c6c5fe">handlers/oauthAuthorizationServer.handler.ts</text>
</g>
<!-- handlers/index.ts&#45;&gt;handlers/oauthAuthorizationServer.handler.ts -->
<g id="edge22" class="edge">
<title>handlers/index.ts&#45;&gt;handlers/oauthAuthorizationServer.handler.ts</title>
<path fill="none" stroke="#757575" d="M258.1,-633.7C270.81,-659.05 304.15,-720.2 347,-758.12 423.38,-825.69 454.26,-829.96 550,-865.12 573.02,-873.57 598.8,-880.28 622.53,-885.44"/>
<polygon fill="#757575" stroke="#757575" points="622.06,-888.91 632.57,-887.55 623.5,-882.06 622.06,-888.91"/>
</g>
<!-- handlers/openidCredentialIssuer.handler.ts -->
<g id="node15" class="node">
<title>handlers/openidCredentialIssuer.handler.ts</title>
<path fill="none" stroke="#c6c5fe" d="M832.33,-856.62C832.33,-856.62 575.67,-856.62 575.67,-856.62 571.83,-856.62 568,-852.78 568,-848.95 568,-848.95 568,-841.28 568,-841.28 568,-837.45 571.83,-833.62 575.67,-833.62 575.67,-833.62 832.33,-833.62 832.33,-833.62 836.17,-833.62 840,-837.45 840,-841.28 840,-841.28 840,-848.95 840,-848.95 840,-852.78 836.17,-856.62 832.33,-856.62"/>
<text text-anchor="middle" x="704" y="-841.42" font-family="Arial" font-size="14.00" fill="#c6c5fe">handlers/openidCredentialIssuer.handler.ts</text>
</g>
<!-- handlers/index.ts&#45;&gt;handlers/openidCredentialIssuer.handler.ts -->
<g id="edge23" class="edge">
<title>handlers/index.ts&#45;&gt;handlers/openidCredentialIssuer.handler.ts</title>
<path fill="none" stroke="#757575" d="M263.52,-633.69C280.29,-650.81 313.77,-683.1 347,-704.12 446,-766.73 577.38,-809.95 649.66,-830.81"/>
<polygon fill="#757575" stroke="#757575" points="648.88,-834.23 659.46,-833.6 650.8,-827.5 648.88,-834.23"/>
</g>
<!-- handlers/pushedAuthorizationRequest.handler.ts -->
<g id="node16" class="node">
<title>handlers/pushedAuthorizationRequest.handler.ts</title>
<path fill="none" stroke="#c6c5fe" d="M850.33,-571.62C850.33,-571.62 557.67,-571.62 557.67,-571.62 553.83,-571.62 550,-567.78 550,-563.95 550,-563.95 550,-556.28 550,-556.28 550,-552.45 553.83,-548.62 557.67,-548.62 557.67,-548.62 850.33,-548.62 850.33,-548.62 854.17,-548.62 858,-552.45 858,-556.28 858,-556.28 858,-563.95 858,-563.95 858,-567.78 854.17,-571.62 850.33,-571.62"/>
<text text-anchor="middle" x="704" y="-556.42" font-family="Arial" font-size="14.00" fill="#c6c5fe">handlers/pushedAuthorizationRequest.handler.ts</text>
</g>
<!-- handlers/index.ts&#45;&gt;handlers/pushedAuthorizationRequest.handler.ts -->
<g id="edge24" class="edge">
<title>handlers/index.ts&#45;&gt;handlers/pushedAuthorizationRequest.handler.ts</title>
<path fill="none" stroke="#757575" d="M311.19,-612.56C323.04,-610.7 335.41,-608.81 347,-607.12 432.11,-594.7 528.88,-582.02 600.02,-572.96"/>
<polygon fill="#757575" stroke="#757575" points="600.85,-576.38 610.33,-571.65 599.97,-569.44 600.85,-576.38"/>
</g>
<!-- handlers/token.handler.ts -->
<g id="node17" class="node">
<title>handlers/token.handler.ts</title>
<path fill="none" stroke="#c6c5fe" d="M506.33,-487.62C506.33,-487.62 354.67,-487.62 354.67,-487.62 350.83,-487.62 347,-483.78 347,-479.95 347,-479.95 347,-472.28 347,-472.28 347,-468.45 350.83,-464.62 354.67,-464.62 354.67,-464.62 506.33,-464.62 506.33,-464.62 510.17,-464.62 514,-468.45 514,-472.28 514,-472.28 514,-479.95 514,-479.95 514,-483.78 510.17,-487.62 506.33,-487.62"/>
<text text-anchor="middle" x="430.5" y="-472.42" font-family="Arial" font-size="14.00" fill="#c6c5fe">handlers/token.handler.ts</text>
</g>
<!-- handlers/index.ts&#45;&gt;handlers/token.handler.ts -->
<g id="edge25" class="edge">
<title>handlers/index.ts&#45;&gt;handlers/token.handler.ts</title>
<path fill="none" stroke="#757575" d="M266.69,-610.41C297.37,-585.11 370.11,-525.11 407.08,-494.61"/>
<polygon fill="#757575" stroke="#757575" points="409.76,-496.94 415.25,-487.87 405.31,-491.54 409.76,-496.94"/>
</g>
<!-- errors.ts -->
<g id="node6" class="node">
<title>errors.ts</title>
<path fill="none" stroke="#cfffac" d="M2069.33,-606.62C2069.33,-606.62 2018.67,-606.62 2018.67,-606.62 2014.83,-606.62 2011,-602.78 2011,-598.95 2011,-598.95 2011,-591.28 2011,-591.28 2011,-587.45 2014.83,-583.62 2018.67,-583.62 2018.67,-583.62 2069.33,-583.62 2069.33,-583.62 2073.17,-583.62 2077,-587.45 2077,-591.28 2077,-591.28 2077,-598.95 2077,-598.95 2077,-602.78 2073.17,-606.62 2069.33,-606.62"/>
<text text-anchor="middle" x="2044" y="-591.42" font-family="Arial" font-size="14.00" fill="#cfffac">errors.ts</text>
</g>
<!-- handlers/authorize.handler.ts&#45;&gt;config.ts -->
<g id="edge4" class="edge">
<title>handlers/authorize.handler.ts&#45;&gt;config.ts</title>
<path fill="none" stroke="#757575" d="M799.04,-729.58C820.29,-725.08 841.44,-717.03 858,-703.12 907.53,-661.48 959.99,-462.68 976.34,-396.55"/>
<polygon fill="#757575" stroke="#757575" points="979.75,-397.34 978.73,-386.8 972.95,-395.68 979.75,-397.34"/>
</g>
<!-- handlers/authorize.handler.ts&#45;&gt;errors.ts -->
<g id="edge5" class="edge">
<title>handlers/authorize.handler.ts&#45;&gt;errors.ts</title>
<path fill="none" stroke="#757575" d="M799.04,-735.17C1082.62,-744.05 1913.06,-767.4 1963,-738.12 2007.98,-711.74 2029.56,-649.83 2038.19,-616.79"/>
<polygon fill="#757575" stroke="#757575" points="2041.66,-617.33 2040.64,-606.79 2034.86,-615.67 2041.66,-617.33"/>
</g>
<!-- handlers/schemas/index.ts -->
<g id="node8" class="node">
<title>handlers/schemas/index.ts</title>
<path fill="none" stroke="#c6c5fe" d="M1063.33,-947.62C1063.33,-947.62 901.67,-947.62 901.67,-947.62 897.83,-947.62 894,-943.78 894,-939.95 894,-939.95 894,-932.28 894,-932.28 894,-928.45 897.83,-924.62 901.67,-924.62 901.67,-924.62 1063.33,-924.62 1063.33,-924.62 1067.17,-924.62 1071,-928.45 1071,-932.28 1071,-932.28 1071,-939.95 1071,-939.95 1071,-943.78 1067.17,-947.62 1063.33,-947.62"/>
<text text-anchor="middle" x="982.5" y="-932.42" font-family="Arial" font-size="14.00" fill="#c6c5fe">handlers/schemas/index.ts</text>
</g>
<!-- handlers/authorize.handler.ts&#45;&gt;handlers/schemas/index.ts -->
<g id="edge6" class="edge">
<title>handlers/authorize.handler.ts&#45;&gt;handlers/schemas/index.ts</title>
<path fill="none" stroke="#757575" d="M799.11,-741.17C819.67,-746.12 840.49,-753.67 858,-765.12 916,-803.02 955.73,-878.31 972.51,-915.01"/>
<polygon fill="#757575" stroke="#757575" points="969.37,-916.56 976.63,-924.28 975.77,-913.72 969.37,-916.56"/>
</g>
<!-- resources.ts -->
<g id="node9" class="node">
<title>resources.ts</title>
<path fill="none" stroke="#cfffac" d="M2081.33,-1096.62C2081.33,-1096.62 2006.67,-1096.62 2006.67,-1096.62 2002.83,-1096.62 1999,-1092.78 1999,-1088.95 1999,-1088.95 1999,-1081.28 1999,-1081.28 1999,-1077.45 2002.83,-1073.62 2006.67,-1073.62 2006.67,-1073.62 2081.33,-1073.62 2081.33,-1073.62 2085.17,-1073.62 2089,-1077.45 2089,-1081.28 2089,-1081.28 2089,-1088.95 2089,-1088.95 2089,-1092.78 2085.17,-1096.62 2081.33,-1096.62"/>
<text text-anchor="middle" x="2044" y="-1081.42" font-family="Arial" font-size="14.00" fill="#cfffac">resources.ts</text>
</g>
<!-- handlers/authorize.handler.ts&#45;&gt;resources.ts -->
<g id="edge7" class="edge">
<title>handlers/authorize.handler.ts&#45;&gt;resources.ts</title>
<path fill="none" stroke="#757575" d="M743.56,-743.73C779.89,-756.89 832.45,-782.15 858,-824.12 922.62,-930.25 803.35,-1297.13 894,-1382.12 937.33,-1422.74 1915.86,-1418.24 1963,-1382.12 2007.58,-1347.95 2032.92,-1169.38 2040.53,-1106.8"/>
<polygon fill="#757575" stroke="#757575" points="2044.01,-1107.19 2041.71,-1096.84 2037.06,-1106.36 2044.01,-1107.19"/>
</g>
<!-- statements/index.ts -->
<g id="node10" class="node">
<title>statements/index.ts</title>
<path fill="none" stroke="#c6c5fe" d="M1041.83,-692.62C1041.83,-692.62 923.17,-692.62 923.17,-692.62 919.33,-692.62 915.5,-688.78 915.5,-684.95 915.5,-684.95 915.5,-677.28 915.5,-677.28 915.5,-673.45 919.33,-669.62 923.17,-669.62 923.17,-669.62 1041.83,-669.62 1041.83,-669.62 1045.67,-669.62 1049.5,-673.45 1049.5,-677.28 1049.5,-677.28 1049.5,-684.95 1049.5,-684.95 1049.5,-688.78 1045.67,-692.62 1041.83,-692.62"/>
<text text-anchor="middle" x="982.5" y="-677.42" font-family="Arial" font-size="14.00" fill="#c6c5fe">statements/index.ts</text>
</g>
<!-- handlers/authorize.handler.ts&#45;&gt;statements/index.ts -->
<g id="edge8" class="edge">
<title>handlers/authorize.handler.ts&#45;&gt;statements/index.ts</title>
<path fill="none" stroke="#757575" d="M767.4,-720.61C809.36,-712.87 864.84,-702.63 908.8,-694.52"/>
<polygon fill="#757575" stroke="#757575" points="909.65,-697.93 918.85,-692.67 908.38,-691.04 909.65,-697.93"/>
</g>
<!-- handlers/schemas/authorizeHandlerConfig.schema.ts -->
<g id="node18" class="node">
<title>handlers/schemas/authorizeHandlerConfig.schema.ts</title>
<path fill="none" stroke="#cfffac" d="M1496.33,-1035.62C1496.33,-1035.62 1173.67,-1035.62 1173.67,-1035.62 1169.83,-1035.62 1166,-1031.78 1166,-1027.95 1166,-1027.95 1166,-1020.28 1166,-1020.28 1166,-1016.45 1169.83,-1012.62 1173.67,-1012.62 1173.67,-1012.62 1496.33,-1012.62 1496.33,-1012.62 1500.17,-1012.62 1504,-1016.45 1504,-1020.28 1504,-1020.28 1504,-1027.95 1504,-1027.95 1504,-1031.78 1500.17,-1035.62 1496.33,-1035.62"/>
<text text-anchor="middle" x="1335" y="-1020.42" font-family="Arial" font-size="14.00" fill="#cfffac">handlers/schemas/authorizeHandlerConfig.schema.ts</text>
</g>
<!-- handlers/schemas/index.ts&#45;&gt;handlers/schemas/authorizeHandlerConfig.schema.ts -->
<g id="edge41" class="edge">
<title>handlers/schemas/index.ts&#45;&gt;handlers/schemas/authorizeHandlerConfig.schema.ts</title>
<path fill="none" stroke="#757575" d="M999.3,-947.67C1021.9,-963.51 1065.32,-991.42 1107,-1004.12 1122.51,-1008.84 1138.88,-1012.56 1155.43,-1015.49"/>
<polygon fill="#757575" stroke="#757575" points="1155.31,-1019.02 1165.75,-1017.21 1156.46,-1012.11 1155.31,-1019.02"/>
</g>
<!-- handlers/schemas/credentialHandlerConfig.schema.ts -->
<g id="node19" class="node">
<title>handlers/schemas/credentialHandlerConfig.schema.ts</title>
<path fill="none" stroke="#cfffac" d="M1497.83,-994.62C1497.83,-994.62 1172.17,-994.62 1172.17,-994.62 1168.33,-994.62 1164.5,-990.78 1164.5,-986.95 1164.5,-986.95 1164.5,-979.28 1164.5,-979.28 1164.5,-975.45 1168.33,-971.62 1172.17,-971.62 1172.17,-971.62 1497.83,-971.62 1497.83,-971.62 1501.67,-971.62 1505.5,-975.45 1505.5,-979.28 1505.5,-979.28 1505.5,-986.95 1505.5,-986.95 1505.5,-990.78 1501.67,-994.62 1497.83,-994.62"/>
<text text-anchor="middle" x="1335" y="-979.42" font-family="Arial" font-size="14.00" fill="#cfffac">handlers/schemas/credentialHandlerConfig.schema.ts</text>
</g>
<!-- handlers/schemas/index.ts&#45;&gt;handlers/schemas/credentialHandlerConfig.schema.ts -->
<g id="edge42" class="edge">
<title>handlers/schemas/index.ts&#45;&gt;handlers/schemas/credentialHandlerConfig.schema.ts</title>
<path fill="none" stroke="#757575" d="M1029.57,-947.65C1052.68,-953.06 1081.18,-959.17 1107,-963.12 1125.4,-965.93 1144.7,-968.38 1163.96,-970.51"/>
<polygon fill="#757575" stroke="#757575" points="1163.7,-974 1174.02,-971.6 1164.45,-967.04 1163.7,-974"/>
</g>
<!-- handlers/schemas/credentialOfferHandlerConfig.schema.ts -->
<g id="node20" class="node">
<title>handlers/schemas/credentialOfferHandlerConfig.schema.ts</title>
<path fill="none" stroke="#cfffac" d="M1513.33,-953.62C1513.33,-953.62 1156.67,-953.62 1156.67,-953.62 1152.83,-953.62 1149,-949.78 1149,-945.95 1149,-945.95 1149,-938.28 1149,-938.28 1149,-934.45 1152.83,-930.62 1156.67,-930.62 1156.67,-930.62 1513.33,-930.62 1513.33,-930.62 1517.17,-930.62 1521,-934.45 1521,-938.28 1521,-938.28 1521,-945.95 1521,-945.95 1521,-949.78 1517.17,-953.62 1513.33,-953.62"/>
<text text-anchor="middle" x="1335" y="-938.42" font-family="Arial" font-size="14.00" fill="#cfffac">handlers/schemas/credentialOfferHandlerConfig.schema.ts</text>
</g>
<!-- handlers/schemas/index.ts&#45;&gt;handlers/schemas/credentialOfferHandlerConfig.schema.ts -->
<g id="edge43" class="edge">
<title>handlers/schemas/index.ts&#45;&gt;handlers/schemas/credentialOfferHandlerConfig.schema.ts</title>
<path fill="none" stroke="#757575" d="M1071.04,-937.61C1091.89,-937.97 1114.97,-938.37 1138.54,-938.77"/>
<polygon fill="#757575" stroke="#757575" points="1138.61,-942.27 1148.67,-938.94 1138.73,-935.27 1138.61,-942.27"/>
</g>
<!-- handlers/schemas/nonceHandlerConfig.schema.ts -->
<g id="node21" class="node">
<title>handlers/schemas/nonceHandlerConfig.schema.ts</title>
<path fill="none" stroke="#cfffac" d="M1487.33,-1240.62C1487.33,-1240.62 1182.67,-1240.62 1182.67,-1240.62 1178.83,-1240.62 1175,-1236.78 1175,-1232.95 1175,-1232.95 1175,-1225.28 1175,-1225.28 1175,-1221.45 1178.83,-1217.62 1182.67,-1217.62 1182.67,-1217.62 1487.33,-1217.62 1487.33,-1217.62 1491.17,-1217.62 1495,-1221.45 1495,-1225.28 1495,-1225.28 1495,-1232.95 1495,-1232.95 1495,-1236.78 1491.17,-1240.62 1487.33,-1240.62"/>
<text text-anchor="middle" x="1335" y="-1225.42" font-family="Arial" font-size="14.00" fill="#cfffac">handlers/schemas/nonceHandlerConfig.schema.ts</text>
</g>
<!-- handlers/schemas/index.ts&#45;&gt;handlers/schemas/nonceHandlerConfig.schema.ts -->
<g id="edge44" class="edge">
<title>handlers/schemas/index.ts&#45;&gt;handlers/schemas/nonceHandlerConfig.schema.ts</title>
<path fill="none" stroke="#757575" d="M984.71,-947.74C989.87,-990.97 1014.29,-1143.36 1107,-1209.12 1147.58,-1237.89 1203.06,-1243.23 1249.01,-1241.2"/>
<polygon fill="#757575" stroke="#757575" points="1249.48,-1244.68 1259.26,-1240.63 1249.08,-1237.69 1249.48,-1244.68"/>
</g>
<!-- handlers/schemas/oauthAuthorizationServerHandlerConfig.schema.ts -->
<g id="node22" class="node">
<title>handlers/schemas/oauthAuthorizationServerHandlerConfig.schema.ts</title>
<path fill="none" stroke="#cfffac" d="M1544.83,-1199.62C1544.83,-1199.62 1125.17,-1199.62 1125.17,-1199.62 1121.33,-1199.62 1117.5,-1195.78 1117.5,-1191.95 1117.5,-1191.95 1117.5,-1184.28 1117.5,-1184.28 1117.5,-1180.45 1121.33,-1176.62 1125.17,-1176.62 1125.17,-1176.62 1544.83,-1176.62 1544.83,-1176.62 1548.67,-1176.62 1552.5,-1180.45 1552.5,-1184.28 1552.5,-1184.28 1552.5,-1191.95 1552.5,-1191.95 1552.5,-1195.78 1548.67,-1199.62 1544.83,-1199.62"/>
<text text-anchor="middle" x="1335" y="-1184.42" font-family="Arial" font-size="14.00" fill="#cfffac">handlers/schemas/oauthAuthorizationServerHandlerConfig.schema.ts</text>
</g>
<!-- handlers/schemas/index.ts&#45;&gt;handlers/schemas/oauthAuthorizationServerHandlerConfig.schema.ts -->
<g id="edge45" class="edge">
<title>handlers/schemas/index.ts&#45;&gt;handlers/schemas/oauthAuthorizationServerHandlerConfig.schema.ts</title>
<path fill="none" stroke="#757575" d="M985.64,-947.62C993.54,-986.54 1025.01,-1113.84 1107,-1168.12 1108.73,-1169.26 1110.49,-1170.37 1112.27,-1171.44"/>
<polygon fill="#757575" stroke="#757575" points="1110.9,-1174.69 1121.34,-1176.48 1114.3,-1168.57 1110.9,-1174.69"/>
</g>
<!-- handlers/schemas/openidCredentialIssuerHandlerConfig.schema.ts -->
<g id="node23" class="node">
<title>handlers/schemas/openidCredentialIssuerHandlerConfig.schema.ts</title>
<path fill="none" stroke="#cfffac" d="M1538.33,-1158.62C1538.33,-1158.62 1131.67,-1158.62 1131.67,-1158.62 1127.83,-1158.62 1124,-1154.78 1124,-1150.95 1124,-1150.95 1124,-1143.28 1124,-1143.28 1124,-1139.45 1127.83,-1135.62 1131.67,-1135.62 1131.67,-1135.62 1538.33,-1135.62 1538.33,-1135.62 1542.17,-1135.62 1546,-1139.45 1546,-1143.28 1546,-1143.28 1546,-1150.95 1546,-1150.95 1546,-1154.78 1542.17,-1158.62 1538.33,-1158.62"/>
<text text-anchor="middle" x="1335" y="-1143.42" font-family="Arial" font-size="14.00" fill="#cfffac">handlers/schemas/openidCredentialIssuerHandlerConfig.schema.ts</text>
</g>
<!-- handlers/schemas/index.ts&#45;&gt;handlers/schemas/openidCredentialIssuerHandlerConfig.schema.ts -->
<g id="edge46" class="edge">
<title>handlers/schemas/index.ts&#45;&gt;handlers/schemas/openidCredentialIssuerHandlerConfig.schema.ts</title>
<path fill="none" stroke="#757575" d="M986.99,-947.76C998.01,-982.24 1035.64,-1084.11 1107,-1127.12 1109.54,-1128.65 1112.13,-1130.11 1114.76,-1131.5"/>
<polygon fill="#757575" stroke="#757575" points="1113.33,-1134.69 1123.84,-1135.95 1116.41,-1128.41 1113.33,-1134.69"/>
</g>
<!-- handlers/schemas/pushedAuthorizationRequestHandlerConfig.schema.ts -->
<g id="node24" class="node">
<title>handlers/schemas/pushedAuthorizationRequestHandlerConfig.schema.ts</title>
<path fill="none" stroke="#cfffac" d="M1555.33,-1117.62C1555.33,-1117.62 1114.67,-1117.62 1114.67,-1117.62 1110.83,-1117.62 1107,-1113.78 1107,-1109.95 1107,-1109.95 1107,-1102.28 1107,-1102.28 1107,-1098.45 1110.83,-1094.62 1114.67,-1094.62 1114.67,-1094.62 1555.33,-1094.62 1555.33,-1094.62 1559.17,-1094.62 1563,-1098.45 1563,-1102.28 1563,-1102.28 1563,-1109.95 1563,-1109.95 1563,-1113.78 1559.17,-1117.62 1555.33,-1117.62"/>
<text text-anchor="middle" x="1335" y="-1102.42" font-family="Arial" font-size="14.00" fill="#cfffac">handlers/schemas/pushedAuthorizationRequestHandlerConfig.schema.ts</text>
</g>
<!-- handlers/schemas/index.ts&#45;&gt;handlers/schemas/pushedAuthorizationRequestHandlerConfig.schema.ts -->
<g id="edge47" class="edge">
<title>handlers/schemas/index.ts&#45;&gt;handlers/schemas/pushedAuthorizationRequestHandlerConfig.schema.ts</title>
<path fill="none" stroke="#757575" d="M988.97,-947.77C1003.43,-977.08 1045.82,-1053.88 1107,-1086.12 1109.98,-1087.68 1113,-1089.17 1116.08,-1090.58"/>
<polygon fill="#757575" stroke="#757575" points="1114.86,-1093.86 1125.43,-1094.57 1117.6,-1087.42 1114.86,-1093.86"/>
</g>
<!-- handlers/schemas/tokenHandlerConfig.schema.ts -->
<g id="node25" class="node">
<title>handlers/schemas/tokenHandlerConfig.schema.ts</title>
<path fill="none" stroke="#cfffac" d="M1485.33,-1076.62C1485.33,-1076.62 1184.67,-1076.62 1184.67,-1076.62 1180.83,-1076.62 1177,-1072.78 1177,-1068.95 1177,-1068.95 1177,-1061.28 1177,-1061.28 1177,-1057.45 1180.83,-1053.62 1184.67,-1053.62 1184.67,-1053.62 1485.33,-1053.62 1485.33,-1053.62 1489.17,-1053.62 1493,-1057.45 1493,-1061.28 1493,-1061.28 1493,-1068.95 1493,-1068.95 1493,-1072.78 1489.17,-1076.62 1485.33,-1076.62"/>
<text text-anchor="middle" x="1335" y="-1061.42" font-family="Arial" font-size="14.00" fill="#cfffac">handlers/schemas/tokenHandlerConfig.schema.ts</text>
</g>
<!-- handlers/schemas/index.ts&#45;&gt;handlers/schemas/tokenHandlerConfig.schema.ts -->
<g id="edge48" class="edge">
<title>handlers/schemas/index.ts&#45;&gt;handlers/schemas/tokenHandlerConfig.schema.ts</title>
<path fill="none" stroke="#757575" d="M992.18,-947.63C1010.46,-970.86 1055.49,-1023 1107,-1045.12 1125.83,-1053.2 1146.33,-1058.83 1167.06,-1062.67"/>
<polygon fill="#757575" stroke="#757575" points="1166.47,-1066.12 1176.92,-1064.36 1167.66,-1059.22 1166.47,-1066.12"/>
</g>
<!-- statements/grants/index.ts -->
<g id="node30" class="node">
<title>statements/grants/index.ts</title>
<path fill="none" stroke="#c6c5fe" d="M1414.83,-912.62C1414.83,-912.62 1255.17,-912.62 1255.17,-912.62 1251.33,-912.62 1247.5,-908.78 1247.5,-904.95 1247.5,-904.95 1247.5,-897.28 1247.5,-897.28 1247.5,-893.45 1251.33,-889.62 1255.17,-889.62 1255.17,-889.62 1414.83,-889.62 1414.83,-889.62 1418.67,-889.62 1422.5,-893.45 1422.5,-897.28 1422.5,-897.28 1422.5,-904.95 1422.5,-904.95 1422.5,-908.78 1418.67,-912.62 1414.83,-912.62"/>
<text text-anchor="middle" x="1335" y="-897.42" font-family="Arial" font-size="14.00" fill="#c6c5fe">statements/grants/index.ts</text>
</g>
<!-- statements/index.ts&#45;&gt;statements/grants/index.ts -->
<g id="edge67" class="edge">
<title>statements/index.ts&#45;&gt;statements/grants/index.ts</title>
<path fill="none" stroke="#757575" d="M986.69,-692.71C997.1,-728.06 1033.68,-834.78 1107,-880.12 1145.33,-903.82 1194.48,-910.59 1237.23,-910.8"/>
<polygon fill="#757575" stroke="#757575" points="1237.4,-914.3 1247.38,-910.73 1237.36,-907.3 1237.4,-914.3"/>
</g>
<!-- statements/locations/index.ts -->
<g id="node31" class="node">
<title>statements/locations/index.ts</title>
<path fill="none" stroke="#c6c5fe" d="M1422.83,-830.62C1422.83,-830.62 1247.17,-830.62 1247.17,-830.62 1243.33,-830.62 1239.5,-826.78 1239.5,-822.95 1239.5,-822.95 1239.5,-815.28 1239.5,-815.28 1239.5,-811.45 1243.33,-807.62 1247.17,-807.62 1247.17,-807.62 1422.83,-807.62 1422.83,-807.62 1426.67,-807.62 1430.5,-811.45 1430.5,-815.28 1430.5,-815.28 1430.5,-822.95 1430.5,-822.95 1430.5,-826.78 1426.67,-830.62 1422.83,-830.62"/>
<text text-anchor="middle" x="1335" y="-815.42" font-family="Arial" font-size="14.00" fill="#c6c5fe">statements/locations/index.ts</text>
</g>
<!-- statements/index.ts&#45;&gt;statements/locations/index.ts -->
<g id="edge68" class="edge">
<title>statements/index.ts&#45;&gt;statements/locations/index.ts</title>
<path fill="none" stroke="#757575" d="M991.44,-692.7C1008.98,-717.19 1053.73,-773.99 1107,-798.12 1144.72,-815.2 1189.53,-821.83 1229.33,-823.69"/>
<polygon fill="#757575" stroke="#757575" points="1229.21,-827.19 1239.33,-824.07 1229.47,-820.2 1229.21,-827.19"/>
</g>
<!-- statements/resources/index.ts -->
<g id="node32" class="node">
<title>statements/resources/index.ts</title>
<path fill="none" stroke="#c6c5fe" d="M1425.83,-871.62C1425.83,-871.62 1244.17,-871.62 1244.17,-871.62 1240.33,-871.62 1236.5,-867.78 1236.5,-863.95 1236.5,-863.95 1236.5,-856.28 1236.5,-856.28 1236.5,-852.45 1240.33,-848.62 1244.17,-848.62 1244.17,-848.62 1425.83,-848.62 1425.83,-848.62 1429.67,-848.62 1433.5,-852.45 1433.5,-856.28 1433.5,-856.28 1433.5,-863.95 1433.5,-863.95 1433.5,-867.78 1429.67,-871.62 1425.83,-871.62"/>
<text text-anchor="middle" x="1335" y="-856.42" font-family="Arial" font-size="14.00" fill="#c6c5fe">statements/resources/index.ts</text>
</g>
<!-- statements/index.ts&#45;&gt;statements/resources/index.ts -->
<g id="edge69" class="edge">
<title>statements/index.ts&#45;&gt;statements/resources/index.ts</title>
<path fill="none" stroke="#757575" d="M988.59,-692.91C1002.44,-723.38 1044.05,-804.74 1107,-839.12 1142.79,-858.66 1186.54,-865.87 1226.05,-867.51"/>
<polygon fill="#757575" stroke="#757575" points="1226.16,-871.02 1236.26,-867.82 1226.37,-864.02 1226.16,-871.02"/>
</g>
<!-- statements/tokens/index.ts -->
<g id="node33" class="node">
<title>statements/tokens/index.ts</title>
<path fill="none" stroke="#c6c5fe" d="M1415.83,-789.62C1415.83,-789.62 1254.17,-789.62 1254.17,-789.62 1250.33,-789.62 1246.5,-785.78 1246.5,-781.95 1246.5,-781.95 1246.5,-774.28 1246.5,-774.28 1246.5,-770.45 1250.33,-766.62 1254.17,-766.62 1254.17,-766.62 1415.83,-766.62 1415.83,-766.62 1419.67,-766.62 1423.5,-770.45 1423.5,-774.28 1423.5,-774.28 1423.5,-781.95 1423.5,-781.95 1423.5,-785.78 1419.67,-789.62 1415.83,-789.62"/>
<text text-anchor="middle" x="1335" y="-774.42" font-family="Arial" font-size="14.00" fill="#c6c5fe">statements/tokens/index.ts</text>
</g>
<!-- statements/index.ts&#45;&gt;statements/tokens/index.ts -->
<g id="edge70" class="edge">
<title>statements/index.ts&#45;&gt;statements/tokens/index.ts</title>
<path fill="none" stroke="#757575" d="M1025.08,-692.62C1089.29,-710.39 1212.44,-744.47 1282.29,-763.81"/>
<polygon fill="#757575" stroke="#757575" points="1281.63,-767.25 1292.2,-766.55 1283.49,-760.51 1281.63,-767.25"/>
</g>
<!-- statements/validations/index.ts -->
<g id="node34" class="node">
<title>statements/validations/index.ts</title>
<path fill="none" stroke="#c6c5fe" d="M1427.83,-689.62C1427.83,-689.62 1242.17,-689.62 1242.17,-689.62 1238.33,-689.62 1234.5,-685.78 1234.5,-681.95 1234.5,-681.95 1234.5,-674.28 1234.5,-674.28 1234.5,-670.45 1238.33,-666.62 1242.17,-666.62 1242.17,-666.62 1427.83,-666.62 1427.83,-666.62 1431.67,-666.62 1435.5,-670.45 1435.5,-674.28 1435.5,-674.28 1435.5,-681.95 1435.5,-681.95 1435.5,-685.78 1431.67,-689.62 1427.83,-689.62"/>
<text text-anchor="middle" x="1335" y="-674.42" font-family="Arial" font-size="14.00" fill="#c6c5fe">statements/validations/index.ts</text>
</g>
<!-- statements/index.ts&#45;&gt;statements/validations/index.ts -->
<g id="edge71" class="edge">
<title>statements/index.ts&#45;&gt;statements/validations/index.ts</title>
<path fill="none" stroke="#757575" d="M1049.84,-680.55C1098.98,-680.13 1167.06,-679.54 1224.26,-679.05"/>
<polygon fill="#757575" stroke="#757575" points="1224.47,-682.55 1234.44,-678.97 1224.41,-675.55 1224.47,-682.55"/>
</g>
<!-- handlers/credential.handler.ts&#45;&gt;config.ts -->
<g id="edge9" class="edge">
<title>handlers/credential.handler.ts&#45;&gt;config.ts</title>
<path fill="none" stroke="#757575" d="M800.75,-605.75C821.83,-602.27 842.47,-594.71 858,-580.12 917.13,-524.54 839.27,-461.03 894,-401.12 905.51,-388.52 922.81,-381.92 939,-378.5"/>
<polygon fill="#757575" stroke="#757575" points="939.63,-381.94 948.87,-376.76 938.42,-375.05 939.63,-381.94"/>
</g>
<!-- handlers/credential.handler.ts&#45;&gt;errors.ts -->
<g id="edge10" class="edge">
<title>handlers/credential.handler.ts&#45;&gt;errors.ts</title>
<path fill="none" stroke="#757575" d="M800.62,-605.11C821.58,-601.62 842.2,-594.22 858,-580.12 906.26,-537.05 844.8,-481.1 894,-439.12 953.84,-388.05 1520.42,-377.73 1599,-374.12 1679.8,-370.4 1900.94,-322.23 1963,-374.12 2032.29,-432.05 1944.21,-502.31 1999,-574.12 2000.09,-575.55 2001.31,-576.89 2002.62,-578.14"/>
<polygon fill="#757575" stroke="#757575" points="2000.88,-581.21 2010.98,-584.4 2005.07,-575.6 2000.88,-581.21"/>
</g>
<!-- handlers/credential.handler.ts&#45;&gt;handlers/schemas/index.ts -->
<g id="edge11" class="edge">
<title>handlers/credential.handler.ts&#45;&gt;handlers/schemas/index.ts</title>
<path fill="none" stroke="#757575" d="M800.57,-598.08C821.17,-601.45 841.64,-608.33 858,-621.12 870.41,-630.82 948.74,-845.46 973.8,-914.75"/>
<polygon fill="#757575" stroke="#757575" points="970.66,-916.36 977.35,-924.57 977.24,-913.98 970.66,-916.36"/>
</g>
<!-- handlers/credential.handler.ts&#45;&gt;statements/index.ts -->
<g id="edge12" class="edge">
<title>handlers/credential.handler.ts&#45;&gt;statements/index.ts</title>
<path fill="none" stroke="#757575" d="M800.68,-608.8C819.9,-611.69 839.78,-615.66 858,-621.12 892.62,-631.49 929.56,-650.62 953.92,-664.5"/>
<polygon fill="#757575" stroke="#757575" points="952.2,-667.55 962.61,-669.53 955.71,-661.49 952.2,-667.55"/>
</g>
<!-- handlers/credentialOffer.handler.ts&#45;&gt;config.ts -->
<g id="edge13" class="edge">
<title>handlers/credentialOffer.handler.ts&#45;&gt;config.ts</title>
<path fill="none" stroke="#757575" d="M815.75,-643.55C831.43,-639.28 846.2,-632.24 858,-621.12 918,-564.55 849.69,-508.66 894,-439.12 907.04,-418.65 929.13,-402.57 947.85,-391.65"/>
<polygon fill="#757575" stroke="#757575" points="949.69,-394.63 956.72,-386.7 946.28,-388.52 949.69,-394.63"/>
</g>
<!-- handlers/credentialOffer.handler.ts&#45;&gt;errors.ts -->
<g id="edge14" class="edge">
<title>handlers/credentialOffer.handler.ts&#45;&gt;errors.ts</title>
<path fill="none" stroke="#757575" d="M815.67,-642.92C831.26,-638.72 846.02,-631.86 858,-621.12 907.11,-577.07 842.87,-518.8 894,-477.12 967.44,-417.24 1012.29,-470.98 1107,-468.12 1202.07,-465.24 1886.35,-402.79 1963,-459.12 2006.16,-490.83 1963.91,-533.66 1999,-574.12 2000.14,-575.43 2001.39,-576.68 2002.71,-577.85"/>
<polygon fill="#757575" stroke="#757575" points="2000.81,-580.79 2010.97,-583.78 2004.89,-575.1 2000.81,-580.79"/>
</g>
<!-- handlers/credentialOffer.handler.ts&#45;&gt;handlers/schemas/index.ts -->
<g id="edge15" class="edge">
<title>handlers/credentialOffer.handler.ts&#45;&gt;handlers/schemas/index.ts</title>
<path fill="none" stroke="#757575" d="M815.61,-642.88C830.85,-646.76 845.53,-652.85 858,-662.12 901.68,-694.55 956.14,-855.94 974.84,-914.68"/>
<polygon fill="#757575" stroke="#757575" points="971.56,-915.92 977.9,-924.4 978.23,-913.81 971.56,-915.92"/>
</g>
<!-- handlers/credentialOffer.handler.ts&#45;&gt;resources.ts -->
<g id="edge16" class="edge">
<title>handlers/credentialOffer.handler.ts&#45;&gt;resources.ts</title>
<path fill="none" stroke="#757575" d="M815.67,-638.95C831.54,-643.18 846.4,-650.42 858,-662.12 904.5,-709.01 869.81,-895.66 894,-957.12 952.97,-1106.92 968.32,-1168.34 1107,-1250.12 1189.14,-1298.55 1885.13,-1366.15 1963,-1311.12 2030.51,-1263.4 2041.42,-1153.68 2042.92,-1106.89"/>
<polygon fill="#757575" stroke="#757575" points="2046.42,-1106.74 2043.12,-1096.67 2039.42,-1106.6 2046.42,-1106.74"/>
</g>
<!-- handlers/credentialOffer.handler.ts&#45;&gt;statements/index.ts -->
<g id="edge17" class="edge">
<title>handlers/credentialOffer.handler.ts&#45;&gt;statements/index.ts</title>
<path fill="none" stroke="#757575" d="M795.66,-653.62C816.17,-656.32 837.84,-659.25 858,-662.12 873.24,-664.28 889.52,-666.71 905.09,-669.08"/>
<polygon fill="#757575" stroke="#757575" points="904.79,-672.58 915.2,-670.63 905.85,-665.66 904.79,-672.58"/>
</g>
<!-- handlers/nonce.handler.ts&#45;&gt;config.ts -->
<g id="edge26" class="edge">
<title>handlers/nonce.handler.ts&#45;&gt;config.ts</title>
<path fill="none" stroke="#757575" d="M789.66,-689.29C814.47,-686.78 839.79,-679.34 858,-662.12 918.86,-604.56 857.52,-552.52 894,-477.12 910.15,-443.74 939.96,-412.5 960.26,-393.6"/>
<polygon fill="#757575" stroke="#757575" points="962.74,-396.07 967.78,-386.75 958.03,-390.89 962.74,-396.07"/>
</g>
<!-- handlers/nonce.handler.ts&#45;&gt;errors.ts -->
<g id="edge27" class="edge">
<title>handlers/nonce.handler.ts&#45;&gt;errors.ts</title>
<path fill="none" stroke="#757575" d="M789.79,-672.85C812.04,-669.78 835.98,-666.14 858,-662.12 1190.37,-601.3 1263.26,-530.13 1599,-492.12 1679.38,-483.01 1895.28,-447.88 1963,-492.12 1996.32,-513.88 1971.3,-545.53 1999,-574.12 2000.21,-575.37 2001.52,-576.56 2002.89,-577.68"/>
<polygon fill="#757575" stroke="#757575" points="2001.1,-580.7 2011.33,-583.45 2005.05,-574.92 2001.1,-580.7"/>
</g>
<!-- handlers/nonce.handler.ts&#45;&gt;handlers/schemas/index.ts -->
<g id="edge28" class="edge">
<title>handlers/nonce.handler.ts&#45;&gt;handlers/schemas/index.ts</title>
<path fill="none" stroke="#757575" d="M789.7,-685.23C813.53,-689.22 838.29,-696.9 858,-711.12 929.6,-762.76 964.34,-869.23 976.39,-914.73"/>
<polygon fill="#757575" stroke="#757575" points="973.01,-915.61 978.86,-924.44 979.79,-913.88 973.01,-915.61"/>
</g>
<!-- handlers/nonce.handler.ts&#45;&gt;resources.ts -->
<g id="edge29" class="edge">
<title>handlers/nonce.handler.ts&#45;&gt;resources.ts</title>
<path fill="none" stroke="#757575" d="M789.88,-679.54C815.31,-682.98 840.93,-691.78 858,-711.12 951.25,-816.73 791.58,-1247.36 894,-1344.12 937.17,-1384.9 1915.21,-1379.37 1963,-1344.12 2002.14,-1315.24 2030.23,-1164.12 2039.6,-1107"/>
<polygon fill="#757575" stroke="#757575" points="2043.09,-1107.33 2041.22,-1096.9 2036.18,-1106.22 2043.09,-1107.33"/>
</g>
<!-- handlers/nonce.handler.ts&#45;&gt;statements/index.ts -->
<g id="edge30" class="edge">
<title>handlers/nonce.handler.ts&#45;&gt;statements/index.ts</title>
<path fill="none" stroke="#757575" d="M789.84,-682.5C826.54,-682.24 869.17,-681.93 904.9,-681.67"/>
<polygon fill="#757575" stroke="#757575" points="905.29,-685.17 915.26,-681.59 905.24,-678.17 905.29,-685.17"/>
</g>
<!-- handlers/oauthAuthorizationServer.handler.ts&#45;&gt;config.ts -->
<g id="edge31" class="edge">
<title>handlers/oauthAuthorizationServer.handler.ts&#45;&gt;config.ts</title>
<path fill="none" stroke="#757575" d="M824.51,-887.6C837.03,-882.24 848.6,-874.95 858,-865.12 921.93,-798.25 872.38,-750.06 894,-660.12 918.07,-559.97 957.59,-443.3 974,-396.32"/>
<polygon fill="#757575" stroke="#757575" points="977.38,-397.24 977.39,-386.65 970.78,-394.92 977.38,-397.24"/>
</g>
<!-- handlers/oauthAuthorizationServer.handler.ts&#45;&gt;handlers/schemas/index.ts -->
<g id="edge32" class="edge">
<title>handlers/oauthAuthorizationServer.handler.ts&#45;&gt;handlers/schemas/index.ts</title>
<path fill="none" stroke="#757575" d="M790.97,-910.62C820.74,-914.6 854.3,-919.09 884.87,-923.18"/>
<polygon fill="#757575" stroke="#757575" points="884.73,-926.7 895.11,-924.55 885.66,-919.76 884.73,-926.7"/>
</g>
<!-- handlers/oauthAuthorizationServer.handler.ts&#45;&gt;resources.ts -->
<g id="edge33" class="edge">
<title>handlers/oauthAuthorizationServer.handler.ts&#45;&gt;resources.ts</title>
<path fill="none" stroke="#757575" d="M704.53,-910.99C702.55,-978.99 702.56,-1320.75 894,-1458.12 942.25,-1492.74 1916.81,-1495.45 1963,-1458.12 2018.37,-1413.36 2037.16,-1180.69 2041.76,-1107.31"/>
<polygon fill="#757575" stroke="#757575" points="2045.28,-1107.15 2042.38,-1096.95 2038.29,-1106.73 2045.28,-1107.15"/>
</g>
<!-- handlers/openidCredentialIssuer.handler.ts&#45;&gt;config.ts -->
<g id="edge34" class="edge">
<title>handlers/openidCredentialIssuer.handler.ts&#45;&gt;config.ts</title>
<path fill="none" stroke="#757575" d="M736.86,-833.58C771.45,-819.48 826.03,-792.42 858,-752.12 869.68,-737.4 951.2,-473.8 974.99,-396.35"/>
<polygon fill="#757575" stroke="#757575" points="978.37,-397.29 977.95,-386.7 971.67,-395.23 978.37,-397.29"/>
</g>
<!-- handlers/openidCredentialIssuer.handler.ts&#45;&gt;handlers/schemas/index.ts -->
<g id="edge35" class="edge">
<title>handlers/openidCredentialIssuer.handler.ts&#45;&gt;handlers/schemas/index.ts</title>
<path fill="none" stroke="#757575" d="M774.45,-856.64C800.95,-861.93 831.23,-869.07 858,-878.12 891.09,-889.29 927.02,-906.83 951.55,-919.7"/>
<polygon fill="#757575" stroke="#757575" points="950.21,-922.95 960.69,-924.55 953.5,-916.77 950.21,-922.95"/>
</g>
<!-- handlers/openidCredentialIssuer.handler.ts&#45;&gt;resources.ts -->
<g id="edge36" class="edge">
<title>handlers/openidCredentialIssuer.handler.ts&#45;&gt;resources.ts</title>
<path fill="none" stroke="#757575" d="M829.55,-856.73C840.32,-862 850.1,-868.96 858,-878.12 936.9,-969.47 805.86,-1337.64 894,-1420.12 937.36,-1460.69 1916.38,-1456.91 1963,-1420.12 2013.02,-1380.64 2035.2,-1174.69 2041.23,-1106.83"/>
<polygon fill="#757575" stroke="#757575" points="2044.72,-1107.09 2042.09,-1096.83 2037.74,-1106.49 2044.72,-1107.09"/>
</g>
<!-- handlers/pushedAuthorizationRequest.handler.ts&#45;&gt;config.ts -->
<g id="edge37" class="edge">
<title>handlers/pushedAuthorizationRequest.handler.ts&#45;&gt;config.ts</title>
<path fill="none" stroke="#757575" d="M785.74,-548.58C811.64,-541.31 838.6,-529.45 858,-510.12 894.13,-474.1 857.38,-436.64 894,-401.12 905.94,-389.53 922.81,-383.07 938.55,-379.49"/>
<polygon fill="#757575" stroke="#757575" points="939.52,-382.86 948.67,-377.52 938.18,-375.99 939.52,-382.86"/>
</g>
<!-- handlers/pushedAuthorizationRequest.handler.ts&#45;&gt;errors.ts -->
<g id="edge38" class="edge">
<title>handlers/pushedAuthorizationRequest.handler.ts&#45;&gt;errors.ts</title>
<path fill="none" stroke="#757575" d="M743.23,-548.53C778.03,-536.07 828.36,-512.94 858,-476.12 893.45,-432.08 848.89,-388.19 894,-354.12 988.78,-282.53 1872.67,-269.98 1963,-347.12 2040.68,-413.45 1937.88,-492.27 1999,-574.12 2000.08,-575.56 2001.28,-576.91 2002.59,-578.17"/>
<polygon fill="#757575" stroke="#757575" points="2000.81,-581.22 2010.9,-584.46 2005.03,-575.64 2000.81,-581.22"/>
</g>
<!-- handlers/pushedAuthorizationRequest.handler.ts&#45;&gt;handlers/schemas/index.ts -->
<g id="edge39" class="edge">
<title>handlers/pushedAuthorizationRequest.handler.ts&#45;&gt;handlers/schemas/index.ts</title>
<path fill="none" stroke="#757575" d="M846.32,-571.72C850.42,-574.2 854.33,-576.99 858,-580.12 900.7,-616.51 876.2,-647.91 894,-701.12 920.68,-780.87 956.92,-874.08 973.1,-915.02"/>
<polygon fill="#757575" stroke="#757575" points="969.91,-916.47 976.85,-924.48 976.42,-913.89 969.91,-916.47"/>
</g>
<!-- handlers/pushedAuthorizationRequest.handler.ts&#45;&gt;statements/index.ts -->
<g id="edge40" class="edge">
<title>handlers/pushedAuthorizationRequest.handler.ts&#45;&gt;statements/index.ts</title>
<path fill="none" stroke="#757575" d="M834.15,-571.68C842.36,-574.03 850.38,-576.82 858,-580.12 901.67,-598.98 942.33,-637.99 964.37,-661.63"/>
<polygon fill="#757575" stroke="#757575" points="962.03,-664.26 971.36,-669.29 967.2,-659.54 962.03,-664.26"/>
</g>
<!-- handlers/token.handler.ts&#45;&gt;config.ts -->
<g id="edge49" class="edge">
<title>handlers/token.handler.ts&#45;&gt;config.ts</title>
<path fill="none" stroke="#757575" d="M466.68,-487.7C544.27,-510.95 733.13,-554.69 858,-476.12 889.29,-456.42 865.87,-425.11 894,-401.12 906.56,-390.4 923.39,-384.1 938.93,-380.4"/>
<polygon fill="#757575" stroke="#757575" points="939.83,-383.79 948.9,-378.32 938.4,-376.94 939.83,-383.79"/>
</g>
<!-- handlers/token.handler.ts&#45;&gt;errors.ts -->
<g id="edge50" class="edge">
<title>handlers/token.handler.ts&#45;&gt;errors.ts</title>
<path fill="none" stroke="#757575" d="M443.94,-464.38C500.71,-412.13 742.71,-203.12 981.5,-203.12 981.5,-203.12 981.5,-203.12 1336,-203.12 1405.69,-203.12 1911.93,-172.7 1963,-220.12 2020.95,-273.91 1953.48,-509.46 1999,-574.12 2000.04,-575.59 2001.21,-576.97 2002.48,-578.25"/>
<polygon fill="#757575" stroke="#757575" points="2000.65,-581.25 2010.7,-584.61 2004.93,-575.72 2000.65,-581.25"/>
</g>
<!-- handlers/token.handler.ts&#45;&gt;handlers/schemas/index.ts -->
<g id="edge51" class="edge">
<title>handlers/token.handler.ts&#45;&gt;handlers/schemas/index.ts</title>
<path fill="none" stroke="#757575" d="M434.96,-487.78C449.36,-535.5 505.73,-715.02 550,-752.12 657.75,-842.4 733.51,-758.81 858,-824.12 902.91,-847.67 944.19,-891.44 965.78,-916.72"/>
<polygon fill="#757575" stroke="#757575" points="963.21,-919.12 972.32,-924.53 968.58,-914.62 963.21,-919.12"/>
</g>
<!-- handlers/token/authorizationCode.ts -->
<g id="node26" class="node">
<title>handlers/token/authorizationCode.ts</title>
<path fill="none" stroke="#c6c5fe" d="M812.83,-467.62C812.83,-467.62 595.17,-467.62 595.17,-467.62 591.33,-467.62 587.5,-463.78 587.5,-459.95 587.5,-459.95 587.5,-452.28 587.5,-452.28 587.5,-448.45 591.33,-444.62 595.17,-444.62 595.17,-444.62 812.83,-444.62 812.83,-444.62 816.67,-444.62 820.5,-448.45 820.5,-452.28 820.5,-452.28 820.5,-459.95 820.5,-459.95 820.5,-463.78 816.67,-467.62 812.83,-467.62"/>
<text text-anchor="middle" x="704" y="-452.42" font-family="Arial" font-size="14.00" fill="#c6c5fe">handlers/token/authorizationCode.ts</text>
</g>
<!-- handlers/token.handler.ts&#45;&gt;handlers/token/authorizationCode.ts -->
<g id="edge52" class="edge">
<title>handlers/token.handler.ts&#45;&gt;handlers/token/authorizationCode.ts</title>
<path fill="none" stroke="#757575" d="M514.06,-470.03C534,-468.56 555.75,-466.96 577.17,-465.38"/>
<polygon fill="#757575" stroke="#757575" points="577.59,-468.86 587.31,-464.64 577.08,-461.88 577.59,-468.86"/>
</g>
<!-- handlers/token/clientCredentials.ts -->
<g id="node27" class="node">
<title>handlers/token/clientCredentials.ts</title>
<path fill="none" stroke="#c6c5fe" d="M807.83,-426.62C807.83,-426.62 600.17,-426.62 600.17,-426.62 596.33,-426.62 592.5,-422.78 592.5,-418.95 592.5,-418.95 592.5,-411.28 592.5,-411.28 592.5,-407.45 596.33,-403.62 600.17,-403.62 600.17,-403.62 807.83,-403.62 807.83,-403.62 811.67,-403.62 815.5,-407.45 815.5,-411.28 815.5,-411.28 815.5,-418.95 815.5,-418.95 815.5,-422.78 811.67,-426.62 807.83,-426.62"/>
<text text-anchor="middle" x="704" y="-411.42" font-family="Arial" font-size="14.00" fill="#c6c5fe">handlers/token/clientCredentials.ts</text>
</g>
<!-- handlers/token.handler.ts&#45;&gt;handlers/token/clientCredentials.ts -->
<g id="edge53" class="edge">
<title>handlers/token.handler.ts&#45;&gt;handlers/token/clientCredentials.ts</title>
<path fill="none" stroke="#757575" d="M459.75,-464.52C483.47,-455.23 518.43,-442.56 550,-435.12 560.89,-432.55 572.3,-430.29 583.77,-428.3"/>
<polygon fill="#757575" stroke="#757575" points="584.56,-431.71 593.85,-426.62 583.41,-424.81 584.56,-431.71"/>
</g>
<!-- handlers/token/authorizationCode.ts&#45;&gt;config.ts -->
<g id="edge54" class="edge">
<title>handlers/token/authorizationCode.ts&#45;&gt;config.ts</title>
<path fill="none" stroke="#757575" d="M820.89,-448.06C833.76,-444.89 846.39,-440.67 858,-435.12 877.85,-425.61 874.93,-412.1 894,-401.12 907.72,-393.21 924.06,-387.51 938.89,-383.51"/>
<polygon fill="#757575" stroke="#757575" points="940.02,-386.83 948.86,-381 938.31,-380.04 940.02,-386.83"/>
</g>
<!-- handlers/token/authorizationCode.ts&#45;&gt;errors.ts -->
<g id="edge55" class="edge">
<title>handlers/token/authorizationCode.ts&#45;&gt;errors.ts</title>
<path fill="none" stroke="#757575" d="M820.77,-454.98C834.4,-450.76 847.26,-444.41 858,-435.12 901.72,-397.28 849.23,-346.69 894,-310.12 920.89,-288.15 1893.13,-231.62 1963,-293.12 2057.52,-376.3 1925.18,-472.11 1999,-574.12 2000.06,-575.58 2001.24,-576.94 2002.53,-578.21"/>
<polygon fill="#757575" stroke="#757575" points="2000.73,-581.24 2010.79,-584.54 2004.98,-575.68 2000.73,-581.24"/>
</g>
<!-- handlers/token/authorizationCode.ts&#45;&gt;statements/index.ts -->
<g id="edge56" class="edge">
<title>handlers/token/authorizationCode.ts&#45;&gt;statements/index.ts</title>
<path fill="none" stroke="#757575" d="M733.06,-467.66C765.2,-481.69 818.51,-507.44 858,-539.12 904.19,-576.17 946.88,-631.93 967.88,-661.34"/>
<polygon fill="#757575" stroke="#757575" points="965.05,-663.41 973.67,-669.57 970.78,-659.38 965.05,-663.41"/>
</g>
<!-- handlers/token/clientCredentials.ts&#45;&gt;config.ts -->
<g id="edge57" class="edge">
<title>handlers/token/clientCredentials.ts&#45;&gt;config.ts</title>
<path fill="none" stroke="#757575" d="M784.6,-403.6C834.9,-396.32 897.92,-387.21 938.91,-381.28"/>
<polygon fill="#757575" stroke="#757575" points="939.44,-384.74 948.84,-379.84 938.44,-377.81 939.44,-384.74"/>
</g>
<!-- handlers/token/clientCredentials.ts&#45;&gt;errors.ts -->
<g id="edge58" class="edge">
<title>handlers/token/clientCredentials.ts&#45;&gt;errors.ts</title>
<path fill="none" stroke="#757575" d="M717.02,-403.52C745.21,-377.14 818.88,-312.77 894,-285.12 1005.49,-244.07 1874.31,-183.07 1963,-262.12 2015.1,-308.55 1958.44,-517.32 1999,-574.12 2000.05,-575.58 2001.23,-576.95 2002.51,-578.23"/>
<polygon fill="#757575" stroke="#757575" points="2000.69,-581.25 2010.75,-584.57 2004.96,-575.7 2000.69,-581.25"/>
</g>
<!-- handlers/token/clientCredentials.ts&#45;&gt;statements/index.ts -->
<g id="edge59" class="edge">
<title>handlers/token/clientCredentials.ts&#45;&gt;statements/index.ts</title>
<path fill="none" stroke="#757575" d="M815.66,-416.45C830.81,-420.27 845.44,-426.19 858,-435.12 936.23,-490.7 967.72,-610.45 977.66,-659.5"/>
<polygon fill="#757575" stroke="#757575" points="974.23,-660.2 979.56,-669.35 981.11,-658.87 974.23,-660.2"/>
</g>
<!-- index.ts -->
<g id="node28" class="node">
<title>index.ts</title>
<path fill="none" stroke="#c6c5fe" d="M55.33,-386.62C55.33,-386.62 7.67,-386.62 7.67,-386.62 3.83,-386.62 0,-382.78 0,-378.95 0,-378.95 0,-371.28 0,-371.28 0,-367.45 3.83,-363.62 7.67,-363.62 7.67,-363.62 55.33,-363.62 55.33,-363.62 59.17,-363.62 63,-367.45 63,-371.28 63,-371.28 63,-378.95 63,-378.95 63,-382.78 59.17,-386.62 55.33,-386.62"/>
<text text-anchor="middle" x="31.5" y="-371.42" font-family="Arial" font-size="14.00" fill="#c6c5fe">index.ts</text>
</g>
<!-- index.ts&#45;&gt;config.ts -->
<g id="edge60" class="edge">
<title>index.ts&#45;&gt;config.ts</title>
<path fill="none" stroke="#757575" d="M63.19,-375.12C105.39,-375.12 183.7,-375.12 250.5,-375.12 250.5,-375.12 250.5,-375.12 431.5,-375.12 620.67,-375.12 846.44,-375.12 938.87,-375.12"/>
<polygon fill="#757575" stroke="#757575" points="938.95,-378.62 948.95,-375.12 938.95,-371.62 938.95,-378.62"/>
</g>
<!-- index.ts&#45;&gt;core.ts -->
<g id="edge61" class="edge">
<title>index.ts&#45;&gt;core.ts</title>
<path fill="none" stroke="#757575" d="M59.69,-363.55C69.14,-359.52 79.9,-354.95 89.98,-350.66"/>
<polygon fill="#757575" stroke="#757575" points="91.54,-353.8 99.37,-346.66 88.8,-347.35 91.54,-353.8"/>
</g>
<!-- index.ts&#45;&gt;handlers/index.ts -->
<g id="edge63" class="edge">
<title>index.ts&#45;&gt;handlers/index.ts</title>
<path fill="none" stroke="#757575" d="M42.72,-386.7C77.34,-425.92 190.38,-553.99 233.54,-602.9"/>
<polygon fill="#757575" stroke="#757575" points="231.06,-605.38 240.3,-610.56 236.31,-600.74 231.06,-605.38"/>
</g>
<!-- index.ts&#45;&gt;errors.ts -->
<g id="edge62" class="edge">
<title>index.ts&#45;&gt;errors.ts</title>
<path fill="none" stroke="#757575" d="M36.17,-363.49C52.44,-314.46 122.95,-127.12 250.5,-127.12 250.5,-127.12 250.5,-127.12 705,-127.12 1264.81,-127.12 1558.65,197.04 1963,-190.12 2024.91,-249.39 1949.94,-503.84 1999,-574.12 2000.03,-575.59 2001.2,-576.97 2002.47,-578.26"/>
<polygon fill="#757575" stroke="#757575" points="2000.62,-581.26 2010.67,-584.63 2004.92,-575.73 2000.62,-581.26"/>
</g>
<!-- index.ts&#45;&gt;resources.ts -->
<g id="edge64" class="edge">
<title>index.ts&#45;&gt;resources.ts</title>
<path fill="none" stroke="#757575" d="M33.43,-386.82C43.19,-507.47 128.71,-1520.12 250.5,-1520.12 250.5,-1520.12 250.5,-1520.12 1336,-1520.12 1615.13,-1520.12 1752.26,-1667.14 1963,-1484.12 2020.71,-1433.99 2038.02,-1183.52 2041.99,-1107.21"/>
<polygon fill="#757575" stroke="#757575" points="2045.5,-1107.05 2042.5,-1096.89 2038.51,-1106.71 2045.5,-1107.05"/>
</g>
<!-- statements/grants/generateIssuerGrants.ts -->
<g id="node29" class="node">
<title>statements/grants/generateIssuerGrants.ts</title>
<path fill="none" stroke="#c6c5fe" d="M1910.33,-1301.62C1910.33,-1301.62 1651.67,-1301.62 1651.67,-1301.62 1647.83,-1301.62 1644,-1297.78 1644,-1293.95 1644,-1293.95 1644,-1286.28 1644,-1286.28 1644,-1282.45 1647.83,-1278.62 1651.67,-1278.62 1651.67,-1278.62 1910.33,-1278.62 1910.33,-1278.62 1914.17,-1278.62 1918,-1282.45 1918,-1286.28 1918,-1286.28 1918,-1293.95 1918,-1293.95 1918,-1297.78 1914.17,-1301.62 1910.33,-1301.62"/>
<text text-anchor="middle" x="1781" y="-1286.42" font-family="Arial" font-size="14.00" fill="#c6c5fe">statements/grants/generateIssuerGrants.ts</text>
</g>
<!-- statements/grants/generateIssuerGrants.ts&#45;&gt;resources.ts -->
<g id="edge65" class="edge">
<title>statements/grants/generateIssuerGrants.ts&#45;&gt;resources.ts</title>
<path fill="none" stroke="#757575" d="M1918.44,-1290.87C1934.46,-1286.51 1949.78,-1279.88 1963,-1270.12 2016.91,-1230.28 2034.93,-1146.49 2040.59,-1106.82"/>
<polygon fill="#757575" stroke="#757575" points="2044.09,-1107.02 2041.9,-1096.66 2037.15,-1106.13 2044.09,-1107.02"/>
</g>
<!-- statements/grants/index.ts&#45;&gt;statements/grants/generateIssuerGrants.ts -->
<g id="edge66" class="edge">
<title>statements/grants/index.ts&#45;&gt;statements/grants/generateIssuerGrants.ts</title>
<path fill="none" stroke="#757575" d="M1385.47,-889.53C1437.16,-880.66 1517,-876.61 1563,-922.12 1618.27,-976.79 1544.22,-1214.95 1599,-1270.12 1625.17,-1296.46 1665.42,-1302.84 1701.33,-1302.03"/>
<polygon fill="#757575" stroke="#757575" points="1701.48,-1305.53 1711.33,-1301.63 1701.2,-1298.54 1701.48,-1305.53"/>
</g>
<!-- statements/locations/authorizationCodeRedirection.ts -->
<g id="node35" class="node">
<title>statements/locations/authorizationCodeRedirection.ts</title>
<path fill="none" stroke="#c6c5fe" d="M1941.33,-1219.62C1941.33,-1219.62 1620.67,-1219.62 1620.67,-1219.62 1616.83,-1219.62 1613,-1215.78 1613,-1211.95 1613,-1211.95 1613,-1204.28 1613,-1204.28 1613,-1200.45 1616.83,-1196.62 1620.67,-1196.62 1620.67,-1196.62 1941.33,-1196.62 1941.33,-1196.62 1945.17,-1196.62 1949,-1200.45 1949,-1204.28 1949,-1204.28 1949,-1211.95 1949,-1211.95 1949,-1215.78 1945.17,-1219.62 1941.33,-1219.62"/>
<text text-anchor="middle" x="1781" y="-1204.42" font-family="Arial" font-size="14.00" fill="#c6c5fe">statements/locations/authorizationCodeRedirection.ts</text>
</g>
<!-- statements/locations/index.ts&#45;&gt;statements/locations/authorizationCodeRedirection.ts -->
<g id="edge77" class="edge">
<title>statements/locations/index.ts&#45;&gt;statements/locations/authorizationCodeRedirection.ts</title>
<path fill="none" stroke="#757575" d="M1384.03,-807.53C1435.64,-798.24 1516.5,-793.3 1563,-839.12 1618.54,-893.83 1544.07,-1132.78 1599,-1188.12 1625.16,-1214.47 1665.42,-1220.85 1701.33,-1220.04"/>
<polygon fill="#757575" stroke="#757575" points="1701.48,-1223.53 1711.33,-1219.63 1701.19,-1216.54 1701.48,-1223.53"/>
</g>
<!-- statements/locations/generateAuthorizationRequestUri.ts -->
<g id="node36" class="node">
<title>statements/locations/generateAuthorizationRequestUri.ts</title>
<path fill="none" stroke="#c6c5fe" d="M1952.33,-1096.62C1952.33,-1096.62 1609.67,-1096.62 1609.67,-1096.62 1605.83,-1096.62 1602,-1092.78 1602,-1088.95 1602,-1088.95 1602,-1081.28 1602,-1081.28 1602,-1077.45 1605.83,-1073.62 1609.67,-1073.62 1609.67,-1073.62 1952.33,-1073.62 1952.33,-1073.62 1956.17,-1073.62 1960,-1077.45 1960,-1081.28 1960,-1081.28 1960,-1088.95 1960,-1088.95 1960,-1092.78 1956.17,-1096.62 1952.33,-1096.62"/>
<text text-anchor="middle" x="1781" y="-1081.42" font-family="Arial" font-size="14.00" fill="#c6c5fe">statements/locations/generateAuthorizationRequestUri.ts</text>
</g>
<!-- statements/locations/index.ts&#45;&gt;statements/locations/generateAuthorizationRequestUri.ts -->
<g id="edge78" class="edge">
<title>statements/locations/index.ts&#45;&gt;statements/locations/generateAuthorizationRequestUri.ts</title>
<path fill="none" stroke="#757575" d="M1386.38,-807.55C1437.67,-799.01 1516.12,-795.41 1563,-839.12 1637.4,-908.47 1525.38,-994.94 1599,-1065.12 1599.7,-1065.78 1600.41,-1066.44 1601.13,-1067.08"/>
<polygon fill="#757575" stroke="#757575" points="1599.15,-1069.98 1609.15,-1073.48 1603.51,-1064.51 1599.15,-1069.98"/>
</g>
<!-- statements/locations/generateCredentialOffer.ts -->
<g id="node37" class="node">
<title>statements/locations/generateCredentialOffer.ts</title>
<path fill="none" stroke="#c6c5fe" d="M1924.83,-1055.62C1924.83,-1055.62 1637.17,-1055.62 1637.17,-1055.62 1633.33,-1055.62 1629.5,-1051.78 1629.5,-1047.95 1629.5,-1047.95 1629.5,-1040.28 1629.5,-1040.28 1629.5,-1036.45 1633.33,-1032.62 1637.17,-1032.62 1637.17,-1032.62 1924.83,-1032.62 1924.83,-1032.62 1928.67,-1032.62 1932.5,-1036.45 1932.5,-1040.28 1932.5,-1040.28 1932.5,-1047.95 1932.5,-1047.95 1932.5,-1051.78 1928.67,-1055.62 1924.83,-1055.62"/>
<text text-anchor="middle" x="1781" y="-1040.42" font-family="Arial" font-size="14.00" fill="#c6c5fe">statements/locations/generateCredentialOffer.ts</text>
</g>
<!-- statements/locations/index.ts&#45;&gt;statements/locations/generateCredentialOffer.ts -->
<g id="edge79" class="edge">
<title>statements/locations/index.ts&#45;&gt;statements/locations/generateCredentialOffer.ts</title>
<path fill="none" stroke="#757575" d="M1387.98,-807.57C1439.05,-799.53 1515.97,-796.75 1563,-839.12 1625.24,-895.18 1537.39,-967.37 1599,-1024.12 1605.43,-1030.04 1612.59,-1034.92 1620.24,-1038.91"/>
<polygon fill="#757575" stroke="#757575" points="1618.89,-1042.14 1629.44,-1043.19 1621.85,-1035.8 1618.89,-1042.14"/>
</g>
<!-- statements/resources/issuerClient.ts -->
<g id="node38" class="node">
<title>statements/resources/issuerClient.ts</title>
<path fill="none" stroke="#c6c5fe" d="M1890.83,-1260.62C1890.83,-1260.62 1671.17,-1260.62 1671.17,-1260.62 1667.33,-1260.62 1663.5,-1256.78 1663.5,-1252.95 1663.5,-1252.95 1663.5,-1245.28 1663.5,-1245.28 1663.5,-1241.45 1667.33,-1237.62 1671.17,-1237.62 1671.17,-1237.62 1890.83,-1237.62 1890.83,-1237.62 1894.67,-1237.62 1898.5,-1241.45 1898.5,-1245.28 1898.5,-1245.28 1898.5,-1252.95 1898.5,-1252.95 1898.5,-1256.78 1894.67,-1260.62 1890.83,-1260.62"/>
<text text-anchor="middle" x="1781" y="-1245.42" font-family="Arial" font-size="14.00" fill="#c6c5fe">statements/resources/issuerClient.ts</text>
</g>
<!-- statements/resources/index.ts&#45;&gt;statements/resources/issuerClient.ts -->
<g id="edge80" class="edge">
<title>statements/resources/index.ts&#45;&gt;statements/resources/issuerClient.ts</title>
<path fill="none" stroke="#757575" d="M1384.03,-848.53C1435.64,-839.24 1516.5,-834.3 1563,-880.12 1618.54,-934.83 1544.07,-1173.78 1599,-1229.12 1625.16,-1255.47 1665.42,-1261.85 1701.33,-1261.04"/>
<polygon fill="#757575" stroke="#757575" points="1701.48,-1264.53 1711.33,-1260.63 1701.19,-1257.54 1701.48,-1264.53"/>
</g>
<!-- statements/tokens/generateAccessToken.ts -->
<g id="node39" class="node">
<title>statements/tokens/generateAccessToken.ts</title>
<path fill="none" stroke="#c6c5fe" d="M1912.33,-1178.62C1912.33,-1178.62 1649.67,-1178.62 1649.67,-1178.62 1645.83,-1178.62 1642,-1174.78 1642,-1170.95 1642,-1170.95 1642,-1163.28 1642,-1163.28 1642,-1159.45 1645.83,-1155.62 1649.67,-1155.62 1649.67,-1155.62 1912.33,-1155.62 1912.33,-1155.62 1916.17,-1155.62 1920,-1159.45 1920,-1163.28 1920,-1163.28 1920,-1170.95 1920,-1170.95 1920,-1174.78 1916.17,-1178.62 1912.33,-1178.62"/>
<text text-anchor="middle" x="1781" y="-1163.42" font-family="Arial" font-size="14.00" fill="#c6c5fe">statements/tokens/generateAccessToken.ts</text>
</g>
<!-- statements/tokens/index.ts&#45;&gt;statements/tokens/generateAccessToken.ts -->
<g id="edge88" class="edge">
<title>statements/tokens/index.ts&#45;&gt;statements/tokens/generateAccessToken.ts</title>
<path fill="none" stroke="#757575" d="M1384.03,-766.53C1435.64,-757.24 1516.5,-752.3 1563,-798.12 1618.54,-852.83 1544.07,-1091.78 1599,-1147.12 1625.16,-1173.47 1665.42,-1179.85 1701.33,-1179.04"/>
<polygon fill="#757575" stroke="#757575" points="1701.48,-1182.53 1711.33,-1178.63 1701.19,-1175.54 1701.48,-1182.53"/>
</g>
<!-- statements/tokens/generateAuthorizationCode.ts -->
<g id="node40" class="node">
<title>statements/tokens/generateAuthorizationCode.ts</title>
<path fill="none" stroke="#c6c5fe" d="M1927.83,-973.62C1927.83,-973.62 1634.17,-973.62 1634.17,-973.62 1630.33,-973.62 1626.5,-969.78 1626.5,-965.95 1626.5,-965.95 1626.5,-958.28 1626.5,-958.28 1626.5,-954.45 1630.33,-950.62 1634.17,-950.62 1634.17,-950.62 1927.83,-950.62 1927.83,-950.62 1931.67,-950.62 1935.5,-954.45 1935.5,-958.28 1935.5,-958.28 1935.5,-965.95 1935.5,-965.95 1935.5,-969.78 1931.67,-973.62 1927.83,-973.62"/>
<text text-anchor="middle" x="1781" y="-958.42" font-family="Arial" font-size="14.00" fill="#c6c5fe">statements/tokens/generateAuthorizationCode.ts</text>
</g>
<!-- statements/tokens/index.ts&#45;&gt;statements/tokens/generateAuthorizationCode.ts -->
<g id="edge89" class="edge">
<title>statements/tokens/index.ts&#45;&gt;statements/tokens/generateAuthorizationCode.ts</title>
<path fill="none" stroke="#757575" d="M1390.88,-766.61C1441.57,-759.38 1515.92,-757.91 1563,-798.12 1613.16,-840.96 1549.31,-898.72 1599,-942.12 1604.65,-947.05 1610.8,-951.24 1617.32,-954.78"/>
<polygon fill="#757575" stroke="#757575" points="1615.9,-957.98 1626.43,-959.22 1618.97,-951.69 1615.9,-957.98"/>
</g>
<!-- statements/tokens/generateCNonce.ts -->
<g id="node41" class="node">
<title>statements/tokens/generateCNonce.ts</title>
<path fill="none" stroke="#c6c5fe" d="M1896.83,-1137.62C1896.83,-1137.62 1665.17,-1137.62 1665.17,-1137.62 1661.33,-1137.62 1657.5,-1133.78 1657.5,-1129.95 1657.5,-1129.95 1657.5,-1122.28 1657.5,-1122.28 1657.5,-1118.45 1661.33,-1114.62 1665.17,-1114.62 1665.17,-1114.62 1896.83,-1114.62 1896.83,-1114.62 1900.67,-1114.62 1904.5,-1118.45 1904.5,-1122.28 1904.5,-1122.28 1904.5,-1129.95 1904.5,-1129.95 1904.5,-1133.78 1900.67,-1137.62 1896.83,-1137.62"/>
<text text-anchor="middle" x="1781" y="-1122.42" font-family="Arial" font-size="14.00" fill="#c6c5fe">statements/tokens/generateCNonce.ts</text>
</g>
<!-- statements/tokens/index.ts&#45;&gt;statements/tokens/generateCNonce.ts -->
<g id="edge90" class="edge">
<title>statements/tokens/index.ts&#45;&gt;statements/tokens/generateCNonce.ts</title>
<path fill="none" stroke="#757575" d="M1384.38,-766.57C1435.91,-757.43 1516.33,-752.76 1563,-798.12 1661.83,-894.17 1501.24,-1008.97 1599,-1106.12 1612.25,-1119.28 1629.01,-1127.43 1646.97,-1132.19"/>
<polygon fill="#757575" stroke="#757575" points="1646.53,-1135.67 1657.06,-1134.49 1648.09,-1128.85 1646.53,-1135.67"/>
</g>
<!-- statements/tokens/generateCredentials.ts -->
<g id="node42" class="node">
<title>statements/tokens/generateCredentials.ts</title>
<path fill="none" stroke="#c6c5fe" d="M1906.33,-1014.62C1906.33,-1014.62 1655.67,-1014.62 1655.67,-1014.62 1651.83,-1014.62 1648,-1010.78 1648,-1006.95 1648,-1006.95 1648,-999.28 1648,-999.28 1648,-995.45 1651.83,-991.62 1655.67,-991.62 1655.67,-991.62 1906.33,-991.62 1906.33,-991.62 1910.17,-991.62 1914,-995.45 1914,-999.28 1914,-999.28 1914,-1006.95 1914,-1006.95 1914,-1010.78 1910.17,-1014.62 1906.33,-1014.62"/>
<text text-anchor="middle" x="1781" y="-999.42" font-family="Arial" font-size="14.00" fill="#c6c5fe">statements/tokens/generateCredentials.ts</text>
</g>
<!-- statements/tokens/index.ts&#45;&gt;statements/tokens/generateCredentials.ts -->
<g id="edge91" class="edge">
<title>statements/tokens/index.ts&#45;&gt;statements/tokens/generateCredentials.ts</title>
<path fill="none" stroke="#757575" d="M1387.98,-766.57C1439.05,-758.53 1515.97,-755.75 1563,-798.12 1625.24,-854.18 1537.39,-926.37 1599,-983.12 1610.25,-993.48 1623.72,-1000.64 1638.17,-1005.44"/>
<polygon fill="#757575" stroke="#757575" points="1637.2,-1008.81 1647.78,-1008.26 1639.17,-1002.09 1637.2,-1008.81"/>
</g>
<!-- statements/validations/validateAccessToken.ts -->
<g id="node43" class="node">
<title>statements/validations/validateAccessToken.ts</title>
<path fill="none" stroke="#c6c5fe" d="M1920.83,-647.62C1920.83,-647.62 1641.17,-647.62 1641.17,-647.62 1637.33,-647.62 1633.5,-643.78 1633.5,-639.95 1633.5,-639.95 1633.5,-632.28 1633.5,-632.28 1633.5,-628.45 1637.33,-624.62 1641.17,-624.62 1641.17,-624.62 1920.83,-624.62 1920.83,-624.62 1924.67,-624.62 1928.5,-628.45 1928.5,-632.28 1928.5,-632.28 1928.5,-639.95 1928.5,-639.95 1928.5,-643.78 1924.67,-647.62 1920.83,-647.62"/>
<text text-anchor="middle" x="1781" y="-632.42" font-family="Arial" font-size="14.00" fill="#c6c5fe">statements/validations/validateAccessToken.ts</text>
</g>
<!-- statements/validations/index.ts&#45;&gt;statements/validations/validateAccessToken.ts -->
<g id="edge92" class="edge">
<title>statements/validations/index.ts&#45;&gt;statements/validations/validateAccessToken.ts</title>
<path fill="none" stroke="#757575" d="M1435.64,-668.69C1498.26,-662.77 1579.78,-655.06 1647.77,-648.62"/>
<polygon fill="#757575" stroke="#757575" points="1648.51,-652.07 1658.13,-647.64 1647.85,-645.1 1648.51,-652.07"/>
</g>
<!-- statements/validations/validateAuthorizationCode.ts -->
<g id="node44" class="node">
<title>statements/validations/validateAuthorizationCode.ts</title>
<path fill="none" stroke="#c6c5fe" d="M1936.33,-606.62C1936.33,-606.62 1625.67,-606.62 1625.67,-606.62 1621.83,-606.62 1618,-602.78 1618,-598.95 1618,-598.95 1618,-591.28 1618,-591.28 1618,-587.45 1621.83,-583.62 1625.67,-583.62 1625.67,-583.62 1936.33,-583.62 1936.33,-583.62 1940.17,-583.62 1944,-587.45 1944,-591.28 1944,-591.28 1944,-598.95 1944,-598.95 1944,-602.78 1940.17,-606.62 1936.33,-606.62"/>
<text text-anchor="middle" x="1781" y="-591.42" font-family="Arial" font-size="14.00" fill="#c6c5fe">statements/validations/validateAuthorizationCode.ts</text>
</g>
<!-- statements/validations/index.ts&#45;&gt;statements/validations/validateAuthorizationCode.ts -->
<g id="edge93" class="edge">
<title>statements/validations/index.ts&#45;&gt;statements/validations/validateAuthorizationCode.ts</title>
<path fill="none" stroke="#757575" d="M1377.12,-666.57C1428.6,-652.52 1519.67,-628.94 1599,-615.12 1614.35,-612.44 1630.49,-610.05 1646.56,-607.94"/>
<polygon fill="#757575" stroke="#757575" points="1647.07,-611.41 1656.54,-606.67 1646.18,-604.46 1647.07,-611.41"/>
</g>
<!-- statements/validations/validateClientCredentials.ts -->
<g id="node45" class="node">
<title>statements/validations/validateClientCredentials.ts</title>
<path fill="none" stroke="#c6c5fe" d="M1932.33,-850.62C1932.33,-850.62 1629.67,-850.62 1629.67,-850.62 1625.83,-850.62 1622,-846.78 1622,-842.95 1622,-842.95 1622,-835.28 1622,-835.28 1622,-831.45 1625.83,-827.62 1629.67,-827.62 1629.67,-827.62 1932.33,-827.62 1932.33,-827.62 1936.17,-827.62 1940,-831.45 1940,-835.28 1940,-835.28 1940,-842.95 1940,-842.95 1940,-846.78 1936.17,-850.62 1932.33,-850.62"/>
<text text-anchor="middle" x="1781" y="-835.42" font-family="Arial" font-size="14.00" fill="#c6c5fe">statements/validations/validateClientCredentials.ts</text>
</g>
<!-- statements/validations/index.ts&#45;&gt;statements/validations/validateClientCredentials.ts -->
<g id="edge94" class="edge">
<title>statements/validations/index.ts&#45;&gt;statements/validations/validateClientCredentials.ts</title>
<path fill="none" stroke="#757575" d="M1407.31,-689.62C1455.52,-700.38 1518.29,-720.49 1563,-757.12 1587.35,-777.06 1572.61,-800.95 1599,-818.12 1603.36,-820.95 1607.91,-823.51 1612.61,-825.82"/>
<polygon fill="#757575" stroke="#757575" points="1611.25,-829.04 1621.8,-829.94 1614.11,-822.66 1611.25,-829.04"/>
</g>
<!-- statements/validations/validateCodeVerifier.ts -->
<g id="node46" class="node">
<title>statements/validations/validateCodeVerifier.ts</title>
<path fill="none" stroke="#c6c5fe" d="M1917.83,-688.62C1917.83,-688.62 1644.17,-688.62 1644.17,-688.62 1640.33,-688.62 1636.5,-684.78 1636.5,-680.95 1636.5,-680.95 1636.5,-673.28 1636.5,-673.28 1636.5,-669.45 1640.33,-665.62 1644.17,-665.62 1644.17,-665.62 1917.83,-665.62 1917.83,-665.62 1921.67,-665.62 1925.5,-669.45 1925.5,-673.28 1925.5,-673.28 1925.5,-680.95 1925.5,-680.95 1925.5,-684.78 1921.67,-688.62 1917.83,-688.62"/>
<text text-anchor="middle" x="1781" y="-673.42" font-family="Arial" font-size="14.00" fill="#c6c5fe">statements/validations/validateCodeVerifier.ts</text>
</g>
<!-- statements/validations/index.ts&#45;&gt;statements/validations/validateCodeVerifier.ts -->
<g id="edge95" class="edge">
<title>statements/validations/index.ts&#45;&gt;statements/validations/validateCodeVerifier.ts</title>
<path fill="none" stroke="#757575" d="M1435.64,-677.89C1491.83,-677.76 1563.21,-677.6 1626.41,-677.46"/>
<polygon fill="#757575" stroke="#757575" points="1626.48,-680.96 1636.47,-677.44 1626.47,-673.96 1626.48,-680.96"/>
</g>
<!-- statements/validations/validateCredentialConfigurations.ts -->
<g id="node47" class="node">
<title>statements/validations/validateCredentialConfigurations.ts</title>
<path fill="none" stroke="#c6c5fe" d="M1955.33,-932.62C1955.33,-932.62 1606.67,-932.62 1606.67,-932.62 1602.83,-932.62 1599,-928.78 1599,-924.95 1599,-924.95 1599,-917.28 1599,-917.28 1599,-913.45 1602.83,-909.62 1606.67,-909.62 1606.67,-909.62 1955.33,-909.62 1955.33,-909.62 1959.17,-909.62 1963,-913.45 1963,-917.28 1963,-917.28 1963,-924.95 1963,-924.95 1963,-928.78 1959.17,-932.62 1955.33,-932.62"/>
<text text-anchor="middle" x="1781" y="-917.42" font-family="Arial" font-size="14.00" fill="#c6c5fe">statements/validations/validateCredentialConfigurations.ts</text>
</g>
<!-- statements/validations/index.ts&#45;&gt;statements/validations/validateCredentialConfigurations.ts -->
<g id="edge96" class="edge">
<title>statements/validations/index.ts&#45;&gt;statements/validations/validateCredentialConfigurations.ts</title>
<path fill="none" stroke="#757575" d="M1429.79,-689.65C1475.9,-700.02 1528.77,-719.72 1563,-757.12 1607.25,-805.46 1549.72,-856.91 1599,-900.12 1600.35,-901.3 1601.73,-902.44 1603.13,-903.54"/>
<polygon fill="#757575" stroke="#757575" points="1601.27,-906.51 1611.46,-909.4 1605.3,-900.78 1601.27,-906.51"/>
</g>
<!-- statements/validations/validateDpop.ts -->
<g id="node48" class="node">
<title>statements/validations/validateDpop.ts</title>
<path fill="none" stroke="#c6c5fe" d="M1897.33,-524.62C1897.33,-524.62 1664.67,-524.62 1664.67,-524.62 1660.83,-524.62 1657,-520.78 1657,-516.95 1657,-516.95 1657,-509.28 1657,-509.28 1657,-505.45 1660.83,-501.62 1664.67,-501.62 1664.67,-501.62 1897.33,-501.62 1897.33,-501.62 1901.17,-501.62 1905,-505.45 1905,-509.28 1905,-509.28 1905,-516.95 1905,-516.95 1905,-520.78 1901.17,-524.62 1897.33,-524.62"/>
<text text-anchor="middle" x="1781" y="-509.42" font-family="Arial" font-size="14.00" fill="#c6c5fe">statements/validations/validateDpop.ts</text>
</g>
<!-- statements/validations/index.ts&#45;&gt;statements/validations/validateDpop.ts -->
<g id="edge97" class="edge">
<title>statements/validations/index.ts&#45;&gt;statements/validations/validateDpop.ts</title>
<path fill="none" stroke="#757575" d="M1351.6,-666.58C1390.8,-638.25 1497.61,-565.25 1599,-533.12 1614.22,-528.29 1630.49,-524.59 1646.79,-521.76"/>
<polygon fill="#757575" stroke="#757575" points="1647.63,-525.17 1656.93,-520.11 1646.5,-518.26 1647.63,-525.17"/>
</g>
<!-- statements/validations/validateIssuerState.ts -->
<g id="node49" class="node">
<title>statements/validations/validateIssuerState.ts</title>
<path fill="none" stroke="#c6c5fe" d="M1915.33,-406.62C1915.33,-406.62 1646.67,-406.62 1646.67,-406.62 1642.83,-406.62 1639,-402.78 1639,-398.95 1639,-398.95 1639,-391.28 1639,-391.28 1639,-387.45 1642.83,-383.62 1646.67,-383.62 1646.67,-383.62 1915.33,-383.62 1915.33,-383.62 1919.17,-383.62 1923,-387.45 1923,-391.28 1923,-391.28 1923,-398.95 1923,-398.95 1923,-402.78 1919.17,-406.62 1915.33,-406.62"/>
<text text-anchor="middle" x="1781" y="-391.42" font-family="Arial" font-size="14.00" fill="#c6c5fe">statements/validations/validateIssuerState.ts</text>
</g>
<!-- statements/validations/index.ts&#45;&gt;statements/validations/validateIssuerState.ts -->
<g id="edge98" class="edge">
<title>statements/validations/index.ts&#45;&gt;statements/validations/validateIssuerState.ts</title>
<path fill="none" stroke="#757575" d="M1350.97,-666.53C1390.43,-636.22 1501.01,-552.7 1599,-492.12 1649.24,-461.05 1710.27,-429.56 1747.08,-411.21"/>
<polygon fill="#757575" stroke="#757575" points="1748.94,-414.2 1756.34,-406.62 1745.82,-407.93 1748.94,-414.2"/>
</g>
<!-- statements/validations/validateProofs.ts -->
<g id="node50" class="node">
<title>statements/validations/validateProofs.ts</title>
<path fill="none" stroke="#c6c5fe" d="M1900.33,-565.62C1900.33,-565.62 1661.67,-565.62 1661.67,-565.62 1657.83,-565.62 1654,-561.78 1654,-557.95 1654,-557.95 1654,-550.28 1654,-550.28 1654,-546.45 1657.83,-542.62 1661.67,-542.62 1661.67,-542.62 1900.33,-542.62 1900.33,-542.62 1904.17,-542.62 1908,-546.45 1908,-550.28 1908,-550.28 1908,-557.95 1908,-557.95 1908,-561.78 1904.17,-565.62 1900.33,-565.62"/>
<text text-anchor="middle" x="1781" y="-550.42" font-family="Arial" font-size="14.00" fill="#c6c5fe">statements/validations/validateProofs.ts</text>
</g>
<!-- statements/validations/index.ts&#45;&gt;statements/validations/validateProofs.ts -->
<g id="edge99" class="edge">
<title>statements/validations/index.ts&#45;&gt;statements/validations/validateProofs.ts</title>
<path fill="none" stroke="#757575" d="M1359.23,-666.47C1404.25,-644.46 1507.03,-596.95 1599,-574.12 1613.35,-570.55 1628.49,-567.63 1643.66,-565.22"/>
<polygon fill="#757575" stroke="#757575" points="1644.26,-568.67 1653.63,-563.71 1643.22,-561.75 1644.26,-568.67"/>
</g>
<!-- statements/validations/validateRequestUri.ts -->
<g id="node51" class="node">
<title>statements/validations/validateRequestUri.ts</title>
<path fill="none" stroke="#c6c5fe" d="M1914.83,-729.62C1914.83,-729.62 1647.17,-729.62 1647.17,-729.62 1643.33,-729.62 1639.5,-725.78 1639.5,-721.95 1639.5,-721.95 1639.5,-714.28 1639.5,-714.28 1639.5,-710.45 1643.33,-706.62 1647.17,-706.62 1647.17,-706.62 1914.83,-706.62 1914.83,-706.62 1918.67,-706.62 1922.5,-710.45 1922.5,-714.28 1922.5,-714.28 1922.5,-721.95 1922.5,-721.95 1922.5,-725.78 1918.67,-729.62 1914.83,-729.62"/>
<text text-anchor="middle" x="1781" y="-714.42" font-family="Arial" font-size="14.00" fill="#c6c5fe">statements/validations/validateRequestUri.ts</text>
</g>
<!-- statements/validations/index.ts&#45;&gt;statements/validations/validateRequestUri.ts -->
<g id="edge100" class="edge">
<title>statements/validations/index.ts&#45;&gt;statements/validations/validateRequestUri.ts</title>
<path fill="none" stroke="#757575" d="M1435.64,-687.09C1496.44,-692.57 1575.04,-699.65 1641.8,-705.66"/>
<polygon fill="#757575" stroke="#757575" points="1641.71,-709.17 1651.98,-706.58 1642.34,-702.2 1641.71,-709.17"/>
</g>
<!-- statements/validations/validateResourceOwner.ts -->
<g id="node52" class="node">
<title>statements/validations/validateResourceOwner.ts</title>
<path fill="none" stroke="#c6c5fe" d="M1929.83,-809.62C1929.83,-809.62 1632.17,-809.62 1632.17,-809.62 1628.33,-809.62 1624.5,-805.78 1624.5,-801.95 1624.5,-801.95 1624.5,-794.28 1624.5,-794.28 1624.5,-790.45 1628.33,-786.62 1632.17,-786.62 1632.17,-786.62 1929.83,-786.62 1929.83,-786.62 1933.67,-786.62 1937.5,-790.45 1937.5,-794.28 1937.5,-794.28 1937.5,-801.95 1937.5,-801.95 1937.5,-805.78 1933.67,-809.62 1929.83,-809.62"/>
<text text-anchor="middle" x="1781" y="-794.42" font-family="Arial" font-size="14.00" fill="#c6c5fe">statements/validations/validateResourceOwner.ts</text>
</g>
<!-- statements/validations/index.ts&#45;&gt;statements/validations/validateResourceOwner.ts -->
<g id="edge101" class="edge">
<title>statements/validations/index.ts&#45;&gt;statements/validations/validateResourceOwner.ts</title>
<path fill="none" stroke="#757575" d="M1378.57,-689.62C1460.19,-711.68 1638.43,-759.85 1727.36,-783.89"/>
<polygon fill="#757575" stroke="#757575" points="1726.66,-787.33 1737.23,-786.56 1728.49,-780.57 1726.66,-787.33"/>
</g>
<!-- statements/validations/validateScope.ts -->
<g id="node53" class="node">
<title>statements/validations/validateScope.ts</title>
<path fill="none" stroke="#c6c5fe" d="M1900.33,-891.62C1900.33,-891.62 1661.67,-891.62 1661.67,-891.62 1657.83,-891.62 1654,-887.78 1654,-883.95 1654,-883.95 1654,-876.28 1654,-876.28 1654,-872.45 1657.83,-868.62 1661.67,-868.62 1661.67,-868.62 1900.33,-868.62 1900.33,-868.62 1904.17,-868.62 1908,-872.45 1908,-876.28 1908,-876.28 1908,-883.95 1908,-883.95 1908,-887.78 1904.17,-891.62 1900.33,-891.62"/>
<text text-anchor="middle" x="1781" y="-876.42" font-family="Arial" font-size="14.00" fill="#c6c5fe">statements/validations/validateScope.ts</text>
</g>
<!-- statements/validations/index.ts&#45;&gt;statements/validations/validateScope.ts -->
<g id="edge102" class="edge">
<title>statements/validations/index.ts&#45;&gt;statements/validations/validateScope.ts</title>
<path fill="none" stroke="#757575" d="M1422.5,-689.66C1469.51,-700.07 1525.52,-719.8 1563,-757.12 1597.07,-791.03 1561.42,-829.13 1599,-859.12 1612.23,-869.67 1627.83,-876.73 1644.24,-881.3"/>
<polygon fill="#757575" stroke="#757575" points="1643.44,-884.71 1653.99,-883.71 1645.12,-877.91 1643.44,-884.71"/>
</g>
<!-- statements/locations/authorizationCodeRedirection.ts&#45;&gt;resources.ts -->
<g id="edge72" class="edge">
<title>statements/locations/authorizationCodeRedirection.ts&#45;&gt;resources.ts</title>
<path fill="none" stroke="#757575" d="M1945.35,-1196.52C1951.43,-1194.07 1957.34,-1191.28 1963,-1188.12 1996.52,-1169.36 2020.74,-1130.24 2033.27,-1105.97"/>
<polygon fill="#757575" stroke="#757575" points="2036.47,-1107.4 2037.78,-1096.88 2030.2,-1104.29 2036.47,-1107.4"/>
</g>
<!-- statements/locations/generateAuthorizationRequestUri.ts&#45;&gt;constants.ts -->
<g id="edge73" class="edge">
<title>statements/locations/generateAuthorizationRequestUri.ts&#45;&gt;constants.ts</title>
<path fill="none" stroke="#757575" d="M1949.82,-1073.48C1954.39,-1070.99 1958.8,-1068.21 1963,-1065.12 2016.56,-1025.62 2034.73,-942.61 2040.51,-903.02"/>
<polygon fill="#757575" stroke="#757575" points="2043.98,-903.45 2041.83,-893.08 2037.04,-902.53 2043.98,-903.45"/>
</g>
<!-- statements/locations/generateAuthorizationRequestUri.ts&#45;&gt;resources.ts -->
<g id="edge74" class="edge">
<title>statements/locations/generateAuthorizationRequestUri.ts&#45;&gt;resources.ts</title>
<path fill="none" stroke="#757575" d="M1960.06,-1085.12C1970.14,-1085.12 1979.79,-1085.12 1988.7,-1085.12"/>
<polygon fill="#757575" stroke="#757575" points="1988.81,-1088.62 1998.81,-1085.12 1988.81,-1081.62 1988.81,-1088.62"/>
</g>
<!-- statements/locations/generateCredentialOffer.ts&#45;&gt;errors.ts -->
<g id="edge75" class="edge">
<title>statements/locations/generateCredentialOffer.ts&#45;&gt;errors.ts</title>
<path fill="none" stroke="#757575" d="M1932.63,-1043.27C1943.75,-1038.64 1954.08,-1032.4 1963,-1024.12 1970.66,-1017 2024.63,-702.96 2039.32,-616.79"/>
<polygon fill="#757575" stroke="#757575" points="2042.79,-617.26 2041.01,-606.82 2035.89,-616.09 2042.79,-617.26"/>
</g>
<!-- statements/locations/generateCredentialOffer.ts&#45;&gt;resources.ts -->
<g id="edge76" class="edge">
<title>statements/locations/generateCredentialOffer.ts&#45;&gt;resources.ts</title>
<path fill="none" stroke="#757575" d="M1900.62,-1055.65C1921.48,-1058.31 1942.93,-1061.46 1963,-1065.12 1972.21,-1066.79 1981.93,-1068.92 1991.3,-1071.15"/>
<polygon fill="#757575" stroke="#757575" points="1990.74,-1074.62 2001.29,-1073.6 1992.41,-1067.82 1990.74,-1074.62"/>
</g>
<!-- statements/resources/issuerClient.ts&#45;&gt;resources.ts -->
<g id="edge81" class="edge">
<title>statements/resources/issuerClient.ts&#45;&gt;resources.ts</title>
<path fill="none" stroke="#757575" d="M1898.73,-1252.51C1921.44,-1248.82 1944.05,-1241.72 1963,-1229.12 2006.43,-1200.23 2028.58,-1139.41 2037.73,-1106.83"/>
<polygon fill="#757575" stroke="#757575" points="2041.17,-1107.5 2040.35,-1096.94 2034.41,-1105.71 2041.17,-1107.5"/>
</g>
<!-- statements/tokens/generateAccessToken.ts&#45;&gt;resources.ts -->
<g id="edge82" class="edge">
<title>statements/tokens/generateAccessToken.ts&#45;&gt;resources.ts</title>
<path fill="none" stroke="#757575" d="M1920.36,-1159.84C1935.04,-1156.71 1949.52,-1152.57 1963,-1147.12 1986.99,-1137.4 2009.87,-1118.34 2024.96,-1103.9"/>
<polygon fill="#757575" stroke="#757575" points="2027.45,-1106.36 2032.11,-1096.84 2022.53,-1101.38 2027.45,-1106.36"/>
</g>
<!-- statements/tokens/generateAuthorizationCode.ts&#45;&gt;errors.ts -->
<g id="edge83" class="edge">
<title>statements/tokens/generateAuthorizationCode.ts&#45;&gt;errors.ts</title>
<path fill="none" stroke="#757575" d="M1935.72,-959.39C1945.61,-955.03 1954.85,-949.37 1963,-942.12 1987.88,-919.98 2027.54,-689.35 2039.49,-616.82"/>
<polygon fill="#757575" stroke="#757575" points="2042.94,-617.38 2041.1,-606.95 2036.03,-616.25 2042.94,-617.38"/>
</g>
<!-- statements/tokens/generateAuthorizationCode.ts&#45;&gt;resources.ts -->
<g id="edge84" class="edge">
<title>statements/tokens/generateAuthorizationCode.ts&#45;&gt;resources.ts</title>
<path fill="none" stroke="#757575" d="M1935.85,-971.16C1945.31,-974.38 1954.44,-978.32 1963,-983.12 1996.31,-1001.77 2020.6,-1040.49 2033.2,-1064.49"/>
<polygon fill="#757575" stroke="#757575" points="2030.11,-1066.13 2037.73,-1073.48 2036.36,-1062.98 2030.11,-1066.13"/>
</g>
<!-- statements/tokens/generateCNonce.ts&#45;&gt;resources.ts -->
<g id="edge85" class="edge">
<title>statements/tokens/generateCNonce.ts&#45;&gt;resources.ts</title>
<path fill="none" stroke="#757575" d="M1904.55,-1115.04C1924.17,-1112.56 1944.19,-1109.6 1963,-1106.12 1973.06,-1104.25 1983.72,-1101.8 1993.86,-1099.23"/>
<polygon fill="#757575" stroke="#757575" points="1995,-1102.55 2003.79,-1096.63 1993.23,-1095.77 1995,-1102.55"/>
</g>
<!-- statements/tokens/generateCredentials.ts&#45;&gt;errors.ts -->
<g id="edge86" class="edge">
<title>statements/tokens/generateCredentials.ts&#45;&gt;errors.ts</title>
<path fill="none" stroke="#757575" d="M1914.09,-1008.13C1932.16,-1003.51 1949.21,-995.68 1963,-983.12 1976.9,-970.45 2025.44,-696.22 2039.29,-616.61"/>
<polygon fill="#757575" stroke="#757575" points="2042.74,-617.16 2041,-606.71 2035.85,-615.97 2042.74,-617.16"/>
</g>
<!-- statements/tokens/generateCredentials.ts&#45;&gt;resources.ts -->
<g id="edge87" class="edge">
<title>statements/tokens/generateCredentials.ts&#45;&gt;resources.ts</title>
<path fill="none" stroke="#757575" d="M1914.09,-1010.05C1930.9,-1013.35 1947.6,-1017.9 1963,-1024.12 1986.51,-1033.6 2009.07,-1051.93 2024.21,-1066.04"/>
<polygon fill="#757575" stroke="#757575" points="2022.18,-1068.94 2031.81,-1073.35 2027.03,-1063.9 2022.18,-1068.94"/>
</g>
<!-- statements/validations/validateAccessToken.ts&#45;&gt;crypto.ts -->
<g id="edge103" class="edge">
<title>statements/validations/validateAccessToken.ts&#45;&gt;crypto.ts</title>
<path fill="none" stroke="#757575" d="M1928.59,-628.64C1940.58,-625.2 1952.21,-620.77 1963,-615.12 1984.48,-603.86 1979.53,-588.57 1999,-574.12 2000.57,-572.95 2002.21,-571.84 2003.91,-570.77"/>
<polygon fill="#757575" stroke="#757575" points="2005.69,-573.78 2012.69,-565.82 2002.26,-567.68 2005.69,-573.78"/>
</g>
<!-- statements/validations/validateAccessToken.ts&#45;&gt;errors.ts -->
<g id="edge104" class="edge">
<title>statements/validations/validateAccessToken.ts&#45;&gt;errors.ts</title>
<path fill="none" stroke="#757575" d="M1900.62,-624.58C1921.48,-621.92 1942.93,-618.77 1963,-615.12 1975.43,-612.85 1988.81,-609.77 2000.99,-606.7"/>
<polygon fill="#757575" stroke="#757575" points="2002.09,-610.03 2010.9,-604.15 2000.34,-603.26 2002.09,-610.03"/>
</g>
<!-- statements/validations/validateAccessToken.ts&#45;&gt;resources.ts -->
<g id="edge105" class="edge">
<title>statements/validations/validateAccessToken.ts&#45;&gt;resources.ts</title>
<path fill="none" stroke="#757575" d="M1928.64,-634.84C1941.34,-639.69 1953.1,-646.57 1963,-656.12 2002.6,-694.32 1988.59,-847.08 1999,-901.12 2010.44,-960.48 2028.18,-1029.61 2037.24,-1063.76"/>
<polygon fill="#757575" stroke="#757575" points="2033.9,-1064.81 2039.86,-1073.57 2040.66,-1063 2033.9,-1064.81"/>
</g>
<!-- statements/validations/validateAuthorizationCode.ts&#45;&gt;crypto.ts -->
<g id="edge106" class="edge">
<title>statements/validations/validateAuthorizationCode.ts&#45;&gt;crypto.ts</title>
<path fill="none" stroke="#757575" d="M1900.62,-583.58C1921.48,-580.92 1942.93,-577.77 1963,-574.12 1975.1,-571.91 1988.1,-568.93 2000.02,-565.95"/>
<polygon fill="#757575" stroke="#757575" points="2000.92,-569.33 2009.74,-563.46 1999.18,-562.55 2000.92,-569.33"/>
</g>
<!-- statements/validations/validateAuthorizationCode.ts&#45;&gt;errors.ts -->
<g id="edge107" class="edge">
<title>statements/validations/validateAuthorizationCode.ts&#45;&gt;errors.ts</title>
<path fill="none" stroke="#757575" d="M1944.33,-595.12C1965.08,-595.12 1984.68,-595.12 2000.87,-595.12"/>
<polygon fill="#757575" stroke="#757575" points="2000.99,-598.62 2010.99,-595.12 2000.99,-591.62 2000.99,-598.62"/>
</g>
<!-- statements/validations/validateAuthorizationCode.ts&#45;&gt;resources.ts -->
<g id="edge108" class="edge">
<title>statements/validations/validateAuthorizationCode.ts&#45;&gt;resources.ts</title>
<path fill="none" stroke="#757575" d="M1944,-600.8C1950.86,-604.73 1957.26,-609.46 1963,-615.12 2008.64,-660.07 1987.53,-838.09 1999,-901.12 2009.82,-960.6 2027.83,-1029.67 2037.1,-1063.79"/>
<polygon fill="#757575" stroke="#757575" points="2033.76,-1064.86 2039.78,-1073.58 2040.51,-1063.01 2033.76,-1064.86"/>
</g>
<!-- statements/validations/validateClientCredentials.ts&#45;&gt;errors.ts -->
<g id="edge109" class="edge">
<title>statements/validations/validateClientCredentials.ts&#45;&gt;errors.ts</title>
<path fill="none" stroke="#757575" d="M1940.04,-832.12C1948.21,-828.34 1955.94,-823.72 1963,-818.12 2026.56,-767.67 2039.67,-662.54 2042.34,-616.97"/>
<polygon fill="#757575" stroke="#757575" points="2045.84,-616.89 2042.81,-606.73 2038.85,-616.56 2045.84,-616.89"/>
</g>
<!-- statements/validations/validateClientCredentials.ts&#45;&gt;resources.ts -->
<g id="edge110" class="edge">
<title>statements/validations/validateClientCredentials.ts&#45;&gt;resources.ts</title>
<path fill="none" stroke="#757575" d="M1940.04,-845.17C1948.21,-848.92 1955.94,-853.52 1963,-859.12 1996.12,-885.37 2027.04,-1012.21 2038.41,-1063.51"/>
<polygon fill="#757575" stroke="#757575" points="2035.04,-1064.49 2040.59,-1073.52 2041.88,-1063 2035.04,-1064.49"/>
</g>
<!-- statements/validations/validateCodeVerifier.ts&#45;&gt;errors.ts -->
<g id="edge111" class="edge">
<title>statements/validations/validateCodeVerifier.ts&#45;&gt;errors.ts</title>
<path fill="none" stroke="#757575" d="M1925.58,-667.72C1938.47,-664.71 1951.12,-660.91 1963,-656.12 1986.51,-646.63 2009.07,-628.3 2024.21,-614.19"/>
<polygon fill="#757575" stroke="#757575" points="2027.03,-616.33 2031.81,-606.88 2022.18,-611.29 2027.03,-616.33"/>
</g>
<!-- statements/validations/validateCredentialConfigurations.ts&#45;&gt;resources.ts -->
<g id="edge112" class="edge">
<title>statements/validations/validateCredentialConfigurations.ts&#45;&gt;resources.ts</title>
<path fill="none" stroke="#757575" d="M1946.44,-932.8C1952.19,-935.52 1957.74,-938.61 1963,-942.12 2006.17,-970.9 2028.43,-1031.25 2037.67,-1063.58"/>
<polygon fill="#757575" stroke="#757575" points="2034.33,-1064.64 2040.31,-1073.39 2041.09,-1062.82 2034.33,-1064.64"/>
</g>
<!-- statements/validations/validateDpop.ts&#45;&gt;errors.ts -->
<g id="edge113" class="edge">
<title>statements/validations/validateDpop.ts&#45;&gt;errors.ts</title>
<path fill="none" stroke="#757575" d="M1905.39,-514.39C1925.4,-518.03 1945.33,-523.92 1963,-533.12 1984.51,-544.32 1979.66,-559.48 1999,-574.12 2001.01,-575.63 2003.14,-577.08 2005.35,-578.46"/>
<polygon fill="#757575" stroke="#757575" points="2003.66,-581.53 2014.09,-583.39 2007.1,-575.43 2003.66,-581.53"/>
</g>
<!-- statements/validations/validateIssuerState.ts&#45;&gt;crypto.ts -->
<g id="edge114" class="edge">
<title>statements/validations/validateIssuerState.ts&#45;&gt;crypto.ts</title>
<path fill="none" stroke="#757575" d="M1923.01,-402.6C1937.19,-407.03 1950.83,-413.04 1963,-421.12 2003.37,-447.91 2026.49,-502.67 2036.68,-532.9"/>
<polygon fill="#757575" stroke="#757575" points="2033.37,-534.03 2039.76,-542.48 2040.04,-531.89 2033.37,-534.03"/>
</g>
<!-- statements/validations/validateIssuerState.ts&#45;&gt;errors.ts -->
<g id="edge115" class="edge">
<title>statements/validations/validateIssuerState.ts&#45;&gt;errors.ts</title>
<path fill="none" stroke="#757575" d="M1923.14,-398.02C1937.81,-403.18 1951.53,-410.61 1963,-421.12 2014.53,-468.28 1955.17,-519.72 1999,-574.12 2000.1,-575.47 2001.3,-576.75 2002.59,-577.95"/>
<polygon fill="#757575" stroke="#757575" points="2000.61,-580.84 2010.72,-583.99 2004.78,-575.22 2000.61,-580.84"/>
</g>
<!-- statements/validations/validateProofs.ts&#45;&gt;crypto.ts -->
<g id="edge116" class="edge">
<title>statements/validations/validateProofs.ts&#45;&gt;crypto.ts</title>
<path fill="none" stroke="#757575" d="M1908.3,-554.12C1941.2,-554.12 1974.46,-554.12 1999.7,-554.12"/>
<polygon fill="#757575" stroke="#757575" points="2000,-557.62 2010,-554.12 2000,-550.62 2000,-557.62"/>
</g>
<!-- statements/validations/validateProofs.ts&#45;&gt;errors.ts -->
<g id="edge117" class="edge">
<title>statements/validations/validateProofs.ts&#45;&gt;errors.ts</title>
<path fill="none" stroke="#757575" d="M1907.96,-565.63C1926.48,-568.02 1945.28,-570.83 1963,-574.12 1975.46,-576.43 1988.85,-579.64 2001.03,-582.86"/>
<polygon fill="#757575" stroke="#757575" points="2000.37,-586.31 2010.94,-585.55 2002.2,-579.55 2000.37,-586.31"/>
</g>
<!-- statements/validations/validateProofs.ts&#45;&gt;resources.ts -->
<g id="edge118" class="edge">
<title>statements/validations/validateProofs.ts&#45;&gt;resources.ts</title>
<path fill="none" stroke="#757575" d="M1908.27,-546.33C1928.78,-550.75 1948.14,-559.25 1963,-574.12 2014.68,-625.82 1986.47,-829.09 1999,-901.12 2009.36,-960.68 2027.57,-1029.72 2036.99,-1063.81"/>
<polygon fill="#757575" stroke="#757575" points="2033.66,-1064.9 2039.71,-1073.6 2040.4,-1063.02 2033.66,-1064.9"/>
</g>
<!-- statements/validations/validateRequestUri.ts&#45;&gt;constants.ts -->
<g id="edge119" class="edge">
<title>statements/validations/validateRequestUri.ts&#45;&gt;constants.ts</title>
<path fill="none" stroke="#757575" d="M1848.31,-729.72C1884.61,-738.42 1928.99,-753.08 1963,-777.12 1994.26,-799.2 2018.94,-837.09 2032.22,-860.53"/>
<polygon fill="#757575" stroke="#757575" points="2029.32,-862.51 2037.2,-869.6 2035.46,-859.15 2029.32,-862.51"/>
</g>
<!-- statements/validations/validateRequestUri.ts&#45;&gt;crypto.ts -->
<g id="edge120" class="edge">
<title>statements/validations/validateRequestUri.ts&#45;&gt;crypto.ts</title>
<path fill="none" stroke="#757575" d="M1922.86,-718.59C1937.49,-713.91 1951.27,-707.01 1963,-697.12 2006.54,-660.39 1961.68,-617.15 1999,-574.12 1999.74,-573.26 2000.53,-572.44 2001.35,-571.65"/>
<polygon fill="#757575" stroke="#757575" points="2003.72,-574.25 2009.59,-565.43 1999.5,-568.66 2003.72,-574.25"/>
</g>
<!-- statements/validations/validateRequestUri.ts&#45;&gt;errors.ts -->
<g id="edge121" class="edge">
<title>statements/validations/validateRequestUri.ts&#45;&gt;errors.ts</title>
<path fill="none" stroke="#757575" d="M1922.88,-713.01C1936.93,-709.23 1950.58,-704.07 1963,-697.12 1996.31,-678.46 2020.6,-639.74 2033.2,-615.74"/>
<polygon fill="#757575" stroke="#757575" points="2036.36,-617.26 2037.73,-606.75 2030.11,-614.1 2036.36,-617.26"/>
</g>
<!-- statements/validations/validateRequestUri.ts&#45;&gt;resources.ts -->
<g id="edge122" class="edge">
<title>statements/validations/validateRequestUri.ts&#45;&gt;resources.ts</title>
<path fill="none" stroke="#757575" d="M1874.15,-729.7C1906.15,-738.07 1939.79,-752.44 1963,-777.12 1973.11,-787.86 2022.05,-995.11 2037.98,-1063.46"/>
<polygon fill="#757575" stroke="#757575" points="2034.64,-1064.58 2040.32,-1073.52 2041.46,-1062.99 2034.64,-1064.58"/>
</g>
<!-- statements/validations/validateResourceOwner.ts&#45;&gt;errors.ts -->
<g id="edge123" class="edge">
<title>statements/validations/validateResourceOwner.ts&#45;&gt;errors.ts</title>
<path fill="none" stroke="#757575" d="M1937.89,-786.68C1946.79,-782.73 1955.26,-777.93 1963,-772.12 2014.03,-733.76 2033.34,-655.34 2039.93,-617.08"/>
<polygon fill="#757575" stroke="#757575" points="2043.42,-617.43 2041.53,-607.01 2036.51,-616.33 2043.42,-617.43"/>
</g>
<!-- statements/validations/validateResourceOwner.ts&#45;&gt;resources.ts -->
<g id="edge124" class="edge">
<title>statements/validations/validateResourceOwner.ts&#45;&gt;resources.ts</title>
<path fill="none" stroke="#757575" d="M1937.8,-802.57C1946.84,-806.63 1955.35,-811.74 1963,-818.12 1982.46,-834.34 2023.63,-1002.76 2037.96,-1063.46"/>
<polygon fill="#757575" stroke="#757575" points="2034.62,-1064.55 2040.31,-1073.48 2041.43,-1062.95 2034.62,-1064.55"/>
</g>
<!-- statements/validations/validateScope.ts&#45;&gt;errors.ts -->
<g id="edge125" class="edge">
<title>statements/validations/validateScope.ts&#45;&gt;errors.ts</title>
<path fill="none" stroke="#757575" d="M1908.03,-884.41C1928.08,-880.02 1947.34,-872.2 1963,-859.12 2037.31,-797.02 2044.14,-668.31 2043.73,-616.96"/>
<polygon fill="#757575" stroke="#757575" points="2047.23,-616.63 2043.54,-606.7 2040.23,-616.76 2047.23,-616.63"/>
</g>
<!-- statements/validations/validateScope.ts&#45;&gt;resources.ts -->
<g id="edge126" class="edge">
<title>statements/validations/validateScope.ts&#45;&gt;resources.ts</title>
<path fill="none" stroke="#757575" d="M1908.2,-876.9C1927.88,-881.06 1946.98,-888.28 1963,-900.12 2016.91,-939.95 2034.93,-1023.74 2040.59,-1063.41"/>
<polygon fill="#757575" stroke="#757575" points="2037.15,-1064.1 2041.9,-1073.57 2044.09,-1063.21 2037.15,-1064.1"/>
</g>
</g>
</svg>
