<?xml version="1.0" encoding="UTF-8" standalone="no"?>
<!DOCTYPE svg PUBLIC "-//W3C//DTD SVG 1.1//EN"
 "http://www.w3.org/Graphics/SVG/1.1/DTD/svg11.dtd">
<!-- Generated by graphviz version 2.43.0 (0)
 -->
<!-- Title: G Pages: 1 -->
<svg width="2097pt" height="735pt"
 viewBox="0.00 0.00 2097.20 734.84" xmlns="http://www.w3.org/2000/svg" xmlns:xlink="http://www.w3.org/1999/xlink">
<g id="graph0" class="graph" transform="scale(1 1) rotate(0) translate(21.6 713.24)">
<title>G</title>
<polygon fill="#111111" stroke="transparent" points="-21.6,21.6 -21.6,-713.24 2075.6,-713.24 2075.6,21.6 -21.6,21.6"/>
<!-- config.ts -->
<g id="node1" class="node">
<title>config.ts</title>
<path fill="none" stroke="#c6c5fe" d="M733.33,-540C733.33,-540 681.67,-540 681.67,-540 677.83,-540 674,-536.17 674,-532.33 674,-532.33 674,-524.67 674,-524.67 674,-520.83 677.83,-517 681.67,-517 681.67,-517 733.33,-517 733.33,-517 737.17,-517 741,-520.83 741,-524.67 741,-524.67 741,-532.33 741,-532.33 741,-536.17 737.17,-540 733.33,-540"/>
<text text-anchor="middle" x="707.5" y="-524.8" font-family="Arial" font-size="14.00" fill="#c6c5fe">config.ts</text>
</g>
<!-- ports.ts -->
<g id="node2" class="node">
<title>ports.ts</title>
<path fill="none" stroke="#c6c5fe" d="M1917.83,-502C1917.83,-502 1872.17,-502 1872.17,-502 1868.33,-502 1864.5,-498.17 1864.5,-494.33 1864.5,-494.33 1864.5,-486.67 1864.5,-486.67 1864.5,-482.83 1868.33,-479 1872.17,-479 1872.17,-479 1917.83,-479 1917.83,-479 1921.67,-479 1925.5,-482.83 1925.5,-486.67 1925.5,-486.67 1925.5,-494.33 1925.5,-494.33 1925.5,-498.17 1921.67,-502 1917.83,-502"/>
<text text-anchor="middle" x="1895" y="-486.8" font-family="Arial" font-size="14.00" fill="#c6c5fe">ports.ts</text>
</g>
<!-- config.ts&#45;&gt;ports.ts -->
<g id="edge1" class="edge">
<title>config.ts&#45;&gt;ports.ts</title>
<path fill="none" stroke="#757575" d="M741.25,-531.36C876.19,-542.46 1402.01,-578.78 1826,-511.5 1835.41,-510.01 1845.32,-507.51 1854.58,-504.74"/>
<polygon fill="#757575" stroke="#757575" points="1855.82,-508.02 1864.31,-501.68 1853.72,-501.35 1855.82,-508.02"/>
</g>
<!-- resources.ts -->
<g id="node3" class="node">
<title>resources.ts</title>
<path fill="none" stroke="#cfffac" d="M2046.33,-481C2046.33,-481 1971.67,-481 1971.67,-481 1967.83,-481 1964,-477.17 1964,-473.33 1964,-473.33 1964,-465.67 1964,-465.67 1964,-461.83 1967.83,-458 1971.67,-458 1971.67,-458 2046.33,-458 2046.33,-458 2050.17,-458 2054,-461.83 2054,-465.67 2054,-465.67 2054,-473.33 2054,-473.33 2054,-477.17 2050.17,-481 2046.33,-481"/>
<text text-anchor="middle" x="2009" y="-465.8" font-family="Arial" font-size="14.00" fill="#cfffac">resources.ts</text>
</g>
<!-- config.ts&#45;&gt;resources.ts -->
<g id="edge2" class="edge">
<title>config.ts&#45;&gt;resources.ts</title>
<path fill="none" stroke="#757575" d="M721.94,-540.28C746.53,-561 801.27,-603.39 856,-620.5 1066.22,-686.24 1130.74,-644.5 1351,-644.5 1351,-644.5 1351,-644.5 1673.5,-644.5 1787.11,-644.5 1833.52,-683.6 1928,-620.5 1973.64,-590.02 1995.09,-524.75 2003.48,-490.88"/>
<polygon fill="#757575" stroke="#757575" points="2006.91,-491.6 2005.76,-481.07 2000.09,-490.02 2006.91,-491.6"/>
</g>
<!-- ports.ts&#45;&gt;resources.ts -->
<g id="edge30" class="edge">
<title>ports.ts&#45;&gt;resources.ts</title>
<path fill="none" stroke="#757575" d="M1925.72,-484.93C1934.38,-483.3 1944.12,-481.48 1953.79,-479.66"/>
<polygon fill="#757575" stroke="#757575" points="1954.61,-483.07 1963.79,-477.79 1953.32,-476.19 1954.61,-483.07"/>
</g>
<!-- core.ts -->
<g id="node4" class="node">
<title>core.ts</title>
<path fill="none" stroke="#c6c5fe" d="M148.33,-501C148.33,-501 106.67,-501 106.67,-501 102.83,-501 99,-497.17 99,-493.33 99,-493.33 99,-485.67 99,-485.67 99,-481.83 102.83,-478 106.67,-478 106.67,-478 148.33,-478 148.33,-478 152.17,-478 156,-481.83 156,-485.67 156,-485.67 156,-493.33 156,-493.33 156,-497.17 152.17,-501 148.33,-501"/>
<text text-anchor="middle" x="127.5" y="-485.8" font-family="Arial" font-size="14.00" fill="#c6c5fe">core.ts</text>
</g>
<!-- core.ts&#45;&gt;config.ts -->
<g id="edge3" class="edge">
<title>core.ts&#45;&gt;config.ts</title>
<path fill="none" stroke="#757575" d="M156.22,-490.91C224.64,-494.44 407.05,-504.22 559,-515.5 594.16,-518.11 633.99,-521.66 663.38,-524.38"/>
<polygon fill="#757575" stroke="#757575" points="663.43,-527.9 673.71,-525.35 664.08,-520.93 663.43,-527.9"/>
</g>
<!-- handlers/index.ts -->
<g id="node5" class="node">
<title>handlers/index.ts</title>
<path fill="none" stroke="#c6c5fe" d="M303.33,-379C303.33,-379 199.67,-379 199.67,-379 195.83,-379 192,-375.17 192,-371.33 192,-371.33 192,-363.67 192,-363.67 192,-359.83 195.83,-356 199.67,-356 199.67,-356 303.33,-356 303.33,-356 307.17,-356 311,-359.83 311,-363.67 311,-363.67 311,-371.33 311,-371.33 311,-375.17 307.17,-379 303.33,-379"/>
<text text-anchor="middle" x="251.5" y="-363.8" font-family="Arial" font-size="14.00" fill="#c6c5fe">handlers/index.ts</text>
</g>
<!-- core.ts&#45;&gt;handlers/index.ts -->
<g id="edge4" class="edge">
<title>core.ts&#45;&gt;handlers/index.ts</title>
<path fill="none" stroke="#757575" d="M140.2,-477.8C161.28,-456.72 205.82,-412.18 231.38,-386.62"/>
<polygon fill="#757575" stroke="#757575" points="234.06,-388.89 238.66,-379.34 229.11,-383.94 234.06,-388.89"/>
</g>
<!-- handlers/authorization.handler.ts -->
<g id="node7" class="node">
<title>handlers/authorization.handler.ts</title>
<path fill="none" stroke="#c6c5fe" d="M551.33,-379C551.33,-379 354.67,-379 354.67,-379 350.83,-379 347,-375.17 347,-371.33 347,-371.33 347,-363.67 347,-363.67 347,-359.83 350.83,-356 354.67,-356 354.67,-356 551.33,-356 551.33,-356 555.17,-356 559,-359.83 559,-363.67 559,-363.67 559,-371.33 559,-371.33 559,-375.17 555.17,-379 551.33,-379"/>
<text text-anchor="middle" x="453" y="-363.8" font-family="Arial" font-size="14.00" fill="#c6c5fe">handlers/authorization.handler.ts</text>
</g>
<!-- handlers/index.ts&#45;&gt;handlers/authorization.handler.ts -->
<g id="edge10" class="edge">
<title>handlers/index.ts&#45;&gt;handlers/authorization.handler.ts</title>
<path fill="none" stroke="#757575" d="M311.01,-367.5C319.11,-367.5 327.65,-367.5 336.35,-367.5"/>
<polygon fill="#757575" stroke="#757575" points="336.63,-371 346.63,-367.5 336.63,-364 336.63,-371"/>
</g>
<!-- handlers/location.handler.ts -->
<g id="node10" class="node">
<title>handlers/location.handler.ts</title>
<path fill="none" stroke="#c6c5fe" d="M535.83,-260C535.83,-260 370.17,-260 370.17,-260 366.33,-260 362.5,-256.17 362.5,-252.33 362.5,-252.33 362.5,-244.67 362.5,-244.67 362.5,-240.83 366.33,-237 370.17,-237 370.17,-237 535.83,-237 535.83,-237 539.67,-237 543.5,-240.83 543.5,-244.67 543.5,-244.67 543.5,-252.33 543.5,-252.33 543.5,-256.17 539.67,-260 535.83,-260"/>
<text text-anchor="middle" x="453" y="-244.8" font-family="Arial" font-size="14.00" fill="#c6c5fe">handlers/location.handler.ts</text>
</g>
<!-- handlers/index.ts&#45;&gt;handlers/location.handler.ts -->
<g id="edge11" class="edge">
<title>handlers/index.ts&#45;&gt;handlers/location.handler.ts</title>
<path fill="none" stroke="#757575" d="M271.99,-355.87C307.45,-334.72 382.63,-289.88 423.72,-265.37"/>
<polygon fill="#757575" stroke="#757575" points="425.63,-268.3 432.43,-260.17 422.05,-262.29 425.63,-268.3"/>
</g>
<!-- errors.ts -->
<g id="node6" class="node">
<title>errors.ts</title>
<path fill="none" stroke="#cfffac" d="M1920.33,-279C1920.33,-279 1869.67,-279 1869.67,-279 1865.83,-279 1862,-275.17 1862,-271.33 1862,-271.33 1862,-263.67 1862,-263.67 1862,-259.83 1865.83,-256 1869.67,-256 1869.67,-256 1920.33,-256 1920.33,-256 1924.17,-256 1928,-259.83 1928,-263.67 1928,-263.67 1928,-271.33 1928,-271.33 1928,-275.17 1924.17,-279 1920.33,-279"/>
<text text-anchor="middle" x="1895" y="-263.8" font-family="Arial" font-size="14.00" fill="#cfffac">errors.ts</text>
</g>
<!-- handlers/authorization.handler.ts&#45;&gt;config.ts -->
<g id="edge5" class="edge">
<title>handlers/authorization.handler.ts&#45;&gt;config.ts</title>
<path fill="none" stroke="#757575" d="M464.52,-379.04C491.71,-408.59 564.31,-485.88 595,-502.5 616.12,-513.94 642.15,-520.37 663.75,-523.98"/>
<polygon fill="#757575" stroke="#757575" points="663.23,-527.44 673.64,-525.49 664.28,-520.52 663.23,-527.44"/>
</g>
<!-- handlers/authorization.handler.ts&#45;&gt;resources.ts -->
<g id="edge8" class="edge">
<title>handlers/authorization.handler.ts&#45;&gt;resources.ts</title>
<path fill="none" stroke="#757575" d="M487.8,-379.03C628.93,-426.77 1172.11,-606.5 1351,-606.5 1351,-606.5 1351,-606.5 1673.5,-606.5 1742.11,-606.5 1761.69,-606.4 1826,-582.5 1888.72,-559.19 1953.18,-512.83 1985.95,-487.33"/>
<polygon fill="#757575" stroke="#757575" points="1988.26,-489.96 1993.95,-481.03 1983.93,-484.47 1988.26,-489.96"/>
</g>
<!-- handlers/authorization.handler.ts&#45;&gt;errors.ts -->
<g id="edge6" class="edge">
<title>handlers/authorization.handler.ts&#45;&gt;errors.ts</title>
<path fill="none" stroke="#757575" d="M488.64,-355.98C516.93,-347.04 558.12,-335.1 595,-328.5 709.59,-308.01 739.8,-313.43 856,-306.5 1286.61,-280.82 1395.26,-295.88 1826,-272.5 1834.32,-272.05 1843.2,-271.47 1851.71,-270.86"/>
<polygon fill="#757575" stroke="#757575" points="1852.13,-274.34 1861.85,-270.12 1851.62,-267.36 1852.13,-274.34"/>
</g>
<!-- handlers/schemas/index.ts -->
<g id="node8" class="node">
<title>handlers/schemas/index.ts</title>
<path fill="none" stroke="#c6c5fe" d="M788.33,-379C788.33,-379 626.67,-379 626.67,-379 622.83,-379 619,-375.17 619,-371.33 619,-371.33 619,-363.67 619,-363.67 619,-359.83 622.83,-356 626.67,-356 626.67,-356 788.33,-356 788.33,-356 792.17,-356 796,-359.83 796,-363.67 796,-363.67 796,-371.33 796,-371.33 796,-375.17 792.17,-379 788.33,-379"/>
<text text-anchor="middle" x="707.5" y="-363.8" font-family="Arial" font-size="14.00" fill="#c6c5fe">handlers/schemas/index.ts</text>
</g>
<!-- handlers/authorization.handler.ts&#45;&gt;handlers/schemas/index.ts -->
<g id="edge7" class="edge">
<title>handlers/authorization.handler.ts&#45;&gt;handlers/schemas/index.ts</title>
<path fill="none" stroke="#757575" d="M559.25,-367.5C575.46,-367.5 592.14,-367.5 608.19,-367.5"/>
<polygon fill="#757575" stroke="#757575" points="608.63,-371 618.63,-367.5 608.63,-364 608.63,-371"/>
</g>
<!-- statements/index.ts -->
<g id="node9" class="node">
<title>statements/index.ts</title>
<path fill="none" stroke="#c6c5fe" d="M1079.83,-338C1079.83,-338 961.17,-338 961.17,-338 957.33,-338 953.5,-334.17 953.5,-330.33 953.5,-330.33 953.5,-322.67 953.5,-322.67 953.5,-318.83 957.33,-315 961.17,-315 961.17,-315 1079.83,-315 1079.83,-315 1083.67,-315 1087.5,-318.83 1087.5,-322.67 1087.5,-322.67 1087.5,-330.33 1087.5,-330.33 1087.5,-334.17 1083.67,-338 1079.83,-338"/>
<text text-anchor="middle" x="1020.5" y="-322.8" font-family="Arial" font-size="14.00" fill="#c6c5fe">statements/index.ts</text>
</g>
<!-- handlers/authorization.handler.ts&#45;&gt;statements/index.ts -->
<g id="edge9" class="edge">
<title>handlers/authorization.handler.ts&#45;&gt;statements/index.ts</title>
<path fill="none" stroke="#757575" d="M526.3,-355.95C548.31,-352.78 572.6,-349.64 595,-347.5 716.41,-335.91 857.99,-330.53 943.1,-328.18"/>
<polygon fill="#757575" stroke="#757575" points="943.29,-331.67 953.19,-327.9 943.1,-324.68 943.29,-331.67"/>
</g>
<!-- handlers/schemas/authorizationConfig.schema.ts -->
<g id="node15" class="node">
<title>handlers/schemas/authorizationConfig.schema.ts</title>
<path fill="none" stroke="#cfffac" d="M1169.33,-379C1169.33,-379 871.67,-379 871.67,-379 867.83,-379 864,-375.17 864,-371.33 864,-371.33 864,-363.67 864,-363.67 864,-359.83 867.83,-356 871.67,-356 871.67,-356 1169.33,-356 1169.33,-356 1173.17,-356 1177,-359.83 1177,-363.67 1177,-363.67 1177,-371.33 1177,-371.33 1177,-375.17 1173.17,-379 1169.33,-379"/>
<text text-anchor="middle" x="1020.5" y="-363.8" font-family="Arial" font-size="14.00" fill="#cfffac">handlers/schemas/authorizationConfig.schema.ts</text>
</g>
<!-- handlers/schemas/index.ts&#45;&gt;handlers/schemas/authorizationConfig.schema.ts -->
<g id="edge23" class="edge">
<title>handlers/schemas/index.ts&#45;&gt;handlers/schemas/authorizationConfig.schema.ts</title>
<path fill="none" stroke="#757575" d="M796.37,-367.5C814.43,-367.5 833.99,-367.5 853.78,-367.5"/>
<polygon fill="#757575" stroke="#757575" points="853.82,-371 863.82,-367.5 853.82,-364 853.82,-371"/>
</g>
<!-- handlers/schemas/locationHandlerConfig.schema.ts -->
<g id="node16" class="node">
<title>handlers/schemas/locationHandlerConfig.schema.ts</title>
<path fill="none" stroke="#cfffac" d="M1177.33,-420C1177.33,-420 863.67,-420 863.67,-420 859.83,-420 856,-416.17 856,-412.33 856,-412.33 856,-404.67 856,-404.67 856,-400.83 859.83,-397 863.67,-397 863.67,-397 1177.33,-397 1177.33,-397 1181.17,-397 1185,-400.83 1185,-404.67 1185,-404.67 1185,-412.33 1185,-412.33 1185,-416.17 1181.17,-420 1177.33,-420"/>
<text text-anchor="middle" x="1020.5" y="-404.8" font-family="Arial" font-size="14.00" fill="#cfffac">handlers/schemas/locationHandlerConfig.schema.ts</text>
</g>
<!-- handlers/schemas/index.ts&#45;&gt;handlers/schemas/locationHandlerConfig.schema.ts -->
<g id="edge24" class="edge">
<title>handlers/schemas/index.ts&#45;&gt;handlers/schemas/locationHandlerConfig.schema.ts</title>
<path fill="none" stroke="#757575" d="M787.31,-379.01C809.51,-382.18 833.69,-385.55 856,-388.5 874.26,-390.92 893.69,-393.38 912.54,-395.72"/>
<polygon fill="#757575" stroke="#757575" points="912.28,-399.22 922.63,-396.97 913.13,-392.27 912.28,-399.22"/>
</g>
<!-- statements/locations/index.ts -->
<g id="node18" class="node">
<title>statements/locations/index.ts</title>
<path fill="none" stroke="#c6c5fe" d="M1439.83,-141C1439.83,-141 1264.17,-141 1264.17,-141 1260.33,-141 1256.5,-137.17 1256.5,-133.33 1256.5,-133.33 1256.5,-125.67 1256.5,-125.67 1256.5,-121.83 1260.33,-118 1264.17,-118 1264.17,-118 1439.83,-118 1439.83,-118 1443.67,-118 1447.5,-121.83 1447.5,-125.67 1447.5,-125.67 1447.5,-133.33 1447.5,-133.33 1447.5,-137.17 1443.67,-141 1439.83,-141"/>
<text text-anchor="middle" x="1352" y="-125.8" font-family="Arial" font-size="14.00" fill="#c6c5fe">statements/locations/index.ts</text>
</g>
<!-- statements/index.ts&#45;&gt;statements/locations/index.ts -->
<g id="edge31" class="edge">
<title>statements/index.ts&#45;&gt;statements/locations/index.ts</title>
<path fill="none" stroke="#757575" d="M1052.41,-314.89C1088.42,-299.99 1147.74,-271.01 1185,-229.5 1210.77,-200.79 1190.32,-173.9 1221,-150.5 1228.69,-144.63 1237.39,-140.13 1246.55,-136.71"/>
<polygon fill="#757575" stroke="#757575" points="1247.84,-139.97 1256.25,-133.51 1245.65,-133.32 1247.84,-139.97"/>
</g>
<!-- statements/resources/index.ts -->
<g id="node19" class="node">
<title>statements/resources/index.ts</title>
<path fill="none" stroke="#c6c5fe" d="M1442.83,-420C1442.83,-420 1261.17,-420 1261.17,-420 1257.33,-420 1253.5,-416.17 1253.5,-412.33 1253.5,-412.33 1253.5,-404.67 1253.5,-404.67 1253.5,-400.83 1257.33,-397 1261.17,-397 1261.17,-397 1442.83,-397 1442.83,-397 1446.67,-397 1450.5,-400.83 1450.5,-404.67 1450.5,-404.67 1450.5,-412.33 1450.5,-412.33 1450.5,-416.17 1446.67,-420 1442.83,-420"/>
<text text-anchor="middle" x="1352" y="-404.8" font-family="Arial" font-size="14.00" fill="#c6c5fe">statements/resources/index.ts</text>
</g>
<!-- statements/index.ts&#45;&gt;statements/resources/index.ts -->
<g id="edge32" class="edge">
<title>statements/index.ts&#45;&gt;statements/resources/index.ts</title>
<path fill="none" stroke="#757575" d="M1087.75,-331.6C1117.74,-334.78 1153.45,-339.78 1185,-347.5 1231.42,-358.86 1282.75,-378.95 1315.87,-392.96"/>
<polygon fill="#757575" stroke="#757575" points="1314.55,-396.2 1325.12,-396.92 1317.3,-389.77 1314.55,-396.2"/>
</g>
<!-- statements/validations/index.ts -->
<g id="node20" class="node">
<title>statements/validations/index.ts</title>
<path fill="none" stroke="#c6c5fe" d="M1444.83,-338C1444.83,-338 1259.17,-338 1259.17,-338 1255.33,-338 1251.5,-334.17 1251.5,-330.33 1251.5,-330.33 1251.5,-322.67 1251.5,-322.67 1251.5,-318.83 1255.33,-315 1259.17,-315 1259.17,-315 1444.83,-315 1444.83,-315 1448.67,-315 1452.5,-318.83 1452.5,-322.67 1452.5,-322.67 1452.5,-330.33 1452.5,-330.33 1452.5,-334.17 1448.67,-338 1444.83,-338"/>
<text text-anchor="middle" x="1352" y="-322.8" font-family="Arial" font-size="14.00" fill="#c6c5fe">statements/validations/index.ts</text>
</g>
<!-- statements/index.ts&#45;&gt;statements/validations/index.ts -->
<g id="edge33" class="edge">
<title>statements/index.ts&#45;&gt;statements/validations/index.ts</title>
<path fill="none" stroke="#757575" d="M1087.78,-326.5C1131.74,-326.5 1190.47,-326.5 1241.3,-326.5"/>
<polygon fill="#757575" stroke="#757575" points="1241.35,-330 1251.35,-326.5 1241.35,-323 1241.35,-330"/>
</g>
<!-- handlers/location.handler.ts&#45;&gt;config.ts -->
<g id="edge12" class="edge">
<title>handlers/location.handler.ts&#45;&gt;config.ts</title>
<path fill="none" stroke="#757575" d="M467.46,-260.17C487.97,-278.16 527.94,-314.11 559,-347.5 586.2,-376.74 658.91,-468.2 690.96,-508.77"/>
<polygon fill="#757575" stroke="#757575" points="688.38,-511.16 697.33,-516.84 693.88,-506.82 688.38,-511.16"/>
</g>
<!-- handlers/location.handler.ts&#45;&gt;handlers/schemas/index.ts -->
<g id="edge17" class="edge">
<title>handlers/location.handler.ts&#45;&gt;handlers/schemas/index.ts</title>
<path fill="none" stroke="#757575" d="M478.67,-260.13C524.11,-281.54 621.1,-327.25 672.66,-351.55"/>
<polygon fill="#757575" stroke="#757575" points="671.19,-354.73 681.73,-355.83 674.18,-348.4 671.19,-354.73"/>
</g>
<!-- handlers/location/credentialOffer.ts -->
<g id="node11" class="node">
<title>handlers/location/credentialOffer.ts</title>
<path fill="none" stroke="#c6c5fe" d="M812.33,-260C812.33,-260 602.67,-260 602.67,-260 598.83,-260 595,-256.17 595,-252.33 595,-252.33 595,-244.67 595,-244.67 595,-240.83 598.83,-237 602.67,-237 602.67,-237 812.33,-237 812.33,-237 816.17,-237 820,-240.83 820,-244.67 820,-244.67 820,-252.33 820,-252.33 820,-256.17 816.17,-260 812.33,-260"/>
<text text-anchor="middle" x="707.5" y="-244.8" font-family="Arial" font-size="14.00" fill="#c6c5fe">handlers/location/credentialOffer.ts</text>
</g>
<!-- handlers/location.handler.ts&#45;&gt;handlers/location/credentialOffer.ts -->
<g id="edge13" class="edge">
<title>handlers/location.handler.ts&#45;&gt;handlers/location/credentialOffer.ts</title>
<path fill="none" stroke="#757575" d="M543.73,-248.5C557.08,-248.5 571.02,-248.5 584.89,-248.5"/>
<polygon fill="#757575" stroke="#757575" points="584.96,-252 594.96,-248.5 584.96,-245 584.96,-252"/>
</g>
<!-- handlers/location/presentationRequest.ts -->
<g id="node12" class="node">
<title>handlers/location/presentationRequest.ts</title>
<path fill="none" stroke="#c6c5fe" d="M1143.33,-220C1143.33,-220 897.67,-220 897.67,-220 893.83,-220 890,-216.17 890,-212.33 890,-212.33 890,-204.67 890,-204.67 890,-200.83 893.83,-197 897.67,-197 897.67,-197 1143.33,-197 1143.33,-197 1147.17,-197 1151,-200.83 1151,-204.67 1151,-204.67 1151,-212.33 1151,-212.33 1151,-216.17 1147.17,-220 1143.33,-220"/>
<text text-anchor="middle" x="1020.5" y="-204.8" font-family="Arial" font-size="14.00" fill="#c6c5fe">handlers/location/presentationRequest.ts</text>
</g>
<!-- handlers/location.handler.ts&#45;&gt;handlers/location/presentationRequest.ts -->
<g id="edge14" class="edge">
<title>handlers/location.handler.ts&#45;&gt;handlers/location/presentationRequest.ts</title>
<path fill="none" stroke="#757575" d="M525.94,-236.97C548.04,-233.78 572.48,-230.62 595,-228.5 689.66,-219.58 796.6,-214.57 879.46,-211.8"/>
<polygon fill="#757575" stroke="#757575" points="879.82,-215.29 889.7,-211.46 879.59,-208.29 879.82,-215.29"/>
</g>
<!-- handlers/location/presentationSuccess.ts -->
<g id="node13" class="node">
<title>handlers/location/presentationSuccess.ts</title>
<path fill="none" stroke="#c6c5fe" d="M1475.33,-182C1475.33,-182 1228.67,-182 1228.67,-182 1224.83,-182 1221,-178.17 1221,-174.33 1221,-174.33 1221,-166.67 1221,-166.67 1221,-162.83 1224.83,-159 1228.67,-159 1228.67,-159 1475.33,-159 1475.33,-159 1479.17,-159 1483,-162.83 1483,-166.67 1483,-166.67 1483,-174.33 1483,-174.33 1483,-178.17 1479.17,-182 1475.33,-182"/>
<text text-anchor="middle" x="1352" y="-166.8" font-family="Arial" font-size="14.00" fill="#c6c5fe">handlers/location/presentationSuccess.ts</text>
</g>
<!-- handlers/location.handler.ts&#45;&gt;handlers/location/presentationSuccess.ts -->
<g id="edge15" class="edge">
<title>handlers/location.handler.ts&#45;&gt;handlers/location/presentationSuccess.ts</title>
<path fill="none" stroke="#757575" d="M488.63,-236.94C516.92,-227.98 558.11,-216.03 595,-209.5 807.22,-171.96 1057.76,-166.51 1210.45,-167.44"/>
<polygon fill="#757575" stroke="#757575" points="1210.79,-170.95 1220.82,-167.52 1210.84,-163.95 1210.79,-170.95"/>
</g>
<!-- handlers/location/protocolError.ts -->
<g id="node14" class="node">
<title>handlers/location/protocolError.ts</title>
<path fill="none" stroke="#c6c5fe" d="M806.83,-122C806.83,-122 608.17,-122 608.17,-122 604.33,-122 600.5,-118.17 600.5,-114.33 600.5,-114.33 600.5,-106.67 600.5,-106.67 600.5,-102.83 604.33,-99 608.17,-99 608.17,-99 806.83,-99 806.83,-99 810.67,-99 814.5,-102.83 814.5,-106.67 814.5,-106.67 814.5,-114.33 814.5,-114.33 814.5,-118.17 810.67,-122 806.83,-122"/>
<text text-anchor="middle" x="707.5" y="-106.8" font-family="Arial" font-size="14.00" fill="#c6c5fe">handlers/location/protocolError.ts</text>
</g>
<!-- handlers/location.handler.ts&#45;&gt;handlers/location/protocolError.ts -->
<g id="edge16" class="edge">
<title>handlers/location.handler.ts&#45;&gt;handlers/location/protocolError.ts</title>
<path fill="none" stroke="#757575" d="M468.99,-236.95C494.05,-217.99 546.51,-179.86 595,-154.5 616.41,-143.3 641.34,-133.21 662.19,-125.52"/>
<polygon fill="#757575" stroke="#757575" points="663.54,-128.75 671.75,-122.06 661.16,-122.17 663.54,-128.75"/>
</g>
<!-- handlers/location/credentialOffer.ts&#45;&gt;errors.ts -->
<g id="edge18" class="edge">
<title>handlers/location/credentialOffer.ts&#45;&gt;errors.ts</title>
<path fill="none" stroke="#757575" d="M820.03,-250.29C1073.83,-254.36 1685.43,-264.16 1851.68,-266.82"/>
<polygon fill="#757575" stroke="#757575" points="1851.92,-270.33 1861.98,-266.99 1852.04,-263.33 1851.92,-270.33"/>
</g>
<!-- handlers/location/credentialOffer.ts&#45;&gt;statements/index.ts -->
<g id="edge19" class="edge">
<title>handlers/location/credentialOffer.ts&#45;&gt;statements/index.ts</title>
<path fill="none" stroke="#757575" d="M754.39,-260.01C809.97,-273.95 903.58,-297.43 963.39,-312.43"/>
<polygon fill="#757575" stroke="#757575" points="962.87,-315.91 973.42,-314.94 964.57,-309.12 962.87,-315.91"/>
</g>
<!-- handlers/location/presentationRequest.ts&#45;&gt;errors.ts -->
<g id="edge20" class="edge">
<title>handlers/location/presentationRequest.ts&#45;&gt;errors.ts</title>
<path fill="none" stroke="#757575" d="M1151.36,-206.15C1345.57,-203.73 1702.12,-203.91 1826,-234.5 1839.97,-237.95 1854.45,-244.5 1866.44,-250.86"/>
<polygon fill="#757575" stroke="#757575" points="1865.02,-254.08 1875.47,-255.86 1868.42,-247.95 1865.02,-254.08"/>
</g>
<!-- handlers/location/presentationSuccess.ts&#45;&gt;errors.ts -->
<g id="edge21" class="edge">
<title>handlers/location/presentationSuccess.ts&#45;&gt;errors.ts</title>
<path fill="none" stroke="#757575" d="M1422.95,-158.97C1518.75,-146.51 1693.93,-135.78 1826,-196.5 1849.55,-207.33 1869.09,-230.3 1881.09,-247.19"/>
<polygon fill="#757575" stroke="#757575" points="1878.45,-249.53 1886.96,-255.84 1884.24,-245.6 1878.45,-249.53"/>
</g>
<!-- handlers/location/protocolError.ts&#45;&gt;errors.ts -->
<g id="edge22" class="edge">
<title>handlers/location/protocolError.ts&#45;&gt;errors.ts</title>
<path fill="none" stroke="#757575" d="M814.86,-99.98C1061.21,-77.75 1662.42,-36.45 1826,-144.5 1861.93,-168.23 1880.63,-217.69 1888.79,-246.13"/>
<polygon fill="#757575" stroke="#757575" points="1885.44,-247.15 1891.41,-255.9 1892.2,-245.34 1885.44,-247.15"/>
</g>
<!-- index.ts -->
<g id="node17" class="node">
<title>index.ts</title>
<path fill="none" stroke="#c6c5fe" d="M55.33,-541C55.33,-541 7.67,-541 7.67,-541 3.83,-541 0,-537.17 0,-533.33 0,-533.33 0,-525.67 0,-525.67 0,-521.83 3.83,-518 7.67,-518 7.67,-518 55.33,-518 55.33,-518 59.17,-518 63,-521.83 63,-525.67 63,-525.67 63,-533.33 63,-533.33 63,-537.17 59.17,-541 55.33,-541"/>
<text text-anchor="middle" x="31.5" y="-525.8" font-family="Arial" font-size="14.00" fill="#c6c5fe">index.ts</text>
</g>
<!-- index.ts&#45;&gt;config.ts -->
<g id="edge25" class="edge">
<title>index.ts&#45;&gt;config.ts</title>
<path fill="none" stroke="#757575" d="M63.21,-529.45C171.8,-529.29 537.81,-528.75 663.62,-528.56"/>
<polygon fill="#757575" stroke="#757575" points="663.65,-532.06 673.64,-528.55 663.64,-525.06 663.65,-532.06"/>
</g>
<!-- index.ts&#45;&gt;ports.ts -->
<g id="edge28" class="edge">
<title>index.ts&#45;&gt;ports.ts</title>
<path fill="none" stroke="#757575" d="M63.24,-538.55C105.17,-550.07 182.83,-568.5 250.5,-568.5 250.5,-568.5 250.5,-568.5 1353,-568.5 1563.59,-568.5 1627.93,-612.03 1826,-540.5 1844.54,-533.8 1862.37,-520.34 1875.12,-509.07"/>
<polygon fill="#757575" stroke="#757575" points="1877.74,-511.42 1882.72,-502.07 1873,-506.27 1877.74,-511.42"/>
</g>
<!-- index.ts&#45;&gt;resources.ts -->
<g id="edge29" class="edge">
<title>index.ts&#45;&gt;resources.ts</title>
<path fill="none" stroke="#757575" d="M40.92,-541.51C67.3,-577.57 152.47,-682.5 250.5,-682.5 250.5,-682.5 250.5,-682.5 1673.5,-682.5 1787.56,-682.5 1836.57,-717.68 1928,-649.5 1980.15,-610.61 1998.97,-530.13 2005.2,-491.34"/>
<polygon fill="#757575" stroke="#757575" points="2008.7,-491.56 2006.69,-481.15 2001.78,-490.54 2008.7,-491.56"/>
</g>
<!-- index.ts&#45;&gt;core.ts -->
<g id="edge26" class="edge">
<title>index.ts&#45;&gt;core.ts</title>
<path fill="none" stroke="#757575" d="M59.69,-517.93C69.14,-513.91 79.9,-509.33 89.98,-505.04"/>
<polygon fill="#757575" stroke="#757575" points="91.54,-508.18 99.37,-501.04 88.8,-501.74 91.54,-508.18"/>
</g>
<!-- index.ts&#45;&gt;errors.ts -->
<g id="edge27" class="edge">
<title>index.ts&#45;&gt;errors.ts</title>
<path fill="none" stroke="#757575" d="M32.31,-517.68C31.78,-444.08 38.89,-51.5 250.5,-51.5 250.5,-51.5 250.5,-51.5 1353,-51.5 1458.24,-51.5 1741.61,-11.63 1826,-74.5 1854.29,-95.58 1879.62,-200.13 1889.55,-245.94"/>
<polygon fill="#757575" stroke="#757575" points="1886.18,-246.94 1891.68,-255.99 1893.03,-245.48 1886.18,-246.94"/>
</g>
<!-- statements/locations/fetchAuthorizationUrl.ts -->
<g id="node21" class="node">
<title>statements/locations/fetchAuthorizationUrl.ts</title>
<path fill="none" stroke="#c6c5fe" d="M1806.83,-23C1806.83,-23 1538.17,-23 1538.17,-23 1534.33,-23 1530.5,-19.17 1530.5,-15.33 1530.5,-15.33 1530.5,-7.67 1530.5,-7.67 1530.5,-3.83 1534.33,0 1538.17,0 1538.17,0 1806.83,0 1806.83,0 1810.67,0 1814.5,-3.83 1814.5,-7.67 1814.5,-7.67 1814.5,-15.33 1814.5,-15.33 1814.5,-19.17 1810.67,-23 1806.83,-23"/>
<text text-anchor="middle" x="1672.5" y="-7.8" font-family="Arial" font-size="14.00" fill="#c6c5fe">statements/locations/fetchAuthorizationUrl.ts</text>
</g>
<!-- statements/locations/index.ts&#45;&gt;statements/locations/fetchAuthorizationUrl.ts -->
<g id="edge36" class="edge">
<title>statements/locations/index.ts&#45;&gt;statements/locations/fetchAuthorizationUrl.ts</title>
<path fill="none" stroke="#757575" d="M1384.12,-117.97C1442.04,-96.51 1566.33,-50.46 1630.81,-26.57"/>
<polygon fill="#757575" stroke="#757575" points="1632.09,-29.83 1640.25,-23.08 1629.66,-23.27 1632.09,-29.83"/>
</g>
<!-- statements/resources/clientState.ts -->
<g id="node22" class="node">
<title>statements/resources/clientState.ts</title>
<path fill="none" stroke="#c6c5fe" d="M1778.33,-502C1778.33,-502 1566.67,-502 1566.67,-502 1562.83,-502 1559,-498.17 1559,-494.33 1559,-494.33 1559,-486.67 1559,-486.67 1559,-482.83 1562.83,-479 1566.67,-479 1566.67,-479 1778.33,-479 1778.33,-479 1782.17,-479 1786,-482.83 1786,-486.67 1786,-486.67 1786,-494.33 1786,-494.33 1786,-498.17 1782.17,-502 1778.33,-502"/>
<text text-anchor="middle" x="1672.5" y="-486.8" font-family="Arial" font-size="14.00" fill="#c6c5fe">statements/resources/clientState.ts</text>
</g>
<!-- statements/resources/index.ts&#45;&gt;statements/resources/clientState.ts -->
<g id="edge42" class="edge">
<title>statements/resources/index.ts&#45;&gt;statements/resources/clientState.ts</title>
<path fill="none" stroke="#757575" d="M1378.3,-420.02C1410.37,-434.13 1467.65,-457.72 1519,-470.5 1529.22,-473.04 1539.9,-475.28 1550.68,-477.24"/>
<polygon fill="#757575" stroke="#757575" points="1550.13,-480.69 1560.58,-478.96 1551.33,-473.8 1550.13,-480.69"/>
</g>
<!-- statements/resources/fetchIssuerMetadata.ts -->
<g id="node23" class="node">
<title>statements/resources/fetchIssuerMetadata.ts</title>
<path fill="none" stroke="#c6c5fe" d="M1808.33,-461C1808.33,-461 1536.67,-461 1536.67,-461 1532.83,-461 1529,-457.17 1529,-453.33 1529,-453.33 1529,-445.67 1529,-445.67 1529,-441.83 1532.83,-438 1536.67,-438 1536.67,-438 1808.33,-438 1808.33,-438 1812.17,-438 1816,-441.83 1816,-445.67 1816,-445.67 1816,-453.33 1816,-453.33 1816,-457.17 1812.17,-461 1808.33,-461"/>
<text text-anchor="middle" x="1672.5" y="-445.8" font-family="Arial" font-size="14.00" fill="#c6c5fe">statements/resources/fetchIssuerMetadata.ts</text>
</g>
<!-- statements/resources/index.ts&#45;&gt;statements/resources/fetchIssuerMetadata.ts -->
<g id="edge43" class="edge">
<title>statements/resources/index.ts&#45;&gt;statements/resources/fetchIssuerMetadata.ts</title>
<path fill="none" stroke="#757575" d="M1442.57,-420.03C1482.85,-425.22 1530.55,-431.36 1571.95,-436.68"/>
<polygon fill="#757575" stroke="#757575" points="1571.69,-440.18 1582.05,-437.99 1572.58,-433.24 1571.69,-440.18"/>
</g>
<!-- statements/resources/issuerClient.ts -->
<g id="node24" class="node">
<title>statements/resources/issuerClient.ts</title>
<path fill="none" stroke="#c6c5fe" d="M1782.33,-379C1782.33,-379 1562.67,-379 1562.67,-379 1558.83,-379 1555,-375.17 1555,-371.33 1555,-371.33 1555,-363.67 1555,-363.67 1555,-359.83 1558.83,-356 1562.67,-356 1562.67,-356 1782.33,-356 1782.33,-356 1786.17,-356 1790,-359.83 1790,-363.67 1790,-363.67 1790,-371.33 1790,-371.33 1790,-375.17 1786.17,-379 1782.33,-379"/>
<text text-anchor="middle" x="1672.5" y="-363.8" font-family="Arial" font-size="14.00" fill="#c6c5fe">statements/resources/issuerClient.ts</text>
</g>
<!-- statements/resources/index.ts&#45;&gt;statements/resources/issuerClient.ts -->
<g id="edge44" class="edge">
<title>statements/resources/index.ts&#45;&gt;statements/resources/issuerClient.ts</title>
<path fill="none" stroke="#757575" d="M1442.57,-396.97C1482.85,-391.78 1530.55,-385.64 1571.95,-380.32"/>
<polygon fill="#757575" stroke="#757575" points="1572.58,-383.76 1582.05,-379.01 1571.69,-376.82 1572.58,-383.76"/>
</g>
<!-- statements/validations/validateCredentialOffer.ts -->
<g id="node25" class="node">
<title>statements/validations/validateCredentialOffer.ts</title>
<path fill="none" stroke="#c6c5fe" d="M1818.33,-338C1818.33,-338 1526.67,-338 1526.67,-338 1522.83,-338 1519,-334.17 1519,-330.33 1519,-330.33 1519,-322.67 1519,-322.67 1519,-318.83 1522.83,-315 1526.67,-315 1526.67,-315 1818.33,-315 1818.33,-315 1822.17,-315 1826,-318.83 1826,-322.67 1826,-322.67 1826,-330.33 1826,-330.33 1826,-334.17 1822.17,-338 1818.33,-338"/>
<text text-anchor="middle" x="1672.5" y="-322.8" font-family="Arial" font-size="14.00" fill="#c6c5fe">statements/validations/validateCredentialOffer.ts</text>
</g>
<!-- statements/validations/index.ts&#45;&gt;statements/validations/validateCredentialOffer.ts -->
<g id="edge47" class="edge">
<title>statements/validations/index.ts&#45;&gt;statements/validations/validateCredentialOffer.ts</title>
<path fill="none" stroke="#757575" d="M1452.9,-326.5C1470.69,-326.5 1489.62,-326.5 1508.63,-326.5"/>
<polygon fill="#757575" stroke="#757575" points="1508.87,-330 1518.87,-326.5 1508.87,-323 1508.87,-330"/>
</g>
<!-- statements/validations/validateGrants.ts -->
<g id="node26" class="node">
<title>statements/validations/validateGrants.ts</title>
<path fill="none" stroke="#c6c5fe" d="M1793.33,-420C1793.33,-420 1551.67,-420 1551.67,-420 1547.83,-420 1544,-416.17 1544,-412.33 1544,-412.33 1544,-404.67 1544,-404.67 1544,-400.83 1547.83,-397 1551.67,-397 1551.67,-397 1793.33,-397 1793.33,-397 1797.17,-397 1801,-400.83 1801,-404.67 1801,-404.67 1801,-412.33 1801,-412.33 1801,-416.17 1797.17,-420 1793.33,-420"/>
<text text-anchor="middle" x="1672.5" y="-404.8" font-family="Arial" font-size="14.00" fill="#c6c5fe">statements/validations/validateGrants.ts</text>
</g>
<!-- statements/validations/index.ts&#45;&gt;statements/validations/validateGrants.ts -->
<g id="edge48" class="edge">
<title>statements/validations/index.ts&#45;&gt;statements/validations/validateGrants.ts</title>
<path fill="none" stroke="#757575" d="M1378.3,-338.02C1410.37,-352.13 1467.65,-375.72 1519,-388.5 1529.22,-391.04 1539.9,-393.28 1550.68,-395.24"/>
<polygon fill="#757575" stroke="#757575" points="1550.13,-398.69 1560.58,-396.96 1551.33,-391.8 1550.13,-398.69"/>
</g>
<!-- statements/locations/fetchAuthorizationUrl.ts&#45;&gt;resources.ts -->
<g id="edge35" class="edge">
<title>statements/locations/fetchAuthorizationUrl.ts&#45;&gt;resources.ts</title>
<path fill="none" stroke="#757575" d="M1800.29,-23.09C1809.45,-26.88 1818.16,-31.62 1826,-37.5 1965.64,-142.29 1999.05,-374.81 2006.21,-447.41"/>
<polygon fill="#757575" stroke="#757575" points="2002.75,-448 2007.15,-457.64 2009.72,-447.36 2002.75,-448"/>
</g>
<!-- statements/locations/fetchAuthorizationUrl.ts&#45;&gt;errors.ts -->
<g id="edge34" class="edge">
<title>statements/locations/fetchAuthorizationUrl.ts&#45;&gt;errors.ts</title>
<path fill="none" stroke="#757575" d="M1804.33,-23.1C1812.15,-26.96 1819.47,-31.7 1826,-37.5 1841.98,-51.69 1876.08,-191.11 1888.95,-245.72"/>
<polygon fill="#757575" stroke="#757575" points="1885.6,-246.79 1891.29,-255.73 1892.42,-245.2 1885.6,-246.79"/>
</g>
<!-- statements/resources/clientState.ts&#45;&gt;ports.ts -->
<g id="edge38" class="edge">
<title>statements/resources/clientState.ts&#45;&gt;ports.ts</title>
<path fill="none" stroke="#757575" d="M1786.01,-490.5C1810.38,-490.5 1834.6,-490.5 1853.91,-490.5"/>
<polygon fill="#757575" stroke="#757575" points="1854.1,-494 1864.1,-490.5 1854.1,-487 1854.1,-494"/>
</g>
<!-- statements/resources/clientState.ts&#45;&gt;errors.ts -->
<g id="edge37" class="edge">
<title>statements/resources/clientState.ts&#45;&gt;errors.ts</title>
<path fill="none" stroke="#757575" d="M1786.17,-490.36C1800.67,-486.31 1814.46,-480.01 1826,-470.5 1881.7,-424.62 1892.03,-331.57 1893.76,-289.29"/>
<polygon fill="#757575" stroke="#757575" points="1897.26,-289.33 1894.05,-279.24 1890.27,-289.14 1897.26,-289.33"/>
</g>
<!-- statements/resources/fetchIssuerMetadata.ts&#45;&gt;ports.ts -->
<g id="edge40" class="edge">
<title>statements/resources/fetchIssuerMetadata.ts&#45;&gt;ports.ts</title>
<path fill="none" stroke="#757575" d="M1773.13,-461.04C1790.82,-463.71 1809.02,-466.85 1826,-470.5 1835.37,-472.51 1845.32,-475.15 1854.65,-477.84"/>
<polygon fill="#757575" stroke="#757575" points="1853.87,-481.27 1864.46,-480.77 1855.87,-474.56 1853.87,-481.27"/>
</g>
<!-- statements/resources/fetchIssuerMetadata.ts&#45;&gt;resources.ts -->
<g id="edge41" class="edge">
<title>statements/resources/fetchIssuerMetadata.ts&#45;&gt;resources.ts</title>
<path fill="none" stroke="#757575" d="M1816.33,-458.04C1864.86,-460.94 1916.19,-464.01 1953.51,-466.24"/>
<polygon fill="#757575" stroke="#757575" points="1953.46,-469.75 1963.65,-466.85 1953.88,-462.76 1953.46,-469.75"/>
</g>
<!-- statements/resources/fetchIssuerMetadata.ts&#45;&gt;errors.ts -->
<g id="edge39" class="edge">
<title>statements/resources/fetchIssuerMetadata.ts&#45;&gt;errors.ts</title>
<path fill="none" stroke="#757575" d="M1812.88,-437.92C1817.47,-435.45 1821.86,-432.66 1826,-429.5 1871.07,-395.1 1886.54,-325.25 1891.63,-289.56"/>
<polygon fill="#757575" stroke="#757575" points="1895.15,-289.63 1892.95,-279.26 1888.21,-288.74 1895.15,-289.63"/>
</g>
<!-- statements/resources/issuerClient.ts&#45;&gt;resources.ts -->
<g id="edge46" class="edge">
<title>statements/resources/issuerClient.ts&#45;&gt;resources.ts</title>
<path fill="none" stroke="#757575" d="M1783.77,-379.07C1798.1,-381.62 1812.49,-384.73 1826,-388.5 1873.56,-401.77 1882.92,-412.36 1928,-432.5 1943.21,-439.3 1959.95,-447 1974.17,-453.62"/>
<polygon fill="#757575" stroke="#757575" points="1973.02,-456.94 1983.57,-458 1975.98,-450.6 1973.02,-456.94"/>
</g>
<!-- statements/resources/issuerClient.ts&#45;&gt;errors.ts -->
<g id="edge45" class="edge">
<title>statements/resources/issuerClient.ts&#45;&gt;errors.ts</title>
<path fill="none" stroke="#757575" d="M1790.03,-361.37C1802.6,-358.06 1814.86,-353.56 1826,-347.5 1851.2,-333.79 1871.12,-306.69 1882.73,-287.86"/>
<polygon fill="#757575" stroke="#757575" points="1885.81,-289.51 1887.88,-279.12 1879.78,-285.95 1885.81,-289.51"/>
</g>
<!-- statements/validations/validateCredentialOffer.ts&#45;&gt;errors.ts -->
<g id="edge49" class="edge">
<title>statements/validations/validateCredentialOffer.ts&#45;&gt;errors.ts</title>
<path fill="none" stroke="#757575" d="M1766.44,-314.96C1786.35,-311.3 1807.07,-306.57 1826,-300.5 1839.31,-296.23 1853.32,-289.8 1865.14,-283.75"/>
<polygon fill="#757575" stroke="#757575" points="1866.88,-286.78 1874.09,-279.02 1863.61,-280.59 1866.88,-286.78"/>
</g>
<!-- statements/validations/validateGrants.ts&#45;&gt;ports.ts -->
<g id="edge51" class="edge">
<title>statements/validations/validateGrants.ts&#45;&gt;ports.ts</title>
<path fill="none" stroke="#757575" d="M1800.84,-420.1C1809.53,-422.69 1818,-425.79 1826,-429.5 1846.69,-439.09 1865.59,-457.15 1878.18,-471.14"/>
<polygon fill="#757575" stroke="#757575" points="1875.64,-473.55 1884.83,-478.81 1880.93,-468.96 1875.64,-473.55"/>
</g>
<!-- statements/validations/validateGrants.ts&#45;&gt;resources.ts -->
<g id="edge52" class="edge">
<title>statements/validations/validateGrants.ts&#45;&gt;resources.ts</title>
<path fill="none" stroke="#757575" d="M1766.02,-420.04C1785.86,-422.85 1806.66,-426.05 1826,-429.5 1869.23,-437.21 1917.78,-447.99 1953.86,-456.42"/>
<polygon fill="#757575" stroke="#757575" points="1953.16,-459.85 1963.69,-458.73 1954.76,-453.03 1953.16,-459.85"/>
</g>
<!-- statements/validations/validateGrants.ts&#45;&gt;errors.ts -->
<g id="edge50" class="edge">
<title>statements/validations/validateGrants.ts&#45;&gt;errors.ts</title>
<path fill="none" stroke="#757575" d="M1801.3,-401.08C1810.02,-397.79 1818.37,-393.66 1826,-388.5 1860.89,-364.9 1879.84,-317.12 1888.35,-289.18"/>
<polygon fill="#757575" stroke="#757575" points="1891.81,-289.78 1891.2,-279.2 1885.08,-287.86 1891.81,-289.78"/>
</g>
</g>
</svg>
