<?xml version="1.0" encoding="UTF-8" standalone="no"?>
<!DOCTYPE svg PUBLIC "-//W3C//DTD SVG 1.1//EN"
 "http://www.w3.org/Graphics/SVG/1.1/DTD/svg11.dtd">
<!-- Generated by graphviz version 2.43.0 (0)
 -->
<!-- Title: G Pages: 1 -->
<svg width="2459pt" height="1624pt"
 viewBox="0.00 0.00 2459.20 1623.55" xmlns="http://www.w3.org/2000/svg" xmlns:xlink="http://www.w3.org/1999/xlink">
<g id="graph0" class="graph" transform="scale(1 1) rotate(0) translate(21.6 1601.95)">
<title>G</title>
<polygon fill="#111111" stroke="transparent" points="-21.6,21.6 -21.6,-1601.95 2437.6,-1601.95 2437.6,21.6 -21.6,21.6"/>
<!-- adapters/console/index.ts -->
<g id="node1" class="node">
<title>adapters/console/index.ts</title>
<path fill="none" stroke="#c6c5fe" d="M357.33,-1517C357.33,-1517 202.67,-1517 202.67,-1517 198.83,-1517 195,-1513.17 195,-1509.33 195,-1509.33 195,-1501.67 195,-1501.67 195,-1497.83 198.83,-1494 202.67,-1494 202.67,-1494 357.33,-1494 357.33,-1494 361.17,-1494 365,-1497.83 365,-1501.67 365,-1501.67 365,-1509.33 365,-1509.33 365,-1513.17 361.17,-1517 357.33,-1517"/>
<text text-anchor="middle" x="280" y="-1501.8" font-family="Arial" font-size="14.00" fill="#c6c5fe">adapters/console/index.ts</text>
</g>
<!-- adapters/console/logger.ts -->
<g id="node2" class="node">
<title>adapters/console/logger.ts</title>
<path fill="none" stroke="#cfffac" d="M626.33,-1517C626.33,-1517 467.67,-1517 467.67,-1517 463.83,-1517 460,-1513.17 460,-1509.33 460,-1509.33 460,-1501.67 460,-1501.67 460,-1497.83 463.83,-1494 467.67,-1494 467.67,-1494 626.33,-1494 626.33,-1494 630.17,-1494 634,-1497.83 634,-1501.67 634,-1501.67 634,-1509.33 634,-1509.33 634,-1513.17 630.17,-1517 626.33,-1517"/>
<text text-anchor="middle" x="547" y="-1501.8" font-family="Arial" font-size="14.00" fill="#cfffac">adapters/console/logger.ts</text>
</g>
<!-- adapters/console/index.ts&#45;&gt;adapters/console/logger.ts -->
<g id="edge1" class="edge">
<title>adapters/console/index.ts&#45;&gt;adapters/console/logger.ts</title>
<path fill="none" stroke="#757575" d="M365.21,-1505.5C392.07,-1505.5 422,-1505.5 449.65,-1505.5"/>
<polygon fill="#757575" stroke="#757575" points="449.73,-1509 459.73,-1505.5 449.73,-1502 449.73,-1509"/>
</g>
<!-- adapters/stateless/generateToken.ts -->
<g id="node3" class="node">
<title>adapters/stateless/generateToken.ts</title>
<path fill="none" stroke="#cfffac" d="M655.83,-1476C655.83,-1476 438.17,-1476 438.17,-1476 434.33,-1476 430.5,-1472.17 430.5,-1468.33 430.5,-1468.33 430.5,-1460.67 430.5,-1460.67 430.5,-1456.83 434.33,-1453 438.17,-1453 438.17,-1453 655.83,-1453 655.83,-1453 659.67,-1453 663.5,-1456.83 663.5,-1460.67 663.5,-1460.67 663.5,-1468.33 663.5,-1468.33 663.5,-1472.17 659.67,-1476 655.83,-1476"/>
<text text-anchor="middle" x="547" y="-1460.8" font-family="Arial" font-size="14.00" fill="#cfffac">adapters/stateless/generateToken.ts</text>
</g>
<!-- adapters/stateless/index.ts -->
<g id="node4" class="node">
<title>adapters/stateless/index.ts</title>
<path fill="none" stroke="#c6c5fe" d="M360.33,-1476C360.33,-1476 199.67,-1476 199.67,-1476 195.83,-1476 192,-1472.17 192,-1468.33 192,-1468.33 192,-1460.67 192,-1460.67 192,-1456.83 195.83,-1453 199.67,-1453 199.67,-1453 360.33,-1453 360.33,-1453 364.17,-1453 368,-1456.83 368,-1460.67 368,-1460.67 368,-1468.33 368,-1468.33 368,-1472.17 364.17,-1476 360.33,-1476"/>
<text text-anchor="middle" x="280" y="-1460.8" font-family="Arial" font-size="14.00" fill="#c6c5fe">adapters/stateless/index.ts</text>
</g>
<!-- adapters/stateless/index.ts&#45;&gt;adapters/stateless/generateToken.ts -->
<g id="edge2" class="edge">
<title>adapters/stateless/index.ts&#45;&gt;adapters/stateless/generateToken.ts</title>
<path fill="none" stroke="#757575" d="M368.14,-1464.5C384.78,-1464.5 402.52,-1464.5 420.09,-1464.5"/>
<polygon fill="#757575" stroke="#757575" points="420.41,-1468 430.41,-1464.5 420.41,-1461 420.41,-1468"/>
</g>
<!-- adapters/stateless/validateToken.ts -->
<g id="node5" class="node">
<title>adapters/stateless/validateToken.ts</title>
<path fill="none" stroke="#cfffac" d="M652.83,-1435C652.83,-1435 441.17,-1435 441.17,-1435 437.33,-1435 433.5,-1431.17 433.5,-1427.33 433.5,-1427.33 433.5,-1419.67 433.5,-1419.67 433.5,-1415.83 437.33,-1412 441.17,-1412 441.17,-1412 652.83,-1412 652.83,-1412 656.67,-1412 660.5,-1415.83 660.5,-1419.67 660.5,-1419.67 660.5,-1427.33 660.5,-1427.33 660.5,-1431.17 656.67,-1435 652.83,-1435"/>
<text text-anchor="middle" x="547" y="-1419.8" font-family="Arial" font-size="14.00" fill="#cfffac">adapters/stateless/validateToken.ts</text>
</g>
<!-- adapters/stateless/index.ts&#45;&gt;adapters/stateless/validateToken.ts -->
<g id="edge3" class="edge">
<title>adapters/stateless/index.ts&#45;&gt;adapters/stateless/validateToken.ts</title>
<path fill="none" stroke="#757575" d="M346.37,-1452.97C364.97,-1449.79 385.27,-1446.42 404,-1443.5 419.13,-1441.14 435.2,-1438.76 450.86,-1436.51"/>
<polygon fill="#757575" stroke="#757575" points="451.69,-1439.93 461.09,-1435.05 450.7,-1433 451.69,-1439.93"/>
</g>
<!-- config.ts -->
<g id="node6" class="node">
<title>config.ts</title>
<path fill="none" stroke="#c6c5fe" d="M1450.83,-1260C1450.83,-1260 1399.17,-1260 1399.17,-1260 1395.33,-1260 1391.5,-1256.17 1391.5,-1252.33 1391.5,-1252.33 1391.5,-1244.67 1391.5,-1244.67 1391.5,-1240.83 1395.33,-1237 1399.17,-1237 1399.17,-1237 1450.83,-1237 1450.83,-1237 1454.67,-1237 1458.5,-1240.83 1458.5,-1244.67 1458.5,-1244.67 1458.5,-1252.33 1458.5,-1252.33 1458.5,-1256.17 1454.67,-1260 1450.83,-1260"/>
<text text-anchor="middle" x="1425" y="-1244.8" font-family="Arial" font-size="14.00" fill="#c6c5fe">config.ts</text>
</g>
<!-- resources.ts -->
<g id="node7" class="node">
<title>resources.ts</title>
<path fill="none" stroke="#cfffac" d="M2408.33,-1002C2408.33,-1002 2333.67,-1002 2333.67,-1002 2329.83,-1002 2326,-998.17 2326,-994.33 2326,-994.33 2326,-986.67 2326,-986.67 2326,-982.83 2329.83,-979 2333.67,-979 2333.67,-979 2408.33,-979 2408.33,-979 2412.17,-979 2416,-982.83 2416,-986.67 2416,-986.67 2416,-994.33 2416,-994.33 2416,-998.17 2412.17,-1002 2408.33,-1002"/>
<text text-anchor="middle" x="2371" y="-986.8" font-family="Arial" font-size="14.00" fill="#cfffac">resources.ts</text>
</g>
<!-- config.ts&#45;&gt;resources.ts -->
<g id="edge4" class="edge">
<title>config.ts&#45;&gt;resources.ts</title>
<path fill="none" stroke="#757575" d="M1458.66,-1244.52C1504.49,-1240.42 1589.39,-1238.28 1653,-1268.5 1673.72,-1278.35 1667.86,-1296.57 1689,-1305.5 1750.52,-1331.48 2237.29,-1346.5 2290,-1305.5 2337.15,-1268.82 2361.04,-1077.31 2367.88,-1012.19"/>
<polygon fill="#757575" stroke="#757575" points="2371.37,-1012.52 2368.9,-1002.22 2364.4,-1011.81 2371.37,-1012.52"/>
</g>
<!-- constants.ts -->
<g id="node8" class="node">
<title>constants.ts</title>
<path fill="none" stroke="#cfffac" d="M2407.83,-819C2407.83,-819 2334.17,-819 2334.17,-819 2330.33,-819 2326.5,-815.17 2326.5,-811.33 2326.5,-811.33 2326.5,-803.67 2326.5,-803.67 2326.5,-799.83 2330.33,-796 2334.17,-796 2334.17,-796 2407.83,-796 2407.83,-796 2411.67,-796 2415.5,-799.83 2415.5,-803.67 2415.5,-803.67 2415.5,-811.33 2415.5,-811.33 2415.5,-815.17 2411.67,-819 2407.83,-819"/>
<text text-anchor="middle" x="2371" y="-803.8" font-family="Arial" font-size="14.00" fill="#cfffac">constants.ts</text>
</g>
<!-- core.ts -->
<g id="node9" class="node">
<title>core.ts</title>
<path fill="none" stroke="#c6c5fe" d="M148.33,-1415C148.33,-1415 106.67,-1415 106.67,-1415 102.83,-1415 99,-1411.17 99,-1407.33 99,-1407.33 99,-1399.67 99,-1399.67 99,-1395.83 102.83,-1392 106.67,-1392 106.67,-1392 148.33,-1392 148.33,-1392 152.17,-1392 156,-1395.83 156,-1399.67 156,-1399.67 156,-1407.33 156,-1407.33 156,-1411.17 152.17,-1415 148.33,-1415"/>
<text text-anchor="middle" x="127.5" y="-1399.8" font-family="Arial" font-size="14.00" fill="#c6c5fe">core.ts</text>
</g>
<!-- core.ts&#45;&gt;adapters/console/index.ts -->
<g id="edge5" class="edge">
<title>core.ts&#45;&gt;adapters/console/index.ts</title>
<path fill="none" stroke="#757575" d="M134.34,-1415.19C143.86,-1433.02 164.49,-1466.82 192,-1484.5 195.12,-1486.51 198.42,-1488.33 201.84,-1489.97"/>
<polygon fill="#757575" stroke="#757575" points="200.53,-1493.22 211.11,-1493.92 203.28,-1486.78 200.53,-1493.22"/>
</g>
<!-- core.ts&#45;&gt;adapters/stateless/index.ts -->
<g id="edge6" class="edge">
<title>core.ts&#45;&gt;adapters/stateless/index.ts</title>
<path fill="none" stroke="#757575" d="M143.64,-1415.03C156.04,-1423.97 174.36,-1436.05 192,-1443.5 197.73,-1445.92 203.8,-1448.1 209.95,-1450.05"/>
<polygon fill="#757575" stroke="#757575" points="209.08,-1453.44 219.66,-1452.93 211.07,-1446.73 209.08,-1453.44"/>
</g>
<!-- core.ts&#45;&gt;config.ts -->
<g id="edge7" class="edge">
<title>core.ts&#45;&gt;config.ts</title>
<path fill="none" stroke="#757575" d="M156.13,-1401.92C310.96,-1392.91 1067.2,-1346.97 1161,-1303.5 1181.25,-1294.12 1176.71,-1277.79 1197,-1268.5 1256.52,-1241.23 1333.95,-1240.86 1381.26,-1244.01"/>
<polygon fill="#757575" stroke="#757575" points="1381.22,-1247.51 1391.45,-1244.77 1381.74,-1240.53 1381.22,-1247.51"/>
</g>
<!-- crypto.ts -->
<g id="node10" class="node">
<title>crypto.ts</title>
<path fill="none" stroke="#cfffac" d="M306.33,-1435C306.33,-1435 253.67,-1435 253.67,-1435 249.83,-1435 246,-1431.17 246,-1427.33 246,-1427.33 246,-1419.67 246,-1419.67 246,-1415.83 249.83,-1412 253.67,-1412 253.67,-1412 306.33,-1412 306.33,-1412 310.17,-1412 314,-1415.83 314,-1419.67 314,-1419.67 314,-1427.33 314,-1427.33 314,-1431.17 310.17,-1435 306.33,-1435"/>
<text text-anchor="middle" x="280" y="-1419.8" font-family="Arial" font-size="14.00" fill="#cfffac">crypto.ts</text>
</g>
<!-- core.ts&#45;&gt;crypto.ts -->
<g id="edge8" class="edge">
<title>core.ts&#45;&gt;crypto.ts</title>
<path fill="none" stroke="#757575" d="M156.1,-1407.17C178.33,-1410.12 209.98,-1414.33 235.59,-1417.73"/>
<polygon fill="#757575" stroke="#757575" points="235.42,-1421.24 245.79,-1419.09 236.34,-1414.3 235.42,-1421.24"/>
</g>
<!-- handlers/index.ts -->
<g id="node11" class="node">
<title>handlers/index.ts</title>
<path fill="none" stroke="#c6c5fe" d="M331.83,-1222C331.83,-1222 228.17,-1222 228.17,-1222 224.33,-1222 220.5,-1218.17 220.5,-1214.33 220.5,-1214.33 220.5,-1206.67 220.5,-1206.67 220.5,-1202.83 224.33,-1199 228.17,-1199 228.17,-1199 331.83,-1199 331.83,-1199 335.67,-1199 339.5,-1202.83 339.5,-1206.67 339.5,-1206.67 339.5,-1214.33 339.5,-1214.33 339.5,-1218.17 335.67,-1222 331.83,-1222"/>
<text text-anchor="middle" x="280" y="-1206.8" font-family="Arial" font-size="14.00" fill="#c6c5fe">handlers/index.ts</text>
</g>
<!-- core.ts&#45;&gt;handlers/index.ts -->
<g id="edge9" class="edge">
<title>core.ts&#45;&gt;handlers/index.ts</title>
<path fill="none" stroke="#757575" d="M137.69,-1391.72C162.78,-1359.54 232.66,-1269.93 263.75,-1230.06"/>
<polygon fill="#757575" stroke="#757575" points="266.54,-1232.17 269.93,-1222.13 261.02,-1227.86 266.54,-1232.17"/>
</g>
<!-- handlers/authorize.handler.ts -->
<g id="node13" class="node">
<title>handlers/authorize.handler.ts</title>
<path fill="none" stroke="#c6c5fe" d="M1030.83,-978C1030.83,-978 856.17,-978 856.17,-978 852.33,-978 848.5,-974.17 848.5,-970.33 848.5,-970.33 848.5,-962.67 848.5,-962.67 848.5,-958.83 852.33,-955 856.17,-955 856.17,-955 1030.83,-955 1030.83,-955 1034.67,-955 1038.5,-958.83 1038.5,-962.67 1038.5,-962.67 1038.5,-970.33 1038.5,-970.33 1038.5,-974.17 1034.67,-978 1030.83,-978"/>
<text text-anchor="middle" x="943.5" y="-962.8" font-family="Arial" font-size="14.00" fill="#c6c5fe">handlers/authorize.handler.ts</text>
</g>
<!-- handlers/index.ts&#45;&gt;handlers/authorize.handler.ts -->
<g id="edge25" class="edge">
<title>handlers/index.ts&#45;&gt;handlers/authorize.handler.ts</title>
<path fill="none" stroke="#757575" d="M286.14,-1198.68C300.12,-1168.1 341.96,-1086.03 404,-1047.5 537.02,-964.88 723.32,-955.26 838.28,-958.77"/>
<polygon fill="#757575" stroke="#757575" points="838.38,-962.27 848.49,-959.12 838.62,-955.28 838.38,-962.27"/>
</g>
<!-- handlers/credential.handler.ts -->
<g id="node16" class="node">
<title>handlers/credential.handler.ts</title>
<path fill="none" stroke="#c6c5fe" d="M1032.33,-63C1032.33,-63 854.67,-63 854.67,-63 850.83,-63 847,-59.17 847,-55.33 847,-55.33 847,-47.67 847,-47.67 847,-43.83 850.83,-40 854.67,-40 854.67,-40 1032.33,-40 1032.33,-40 1036.17,-40 1040,-43.83 1040,-47.67 1040,-47.67 1040,-55.33 1040,-55.33 1040,-59.17 1036.17,-63 1032.33,-63"/>
<text text-anchor="middle" x="943.5" y="-47.8" font-family="Arial" font-size="14.00" fill="#c6c5fe">handlers/credential.handler.ts</text>
</g>
<!-- handlers/index.ts&#45;&gt;handlers/credential.handler.ts -->
<g id="edge26" class="edge">
<title>handlers/index.ts&#45;&gt;handlers/credential.handler.ts</title>
<path fill="none" stroke="#757575" d="M281.39,-1198.72C285.42,-1098.41 327.84,-383.95 726,-77.5 757.05,-53.6 798.38,-44.78 836.61,-42.75"/>
<polygon fill="#757575" stroke="#757575" points="836.91,-46.24 846.77,-42.36 836.64,-39.24 836.91,-46.24"/>
</g>
<!-- handlers/credentialOffer.handler.ts -->
<g id="node18" class="node">
<title>handlers/credentialOffer.handler.ts</title>
<path fill="none" stroke="#c6c5fe" d="M1047.33,-1417C1047.33,-1417 839.67,-1417 839.67,-1417 835.83,-1417 832,-1413.17 832,-1409.33 832,-1409.33 832,-1401.67 832,-1401.67 832,-1397.83 835.83,-1394 839.67,-1394 839.67,-1394 1047.33,-1394 1047.33,-1394 1051.17,-1394 1055,-1397.83 1055,-1401.67 1055,-1401.67 1055,-1409.33 1055,-1409.33 1055,-1413.17 1051.17,-1417 1047.33,-1417"/>
<text text-anchor="middle" x="943.5" y="-1401.8" font-family="Arial" font-size="14.00" fill="#c6c5fe">handlers/credentialOffer.handler.ts</text>
</g>
<!-- handlers/index.ts&#45;&gt;handlers/credentialOffer.handler.ts -->
<g id="edge27" class="edge">
<title>handlers/index.ts&#45;&gt;handlers/credentialOffer.handler.ts</title>
<path fill="none" stroke="#757575" d="M320.4,-1222.11C434.95,-1255.88 767.74,-1353.98 893.55,-1391.07"/>
<polygon fill="#757575" stroke="#757575" points="892.73,-1394.48 903.31,-1393.95 894.71,-1387.76 892.73,-1394.48"/>
</g>
<!-- handlers/nonce.handler.ts -->
<g id="node20" class="node">
<title>handlers/nonce.handler.ts</title>
<path fill="none" stroke="#c6c5fe" d="M1021.33,-1261C1021.33,-1261 865.67,-1261 865.67,-1261 861.83,-1261 858,-1257.17 858,-1253.33 858,-1253.33 858,-1245.67 858,-1245.67 858,-1241.83 861.83,-1238 865.67,-1238 865.67,-1238 1021.33,-1238 1021.33,-1238 1025.17,-1238 1029,-1241.83 1029,-1245.67 1029,-1245.67 1029,-1253.33 1029,-1253.33 1029,-1257.17 1025.17,-1261 1021.33,-1261"/>
<text text-anchor="middle" x="943.5" y="-1245.8" font-family="Arial" font-size="14.00" fill="#c6c5fe">handlers/nonce.handler.ts</text>
</g>
<!-- handlers/index.ts&#45;&gt;handlers/nonce.handler.ts -->
<g id="edge28" class="edge">
<title>handlers/index.ts&#45;&gt;handlers/nonce.handler.ts</title>
<path fill="none" stroke="#757575" d="M339.7,-1213.96C454.3,-1220.72 708.71,-1235.72 847.57,-1243.9"/>
<polygon fill="#757575" stroke="#757575" points="847.58,-1247.41 857.77,-1244.5 848,-1240.42 847.58,-1247.41"/>
</g>
<!-- handlers/oauthAuthorizationServer.handler.ts -->
<g id="node21" class="node">
<title>handlers/oauthAuthorizationServer.handler.ts</title>
<path fill="none" stroke="#c6c5fe" d="M682.33,-1203C682.33,-1203 411.67,-1203 411.67,-1203 407.83,-1203 404,-1199.17 404,-1195.33 404,-1195.33 404,-1187.67 404,-1187.67 404,-1183.83 407.83,-1180 411.67,-1180 411.67,-1180 682.33,-1180 682.33,-1180 686.17,-1180 690,-1183.83 690,-1187.67 690,-1187.67 690,-1195.33 690,-1195.33 690,-1199.17 686.17,-1203 682.33,-1203"/>
<text text-anchor="middle" x="547" y="-1187.8" font-family="Arial" font-size="14.00" fill="#c6c5fe">handlers/oauthAuthorizationServer.handler.ts</text>
</g>
<!-- handlers/index.ts&#45;&gt;handlers/oauthAuthorizationServer.handler.ts -->
<g id="edge29" class="edge">
<title>handlers/index.ts&#45;&gt;handlers/oauthAuthorizationServer.handler.ts</title>
<path fill="none" stroke="#757575" d="M339.81,-1206.28C356.17,-1205.11 374.73,-1203.78 393.85,-1202.41"/>
<polygon fill="#757575" stroke="#757575" points="394.16,-1205.9 403.89,-1201.69 393.66,-1198.91 394.16,-1205.9"/>
</g>
<!-- handlers/openidCredentialIssuer.handler.ts -->
<g id="node22" class="node">
<title>handlers/openidCredentialIssuer.handler.ts</title>
<path fill="none" stroke="#c6c5fe" d="M1071.83,-1478C1071.83,-1478 815.17,-1478 815.17,-1478 811.33,-1478 807.5,-1474.17 807.5,-1470.33 807.5,-1470.33 807.5,-1462.67 807.5,-1462.67 807.5,-1458.83 811.33,-1455 815.17,-1455 815.17,-1455 1071.83,-1455 1071.83,-1455 1075.67,-1455 1079.5,-1458.83 1079.5,-1462.67 1079.5,-1462.67 1079.5,-1470.33 1079.5,-1470.33 1079.5,-1474.17 1075.67,-1478 1071.83,-1478"/>
<text text-anchor="middle" x="943.5" y="-1462.8" font-family="Arial" font-size="14.00" fill="#c6c5fe">handlers/openidCredentialIssuer.handler.ts</text>
</g>
<!-- handlers/index.ts&#45;&gt;handlers/openidCredentialIssuer.handler.ts -->
<g id="edge30" class="edge">
<title>handlers/index.ts&#45;&gt;handlers/openidCredentialIssuer.handler.ts</title>
<path fill="none" stroke="#757575" d="M294.12,-1222.3C315.69,-1241.19 360.6,-1278.45 404,-1301.5 523.06,-1364.73 568.85,-1343.38 690,-1402.5 707.06,-1410.83 708.35,-1418.5 726,-1425.5 758.12,-1438.25 794.53,-1447.11 828.2,-1453.23"/>
<polygon fill="#757575" stroke="#757575" points="827.63,-1456.68 838.08,-1454.96 828.84,-1449.79 827.63,-1456.68"/>
</g>
<!-- handlers/pushedAuthorizationRequest.handler.ts -->
<g id="node23" class="node">
<title>handlers/pushedAuthorizationRequest.handler.ts</title>
<path fill="none" stroke="#c6c5fe" d="M1089.83,-937C1089.83,-937 797.17,-937 797.17,-937 793.33,-937 789.5,-933.17 789.5,-929.33 789.5,-929.33 789.5,-921.67 789.5,-921.67 789.5,-917.83 793.33,-914 797.17,-914 797.17,-914 1089.83,-914 1089.83,-914 1093.67,-914 1097.5,-917.83 1097.5,-921.67 1097.5,-921.67 1097.5,-929.33 1097.5,-929.33 1097.5,-933.17 1093.67,-937 1089.83,-937"/>
<text text-anchor="middle" x="943.5" y="-921.8" font-family="Arial" font-size="14.00" fill="#c6c5fe">handlers/pushedAuthorizationRequest.handler.ts</text>
</g>
<!-- handlers/index.ts&#45;&gt;handlers/pushedAuthorizationRequest.handler.ts -->
<g id="edge31" class="edge">
<title>handlers/index.ts&#45;&gt;handlers/pushedAuthorizationRequest.handler.ts</title>
<path fill="none" stroke="#757575" d="M282.62,-1198.92C289.03,-1157.9 316.73,-1018.83 404,-960.5 552.83,-861.01 779.51,-890.55 884.9,-911.92"/>
<polygon fill="#757575" stroke="#757575" points="884.21,-915.35 894.71,-913.96 885.63,-908.5 884.21,-915.35"/>
</g>
<!-- handlers/token.handler.ts -->
<g id="node24" class="node">
<title>handlers/token.handler.ts</title>
<path fill="none" stroke="#c6c5fe" d="M622.83,-1080C622.83,-1080 471.17,-1080 471.17,-1080 467.33,-1080 463.5,-1076.17 463.5,-1072.33 463.5,-1072.33 463.5,-1064.67 463.5,-1064.67 463.5,-1060.83 467.33,-1057 471.17,-1057 471.17,-1057 622.83,-1057 622.83,-1057 626.67,-1057 630.5,-1060.83 630.5,-1064.67 630.5,-1064.67 630.5,-1072.33 630.5,-1072.33 630.5,-1076.17 626.67,-1080 622.83,-1080"/>
<text text-anchor="middle" x="547" y="-1064.8" font-family="Arial" font-size="14.00" fill="#c6c5fe">handlers/token.handler.ts</text>
</g>
<!-- handlers/index.ts&#45;&gt;handlers/token.handler.ts -->
<g id="edge32" class="edge">
<title>handlers/index.ts&#45;&gt;handlers/token.handler.ts</title>
<path fill="none" stroke="#757575" d="M302.69,-1198.88C349.68,-1173.7 461.04,-1114.03 515.26,-1084.97"/>
<polygon fill="#757575" stroke="#757575" points="517.22,-1087.89 524.39,-1080.08 513.92,-1081.72 517.22,-1087.89"/>
</g>
<!-- errors.ts -->
<g id="node12" class="node">
<title>errors.ts</title>
<path fill="none" stroke="#cfffac" d="M2396.33,-451C2396.33,-451 2345.67,-451 2345.67,-451 2341.83,-451 2338,-447.17 2338,-443.33 2338,-443.33 2338,-435.67 2338,-435.67 2338,-431.83 2341.83,-428 2345.67,-428 2345.67,-428 2396.33,-428 2396.33,-428 2400.17,-428 2404,-431.83 2404,-435.67 2404,-435.67 2404,-443.33 2404,-443.33 2404,-447.17 2400.17,-451 2396.33,-451"/>
<text text-anchor="middle" x="2371" y="-435.8" font-family="Arial" font-size="14.00" fill="#cfffac">errors.ts</text>
</g>
<!-- handlers/authorize.handler.ts&#45;&gt;config.ts -->
<g id="edge10" class="edge">
<title>handlers/authorize.handler.ts&#45;&gt;config.ts</title>
<path fill="none" stroke="#757575" d="M1001.32,-954.97C1049.65,-948.68 1117.9,-948.63 1161,-986.5 1215.76,-1034.61 1150.89,-1090.05 1197,-1146.5 1243.89,-1203.91 1329.88,-1230.18 1381.51,-1241.27"/>
<polygon fill="#757575" stroke="#757575" points="1380.85,-1244.71 1391.35,-1243.29 1382.26,-1237.85 1380.85,-1244.71"/>
</g>
<!-- handlers/authorize.handler.ts&#45;&gt;resources.ts -->
<g id="edge13" class="edge">
<title>handlers/authorize.handler.ts&#45;&gt;resources.ts</title>
<path fill="none" stroke="#757575" d="M1038.64,-959.97C1078.34,-960.97 1123.86,-967.3 1161,-986.5 1182.84,-997.79 1176.14,-1015.49 1197,-1028.5 1374.62,-1139.29 1465.95,-1052.5 1653,-1146.5 1671.36,-1155.73 1669.93,-1167.86 1689,-1175.5 1787.12,-1214.82 1820.39,-1191.05 1926,-1195.5 2006.82,-1198.9 2223.21,-1241.13 2290,-1195.5 2351.81,-1153.27 2365.87,-1055.59 2369.06,-1012.08"/>
<polygon fill="#757575" stroke="#757575" points="2372.56,-1012.22 2369.67,-1002.02 2365.57,-1011.79 2372.56,-1012.22"/>
</g>
<!-- handlers/authorize.handler.ts&#45;&gt;errors.ts -->
<g id="edge11" class="edge">
<title>handlers/authorize.handler.ts&#45;&gt;errors.ts</title>
<path fill="none" stroke="#757575" d="M994.01,-978.06C1043.75,-986.43 1118.89,-989.62 1161,-945.5 1216.23,-887.64 1140.46,-283.08 1197,-226.5 1218.47,-205.01 2265.46,-171.59 2290,-189.5 2364.26,-243.7 2371.16,-367.73 2370.75,-417.87"/>
<polygon fill="#757575" stroke="#757575" points="2367.25,-417.86 2370.56,-427.92 2374.25,-417.99 2367.25,-417.86"/>
</g>
<!-- handlers/schemas/authorizeHandlerConfig.schema.ts -->
<g id="node14" class="node">
<title>handlers/schemas/authorizeHandlerConfig.schema.ts</title>
<path fill="none" stroke="#cfffac" d="M1586.33,-259C1586.33,-259 1263.67,-259 1263.67,-259 1259.83,-259 1256,-255.17 1256,-251.33 1256,-251.33 1256,-243.67 1256,-243.67 1256,-239.83 1259.83,-236 1263.67,-236 1263.67,-236 1586.33,-236 1586.33,-236 1590.17,-236 1594,-239.83 1594,-243.67 1594,-243.67 1594,-251.33 1594,-251.33 1594,-255.17 1590.17,-259 1586.33,-259"/>
<text text-anchor="middle" x="1425" y="-243.8" font-family="Arial" font-size="14.00" fill="#cfffac">handlers/schemas/authorizeHandlerConfig.schema.ts</text>
</g>
<!-- handlers/authorize.handler.ts&#45;&gt;handlers/schemas/authorizeHandlerConfig.schema.ts -->
<g id="edge12" class="edge">
<title>handlers/authorize.handler.ts&#45;&gt;handlers/schemas/authorizeHandlerConfig.schema.ts</title>
<path fill="none" stroke="#757575" d="M993.98,-978.03C1043.69,-986.38 1118.82,-989.55 1161,-945.5 1264.44,-837.5 1094.5,-382.4 1197,-273.5 1237.27,-230.71 1306.94,-228.74 1358.5,-234.67"/>
<polygon fill="#757575" stroke="#757575" points="1358.19,-238.16 1368.56,-235.95 1359.08,-231.21 1358.19,-238.16"/>
</g>
<!-- statements/index.ts -->
<g id="node15" class="node">
<title>statements/index.ts</title>
<path fill="none" stroke="#c6c5fe" d="M1484.33,-1020C1484.33,-1020 1365.67,-1020 1365.67,-1020 1361.83,-1020 1358,-1016.17 1358,-1012.33 1358,-1012.33 1358,-1004.67 1358,-1004.67 1358,-1000.83 1361.83,-997 1365.67,-997 1365.67,-997 1484.33,-997 1484.33,-997 1488.17,-997 1492,-1000.83 1492,-1004.67 1492,-1004.67 1492,-1012.33 1492,-1012.33 1492,-1016.17 1488.17,-1020 1484.33,-1020"/>
<text text-anchor="middle" x="1425" y="-1004.8" font-family="Arial" font-size="14.00" fill="#c6c5fe">statements/index.ts</text>
</g>
<!-- handlers/authorize.handler.ts&#45;&gt;statements/index.ts -->
<g id="edge14" class="edge">
<title>handlers/authorize.handler.ts&#45;&gt;statements/index.ts</title>
<path fill="none" stroke="#757575" d="M1038.66,-974.75C1129.08,-982.67 1263.97,-994.48 1347.82,-1001.83"/>
<polygon fill="#757575" stroke="#757575" points="1347.52,-1005.31 1357.79,-1002.7 1348.13,-998.34 1347.52,-1005.31"/>
</g>
<!-- statements/grants/index.ts -->
<g id="node34" class="node">
<title>statements/grants/index.ts</title>
<path fill="none" stroke="#c6c5fe" d="M1869.33,-1105C1869.33,-1105 1709.67,-1105 1709.67,-1105 1705.83,-1105 1702,-1101.17 1702,-1097.33 1702,-1097.33 1702,-1089.67 1702,-1089.67 1702,-1085.83 1705.83,-1082 1709.67,-1082 1709.67,-1082 1869.33,-1082 1869.33,-1082 1873.17,-1082 1877,-1085.83 1877,-1089.67 1877,-1089.67 1877,-1097.33 1877,-1097.33 1877,-1101.17 1873.17,-1105 1869.33,-1105"/>
<text text-anchor="middle" x="1789.5" y="-1089.8" font-family="Arial" font-size="14.00" fill="#c6c5fe">statements/grants/index.ts</text>
</g>
<!-- statements/index.ts&#45;&gt;statements/grants/index.ts -->
<g id="edge66" class="edge">
<title>statements/index.ts&#45;&gt;statements/grants/index.ts</title>
<path fill="none" stroke="#757575" d="M1475.27,-1020.05C1541.32,-1035.54 1658.45,-1063.01 1729.25,-1079.61"/>
<polygon fill="#757575" stroke="#757575" points="1728.81,-1083.1 1739.34,-1081.97 1730.41,-1076.28 1728.81,-1083.1"/>
</g>
<!-- statements/locations/index.ts -->
<g id="node35" class="node">
<title>statements/locations/index.ts</title>
<path fill="none" stroke="#c6c5fe" d="M1877.33,-1022C1877.33,-1022 1701.67,-1022 1701.67,-1022 1697.83,-1022 1694,-1018.17 1694,-1014.33 1694,-1014.33 1694,-1006.67 1694,-1006.67 1694,-1002.83 1697.83,-999 1701.67,-999 1701.67,-999 1877.33,-999 1877.33,-999 1881.17,-999 1885,-1002.83 1885,-1006.67 1885,-1006.67 1885,-1014.33 1885,-1014.33 1885,-1018.17 1881.17,-1022 1877.33,-1022"/>
<text text-anchor="middle" x="1789.5" y="-1006.8" font-family="Arial" font-size="14.00" fill="#c6c5fe">statements/locations/index.ts</text>
</g>
<!-- statements/index.ts&#45;&gt;statements/locations/index.ts -->
<g id="edge67" class="edge">
<title>statements/index.ts&#45;&gt;statements/locations/index.ts</title>
<path fill="none" stroke="#757575" d="M1492.07,-1008.86C1545.55,-1009.16 1621.89,-1009.58 1683.7,-1009.92"/>
<polygon fill="#757575" stroke="#757575" points="1683.87,-1013.42 1693.89,-1009.98 1683.91,-1006.42 1683.87,-1013.42"/>
</g>
<!-- statements/resources/index.ts -->
<g id="node36" class="node">
<title>statements/resources/index.ts</title>
<path fill="none" stroke="#c6c5fe" d="M1880.33,-1167C1880.33,-1167 1698.67,-1167 1698.67,-1167 1694.83,-1167 1691,-1163.17 1691,-1159.33 1691,-1159.33 1691,-1151.67 1691,-1151.67 1691,-1147.83 1694.83,-1144 1698.67,-1144 1698.67,-1144 1880.33,-1144 1880.33,-1144 1884.17,-1144 1888,-1147.83 1888,-1151.67 1888,-1151.67 1888,-1159.33 1888,-1159.33 1888,-1163.17 1884.17,-1167 1880.33,-1167"/>
<text text-anchor="middle" x="1789.5" y="-1151.8" font-family="Arial" font-size="14.00" fill="#c6c5fe">statements/resources/index.ts</text>
</g>
<!-- statements/index.ts&#45;&gt;statements/resources/index.ts -->
<g id="edge68" class="edge">
<title>statements/index.ts&#45;&gt;statements/resources/index.ts</title>
<path fill="none" stroke="#757575" d="M1454.44,-1020.03C1519.22,-1046.3 1677.72,-1110.58 1750.65,-1140.15"/>
<polygon fill="#757575" stroke="#757575" points="1749.35,-1143.4 1759.94,-1143.92 1751.99,-1136.92 1749.35,-1143.4"/>
</g>
<!-- statements/tokens/index.ts -->
<g id="node37" class="node">
<title>statements/tokens/index.ts</title>
<path fill="none" stroke="#c6c5fe" d="M1870.33,-941C1870.33,-941 1708.67,-941 1708.67,-941 1704.83,-941 1701,-937.17 1701,-933.33 1701,-933.33 1701,-925.67 1701,-925.67 1701,-921.83 1704.83,-918 1708.67,-918 1708.67,-918 1870.33,-918 1870.33,-918 1874.17,-918 1878,-921.83 1878,-925.67 1878,-925.67 1878,-933.33 1878,-933.33 1878,-937.17 1874.17,-941 1870.33,-941"/>
<text text-anchor="middle" x="1789.5" y="-925.8" font-family="Arial" font-size="14.00" fill="#c6c5fe">statements/tokens/index.ts</text>
</g>
<!-- statements/index.ts&#45;&gt;statements/tokens/index.ts -->
<g id="edge69" class="edge">
<title>statements/index.ts&#45;&gt;statements/tokens/index.ts</title>
<path fill="none" stroke="#757575" d="M1479.1,-996.93C1544.61,-982.65 1655.85,-958.41 1725.58,-943.21"/>
<polygon fill="#757575" stroke="#757575" points="1726.53,-946.59 1735.55,-941.04 1725.04,-939.75 1726.53,-946.59"/>
</g>
<!-- statements/validations/index.ts -->
<g id="node38" class="node">
<title>statements/validations/index.ts</title>
<path fill="none" stroke="#c6c5fe" d="M1882.33,-594C1882.33,-594 1696.67,-594 1696.67,-594 1692.83,-594 1689,-590.17 1689,-586.33 1689,-586.33 1689,-578.67 1689,-578.67 1689,-574.83 1692.83,-571 1696.67,-571 1696.67,-571 1882.33,-571 1882.33,-571 1886.17,-571 1890,-574.83 1890,-578.67 1890,-578.67 1890,-586.33 1890,-586.33 1890,-590.17 1886.17,-594 1882.33,-594"/>
<text text-anchor="middle" x="1789.5" y="-578.8" font-family="Arial" font-size="14.00" fill="#c6c5fe">statements/validations/index.ts</text>
</g>
<!-- statements/index.ts&#45;&gt;statements/validations/index.ts -->
<g id="edge70" class="edge">
<title>statements/index.ts&#45;&gt;statements/validations/index.ts</title>
<path fill="none" stroke="#757575" d="M1436.07,-996.66C1486.28,-937.66 1709.56,-675.27 1772.14,-601.72"/>
<polygon fill="#757575" stroke="#757575" points="1774.83,-603.96 1778.65,-594.08 1769.5,-599.43 1774.83,-603.96"/>
</g>
<!-- handlers/credential.handler.ts&#45;&gt;config.ts -->
<g id="edge15" class="edge">
<title>handlers/credential.handler.ts&#45;&gt;config.ts</title>
<path fill="none" stroke="#757575" d="M947.43,-63.21C974.74,-172.2 1183.83,-1005.86 1197,-1028.5 1249.9,-1119.41 1350.81,-1197.5 1398.21,-1231.02"/>
<polygon fill="#757575" stroke="#757575" points="1396.47,-1234.08 1406.68,-1236.93 1400.48,-1228.34 1396.47,-1234.08"/>
</g>
<!-- handlers/credential.handler.ts&#45;&gt;resources.ts -->
<g id="edge18" class="edge">
<title>handlers/credential.handler.ts&#45;&gt;resources.ts</title>
<path fill="none" stroke="#757575" d="M957.71,-63.22C994.85,-96.09 1103.61,-191.7 1197,-267.5 1514.44,-525.13 1546.53,-676.36 1926,-828.5 2077.02,-889.05 2151.33,-782.4 2290,-867.5 2328.48,-891.11 2352.02,-940.99 2362.87,-969.44"/>
<polygon fill="#757575" stroke="#757575" points="2359.59,-970.66 2366.29,-978.87 2366.17,-968.27 2359.59,-970.66"/>
</g>
<!-- handlers/credential.handler.ts&#45;&gt;errors.ts -->
<g id="edge16" class="edge">
<title>handlers/credential.handler.ts&#45;&gt;errors.ts</title>
<path fill="none" stroke="#757575" d="M1040.24,-49.99C1339.73,-45.67 2241.8,-36.03 2290,-75.5 2343.81,-119.57 2363.66,-346.35 2368.64,-417.87"/>
<polygon fill="#757575" stroke="#757575" points="2365.16,-418.22 2369.32,-427.96 2372.14,-417.75 2365.16,-418.22"/>
</g>
<!-- handlers/credential.handler.ts&#45;&gt;statements/index.ts -->
<g id="edge19" class="edge">
<title>handlers/credential.handler.ts&#45;&gt;statements/index.ts</title>
<path fill="none" stroke="#757575" d="M950.39,-63.25C1000.05,-162.37 1348.58,-857.97 1413.58,-987.69"/>
<polygon fill="#757575" stroke="#757575" points="1410.61,-989.59 1418.22,-996.97 1416.87,-986.46 1410.61,-989.59"/>
</g>
<!-- handlers/schemas/credentialHandlerConfig.schema.ts -->
<g id="node17" class="node">
<title>handlers/schemas/credentialHandlerConfig.schema.ts</title>
<path fill="none" stroke="#cfffac" d="M1587.83,-23C1587.83,-23 1262.17,-23 1262.17,-23 1258.33,-23 1254.5,-19.17 1254.5,-15.33 1254.5,-15.33 1254.5,-7.67 1254.5,-7.67 1254.5,-3.83 1258.33,0 1262.17,0 1262.17,0 1587.83,0 1587.83,0 1591.67,0 1595.5,-3.83 1595.5,-7.67 1595.5,-7.67 1595.5,-15.33 1595.5,-15.33 1595.5,-19.17 1591.67,-23 1587.83,-23"/>
<text text-anchor="middle" x="1425" y="-7.8" font-family="Arial" font-size="14.00" fill="#cfffac">handlers/schemas/credentialHandlerConfig.schema.ts</text>
</g>
<!-- handlers/credential.handler.ts&#45;&gt;handlers/schemas/credentialHandlerConfig.schema.ts -->
<g id="edge17" class="edge">
<title>handlers/credential.handler.ts&#45;&gt;handlers/schemas/credentialHandlerConfig.schema.ts</title>
<path fill="none" stroke="#757575" d="M1040.09,-43.53C1107.42,-37.91 1198.88,-30.28 1275.63,-23.88"/>
<polygon fill="#757575" stroke="#757575" points="1276.21,-27.34 1285.88,-23.02 1275.63,-20.37 1276.21,-27.34"/>
</g>
<!-- handlers/credentialOffer.handler.ts&#45;&gt;config.ts -->
<g id="edge20" class="edge">
<title>handlers/credentialOffer.handler.ts&#45;&gt;config.ts</title>
<path fill="none" stroke="#757575" d="M1055.13,-1415.09C1092.33,-1412.78 1131.76,-1403.55 1161,-1379.5 1201.05,-1346.55 1156.43,-1300.81 1197,-1268.5 1249.3,-1226.85 1331.46,-1231.47 1381.27,-1239.43"/>
<polygon fill="#757575" stroke="#757575" points="1380.94,-1242.92 1391.39,-1241.16 1382.12,-1236.02 1380.94,-1242.92"/>
</g>
<!-- handlers/credentialOffer.handler.ts&#45;&gt;resources.ts -->
<g id="edge23" class="edge">
<title>handlers/credentialOffer.handler.ts&#45;&gt;resources.ts</title>
<path fill="none" stroke="#757575" d="M1055.24,-1409.62C1360.27,-1419.93 2196.33,-1440.67 2290,-1362.5 2344.52,-1317 2363.89,-1085.54 2368.7,-1012.57"/>
<polygon fill="#757575" stroke="#757575" points="2372.21,-1012.47 2369.35,-1002.27 2365.22,-1012.03 2372.21,-1012.47"/>
</g>
<!-- handlers/credentialOffer.handler.ts&#45;&gt;errors.ts -->
<g id="edge21" class="edge">
<title>handlers/credentialOffer.handler.ts&#45;&gt;errors.ts</title>
<path fill="none" stroke="#757575" d="M1055.15,-1406.98C1234.04,-1406.79 1574.72,-1394.87 1653,-1309.5 1709.23,-1248.17 1654.33,-637.14 1689,-561.5 1689.95,-559.44 1923.89,-337.34 1926,-336.5 2001.13,-306.52 2217.35,-300.94 2290,-336.5 2324.68,-353.47 2348.65,-393.53 2360.79,-418.39"/>
<polygon fill="#757575" stroke="#757575" points="2357.74,-420.12 2365.14,-427.7 2364.08,-417.16 2357.74,-420.12"/>
</g>
<!-- handlers/credentialOffer.handler.ts&#45;&gt;statements/index.ts -->
<g id="edge24" class="edge">
<title>handlers/credentialOffer.handler.ts&#45;&gt;statements/index.ts</title>
<path fill="none" stroke="#757575" d="M967.84,-1393.86C1009.27,-1372.56 1097.29,-1324.43 1161,-1269.5 1179.62,-1253.45 1180.13,-1245.39 1197,-1227.5 1269.92,-1150.15 1362.78,-1064.18 1403.41,-1027.14"/>
<polygon fill="#757575" stroke="#757575" points="1406,-1029.52 1411.04,-1020.2 1401.29,-1024.34 1406,-1029.52"/>
</g>
<!-- handlers/schemas/credentialOfferHandlerConfig.schema.ts -->
<g id="node19" class="node">
<title>handlers/schemas/credentialOfferHandlerConfig.schema.ts</title>
<path fill="none" stroke="#cfffac" d="M1603.33,-1457C1603.33,-1457 1246.67,-1457 1246.67,-1457 1242.83,-1457 1239,-1453.17 1239,-1449.33 1239,-1449.33 1239,-1441.67 1239,-1441.67 1239,-1437.83 1242.83,-1434 1246.67,-1434 1246.67,-1434 1603.33,-1434 1603.33,-1434 1607.17,-1434 1611,-1437.83 1611,-1441.67 1611,-1441.67 1611,-1449.33 1611,-1449.33 1611,-1453.17 1607.17,-1457 1603.33,-1457"/>
<text text-anchor="middle" x="1425" y="-1441.8" font-family="Arial" font-size="14.00" fill="#cfffac">handlers/schemas/credentialOfferHandlerConfig.schema.ts</text>
</g>
<!-- handlers/credentialOffer.handler.ts&#45;&gt;handlers/schemas/credentialOfferHandlerConfig.schema.ts -->
<g id="edge22" class="edge">
<title>handlers/credentialOffer.handler.ts&#45;&gt;handlers/schemas/credentialOfferHandlerConfig.schema.ts</title>
<path fill="none" stroke="#757575" d="M1055.11,-1414.73C1120.75,-1420.2 1204.8,-1427.21 1276.09,-1433.16"/>
<polygon fill="#757575" stroke="#757575" points="1275.81,-1436.65 1286.06,-1433.99 1276.39,-1429.67 1275.81,-1436.65"/>
</g>
<!-- handlers/nonce.handler.ts&#45;&gt;config.ts -->
<g id="edge33" class="edge">
<title>handlers/nonce.handler.ts&#45;&gt;config.ts</title>
<path fill="none" stroke="#757575" d="M1029.12,-1249.32C1132.17,-1249.11 1302.23,-1248.75 1381.22,-1248.59"/>
<polygon fill="#757575" stroke="#757575" points="1381.3,-1252.09 1391.29,-1248.57 1381.29,-1245.09 1381.3,-1252.09"/>
</g>
<!-- handlers/nonce.handler.ts&#45;&gt;resources.ts -->
<g id="edge36" class="edge">
<title>handlers/nonce.handler.ts&#45;&gt;resources.ts</title>
<path fill="none" stroke="#757575" d="M983,-1261.05C1032.14,-1275.23 1120.03,-1298.73 1197,-1309.5 1317.3,-1326.33 2194.83,-1407.98 2290,-1332.5 2341.03,-1292.03 2362.6,-1080.98 2368.34,-1012.2"/>
<polygon fill="#757575" stroke="#757575" points="2371.84,-1012.34 2369.16,-1002.09 2364.87,-1011.77 2371.84,-1012.34"/>
</g>
<!-- handlers/nonce.handler.ts&#45;&gt;errors.ts -->
<g id="edge34" class="edge">
<title>handlers/nonce.handler.ts&#45;&gt;errors.ts</title>
<path fill="none" stroke="#757575" d="M1029.16,-1246.98C1074.54,-1241.07 1127.79,-1225.99 1161,-1189.5 1222.38,-1122.06 1155.74,-1068.83 1197,-987.5 1398,-591.28 1502.85,-438.92 1926,-303.5 2003.04,-278.85 2219.78,-263.34 2290,-303.5 2333.18,-328.2 2355.35,-386.29 2364.6,-417.97"/>
<polygon fill="#757575" stroke="#757575" points="2361.32,-419.26 2367.34,-427.98 2368.07,-417.41 2361.32,-419.26"/>
</g>
<!-- handlers/nonce.handler.ts&#45;&gt;statements/index.ts -->
<g id="edge37" class="edge">
<title>handlers/nonce.handler.ts&#45;&gt;statements/index.ts</title>
<path fill="none" stroke="#757575" d="M1007.09,-1237.93C1051.41,-1228.37 1111.52,-1212.59 1161,-1189.5 1258.95,-1143.8 1360.27,-1062.7 1403,-1026.65"/>
<polygon fill="#757575" stroke="#757575" points="1405.4,-1029.21 1410.75,-1020.06 1400.86,-1023.87 1405.4,-1029.21"/>
</g>
<!-- handlers/schemas/nonceHandlerConfig.schema.ts -->
<g id="node25" class="node">
<title>handlers/schemas/nonceHandlerConfig.schema.ts</title>
<path fill="none" stroke="#cfffac" d="M1577.33,-1301C1577.33,-1301 1272.67,-1301 1272.67,-1301 1268.83,-1301 1265,-1297.17 1265,-1293.33 1265,-1293.33 1265,-1285.67 1265,-1285.67 1265,-1281.83 1268.83,-1278 1272.67,-1278 1272.67,-1278 1577.33,-1278 1577.33,-1278 1581.17,-1278 1585,-1281.83 1585,-1285.67 1585,-1285.67 1585,-1293.33 1585,-1293.33 1585,-1297.17 1581.17,-1301 1577.33,-1301"/>
<text text-anchor="middle" x="1425" y="-1285.8" font-family="Arial" font-size="14.00" fill="#cfffac">handlers/schemas/nonceHandlerConfig.schema.ts</text>
</g>
<!-- handlers/nonce.handler.ts&#45;&gt;handlers/schemas/nonceHandlerConfig.schema.ts -->
<g id="edge35" class="edge">
<title>handlers/nonce.handler.ts&#45;&gt;handlers/schemas/nonceHandlerConfig.schema.ts</title>
<path fill="none" stroke="#757575" d="M1029.12,-1256.56C1097.19,-1262.24 1194.49,-1270.35 1275.47,-1277.11"/>
<polygon fill="#757575" stroke="#757575" points="1275.51,-1280.63 1285.77,-1277.97 1276.1,-1273.65 1275.51,-1280.63"/>
</g>
<!-- handlers/oauthAuthorizationServer.handler.ts&#45;&gt;config.ts -->
<g id="edge38" class="edge">
<title>handlers/oauthAuthorizationServer.handler.ts&#45;&gt;config.ts</title>
<path fill="none" stroke="#757575" d="M690.18,-1199.45C814.44,-1206.55 999.72,-1217.5 1161,-1228.5 1238.57,-1233.79 1328.95,-1240.86 1381.01,-1245.02"/>
<polygon fill="#757575" stroke="#757575" points="1380.96,-1248.53 1391.21,-1245.84 1381.52,-1241.55 1380.96,-1248.53"/>
</g>
<!-- handlers/schemas/oauthAuthorizationServerHandlerConfig.schema.ts -->
<g id="node26" class="node">
<title>handlers/schemas/oauthAuthorizationServerHandlerConfig.schema.ts</title>
<path fill="none" stroke="#cfffac" d="M1153.33,-1181C1153.33,-1181 733.67,-1181 733.67,-1181 729.83,-1181 726,-1177.17 726,-1173.33 726,-1173.33 726,-1165.67 726,-1165.67 726,-1161.83 729.83,-1158 733.67,-1158 733.67,-1158 1153.33,-1158 1153.33,-1158 1157.17,-1158 1161,-1161.83 1161,-1165.67 1161,-1165.67 1161,-1173.33 1161,-1173.33 1161,-1177.17 1157.17,-1181 1153.33,-1181"/>
<text text-anchor="middle" x="943.5" y="-1165.8" font-family="Arial" font-size="14.00" fill="#cfffac">handlers/schemas/oauthAuthorizationServerHandlerConfig.schema.ts</text>
</g>
<!-- handlers/oauthAuthorizationServer.handler.ts&#45;&gt;handlers/schemas/oauthAuthorizationServerHandlerConfig.schema.ts -->
<g id="edge39" class="edge">
<title>handlers/oauthAuthorizationServer.handler.ts&#45;&gt;handlers/schemas/oauthAuthorizationServerHandlerConfig.schema.ts</title>
<path fill="none" stroke="#757575" d="M690.14,-1183.57C701.87,-1182.92 713.89,-1182.25 726,-1181.57"/>
<polygon fill="#757575" stroke="#757575" points="726.4,-1185.06 736.19,-1181.01 726.01,-1178.07 726.4,-1185.06"/>
</g>
<!-- handlers/openidCredentialIssuer.handler.ts&#45;&gt;config.ts -->
<g id="edge40" class="edge">
<title>handlers/openidCredentialIssuer.handler.ts&#45;&gt;config.ts</title>
<path fill="none" stroke="#757575" d="M1079.52,-1465.1C1109.54,-1458.68 1138.95,-1446.72 1161,-1425.5 1212.58,-1375.86 1143.02,-1315.52 1197,-1268.5 1247.65,-1224.37 1330.98,-1229.99 1381.35,-1238.77"/>
<polygon fill="#757575" stroke="#757575" points="1380.8,-1242.22 1391.27,-1240.61 1382.08,-1235.34 1380.8,-1242.22"/>
</g>
<!-- handlers/openidCredentialIssuer.handler.ts&#45;&gt;resources.ts -->
<g id="edge42" class="edge">
<title>handlers/openidCredentialIssuer.handler.ts&#45;&gt;resources.ts</title>
<path fill="none" stroke="#757575" d="M1000.86,-1478.03C1051.83,-1487.84 1129.08,-1501.15 1197,-1506.5 1440.21,-1525.64 2114.84,-1573.31 2290,-1403.5 2346.98,-1348.26 2364.87,-1089.2 2368.97,-1012.16"/>
<polygon fill="#757575" stroke="#757575" points="2372.47,-1012.33 2369.48,-1002.16 2365.48,-1011.97 2372.47,-1012.33"/>
</g>
<!-- handlers/schemas/openidCredentialIssuerHandlerConfig.schema.ts -->
<g id="node27" class="node">
<title>handlers/schemas/openidCredentialIssuerHandlerConfig.schema.ts</title>
<path fill="none" stroke="#cfffac" d="M1628.33,-1498C1628.33,-1498 1221.67,-1498 1221.67,-1498 1217.83,-1498 1214,-1494.17 1214,-1490.33 1214,-1490.33 1214,-1482.67 1214,-1482.67 1214,-1478.83 1217.83,-1475 1221.67,-1475 1221.67,-1475 1628.33,-1475 1628.33,-1475 1632.17,-1475 1636,-1478.83 1636,-1482.67 1636,-1482.67 1636,-1490.33 1636,-1490.33 1636,-1494.17 1632.17,-1498 1628.33,-1498"/>
<text text-anchor="middle" x="1425" y="-1482.8" font-family="Arial" font-size="14.00" fill="#cfffac">handlers/schemas/openidCredentialIssuerHandlerConfig.schema.ts</text>
</g>
<!-- handlers/openidCredentialIssuer.handler.ts&#45;&gt;handlers/schemas/openidCredentialIssuerHandlerConfig.schema.ts -->
<g id="edge41" class="edge">
<title>handlers/openidCredentialIssuer.handler.ts&#45;&gt;handlers/schemas/openidCredentialIssuerHandlerConfig.schema.ts</title>
<path fill="none" stroke="#757575" d="M1079.66,-1472.14C1118.25,-1473.75 1161.34,-1475.54 1203.62,-1477.31"/>
<polygon fill="#757575" stroke="#757575" points="1203.63,-1480.81 1213.77,-1477.73 1203.92,-1473.82 1203.63,-1480.81"/>
</g>
<!-- handlers/pushedAuthorizationRequest.handler.ts&#45;&gt;config.ts -->
<g id="edge43" class="edge">
<title>handlers/pushedAuthorizationRequest.handler.ts&#45;&gt;config.ts</title>
<path fill="none" stroke="#757575" d="M1097.52,-919.12C1120.3,-923.79 1142.35,-931.99 1161,-945.5 1193.57,-969.09 1174.13,-995.43 1197,-1028.5 1257.13,-1115.42 1355.26,-1196.07 1400.18,-1230.69"/>
<polygon fill="#757575" stroke="#757575" points="1398.11,-1233.51 1408.18,-1236.8 1402.36,-1227.95 1398.11,-1233.51"/>
</g>
<!-- handlers/pushedAuthorizationRequest.handler.ts&#45;&gt;errors.ts -->
<g id="edge44" class="edge">
<title>handlers/pushedAuthorizationRequest.handler.ts&#45;&gt;errors.ts</title>
<path fill="none" stroke="#757575" d="M946.4,-913.79C961.21,-823.95 1061.31,-245.16 1197,-146.5 1234.4,-119.31 2245.81,-117.64 2290,-151.5 2333.14,-184.56 2359.24,-356.33 2367.31,-417.69"/>
<polygon fill="#757575" stroke="#757575" points="2363.86,-418.33 2368.6,-427.8 2370.8,-417.44 2363.86,-418.33"/>
</g>
<!-- handlers/pushedAuthorizationRequest.handler.ts&#45;&gt;statements/index.ts -->
<g id="edge46" class="edge">
<title>handlers/pushedAuthorizationRequest.handler.ts&#45;&gt;statements/index.ts</title>
<path fill="none" stroke="#757575" d="M1097.72,-936.91C1119.04,-939.29 1140.61,-942.13 1161,-945.5 1236.07,-957.89 1321.49,-979.84 1374.07,-994.28"/>
<polygon fill="#757575" stroke="#757575" points="1373.25,-997.68 1383.82,-996.98 1375.11,-990.94 1373.25,-997.68"/>
</g>
<!-- handlers/schemas/pushedAuthorizationRequestHandlerConfig.schema.ts -->
<g id="node28" class="node">
<title>handlers/schemas/pushedAuthorizationRequestHandlerConfig.schema.ts</title>
<path fill="none" stroke="#cfffac" d="M1645.33,-179C1645.33,-179 1204.67,-179 1204.67,-179 1200.83,-179 1197,-175.17 1197,-171.33 1197,-171.33 1197,-163.67 1197,-163.67 1197,-159.83 1200.83,-156 1204.67,-156 1204.67,-156 1645.33,-156 1645.33,-156 1649.17,-156 1653,-159.83 1653,-163.67 1653,-163.67 1653,-171.33 1653,-171.33 1653,-175.17 1649.17,-179 1645.33,-179"/>
<text text-anchor="middle" x="1425" y="-163.8" font-family="Arial" font-size="14.00" fill="#cfffac">handlers/schemas/pushedAuthorizationRequestHandlerConfig.schema.ts</text>
</g>
<!-- handlers/pushedAuthorizationRequest.handler.ts&#45;&gt;handlers/schemas/pushedAuthorizationRequestHandlerConfig.schema.ts -->
<g id="edge45" class="edge">
<title>handlers/pushedAuthorizationRequest.handler.ts&#45;&gt;handlers/schemas/pushedAuthorizationRequestHandlerConfig.schema.ts</title>
<path fill="none" stroke="#757575" d="M944.33,-913.83C943.92,-836.06 952.46,-389.77 1197,-193.5 1201.19,-190.13 1205.58,-187.05 1210.13,-184.23"/>
<polygon fill="#757575" stroke="#757575" points="1212.12,-187.13 1219.06,-179.13 1208.64,-181.05 1212.12,-187.13"/>
</g>
<!-- handlers/token.handler.ts&#45;&gt;config.ts -->
<g id="edge47" class="edge">
<title>handlers/token.handler.ts&#45;&gt;config.ts</title>
<path fill="none" stroke="#757575" d="M590.48,-1080.01C626.34,-1089.31 679.18,-1102.05 726,-1109.5 821.85,-1124.76 1081.1,-1093.4 1161,-1148.5 1191.11,-1169.26 1167.15,-1201.37 1197,-1222.5 1251.41,-1261.02 1332.2,-1260.17 1381.29,-1255.04"/>
<polygon fill="#757575" stroke="#757575" points="1381.73,-1258.51 1391.27,-1253.89 1380.93,-1251.56 1381.73,-1258.51"/>
</g>
<!-- handlers/token.handler.ts&#45;&gt;errors.ts -->
<g id="edge48" class="edge">
<title>handlers/token.handler.ts&#45;&gt;errors.ts</title>
<path fill="none" stroke="#757575" d="M551.38,-1056.98C579.19,-964.62 779.79,-342.23 1197,-122.5 1304.45,-65.91 2194.32,-49.7 2290,-124.5 2337.06,-161.29 2361,-352.73 2367.87,-417.82"/>
<polygon fill="#757575" stroke="#757575" points="2364.39,-418.2 2368.9,-427.79 2371.36,-417.48 2364.39,-418.2"/>
</g>
<!-- handlers/schemas/tokenHandlerConfig.schema.ts -->
<g id="node29" class="node">
<title>handlers/schemas/tokenHandlerConfig.schema.ts</title>
<path fill="none" stroke="#cfffac" d="M1093.83,-1101C1093.83,-1101 793.17,-1101 793.17,-1101 789.33,-1101 785.5,-1097.17 785.5,-1093.33 785.5,-1093.33 785.5,-1085.67 785.5,-1085.67 785.5,-1081.83 789.33,-1078 793.17,-1078 793.17,-1078 1093.83,-1078 1093.83,-1078 1097.67,-1078 1101.5,-1081.83 1101.5,-1085.67 1101.5,-1085.67 1101.5,-1093.33 1101.5,-1093.33 1101.5,-1097.17 1097.67,-1101 1093.83,-1101"/>
<text text-anchor="middle" x="943.5" y="-1085.8" font-family="Arial" font-size="14.00" fill="#cfffac">handlers/schemas/tokenHandlerConfig.schema.ts</text>
</g>
<!-- handlers/token.handler.ts&#45;&gt;handlers/schemas/tokenHandlerConfig.schema.ts -->
<g id="edge49" class="edge">
<title>handlers/token.handler.ts&#45;&gt;handlers/schemas/tokenHandlerConfig.schema.ts</title>
<path fill="none" stroke="#757575" d="M630.7,-1072.9C672.66,-1075.14 725.2,-1077.93 775.12,-1080.59"/>
<polygon fill="#757575" stroke="#757575" points="775.23,-1084.1 785.4,-1081.14 775.6,-1077.11 775.23,-1084.1"/>
</g>
<!-- handlers/token/authorizationCode.ts -->
<g id="node30" class="node">
<title>handlers/token/authorizationCode.ts</title>
<path fill="none" stroke="#c6c5fe" d="M1052.33,-1019C1052.33,-1019 834.67,-1019 834.67,-1019 830.83,-1019 827,-1015.17 827,-1011.33 827,-1011.33 827,-1003.67 827,-1003.67 827,-999.83 830.83,-996 834.67,-996 834.67,-996 1052.33,-996 1052.33,-996 1056.17,-996 1060,-999.83 1060,-1003.67 1060,-1003.67 1060,-1011.33 1060,-1011.33 1060,-1015.17 1056.17,-1019 1052.33,-1019"/>
<text text-anchor="middle" x="943.5" y="-1003.8" font-family="Arial" font-size="14.00" fill="#c6c5fe">handlers/token/authorizationCode.ts</text>
</g>
<!-- handlers/token.handler.ts&#45;&gt;handlers/token/authorizationCode.ts -->
<g id="edge50" class="edge">
<title>handlers/token.handler.ts&#45;&gt;handlers/token/authorizationCode.ts</title>
<path fill="none" stroke="#757575" d="M590.84,-1056.93C626.7,-1047.65 679.35,-1034.99 726,-1027.5 755.3,-1022.79 787.02,-1019.09 816.91,-1016.22"/>
<polygon fill="#757575" stroke="#757575" points="817.34,-1019.7 826.97,-1015.28 816.69,-1012.73 817.34,-1019.7"/>
</g>
<!-- handlers/token/clientCredentials.ts -->
<g id="node31" class="node">
<title>handlers/token/clientCredentials.ts</title>
<path fill="none" stroke="#c6c5fe" d="M1047.33,-1060C1047.33,-1060 839.67,-1060 839.67,-1060 835.83,-1060 832,-1056.17 832,-1052.33 832,-1052.33 832,-1044.67 832,-1044.67 832,-1040.83 835.83,-1037 839.67,-1037 839.67,-1037 1047.33,-1037 1047.33,-1037 1051.17,-1037 1055,-1040.83 1055,-1044.67 1055,-1044.67 1055,-1052.33 1055,-1052.33 1055,-1056.17 1051.17,-1060 1047.33,-1060"/>
<text text-anchor="middle" x="943.5" y="-1044.8" font-family="Arial" font-size="14.00" fill="#c6c5fe">handlers/token/clientCredentials.ts</text>
</g>
<!-- handlers/token.handler.ts&#45;&gt;handlers/token/clientCredentials.ts -->
<g id="edge51" class="edge">
<title>handlers/token.handler.ts&#45;&gt;handlers/token/clientCredentials.ts</title>
<path fill="none" stroke="#757575" d="M630.7,-1064.31C686.03,-1061.5 759.75,-1057.76 821.62,-1054.63"/>
<polygon fill="#757575" stroke="#757575" points="822.03,-1058.11 831.84,-1054.11 821.67,-1051.12 822.03,-1058.11"/>
</g>
<!-- handlers/token/authorizationCode.ts&#45;&gt;config.ts -->
<g id="edge52" class="edge">
<title>handlers/token/authorizationCode.ts&#45;&gt;config.ts</title>
<path fill="none" stroke="#757575" d="M1001.76,-995.95C1050.04,-989.75 1117.96,-989.85 1161,-1027.5 1214.88,-1074.64 1147.64,-1132.64 1197,-1184.5 1245.2,-1235.14 1330.08,-1246.7 1381.27,-1248.78"/>
<polygon fill="#757575" stroke="#757575" points="1381.25,-1252.28 1391.35,-1249.09 1381.46,-1245.29 1381.25,-1252.28"/>
</g>
<!-- handlers/token/authorizationCode.ts&#45;&gt;resources.ts -->
<g id="edge54" class="edge">
<title>handlers/token/authorizationCode.ts&#45;&gt;resources.ts</title>
<path fill="none" stroke="#757575" d="M1007.4,-996C1054.77,-991.07 1118.6,-992.89 1161,-1027.5 1203.81,-1062.44 1154.42,-1111.29 1197,-1146.5 1275.52,-1211.43 1560.73,-1151.28 1653,-1194.5 1673.21,-1203.97 1668.32,-1221.11 1689,-1229.5 1750.87,-1254.62 2235.8,-1268.51 2290,-1229.5 2361.16,-1178.28 2369.94,-1060.8 2370.39,-1012.18"/>
<polygon fill="#757575" stroke="#757575" points="2373.89,-1012.13 2370.37,-1002.14 2366.89,-1012.14 2373.89,-1012.13"/>
</g>
<!-- handlers/token/authorizationCode.ts&#45;&gt;errors.ts -->
<g id="edge53" class="edge">
<title>handlers/token/authorizationCode.ts&#45;&gt;errors.ts</title>
<path fill="none" stroke="#757575" d="M993.95,-1019.01C1043.65,-1027.33 1118.75,-1030.48 1161,-986.5 1259.22,-884.25 1102.37,-455.08 1197,-349.5 1210.7,-334.21 1905.54,-229.2 1926,-227.5 2006.61,-220.8 2223.47,-181.49 2290,-227.5 2353.68,-271.54 2366.73,-373.17 2369.36,-417.81"/>
<polygon fill="#757575" stroke="#757575" points="2365.87,-418.03 2369.83,-427.86 2372.86,-417.71 2365.87,-418.03"/>
</g>
<!-- handlers/token/authorizationCode.ts&#45;&gt;statements/index.ts -->
<g id="edge55" class="edge">
<title>handlers/token/authorizationCode.ts&#45;&gt;statements/index.ts</title>
<path fill="none" stroke="#757575" d="M1060.27,-1007.74C1149.52,-1007.93 1270.4,-1008.18 1347.8,-1008.34"/>
<polygon fill="#757575" stroke="#757575" points="1347.95,-1011.84 1357.96,-1008.36 1347.97,-1004.84 1347.95,-1011.84"/>
</g>
<!-- handlers/token/clientCredentials.ts&#45;&gt;config.ts -->
<g id="edge56" class="edge">
<title>handlers/token/clientCredentials.ts&#45;&gt;config.ts</title>
<path fill="none" stroke="#757575" d="M1001.72,-1037C1049.97,-1030.83 1117.88,-1030.94 1161,-1068.5 1214,-1114.67 1144.51,-1175.75 1197,-1222.5 1247.3,-1267.3 1330.74,-1264.11 1381.23,-1256.88"/>
<polygon fill="#757575" stroke="#757575" points="1381.83,-1260.33 1391.18,-1255.34 1380.76,-1253.41 1381.83,-1260.33"/>
</g>
<!-- handlers/token/clientCredentials.ts&#45;&gt;resources.ts -->
<g id="edge58" class="edge">
<title>handlers/token/clientCredentials.ts&#45;&gt;resources.ts</title>
<path fill="none" stroke="#757575" d="M1008.31,-1036.98C1055.55,-1032.23 1118.77,-1034.28 1161,-1068.5 1202.94,-1102.48 1155.09,-1150.48 1197,-1184.5 1276.02,-1248.65 1558.06,-1190.81 1653,-1227.5 1671.66,-1234.71 1670.05,-1248.1 1689,-1254.5 1788.79,-1288.23 1820.66,-1256.06 1926,-1256.5 2087.78,-1257.18 2160.17,-1353.03 2290,-1256.5 2330.17,-1226.63 2357.8,-1070.25 2366.81,-1012.21"/>
<polygon fill="#757575" stroke="#757575" points="2370.28,-1012.69 2368.32,-1002.27 2363.36,-1011.64 2370.28,-1012.69"/>
</g>
<!-- handlers/token/clientCredentials.ts&#45;&gt;errors.ts -->
<g id="edge57" class="edge">
<title>handlers/token/clientCredentials.ts&#45;&gt;errors.ts</title>
<path fill="none" stroke="#757575" d="M993.96,-1060.01C1043.65,-1068.33 1118.76,-1071.49 1161,-1027.5 1259.66,-924.76 1100.44,-492.23 1197,-387.5 1266.34,-312.29 1552.27,-342.32 1653,-324.5 1775.24,-302.88 1802.57,-278.69 1926,-265.5 2006.43,-256.91 2221.9,-221.85 2290,-265.5 2343.25,-299.63 2361.53,-379.11 2367.42,-417.7"/>
<polygon fill="#757575" stroke="#757575" points="2363.98,-418.42 2368.82,-427.85 2370.92,-417.47 2363.98,-418.42"/>
</g>
<!-- handlers/token/clientCredentials.ts&#45;&gt;statements/index.ts -->
<g id="edge59" class="edge">
<title>handlers/token/clientCredentials.ts&#45;&gt;statements/index.ts</title>
<path fill="none" stroke="#757575" d="M1055.11,-1039.27C1144.71,-1031.8 1268.61,-1021.46 1347.53,-1014.88"/>
<polygon fill="#757575" stroke="#757575" points="1348.21,-1018.33 1357.88,-1014.02 1347.62,-1011.36 1348.21,-1018.33"/>
</g>
<!-- index.ts -->
<g id="node32" class="node">
<title>index.ts</title>
<path fill="none" stroke="#c6c5fe" d="M55.33,-1338C55.33,-1338 7.67,-1338 7.67,-1338 3.83,-1338 0,-1334.17 0,-1330.33 0,-1330.33 0,-1322.67 0,-1322.67 0,-1318.83 3.83,-1315 7.67,-1315 7.67,-1315 55.33,-1315 55.33,-1315 59.17,-1315 63,-1318.83 63,-1322.67 63,-1322.67 63,-1330.33 63,-1330.33 63,-1334.17 59.17,-1338 55.33,-1338"/>
<text text-anchor="middle" x="31.5" y="-1322.8" font-family="Arial" font-size="14.00" fill="#c6c5fe">index.ts</text>
</g>
<!-- index.ts&#45;&gt;config.ts -->
<g id="edge60" class="edge">
<title>index.ts&#45;&gt;config.ts</title>
<path fill="none" stroke="#757575" d="M63.04,-1325.29C194.53,-1319.99 725.45,-1297.88 1161,-1269.5 1238.61,-1264.44 1328.97,-1256.86 1381.03,-1252.32"/>
<polygon fill="#757575" stroke="#757575" points="1381.56,-1255.79 1391.22,-1251.43 1380.95,-1248.81 1381.56,-1255.79"/>
</g>
<!-- index.ts&#45;&gt;resources.ts -->
<g id="edge63" class="edge">
<title>index.ts&#45;&gt;resources.ts</title>
<path fill="none" stroke="#757575" d="M37.54,-1338.3C58.95,-1386.33 147.24,-1564.5 279,-1564.5 279,-1564.5 279,-1564.5 1790.5,-1564.5 2016.07,-1564.5 2131.65,-1635.15 2290,-1474.5 2355.8,-1407.74 2367.59,-1097.96 2369.6,-1012.43"/>
<polygon fill="#757575" stroke="#757575" points="2373.11,-1012.38 2369.82,-1002.3 2366.11,-1012.23 2373.11,-1012.38"/>
</g>
<!-- index.ts&#45;&gt;core.ts -->
<g id="edge61" class="edge">
<title>index.ts&#45;&gt;core.ts</title>
<path fill="none" stroke="#757575" d="M46.78,-1338.19C62.05,-1350.7 86.47,-1370.71 104.26,-1385.29"/>
<polygon fill="#757575" stroke="#757575" points="102.44,-1388.32 112.4,-1391.95 106.88,-1382.9 102.44,-1388.32"/>
</g>
<!-- index.ts&#45;&gt;handlers/index.ts -->
<g id="edge62" class="edge">
<title>index.ts&#45;&gt;handlers/index.ts</title>
<path fill="none" stroke="#757575" d="M40.04,-1314.99C51.06,-1299.11 73.09,-1270.74 99,-1255.5 132.74,-1235.66 175,-1224.52 210.09,-1218.28"/>
<polygon fill="#757575" stroke="#757575" points="210.98,-1221.68 220.26,-1216.58 209.82,-1214.78 210.98,-1221.68"/>
</g>
<!-- statements/grants/generateIssuerGrants.ts -->
<g id="node33" class="node">
<title>statements/grants/generateIssuerGrants.ts</title>
<path fill="none" stroke="#c6c5fe" d="M2237.33,-1146C2237.33,-1146 1978.67,-1146 1978.67,-1146 1974.83,-1146 1971,-1142.17 1971,-1138.33 1971,-1138.33 1971,-1130.67 1971,-1130.67 1971,-1126.83 1974.83,-1123 1978.67,-1123 1978.67,-1123 2237.33,-1123 2237.33,-1123 2241.17,-1123 2245,-1126.83 2245,-1130.67 2245,-1130.67 2245,-1138.33 2245,-1138.33 2245,-1142.17 2241.17,-1146 2237.33,-1146"/>
<text text-anchor="middle" x="2108" y="-1130.8" font-family="Arial" font-size="14.00" fill="#c6c5fe">statements/grants/generateIssuerGrants.ts</text>
</g>
<!-- statements/grants/generateIssuerGrants.ts&#45;&gt;resources.ts -->
<g id="edge64" class="edge">
<title>statements/grants/generateIssuerGrants.ts&#45;&gt;resources.ts</title>
<path fill="none" stroke="#757575" d="M2245.4,-1131.9C2261.16,-1127.83 2276.42,-1121.92 2290,-1113.5 2328.38,-1089.72 2351.96,-1039.91 2362.84,-1011.51"/>
<polygon fill="#757575" stroke="#757575" points="2366.13,-1012.7 2366.28,-1002.11 2359.56,-1010.3 2366.13,-1012.7"/>
</g>
<!-- statements/grants/index.ts&#45;&gt;statements/grants/generateIssuerGrants.ts -->
<g id="edge65" class="edge">
<title>statements/grants/index.ts&#45;&gt;statements/grants/generateIssuerGrants.ts</title>
<path fill="none" stroke="#757575" d="M1865.7,-1105.02C1885.31,-1107.91 1906.43,-1110.92 1926,-1113.5 1947.49,-1116.33 1970.43,-1119.15 1992.52,-1121.76"/>
<polygon fill="#757575" stroke="#757575" points="1992.26,-1125.26 2002.61,-1122.95 1993.08,-1118.3 1992.26,-1125.26"/>
</g>
<!-- statements/locations/authorizationCodeRedirection.ts -->
<g id="node39" class="node">
<title>statements/locations/authorizationCodeRedirection.ts</title>
<path fill="none" stroke="#c6c5fe" d="M2268.33,-1105C2268.33,-1105 1947.67,-1105 1947.67,-1105 1943.83,-1105 1940,-1101.17 1940,-1097.33 1940,-1097.33 1940,-1089.67 1940,-1089.67 1940,-1085.83 1943.83,-1082 1947.67,-1082 1947.67,-1082 2268.33,-1082 2268.33,-1082 2272.17,-1082 2276,-1085.83 2276,-1089.67 2276,-1089.67 2276,-1097.33 2276,-1097.33 2276,-1101.17 2272.17,-1105 2268.33,-1105"/>
<text text-anchor="middle" x="2108" y="-1089.8" font-family="Arial" font-size="14.00" fill="#c6c5fe">statements/locations/authorizationCodeRedirection.ts</text>
</g>
<!-- statements/locations/index.ts&#45;&gt;statements/locations/authorizationCodeRedirection.ts -->
<g id="edge76" class="edge">
<title>statements/locations/index.ts&#45;&gt;statements/locations/authorizationCodeRedirection.ts</title>
<path fill="none" stroke="#757575" d="M1810.4,-1022.03C1836.17,-1036.38 1882.89,-1060.46 1926,-1072.5 1936.38,-1075.4 1947.2,-1077.9 1958.17,-1080.05"/>
<polygon fill="#757575" stroke="#757575" points="1957.8,-1083.54 1968.27,-1081.94 1959.08,-1076.66 1957.8,-1083.54"/>
</g>
<!-- statements/locations/generateAuthorizationRequestUri.ts -->
<g id="node40" class="node">
<title>statements/locations/generateAuthorizationRequestUri.ts</title>
<path fill="none" stroke="#c6c5fe" d="M2279.33,-1023C2279.33,-1023 1936.67,-1023 1936.67,-1023 1932.83,-1023 1929,-1019.17 1929,-1015.33 1929,-1015.33 1929,-1007.67 1929,-1007.67 1929,-1003.83 1932.83,-1000 1936.67,-1000 1936.67,-1000 2279.33,-1000 2279.33,-1000 2283.17,-1000 2287,-1003.83 2287,-1007.67 2287,-1007.67 2287,-1015.33 2287,-1015.33 2287,-1019.17 2283.17,-1023 2279.33,-1023"/>
<text text-anchor="middle" x="2108" y="-1007.8" font-family="Arial" font-size="14.00" fill="#c6c5fe">statements/locations/generateAuthorizationRequestUri.ts</text>
</g>
<!-- statements/locations/index.ts&#45;&gt;statements/locations/generateAuthorizationRequestUri.ts -->
<g id="edge77" class="edge">
<title>statements/locations/index.ts&#45;&gt;statements/locations/generateAuthorizationRequestUri.ts</title>
<path fill="none" stroke="#757575" d="M1885.03,-1010.8C1895.88,-1010.83 1907.21,-1010.87 1918.76,-1010.91"/>
<polygon fill="#757575" stroke="#757575" points="1918.94,-1014.41 1928.96,-1010.94 1918.97,-1007.41 1918.94,-1014.41"/>
</g>
<!-- statements/locations/generateCredentialOffer.ts -->
<g id="node41" class="node">
<title>statements/locations/generateCredentialOffer.ts</title>
<path fill="none" stroke="#c6c5fe" d="M2251.83,-982C2251.83,-982 1964.17,-982 1964.17,-982 1960.33,-982 1956.5,-978.17 1956.5,-974.33 1956.5,-974.33 1956.5,-966.67 1956.5,-966.67 1956.5,-962.83 1960.33,-959 1964.17,-959 1964.17,-959 2251.83,-959 2251.83,-959 2255.67,-959 2259.5,-962.83 2259.5,-966.67 2259.5,-966.67 2259.5,-974.33 2259.5,-974.33 2259.5,-978.17 2255.67,-982 2251.83,-982"/>
<text text-anchor="middle" x="2108" y="-966.8" font-family="Arial" font-size="14.00" fill="#c6c5fe">statements/locations/generateCredentialOffer.ts</text>
</g>
<!-- statements/locations/index.ts&#45;&gt;statements/locations/generateCredentialOffer.ts -->
<g id="edge78" class="edge">
<title>statements/locations/index.ts&#45;&gt;statements/locations/generateCredentialOffer.ts</title>
<path fill="none" stroke="#757575" d="M1865.33,-998.96C1885.05,-996.05 1906.31,-993.04 1926,-990.5 1945.58,-987.97 1966.38,-985.49 1986.64,-983.18"/>
<polygon fill="#757575" stroke="#757575" points="1987.31,-986.62 1996.85,-982.02 1986.52,-979.67 1987.31,-986.62"/>
</g>
<!-- statements/resources/issuerClient.ts -->
<g id="node42" class="node">
<title>statements/resources/issuerClient.ts</title>
<path fill="none" stroke="#c6c5fe" d="M2217.83,-1187C2217.83,-1187 1998.17,-1187 1998.17,-1187 1994.33,-1187 1990.5,-1183.17 1990.5,-1179.33 1990.5,-1179.33 1990.5,-1171.67 1990.5,-1171.67 1990.5,-1167.83 1994.33,-1164 1998.17,-1164 1998.17,-1164 2217.83,-1164 2217.83,-1164 2221.67,-1164 2225.5,-1167.83 2225.5,-1171.67 2225.5,-1171.67 2225.5,-1179.33 2225.5,-1179.33 2225.5,-1183.17 2221.67,-1187 2217.83,-1187"/>
<text text-anchor="middle" x="2108" y="-1171.8" font-family="Arial" font-size="14.00" fill="#c6c5fe">statements/resources/issuerClient.ts</text>
</g>
<!-- statements/resources/index.ts&#45;&gt;statements/resources/issuerClient.ts -->
<g id="edge79" class="edge">
<title>statements/resources/index.ts&#45;&gt;statements/resources/issuerClient.ts</title>
<path fill="none" stroke="#757575" d="M1888.04,-1161.66C1917.09,-1163.5 1949.35,-1165.54 1979.99,-1167.47"/>
<polygon fill="#757575" stroke="#757575" points="1980.11,-1170.99 1990.31,-1168.13 1980.55,-1164 1980.11,-1170.99"/>
</g>
<!-- statements/tokens/generateAccessToken.ts -->
<g id="node43" class="node">
<title>statements/tokens/generateAccessToken.ts</title>
<path fill="none" stroke="#c6c5fe" d="M2239.33,-1064C2239.33,-1064 1976.67,-1064 1976.67,-1064 1972.83,-1064 1969,-1060.17 1969,-1056.33 1969,-1056.33 1969,-1048.67 1969,-1048.67 1969,-1044.83 1972.83,-1041 1976.67,-1041 1976.67,-1041 2239.33,-1041 2239.33,-1041 2243.17,-1041 2247,-1044.83 2247,-1048.67 2247,-1048.67 2247,-1056.33 2247,-1056.33 2247,-1060.17 2243.17,-1064 2239.33,-1064"/>
<text text-anchor="middle" x="2108" y="-1048.8" font-family="Arial" font-size="14.00" fill="#c6c5fe">statements/tokens/generateAccessToken.ts</text>
</g>
<!-- statements/tokens/index.ts&#45;&gt;statements/tokens/generateAccessToken.ts -->
<g id="edge87" class="edge">
<title>statements/tokens/index.ts&#45;&gt;statements/tokens/generateAccessToken.ts</title>
<path fill="none" stroke="#757575" d="M1814.42,-941.14C1835.5,-952.02 1866.44,-969.56 1890,-989.5 1908.77,-1005.38 1904.29,-1019.95 1926,-1031.5 1936.36,-1037.01 1947.53,-1041.37 1959.04,-1044.79"/>
<polygon fill="#757575" stroke="#757575" points="1958.21,-1048.19 1968.78,-1047.44 1960.05,-1041.44 1958.21,-1048.19"/>
</g>
<!-- statements/tokens/generateAuthorizationCode.ts -->
<g id="node44" class="node">
<title>statements/tokens/generateAuthorizationCode.ts</title>
<path fill="none" stroke="#c6c5fe" d="M2254.83,-900C2254.83,-900 1961.17,-900 1961.17,-900 1957.33,-900 1953.5,-896.17 1953.5,-892.33 1953.5,-892.33 1953.5,-884.67 1953.5,-884.67 1953.5,-880.83 1957.33,-877 1961.17,-877 1961.17,-877 2254.83,-877 2254.83,-877 2258.67,-877 2262.5,-880.83 2262.5,-884.67 2262.5,-884.67 2262.5,-892.33 2262.5,-892.33 2262.5,-896.17 2258.67,-900 2254.83,-900"/>
<text text-anchor="middle" x="2108" y="-884.8" font-family="Arial" font-size="14.00" fill="#c6c5fe">statements/tokens/generateAuthorizationCode.ts</text>
</g>
<!-- statements/tokens/index.ts&#45;&gt;statements/tokens/generateAuthorizationCode.ts -->
<g id="edge88" class="edge">
<title>statements/tokens/index.ts&#45;&gt;statements/tokens/generateAuthorizationCode.ts</title>
<path fill="none" stroke="#757575" d="M1861.09,-917.96C1881.97,-914.71 1904.88,-911.3 1926,-908.5 1945.3,-905.94 1965.8,-903.45 1985.79,-901.15"/>
<polygon fill="#757575" stroke="#757575" points="1986.33,-904.61 1995.87,-900 1985.54,-897.66 1986.33,-904.61"/>
</g>
<!-- statements/tokens/generateCNonce.ts -->
<g id="node45" class="node">
<title>statements/tokens/generateCNonce.ts</title>
<path fill="none" stroke="#c6c5fe" d="M2223.83,-941C2223.83,-941 1992.17,-941 1992.17,-941 1988.33,-941 1984.5,-937.17 1984.5,-933.33 1984.5,-933.33 1984.5,-925.67 1984.5,-925.67 1984.5,-921.83 1988.33,-918 1992.17,-918 1992.17,-918 2223.83,-918 2223.83,-918 2227.67,-918 2231.5,-921.83 2231.5,-925.67 2231.5,-925.67 2231.5,-933.33 2231.5,-933.33 2231.5,-937.17 2227.67,-941 2223.83,-941"/>
<text text-anchor="middle" x="2108" y="-925.8" font-family="Arial" font-size="14.00" fill="#c6c5fe">statements/tokens/generateCNonce.ts</text>
</g>
<!-- statements/tokens/index.ts&#45;&gt;statements/tokens/generateCNonce.ts -->
<g id="edge89" class="edge">
<title>statements/tokens/index.ts&#45;&gt;statements/tokens/generateCNonce.ts</title>
<path fill="none" stroke="#757575" d="M1878.24,-929.5C1908,-929.5 1941.94,-929.5 1974.4,-929.5"/>
<polygon fill="#757575" stroke="#757575" points="1974.43,-933 1984.43,-929.5 1974.43,-926 1974.43,-933"/>
</g>
<!-- statements/tokens/generateCredentials.ts -->
<g id="node46" class="node">
<title>statements/tokens/generateCredentials.ts</title>
<path fill="none" stroke="#c6c5fe" d="M2233.33,-820C2233.33,-820 1982.67,-820 1982.67,-820 1978.83,-820 1975,-816.17 1975,-812.33 1975,-812.33 1975,-804.67 1975,-804.67 1975,-800.83 1978.83,-797 1982.67,-797 1982.67,-797 2233.33,-797 2233.33,-797 2237.17,-797 2241,-800.83 2241,-804.67 2241,-804.67 2241,-812.33 2241,-812.33 2241,-816.17 2237.17,-820 2233.33,-820"/>
<text text-anchor="middle" x="2108" y="-804.8" font-family="Arial" font-size="14.00" fill="#c6c5fe">statements/tokens/generateCredentials.ts</text>
</g>
<!-- statements/tokens/index.ts&#45;&gt;statements/tokens/generateCredentials.ts -->
<g id="edge90" class="edge">
<title>statements/tokens/index.ts&#45;&gt;statements/tokens/generateCredentials.ts</title>
<path fill="none" stroke="#757575" d="M1813.65,-917.93C1840.35,-904.81 1885.75,-883.21 1926,-867.5 1969.62,-850.47 2020.4,-834.22 2057.05,-823.1"/>
<polygon fill="#757575" stroke="#757575" points="2058.43,-826.34 2066.99,-820.11 2056.41,-819.64 2058.43,-826.34"/>
</g>
<!-- statements/validations/validateAccessToken.ts -->
<g id="node47" class="node">
<title>statements/validations/validateAccessToken.ts</title>
<path fill="none" stroke="#c6c5fe" d="M2247.83,-656C2247.83,-656 1968.17,-656 1968.17,-656 1964.33,-656 1960.5,-652.17 1960.5,-648.33 1960.5,-648.33 1960.5,-640.67 1960.5,-640.67 1960.5,-636.83 1964.33,-633 1968.17,-633 1968.17,-633 2247.83,-633 2247.83,-633 2251.67,-633 2255.5,-636.83 2255.5,-640.67 2255.5,-640.67 2255.5,-648.33 2255.5,-648.33 2255.5,-652.17 2251.67,-656 2247.83,-656"/>
<text text-anchor="middle" x="2108" y="-640.8" font-family="Arial" font-size="14.00" fill="#c6c5fe">statements/validations/validateAccessToken.ts</text>
</g>
<!-- statements/validations/index.ts&#45;&gt;statements/validations/validateAccessToken.ts -->
<g id="edge91" class="edge">
<title>statements/validations/index.ts&#45;&gt;statements/validations/validateAccessToken.ts</title>
<path fill="none" stroke="#757575" d="M1822.66,-594.01C1849.86,-603.3 1890.02,-616.03 1926,-623.5 1940.74,-626.56 1956.25,-629.21 1971.74,-631.49"/>
<polygon fill="#757575" stroke="#757575" points="1971.51,-634.99 1981.9,-632.94 1972.5,-628.06 1971.51,-634.99"/>
</g>
<!-- statements/validations/validateAuthorizationCode.ts -->
<g id="node48" class="node">
<title>statements/validations/validateAuthorizationCode.ts</title>
<path fill="none" stroke="#c6c5fe" d="M2263.33,-615C2263.33,-615 1952.67,-615 1952.67,-615 1948.83,-615 1945,-611.17 1945,-607.33 1945,-607.33 1945,-599.67 1945,-599.67 1945,-595.83 1948.83,-592 1952.67,-592 1952.67,-592 2263.33,-592 2263.33,-592 2267.17,-592 2271,-595.83 2271,-599.67 2271,-599.67 2271,-607.33 2271,-607.33 2271,-611.17 2267.17,-615 2263.33,-615"/>
<text text-anchor="middle" x="2108" y="-599.8" font-family="Arial" font-size="14.00" fill="#c6c5fe">statements/validations/validateAuthorizationCode.ts</text>
</g>
<!-- statements/validations/index.ts&#45;&gt;statements/validations/validateAuthorizationCode.ts -->
<g id="edge92" class="edge">
<title>statements/validations/index.ts&#45;&gt;statements/validations/validateAuthorizationCode.ts</title>
<path fill="none" stroke="#757575" d="M1890.21,-589.12C1904.55,-590.07 1919.64,-591.07 1934.91,-592.08"/>
<polygon fill="#757575" stroke="#757575" points="1934.75,-595.58 1944.95,-592.75 1935.21,-588.59 1934.75,-595.58"/>
</g>
<!-- statements/validations/validateClientCredentials.ts -->
<g id="node49" class="node">
<title>statements/validations/validateClientCredentials.ts</title>
<path fill="none" stroke="#c6c5fe" d="M2259.33,-574C2259.33,-574 1956.67,-574 1956.67,-574 1952.83,-574 1949,-570.17 1949,-566.33 1949,-566.33 1949,-558.67 1949,-558.67 1949,-554.83 1952.83,-551 1956.67,-551 1956.67,-551 2259.33,-551 2259.33,-551 2263.17,-551 2267,-554.83 2267,-558.67 2267,-558.67 2267,-566.33 2267,-566.33 2267,-570.17 2263.17,-574 2259.33,-574"/>
<text text-anchor="middle" x="2108" y="-558.8" font-family="Arial" font-size="14.00" fill="#c6c5fe">statements/validations/validateClientCredentials.ts</text>
</g>
<!-- statements/validations/index.ts&#45;&gt;statements/validations/validateClientCredentials.ts -->
<g id="edge93" class="edge">
<title>statements/validations/index.ts&#45;&gt;statements/validations/validateClientCredentials.ts</title>
<path fill="none" stroke="#757575" d="M1890.21,-576.2C1905.66,-575.22 1921.99,-574.19 1938.46,-573.15"/>
<polygon fill="#757575" stroke="#757575" points="1938.97,-576.63 1948.73,-572.5 1938.53,-569.64 1938.97,-576.63"/>
</g>
<!-- statements/validations/validateCodeVerifier.ts -->
<g id="node50" class="node">
<title>statements/validations/validateCodeVerifier.ts</title>
<path fill="none" stroke="#c6c5fe" d="M2244.83,-369C2244.83,-369 1971.17,-369 1971.17,-369 1967.33,-369 1963.5,-365.17 1963.5,-361.33 1963.5,-361.33 1963.5,-353.67 1963.5,-353.67 1963.5,-349.83 1967.33,-346 1971.17,-346 1971.17,-346 2244.83,-346 2244.83,-346 2248.67,-346 2252.5,-349.83 2252.5,-353.67 2252.5,-353.67 2252.5,-361.33 2252.5,-361.33 2252.5,-365.17 2248.67,-369 2244.83,-369"/>
<text text-anchor="middle" x="2108" y="-353.8" font-family="Arial" font-size="14.00" fill="#c6c5fe">statements/validations/validateCodeVerifier.ts</text>
</g>
<!-- statements/validations/index.ts&#45;&gt;statements/validations/validateCodeVerifier.ts -->
<g id="edge94" class="edge">
<title>statements/validations/index.ts&#45;&gt;statements/validations/validateCodeVerifier.ts</title>
<path fill="none" stroke="#757575" d="M1810.75,-570.97C1833.35,-557.09 1869.42,-531.7 1890,-500.5 1921.36,-452.95 1882.36,-414.11 1926,-377.5 1934.44,-370.42 1943.93,-364.9 1954.03,-360.64"/>
<polygon fill="#757575" stroke="#757575" points="1955.35,-363.88 1963.47,-357.08 1952.88,-357.33 1955.35,-363.88"/>
</g>
<!-- statements/validations/validateCredentialConfigurations.ts -->
<g id="node51" class="node">
<title>statements/validations/validateCredentialConfigurations.ts</title>
<path fill="none" stroke="#c6c5fe" d="M2282.33,-779C2282.33,-779 1933.67,-779 1933.67,-779 1929.83,-779 1926,-775.17 1926,-771.33 1926,-771.33 1926,-763.67 1926,-763.67 1926,-759.83 1929.83,-756 1933.67,-756 1933.67,-756 2282.33,-756 2282.33,-756 2286.17,-756 2290,-759.83 2290,-763.67 2290,-763.67 2290,-771.33 2290,-771.33 2290,-775.17 2286.17,-779 2282.33,-779"/>
<text text-anchor="middle" x="2108" y="-763.8" font-family="Arial" font-size="14.00" fill="#c6c5fe">statements/validations/validateCredentialConfigurations.ts</text>
</g>
<!-- statements/validations/index.ts&#45;&gt;statements/validations/validateCredentialConfigurations.ts -->
<g id="edge95" class="edge">
<title>statements/validations/index.ts&#45;&gt;statements/validations/validateCredentialConfigurations.ts</title>
<path fill="none" stroke="#757575" d="M1799.22,-594.03C1826.39,-629.81 1908.72,-737.11 1926,-746.5 1929.75,-748.54 1933.61,-750.42 1937.56,-752.16"/>
<polygon fill="#757575" stroke="#757575" points="1936.33,-755.44 1946.91,-755.95 1938.96,-748.95 1936.33,-755.44"/>
</g>
<!-- statements/validations/validateDpop.ts -->
<g id="node52" class="node">
<title>statements/validations/validateDpop.ts</title>
<path fill="none" stroke="#c6c5fe" d="M2224.33,-451C2224.33,-451 1991.67,-451 1991.67,-451 1987.83,-451 1984,-447.17 1984,-443.33 1984,-443.33 1984,-435.67 1984,-435.67 1984,-431.83 1987.83,-428 1991.67,-428 1991.67,-428 2224.33,-428 2224.33,-428 2228.17,-428 2232,-431.83 2232,-435.67 2232,-435.67 2232,-443.33 2232,-443.33 2232,-447.17 2228.17,-451 2224.33,-451"/>
<text text-anchor="middle" x="2108" y="-435.8" font-family="Arial" font-size="14.00" fill="#c6c5fe">statements/validations/validateDpop.ts</text>
</g>
<!-- statements/validations/index.ts&#45;&gt;statements/validations/validateDpop.ts -->
<g id="edge96" class="edge">
<title>statements/validations/index.ts&#45;&gt;statements/validations/validateDpop.ts</title>
<path fill="none" stroke="#757575" d="M1805.98,-570.99C1826.12,-555.75 1862.03,-527.61 1890,-500.5 1907.41,-483.62 1904.49,-470.7 1926,-459.5 1940.77,-451.81 1957.12,-446.44 1973.78,-442.75"/>
<polygon fill="#757575" stroke="#757575" points="1974.5,-446.18 1983.61,-440.78 1973.12,-439.32 1974.5,-446.18"/>
</g>
<!-- statements/validations/validateIssuerState.ts -->
<g id="node53" class="node">
<title>statements/validations/validateIssuerState.ts</title>
<path fill="none" stroke="#c6c5fe" d="M2242.33,-410C2242.33,-410 1973.67,-410 1973.67,-410 1969.83,-410 1966,-406.17 1966,-402.33 1966,-402.33 1966,-394.67 1966,-394.67 1966,-390.83 1969.83,-387 1973.67,-387 1973.67,-387 2242.33,-387 2242.33,-387 2246.17,-387 2250,-390.83 2250,-394.67 2250,-394.67 2250,-402.33 2250,-402.33 2250,-406.17 2246.17,-410 2242.33,-410"/>
<text text-anchor="middle" x="2108" y="-394.8" font-family="Arial" font-size="14.00" fill="#c6c5fe">statements/validations/validateIssuerState.ts</text>
</g>
<!-- statements/validations/index.ts&#45;&gt;statements/validations/validateIssuerState.ts -->
<g id="edge97" class="edge">
<title>statements/validations/index.ts&#45;&gt;statements/validations/validateIssuerState.ts</title>
<path fill="none" stroke="#757575" d="M1809.26,-570.98C1831.13,-556.74 1867.18,-530.67 1890,-500.5 1914.01,-468.76 1893.92,-442.06 1926,-418.5 1935.16,-411.77 1945.32,-406.53 1956.02,-402.51"/>
<polygon fill="#757575" stroke="#757575" points="1957.21,-405.8 1965.55,-399.27 1954.96,-399.17 1957.21,-405.8"/>
</g>
<!-- statements/validations/validateProofs.ts -->
<g id="node54" class="node">
<title>statements/validations/validateProofs.ts</title>
<path fill="none" stroke="#c6c5fe" d="M2227.33,-492C2227.33,-492 1988.67,-492 1988.67,-492 1984.83,-492 1981,-488.17 1981,-484.33 1981,-484.33 1981,-476.67 1981,-476.67 1981,-472.83 1984.83,-469 1988.67,-469 1988.67,-469 2227.33,-469 2227.33,-469 2231.17,-469 2235,-472.83 2235,-476.67 2235,-476.67 2235,-484.33 2235,-484.33 2235,-488.17 2231.17,-492 2227.33,-492"/>
<text text-anchor="middle" x="2108" y="-476.8" font-family="Arial" font-size="14.00" fill="#c6c5fe">statements/validations/validateProofs.ts</text>
</g>
<!-- statements/validations/index.ts&#45;&gt;statements/validations/validateProofs.ts -->
<g id="edge98" class="edge">
<title>statements/validations/index.ts&#45;&gt;statements/validations/validateProofs.ts</title>
<path fill="none" stroke="#757575" d="M1804.87,-570.85C1828.52,-552.39 1877.83,-516.85 1926,-500.5 1940.24,-495.67 1955.45,-491.94 1970.76,-489.07"/>
<polygon fill="#757575" stroke="#757575" points="1971.58,-492.48 1980.82,-487.31 1970.37,-485.59 1971.58,-492.48"/>
</g>
<!-- statements/validations/validateRequestUri.ts -->
<g id="node55" class="node">
<title>statements/validations/validateRequestUri.ts</title>
<path fill="none" stroke="#c6c5fe" d="M2241.83,-697C2241.83,-697 1974.17,-697 1974.17,-697 1970.33,-697 1966.5,-693.17 1966.5,-689.33 1966.5,-689.33 1966.5,-681.67 1966.5,-681.67 1966.5,-677.83 1970.33,-674 1974.17,-674 1974.17,-674 2241.83,-674 2241.83,-674 2245.67,-674 2249.5,-677.83 2249.5,-681.67 2249.5,-681.67 2249.5,-689.33 2249.5,-689.33 2249.5,-693.17 2245.67,-697 2241.83,-697"/>
<text text-anchor="middle" x="2108" y="-681.8" font-family="Arial" font-size="14.00" fill="#c6c5fe">statements/validations/validateRequestUri.ts</text>
</g>
<!-- statements/validations/index.ts&#45;&gt;statements/validations/validateRequestUri.ts -->
<g id="edge99" class="edge">
<title>statements/validations/index.ts&#45;&gt;statements/validations/validateRequestUri.ts</title>
<path fill="none" stroke="#757575" d="M1804.88,-594.12C1828.54,-612.54 1877.87,-648.02 1926,-664.5 1935.75,-667.84 1945.96,-670.67 1956.33,-673.06"/>
<polygon fill="#757575" stroke="#757575" points="1955.82,-676.53 1966.33,-675.23 1957.3,-669.69 1955.82,-676.53"/>
</g>
<!-- statements/validations/validateResourceOwner.ts -->
<g id="node56" class="node">
<title>statements/validations/validateResourceOwner.ts</title>
<path fill="none" stroke="#c6c5fe" d="M2256.83,-533C2256.83,-533 1959.17,-533 1959.17,-533 1955.33,-533 1951.5,-529.17 1951.5,-525.33 1951.5,-525.33 1951.5,-517.67 1951.5,-517.67 1951.5,-513.83 1955.33,-510 1959.17,-510 1959.17,-510 2256.83,-510 2256.83,-510 2260.67,-510 2264.5,-513.83 2264.5,-517.67 2264.5,-517.67 2264.5,-525.33 2264.5,-525.33 2264.5,-529.17 2260.67,-533 2256.83,-533"/>
<text text-anchor="middle" x="2108" y="-517.8" font-family="Arial" font-size="14.00" fill="#c6c5fe">statements/validations/validateResourceOwner.ts</text>
</g>
<!-- statements/validations/index.ts&#45;&gt;statements/validations/validateResourceOwner.ts -->
<g id="edge100" class="edge">
<title>statements/validations/index.ts&#45;&gt;statements/validations/validateResourceOwner.ts</title>
<path fill="none" stroke="#757575" d="M1822.65,-570.94C1849.84,-561.61 1890,-548.87 1926,-541.5 1939.08,-538.82 1952.78,-536.48 1966.53,-534.44"/>
<polygon fill="#757575" stroke="#757575" points="1967.14,-537.89 1976.54,-533.01 1966.14,-530.96 1967.14,-537.89"/>
</g>
<!-- statements/validations/validateScope.ts -->
<g id="node57" class="node">
<title>statements/validations/validateScope.ts</title>
<path fill="none" stroke="#c6c5fe" d="M2227.33,-738C2227.33,-738 1988.67,-738 1988.67,-738 1984.83,-738 1981,-734.17 1981,-730.33 1981,-730.33 1981,-722.67 1981,-722.67 1981,-718.83 1984.83,-715 1988.67,-715 1988.67,-715 2227.33,-715 2227.33,-715 2231.17,-715 2235,-718.83 2235,-722.67 2235,-722.67 2235,-730.33 2235,-730.33 2235,-734.17 2231.17,-738 2227.33,-738"/>
<text text-anchor="middle" x="2108" y="-722.8" font-family="Arial" font-size="14.00" fill="#c6c5fe">statements/validations/validateScope.ts</text>
</g>
<!-- statements/validations/index.ts&#45;&gt;statements/validations/validateScope.ts -->
<g id="edge101" class="edge">
<title>statements/validations/index.ts&#45;&gt;statements/validations/validateScope.ts</title>
<path fill="none" stroke="#757575" d="M1799.1,-594.19C1818.49,-619.53 1868.43,-679.36 1926,-705.5 1939.94,-711.83 1955.08,-716.52 1970.46,-719.96"/>
<polygon fill="#757575" stroke="#757575" points="1970.1,-723.46 1980.6,-722.04 1971.51,-716.6 1970.1,-723.46"/>
</g>
<!-- statements/locations/authorizationCodeRedirection.ts&#45;&gt;resources.ts -->
<g id="edge71" class="edge">
<title>statements/locations/authorizationCodeRedirection.ts&#45;&gt;resources.ts</title>
<path fill="none" stroke="#757575" d="M2266.9,-1081.89C2274.87,-1079.23 2282.62,-1076.13 2290,-1072.5 2318.51,-1058.49 2342.58,-1030.05 2356.66,-1010.63"/>
<polygon fill="#757575" stroke="#757575" points="2359.71,-1012.38 2362.57,-1002.18 2353.97,-1008.37 2359.71,-1012.38"/>
</g>
<!-- statements/locations/generateAuthorizationRequestUri.ts&#45;&gt;resources.ts -->
<g id="edge73" class="edge">
<title>statements/locations/generateAuthorizationRequestUri.ts&#45;&gt;resources.ts</title>
<path fill="none" stroke="#757575" d="M2252.1,-999.99C2274.74,-998.16 2296.87,-996.38 2315.73,-994.87"/>
<polygon fill="#757575" stroke="#757575" points="2316.17,-998.34 2325.85,-994.05 2315.6,-991.37 2316.17,-998.34"/>
</g>
<!-- statements/locations/generateAuthorizationRequestUri.ts&#45;&gt;constants.ts -->
<g id="edge72" class="edge">
<title>statements/locations/generateAuthorizationRequestUri.ts&#45;&gt;constants.ts</title>
<path fill="none" stroke="#757575" d="M2275.15,-999.8C2280.33,-997.07 2285.3,-993.98 2290,-990.5 2343.13,-951.18 2361.5,-868.94 2367.41,-829.51"/>
<polygon fill="#757575" stroke="#757575" points="2370.91,-829.76 2368.79,-819.38 2363.97,-828.82 2370.91,-829.76"/>
</g>
<!-- statements/locations/generateCredentialOffer.ts&#45;&gt;resources.ts -->
<g id="edge75" class="edge">
<title>statements/locations/generateCredentialOffer.ts&#45;&gt;resources.ts</title>
<path fill="none" stroke="#757575" d="M2259.31,-982.02C2279.39,-983.56 2298.84,-985.05 2315.67,-986.34"/>
<polygon fill="#757575" stroke="#757575" points="2315.57,-989.84 2325.8,-987.11 2316.1,-982.86 2315.57,-989.84"/>
</g>
<!-- statements/locations/generateCredentialOffer.ts&#45;&gt;errors.ts -->
<g id="edge74" class="edge">
<title>statements/locations/generateCredentialOffer.ts&#45;&gt;errors.ts</title>
<path fill="none" stroke="#757575" d="M2259.93,-969.05C2270.98,-964.31 2281.22,-957.94 2290,-949.5 2308.05,-932.16 2355.53,-556.64 2367.32,-461.34"/>
<polygon fill="#757575" stroke="#757575" points="2370.83,-461.5 2368.58,-451.15 2363.88,-460.64 2370.83,-461.5"/>
</g>
<!-- statements/resources/issuerClient.ts&#45;&gt;resources.ts -->
<g id="edge80" class="edge">
<title>statements/resources/issuerClient.ts&#45;&gt;resources.ts</title>
<path fill="none" stroke="#757575" d="M2225.82,-1179.03C2248.65,-1175.19 2271.28,-1167.76 2290,-1154.5 2338.5,-1120.15 2358.88,-1048.08 2366.3,-1012.01"/>
<polygon fill="#757575" stroke="#757575" points="2369.77,-1012.54 2368.21,-1002.06 2362.89,-1011.22 2369.77,-1012.54"/>
</g>
<!-- statements/tokens/generateAccessToken.ts&#45;&gt;resources.ts -->
<g id="edge81" class="edge">
<title>statements/tokens/generateAccessToken.ts&#45;&gt;resources.ts</title>
<path fill="none" stroke="#757575" d="M2247.43,-1041.64C2261.95,-1038.96 2276.38,-1035.63 2290,-1031.5 2308.68,-1025.83 2328.19,-1015.92 2343.28,-1007.26"/>
<polygon fill="#757575" stroke="#757575" points="2345.22,-1010.18 2352.05,-1002.08 2341.66,-1004.15 2345.22,-1010.18"/>
</g>
<!-- statements/tokens/generateAuthorizationCode.ts&#45;&gt;resources.ts -->
<g id="edge83" class="edge">
<title>statements/tokens/generateAuthorizationCode.ts&#45;&gt;resources.ts</title>
<path fill="none" stroke="#757575" d="M2262.73,-897.87C2272.16,-900.77 2281.33,-904.27 2290,-908.5 2318.55,-922.43 2342.61,-950.89 2356.68,-970.33"/>
<polygon fill="#757575" stroke="#757575" points="2353.99,-972.6 2362.58,-978.8 2359.73,-968.6 2353.99,-972.6"/>
</g>
<!-- statements/tokens/generateAuthorizationCode.ts&#45;&gt;errors.ts -->
<g id="edge82" class="edge">
<title>statements/tokens/generateAuthorizationCode.ts&#45;&gt;errors.ts</title>
<path fill="none" stroke="#757575" d="M2202.34,-876.88C2234.27,-868.39 2267.56,-853.74 2290,-828.5 2339.36,-772.99 2362.3,-535.34 2368.33,-461.49"/>
<polygon fill="#757575" stroke="#757575" points="2371.85,-461.34 2369.15,-451.09 2364.88,-460.79 2371.85,-461.34"/>
</g>
<!-- statements/tokens/generateCNonce.ts&#45;&gt;resources.ts -->
<g id="edge84" class="edge">
<title>statements/tokens/generateCNonce.ts&#45;&gt;resources.ts</title>
<path fill="none" stroke="#757575" d="M2231.92,-936.98C2251.59,-939.91 2271.53,-943.95 2290,-949.5 2308.69,-955.11 2328.21,-965.03 2343.29,-973.7"/>
<polygon fill="#757575" stroke="#757575" points="2341.67,-976.81 2352.06,-978.89 2345.23,-970.78 2341.67,-976.81"/>
</g>
<!-- statements/tokens/generateCredentials.ts&#45;&gt;resources.ts -->
<g id="edge86" class="edge">
<title>statements/tokens/generateCredentials.ts&#45;&gt;resources.ts</title>
<path fill="none" stroke="#757575" d="M2241.31,-812.4C2258.73,-817.12 2275.53,-824.17 2290,-834.5 2335.83,-867.2 2357.2,-934.1 2365.53,-968.69"/>
<polygon fill="#757575" stroke="#757575" points="2362.17,-969.72 2367.79,-978.71 2369,-968.18 2362.17,-969.72"/>
</g>
<!-- statements/tokens/generateCredentials.ts&#45;&gt;errors.ts -->
<g id="edge85" class="edge">
<title>statements/tokens/generateCredentials.ts&#45;&gt;errors.ts</title>
<path fill="none" stroke="#757575" d="M2241.34,-812.33C2259.27,-807.64 2276.21,-799.84 2290,-787.5 2339.33,-743.34 2362.04,-530.58 2368.2,-461.33"/>
<polygon fill="#757575" stroke="#757575" points="2371.71,-461.42 2369.08,-451.16 2364.73,-460.82 2371.71,-461.42"/>
</g>
<!-- statements/validations/validateAccessToken.ts&#45;&gt;resources.ts -->
<g id="edge103" class="edge">
<title>statements/validations/validateAccessToken.ts&#45;&gt;resources.ts</title>
<path fill="none" stroke="#757575" d="M2255.83,-644.3C2268.34,-648.97 2280,-655.52 2290,-664.5 2345.2,-714.07 2308.33,-755.45 2326,-827.5 2338.49,-878.43 2355.01,-937.78 2363.83,-968.91"/>
<polygon fill="#757575" stroke="#757575" points="2360.51,-970.02 2366.61,-978.69 2367.24,-968.11 2360.51,-970.02"/>
</g>
<!-- statements/validations/validateAccessToken.ts&#45;&gt;errors.ts -->
<g id="edge102" class="edge">
<title>statements/validations/validateAccessToken.ts&#45;&gt;errors.ts</title>
<path fill="none" stroke="#757575" d="M2255.51,-641.29C2267.86,-637.02 2279.58,-631.23 2290,-623.5 2343.45,-583.86 2361.68,-500.92 2367.49,-461.37"/>
<polygon fill="#757575" stroke="#757575" points="2370.96,-461.82 2368.81,-451.44 2364.02,-460.89 2370.96,-461.82"/>
</g>
<!-- statements/validations/validateAuthorizationCode.ts&#45;&gt;resources.ts -->
<g id="edge105" class="edge">
<title>statements/validations/validateAuthorizationCode.ts&#45;&gt;resources.ts</title>
<path fill="none" stroke="#757575" d="M2271.07,-609.76C2277.87,-613.55 2284.23,-618.09 2290,-623.5 2323.59,-654.98 2315.99,-782.57 2326,-827.5 2337.4,-878.69 2354.36,-937.94 2363.53,-968.98"/>
<polygon fill="#757575" stroke="#757575" points="2360.23,-970.14 2366.43,-978.73 2366.94,-968.14 2360.23,-970.14"/>
</g>
<!-- statements/validations/validateAuthorizationCode.ts&#45;&gt;errors.ts -->
<g id="edge104" class="edge">
<title>statements/validations/validateAuthorizationCode.ts&#45;&gt;errors.ts</title>
<path fill="none" stroke="#757575" d="M2271.27,-592.81C2277.8,-589.87 2284.08,-586.45 2290,-582.5 2333.17,-553.72 2355.43,-493.36 2364.67,-461.03"/>
<polygon fill="#757575" stroke="#757575" points="2368.09,-461.8 2367.31,-451.23 2361.33,-459.97 2368.09,-461.8"/>
</g>
<!-- statements/validations/validateClientCredentials.ts&#45;&gt;resources.ts -->
<g id="edge107" class="edge">
<title>statements/validations/validateClientCredentials.ts&#45;&gt;resources.ts</title>
<path fill="none" stroke="#757575" d="M2267.17,-566.34C2275.46,-570.6 2283.17,-575.91 2290,-582.5 2329.6,-620.71 2314.81,-773.62 2326,-827.5 2336.66,-878.84 2353.91,-938.03 2363.33,-969.03"/>
<polygon fill="#757575" stroke="#757575" points="2360.04,-970.22 2366.32,-978.75 2366.73,-968.17 2360.04,-970.22"/>
</g>
<!-- statements/validations/validateClientCredentials.ts&#45;&gt;errors.ts -->
<g id="edge106" class="edge">
<title>statements/validations/validateClientCredentials.ts&#45;&gt;errors.ts</title>
<path fill="none" stroke="#757575" d="M2267.4,-551.84C2275.24,-548.94 2282.82,-545.52 2290,-541.5 2323.31,-522.84 2347.6,-484.13 2360.2,-460.13"/>
<polygon fill="#757575" stroke="#757575" points="2363.36,-461.64 2364.73,-451.13 2357.11,-458.49 2363.36,-461.64"/>
</g>
<!-- statements/validations/validateCodeVerifier.ts&#45;&gt;errors.ts -->
<g id="edge108" class="edge">
<title>statements/validations/validateCodeVerifier.ts&#45;&gt;errors.ts</title>
<path fill="none" stroke="#757575" d="M2252.61,-365.94C2265.49,-368.91 2278.13,-372.7 2290,-377.5 2313.99,-387.21 2336.87,-406.28 2351.96,-420.72"/>
<polygon fill="#757575" stroke="#757575" points="2349.53,-423.24 2359.11,-427.77 2354.45,-418.26 2349.53,-423.24"/>
</g>
<!-- statements/validations/validateCredentialConfigurations.ts&#45;&gt;resources.ts -->
<g id="edge109" class="edge">
<title>statements/validations/validateCredentialConfigurations.ts&#45;&gt;resources.ts</title>
<path fill="none" stroke="#757575" d="M2277.37,-779.17C2281.76,-781.66 2285.98,-784.43 2290,-787.5 2348.57,-832.27 2364.32,-926.29 2368.51,-968.8"/>
<polygon fill="#757575" stroke="#757575" points="2365.03,-969.23 2369.38,-978.89 2372.01,-968.63 2365.03,-969.23"/>
</g>
<!-- statements/validations/validateDpop.ts&#45;&gt;errors.ts -->
<g id="edge110" class="edge">
<title>statements/validations/validateDpop.ts&#45;&gt;errors.ts</title>
<path fill="none" stroke="#757575" d="M2232.24,-439.5C2266.58,-439.5 2301.59,-439.5 2327.72,-439.5"/>
<polygon fill="#757575" stroke="#757575" points="2327.99,-443 2337.99,-439.5 2327.99,-436 2327.99,-443"/>
</g>
<!-- statements/validations/validateIssuerState.ts&#45;&gt;errors.ts -->
<g id="edge111" class="edge">
<title>statements/validations/validateIssuerState.ts&#45;&gt;errors.ts</title>
<path fill="none" stroke="#757575" d="M2234.96,-410.01C2253.48,-412.4 2272.28,-415.21 2290,-418.5 2302.46,-420.81 2315.85,-424.03 2328.03,-427.25"/>
<polygon fill="#757575" stroke="#757575" points="2327.37,-430.69 2337.94,-429.93 2329.2,-423.94 2327.37,-430.69"/>
</g>
<!-- statements/validations/validateProofs.ts&#45;&gt;resources.ts -->
<g id="edge113" class="edge">
<title>statements/validations/validateProofs.ts&#45;&gt;resources.ts</title>
<path fill="none" stroke="#757575" d="M2235.27,-472.71C2255.78,-477.14 2275.14,-485.63 2290,-500.5 2341.68,-552.2 2312.43,-755.66 2326,-827.5 2335.73,-879.03 2353.35,-938.14 2363.08,-969.08"/>
<polygon fill="#757575" stroke="#757575" points="2359.8,-970.31 2366.17,-978.78 2366.47,-968.19 2359.8,-970.31"/>
</g>
<!-- statements/validations/validateProofs.ts&#45;&gt;errors.ts -->
<g id="edge112" class="edge">
<title>statements/validations/validateProofs.ts&#45;&gt;errors.ts</title>
<path fill="none" stroke="#757575" d="M2227.62,-468.97C2248.48,-466.31 2269.93,-463.16 2290,-459.5 2302.43,-457.23 2315.81,-454.15 2327.99,-451.09"/>
<polygon fill="#757575" stroke="#757575" points="2329.09,-454.42 2337.9,-448.54 2327.34,-447.64 2329.09,-454.42"/>
</g>
<!-- statements/validations/validateRequestUri.ts&#45;&gt;resources.ts -->
<g id="edge116" class="edge">
<title>statements/validations/validateRequestUri.ts&#45;&gt;resources.ts</title>
<path fill="none" stroke="#757575" d="M2249.93,-684.07C2264.55,-688.7 2278.31,-695.58 2290,-705.5 2292.6,-707.71 2346.09,-902.92 2364.12,-968.95"/>
<polygon fill="#757575" stroke="#757575" points="2360.78,-970 2366.79,-978.72 2367.53,-968.15 2360.78,-970"/>
</g>
<!-- statements/validations/validateRequestUri.ts&#45;&gt;constants.ts -->
<g id="edge114" class="edge">
<title>statements/validations/validateRequestUri.ts&#45;&gt;constants.ts</title>
<path fill="none" stroke="#757575" d="M2249.85,-689.76C2263.92,-693.48 2277.57,-698.58 2290,-705.5 2323.36,-724.07 2347.63,-762.81 2360.22,-786.84"/>
<polygon fill="#757575" stroke="#757575" points="2357.13,-788.49 2364.75,-795.85 2363.38,-785.34 2357.13,-788.49"/>
</g>
<!-- statements/validations/validateRequestUri.ts&#45;&gt;errors.ts -->
<g id="edge115" class="edge">
<title>statements/validations/validateRequestUri.ts&#45;&gt;errors.ts</title>
<path fill="none" stroke="#757575" d="M2249.77,-685.17C2264.33,-680.61 2278.12,-673.96 2290,-664.5 2354.12,-613.45 2366.92,-507.06 2369.42,-461.25"/>
<polygon fill="#757575" stroke="#757575" points="2372.92,-461.36 2369.85,-451.22 2365.92,-461.06 2372.92,-461.36"/>
</g>
<!-- statements/validations/validateResourceOwner.ts&#45;&gt;resources.ts -->
<g id="edge118" class="edge">
<title>statements/validations/validateResourceOwner.ts&#45;&gt;resources.ts</title>
<path fill="none" stroke="#757575" d="M2264.83,-523.92C2274.04,-528.41 2282.57,-534.18 2290,-541.5 2335.64,-586.45 2313.62,-764.65 2326,-827.5 2336.13,-878.95 2353.59,-938.1 2363.19,-969.05"/>
<polygon fill="#757575" stroke="#757575" points="2359.9,-970.27 2366.23,-978.77 2366.58,-968.18 2359.9,-970.27"/>
</g>
<!-- statements/validations/validateResourceOwner.ts&#45;&gt;errors.ts -->
<g id="edge117" class="edge">
<title>statements/validations/validateResourceOwner.ts&#45;&gt;errors.ts</title>
<path fill="none" stroke="#757575" d="M2261.13,-509.98C2271.05,-507.36 2280.76,-504.23 2290,-500.5 2313.51,-491.02 2336.07,-472.68 2351.21,-458.58"/>
<polygon fill="#757575" stroke="#757575" points="2354.03,-460.72 2358.81,-451.26 2349.18,-455.67 2354.03,-460.72"/>
</g>
<!-- statements/validations/validateScope.ts&#45;&gt;resources.ts -->
<g id="edge120" class="edge">
<title>statements/validations/validateScope.ts&#45;&gt;resources.ts</title>
<path fill="none" stroke="#757575" d="M2235.21,-721.85C2255.13,-726.12 2274.29,-733.75 2290,-746.5 2307.96,-761.09 2349.41,-912.5 2364.43,-969.21"/>
<polygon fill="#757575" stroke="#757575" points="2361.06,-970.16 2367,-978.94 2367.83,-968.37 2361.06,-970.16"/>
</g>
<!-- statements/validations/validateScope.ts&#45;&gt;errors.ts -->
<g id="edge119" class="edge">
<title>statements/validations/validateScope.ts&#45;&gt;errors.ts</title>
<path fill="none" stroke="#757575" d="M2235.06,-730.82C2255.1,-726.43 2274.36,-718.6 2290,-705.5 2364.92,-642.77 2371.36,-512.69 2370.79,-461.18"/>
<polygon fill="#757575" stroke="#757575" points="2374.29,-461.09 2370.57,-451.17 2367.29,-461.24 2374.29,-461.09"/>
</g>
</g>
</svg>
